<svg width="101" height="142" viewBox="0 0 101 142" fill="none" xmlns="http://www.w3.org/2000/svg">
<path d="M87.032 108.696L101 113.88L101 141.096L0.199991 99.912L0.19999 85.224L101 44.616L101 71.832L87.032 77.016L87.032 108.696ZM44.264 92.856L63.848 100.2L63.848 85.512L44.264 92.856ZM20.648 4.29937C22.856 6.79537 23.96 9.86737 23.96 13.5154C23.96 17.1634 22.856 20.2354 20.648 22.7314C18.44 25.2274 15.704 26.4754 12.44 26.4754C9.27199 26.4754 6.58399 25.2274 4.37599 22.7314C2.07199 20.1394 0.919987 17.0674 0.919987 13.5154C0.919986 9.96337 2.07199 6.93937 4.37599 4.44338C6.58399 1.85138 9.27199 0.555376 12.44 0.555376C15.704 0.555376 18.44 1.80338 20.648 4.29937ZM101 24.7474L29 24.7474L29 2.28337L101 2.28337L101 24.7474Z" fill="#F2F2F2"/>
</svg>
