<svg width="101" height="281" viewBox="0 0 101 281" fill="none" xmlns="http://www.w3.org/2000/svg">
<path d="M0.199992 280.456L0.199991 246.472C0.19999 232.264 3.99199 221.176 11.576 213.208C19.16 205.24 28.616 201.256 39.944 201.256C51.272 201.256 60.728 205.24 68.312 213.208C75.896 221.176 79.688 232.264 79.688 246.472L79.688 255.976L101 255.976L101 280.456L0.199992 280.456ZM56.504 255.976L56.504 244.6C56.504 238.936 55.112 234.184 52.328 230.344C49.544 226.408 45.416 224.44 39.944 224.44C34.664 224.44 30.584 226.408 27.704 230.344C24.728 234.28 23.24 239.032 23.24 244.6L23.24 255.976L56.504 255.976ZM0.199988 179.206L0.199986 142.486C0.199986 128.182 5.04799 116.086 14.744 106.198C24.344 96.214 36.296 91.222 50.6 91.222C65 91.222 77 96.214 86.6 106.198C96.2 116.086 101 128.182 101 142.486L101 179.206L0.199988 179.206ZM77.816 154.726L77.816 142.486C77.816 134.614 75.464 128.182 70.76 123.19C65.96 118.198 59.24 115.702 50.6 115.702C41.96 115.702 35.24 118.198 30.44 123.19C25.64 128.182 23.24 134.614 23.24 142.486L23.24 154.726L77.816 154.726ZM38.936 44.7572L38.936 4.14925L62.12 4.14924L62.12 44.7572L101 44.7572L101 69.2372L0.199983 69.2373L0.19998 0.261246L23.24 0.261245L23.24 44.7572L38.936 44.7572Z" fill="#FBFBFB"/>
</svg>
