<svg width="104" height="304" viewBox="0 0 104 304" fill="none" xmlns="http://www.w3.org/2000/svg">
<path d="M0.191995 252.248C0.191994 237.272 5.75999 224.6 16.896 214.232L31.584 230.072C26.016 236.216 23.232 243.608 23.232 252.248C23.232 259.928 25.872 266.312 31.152 271.4C36.336 276.488 43.152 279.032 51.6 279.032C60.048 279.032 66.864 276.488 72.048 271.4C77.232 266.312 79.824 259.928 79.824 252.248C79.824 243.512 77.088 236.12 71.616 230.072L86.304 214.232C97.44 224.6 103.008 237.272 103.008 252.248C103.008 266.456 98.016 278.552 88.032 288.536C77.952 298.52 65.808 303.512 51.6 303.512C37.392 303.512 25.296 298.52 15.312 288.536C5.23199 278.552 0.191996 266.456 0.191995 252.248ZM1.19999 192.394L1.19999 155.674C1.19999 141.37 6.04799 129.274 15.744 119.385C25.344 109.401 37.296 104.409 51.6 104.409C66 104.409 78 109.401 87.6 119.385C97.2 129.273 102 141.369 102 155.673L102 192.393L1.19999 192.394ZM78.816 167.913L78.816 155.673C78.816 147.801 76.464 141.369 71.76 136.377C66.96 131.385 60.24 128.889 51.6 128.889C42.96 128.889 36.24 131.385 31.44 136.377C26.64 141.369 24.24 147.801 24.24 155.673L24.24 167.913L78.816 167.913ZM1.19998 82.4248L1.19998 47.0008C1.19998 32.9847 4.94398 22.1847 12.432 14.6007C19.92 7.01675 29.184 3.22475 40.224 3.22475C47.232 3.22475 53.472 4.95275 58.944 8.40875C64.32 11.7687 68.496 16.6167 71.472 22.9527C73.968 19.7847 80.016 15.0327 89.616 8.69674L102 0.776741L102 28.2807L93.36 33.8967C88.848 36.8727 85.872 38.9367 84.432 40.0887C82.992 41.1447 81.792 42.5847 80.832 44.4087C79.872 46.2327 79.344 48.7287 79.248 51.8967L79.248 57.9447L102 57.9447L102 82.4247L1.19998 82.4248ZM24.24 57.9447L56.064 57.9447L56.064 44.6967C56.064 39.1287 54.768 34.7127 52.176 31.4487C49.488 28.0887 45.504 26.4087 40.224 26.4087C35.136 26.4087 31.2 28.1367 28.416 31.5927C25.632 34.9527 24.24 39.3207 24.24 44.6967L24.24 57.9447Z" fill="#F2F2F2"/>
</svg>
