<svg width="104" height="290" viewBox="0 0 104 290" fill="none" xmlns="http://www.w3.org/2000/svg">
<path d="M1.19999 289.456L1.19999 255.472C1.19999 241.264 4.99199 230.176 12.576 222.208C20.16 214.24 29.616 210.256 40.944 210.256C52.272 210.256 61.728 214.24 69.312 222.208C76.896 230.176 80.688 241.264 80.688 255.472L80.688 264.976L102 264.976L102 289.456L1.19999 289.456ZM57.504 264.976L57.504 253.6C57.504 247.936 56.112 243.184 53.328 239.344C50.544 235.408 46.416 233.44 40.944 233.44C35.664 233.44 31.584 235.408 28.704 239.344C25.728 243.28 24.24 248.032 24.24 253.6L24.24 264.976L57.504 264.976ZM0.191991 154.51L0.191991 153.502C0.19199 139.87 5.75999 126.478 16.896 113.326L31.584 129.31C29.28 133.15 27.312 137.47 25.68 142.27C24.048 146.974 23.232 150.718 23.232 153.502L23.232 154.51C23.232 164.014 25.92 168.766 31.296 168.766C32.544 168.766 33.648 168.382 34.608 167.614C35.472 166.75 36.144 165.454 36.624 163.726C37.104 161.998 37.44 160.558 37.632 159.406C37.824 158.254 38.064 156.574 38.352 154.366L38.928 147.886C39.504 142.414 40.512 137.566 41.952 133.342C43.296 129.022 45.168 125.086 47.568 121.534C49.968 117.982 53.184 115.246 57.216 113.326C61.152 111.406 65.76 110.446 71.04 110.446C80.736 110.446 88.464 114.19 94.224 121.678C99.888 129.07 102.816 138.766 103.008 150.766L103.008 151.486C103.008 160.894 101.184 169.342 97.536 176.83C93.792 184.318 89.136 190.51 83.568 195.406L68.88 179.422C76.272 171.742 79.968 162.43 79.968 151.486L79.968 150.766C79.776 140.206 76.8 134.926 71.04 134.926C69.312 134.926 67.872 135.358 66.72 136.222C65.568 136.99 64.656 138.334 63.984 140.254C63.312 142.078 62.832 143.71 62.544 145.15C62.256 146.59 61.968 148.606 61.68 151.198L60.96 157.822C59.808 168.286 56.928 176.83 52.32 183.454C47.712 189.982 40.944 193.246 32.016 193.246C22.416 193.246 14.784 189.646 9.11999 182.446C3.35999 175.15 0.383989 165.838 0.191991 154.51ZM1.19998 88.6435L1.19998 51.9235C1.19998 37.6195 6.04798 25.5235 15.744 15.6355C25.344 5.6515 37.296 0.659498 51.6 0.659498C66 0.659497 78 5.6515 87.6 15.6355C97.2 25.5235 102 37.6195 102 51.9235L102 88.6435L1.19998 88.6435ZM78.816 64.1635L78.816 51.9235C78.816 44.0515 76.464 37.6195 71.76 32.6275C66.96 27.6355 60.24 25.1395 51.6 25.1395C42.96 25.1395 36.24 27.6355 31.44 32.6275C26.64 37.6195 24.24 44.0515 24.24 51.9235L24.24 64.1635L78.816 64.1635Z" fill="#FBFBFB"/>
</svg>
