<svg width="646" height="402" viewBox="0 0 646 402" fill="none" xmlns="http://www.w3.org/2000/svg">
<g clip-path="url(#clip0)">
<path d="M389.092 358.209L283 239.403L307.227 236.579L395.971 180L500.307 299.607L412.271 356.358L389.092 358.209ZM288.32 241.439L390.166 355.491L411.406 353.796L496.324 299.043L395.473 183.428L308.131 239.127L288.32 241.439Z" fill="#1D1D1B"/>
<path d="M308.5 239L288.5 241.5L390 355.5L411.5 353.5L496.5 299L395.5 183.5L308.5 239Z" fill="white"/>
<path fill-rule="evenodd" clip-rule="evenodd" d="M411.838 355.083L498.315 299.318L499.298 305.228L414.196 360.008L388.842 361.571L284.873 246.718L285.659 240.414L389.629 356.856L411.838 355.083Z" fill="#1D1D1B"/>
<path d="M388.686 361.965L388.568 361.834L284.494 246.85L285.398 239.561L285.949 240.165L389.8 356.462L411.734 354.716L498.604 298.714L499.718 305.425L499.508 305.557L414.328 360.376H414.236L388.686 361.965ZM285.267 246.6L389.001 361.191L414.079 359.628L498.893 305.045L498.041 299.936L411.957 355.438H411.865L389.472 357.224L389.355 357.093L285.935 241.281L285.267 246.6Z" fill="#1D1D1B"/>
<path fill-rule="evenodd" clip-rule="evenodd" d="M284.191 268.98L285.069 264.646L388.842 380.694L516.593 377.345V381.679L412.728 383.439L388.357 385.606L284.191 268.98Z" fill="#1D1D1B"/>
<path d="M388.2 386L388.069 385.856L283.785 269.098L284.86 263.858L389.012 380.313L516.973 376.964V382.047H516.606L412.741 383.82L388.2 386ZM284.584 268.875L388.501 385.225L412.689 383.071L516.226 381.298V377.713L388.685 381.062L388.567 380.931L285.292 265.447L284.584 268.875Z" fill="#1D1D1B"/>
<path d="M388.791 377.634L388.555 377.384L283.957 261.257L284.927 260.377L389.302 376.255L413.922 373.142L513.869 371.579L505.025 360.534L413.49 370.108L388.975 372.512L388.752 372.262L284.062 257.803L285.031 256.91L389.499 371.133L413.359 368.808L513.817 358.288L509.427 352.391L416.962 366.956L388.673 368.361L284.18 254.204L285.149 253.324L389.224 367.009L416.818 365.656L514.432 350.276L512.074 347.637L512.362 347.374L415.39 363.804L388.673 365.603L388.464 365.367L283.996 250.172L284.966 249.292L389.224 364.251L415.232 362.504L514.039 345.759L485.58 314.199L486.55 313.319L516.607 346.665L513.45 347.19L517.001 351.209L510.895 352.168L516.241 359.352L506.584 360.363L516.568 372.853L414.014 374.442L388.791 377.634Z" fill="#1D1D1B"/>
<path d="M512.145 371.989L511.6 372.5L516.323 377.567L516.869 377.056L512.145 371.989Z" fill="#1D1D1B"/>
<path d="M286.5 213L413 360.5V385.5" stroke="#E25D23" stroke-dasharray="8 8"/>
<path d="M284.225 246.701L283.531 268.964L284.841 269.005L285.534 246.742L284.225 246.701Z" fill="#1D1D1B"/>
<path d="M304.913 214.356L298.656 218.213L298.193 217.462L299.879 212.245C300.089 211.59 300.212 211.07 300.249 210.685C300.282 210.293 300.2 209.937 300.004 209.62C299.735 209.183 299.365 208.939 298.895 208.888C298.429 208.825 297.963 208.932 297.497 209.208L297.402 209.266C296.671 209.717 296.186 210.487 295.948 211.577L294.636 211.316C294.9 209.805 295.608 208.695 296.76 207.985L296.867 207.919C297.714 207.407 298.534 207.226 299.326 207.373C300.119 207.52 300.718 207.924 301.125 208.583C301.463 209.132 301.605 209.745 301.553 210.425C301.508 211.099 301.297 211.975 300.919 213.052L300.119 215.65L304.171 213.152L304.913 214.356ZM303.199 205.71C303.513 204.387 304.246 203.371 305.398 202.661C306.55 201.951 307.783 201.755 309.098 202.074C310.416 202.38 311.43 203.109 312.14 204.261C312.85 205.413 313.048 206.651 312.734 207.973C312.423 209.283 311.692 210.293 310.54 211.003C309.388 211.713 308.153 211.915 306.835 211.609C305.52 211.291 304.507 210.555 303.797 209.403C303.087 208.251 302.888 207.02 303.199 205.71ZM308.719 203.459C307.815 203.238 306.957 203.377 306.147 203.876C305.337 204.376 304.827 205.079 304.619 205.986C304.413 206.88 304.572 207.752 305.096 208.602C305.625 209.46 306.335 209.999 307.226 210.217C308.125 210.43 308.98 210.287 309.79 209.788C310.601 209.288 311.113 208.589 311.326 207.69C311.54 206.791 311.382 205.912 310.853 205.054C310.329 204.204 309.617 203.672 308.719 203.459ZM326.641 200.965L325.449 201.699L322.981 197.695L322.409 201.09L319.119 200.075L321.587 204.079L320.396 204.814L316.723 198.855L317.474 198.392L321.52 199.648L322.217 195.468L322.968 195.006L326.641 200.965ZM335.009 195.807L333.817 196.542L331.349 192.537L330.777 195.932L327.488 194.917L329.956 198.922L328.764 199.656L325.091 193.697L325.842 193.234L329.888 194.49L330.585 190.311L331.336 189.848L335.009 195.807Z" fill="#E25D23"/>
<path d="M338.5 198L300.5 222" stroke="#E25D23"/>
<path d="M299.537 220L297.213 224.167L301.871 224.422L299.537 220Z" fill="#E6551F"/>
<path d="M339.5 281.5C339.5 283.62 337.36 285.5 334.5 285.5C331.64 285.5 329.5 283.62 329.5 281.5C329.5 279.38 331.64 277.5 334.5 277.5C337.36 277.5 339.5 279.38 339.5 281.5Z" fill="white" stroke="#2B2A29"/>
<path d="M363.5 308.5C363.5 310.62 361.36 312.5 358.5 312.5C355.64 312.5 353.5 310.62 353.5 308.5C353.5 306.38 355.64 304.5 358.5 304.5C361.36 304.5 363.5 306.38 363.5 308.5Z" fill="white" stroke="#2B2A29"/>
</g>
<path d="M359.5 308L535.5 277.5" stroke="#E25D23" stroke-width="2.0001" stroke-miterlimit="22.9256"/>
<circle cx="576" cy="238" r="57" fill="white" stroke="#E25D23" stroke-width="2"/>
<path d="M295.5 225L276 228" stroke="#E25D23"/>
<path d="M269 221L389.5 358.5" stroke="#E25D23" stroke-dasharray="8 8"/>
<line x1="30" y1="178.5" x2="18" y2="178.5" stroke="#E25D23"/>
<line x1="47" y1="178.5" x2="35" y2="178.5" stroke="#E25D23"/>
<line x1="103" y1="178.5" x2="51" y2="178.5" stroke="#E25D23"/>
<path d="M29 176L33 178.601L29 181L29 176Z" fill="#E6551F"/>
<path d="M53 176L49 178.601L53 181L53 176Z" fill="#E6551F"/>
<path d="M24 386L179 386L179 190L24 190L24 386Z" fill="#F8F7F7" stroke="black" stroke-width="0.75" stroke-miterlimit="10"/>
<path d="M35 375L166 375L166 201L35 201L35 375Z" fill="white" stroke="black" stroke-width="2" stroke-miterlimit="10"/>
<path d="M160.673 206H52V369.38H160.673V206Z" fill="white"/>
<path d="M51.7891 367.083V369.301H54.0069" stroke="#77569F" stroke-miterlimit="10"/>
<path d="M55.4863 369.301L155.288 369.301" stroke="#77569F" stroke-miterlimit="10" stroke-dasharray="2.98 2.98"/>
<path d="M158.193 368.999H160.242V366.951" stroke="#77569F" stroke-miterlimit="10"/>
<path d="M160.242 362.884V210.002" stroke="#77569F" stroke-miterlimit="10" stroke-dasharray="2.99 2.99"/>
<path d="M160.242 207.968V205.921H158.193" stroke="#77569F" stroke-miterlimit="10"/>
<path d="M153.809 205.921H56.2246" stroke="#77569F" stroke-miterlimit="10" stroke-dasharray="2.98 2.98"/>
<path d="M54.0069 205.922H51.7891V208.14" stroke="#77569F" stroke-miterlimit="10"/>
<path d="M51.7891 212.049V364.917" stroke="#77569F" stroke-miterlimit="10" stroke-dasharray="2.99 2.99"/>
<path d="M47 172L47 390" stroke="#E65420" stroke-miterlimit="10" stroke-dasharray="3.01 3.01"/>
<path d="M35 172.943L35 373.013" stroke="#E65420" stroke-miterlimit="10" stroke-dasharray="3.01 3.01"/>
<path d="M41.3852 271.753C43.0293 271.753 44.3622 270.421 44.3622 268.777C44.3622 267.134 43.0293 265.802 41.3852 265.802C39.741 265.802 38.4082 267.134 38.4082 268.777C38.4082 270.421 39.741 271.753 41.3852 271.753Z" fill="#2B2A29"/>
<path d="M41.3852 308.308C43.0293 308.308 44.3622 306.976 44.3622 305.333C44.3622 303.69 43.0293 302.357 41.3852 302.357C39.741 302.357 38.4082 303.69 38.4082 305.333C38.4082 306.976 39.741 308.308 41.3852 308.308Z" fill="#2B2A29"/>
<path d="M76.376 285.608H80.912C82.784 285.608 84.2 286.072 85.16 287C86.12 287.928 86.6 289.2 86.6 290.816C86.6 292.448 86.128 293.72 85.184 294.632C84.256 295.544 82.832 296 80.912 296H73.784V279.2H84.728V281.648H76.376V285.608ZM76.376 293.552H80.96C82.096 293.552 82.912 293.32 83.408 292.856C83.904 292.392 84.152 291.712 84.152 290.816C84.152 288.976 83.088 288.056 80.96 288.056H76.376V293.552ZM96.2393 283.976L91.4393 296H88.5833L95.5193 279.2H97.0313L103.895 296H101.039L96.2393 283.976ZM108.106 281.552C109.77 279.872 111.786 279.032 114.154 279.032C116.522 279.032 118.538 279.872 120.202 281.552C121.882 283.216 122.722 285.232 122.722 287.6C122.722 289.968 121.882 291.992 120.202 293.672C118.538 295.336 116.522 296.168 114.154 296.168C111.786 296.168 109.77 295.336 108.106 293.672C106.442 291.992 105.61 289.968 105.61 287.6C105.61 285.232 106.442 283.216 108.106 281.552ZM118.402 283.232C117.25 282.064 115.834 281.48 114.154 281.48C112.474 281.48 111.058 282.064 109.906 283.232C108.77 284.384 108.202 285.84 108.202 287.6C108.202 289.376 108.77 290.84 109.906 291.992C111.058 293.144 112.474 293.72 114.154 293.72C115.834 293.72 117.25 293.144 118.402 291.992C119.554 290.84 120.13 289.376 120.13 287.6C120.13 285.84 119.554 284.384 118.402 283.232ZM137.814 296L134.358 290.648C133.862 289.88 133.446 289.368 133.11 289.112C132.79 288.856 132.286 288.728 131.598 288.728H129.462V296H126.87V279.2H129.462V286.232H131.406C132.078 286.232 132.582 286.104 132.918 285.848C133.254 285.592 133.678 285.08 134.19 284.312L137.454 279.2H140.406L136.59 285.128C135.726 286.36 135.022 287.12 134.478 287.408C134.846 287.536 135.19 287.776 135.51 288.128C135.846 288.464 136.262 289.024 136.758 289.808L140.742 296H137.814Z" fill="#E25D23"/>
<rect x="-1" y="1" width="83" height="72" transform="matrix(-1 0 0 1 284 96)" fill="white" stroke="#E25D23" stroke-width="2"/>
<path d="M233 168V144H203" stroke="black" stroke-width="2"/>
<path d="M273 168V110H203" stroke="black"/>
<rect width="10" height="70" transform="matrix(-1 0 0 1 284 98)" fill="#F8F7F7"/>
<rect width="81" height="11" transform="matrix(-1 0 0 1 284 98)" fill="#F8F7F7"/>
<path d="M230.106 133H222.756V132.118L226.928 128.562C227.451 128.114 227.829 127.736 228.062 127.428C228.295 127.111 228.412 126.765 228.412 126.392C228.412 125.879 228.225 125.477 227.852 125.188C227.488 124.889 227.035 124.735 226.494 124.726H226.382C225.523 124.726 224.707 125.127 223.932 125.93L222.952 125.02C223.969 123.872 225.155 123.298 226.508 123.298H226.634C227.623 123.307 228.417 123.583 229.014 124.124C229.611 124.665 229.91 125.323 229.91 126.098C229.91 126.742 229.709 127.339 229.308 127.89C228.916 128.441 228.277 129.075 227.39 129.794L225.346 131.586H230.106V133ZM233.183 124.74C234.144 123.779 235.302 123.298 236.655 123.298C238.008 123.298 239.161 123.779 240.113 124.74C241.074 125.692 241.555 126.845 241.555 128.198C241.555 129.551 241.074 130.709 240.113 131.67C239.161 132.622 238.008 133.098 236.655 133.098C235.302 133.098 234.144 132.622 233.183 131.67C232.231 130.709 231.755 129.551 231.755 128.198C231.755 126.845 232.231 125.692 233.183 124.74ZM239.063 125.72C238.41 125.057 237.607 124.726 236.655 124.726C235.703 124.726 234.9 125.057 234.247 125.72C233.603 126.373 233.281 127.199 233.281 128.198C233.281 129.206 233.603 130.037 234.247 130.69C234.9 131.343 235.703 131.67 236.655 131.67C237.607 131.67 238.41 131.343 239.063 130.69C239.716 130.037 240.043 129.206 240.043 128.198C240.043 127.199 239.716 126.373 239.063 125.72ZM255.629 133H254.229V128.296L251.961 130.886L249.693 128.296V133H248.293V126H249.175L251.961 129.192L254.747 126H255.629V133ZM265.459 133H264.059V128.296L261.791 130.886L259.523 128.296V133H258.123V126H259.005L261.791 129.192L264.577 126H265.459V133Z" fill="#E25D23"/>
<path d="M268 154L272 156.601L268 159L268 154Z" fill="#E6551F"/>
<path d="M217 139L214.399 143L212 139L217 139Z" fill="#E6551F"/>
<line x1="238" y1="156.5" x2="268" y2="156.5" stroke="#E25D23"/>
<line x1="214.5" y1="114" x2="214.5" y2="139" stroke="#E25D23"/>
<path d="M238 154L234 156.601L238 159L238 154Z" fill="#E6551F"/>
<path d="M217 115L214.399 111L212 115L217 115Z" fill="#E6551F"/>
<path d="M178 181C183.527 181 188 185.473 188 191C188 196.527 183.527 201 178 201C172.473 201 168 196.527 168 191C168 185.473 172.473 181 178 181Z" stroke="#E25D23" stroke-width="2.0001" stroke-miterlimit="22.9256"/>
<path fill-rule="evenodd" clip-rule="evenodd" d="M566.178 236.093C571.497 233.688 577.109 234.624 578.705 238.182C580.301 241.74 577.283 246.571 571.964 248.964C566.645 251.369 561.033 250.433 559.437 246.875C557.831 243.328 560.849 238.497 566.178 236.093Z" fill="white"/>
<path d="M566.103 250.835C562.792 250.835 560.024 249.519 558.939 247.103C557.224 243.284 560.371 238.116 565.951 235.592C568.621 234.384 571.454 233.949 573.918 234.362C576.469 234.786 578.347 236.06 579.194 237.953C580.909 241.772 577.761 246.94 572.182 249.464C570.13 250.389 568.024 250.835 566.103 250.835ZM572.041 235.309C570.217 235.309 568.274 235.744 566.396 236.593C561.359 238.867 558.45 243.382 559.926 246.657C561.403 249.932 566.689 250.748 571.737 248.474C576.773 246.2 579.682 241.685 578.206 238.41C577.511 236.865 575.927 235.809 573.745 235.45C573.191 235.352 572.627 235.309 572.041 235.309Z" fill="#1D1D1B"/>
<path d="M572.281 225.704C569.126 225.164 565.292 225.684 561.539 227.425C557.787 229.165 554.863 231.78 553.162 234.577C551.459 237.377 551.008 240.307 552.075 242.743L572.281 225.704ZM572.281 225.704C575.437 226.244 577.859 227.829 578.925 230.256L572.281 225.704ZM578.925 230.257C579.992 232.693 579.541 235.62 577.838 238.419C576.137 241.214 573.213 243.829 569.461 245.575C565.708 247.316 561.874 247.836 558.719 247.296C555.563 246.756 553.141 245.171 552.075 242.744L578.925 230.257Z" fill="white" stroke="black"/>
<path d="M561.358 248C560.478 248 559.619 247.934 558.793 247.793C555.327 247.203 552.784 245.456 551.635 242.857C549.296 237.584 553.621 230.432 561.261 226.927C564.931 225.246 568.816 224.634 572.207 225.213C575.673 225.802 578.216 227.549 579.365 230.148C581.704 235.422 577.379 242.573 569.739 246.078C566.959 247.345 564.073 248 561.358 248ZM569.632 226.097C567.077 226.097 564.33 226.72 561.701 227.932C554.597 231.185 550.519 237.682 552.612 242.41C553.61 244.659 555.863 246.188 558.965 246.712C562.141 247.247 565.811 246.668 569.288 245.074C576.392 241.82 580.47 235.323 578.377 230.596C577.379 228.346 575.126 226.818 572.025 226.294C571.252 226.163 570.447 226.097 569.632 226.097Z" fill="#1D1D1B"/>
<path d="M566 214L566 228.5" stroke="#E25D23" stroke-width="2.0001" stroke-miterlimit="22.9256"/>
<path d="M598.5 259L586.5 269" stroke="#E25D23" stroke-width="2.0001" stroke-miterlimit="22.9256"/>
<path d="M585.298 273C584.466 273 583.634 272.731 583.013 272.085L565 250.729L565.854 250.051L583.845 271.375C584.622 272.16 585.964 272.031 586.884 271.482C587.528 271.095 588.115 270.384 587.805 269.566L578.155 243.366L579.198 243L588.848 269.2C589.291 270.374 588.748 271.633 587.461 272.397C586.84 272.763 586.063 273 585.298 273Z" fill="#1D1D1B"/>
<path d="M555.228 210H553.716V203.112L552.596 204.456L551.616 203.7L554.36 200.41H555.228V210ZM559.08 201.74C560.041 200.779 561.198 200.298 562.552 200.298C563.905 200.298 565.058 200.779 566.01 201.74C566.971 202.692 567.452 203.845 567.452 205.198C567.452 206.551 566.971 207.709 566.01 208.67C565.058 209.622 563.905 210.098 562.552 210.098C561.198 210.098 560.041 209.622 559.08 208.67C558.128 207.709 557.652 206.551 557.652 205.198C557.652 203.845 558.128 202.692 559.08 201.74ZM564.96 202.72C564.306 202.057 563.504 201.726 562.552 201.726C561.6 201.726 560.797 202.057 560.144 202.72C559.5 203.373 559.178 204.199 559.178 205.198C559.178 206.206 559.5 207.037 560.144 207.69C560.797 208.343 561.6 208.67 562.552 208.67C563.504 208.67 564.306 208.343 564.96 207.69C565.613 207.037 565.94 206.206 565.94 205.198C565.94 204.199 565.613 203.373 564.96 202.72ZM581.525 210H580.125V205.296L577.857 207.886L575.589 205.296V210H574.189V203H575.071L577.857 206.192L580.643 203H581.525V210ZM591.355 210H589.955V205.296L587.687 207.886L585.419 205.296V210H584.019V203H584.901L587.687 206.192L590.473 203H591.355V210Z" fill="#E25D23"/>
<path d="M597.336 242.824H592.828V245.33C593.36 244.929 594.102 244.728 595.054 244.728C596.062 244.728 596.841 245.017 597.392 245.596C597.952 246.165 598.232 246.921 598.232 247.864C598.232 248.751 597.919 249.511 597.294 250.146C596.669 250.771 595.796 251.089 594.676 251.098H594.55C592.945 251.089 591.68 250.449 590.756 249.18L591.736 248.27C592.175 248.765 592.613 249.124 593.052 249.348C593.5 249.563 594.009 249.67 594.578 249.67H594.662C595.269 249.661 595.777 249.483 596.188 249.138C596.599 248.793 596.804 248.331 596.804 247.752C596.804 247.136 596.608 246.665 596.216 246.338C595.833 246.011 595.287 245.848 594.578 245.848C594.121 245.848 593.673 245.932 593.234 246.1C592.805 246.268 592.464 246.455 592.212 246.66L591.484 246.1V241.41H597.336V242.824ZM612.172 251H610.772V246.296L608.504 248.886L606.236 246.296V251H604.836V244H605.718L608.504 247.192L611.29 244H612.172V251ZM622.002 251H620.602V246.296L618.334 248.886L616.066 246.296V251H614.666V244H615.548L618.334 247.192L621.12 244H622.002V251Z" fill="#E25D23"/>
<path d="M65.106 175L57.756 175L57.756 174.118L61.928 170.562C62.4507 170.114 62.8287 169.736 63.062 169.428C63.2953 169.111 63.412 168.765 63.412 168.392C63.412 167.879 63.2253 167.477 62.852 167.188C62.488 166.889 62.0353 166.735 61.494 166.726L61.382 166.726C60.5233 166.726 59.7067 167.127 58.932 167.93L57.952 167.02C58.9693 165.872 60.1547 165.298 61.508 165.298L61.634 165.298C62.6233 165.307 63.4167 165.583 64.014 166.124C64.6113 166.665 64.91 167.323 64.91 168.098C64.91 168.742 64.7093 169.339 64.308 169.89C63.916 170.441 63.2767 171.075 62.39 171.794L60.346 173.586L65.106 173.586L65.106 175ZM68.183 166.74C69.1444 165.779 70.3017 165.298 71.655 165.298C73.0084 165.298 74.161 165.779 75.113 166.74C76.0744 167.692 76.555 168.845 76.555 170.198C76.555 171.551 76.0744 172.709 75.113 173.67C74.161 174.622 73.0084 175.098 71.655 175.098C70.3017 175.098 69.1444 174.622 68.183 173.67C67.231 172.709 66.755 171.551 66.755 170.198C66.755 168.845 67.231 167.692 68.183 166.74ZM74.063 167.72C73.4097 167.057 72.607 166.726 71.655 166.726C70.703 166.726 69.9004 167.057 69.247 167.72C68.603 168.373 68.281 169.199 68.281 170.198C68.281 171.206 68.603 172.037 69.247 172.69C69.9004 173.343 70.703 173.67 71.655 173.67C72.607 173.67 73.4097 173.343 74.063 172.69C74.7164 172.037 75.043 171.206 75.043 170.198C75.043 169.199 74.7164 168.373 74.063 167.72ZM90.6289 175L89.2289 175L89.2289 170.296L86.9609 172.886L84.6929 170.296L84.6929 175L83.2929 175L83.2929 168L84.1749 168L86.9609 171.192L89.7469 168L90.6289 168L90.6289 175ZM100.459 175L99.059 175L99.059 170.296L96.791 172.886L94.523 170.296L94.523 175L93.123 175L93.123 168L94.005 168L96.791 171.192L99.577 168L100.459 168L100.459 175Z" fill="#E25D23"/>
<path d="M186.5 184.5L202 168.5" stroke="#E25D23" stroke-width="2.0001" stroke-miterlimit="22.9256"/>
<defs>
<clipPath id="clip0">
<rect width="234" height="206" fill="white" transform="translate(283 180)"/>
</clipPath>
</defs>
</svg>
