<?xml version="1.0" encoding="utf-8"?>
<!-- Generator: Adobe Illustrator 24.1.2, SVG Export Plug-In . SVG Version: 6.00 Build 0)  -->
<svg version="1.1" id="Слой_1" xmlns="http://www.w3.org/2000/svg" xmlns:xlink="http://www.w3.org/1999/xlink" x="0px" y="0px"
	 viewBox="0 0 377 358" style="enable-background:new 0 0 377 358;" xml:space="preserve">
<style type="text/css">
	.st0{fill:#2B2A29;}
	.st1{fill:none;}
</style>
<path class="st0" d="M107.1,304h3.7c0.5,0,1,0.1,1.4,0.2c0.4,0.1,0.7,0.3,1,0.4c0.2,0.2,0.4,0.4,0.6,0.6c0.1,0.2,0.2,0.5,0.3,0.7
	c0,0.2,0.1,0.4,0.1,0.7c0,1.1-0.5,1.8-1.4,2.1c0.6,0.1,1,0.4,1.4,0.8c0.3,0.4,0.5,0.9,0.5,1.6c0,1.8-1.2,2.8-3.5,2.8h-3.9V304z
	 M108.6,305.4v2.7h2.3c1.1,0,1.7-0.4,1.7-1.3s-0.6-1.3-1.7-1.3H108.6z M108.6,309.4v3h2.7c1.2,0,1.8-0.5,1.8-1.5
	c0-0.4-0.1-0.8-0.4-1.1c-0.3-0.3-0.7-0.4-1.3-0.4H108.6z M123,313.8h-1.4v-2.9h-3.7v2.9h-1.4v-7h1.4v2.8h3.7v-2.8h1.4V313.8z
	 M132.1,306.8v6.1c0,1.1-0.3,1.9-0.9,2.6c-0.6,0.7-1.4,1-2.5,1c-1.2,0-2.2-0.4-3.1-1.1l0.8-0.9c0.7,0.4,1.5,0.7,2.3,0.7
	c0.6,0,1.1-0.2,1.5-0.5c0.4-0.3,0.5-0.8,0.5-1.5v-0.6c-0.2,0.4-0.6,0.7-1,0.9c-0.4,0.2-0.8,0.3-1.3,0.3c-1,0-1.7-0.3-2.3-0.9
	c-0.5-0.6-0.8-1.4-0.8-2.5v-3.6h1.4v3.5c0,1.4,0.6,2.1,1.9,2.1c0.6,0,1.1-0.2,1.5-0.6c0.4-0.4,0.5-1,0.5-1.8v-3.2H132.1z
	 M137.6,308.1v5.7h-1.4v-5.7h-2.4v-1.3h6.1v1.3H137.6z M145.4,306.7c1,0,1.8,0.4,2.5,1.1c0.7,0.7,1,1.5,1,2.5c0,1-0.3,1.9-1,2.6
	c-0.7,0.7-1.5,1-2.5,1c-0.5,0-0.9-0.1-1.3-0.3c-0.4-0.2-0.7-0.5-0.9-0.9v3.6h-1.4v-9.6h1l0.1,1.3c0.3-0.4,0.6-0.8,1.1-1
	C144.3,306.8,144.8,306.7,145.4,306.7z M146.8,308.7c-0.4-0.4-0.9-0.6-1.5-0.6c-0.6,0-1.1,0.2-1.6,0.6c-0.4,0.4-0.6,1-0.6,1.6
	s0.2,1.2,0.6,1.6c0.4,0.4,1,0.6,1.6,0.6c0.6,0,1.1-0.2,1.5-0.6c0.4-0.4,0.6-1,0.6-1.6S147.2,309.1,146.8,308.7z M154,306.7
	c0.7,0,1.4,0.2,1.9,0.5s0.9,0.8,1.2,1.5c0.1,0.3,0.2,0.6,0.2,1c0,0.4,0,0.7-0.1,1h-5.3c0,0.6,0.2,1.1,0.6,1.4
	c0.4,0.3,0.9,0.5,1.6,0.5c0.8,0,1.6-0.2,2.3-0.6l0.8,0.8c-0.9,0.7-1.9,1.1-3,1.1c-1.1,0-1.9-0.3-2.6-1s-1-1.5-1-2.6
	c0-1,0.3-1.9,1-2.6C152.1,307,152.9,306.7,154,306.7z M154,308c-0.6,0-1.1,0.2-1.4,0.5c-0.4,0.3-0.6,0.8-0.6,1.3h4
	c0-0.2-0.1-0.5-0.2-0.7c-0.1-0.3-0.4-0.6-0.7-0.8C154.8,308.1,154.4,308,154,308z M166,313.8h-1.4v-2.9h-3.7v2.9h-1.4v-7h1.4v2.8
	h3.7v-2.8h1.4V313.8z M175,313.8h-1.4v-2.9h-3.7v2.9h-1.4v-7h1.4v2.8h3.7v-2.8h1.4V313.8z M183.9,313.8h-1.4v-4.7l-4.1,4.7h-0.9v-7
	h1.4v4.7l4.1-4.7h0.9V313.8z M191,305.5c-0.4,0.4-0.9,0.6-1.5,0.6s-1.1-0.2-1.5-0.6c-0.4-0.4-0.6-0.8-0.6-1.4h1
	c0,0.3,0.1,0.5,0.3,0.7c0.2,0.2,0.5,0.3,0.8,0.3c0.3,0,0.6-0.1,0.8-0.3c0.2-0.2,0.3-0.4,0.3-0.7h1
	C191.6,304.7,191.4,305.2,191,305.5z M192.7,313.8h-1.4v-4.7l-4.1,4.7h-0.9v-7h1.4v4.7l4.1-4.7h0.9V313.8z M203.5,306.7
	c1,0,1.8,0.4,2.5,1.1c0.7,0.7,1,1.5,1,2.5c0,1-0.3,1.9-1,2.6c-0.7,0.7-1.5,1-2.5,1c-0.5,0-0.9-0.1-1.3-0.3c-0.4-0.2-0.7-0.5-0.9-0.9
	v3.6h-1.4v-9.6h1l0.1,1.3c0.3-0.4,0.6-0.8,1.1-1C202.5,306.8,203,306.7,203.5,306.7z M204.9,308.7c-0.4-0.4-0.9-0.6-1.5-0.6
	c-0.6,0-1.1,0.2-1.6,0.6c-0.4,0.4-0.6,1-0.6,1.6s0.2,1.2,0.6,1.6c0.4,0.4,1,0.6,1.6,0.6c0.6,0,1.1-0.2,1.5-0.6
	c0.4-0.4,0.6-1,0.6-1.6S205.4,309.1,204.9,308.7z M215.7,313.8h-1l-0.1-1.3c-0.3,0.4-0.6,0.8-1.1,1c-0.5,0.2-1,0.4-1.5,0.4
	c-1,0-1.8-0.3-2.5-1c-0.7-0.7-1-1.5-1-2.5c0-1,0.3-1.9,1-2.5c0.7-0.7,1.5-1,2.5-1c0.5,0,1,0.1,1.5,0.4c0.5,0.3,0.8,0.6,1.1,1
	l0.1-1.3h1V313.8z M210.7,311.9c0.4,0.4,0.9,0.6,1.5,0.6s1.1-0.2,1.5-0.6c0.4-0.4,0.7-1,0.7-1.6c0-0.7-0.2-1.2-0.7-1.6
	c-0.4-0.4-0.9-0.6-1.5-0.6s-1.1,0.2-1.5,0.6c-0.4,0.4-0.6,1-0.6,1.6S210.2,311.5,210.7,311.9z M222.3,310.1c0.9,0.2,1.3,0.7,1.3,1.6
	c0,0.7-0.3,1.2-0.8,1.6c-0.5,0.4-1.2,0.6-2.1,0.6h-0.2c-0.7,0-1.3-0.1-1.9-0.4c-0.6-0.3-1-0.6-1.2-1l0.8-0.8c0.2,0.3,0.6,0.5,1,0.7
	s0.8,0.3,1.3,0.3h0.2c0.4,0,0.8-0.1,1.1-0.3c0.3-0.2,0.4-0.4,0.4-0.8c0-0.6-0.4-0.9-1.2-1h-1.2v-0.9h1c0.7,0,1-0.3,1-0.8
	c0-0.3-0.1-0.5-0.4-0.7c-0.2-0.2-0.5-0.2-0.9-0.2h-0.1c-0.8,0-1.4,0.3-2,0.8l-0.7-0.8c0.3-0.4,0.7-0.7,1.2-0.9
	c0.5-0.2,1.1-0.4,1.6-0.4h0.1c0.7,0,1.3,0.2,1.8,0.5c0.5,0.3,0.7,0.8,0.7,1.4C223.3,309.4,223,309.9,222.3,310.1z M225.8,306.8h3.7
	c0.8,0,1.4,0.2,1.8,0.5c0.4,0.3,0.6,0.8,0.6,1.4c0,0.8-0.3,1.3-1,1.5c0.4,0.1,0.8,0.3,1,0.6c0.2,0.3,0.3,0.6,0.3,1
	c0,0.7-0.2,1.2-0.6,1.5c-0.4,0.3-1.1,0.5-2,0.5h-3.7V306.8z M227.2,308v1.7h2.2c0.7,0,1-0.3,1-0.8s-0.3-0.8-1-0.8H227.2z
	 M227.2,312.6h2.3c0.8,0,1.2-0.3,1.2-1s-0.4-1-1.2-1l-2.3,0V312.6z M237.4,306.7c1,0,1.8,0.4,2.5,1.1c0.7,0.7,1,1.5,1,2.5
	s-0.3,1.8-1,2.5c-0.7,0.7-1.5,1.1-2.5,1.1c-1,0-1.8-0.4-2.5-1.1c-0.7-0.7-1-1.5-1-2.5c0-1,0.3-1.8,1.1-2.5
	C235.5,307.1,236.4,306.7,237.4,306.7z M238.9,308.7c-0.4-0.4-0.9-0.6-1.5-0.6s-1.1,0.2-1.5,0.6c-0.4,0.4-0.6,1-0.6,1.6
	s0.2,1.2,0.6,1.6c0.4,0.4,0.9,0.6,1.5,0.6s1.1-0.2,1.5-0.6c0.4-0.4,0.7-1,0.7-1.6C239.6,309.6,239.3,309.1,238.9,308.7z
	 M246.8,306.7c1,0,1.8,0.4,2.5,1.1c0.7,0.7,1,1.5,1,2.5c0,1-0.3,1.9-1,2.6c-0.7,0.7-1.5,1-2.5,1c-0.5,0-0.9-0.1-1.3-0.3
	c-0.4-0.2-0.7-0.5-0.9-0.9v3.6h-1.4v-9.6h1l0.1,1.3c0.3-0.4,0.6-0.8,1.1-1C245.7,306.8,246.2,306.7,246.8,306.7z M248.2,308.7
	c-0.4-0.4-0.9-0.6-1.5-0.6c-0.6,0-1.1,0.2-1.6,0.6c-0.4,0.4-0.6,1-0.6,1.6s0.2,1.2,0.6,1.6c0.4,0.4,1,0.6,1.6,0.6
	c0.6,0,1.1-0.2,1.5-0.6c0.4-0.4,0.6-1,0.6-1.6S248.6,309.1,248.2,308.7z M255.5,306.7c1,0,1.8,0.4,2.5,1.1c0.7,0.7,1.1,1.5,1.1,2.5
	s-0.4,1.8-1.1,2.5c-0.7,0.7-1.5,1.1-2.5,1.1c-1,0-1.8-0.4-2.5-1.1c-0.7-0.7-1-1.5-1-2.5c0-1,0.4-1.8,1-2.5
	C253.6,307.1,254.5,306.7,255.5,306.7z M257,308.7c-0.4-0.4-0.9-0.6-1.5-0.6c-0.6,0-1.1,0.2-1.5,0.6c-0.4,0.4-0.6,1-0.6,1.6
	s0.2,1.2,0.6,1.6c0.4,0.4,0.9,0.6,1.5,0.6c0.6,0,1.1-0.2,1.5-0.6c0.4-0.4,0.7-1,0.7-1.6C257.7,309.6,257.4,309.1,257,308.7z
	 M264,308.1v5.7h-1.4v-5.7h-2.4v-1.3h6.1v1.3H264z M102.7,324.4v1.4c-0.6,0.5-1.2,1.2-1.6,2.1c-0.4,0.8-0.6,1.7-0.6,2.5v0.2
	c0,0.9,0.2,1.7,0.6,2.6c0.4,0.8,0.9,1.6,1.6,2.1v1.4c-1.1-0.6-2-1.5-2.7-2.6c-0.7-1.1-1-2.3-1-3.5v-0.2c0-1.2,0.4-2.4,1-3.5
	S101.6,325,102.7,324.4z M111.2,334.8h-1.4v-4.7l-4.1,4.7h-0.9v-7h1.4v4.7l4.1-4.7h0.9V334.8z M120.1,334.8h-1.4v-2.9h-3.7v2.9h-1.4
	v-7h1.4v2.8h3.7v-2.8h1.4V334.8z M131.5,327.7c1,0,1.8,0.4,2.5,1.1c0.7,0.7,1,1.5,1,2.5c0,1-0.3,1.9-1,2.6c-0.7,0.7-1.5,1-2.5,1
	c-0.5,0-0.9-0.1-1.3-0.3c-0.4-0.2-0.7-0.5-0.9-0.8v3.5h-1.4v-3.5c-0.2,0.3-0.5,0.6-0.9,0.8c-0.4,0.2-0.8,0.3-1.3,0.3
	c-1,0-1.8-0.3-2.5-1c-0.7-0.7-1-1.6-1-2.6c0-1,0.3-1.8,1-2.5c0.7-0.7,1.5-1.1,2.5-1.1c0.5,0,1,0.1,1.5,0.4c0.4,0.2,0.8,0.6,1.1,1
	l0-1.2h0.7l0,1.2c0.3-0.4,0.6-0.7,1.1-1C130.5,327.8,131,327.7,131.5,327.7z M124.2,332.9c0.4,0.4,0.9,0.6,1.5,0.6s1.1-0.2,1.5-0.6
	c0.4-0.4,0.7-1,0.7-1.6s-0.2-1.2-0.7-1.6c-0.4-0.4-0.9-0.6-1.5-0.6s-1.1,0.2-1.5,0.6c-0.4,0.4-0.6,1-0.6,1.6
	S123.8,332.5,124.2,332.9z M129.8,332.9c0.4,0.4,1,0.6,1.6,0.6s1.1-0.2,1.5-0.6c0.4-0.4,0.6-1,0.6-1.6s-0.2-1.2-0.6-1.6
	c-0.4-0.4-0.9-0.6-1.5-0.6s-1.1,0.2-1.6,0.6c-0.4,0.4-0.6,1-0.6,1.6S129.4,332.5,129.8,332.9z M140.2,327.7c1,0,1.8,0.4,2.5,1.1
	c0.7,0.7,1.1,1.5,1.1,2.5s-0.3,1.8-1.1,2.5c-0.7,0.7-1.5,1.1-2.5,1.1c-1,0-1.8-0.4-2.5-1.1c-0.7-0.7-1-1.5-1-2.5c0-1,0.3-1.8,1-2.5
	C138.3,328.1,139.2,327.7,140.2,327.7z M141.7,329.7c-0.4-0.4-0.9-0.6-1.5-0.6c-0.6,0-1.1,0.2-1.5,0.6c-0.4,0.4-0.6,1-0.6,1.6
	s0.2,1.2,0.6,1.6c0.4,0.4,0.9,0.6,1.5,0.6c0.6,0,1.1-0.2,1.5-0.6c0.4-0.4,0.7-1,0.7-1.6C142.4,330.6,142.2,330.1,141.7,329.7z
	 M149.6,327.7c1,0,1.8,0.4,2.5,1.1c0.7,0.7,1,1.5,1,2.5c0,1-0.3,1.9-1,2.6c-0.7,0.7-1.5,1-2.5,1c-0.5,0-0.9-0.1-1.3-0.3
	c-0.4-0.2-0.7-0.5-0.9-0.9v3.6H146v-9.6h1l0.1,1.3c0.3-0.4,0.6-0.8,1.1-1C148.5,327.8,149,327.7,149.6,327.7z M151,329.7
	c-0.4-0.4-0.9-0.6-1.5-0.6c-0.6,0-1.1,0.2-1.6,0.6c-0.4,0.4-0.6,1-0.6,1.6s0.2,1.2,0.6,1.6c0.4,0.4,1,0.6,1.6,0.6
	c0.6,0,1.1-0.2,1.5-0.6c0.4-0.4,0.6-1,0.6-1.6S151.4,330.1,151,329.7z M162.4,334.8H161v-4.7l-2.3,2.6l-2.3-2.6v4.7h-1.4v-7h0.9
	l2.8,3.2l2.8-3.2h0.9V334.8z M171.6,334.8h-1l-0.1-1.3c-0.3,0.4-0.6,0.8-1.1,1c-0.5,0.2-1,0.4-1.5,0.4c-1,0-1.8-0.3-2.5-1
	c-0.7-0.7-1-1.5-1-2.5c0-1,0.3-1.9,1-2.5c0.7-0.7,1.5-1,2.5-1c0.5,0,1,0.1,1.5,0.4c0.5,0.3,0.8,0.6,1.1,1l0.1-1.3h1V334.8z
	 M166.6,332.9c0.4,0.4,0.9,0.6,1.5,0.6c0.6,0,1.1-0.2,1.5-0.6c0.4-0.4,0.7-1,0.7-1.6c0-0.7-0.2-1.2-0.7-1.6
	c-0.4-0.4-0.9-0.6-1.5-0.6c-0.6,0-1.1,0.2-1.5,0.6c-0.4,0.4-0.6,1-0.6,1.6S166.1,332.5,166.6,332.9z M181.7,336.2h-1.4v-1.4h-6.2v-7
	h1.4v5.7h3.6v-5.7h1.4v5.7h1.2V336.2z M189.8,334.8h-1.4v-4.7l-4.1,4.7h-0.9v-7h1.4v4.7l4.1-4.7h0.9V334.8z M198.1,334.8h-1.4v-2.2
	h-1.2c-0.4,0-0.6,0.1-0.8,0.2c-0.2,0.1-0.4,0.4-0.7,0.9l-0.7,1h-1.5l0.8-1.2c0,0,0.1-0.1,0.2-0.3c0.1-0.1,0.2-0.2,0.2-0.3
	c0,0,0.1-0.1,0.2-0.2c0.1-0.1,0.1-0.2,0.2-0.2c0.1-0.1,0.1-0.1,0.2-0.2c-0.5-0.1-0.9-0.4-1.2-0.8c-0.3-0.4-0.4-0.8-0.4-1.3
	c0-0.7,0.2-1.3,0.7-1.8c0.5-0.5,1.2-0.7,2.3-0.7h3.3V334.8z M196.7,329.1h-2c-0.5,0-0.8,0.1-1.1,0.3c-0.2,0.2-0.4,0.5-0.4,0.9
	c0,0.4,0.1,0.6,0.4,0.8c0.3,0.2,0.6,0.3,1.1,0.3h2V329.1z M209.3,331.1c0.9,0.2,1.3,0.7,1.3,1.6c0,0.7-0.3,1.2-0.8,1.6
	c-0.5,0.4-1.2,0.6-2.1,0.6h-0.2c-0.7,0-1.3-0.1-1.9-0.4c-0.6-0.3-1-0.6-1.2-1l0.8-0.8c0.2,0.3,0.6,0.5,1,0.7
	c0.4,0.2,0.8,0.3,1.3,0.3h0.2c0.4,0,0.8-0.1,1.1-0.3c0.3-0.2,0.4-0.4,0.4-0.8c0-0.6-0.4-0.9-1.2-1h-1.2v-0.9h1c0.7,0,1-0.3,1-0.8
	c0-0.3-0.1-0.5-0.4-0.7c-0.2-0.2-0.5-0.2-0.9-0.2h-0.1c-0.8,0-1.4,0.3-2,0.8l-0.7-0.8c0.3-0.4,0.7-0.7,1.2-0.9
	c0.5-0.2,1.1-0.4,1.6-0.4h0.1c0.7,0,1.3,0.2,1.8,0.5c0.5,0.3,0.7,0.8,0.7,1.4C210.3,330.4,209.9,330.9,209.3,331.1z M219.4,334.8h-1
	l-0.1-1.3c-0.3,0.4-0.6,0.8-1.1,1c-0.5,0.2-1,0.4-1.5,0.4c-1,0-1.8-0.3-2.5-1c-0.7-0.7-1-1.5-1-2.5c0-1,0.3-1.9,1-2.5
	c0.7-0.7,1.5-1,2.5-1c0.5,0,1,0.1,1.5,0.4c0.5,0.3,0.8,0.6,1.1,1l0.1-1.3h1V334.8z M214.3,332.9c0.4,0.4,0.9,0.6,1.5,0.6
	c0.6,0,1.1-0.2,1.5-0.6c0.4-0.4,0.7-1,0.7-1.6c0-0.7-0.2-1.2-0.7-1.6c-0.4-0.4-0.9-0.6-1.5-0.6c-0.6,0-1.1,0.2-1.5,0.6
	c-0.4,0.4-0.6,1-0.6,1.6S213.9,332.5,214.3,332.9z M225.5,327.7c1,0,1.8,0.4,2.5,1.1c0.7,0.7,1,1.5,1,2.5c0,1-0.3,1.9-1,2.6
	c-0.7,0.7-1.5,1-2.5,1c-0.5,0-0.9-0.1-1.3-0.3c-0.4-0.2-0.7-0.5-0.9-0.9v3.6h-1.4v-9.6h1l0.1,1.3c0.3-0.4,0.6-0.8,1.1-1
	C224.5,327.8,225,327.7,225.5,327.7z M227,329.7c-0.4-0.4-0.9-0.6-1.5-0.6s-1.1,0.2-1.6,0.6c-0.4,0.4-0.6,1-0.6,1.6s0.2,1.2,0.6,1.6
	c0.4,0.4,1,0.6,1.6,0.6s1.1-0.2,1.5-0.6c0.4-0.4,0.6-1,0.6-1.6S227.4,330.1,227,329.7z M234.2,327.7c0.7,0,1.4,0.2,1.9,0.5
	s0.9,0.8,1.2,1.5c0.1,0.3,0.2,0.6,0.2,1c0,0.4,0,0.7-0.1,1h-5.3c0,0.6,0.2,1.1,0.6,1.4c0.4,0.3,0.9,0.5,1.6,0.5
	c0.8,0,1.6-0.2,2.3-0.6l0.8,0.8c-0.9,0.7-1.9,1.1-3,1.1c-1.1,0-1.9-0.3-2.6-1c-0.7-0.7-1-1.5-1-2.6c0-1,0.3-1.9,1-2.6
	C232.3,328,233.1,327.7,234.2,327.7z M234.2,329c-0.6,0-1.1,0.2-1.4,0.5c-0.4,0.3-0.6,0.8-0.6,1.3h4c0-0.2-0.1-0.5-0.2-0.7
	c-0.1-0.3-0.4-0.6-0.7-0.8C235,329.1,234.6,329,234.2,329z M244,331.1c0.9,0.2,1.3,0.7,1.3,1.6c0,0.7-0.3,1.2-0.8,1.6
	c-0.5,0.4-1.2,0.6-2.1,0.6h-0.2c-0.7,0-1.3-0.1-1.9-0.4c-0.6-0.3-1-0.6-1.2-1l0.8-0.8c0.2,0.3,0.6,0.5,1,0.7s0.8,0.3,1.3,0.3h0.2
	c0.4,0,0.8-0.1,1.1-0.3c0.3-0.2,0.4-0.4,0.4-0.8c0-0.6-0.4-0.9-1.2-1h-1.2v-0.9h1c0.7,0,1-0.3,1-0.8c0-0.3-0.1-0.5-0.4-0.7
	c-0.2-0.2-0.5-0.2-0.9-0.2h-0.1c-0.8,0-1.4,0.3-2,0.8l-0.7-0.8c0.3-0.4,0.7-0.7,1.2-0.9c0.5-0.2,1.1-0.4,1.6-0.4h0.1
	c0.7,0,1.3,0.2,1.8,0.5c0.5,0.3,0.7,0.8,0.7,1.4C245,330.4,244.7,330.9,244,331.1z M254.1,334.8h-1l-0.1-1.3c-0.3,0.4-0.6,0.8-1.1,1
	c-0.5,0.2-1,0.4-1.5,0.4c-1,0-1.8-0.3-2.5-1c-0.7-0.7-1-1.5-1-2.5c0-1,0.3-1.9,1-2.5c0.7-0.7,1.5-1,2.5-1c0.5,0,1,0.1,1.5,0.4
	c0.5,0.3,0.8,0.6,1.1,1l0.1-1.3h1V334.8z M249.1,332.9c0.4,0.4,0.9,0.6,1.5,0.6c0.6,0,1.1-0.2,1.5-0.6c0.4-0.4,0.7-1,0.7-1.6
	c0-0.7-0.2-1.2-0.7-1.6c-0.4-0.4-0.9-0.6-1.5-0.6c-0.6,0-1.1,0.2-1.5,0.6c-0.4,0.4-0.6,1-0.6,1.6S248.7,332.5,249.1,332.9z
	 M263.1,334.8h-1.4v-2.9H258v2.9h-1.4v-7h1.4v2.8h3.7v-2.8h1.4V334.8z M272.2,334.8h-1l-0.1-1.3c-0.3,0.4-0.6,0.8-1.1,1
	c-0.5,0.2-1,0.4-1.5,0.4c-1,0-1.8-0.3-2.5-1c-0.7-0.7-1-1.5-1-2.5c0-1,0.3-1.9,1-2.5c0.7-0.7,1.5-1,2.5-1c0.5,0,1,0.1,1.5,0.4
	c0.5,0.3,0.8,0.6,1.1,1l0.1-1.3h1V334.8z M267.2,332.9c0.4,0.4,0.9,0.6,1.5,0.6c0.6,0,1.1-0.2,1.5-0.6c0.4-0.4,0.7-1,0.7-1.6
	c0-0.7-0.2-1.2-0.7-1.6c-0.4-0.4-0.9-0.6-1.5-0.6c-0.6,0-1.1,0.2-1.5,0.6c-0.4,0.4-0.6,1-0.6,1.6S266.8,332.5,267.2,332.9z
	 M274.3,325.8v-1.4c1.1,0.6,2,1.4,2.6,2.6c0.7,1.1,1,2.3,1,3.5v0.2c0,1.2-0.3,2.4-1,3.5c-0.7,1.1-1.6,2-2.7,2.6v-1.4
	c0.7-0.6,1.2-1.3,1.6-2.1s0.6-1.7,0.6-2.6v-0.2c0-0.9-0.2-1.7-0.6-2.5C275.5,327,274.9,326.4,274.3,325.8z"/>
<rect x="169.2" y="55.6" class="st1" width="171" height="209"/>
<rect x="48.2" y="58.6" class="st1" width="169" height="206"/>
<path d="M84.6,67.8l102,17.5l103.8-16.5c5.6,57.6,11.2,115.2,16.8,172.8c-39.8,7-79.5,14-119.3,21L73.5,242.1l-3.3-0.6
	c4.5-58,8.9-116,13.4-173.9L84.6,67.8z M186.4,87.1L85.3,69.8L72.2,240c38.6,6.7,77.2,13.8,115.7,20.7L305.2,240L288.8,70.9
	L186.6,87.1L186.4,87.1z"/>
<path d="M187.5,259.6h0.9v2.1h-0.9V259.6z M187.5,87.3v2.1h0.9v-2.1H187.5z M187.5,91.5h0.9v2.1h-0.9V91.5z M187.5,95.7h0.9v2.1
	h-0.9V95.7z M187.5,99.9h0.9v2.1h-0.9V99.9z M187.5,104.1h0.9v2.1h-0.9V104.1z M187.5,108.3h0.9v2.1h-0.9V108.3z M187.5,112.5h0.9
	v2.1h-0.9V112.5z M187.5,116.7h0.9v2.1h-0.9V116.7z M187.5,120.9h0.9v2.1h-0.9V120.9z M187.5,125.1h0.9v2.1h-0.9V125.1z
	 M187.5,129.3h0.9v2.1h-0.9V129.3z M187.5,133.5h0.9v2.1h-0.9V133.5z M187.5,137.7h0.9v2.1h-0.9V137.7z M187.5,141.9h0.9v2.1h-0.9
	V141.9z M187.5,146.1h0.9v2.1h-0.9V146.1z M187.5,150.3h0.9v2.1h-0.9V150.3z M187.5,154.5h0.9v2.1h-0.9V154.5z M187.5,158.7h0.9v2.1
	h-0.9V158.7z M187.5,162.9h0.9v2.1h-0.9V162.9z M187.5,167.1h0.9v2.1h-0.9V167.1z M187.5,171.3h0.9v2.1h-0.9V171.3z M187.5,175.5
	h0.9v2.1h-0.9V175.5z M187.5,179.7h0.9v2.1h-0.9V179.7z M187.5,183.9h0.9v2.1h-0.9V183.9z M187.5,188.1h0.9v2.1h-0.9V188.1z
	 M187.5,192.3h0.9v2.1h-0.9V192.3z M187.5,196.5h0.9v2.1h-0.9V196.5z M187.5,200.7h0.9v2.1h-0.9V200.7z M187.5,204.9h0.9v2.1h-0.9
	V204.9z M187.5,209.1h0.9v2.1h-0.9V209.1z M187.5,213.3h0.9v2.1h-0.9V213.3z M187.5,217.5h0.9v2.1h-0.9V217.5z M187.5,221.7h0.9v2.1
	h-0.9V221.7z M187.5,225.9h0.9v2.1h-0.9V225.9z M187.5,230.1h0.9v2.1h-0.9V230.1z M187.5,234.3h0.9v2.1h-0.9V234.3z M187.5,238.6
	h0.9v2.1h-0.9V238.6z M187.5,242.8h0.9v2.1h-0.9V242.8z M187.5,247h0.9v2.1h-0.9V247z M187.5,251.2h0.9v2.1h-0.9V251.2z
	 M187.5,255.4h0.9v2.1h-0.9V255.4z"/>
<path d="M73.6,241.1l-0.5,6.3l115.4,13.9l0,0.5l-114.8-6v-7.8l-1.1-0.1l0.6-6.9L73.6,241.1z M180.6,261L74.1,248.1v7.2L180.6,261z"
	/>
<path d="M75.3,255.6l-0.1,5.2l113.1,0.6v0.5l-113.6-0.6l0.1-5.8L75.3,255.6z"/>
<path d="M304.8,241.2l0.6,6.8l-1.9,0.2l0.8,7.7l-115.9,6l0-0.5l116.5-13.8l-0.5-6.3L304.8,241.2z M303,248.3L196.2,261l107.5-5.5
	L303,248.3z"/>
<path d="M302.3,255.5l0.8,5.8l-114.1,0.6v-0.5l113.4-0.6l-0.7-5.2L302.3,255.5z"/>
<image style="overflow:visible;" width="169" height="206" xlink:href="../../ТЕКСТ ЗАРЕЗАН 1.png"  transform="matrix(1 0 0 1 49.245 52.011)">
</image>
<image style="overflow:visible;" width="171" height="209" xlink:href="../../ТЕКСТ ЗАРЕЗАН2 1.png"  transform="matrix(1 0 0 1 167.734 52.266)">
</image>
</svg>
