<svg width="46" height="35" viewBox="0 0 46 35" fill="none" xmlns="http://www.w3.org/2000/svg">
<path fill-rule="evenodd" clip-rule="evenodd" d="M2.14077 32.5099C1.2336 32.9304 0.299354 32.8581 0.0624069 32.3456C-0.18131 31.8331 0.367053 31.0775 1.27422 30.6505L43.8637 10.8673C44.7709 10.4468 45.7051 10.5191 45.9421 11.0315C46.1858 11.544 45.6374 12.2996 44.7303 12.7267L2.14077 32.5099Z" fill="#2B2A29"/>
<path fill-rule="evenodd" clip-rule="evenodd" d="M43.8637 32.5099C44.7709 32.9304 45.7051 32.8581 45.9421 32.3456C46.179 31.8331 45.6374 31.0775 44.7303 30.6505L2.14077 10.8673C1.2336 10.4468 0.299354 10.5191 0.055637 11.0315C-0.18131 11.544 0.360281 12.2996 1.26745 12.7267L43.8637 32.5099Z" fill="#2B2A29"/>
<path fill-rule="evenodd" clip-rule="evenodd" d="M23.9128 1.82654L40.5668 35H5.43771L22.0917 1.82654L22.9989 0L23.9128 1.82654ZM37.2427 32.9501L22.9989 4.56636L8.75496 32.9501H37.2427Z" fill="#2B2A29"/>
</svg>
