<svg width="33" height="34" viewBox="0 0 33 34" fill="none" xmlns="http://www.w3.org/2000/svg">
<path fill-rule="evenodd" clip-rule="evenodd" d="M16.5 0C21.0531 0 25.1831 1.90087 28.1648 4.98136C31.1532 8.05511 33 12.3085 33 17C33 21.6915 31.1532 25.9449 28.1648 29.0186C25.1764 32.0924 21.0531 34 16.5 34C11.9469 34 7.81685 32.0991 4.83517 29.0186C1.84676 25.9449 0 21.6983 0 17C0 12.3085 1.84676 8.05511 4.83517 4.98136C7.81685 1.90087 11.9469 0 16.5 0ZM26.721 6.46431C24.1087 3.76804 20.489 2.10309 16.5 2.10309C12.5043 2.10309 8.89133 3.76804 6.279 6.46431C3.65995 9.16059 2.04151 12.8882 2.04151 17C2.04151 21.1118 3.65995 24.8394 6.279 27.5357C8.89805 30.232 12.511 31.8969 16.5 31.8969C20.4957 31.8969 24.1087 30.2252 26.721 27.5357C29.34 24.8394 30.9585 21.1118 30.9585 17C30.9585 12.8882 29.34 9.16059 26.721 6.46431Z" fill="black"/>
<path fill-rule="evenodd" clip-rule="evenodd" d="M13.6258 25.0012H15.6337V18.5908C16.0971 18.7121 16.6477 18.7324 17.2454 18.7324C19.2064 18.7324 20.9121 18.1392 21.9933 16.973C22.779 16.1439 23.1886 15.0048 23.1886 13.5555C23.1886 12.1332 22.6581 10.9671 21.8321 10.2054C20.9121 9.34933 19.4615 8.87748 17.4805 8.87748C15.8687 8.87748 14.5995 9.01903 13.6325 9.18755V25.0012H13.6258ZM15.627 10.684C15.9695 10.5896 16.641 10.5155 17.514 10.5155C19.7033 10.5155 21.1807 11.5333 21.1807 13.6701C21.1807 15.8271 19.7033 17.0674 17.2857 17.0674C16.6142 17.0674 16.0635 17.0202 15.627 16.8989V10.684Z" fill="black"/>
</svg>
