<svg width="377" height="179" viewBox="0 0 377 179" fill="none" xmlns="http://www.w3.org/2000/svg">
<rect width="377" height="179" fill="white"/>
<line x1="45" y1="68.5" x2="331" y2="68.5" stroke="#E25D23" stroke-width="3"/>
<line x1="45" y1="75.25" x2="331" y2="75.25" stroke="#828282" stroke-width="1.5"/>
<line x1="47" y1="80.25" x2="336" y2="80.25" stroke="#828282" stroke-width="1.5"/>
<line x1="49" y1="85.25" x2="337" y2="85.25" stroke="#828282" stroke-width="1.5"/>
<line x1="47" y1="90.25" x2="335" y2="90.25" stroke="#828282" stroke-width="1.5"/>
<line x1="45" y1="95.25" x2="333" y2="95.25" stroke="#828282" stroke-width="1.5"/>
<line x1="45" y1="100.25" x2="333" y2="100.25" stroke="#828282" stroke-width="1.5"/>
<line x1="45" y1="107.5" x2="331" y2="107.5" stroke="#E25D23" stroke-width="3"/>
<path d="M141.059 54H139.331V46.128L138.051 47.664L136.931 46.8L140.067 43.04H141.059V54ZM144.052 52.592C144.244 52.4213 144.479 52.336 144.756 52.336C145.034 52.336 145.263 52.4213 145.444 52.592C145.636 52.7627 145.732 52.976 145.732 53.232C145.732 53.4773 145.636 53.6853 145.444 53.856C145.263 54.0267 145.034 54.112 144.756 54.112C144.479 54.112 144.244 54.0267 144.052 53.856C143.86 53.6853 143.764 53.4773 143.764 53.232C143.764 52.976 143.86 52.7627 144.052 52.592ZM154.602 44.368C155.711 43.248 157.055 42.688 158.634 42.688C160.212 42.688 161.556 43.248 162.666 44.368C163.786 45.4773 164.346 46.8213 164.346 48.4C164.346 49.9787 163.786 51.328 162.666 52.448C161.556 53.5573 160.212 54.112 158.634 54.112C157.055 54.112 155.711 53.5573 154.602 52.448C153.492 51.328 152.938 49.9787 152.938 48.4C152.938 46.8213 153.492 45.4773 154.602 44.368ZM161.466 45.488C160.698 44.7093 159.754 44.32 158.634 44.32C157.514 44.32 156.57 44.7093 155.802 45.488C155.044 46.256 154.666 47.2267 154.666 48.4C154.666 49.584 155.044 50.56 155.802 51.328C156.57 52.096 157.514 52.48 158.634 52.48C159.754 52.48 160.698 52.096 161.466 51.328C162.234 50.56 162.618 49.584 162.618 48.4C162.618 47.2267 162.234 46.256 161.466 45.488ZM168.839 47.072H171.863C173.111 47.072 174.055 47.3813 174.695 48C175.335 48.6187 175.655 49.4667 175.655 50.544C175.655 51.632 175.341 52.48 174.711 53.088C174.093 53.696 173.143 54 171.863 54H167.111V42.8H174.407V44.432H168.839V47.072ZM168.839 52.368H171.895C172.653 52.368 173.197 52.2133 173.527 51.904C173.858 51.5947 174.023 51.1413 174.023 50.544C174.023 49.3173 173.314 48.704 171.895 48.704H168.839V52.368ZM182.081 45.984L178.881 54H176.977L181.601 42.8H182.609L187.185 54H185.281L182.081 45.984ZM189.992 44.368C191.102 43.248 192.446 42.688 194.024 42.688C195.603 42.688 196.947 43.248 198.056 44.368C199.176 45.4773 199.736 46.8213 199.736 48.4C199.736 49.9787 199.176 51.328 198.056 52.448C196.947 53.5573 195.603 54.112 194.024 54.112C192.446 54.112 191.102 53.5573 189.992 52.448C188.883 51.328 188.328 49.9787 188.328 48.4C188.328 46.8213 188.883 45.4773 189.992 44.368ZM196.856 45.488C196.088 44.7093 195.144 44.32 194.024 44.32C192.904 44.32 191.96 44.7093 191.192 45.488C190.435 46.256 190.056 47.2267 190.056 48.4C190.056 49.584 190.435 50.56 191.192 51.328C191.96 52.096 192.904 52.48 194.024 52.48C195.144 52.48 196.088 52.096 196.856 51.328C197.624 50.56 198.008 49.584 198.008 48.4C198.008 47.2267 197.624 46.256 196.856 45.488ZM214.756 54L212.452 50.416C212.121 49.904 211.844 49.568 211.62 49.408C211.406 49.2373 211.07 49.152 210.612 49.152H209.652V54H207.924V49.152H206.98C206.521 49.152 206.18 49.2373 205.956 49.408C205.742 49.568 205.47 49.904 205.14 50.416L202.836 54H200.884L203.54 49.872C203.87 49.3493 204.142 48.976 204.356 48.752C204.58 48.5173 204.814 48.3573 205.06 48.272C204.676 48.0693 204.212 47.5627 203.668 46.752L201.108 42.8H203.076L205.252 46.208C205.593 46.72 205.876 47.0613 206.1 47.232C206.324 47.4027 206.66 47.488 207.108 47.488H207.924V42.8H209.652V47.488H210.484C210.932 47.488 211.268 47.4027 211.492 47.232C211.716 47.0613 211.998 46.72 212.34 46.208L214.516 42.8H216.484L213.924 46.752C213.38 47.5627 212.916 48.0693 212.532 48.272C212.777 48.3573 213.006 48.5173 213.22 48.752C213.444 48.976 213.721 49.3493 214.052 49.872L216.708 54H214.756ZM226.47 54L224.166 50.432C223.835 49.92 223.558 49.5787 223.334 49.408C223.12 49.2373 222.784 49.152 222.326 49.152H220.902V54H219.174V42.8H220.902V47.488H222.198C222.646 47.488 222.982 47.4027 223.206 47.232C223.43 47.0613 223.712 46.72 224.054 46.208L226.23 42.8H228.198L225.654 46.752C225.078 47.5733 224.608 48.08 224.246 48.272C224.491 48.3573 224.72 48.5173 224.934 48.752C225.158 48.976 225.435 49.3493 225.766 49.872L228.422 54H226.47ZM232.78 51.488L231.756 54H229.852L234.476 42.8H235.484L240.06 54H238.156L237.148 51.488H232.78ZM234.972 45.952L233.388 49.856H236.556L234.972 45.952Z" fill="black"/>
<path d="M147.588 134H145.86V124.432H140.804V134H139.076V122.8H147.588V134ZM151.852 124.368C152.961 123.248 154.305 122.688 155.884 122.688C157.462 122.688 158.806 123.248 159.916 124.368C161.036 125.477 161.596 126.821 161.596 128.4C161.596 129.979 161.036 131.328 159.916 132.448C158.806 133.557 157.462 134.112 155.884 134.112C154.305 134.112 152.961 133.557 151.852 132.448C150.742 131.328 150.188 129.979 150.188 128.4C150.188 126.821 150.742 125.477 151.852 124.368ZM158.716 125.488C157.948 124.709 157.004 124.32 155.884 124.32C154.764 124.32 153.82 124.709 153.052 125.488C152.294 126.256 151.916 127.227 151.916 128.4C151.916 129.584 152.294 130.56 153.052 131.328C153.82 132.096 154.764 132.48 155.884 132.48C157.004 132.48 157.948 132.096 158.716 131.328C159.484 130.56 159.868 129.584 159.868 128.4C159.868 127.227 159.484 126.256 158.716 125.488ZM174.438 136.064H172.71V134H164.358V136.064H162.63V132.368H164.102L168.054 122.8H169.062L172.982 132.368H174.438V136.064ZM168.55 125.984L165.958 132.368H171.126L168.55 125.984ZM180.816 125.984L177.616 134H175.712L180.336 122.8H181.344L185.92 134H184.016L180.816 125.984ZM188.727 124.368C189.836 123.248 191.18 122.688 192.759 122.688C194.337 122.688 195.681 123.248 196.791 124.368C197.911 125.477 198.471 126.821 198.471 128.4C198.471 129.979 197.911 131.328 196.791 132.448C195.681 133.557 194.337 134.112 192.759 134.112C191.18 134.112 189.836 133.557 188.727 132.448C187.617 131.328 187.063 129.979 187.063 128.4C187.063 126.821 187.617 125.477 188.727 124.368ZM195.591 125.488C194.823 124.709 193.879 124.32 192.759 124.32C191.639 124.32 190.695 124.709 189.927 125.488C189.169 126.256 188.791 127.227 188.791 128.4C188.791 129.584 189.169 130.56 189.927 131.328C190.695 132.096 191.639 132.48 192.759 132.48C193.879 132.48 194.823 132.096 195.591 131.328C196.359 130.56 196.743 129.584 196.743 128.4C196.743 127.227 196.359 126.256 195.591 125.488ZM213.49 134L211.186 130.416C210.855 129.904 210.578 129.568 210.354 129.408C210.141 129.237 209.805 129.152 209.346 129.152H208.386V134H206.658V129.152H205.714C205.255 129.152 204.914 129.237 204.69 129.408C204.477 129.568 204.205 129.904 203.874 130.416L201.57 134H199.618L202.274 129.872C202.605 129.349 202.877 128.976 203.09 128.752C203.314 128.517 203.549 128.357 203.794 128.272C203.41 128.069 202.946 127.563 202.402 126.752L199.842 122.8H201.81L203.986 126.208C204.327 126.72 204.61 127.061 204.834 127.232C205.058 127.403 205.394 127.488 205.842 127.488H206.658V122.8H208.386V127.488H209.218C209.666 127.488 210.002 127.403 210.226 127.232C210.45 127.061 210.733 126.72 211.074 126.208L213.25 122.8H215.218L212.658 126.752C212.114 127.563 211.65 128.069 211.266 128.272C211.511 128.357 211.741 128.517 211.954 128.752C212.178 128.976 212.455 129.349 212.786 129.872L215.442 134H213.49ZM225.204 134L222.9 130.432C222.569 129.92 222.292 129.579 222.068 129.408C221.855 129.237 221.519 129.152 221.06 129.152H219.636V134H217.908V122.8H219.636V127.488H220.932C221.38 127.488 221.716 127.403 221.94 127.232C222.164 127.061 222.447 126.72 222.788 126.208L224.964 122.8H226.932L224.388 126.752C223.812 127.573 223.343 128.08 222.98 128.272C223.225 128.357 223.455 128.517 223.668 128.752C223.892 128.976 224.169 129.349 224.5 129.872L227.156 134H225.204ZM231.515 131.488L230.491 134H228.587L233.211 122.8H234.219L238.795 134H236.891L235.883 131.488H231.515ZM233.707 125.952L232.123 129.856H235.291L233.707 125.952Z" fill="#828282"/>
</svg>
