<svg width="443" height="387" viewBox="0 0 443 387" fill="none" xmlns="http://www.w3.org/2000/svg">
<path d="M224.48 359.68C323.803 359.68 404.32 279.163 404.32 179.84C404.32 80.5171 323.803 0 224.48 0C125.157 0 44.6399 80.5171 44.6399 179.84C44.6399 279.163 125.157 359.68 224.48 359.68Z" fill="white"/>
<path d="M178.64 333.83C177.46 333.83 176.27 333.83 175.09 333.82C174.7 333.82 174.38 333.5 174.38 333.11C174.38 332.72 174.7 332.4 175.09 332.4C177.92 332.42 180.75 332.41 183.58 332.39C183.97 332.39 184.29 332.7 184.29 333.09C184.29 333.48 183.98 333.8 183.59 333.8C181.94 333.83 180.29 333.83 178.64 333.83ZM192.09 333.71C191.7 333.71 191.39 333.4 191.38 333.01C191.37 332.62 191.69 332.3 192.08 332.29C194.91 332.24 197.74 332.18 200.58 332.12C200.59 332.12 200.59 332.12 200.6 332.12C200.98 332.12 201.3 332.43 201.31 332.81C201.32 333.2 201.01 333.53 200.62 333.54C197.79 333.61 194.95 333.67 192.11 333.71C192.1 333.71 192.1 333.71 192.09 333.71ZM166.59 333.71C166.59 333.71 166.58 333.71 166.57 333.71C164.44 333.66 162.3 333.6 160.17 333.53C157.11 333.42 154.33 333.3 151.66 333.17C151.27 333.15 150.97 332.82 150.99 332.43C151.01 332.04 151.36 331.74 151.73 331.76C154.39 331.9 157.16 332.01 160.21 332.12C162.34 332.2 164.46 332.26 166.59 332.3C166.98 332.31 167.29 332.63 167.28 333.02C167.29 333.4 166.97 333.71 166.59 333.71ZM209.09 333.32C208.71 333.32 208.39 333.02 208.38 332.63C208.37 332.24 208.68 331.91 209.07 331.9L217.57 331.67C217.95 331.68 218.29 331.97 218.3 332.36C218.31 332.75 218 333.08 217.61 333.09L209.11 333.32C209.11 333.32 209.1 333.32 209.09 333.32ZM226.09 332.87C225.71 332.87 225.39 332.56 225.38 332.18C225.37 331.79 225.68 331.46 226.07 331.45C228.9 331.38 231.74 331.32 234.58 331.27H234.59C234.98 331.27 235.29 331.58 235.3 331.97C235.31 332.36 235 332.68 234.6 332.69C231.77 332.74 228.93 332.8 226.1 332.87C226.1 332.87 226.1 332.87 226.09 332.87ZM143.22 332.64C143.2 332.64 143.19 332.64 143.17 332.64C140.23 332.42 137.38 332.17 134.68 331.9C134.29 331.86 134.01 331.51 134.05 331.12C134.09 330.73 134.44 330.46 134.83 330.49C137.51 330.77 140.36 331.02 143.28 331.23C143.67 331.26 143.96 331.6 143.93 331.99C143.89 332.36 143.58 332.64 143.22 332.64ZM261.65 332.61H260.1C259.71 332.61 259.39 332.29 259.39 331.9C259.39 331.51 259.71 331.19 260.1 331.19H261.65C264.03 331.19 266.37 331.16 268.59 331.11C268.6 331.11 268.6 331.11 268.61 331.11C268.99 331.11 269.31 331.42 269.32 331.8C269.33 332.19 269.02 332.52 268.63 332.52C266.39 332.58 264.05 332.61 261.65 332.61ZM243.1 332.57C242.71 332.57 242.39 332.26 242.39 331.87C242.39 331.48 242.7 331.16 243.09 331.15C245.34 331.13 247.6 331.12 249.85 331.12H251.6C251.99 331.12 252.31 331.44 252.31 331.83C252.31 332.22 251.99 332.54 251.6 332.54H249.85C247.6 332.53 245.35 332.55 243.1 332.57ZM277.1 332.2C276.73 332.2 276.41 331.91 276.39 331.53C276.37 331.14 276.67 330.8 277.06 330.78C279.95 330.61 282.79 330.39 285.5 330.11C285.9 330.08 286.24 330.35 286.28 330.74C286.32 331.13 286.04 331.48 285.65 331.52C282.92 331.8 280.06 332.02 277.15 332.19C277.12 332.2 277.11 332.2 277.1 332.2ZM126.3 330.88C126.27 330.88 126.23 330.88 126.2 330.87C123.31 330.46 120.48 330 117.77 329.5C117.39 329.43 117.13 329.06 117.2 328.67C117.27 328.29 117.64 328.03 118.03 328.1C120.71 328.6 123.53 329.06 126.39 329.46C126.78 329.51 127.05 329.87 126.99 330.26C126.95 330.62 126.65 330.88 126.3 330.88ZM294 330.45C293.66 330.45 293.36 330.2 293.3 329.85C293.24 329.46 293.5 329.1 293.89 329.04C296.72 328.6 299.52 328.08 302.2 327.49C302.58 327.41 302.96 327.65 303.04 328.03C303.12 328.41 302.88 328.79 302.5 328.87C299.79 329.47 296.96 329.99 294.1 330.44C294.07 330.44 294.03 330.45 294 330.45ZM109.59 327.74C109.53 327.74 109.48 327.73 109.42 327.72C106.6 327.04 103.82 326.28 101.18 325.46C100.81 325.34 100.6 324.95 100.71 324.57C100.83 324.2 101.22 323.99 101.6 324.1C104.22 324.91 106.96 325.66 109.76 326.34C110.14 326.43 110.37 326.81 110.28 327.2C110.2 327.52 109.91 327.74 109.59 327.74ZM310.59 326.78C310.28 326.78 310 326.58 309.91 326.27C309.8 325.89 310.02 325.5 310.39 325.39C313.11 324.59 315.8 323.69 318.4 322.71C318.76 322.57 319.18 322.76 319.31 323.12C319.45 323.49 319.26 323.89 318.9 324.03C316.27 325.03 313.54 325.94 310.79 326.75C310.72 326.77 310.65 326.78 310.59 326.78ZM93.3599 322.71C93.2699 322.71 93.1899 322.69 93.0999 322.66C90.4099 321.62 87.7699 320.47 85.2499 319.26C84.8999 319.09 84.7499 318.67 84.9199 318.31C85.0899 317.96 85.5099 317.81 85.8699 317.98C88.3499 319.17 90.9599 320.3 93.6199 321.33C93.9799 321.47 94.1699 321.88 94.0199 322.25C93.9099 322.54 93.6399 322.71 93.3599 322.71ZM326.47 320.76C326.2 320.76 325.95 320.61 325.83 320.35C325.66 320 325.81 319.57 326.17 319.41C328.7 318.21 331.22 316.9 333.65 315.5C333.99 315.3 334.42 315.42 334.62 315.76C334.82 316.1 334.7 316.53 334.36 316.73C331.89 318.15 329.34 319.48 326.78 320.7C326.68 320.73 326.58 320.76 326.47 320.76ZM78.0599 315.34C77.9399 315.34 77.8099 315.31 77.6999 315.24L77.4899 315.11C75.1299 313.71 72.7899 312.17 70.5399 310.55C70.2199 310.32 70.1499 309.88 70.3799 309.56C70.6099 309.24 71.0499 309.17 71.3699 309.4C73.5899 311 75.8899 312.51 78.2099 313.89L78.4299 314.02C78.7699 314.22 78.8799 314.66 78.6799 314.99C78.5399 315.21 78.2999 315.34 78.0599 315.34ZM341.2 312.29C340.97 312.29 340.75 312.18 340.61 311.98C340.39 311.66 340.47 311.22 340.8 311C343.1 309.44 345.41 307.77 347.65 306.04C347.96 305.8 348.4 305.86 348.64 306.17C348.88 306.48 348.82 306.92 348.51 307.16C346.25 308.91 343.92 310.6 341.59 312.18C341.48 312.26 341.34 312.29 341.2 312.29ZM64.2699 305.42C64.1099 305.42 63.9399 305.36 63.8099 305.25C61.6799 303.41 59.5799 301.45 57.5599 299.4C57.2899 299.12 57.2899 298.67 57.5699 298.4C57.8499 298.12 58.2999 298.13 58.5699 298.41C60.5599 300.43 62.6299 302.37 64.7299 304.18C65.0299 304.44 65.0599 304.88 64.7999 305.18C64.6699 305.34 64.4699 305.42 64.2699 305.42ZM354.65 301.91C354.45 301.91 354.26 301.83 354.12 301.67C353.86 301.38 353.89 300.93 354.19 300.67C356.28 298.85 358.37 296.92 360.41 294.93C360.69 294.66 361.14 294.66 361.41 294.94C361.68 295.22 361.68 295.67 361.4 295.94C359.34 297.94 357.23 299.89 355.12 301.73C354.98 301.85 354.82 301.91 354.65 301.91ZM52.3499 293.33C52.1499 293.33 51.9499 293.24 51.8099 293.08C49.9999 290.93 48.2299 288.67 46.5399 286.34C46.3099 286.02 46.3799 285.58 46.6999 285.35C47.0199 285.12 47.4599 285.19 47.6899 285.51C49.3499 287.8 51.0999 290.04 52.8899 292.16C53.1399 292.46 53.0999 292.91 52.7999 293.16C52.6699 293.28 52.5099 293.33 52.3499 293.33ZM366.84 290.06C366.67 290.06 366.49 290 366.36 289.87C366.07 289.6 366.06 289.16 366.32 288.87C368.21 286.84 370.09 284.7 371.93 282.53C372.18 282.23 372.63 282.19 372.93 282.45C373.23 282.7 373.27 283.15 373.01 283.45C371.16 285.64 369.25 287.79 367.35 289.84C367.22 289.98 367.03 290.06 366.84 290.06ZM42.3599 279.59C42.1199 279.59 41.8899 279.47 41.7599 279.26C40.2699 276.88 38.8199 274.39 37.4599 271.87C37.2699 271.53 37.3999 271.1 37.7499 270.91C38.0899 270.72 38.5199 270.85 38.7099 271.2C40.0599 273.69 41.4899 276.15 42.9599 278.51C43.1699 278.84 43.0699 279.28 42.7399 279.49C42.6199 279.55 42.4899 279.59 42.3599 279.59ZM377.82 277.08C377.67 277.08 377.52 277.03 377.39 276.93C377.08 276.69 377.02 276.25 377.26 275.94C378.95 273.75 380.65 271.46 382.31 269.13C382.54 268.81 382.98 268.74 383.3 268.96C383.62 269.19 383.69 269.63 383.47 269.95C381.8 272.29 380.1 274.6 378.39 276.8C378.24 276.98 378.03 277.08 377.82 277.08ZM34.2799 264.64C34.0099 264.64 33.7599 264.49 33.6399 264.23C32.4499 261.67 31.3199 259.03 30.2699 256.38C30.1299 256.02 30.2999 255.6 30.6699 255.46C31.0299 255.32 31.4499 255.49 31.5899 255.86C32.6299 258.49 33.7499 261.1 34.9299 263.64C35.0899 263.99 34.9399 264.42 34.5899 264.58C34.4799 264.62 34.3799 264.64 34.2799 264.64ZM387.68 263.23C387.55 263.23 387.41 263.19 387.29 263.11C386.96 262.9 386.87 262.46 387.09 262.13C387.57 261.4 388.04 260.67 388.51 259.93C389.57 258.28 390.61 256.61 391.61 254.95C391.81 254.61 392.25 254.51 392.58 254.71C392.91 254.91 393.02 255.35 392.82 255.68C391.82 257.35 390.77 259.03 389.7 260.69C389.23 261.43 388.75 262.16 388.27 262.9C388.13 263.12 387.91 263.23 387.68 263.23ZM28.0199 248.84C27.7199 248.84 27.4499 248.65 27.3499 248.35C26.4599 245.67 25.6199 242.92 24.8699 240.17C24.7699 239.79 24.9899 239.4 25.3699 239.3C25.7499 239.2 26.1399 239.42 26.2399 239.8C26.9799 242.52 27.8099 245.24 28.6999 247.9C28.8199 248.27 28.6199 248.67 28.2499 248.8C28.1699 248.82 28.0899 248.84 28.0199 248.84ZM396.45 248.66C396.34 248.66 396.22 248.63 396.11 248.57C395.77 248.38 395.64 247.95 395.83 247.61C397.19 245.13 398.51 242.6 399.75 240.1C399.92 239.75 400.35 239.61 400.7 239.78C401.05 239.95 401.19 240.38 401.02 240.73C399.77 243.25 398.44 245.8 397.07 248.3C396.95 248.53 396.7 248.66 396.45 248.66ZM403.99 233.42C403.89 233.42 403.8 233.4 403.7 233.36C403.34 233.2 403.18 232.78 403.34 232.43C404.49 229.83 405.58 227.2 406.58 224.6C406.72 224.23 407.13 224.05 407.5 224.19C407.87 224.33 408.05 224.74 407.91 225.11C406.9 227.72 405.8 230.38 404.65 233C404.52 233.26 404.26 233.42 403.99 233.42ZM23.5199 232.44C23.1899 232.44 22.8999 232.21 22.8299 231.88C22.2299 229.14 21.6799 226.32 21.1999 223.5C21.1299 223.11 21.3899 222.75 21.7799 222.68C22.1699 222.61 22.5299 222.87 22.5999 223.26C23.0799 226.06 23.6299 228.85 24.2199 231.57C24.2999 231.95 24.0599 232.33 23.6799 232.41C23.6199 232.43 23.5699 232.44 23.5199 232.44ZM410.11 217.56C410.04 217.56 409.96 217.55 409.89 217.52C409.52 217.4 409.32 217 409.44 216.62C410.33 213.92 411.16 211.2 411.89 208.52C411.99 208.14 412.38 207.92 412.76 208.02C413.14 208.12 413.36 208.51 413.26 208.89C412.52 211.59 411.69 214.34 410.79 217.06C410.69 217.37 410.41 217.56 410.11 217.56ZM20.6199 215.69C20.2699 215.69 19.9599 215.43 19.9199 215.07C19.5599 212.31 19.2499 209.46 18.9899 206.59C18.9499 206.2 19.2399 205.86 19.6299 205.82C20.0199 205.78 20.3599 206.07 20.3999 206.46C20.6599 209.31 20.9699 212.14 21.3299 214.88C21.3799 215.27 21.1099 215.62 20.7199 215.67C20.6899 215.69 20.6599 215.69 20.6199 215.69ZM414.6 201.17C414.55 201.17 414.5 201.16 414.45 201.15C414.07 201.07 413.82 200.69 413.91 200.31C414.51 197.54 415.02 194.74 415.44 191.99C415.5 191.6 415.86 191.33 416.25 191.4C416.64 191.46 416.9 191.82 416.84 192.21C416.42 194.98 415.9 197.81 415.3 200.61C415.22 200.94 414.92 201.17 414.6 201.17ZM19.0699 198.76C18.6999 198.76 18.3899 198.47 18.3599 198.09C18.1999 195.33 18.0799 192.46 17.9999 189.57C17.9899 189.18 18.2999 188.85 18.6899 188.84C19.0799 188.82 19.4099 189.14 19.4199 189.53C19.4999 192.41 19.6199 195.26 19.7699 198C19.7899 198.39 19.4899 198.73 19.0999 198.75C19.0899 198.76 19.0799 198.76 19.0699 198.76ZM417.14 184.37C417.12 184.37 417.1 184.37 417.08 184.37C416.69 184.34 416.4 183.99 416.44 183.6C416.69 180.77 416.83 177.93 416.88 175.16C416.89 174.77 417.2 174.46 417.59 174.46H417.6C417.99 174.47 418.3 174.79 418.3 175.18C418.25 177.98 418.1 180.85 417.85 183.72C417.82 184.09 417.51 184.37 417.14 184.37ZM18.5999 181.76C18.2099 181.76 17.8899 181.44 17.8899 181.05V180.93C17.8899 178.22 17.9199 175.39 17.9899 172.53C17.9999 172.14 18.3099 171.84 18.6999 171.84C18.6999 171.84 18.7099 171.84 18.7199 171.84C19.1099 171.85 19.4199 172.17 19.4099 172.56C19.3499 175.41 19.3099 178.22 19.3099 180.92V181.04C19.3099 181.44 18.9899 181.76 18.5999 181.76ZM417.42 167.39C417.05 167.39 416.74 167.1 416.71 166.72C416.55 163.9 416.28 161.07 415.9 158.31C415.85 157.92 416.12 157.57 416.51 157.51C416.89 157.45 417.26 157.73 417.31 158.12C417.69 160.91 417.97 163.78 418.13 166.64C418.15 167.03 417.85 167.37 417.46 167.39C417.45 167.39 417.44 167.39 417.42 167.39ZM18.9699 164.76C18.9599 164.76 18.9499 164.76 18.9399 164.76C18.5499 164.74 18.2499 164.41 18.2599 164.02C18.3699 161.31 18.5199 158.45 18.6799 155.52C18.6999 155.13 19.0499 154.83 19.4299 154.85C19.8199 154.87 20.1199 155.21 20.0999 155.6C19.9299 158.53 19.7899 161.38 19.6799 164.08C19.6599 164.46 19.3499 164.76 18.9699 164.76ZM415.12 150.56C414.79 150.56 414.5 150.34 414.43 150C413.82 147.25 413.09 144.51 412.26 141.84C412.14 141.47 412.35 141.07 412.72 140.95C413.1 140.83 413.49 141.04 413.61 141.42C414.45 144.12 415.2 146.9 415.81 149.69C415.89 150.07 415.65 150.45 415.27 150.54C415.22 150.55 415.17 150.56 415.12 150.56ZM19.9399 147.78C19.9199 147.78 19.9099 147.78 19.8899 147.78C19.4999 147.75 19.1999 147.41 19.2299 147.02C19.4299 144.19 19.6399 141.36 19.8599 138.53C19.8899 138.14 20.2399 137.85 20.6199 137.88C21.0099 137.91 21.2999 138.25 21.2699 138.64C21.0499 141.46 20.8399 144.29 20.6399 147.11C20.6199 147.5 20.3099 147.78 19.9399 147.78ZM410.01 134.36C409.73 134.36 409.47 134.2 409.36 133.93C408.24 131.31 406.99 128.77 405.64 126.38C405.45 126.04 405.57 125.61 405.91 125.41C406.25 125.22 406.68 125.34 406.88 125.68C408.26 128.12 409.53 130.71 410.67 133.38C410.82 133.74 410.66 134.16 410.3 134.31C410.2 134.34 410.1 134.36 410.01 134.36ZM21.2599 130.83C21.2399 130.83 21.2199 130.83 21.1999 130.83C20.8099 130.8 20.5199 130.45 20.5499 130.06C20.7799 127.37 21.0299 124.48 21.3299 121.58C21.3699 121.19 21.7299 120.91 22.1099 120.95C22.4999 120.99 22.7799 121.34 22.7399 121.73C22.4399 124.62 22.1899 127.5 21.9599 130.18C21.9399 130.55 21.6299 130.83 21.2599 130.83ZM401.61 119.62C401.39 119.62 401.18 119.52 401.04 119.34C399.31 117.04 397.46 114.92 395.52 113.03C395.24 112.76 395.23 112.31 395.51 112.03C395.78 111.75 396.23 111.74 396.51 112.02C398.5 113.96 400.41 116.14 402.18 118.49C402.42 118.8 402.35 119.25 402.04 119.48C401.91 119.57 401.76 119.62 401.61 119.62ZM23.1199 113.93C23.0799 113.93 23.0499 113.93 23.0099 113.92C22.6199 113.86 22.3599 113.5 22.4199 113.11C22.8899 110.09 23.4199 107.34 24.0399 104.71C24.1299 104.33 24.5099 104.09 24.8899 104.18C25.2699 104.27 25.5099 104.65 25.4199 105.03C24.8099 107.62 24.2799 110.34 23.8199 113.32C23.7699 113.68 23.4599 113.93 23.1199 113.93ZM389.43 107.87C389.29 107.87 389.16 107.83 389.04 107.75C386.69 106.18 384.21 104.87 381.67 103.85C381.31 103.71 381.13 103.29 381.27 102.93C381.42 102.57 381.83 102.39 382.19 102.53C384.82 103.58 387.39 104.94 389.82 106.56C390.15 106.78 390.23 107.22 390.02 107.54C389.89 107.76 389.66 107.87 389.43 107.87ZM373.77 101.59C373.73 101.59 373.68 101.59 373.64 101.58C371.17 101.12 368.44 100.8 365.28 100.6C364.89 100.57 364.59 100.24 364.62 99.8501C364.65 99.4601 364.96 99.1601 365.37 99.1901C368.58 99.4001 371.37 99.7301 373.89 100.19C374.27 100.26 374.53 100.63 374.46 101.02C374.4 101.35 374.1 101.59 373.77 101.59ZM356.83 100.27C356.82 100.27 356.82 100.27 356.81 100.27L356.52 100.26C353.82 100.2 351.03 100.13 348.28 99.9701C347.89 99.9501 347.59 99.6101 347.61 99.2201C347.63 98.8301 347.96 98.5301 348.36 98.5501C351.08 98.7101 353.86 98.7801 356.55 98.8401L356.84 98.8501C357.23 98.8601 357.54 99.1801 357.53 99.5801C357.53 99.9701 357.21 100.27 356.83 100.27ZM339.88 99.0601C339.84 99.0601 339.8 99.0601 339.76 99.0501C339.3 98.9701 338.84 98.8901 338.38 98.8001C336.08 98.3501 333.74 97.7201 331.43 96.9501C331.06 96.8301 330.86 96.4301 330.98 96.0501C331.1 95.6801 331.51 95.4801 331.88 95.6001C334.14 96.3501 336.42 96.9601 338.66 97.4001C339.11 97.4901 339.55 97.5701 340 97.6501C340.39 97.7201 340.64 98.0801 340.58 98.4701C340.52 98.8201 340.22 99.0601 339.88 99.0601ZM27.0999 97.4201C27.0199 97.4201 26.9399 97.4101 26.8599 97.3801C26.4899 97.2501 26.2999 96.8401 26.4299 96.4701L26.5699 96.0901C27.4999 93.4901 28.6099 90.9701 29.8399 88.5901C30.0199 88.2401 30.4499 88.1101 30.7999 88.2901C31.1499 88.4701 31.2799 88.9001 31.0999 89.2501C29.8899 91.5701 28.8199 94.0401 27.8999 96.5801L27.7599 96.9601C27.6699 97.2401 27.3899 97.4201 27.0999 97.4201ZM323.79 93.7901C323.69 93.7901 323.58 93.7701 323.49 93.7201C321.05 92.5501 318.58 91.2301 315.94 89.6601C315.6 89.4601 315.49 89.0301 315.69 88.6901C315.89 88.3501 316.32 88.2401 316.66 88.4401C319.26 89.9801 321.69 91.2901 324.09 92.4401C324.44 92.6101 324.59 93.0301 324.42 93.3801C324.31 93.6401 324.05 93.7901 323.79 93.7901ZM147.78 88.2001C147.1 88.2001 146.41 88.1901 145.72 88.1601L145.11 88.1301C144.72 88.1101 144.42 87.7801 144.44 87.3901C144.46 87.0001 144.8 86.6901 145.18 86.7201L145.77 86.7401C148.35 86.8301 150.93 86.7501 153.56 86.4801C153.96 86.4401 154.3 86.7301 154.34 87.1101C154.38 87.5001 154.09 87.8501 153.71 87.8901C151.71 88.1001 149.72 88.2001 147.78 88.2001ZM136.71 87.1301C136.67 87.1301 136.62 87.1301 136.58 87.1201C133.9 86.6201 131.18 85.9401 128.26 85.0701C127.88 84.9601 127.67 84.5601 127.78 84.1901C127.89 83.8201 128.29 83.6001 128.66 83.7201C131.53 84.5801 134.21 85.2401 136.84 85.7401C137.22 85.8101 137.48 86.1801 137.41 86.5701C137.35 86.9001 137.05 87.1301 136.71 87.1301ZM162 86.5201C161.68 86.5201 161.38 86.3001 161.31 85.9701C161.22 85.5901 161.46 85.2101 161.84 85.1201C164.44 84.5301 167.17 83.7601 169.95 82.8301C170.32 82.7101 170.72 82.9101 170.85 83.2801C170.97 83.6501 170.77 84.0501 170.4 84.1801C167.58 85.1201 164.8 85.9101 162.16 86.5101C162.11 86.5201 162.05 86.5201 162 86.5201ZM309.13 85.1801C308.99 85.1801 308.85 85.1401 308.73 85.0601C306.69 83.6801 304.48 82.1201 301.75 80.1501C301.43 79.9201 301.36 79.4801 301.59 79.1601C301.82 78.8401 302.26 78.7701 302.58 79.0001C305.29 80.9601 307.5 82.5101 309.52 83.8801C309.84 84.1001 309.93 84.5401 309.71 84.8601C309.58 85.0701 309.36 85.1801 309.13 85.1801ZM34.9699 82.4101C34.8199 82.4101 34.6699 82.3601 34.5499 82.2701C34.2399 82.0401 34.1699 81.5901 34.3999 81.2801C36.1699 78.9001 38.1099 76.7501 40.1699 74.8701C40.4599 74.6101 40.9099 74.6301 41.1699 74.9201C41.4299 75.2101 41.4099 75.6601 41.1299 75.9201C39.1399 77.7401 37.2599 79.8301 35.5399 82.1301C35.3899 82.3101 35.1799 82.4101 34.9699 82.4101ZM120.42 82.3501C120.34 82.3501 120.25 82.3401 120.17 82.3001C117.86 81.4301 115.35 80.4201 112.26 79.1201C111.9 78.9701 111.73 78.5501 111.88 78.1901C112.03 77.8301 112.45 77.6601 112.81 77.8101C115.89 79.1001 118.39 80.1001 120.68 80.9701C121.05 81.1101 121.23 81.5201 121.09 81.8801C120.97 82.1701 120.7 82.3501 120.42 82.3501ZM178.14 81.2201C177.86 81.2201 177.6 81.0601 177.49 80.7801C177.34 80.4201 177.51 80.0001 177.87 79.8501C180.28 78.8501 182.81 77.7301 185.61 76.4101C185.96 76.2401 186.39 76.4001 186.55 76.7501C186.72 77.1001 186.56 77.5301 186.21 77.6901C183.4 79.0101 180.84 80.1501 178.41 81.1501C178.32 81.2101 178.23 81.2201 178.14 81.2201ZM104.7 75.8601C104.61 75.8601 104.51 75.8401 104.42 75.8001C102.53 75.0001 100.04 73.9501 97.5499 72.9701C97.2299 72.8401 96.8999 72.7101 96.5799 72.5901C96.2099 72.4501 96.0299 72.0401 96.1799 71.6701C96.3199 71.3101 96.7299 71.1201 97.0999 71.2701C97.4299 71.4001 97.7599 71.5301 98.0899 71.6601C100.59 72.6501 103.09 73.7001 104.99 74.5101C105.35 74.6601 105.52 75.0801 105.37 75.4401C105.24 75.7001 104.97 75.8601 104.7 75.8601ZM295.29 75.2801C295.15 75.2801 295 75.2401 294.87 75.1501C292.97 73.7701 290.47 71.9701 287.95 70.2401C287.63 70.0201 287.55 69.5801 287.77 69.2501C287.99 68.9301 288.43 68.8501 288.76 69.0701C291.29 70.8101 293.8 72.6201 295.71 74.0001C296.03 74.2301 296.1 74.6701 295.87 74.9901C295.72 75.1801 295.51 75.2801 295.29 75.2801ZM193.55 74.0501C193.29 74.0501 193.04 73.9101 192.92 73.6601C192.74 73.3101 192.89 72.8801 193.24 72.7101C194.9 71.8801 196.55 71.0501 198.2 70.2101L200.84 68.8801C201.19 68.7001 201.62 68.8401 201.79 69.1901C201.97 69.5401 201.83 69.9701 201.48 70.1401L198.85 71.4701C197.2 72.3101 195.54 73.1401 193.88 73.9701C193.77 74.0301 193.66 74.0501 193.55 74.0501ZM47.4999 71.1001C47.2499 71.1001 47.0099 70.9701 46.8799 70.7401C46.6899 70.4001 46.8099 69.9701 47.1499 69.7701C47.6099 69.5101 48.0699 69.2601 48.5399 69.0201C50.6199 67.9601 52.8399 67.0901 55.1299 66.4301C55.4999 66.3201 55.8999 66.5401 56.0099 66.9101C56.1199 67.2901 55.8999 67.6801 55.5199 67.7901C53.3099 68.4301 51.1799 69.2601 49.1799 70.2801C48.7299 70.5101 48.2799 70.7501 47.8499 71.0001C47.7399 71.0701 47.6199 71.1001 47.4999 71.1001ZM88.7999 69.8301C88.7299 69.8301 88.6599 69.8201 88.5899 69.8001C85.7899 68.9301 83.0399 68.2201 80.4299 67.6701C80.0499 67.5901 79.7999 67.2101 79.8799 66.8301C79.9599 66.4501 80.3399 66.2001 80.7199 66.2801C83.3799 66.8401 86.1599 67.5701 89.0099 68.4501C89.3799 68.5701 89.5899 68.9601 89.4799 69.3401C89.3799 69.6301 89.1099 69.8301 88.7999 69.8301ZM208.78 66.4501C208.52 66.4501 208.26 66.3001 208.14 66.0501C207.97 65.7001 208.12 65.2701 208.47 65.1001C211.31 63.7301 213.84 62.5701 216.22 61.5401C216.58 61.3801 217 61.5501 217.15 61.9101C217.3 62.2701 217.14 62.6901 216.78 62.8401C214.42 63.8601 211.9 65.0201 209.08 66.3801C208.99 66.4301 208.89 66.4501 208.78 66.4501ZM72.1799 66.4201C72.1599 66.4201 72.1399 66.4201 72.1199 66.4201C69.2199 66.1701 66.3899 66.1501 63.7399 66.3601C63.3599 66.3901 63.0099 66.1001 62.9799 65.7101C62.9499 65.3201 63.2399 64.9801 63.6299 64.9501C66.3499 64.7401 69.2599 64.7601 72.2399 65.0101C72.6299 65.0401 72.9199 65.3901 72.8899 65.7801C72.8499 66.1401 72.5399 66.4201 72.1799 66.4201ZM281.23 65.7201C281.1 65.7201 280.98 65.6901 280.86 65.6201C278.27 64.0401 275.86 62.7001 273.48 61.5301C273.13 61.3601 272.99 60.9301 273.16 60.5801C273.33 60.2301 273.76 60.0901 274.11 60.2601C276.52 61.4601 278.97 62.8101 281.6 64.4101C281.93 64.6101 282.04 65.0501 281.84 65.3801C281.7 65.6001 281.47 65.7201 281.23 65.7201ZM224.41 59.7601C224.12 59.7601 223.85 59.5801 223.74 59.2901C223.61 58.9201 223.8 58.5201 224.17 58.3801C227.03 57.3601 229.71 56.5301 232.36 55.8501C232.74 55.7501 233.12 55.9801 233.22 56.3601C233.32 56.7401 233.09 57.1201 232.71 57.2201C230.1 57.8901 227.46 58.7001 224.65 59.7101C224.57 59.7501 224.49 59.7601 224.41 59.7601ZM265.99 58.2801C265.91 58.2801 265.83 58.2701 265.75 58.2401C263.05 57.2901 260.32 56.5501 257.66 56.0501C257.28 55.9801 257.02 55.6101 257.09 55.2201C257.16 54.8401 257.53 54.5801 257.92 54.6501C260.65 55.1601 263.44 55.9201 266.22 56.8901C266.59 57.0201 266.78 57.4201 266.65 57.7901C266.55 58.1001 266.28 58.2801 265.99 58.2801ZM240.87 55.6501C240.52 55.6501 240.21 55.3901 240.17 55.0301C240.12 54.6401 240.39 54.2901 240.78 54.2401C243.69 53.8701 246.55 53.7101 249.36 53.7801C249.75 53.7901 250.06 54.1101 250.05 54.5001C250.04 54.8901 249.73 55.1901 249.34 55.1901C249.34 55.1901 249.33 55.1901 249.32 55.1901C246.58 55.1301 243.79 55.2801 240.95 55.6401C240.93 55.6401 240.9 55.6501 240.87 55.6501Z" fill="#BDBDBD"/>
<path d="M331.15 119.76L340.12 120.39C346.07 120.81 350.43 126.15 349.65 132.06L348.55 140.38L332.31 140.61L331.15 119.76Z" fill="#E25D23"/>
<path d="M115.97 143.23L125.84 131.21C128.8 127.6 133.18 125.46 137.84 125.32L331.15 119.77C335.44 119.65 338.49 123.9 337.01 127.92L332.32 140.62L115.97 143.23Z" fill="#2B2A29"/>
<path d="M195.77 127.19C199.86 125.38 204.01 124.03 209.29 123.26L137.84 125.31C133.18 125.44 128.8 127.59 125.84 131.2L115.97 143.22L180.88 142.43C186.31 137.6 189.11 130.14 195.77 127.19Z" fill="#BDBDBD"/>
<path d="M139.55 128.81L326.01 123.45C330.3 123.33 333.35 127.58 331.87 131.6L327.58 143.22L119.98 143.91L127.55 134.69C130.51 131.09 134.89 128.94 139.55 128.81Z" fill="#E25D23"/>
<path d="M231.94 143.55C233.01 143.11 234.08 142.64 235.14 142.14C221.17 141.05 207.19 139.96 193.22 138.88C191.35 138.73 189.42 138.57 187.77 137.67C186.13 136.77 184.84 134.92 185.21 133.09C185.62 131.05 187.74 129.89 189.68 129.13C191.66 128.36 193.71 127.71 195.78 127.2L139.56 128.82C134.9 128.95 130.52 131.1 127.56 134.71L119.99 143.93L231.94 143.55Z" fill="#404040"/>
<g opacity="0.5">
<path opacity="0.5" d="M322.51 128.43C322.5 128.43 322.5 128.43 322.51 128.43L295.94 129.12C295.16 129.14 294.51 128.52 294.49 127.74C294.47 126.96 295.08 126.31 295.87 126.29L322.43 125.6C323.21 125.58 323.86 126.2 323.88 126.98C323.9 127.76 323.29 128.41 322.51 128.43Z" fill="white"/>
<path opacity="0.5" d="M326.23 128.5L326.05 128.51C325.27 128.53 324.61 127.92 324.59 127.14C324.57 126.36 325.18 125.7 325.96 125.68L326.14 125.67C326.92 125.65 327.58 126.26 327.6 127.04C327.63 127.83 327.01 128.48 326.23 128.5Z" fill="white"/>
</g>
<path d="M98.96 214.87V303.97H105.19V215.16L100.91 214.87H98.96Z" fill="#404040"/>
<path d="M113.5 215.73V291.57H100.91V211L113.5 215.73Z" fill="#2B2A29"/>
<path d="M299.2 339.38L339.33 313.87L357.41 315.19L315.04 341.43L299.2 339.38Z" fill="#2B2A29"/>
<path d="M357.41 315.19V321.21L315.04 348.25V341.43L357.41 315.19Z" fill="#38948F"/>
<path d="M299.2 339.34V346.25L315.04 348.25V341.43L299.2 339.34Z" fill="#404040"/>
<path d="M317.27 265.97H261.76V286.52H317.27V265.97Z" fill="#424140"/>
<path d="M317.27 268.72H261.76V289.27H317.27V268.72Z" fill="#2B2A29"/>
<path d="M317.27 221.42V329.78L326.11 331.48V221.72L317.27 221.42Z" fill="#828282"/>
<path d="M326.11 331.48L342.65 320.62V222.3L326.11 221.72V331.48Z" fill="#2B2A29"/>
<path d="M124.8 163.84C124.8 163.84 103.17 197.41 100.32 253.85C97.1698 316.2 70.5498 338.15 70.5498 338.15L285.21 370.57C285.21 370.57 309.39 333.66 303.49 279.79C300.22 249.97 311.83 198.13 311.83 198.13L313.96 147.61H124.8V163.84Z" fill="#BEBEBE"/>
<path d="M78.1797 335.52C86.4397 325.47 101.7 300.82 104.06 254.04C106.83 199.23 127.74 166.19 127.95 165.87L128.55 164.94V151.35H310.07L308.12 197.65C307.04 202.53 296.59 251.03 299.78 280.2C304.71 325.16 288.02 358.21 283.3 366.5L78.1797 335.52Z" fill="#E25D23"/>
<path fill-rule="evenodd" clip-rule="evenodd" d="M225.07 264.176C225.241 267.727 225.197 271.509 224.862 275.539C224.53 279.532 224.088 283.204 223.571 286.587C235.699 280.518 244.465 268.458 245.67 253.956C247.509 231.837 231.071 212.417 208.953 210.578C203.876 210.101 199.12 210.757 195.12 211.808L195.141 211.832C195.243 211.804 195.344 211.775 195.446 211.749C197.261 212.854 205.002 219.554 207.967 222.43C209.563 223.861 222.899 236.541 224.907 261.64L215.189 260.832C214.948 255.652 210.901 251.336 205.603 250.895C200.301 250.455 195.597 254.043 194.504 259.112L184.989 258.321L184.409 260.796L194.27 261.615C194.406 266.884 198.492 271.316 203.868 271.763C209.24 272.209 214.002 268.513 215.006 263.339L225.07 264.176Z" fill="#F3723A"/>
<path fill-rule="evenodd" clip-rule="evenodd" d="M184.206 260.779C183.451 264.253 182.87 267.99 182.535 272.02C182.203 276.014 182.032 279.708 181.983 283.129C171.024 275.141 164.37 261.799 165.576 247.297C167.415 225.178 186.834 208.739 208.953 210.578C214.038 210.945 218.621 212.379 222.393 214.075L222.368 214.095C222.272 214.051 222.176 214.006 222.08 213.963C220.108 214.754 211.367 220.083 207.967 222.43C206.157 223.578 190.911 233.882 184.786 258.304L194.504 259.112C195.596 254.043 200.301 250.455 205.599 250.895C210.9 251.336 214.948 255.652 215.188 260.832L224.704 261.623L224.867 264.159L215.006 263.339C214.002 268.513 209.24 272.209 203.864 271.762C198.492 271.316 194.406 266.884 194.27 261.615L184.206 260.779Z" fill="#F3723A"/>
<path d="M206.723 237.4C204.481 237.213 202.513 238.879 202.326 241.124C202.14 243.365 203.806 245.333 206.048 245.519C208.289 245.706 210.257 244.04 210.443 241.799C210.63 239.554 208.964 237.586 206.723 237.4Z" fill="#F3723A"/>
<path d="M124.8 147.61V163.84C124.8 163.84 103.17 197.41 100.32 253.85C97.1698 316.2 70.5498 338.15 70.5498 338.15L283.3 370.28C268.9 360.29 253.11 352.3 237.48 344.28C218.08 334.31 198.56 324.04 182.12 309.7C165.68 295.36 152.37 276.39 148.88 254.86C145.39 233.33 153.26 209.29 171.4 197.17C186.18 187.3 205.16 186.4 222.85 188.09C240.54 189.78 258.19 193.71 275.9 192.26C289.42 191.15 303.41 186.12 312.74 176.69L313.97 147.61H124.8Z" fill="#E8E6D8"/>
<path d="M95.48 167.92L114.89 168.49L110.51 183.02L96.58 182.78L95.48 167.92Z" fill="#2B2A29"/>
<path d="M97.1799 189.79L100.91 214.87L107.24 193.89L97.1799 189.79Z" fill="#2B2A29"/>
<path d="M115.15 215.46L116.63 213.98V211.68L129.96 168.94L128.37 168.89L115.15 211.68V215.46Z" fill="#828282"/>
<path d="M114.89 168.49L101.92 211.38L115.15 211.68L128.37 168.89L114.89 168.49Z" fill="#424140"/>
<path d="M101.92 214.91L115.15 215.46V211.68L101.96 211.38L101.92 214.91Z" fill="#2B2A29"/>
<path d="M71.8599 187.76L73.5899 201.02C74.5399 208.31 80.5799 213.88 87.9299 214.24L100.92 214.87L97.0199 188.65L71.8599 187.76Z" fill="#2B2A29"/>
<path d="M99.7499 214.81C97.3999 212.26 95.0499 209.71 92.6999 207.15C89.0099 203.15 85.5599 199.05 82.8499 194.31C81.7699 192.43 80.8399 190.07 79.5999 188.03L71.8699 187.76L73.5999 201.02C74.5499 208.31 80.5899 213.88 87.9399 214.24L99.7499 214.81Z" fill="#404040"/>
<path opacity="0.1" d="M95.4798 205.65C94.7998 205.65 94.1898 205.15 94.0798 204.46L92.1998 192.72H85.9698C85.1898 192.72 84.5498 192.09 84.5498 191.3C84.5498 190.52 85.1798 189.88 85.9698 189.88H93.4098C94.1098 189.88 94.6998 190.39 94.8098 191.07L96.8798 204C96.9998 204.77 96.4798 205.5 95.6998 205.62C95.6298 205.65 95.5598 205.65 95.4798 205.65Z" fill="white"/>
<path d="M363.75 191.66L361.84 221.54L350.51 226.26L352.16 193.67L363.75 191.66Z" fill="#2F2D2D"/>
<path d="M304.84 193.67L306.82 216.76C307.22 221.38 311 224.97 315.63 225.12L350.5 226.27L352.15 193.68H304.84V193.67Z" fill="#2B2A29"/>
<path d="M340.63 220.63C334.75 217.46 328.76 214.22 324.09 209.43C319.39 204.6 318.54 199.93 317.07 193.79C317.06 193.75 317.04 193.71 317.03 193.67H304.83L306.81 216.76C307.21 221.38 310.99 224.97 315.62 225.12L350.25 226.26C347.18 224.19 343.9 222.39 340.63 220.63Z" fill="#404040"/>
<g opacity="0.5">
<path opacity="0.1" d="M347.13 218.56C347 218.56 346.87 218.54 346.75 218.51C346.12 218.33 345.7 217.75 345.72 217.1L346.28 201.16C346.31 200.31 346.31 199.52 345.99 199.09C345.57 198.53 344.48 198.42 343.36 198.37L330.51 197.89C329.73 197.86 329.12 197.2 329.15 196.42C329.18 195.66 329.81 195.06 330.57 195.06C330.59 195.06 330.61 195.06 330.62 195.06L343.47 195.54C344.7 195.59 346.99 195.67 348.27 197.4C349.21 198.66 349.15 200.22 349.12 201.26L348.59 216.19C348.79 216.6 348.8 217.1 348.56 217.52L348.38 217.85C348.11 218.29 347.64 218.56 347.13 218.56Z" fill="white"/>
<path opacity="0.1" d="M325.78 197.86C324.87 197.94 324.07 197.26 323.99 196.35C323.91 195.44 324.59 194.64 325.5 194.56C326.41 194.48 327.21 195.16 327.29 196.07C327.36 196.98 326.69 197.78 325.78 197.86Z" fill="white"/>
</g>
<path d="M95.02 161.6L302.46 164.43L302.08 159.51L94.71 157.46L95.02 161.6Z" fill="#828282"/>
<path d="M139.26 169.21L135.36 183.45L137.31 183.49L141.65 169.28L139.26 169.21Z" fill="#2B2A29"/>
<path d="M137.31 183.49L139.53 183.52L143.91 169.35L141.65 169.28L137.31 183.49Z" fill="#828282"/>
<path d="M167.34 169.95L163.44 184.2L165.39 184.23L169.73 170.02L167.34 169.95Z" fill="#2B2A29"/>
<path d="M165.39 184.23L167.61 184.27L171.99 170.09L169.73 170.02L165.39 184.23Z" fill="#828282"/>
<path d="M195.41 170.48L191.52 184.72L193.47 184.76L197.81 170.55L195.41 170.48Z" fill="#2B2A29"/>
<path d="M193.47 184.76L195.68 184.8L200.07 170.62L197.81 170.55L193.47 184.76Z" fill="#828282"/>
<path d="M223.49 171.08L219.6 185.33L221.54 185.36L225.89 171.16L223.49 171.08Z" fill="#2B2A29"/>
<path d="M221.54 185.36L223.76 185.4L228.14 171.22L225.89 171.16L221.54 185.36Z" fill="#828282"/>
<path d="M251.04 171.69L247.14 185.93L249.09 185.97L253.43 171.76L251.04 171.69Z" fill="#2B2A29"/>
<path d="M249.09 185.97L251.31 186L255.69 171.83L253.43 171.76L249.09 185.97Z" fill="#828282"/>
<path d="M278.94 172.49L275.04 186.73L276.99 186.76L281.33 172.56L278.94 172.49Z" fill="#2B2A29"/>
<path d="M276.99 186.76L279.21 186.8L283.59 172.62L281.33 172.56L276.99 186.76Z" fill="#828282"/>
<path d="M95.02 161.6L95.48 167.92L303.19 174.05L302.46 164.43L95.02 161.6Z" fill="#2B2A29"/>
<path d="M97.1802 189.79L99.6702 193.61L305.5 201.36L304.98 195.11L97.1802 189.79Z" fill="#2B2A29"/>
<path d="M96.5801 182.78L304.13 186.37L304.98 195.11L97.1801 189.79L96.5801 182.78Z" fill="#404040"/>
<path d="M185.18 190.52C183.57 189.77 181.75 189.67 179.98 189.58C173.51 189.24 167.04 188.91 160.57 188.57C158.37 188.46 156.1 188.32 154.15 187.3C152.55 186.46 151.9 185.05 151.12 183.72L96.5801 182.78L97.1801 189.79L187.19 192.1C186.66 191.43 185.95 190.88 185.18 190.52Z" fill="#828282"/>
<g opacity="0.5">
<path opacity="0.5" d="M279.88 190.3C279.87 190.3 279.86 190.3 279.84 190.3L231.67 189.13C230.89 189.11 230.27 188.46 230.29 187.68C230.31 186.9 230.97 186.28 231.74 186.3L279.91 187.47C280.69 187.49 281.31 188.14 281.29 188.92C281.27 189.69 280.64 190.3 279.88 190.3Z" fill="white"/>
<path opacity="0.5" d="M284.25 190.17C283.88 190.17 283.5 190.02 283.23 189.73C282.69 189.16 282.71 188.27 283.27 187.73L283.4 187.61C283.97 187.07 284.87 187.1 285.4 187.67C285.94 188.24 285.91 189.14 285.34 189.67L285.23 189.78C284.95 190.04 284.6 190.17 284.25 190.17Z" fill="white"/>
</g>
<path d="M69.2898 157.2L71.8598 187.76L97.0098 188.65L94.7098 157.46L69.2898 157.2Z" fill="#232424"/>
<path d="M69.2998 157.26C69.2998 157.26 75.5798 180.5 97.0198 188.65L71.8698 187.76L69.2998 157.26Z" fill="#404040"/>
<path d="M368.58 140.17C379.33 140.17 366.81 191.13 366.81 191.13L352.17 193.67L337.05 162.26L355.35 142.77L368.58 140.17Z" fill="#323232"/>
<path d="M85.6198 143.59L368.58 140.17C368.58 140.17 352.64 143.24 352.05 160.01L69.2998 157.21C69.2898 157.2 70.9698 147.85 85.6198 143.59Z" fill="#2B2A29"/>
<path d="M309.11 144.44C306.63 147.85 304.29 151.83 303.18 155.98L348.83 156.43C349.7 151.04 352.1 146.92 355.03 143.87L309.11 144.44Z" fill="#404040"/>
<path d="M343.16 146.46L343.21 147.67C343.23 148.18 344.57 148.53 346.2 148.47C347.83 148.41 349.13 147.94 349.11 147.44L349.06 146.23L343.16 146.46Z" fill="#E25D23"/>
<path d="M349.06 146.22C349.08 146.72 347.78 147.19 346.15 147.25C344.52 147.31 343.18 146.96 343.16 146.45C343.14 145.94 344.44 145.48 346.07 145.42C347.71 145.36 349.04 145.72 349.06 146.22Z" fill="#F58453"/>
<path d="M341.8 151.17L341.85 152.45C341.87 152.99 343.02 153.38 344.41 153.32C345.8 153.26 346.91 152.79 346.89 152.25L346.84 150.97L341.8 151.17Z" fill="#E25D23"/>
<path d="M346.85 150.97C346.87 151.51 345.76 151.99 344.37 152.04C342.98 152.1 341.83 151.71 341.81 151.17C341.79 150.63 342.9 150.15 344.29 150.1C345.68 150.04 346.83 150.43 346.85 150.97Z" fill="#F58453"/>
<path d="M336.22 146.58H310.59C310.39 146.58 310.24 146.42 310.24 146.23C310.24 146.04 310.4 145.88 310.59 145.88H336.22C336.42 145.88 336.57 146.04 336.57 146.23C336.57 146.42 336.41 146.58 336.22 146.58Z" fill="#E25D23"/>
<path d="M334.68 149.44H309.05C308.85 149.44 308.7 149.28 308.7 149.09C308.7 148.9 308.86 148.74 309.05 148.74H334.68C334.88 148.74 335.03 148.9 335.03 149.09C335.03 149.28 334.88 149.44 334.68 149.44Z" fill="#E25D23"/>
<path d="M333.56 152.5H307.93C307.73 152.5 307.58 152.34 307.58 152.15C307.58 151.96 307.74 151.8 307.93 151.8H333.56C333.76 151.8 333.91 151.96 333.91 152.15C333.91 152.34 333.76 152.5 333.56 152.5Z" fill="#E25D23"/>
<path d="M159.56 142.7L85.6198 143.59C70.9798 147.84 69.2898 157.2 69.2898 157.2L247.65 158.97C246.84 158.04 245.33 157.75 244.02 157.63C232.53 156.55 221.03 155.47 209.54 154.39C199.5 153.45 189.46 152.51 179.43 151.56C174 151.05 155.15 152.65 159 143.68C159.15 143.36 159.34 143.03 159.56 142.7Z" fill="#404040"/>
<g opacity="0.5">
<path opacity="0.5" d="M232 147.75C231.22 147.75 230.59 147.12 230.58 146.34C230.57 145.56 231.2 144.92 231.99 144.91L286.55 144.51H286.56C287.34 144.51 287.97 145.14 287.98 145.92C287.99 146.7 287.36 147.34 286.57 147.35L232.01 147.75H232Z" fill="white"/>
<path opacity="0.5" d="M292.4 147.2C292.19 147.2 291.97 147.15 291.77 147.05L291.42 146.87C290.72 146.52 290.44 145.67 290.79 144.97C291.14 144.27 291.99 143.99 292.69 144.34L293.04 144.52C293.74 144.87 294.02 145.72 293.67 146.42C293.42 146.91 292.92 147.2 292.4 147.2Z" fill="white"/>
</g>
<path d="M302.08 159.51L304.69 193.67H352.16L352.04 160.01L302.08 159.51Z" fill="#2B2A29"/>
<path d="M304.69 193.67H352.11C342.17 188.73 331.33 185.62 321.55 180.32C312.36 175.34 307.32 169.05 302.17 160.71L304.69 193.67Z" fill="#404040"/>
<g opacity="0.5">
<path opacity="0.1" d="M346.3 187.94C345.51 187.94 344.88 187.3 344.88 186.52L344.97 167.17C344.97 166.4 344.96 165.74 344.7 165.37C344.29 164.78 343.09 164.7 341.98 164.7L327.11 164.68C326.33 164.68 325.69 164.04 325.69 163.26C325.69 162.48 326.33 161.84 327.11 161.84L341.98 161.86C343.19 161.86 345.71 161.86 347.03 163.75C347.82 164.89 347.82 166.27 347.81 167.18L347.72 186.53C347.72 187.31 347.08 187.94 346.3 187.94Z" fill="white"/>
<path opacity="0.1" d="M322.96 165.08C322.05 165.16 321.25 164.48 321.17 163.57C321.09 162.66 321.77 161.86 322.68 161.78C323.59 161.7 324.39 162.38 324.47 163.29C324.54 164.2 323.87 165 322.96 165.08Z" fill="white"/>
</g>
<path d="M84.9599 166.41L79.0599 166.33L79.0999 169.37C78.2799 170.52 77.8599 171.91 78.0199 173.37C78.1799 174.83 78.8899 176.1 79.9399 177.05L80.1999 180.08L86.2999 178.67C89.7999 177.94 92.0899 174.93 91.7599 171.87C91.4299 168.81 88.5399 166.37 84.9599 166.41Z" fill="#424140"/>
<path d="M86.13 172.48C86.54 176.27 83.8 179.68 80.01 180.1C76.22 180.51 72.81 177.77 72.39 173.98C71.98 170.19 74.72 166.78 78.51 166.36C82.3 165.95 85.71 168.69 86.13 172.48Z" fill="#E25D23"/>
<path d="M83.1301 172.78C83.3801 175.08 81.7201 177.14 79.4301 177.39C77.1401 177.64 75.0701 175.98 74.8201 173.69C74.5701 171.39 76.2301 169.33 78.5201 169.08C80.8101 168.83 82.8801 170.48 83.1301 172.78Z" fill="#F58453"/>
<path d="M84.76 167.47C84.68 167.47 84.59 167.46 84.51 167.44C83.94 167.3 83.59 166.73 83.73 166.16L90.14 139.8L75.54 119.17C75.2 118.69 75.31 118.03 75.79 117.69C76.27 117.35 76.93 117.46 77.27 117.94L92.43 139.36L85.79 166.66C85.68 167.15 85.24 167.47 84.76 167.47Z" fill="#424141"/>
<path d="M91.6899 143.6C93.0762 143.6 94.1999 142.064 94.1999 140.17C94.1999 138.276 93.0762 136.74 91.6899 136.74C90.3037 136.74 89.1799 138.276 89.1799 140.17C89.1799 142.064 90.3037 143.6 91.6899 143.6Z" fill="#424140"/>
<path d="M90.27 143.6C91.6562 143.6 92.78 142.064 92.78 140.17C92.78 138.276 91.6562 136.74 90.27 136.74C88.8838 136.74 87.76 138.276 87.76 140.17C87.76 142.064 88.8838 143.6 90.27 143.6Z" fill="#2B2A29"/>
<path d="M91.69 142.42C92.6013 142.42 93.34 141.413 93.34 140.17C93.34 138.928 92.6013 137.92 91.69 137.92C90.7788 137.92 90.04 138.928 90.04 140.17C90.04 141.413 90.7788 142.42 91.69 142.42Z" fill="#E25D23"/>
<path d="M92.9299 97.2201L97.7899 98.4901L100.11 126.08L96.3499 129.47L92.9299 97.2201Z" fill="#2B2A29"/>
<path d="M58.1499 102.16L61.3699 129.97L96.3499 129.47L92.9299 97.2201L58.1499 102.16Z" fill="#404040"/>
<path d="M61.37 129.97L96.35 129.47L96.33 129.24C87.43 129.11 78.59 126.03 71.56 120.56C67.94 117.74 64.81 114.3 62.32 110.45C61.07 108.52 59.89 105.38 58.26 103.04L61.37 129.97Z" fill="#2B2A29"/>
<path d="M91.8299 104.49C91.5099 103.22 90.4999 102.4 89.4599 102.48L88.0899 102.69L88.1699 103.17C87.6299 103.8 87.3899 104.77 87.6299 105.75C87.8299 106.53 88.2799 107.13 88.8499 107.47L88.9199 107.93L89.9199 107.77C90.0699 107.77 90.2199 107.74 90.3799 107.7C91.5399 107.34 92.1899 105.91 91.8299 104.49Z" fill="#CC4242"/>
<path d="M90.5998 104.68C90.9598 106.1 90.3098 107.53 89.1498 107.88C87.9898 108.22 86.7598 107.35 86.3998 105.93C86.0398 104.51 86.6898 103.08 87.8498 102.73C89.0198 102.39 90.2498 103.26 90.5998 104.68Z" fill="#FD5959"/>
<path d="M92.8299 113.32C92.5099 112.05 91.4999 111.23 90.4599 111.31L89.0899 111.52L89.1699 112C88.6299 112.63 88.3899 113.6 88.6299 114.58C88.8299 115.36 89.2799 115.96 89.8499 116.3L89.9199 116.76L90.9199 116.6C91.0699 116.6 91.2199 116.57 91.3799 116.53C92.5399 116.17 93.1899 114.74 92.8299 113.32Z" fill="#E25D23"/>
<path d="M91.5998 113.51C91.9598 114.93 91.3098 116.36 90.1498 116.71C88.9898 117.05 87.7598 116.18 87.3998 114.76C87.0398 113.34 87.6898 111.91 88.8498 111.56C90.0198 111.22 91.2498 112.09 91.5998 113.51Z" fill="#F58453"/>
<path d="M93.9998 122.06C93.6798 120.79 92.6698 119.97 91.6298 120.05L90.2598 120.26L90.3398 120.74C89.7998 121.37 89.5598 122.34 89.7998 123.32C89.9998 124.1 90.4498 124.7 91.0198 125.04L91.0898 125.5L92.0898 125.34C92.2398 125.34 92.3898 125.31 92.5498 125.27C93.7098 124.91 94.3598 123.48 93.9998 122.06Z" fill="#2B2A29"/>
<path d="M92.7797 122.25C93.1397 123.67 92.4897 125.1 91.3297 125.45C90.1697 125.79 88.9397 124.92 88.5797 123.5C88.2197 122.08 88.8697 120.65 90.0297 120.3C91.1897 119.96 92.4197 120.83 92.7797 122.25Z" fill="#424140"/>
<path d="M61.0398 104.14L63.7698 127.77L87.9398 127.18L85.1198 101.02L61.0398 104.14Z" fill="#E25D23"/>
<path d="M87.9298 127.15C83.2398 125.91 78.8698 123.55 75.0398 120.57C70.9598 117.39 67.4598 113.53 64.3398 109.41C63.0998 107.78 61.8998 106.04 61.0998 104.14L61.0398 104.15L63.7698 127.78L87.9398 127.19L87.9298 127.15Z" fill="#EBE6E6"/>
<g opacity="0.5">
<path d="M83.88 116.25C83.17 116.25 82.56 115.72 82.47 114.99L81.39 105.51L71.81 106.73C71.04 106.83 70.32 106.28 70.23 105.5C70.13 104.72 70.68 104.01 71.46 103.91L82.47 102.5C82.84 102.45 83.22 102.56 83.52 102.79C83.82 103.02 84.01 103.37 84.05 103.74L85.3 114.64C85.39 115.42 84.83 116.12 84.05 116.21C83.99 116.25 83.94 116.25 83.88 116.25Z" fill="#F58453"/>
<path d="M67.6199 107.4C67.1099 107.4 66.6399 107.13 66.3899 106.68L66.2499 106.44C65.8599 105.76 66.0999 104.89 66.7799 104.51C67.1699 104.29 67.6299 104.27 68.0199 104.43H68.0299C68.7899 104.63 69.2399 105.41 69.0399 106.16L68.9899 106.34C68.8399 106.9 68.3699 107.31 67.7999 107.38C67.7399 107.39 67.6799 107.4 67.6199 107.4Z" fill="#F58453"/>
</g>
<path d="M374.8 145.06C354.36 144.47 335.78 139.51 318.5 128.39C331.03 104.78 338.42 80.7701 340.5 54.0901C357.85 64.5401 378.52 67.4501 398.41 68.8001C397.62 96.1201 390.39 122.42 374.8 145.06Z" fill="#E25D23"/>
<path d="M345.08 138.74C336.4 136.17 328.36 132.47 321.17 127.74C333.88 103.95 340.3 82.6901 342.29 57.6101C346.88 60.2401 352.54 62.5601 359.17 64.5201C369.88 67.6901 383 69.8801 396.34 70.7301C395.67 97.2201 387.3 124.03 373.77 143.02C363.78 142.85 354.13 141.42 345.08 138.74Z" fill="#E25D23"/>
<path d="M368.68 114.8C362.17 113.83 355.72 112.29 349.46 110.27C348.58 109.98 347.98 109.17 347.98 108.27C347.95 101.87 347.57 95.4701 347.02 89.1001C346.94 88.1701 347.4 87.3601 348.18 87.0901C353.88 85.0201 359.43 82.7201 364.96 80.2201C365.77 79.8401 366.8 80.0501 367.49 80.7301C372.18 85.2901 377.01 89.7201 381.89 94.0701C382.56 94.6601 382.69 95.6301 382.21 96.4701C378.88 102.41 375.17 108.15 371.21 113.69C370.64 114.5 369.62 114.94 368.68 114.8ZM352.22 106.81C357.54 108.42 362.97 109.63 368.45 110.5C371.64 105.83 374.71 101.11 377.52 96.2001C373.5 92.4601 369.52 88.6801 365.65 84.7901C360.9 86.9801 356.07 88.9901 351.15 90.7401C351.7 96.0801 352.07 101.44 352.22 106.81Z" fill="white"/>
<path d="M380.14 75.1101C371.55 73.9301 363.25 72.2701 354.94 69.7901C354.39 69.6101 353.99 68.9801 354.03 68.3801C354.07 67.7801 354.54 67.4401 355.09 67.6201C363.39 70.1201 371.69 71.8201 380.27 73.0401C380.88 73.1201 381.34 73.6401 381.31 74.2101C381.28 74.7801 380.75 75.1801 380.14 75.1101Z" fill="white"/>
<path d="M367.56 126.12C359.11 124.73 351.09 122.73 343.03 119.84C342.48 119.63 342.21 119.03 342.43 118.5C342.65 117.98 343.26 117.73 343.82 117.94C351.91 120.8 359.96 122.78 368.43 124.14C369.02 124.22 369.3 124.73 369.06 125.28C368.82 125.83 368.14 126.2 367.56 126.12Z" fill="white"/>
<path d="M361.22 138.41C352.99 137.12 345.15 134.81 337.39 131.83C336.85 131.61 336.63 131.01 336.89 130.5C337.15 129.99 337.8 129.76 338.34 129.98C346.2 132.97 354.02 135.08 362.3 136.54C362.87 136.63 363.1 137.12 362.8 137.64C362.5 138.15 361.79 138.5 361.22 138.41Z" fill="#257771"/>
<path d="M371.45 131.34C358.87 129.79 347.18 126.84 335.56 121.74C335.03 121.49 334.79 120.87 335.02 120.35C335.25 119.84 335.86 119.63 336.39 119.88C348.06 124.94 359.81 127.86 372.42 129.39C373 129.45 373.26 129.93 372.99 130.47C372.72 131 372.03 131.4 371.45 131.34Z" fill="white"/>
<path d="M369.34 135.31C356.84 133.74 345.27 130.72 333.76 125.56C333.23 125.31 333.01 124.68 333.25 124.17C333.49 123.66 334.11 123.46 334.64 123.71C346.21 128.84 357.84 131.83 370.38 133.39C370.96 133.45 371.19 133.93 370.91 134.45C370.62 134.99 369.92 135.37 369.34 135.31Z" fill="white"/>
<path d="M374.45 145.05C373.53 143.36 372.01 141.89 370.58 140.54C363.98 134.35 357.7 127.72 352.83 120.1C347.95 112.48 344.51 103.79 343.95 94.7601C343.48 87.2301 345.02 79.7201 345.23 72.1801C345.4 66.1701 344.55 59.8101 341.56 54.7101C341.21 54.5001 340.85 54.3001 340.5 54.0901C338.43 80.7701 331.03 104.79 318.5 128.39C335.68 139.45 354.15 144.41 374.45 145.05Z" fill="#E8E6D8"/>
<path d="M318.46 256.32C328.87 250.74 338.96 244.84 348.67 238.23C354.09 234.54 360.27 232.09 366.75 231.07C368.96 230.73 371.16 230.37 373.36 230.01C376.01 229.57 378.43 231.64 378.39 234.33C378.28 241.8 381.34 250.15 389.19 251.85C397.43 253.63 405.55 248.4 409.35 241.19C410.58 238.87 413.59 238.2 415.71 239.74C415.77 239.78 415.83 239.83 415.89 239.87C424.57 246.19 431.07 255.05 434.5 265.22C437.1 272.95 440.08 281.9 442 288.01C431.51 291.5 422.62 298.4 410.53 298.47C410.31 294.81 410.2 292.92 409.99 289.42C409.65 289.35 410.02 289.43 409.67 289.36C396.36 308.27 387.38 334.58 383.98 364.74C372.64 360.78 356.36 355.26 345.21 350.8C334.06 346.34 322.9 341.99 311.56 338.03C317.93 313.77 330.55 292.73 342.7 271.02C342.19 270.56 342.8 271.11 342.29 270.66C339.38 272.74 337.66 273.93 334.46 276.13C326.11 274.72 322.34 258.06 318.46 256.32Z" fill="#E25D23"/>
<path d="M376.82 270.09C372.94 273.8 368.99 277.43 364.98 281C359.67 280.32 357.02 279.97 351.63 279.25C353.17 284.08 353.92 286.53 355.43 291.51C352.34 295.76 349.27 300.02 346.28 304.33C351.98 303.3 354.83 302.78 360.54 301.66C363.59 305.76 365.13 307.84 368.28 312.04C369.83 307.09 371.47 302.17 373.17 297.27C377.87 294.91 382.56 292.5 387.21 290.05C382.63 287.74 380.38 286.58 375.91 284.3C376.31 278.57 376.52 275.74 376.82 270.09Z" fill="#F3723A"/>
<path d="M345.95 329.58C341.14 316.17 341.39 301.29 344.82 287.45C348.25 273.62 354.71 260.71 362.09 248.52C365.06 243.61 369.19 238.43 375.56 240.38C376.81 240.76 378.09 241.23 379.34 241.55C378.67 239.22 378.37 236.73 378.4 234.32C378.44 231.63 376.02 229.57 373.37 230C371.17 230.36 368.96 230.72 366.76 231.06C360.28 232.07 354.1 234.52 348.68 238.22C338.97 244.83 328.88 250.73 318.47 256.31C322.35 258.06 326.12 274.71 334.49 276.1C337.69 273.9 339.41 272.71 342.32 270.63C342.43 270.73 342.49 270.78 342.51 270.8C342.52 270.81 342.56 270.84 342.72 270.99C330.56 292.7 317.95 313.74 311.58 338C322.92 341.96 334.08 346.31 345.23 350.77C356.38 355.23 372.67 360.75 384 364.71C384.02 364.57 384.03 364.44 384.05 364.31C381.55 362.04 377.71 360.9 374.39 359.68C361.01 354.75 350.76 342.99 345.95 329.58Z" fill="#E8E6D8"/>
<path d="M319.38 349.49C306.19 343.13 292.78 335.21 279.06 324.77C285.11 316.18 291.15 307.6 297.19 299.03C309.53 311.48 322.22 319.49 335.19 326.17C329.92 333.94 324.65 341.72 319.38 349.49Z" fill="#E25D23"/>
<path d="M311.95 338.04C306.6 335.02 301.24 331.71 295.81 328C295.42 327.73 295.3 327.23 295.55 326.89C295.8 326.55 296.31 326.5 296.7 326.78C302.12 330.5 307.45 333.82 312.79 336.85C313.16 337.05 313.27 337.48 313.04 337.81C312.81 338.14 312.32 338.24 311.95 338.04Z" fill="white"/>
<path d="M306.22 330.25C303.34 328.28 303.44 324.49 305.21 322.05C307.01 319.56 310.69 318.28 313.48 320.09C316.21 321.87 316.1 325.66 314.43 328C312.7 330.43 309.25 331.97 306.22 330.25ZM312.63 321.29C310.83 320.11 308.12 320.84 306.57 322.99C305.02 325.14 305.25 327.9 307.09 329.05C308.9 330.19 311.61 329.34 313.12 327.2C314.62 325.07 314.4 322.45 312.63 321.29Z" fill="white"/>
<path d="M299.96 336.92C299.86 334.86 298.36 332.98 295.84 331.67C295.02 331.24 294.2 330.95 293.47 330.68C293.14 330.56 292.82 330.44 292.53 330.32C291.69 329.97 291.13 329.57 290.6 328.94C290.37 328.67 290.15 328.39 289.94 328.11C288.81 326.65 287.38 324.77 284.86 323.68C283.34 323.02 281.77 322.79 280.33 322.97C279.91 323.57 279.48 324.18 279.06 324.78C286 330.06 292.85 334.7 299.63 338.8C299.88 338.19 300 337.56 299.96 336.92Z" fill="#4ABCB5"/>
<path d="M303.32 310.41C304.81 310.37 306.49 310.3 308.04 309.38C308.17 309.3 308.29 309.22 308.41 309.14C304.64 306.12 300.91 302.78 297.19 299.03C294.25 303.2 291.31 307.38 288.37 311.55C288.85 312.54 289.54 313.82 290.67 314.79C291.04 315.11 291.46 315.4 291.93 315.63C293.48 316.4 295.17 316.37 296.68 315.59C298.26 314.78 299.04 313.38 299.66 312.26C300.28 311.13 300.69 310.71 301.26 310.57C301.83 310.44 302.56 310.43 303.32 310.41Z" fill="#F3723A"/>
<path d="M324.33 325.91C325.37 326.48 326.57 326.63 327.49 326.74C327.7 326.77 327.91 326.79 328.11 326.82C328.36 326.86 328.61 326.91 328.87 326.95C329.87 327.14 331.13 327.37 332.45 327.17C333.41 327.03 334.28 326.63 335.02 326.07C330.95 323.97 326.91 321.74 322.91 319.28C321.83 321.32 321.73 323.77 323.58 325.37C323.79 325.58 324.06 325.76 324.33 325.91Z" fill="#F3723A"/>
<path d="M330.54 333.02C329.83 332.82 329.07 332.75 328.3 332.83C325.79 333.06 323.07 335.37 322.17 337.7C321.81 338.64 321.56 339.59 321.35 340.5C321.02 341.93 320.75 343.16 319.89 343.96C319.54 344.28 319.13 344.41 317.64 344.31C316.41 344.22 314.55 344.19 312.62 344.99C312.24 345.15 311.87 345.33 311.52 345.54C314.15 346.93 316.77 348.25 319.38 349.51C323.1 344 326.82 338.51 330.54 333.02Z" fill="#F3723A"/>
<path d="M319.66 349.08C319.46 348.41 319.2 347.75 318.88 347.14C317.69 344.88 315.86 343.05 314.16 341.15C305.82 331.82 300.29 320.2 298 307.92C297.46 305 296.68 302.82 295.27 301.76C292.97 305.02 290.67 308.29 288.37 311.56C285.27 315.97 282.17 320.37 279.06 324.78C279.92 325.44 280.78 326.08 281.64 326.72C281.89 326.9 282.13 327.08 282.38 327.26C283 327.71 283.61 328.17 284.23 328.61C284.48 328.79 284.72 328.96 284.97 329.14C285.58 329.58 286.19 330.02 286.81 330.44C287.04 330.6 287.26 330.75 287.49 330.91C288.12 331.35 288.76 331.79 289.39 332.22C289.57 332.34 289.75 332.46 289.93 332.59C290.6 333.05 291.28 333.5 291.95 333.94C292.12 334.05 292.29 334.16 292.46 334.27C293.14 334.72 293.83 335.17 294.51 335.6C294.66 335.7 294.81 335.79 294.95 335.88C295.65 336.33 296.36 336.78 297.06 337.21C297.2 337.3 297.35 337.39 297.49 337.47C298.19 337.91 298.9 338.34 299.6 338.77C299.61 338.78 299.63 338.79 299.64 338.8C304.89 341.98 310.09 344.85 315.27 347.46C315.43 347.54 315.58 347.62 315.74 347.7C316.96 348.31 318.18 348.92 319.39 349.5C319.47 349.35 319.56 349.22 319.66 349.08Z" fill="#E8E6D8"/>
<path d="M55.22 208.03C41.79 215.08 27.97 218.62 12.76 217.7C12.29 197.89 8.35 179.68 0 161.67C15.02 162.13 29.44 156.5 42.79 150.15C52.2 168.1 57.08 187.73 55.22 208.03Z" fill="#E25D23"/>
<path d="M33.7099 214.74C27.1599 216.23 20.6199 216.76 14.2499 216.31C13.8299 196.31 10.2599 180.23 2.42993 163.29C6.34993 163.32 10.8499 162.77 15.8499 161.63C23.9199 159.79 33.2099 156.44 42.1399 152.14C51.3299 169.51 55.6599 189.88 53.7999 207.08C47.2899 210.61 40.5299 213.18 33.7099 214.74Z" fill="#E25D23"/>
<path d="M40.2702 190.69C35.7102 192.43 30.9802 193.77 26.2002 194.74C25.5202 194.87 24.8402 194.56 24.5102 193.98C22.1702 189.85 19.5902 185.86 16.9302 181.94C16.5402 181.37 16.5502 180.68 16.9502 180.22C19.8802 176.81 22.6302 173.31 25.3002 169.69C25.6902 169.15 26.4302 168.91 27.1202 169.1C31.8102 170.35 36.5402 171.45 41.2802 172.49C41.9302 172.63 42.3602 173.21 42.3602 173.92C42.3702 178.97 42.0502 184.03 41.5002 189.05C41.4302 189.78 40.9302 190.44 40.2702 190.69ZM26.7302 191.5C30.7502 190.61 34.7002 189.42 38.5702 187.99C38.9302 183.81 39.2002 179.65 39.2402 175.45C35.2802 174.49 31.3402 173.49 27.4202 172.38C25.1402 175.52 22.7502 178.57 20.2002 181.5C22.4902 184.76 24.6802 188.09 26.7302 191.5Z" fill="white"/>
<path d="M33.27 160.86C27.29 163.21 21.31 165.16 15.04 166.57C14.62 166.65 14.13 166.39 13.94 165.99C13.75 165.59 13.93 165.2 14.35 165.11C20.63 163.72 26.61 161.79 32.6 159.47C33.02 159.3 33.51 159.47 33.7 159.85C33.89 160.23 33.69 160.69 33.27 160.86Z" fill="white"/>
<path d="M43.6601 198.42C37.7001 200.59 31.7801 202.21 25.5201 203.27C25.0901 203.33 24.7001 203.04 24.6501 202.62C24.6001 202.2 24.9101 201.82 25.3401 201.75C31.6101 200.66 37.5301 199.01 43.5101 196.82C43.9201 196.66 44.2901 196.89 44.3301 197.33C44.3701 197.77 44.0701 198.26 43.6601 198.42Z" fill="white"/>
<path d="M44.03 208.67C38.24 210.83 32.33 212.18 26.23 213.07C25.8 213.12 25.44 212.81 25.42 212.39C25.4 211.96 25.74 211.58 26.17 211.53C32.34 210.61 38.16 209.13 44.04 207.07C44.44 206.92 44.77 207.16 44.76 207.6C44.76 208.03 44.42 208.52 44.03 208.67Z" fill="#257771"/>
<path d="M48.07 200.38C39.37 203.95 30.74 206.28 21.38 207.21C20.95 207.24 20.57 206.92 20.53 206.51C20.49 206.1 20.81 205.74 21.24 205.71C30.62 204.74 39.28 202.36 47.99 198.77C48.39 198.6 48.73 198.81 48.75 199.26C48.77 199.7 48.47 200.2 48.07 200.38Z" fill="white"/>
<path d="M48.15 203.71C39.5 207.23 30.92 209.48 21.61 210.33C21.18 210.36 20.8 210.03 20.77 209.62C20.74 209.2 21.07 208.84 21.5 208.82C30.84 207.93 39.45 205.64 48.12 202.1C48.51 201.93 48.84 202.15 48.85 202.6C48.86 203.04 48.54 203.54 48.15 203.71Z" fill="white"/>
<path d="M55.22 208.03C55.23 207.91 55.24 207.78 55.25 207.66C53.69 207.22 51.83 207.28 50.18 207.37C39.83 207.96 28.6 205.09 22.11 197.01C16.14 189.58 15.23 179.25 10.31 171.08C8.90001 168.73 5.57001 164.07 2.21001 161.68C1.48001 161.69 0.74001 161.69 0.0100098 161.67C8.36001 179.68 12.3 197.89 12.77 217.7C27.97 218.62 41.79 215.08 55.22 208.03Z" fill="#E8E6D8"/>
<path d="M186.9 91.6C167.76 100.13 146.71 107.45 122.62 112.77C118.83 98.22 115.05 83.69 111.27 69.17C136.28 67.21 156.76 60.76 176.04 52.78C179.67 65.71 183.28 78.65 186.9 91.6Z" fill="#E25D23"/>
<path d="M167.53 89.11C159.28 92.16 150.72 94.95 141.64 97.46C140.98 97.63 140.33 97.3 140.19 96.72C140.05 96.14 140.47 95.53 141.13 95.36C150.2 92.89 158.75 90.13 167 87.1C167.56 86.89 168.14 87.16 168.28 87.72C168.43 88.27 168.1 88.9 167.53 89.11Z" fill="white"/>
<path d="M153.73 88.17C148.92 89.5 144.87 85.88 143.84 81.69C142.79 77.42 144.79 72.21 149.34 70.85C153.8 69.51 157.85 73.14 158.86 77.13C159.91 81.26 158.4 86.45 153.73 88.17ZM149.86 72.89C146.91 73.76 145.19 77.4 146.11 81.08C147.03 84.76 150.25 87.06 153.21 86.12C156.14 85.2 157.7 81.45 156.77 77.83C155.84 74.21 152.77 72.03 149.86 72.89Z" fill="white"/>
<path d="M155.22 101.17C152.88 99.3801 149.44 99.2801 145.68 100.82C144.45 101.32 143.37 101.94 142.41 102.49C141.97 102.74 141.55 102.97 141.15 103.18C139.98 103.77 139.03 104.01 137.86 104.01C137.35 104.01 136.84 103.99 136.34 103.96C133.69 103.85 130.33 103.66 126.8 105.41C124.67 106.46 122.97 107.96 121.84 109.71C122.11 110.73 122.37 111.75 122.64 112.77C134.83 110.08 146.22 106.88 156.98 103.27C156.53 102.44 155.95 101.73 155.22 101.17Z" fill="#4ABCB5"/>
<path d="M129.38 72.99C130.72 71.33 132.2 69.43 132.62 66.88C132.65 66.67 132.68 66.46 132.69 66.25C125.91 67.57 118.81 68.57 111.28 69.15C113.12 76.22 114.96 83.28 116.8 90.36C118.33 90.76 120.36 91.18 122.47 90.85C123.16 90.74 123.87 90.55 124.56 90.25C126.84 89.27 128.36 87.4 128.91 85.03C129.48 82.55 128.68 80.42 128.03 78.7C127.38 76.98 127.29 76.14 127.67 75.39C128.04 74.65 128.69 73.85 129.38 72.99Z" fill="#F3723A"/>
<path d="M165.72 64.38C167.31 63.77 168.57 62.61 169.54 61.7C169.77 61.49 169.98 61.28 170.2 61.1C170.47 60.87 170.76 60.64 171.05 60.4C172.18 59.48 173.6 58.32 174.6 56.7C175.33 55.52 175.71 54.2 175.77 52.88C169.72 55.38 163.54 57.73 157.15 59.83C158.39 62.9 160.96 65.26 164.42 64.73C164.88 64.66 165.31 64.54 165.72 64.38Z" fill="#F3723A"/>
<path d="M179.24 64.1801C178.37 64.7801 177.59 65.5401 176.96 66.4501C174.89 69.4101 174.9 74.5101 176.6 77.6501C177.29 78.9101 178.1 80.0601 178.9 81.1301C180.16 82.8001 181.24 84.2501 181.32 85.9201C181.35 86.5901 181.11 87.16 179.61 88.7001C178.38 89.9601 176.63 91.9701 175.72 94.8101C175.54 95.3801 175.4 95.9501 175.3 96.5201C179.25 94.93 183.11 93.3001 186.9 91.6101C184.35 82.4601 181.79 73.3201 179.24 64.1801Z" fill="#F3723A"/>
<path d="M182.95 89.78C180.93 89.19 178.78 89.32 176.68 89.43C164.23 90.1 151.56 90.29 139.5 87.12C134.03 85.68 128.72 83.49 123.91 80.5C119.67 77.86 116.6 74.44 112.93 71.15C112.42 70.69 111.95 70.33 111.51 70.05C113.27 76.82 115.03 83.59 116.8 90.37C118.74 97.83 120.68 105.29 122.63 112.76C124.15 112.43 125.65 112.08 127.14 111.73C127.52 111.64 127.89 111.55 128.26 111.46C129.37 111.19 130.48 110.93 131.58 110.66C131.99 110.56 132.39 110.45 132.8 110.35C133.86 110.08 134.91 109.82 135.96 109.54C136.32 109.44 136.68 109.34 137.04 109.25C138.12 108.96 139.2 108.67 140.27 108.38C140.58 108.29 140.89 108.2 141.2 108.12C142.31 107.81 143.42 107.49 144.52 107.17C144.79 107.09 145.06 107.01 145.33 106.93C146.46 106.6 147.59 106.26 148.7 105.92C148.95 105.84 149.2 105.76 149.44 105.69C150.57 105.34 151.7 104.99 152.82 104.63C153.05 104.56 153.27 104.48 153.5 104.41C154.63 104.04 155.76 103.68 156.88 103.3C156.9 103.29 156.92 103.29 156.94 103.28C165.26 100.49 173.21 97.46 180.84 94.23C181.07 94.13 181.3 94.03 181.53 93.93C183.13 93.25 184.72 92.56 186.29 91.86C185.46 90.86 184.23 90.15 182.95 89.78Z" fill="#E8E6D8"/>
<path d="M406.94 145.6L421.46 184.66L415.84 190.64L426.61 198.51L438.7 145.92C423.83 149.48 406.94 145.6 406.94 145.6Z" fill="#E25D23"/>
<path d="M430.1 162.66L406.94 145.6L394.96 199.95L419.77 207.58L430.1 162.66Z" fill="#D2521A"/>
<path d="M419.77 207.58L388.85 205.35C388.85 205.35 400.09 175.41 401.12 151.96L430.09 162.66L419.77 207.58Z" fill="#E25D23"/>
<path d="M417.388 183.365L417.388 183.365C416.778 186.031 415.54 188.215 414.112 189.607C412.67 191.012 411.202 191.475 409.996 191.198C408.791 190.921 407.673 189.864 406.991 187.972C406.315 186.098 406.157 183.594 406.772 180.927L406.772 180.925C407.383 178.259 408.62 176.075 410.048 174.683C411.49 173.278 412.959 172.815 414.164 173.092C415.368 173.369 416.483 174.426 417.165 176.32C417.84 178.197 417.999 180.703 417.388 183.365Z" stroke="white" stroke-width="3"/>
<path d="M406.79 163.84C406.5 163.6 406.41 163.18 406.61 162.84C406.83 162.47 407.31 162.34 407.68 162.56C407.77 162.61 416.45 167.64 425.09 168.08C425.52 168.1 425.85 168.47 425.83 168.9C425.81 169.33 425.44 169.66 425.01 169.64C415.98 169.18 407.26 164.13 406.89 163.91C406.86 163.89 406.82 163.87 406.79 163.84Z" fill="white"/>
<path d="M399.04 197.38C398.78 197.17 398.68 196.8 398.81 196.48C398.98 196.08 399.43 195.89 399.83 196.06C399.92 196.1 409.21 199.9 417.83 199.17C418.26 199.13 418.64 199.45 418.67 199.88C418.71 200.31 418.39 200.69 417.96 200.72C408.95 201.49 399.62 197.66 399.23 197.5C399.16 197.47 399.09 197.43 399.04 197.38Z" fill="white"/>
<path d="M413.92 202.24C408.46 198.39 406.16 191.37 405.61 184.71C405.06 178.05 405.92 171.32 405.16 164.69C404.74 161.08 403.74 155.82 401.08 152.8C399.82 176.12 388.85 205.36 388.85 205.36L419.77 207.59L419.78 207.55C418.95 205.05 416.12 203.79 413.92 202.24Z" fill="#E8E6D8"/>
<path d="M21.51 246.54L62.63 270.67L61.97 280.04L77.21 279.23L49.9 223.86C39.29 237.77 21.51 246.54 21.51 246.54Z" fill="#E25D23"/>
<path d="M54.38 244.93L21.51 246.54L50.2 303.4L77.71 292.22L54.38 244.93Z" fill="#D2521A"/>
<path d="M77.71 292.22L48.69 312.6C48.69 312.6 37 277.93 20.96 256.39L54.39 244.93L77.71 292.22Z" fill="#E25D23"/>
<path d="M58.2789 272.375C59.6781 275.212 60.1708 278.084 59.9059 280.396C59.6389 282.727 58.6474 284.28 57.2902 284.95C55.9329 285.619 54.0971 285.461 52.0849 284.254C50.0886 283.057 48.1094 280.919 46.7102 278.082C45.3109 275.246 44.8183 272.374 45.0832 270.061C45.3502 267.73 46.3416 266.177 47.6989 265.507C49.0562 264.838 50.8919 264.996 52.9042 266.203C54.9005 267.4 56.8796 269.539 58.2789 272.375Z" stroke="white" stroke-width="3"/>
<path d="M34.5699 262.83C34.1399 262.83 33.7599 262.52 33.6899 262.07C33.6099 261.58 33.9499 261.12 34.4399 261.05C34.5499 261.03 45.8899 259.21 53.8699 253.35C54.2699 253.06 54.8299 253.14 55.1199 253.54C55.4099 253.94 55.3299 254.5 54.9299 254.79C46.5899 260.91 35.1999 262.74 34.7199 262.82C34.6699 262.82 34.6199 262.83 34.5699 262.83Z" fill="white"/>
<path d="M51.95 298.17C51.57 298.17 51.21 297.92 51.09 297.53C50.95 297.06 51.22 296.56 51.69 296.42C51.8 296.39 62.78 293.05 69.89 286.16C70.24 285.82 70.81 285.82 71.15 286.18C71.49 286.53 71.4799 287.1 71.1299 287.44C63.6999 294.63 52.66 297.99 52.19 298.13C52.12 298.15 52.04 298.17 51.95 298.17Z" fill="white"/>
<path d="M77.71 292.22L77.5 291.78C76.69 291.34 75.73 291.05 74.86 290.79C67.34 288.58 60.77 283.95 54.77 278.9C48.77 273.85 43.17 268.3 36.77 263.78C32.29 260.62 26.9 257.51 21.34 256.26L20.97 256.39C37 277.93 48.69 312.6 48.69 312.6L77.71 292.22Z" fill="#E8E6D8"/>
</svg>
