<svg width="235" height="68" viewBox="0 0 235 68" fill="none" xmlns="http://www.w3.org/2000/svg">
<path fill-rule="evenodd" clip-rule="evenodd" d="M55.1559 47.3334C55.5783 50.5371 55.8231 53.9654 55.8231 57.6405C55.8231 61.2827 55.6996 64.6414 55.4863 67.7444C66.014 61.3344 73.045 49.751 73.045 36.5258C73.045 16.3535 56.694 0.00189071 36.5225 0.00189071C31.8885 -0.0482497 27.6302 0.904783 24.0861 2.15732L24.1072 2.1774C24.1976 2.14479 24.2873 2.11095 24.3777 2.07907C26.1042 2.94411 33.6204 8.42901 36.5224 10.8109C38.0758 11.9864 51.1089 22.4676 54.8176 45.0486H45.9545C45.3468 40.3752 41.356 36.7708 36.5244 36.7708C31.6893 36.7708 27.6984 40.3752 27.0905 45.0486H18.4127L18.0738 47.3334H27.0671C27.5865 52.0949 31.6213 55.8014 36.5242 55.8014C41.4239 55.8014 45.4584 52.0949 45.9778 47.3334H55.1559Z" fill="url(#paint0_linear)"/>
<path fill-rule="evenodd" clip-rule="evenodd" d="M17.8891 47.3334C17.4666 50.5371 17.2219 53.9654 17.2219 57.6405C17.2219 61.2827 17.3454 64.6414 17.5586 67.7444C7.03098 61.3344 1.14441e-05 49.751 1.14441e-05 36.5258C1.14441e-05 16.3535 16.351 0.00189071 36.5224 0.00189071C41.1565 -0.0482497 45.4148 0.904783 48.9588 2.15732L48.9378 2.1774C48.8474 2.14479 48.7577 2.11095 48.6673 2.07907C46.9408 2.94411 39.4246 8.42901 36.5226 10.8109C34.9692 11.9864 21.9361 22.4676 18.2274 45.0486H27.0904C27.6982 40.3752 31.689 36.7708 36.5206 36.7708C41.3556 36.7708 45.3465 40.3752 45.9544 45.0486H54.6323L54.9712 47.3334H45.9779C45.4585 52.0949 41.4237 55.8014 36.5207 55.8014C31.6211 55.8014 27.5866 52.0949 27.0672 47.3334H17.8891Z" fill="url(#paint1_linear)"/>
<path d="M92.8041 30.1625C95.6062 30.1625 98.2514 28.8418 98.2514 25.6883C98.2514 22.6937 95.6062 21.175 92.8041 21.175H89.7305V30.1625H92.8041ZM92.2984 14.9502C100.274 14.9502 104.515 19.891 104.515 25.6883C104.515 31.5239 100.274 36.4264 92.2984 36.4264H89.7306V42.1845H83.1176V14.9502H92.2985H92.2984Z" fill="#2B2A29"/>
<path d="M116.493 32.1479H120.462L118.477 26.8564L116.493 32.1479ZM112.797 42.1845H105.445L116.571 14.9502H120.54L131.511 42.1845H124.158L122.757 38.4118H114.198L112.797 42.1845H112.797Z" fill="#2B2A29"/>
<path d="M147.186 33.3549C146.329 32.0319 145.707 31.6036 144.345 31.6036H142.867V42.1844H136.254V14.9501H142.867V25.2207H144.306C145.668 25.2207 146.29 24.7541 147.147 23.4702L152.593 14.95H160.024L153.372 25.4171C151.892 27.4386 151.037 27.9444 150.531 28.295C151.076 28.6065 151.932 29.074 153.41 31.4078L160.297 42.1842H152.827L147.186 33.3549H147.186Z" fill="#2B2A29"/>
<path d="M183.4 25.4174V31.6813H172.431V35.9207H184.451V42.1845H165.816V14.9502H184.451V21.1749H172.431V25.4174H183.4Z" fill="#2B2A29"/>
<path d="M202.15 42.1845H195.535V21.1749H188.572V14.9502H209.113V21.1749H202.15V42.1845Z" fill="#2B2A29"/>
<path d="M219.847 32.1479H223.816L221.832 26.8564L219.847 32.1479ZM216.152 42.1845H208.798L219.925 14.9502H223.896L234.866 42.1845H227.512L226.111 38.4118H217.552L216.152 42.1845Z" fill="#2B2A29"/>
<path d="M86.9661 56.9433V52.6602H84.1776V56.9433H83.1174V51.6409H88.0261V56.9433H86.9661Z" fill="#2B2A29"/>
<path d="M91.0058 54.2947C91.0058 55.3 91.7903 55.9905 92.6702 55.9905C93.5493 55.9905 94.3244 55.3 94.3244 54.2947C94.3244 53.284 93.5493 52.5966 92.6702 52.5966C91.7903 52.5966 91.0058 53.284 91.0058 54.2947ZM95.3743 54.2947C95.3743 55.7971 94.261 57.0184 92.7549 57.0184C92.0447 57.0184 91.4192 56.6567 91.0803 56.1399V58.8964H90.0194V51.6407H90.7404L90.8038 52.6185C91.1967 51.9914 91.9171 51.5796 92.7547 51.5796C94.2609 51.5796 95.3742 52.7867 95.3742 54.2946L95.3743 54.2947Z" fill="#2B2A29"/>
<path d="M97.7332 54.2949C97.7332 55.3002 98.5075 55.9907 99.3874 55.9907C100.267 55.9907 101.052 55.3002 101.052 54.2949C101.052 53.2842 100.267 52.5859 99.3874 52.5859C98.5074 52.5859 97.7332 53.2842 97.7332 54.2949ZM102.113 54.2949C102.113 55.7973 100.894 57.0076 99.3874 57.0076C97.8811 57.0076 96.6731 55.7973 96.6731 54.2949C96.6731 52.7872 97.8811 51.5667 99.3874 51.5667C100.894 51.5667 102.113 52.7872 102.113 54.2949Z" fill="#2B2A29"/>
<path d="M107.541 56.9433V53.3813L104.425 56.9433H103.755V51.6409H104.816V55.2062L107.934 51.6409H108.602V56.9433H107.541Z" fill="#2B2A29"/>
<path d="M114.713 55.4049C114.713 56.4766 113.813 57.0075 112.561 57.0184H112.423C111.353 57.0184 110.398 56.4876 110.08 55.9795L110.663 55.3524C111.023 55.7556 111.67 56.0514 112.403 56.0514H112.529C113.176 56.0514 113.653 55.7893 113.653 55.256C113.653 54.8442 113.42 54.5459 112.752 54.535H111.861V53.8805H112.646C113.198 53.8696 113.409 53.6042 113.409 53.2425C113.409 52.7564 112.974 52.5332 112.444 52.5332H112.349C111.733 52.5332 111.215 52.7759 110.822 53.1595L110.26 52.5441C110.706 52.0133 111.522 51.5664 112.433 51.5664H112.529C113.58 51.5664 114.459 52.0886 114.459 53.0109C114.459 53.519 114.247 53.9746 113.696 54.1765C114.384 54.3253 114.713 54.7809 114.713 55.4049H114.713Z" fill="#2B2A29"/>
<path d="M119.23 56.043C119.897 56.043 120.141 55.7447 120.141 55.3228C120.141 54.9078 119.909 54.5985 119.241 54.5985L117.47 54.5908V56.043H119.23H119.23ZM117.47 53.8174H119.133C119.686 53.8174 119.898 53.541 119.898 53.1793C119.898 52.82 119.674 52.5444 119.124 52.5444H117.47V53.8174H117.47ZM119.187 51.6409C120.427 51.6409 120.947 52.2046 120.947 53.0525C120.947 53.5606 120.745 53.9857 120.205 54.1766C120.872 54.3255 121.202 54.7921 121.202 55.4051C121.202 56.4548 120.598 56.9433 119.199 56.9433H116.41V51.6409H119.187H119.187Z" fill="#2B2A29"/>
<path d="M123.564 54.2949C123.564 55.3002 124.339 55.9907 125.218 55.9907C126.099 55.9907 126.883 55.3002 126.883 54.2949C126.883 53.2842 126.099 52.5859 125.218 52.5859C124.339 52.5859 123.564 53.2842 123.564 54.2949ZM127.945 54.2949C127.945 55.7973 126.724 57.0076 125.218 57.0076C123.713 57.0076 122.504 55.7973 122.504 54.2949C122.504 52.7872 123.713 51.5667 125.218 51.5667C126.724 51.5667 127.945 52.7872 127.945 54.2949Z" fill="#2B2A29"/>
<path d="M130.737 55.9273H133.186L131.957 53.2208L130.737 55.9273H130.737ZM133.972 58.0261V56.9433H129.943V58.0261H128.882V55.9273H129.644L131.616 51.6409H132.286L134.256 55.9273H135.022V58.0261H133.972H133.972Z" fill="#2B2A29"/>
<path d="M140.773 52.5551L140.137 53.2424C139.701 52.7867 139.236 52.5965 138.683 52.5965C137.804 52.5965 137.029 53.2839 137.029 54.2946C137.029 55.2998 137.804 55.9904 138.683 55.9904C139.236 55.9904 139.701 55.7892 140.137 55.3445L140.773 56.0319C140.274 56.626 139.521 57.0073 138.683 57.0073C137.178 57.0073 135.969 55.797 135.969 54.2946C135.969 52.7869 137.178 51.5796 138.683 51.5796C139.521 51.5796 140.274 51.9608 140.773 52.5551Z" fill="#2B2A29"/>
<path d="M144.758 56.9433H143.698V52.6602H141.907V51.6409H146.561V52.6602H144.758V56.9433Z" fill="#2B2A29"/>
<path d="M150.707 56.043C151.373 56.043 151.618 55.7447 151.618 55.3228C151.618 54.9078 151.384 54.5985 150.716 54.5985L148.946 54.5908V56.043H150.707ZM148.946 53.8174H150.61C151.161 53.8174 151.373 53.541 151.373 53.1793C151.373 52.82 151.15 52.5444 150.599 52.5444H148.946V53.8174H148.946ZM150.663 51.6409C151.903 51.6409 152.423 52.2046 152.423 53.0525C152.423 53.5606 152.222 53.9857 151.68 54.1766C152.349 54.3255 152.677 54.7921 152.677 55.4051C152.677 56.4548 152.073 56.9433 150.674 56.9433H147.885V51.6409H150.662H150.663Z" fill="#2B2A29"/>
<path d="M155.042 54.2949C155.042 55.3002 155.816 55.9907 156.696 55.9907C157.575 55.9907 158.36 55.3002 158.36 54.2949C158.36 53.2842 157.575 52.5859 156.696 52.5859C155.816 52.5859 155.042 53.2842 155.042 54.2949ZM159.42 54.2949C159.42 55.7973 158.202 57.0076 156.696 57.0076C155.19 57.0076 153.981 55.7973 153.981 54.2949C153.981 52.7872 155.19 51.5667 156.696 51.5667C158.202 51.5667 159.42 52.7872 159.42 54.2949Z" fill="#2B2A29"/>
<path d="M165.512 54.2947C165.512 55.3 166.298 55.9905 167.177 55.9905C168.057 55.9905 168.831 55.3 168.831 54.2947C168.831 53.284 168.057 52.5966 167.177 52.5966C166.298 52.5966 165.512 53.284 165.512 54.2947ZM169.88 54.2947C169.88 55.7971 168.767 57.0184 167.262 57.0184C166.551 57.0184 165.926 56.6567 165.587 56.1399V58.8964H164.526V51.6407H165.248L165.31 52.6185C165.702 51.9914 166.423 51.5796 167.262 51.5796C168.767 51.5796 169.88 52.7867 169.88 54.2946L169.88 54.2947Z" fill="#2B2A29"/>
<path d="M172.34 53.8894H175.384L175.256 53.3696C175.034 52.8843 174.557 52.5334 173.899 52.5334C172.998 52.5334 172.383 53.1708 172.34 53.8894ZM176.242 53.0634C176.444 53.5081 176.466 54.1651 176.337 54.569H172.297C172.297 55.5022 173.008 56.0431 173.952 56.0431C174.566 56.0431 175.161 55.8724 175.658 55.5765L176.232 56.1895C175.649 56.6374 174.875 57.0076 173.952 57.0076C172.319 57.0076 171.206 55.8616 171.206 54.2949C171.206 52.7872 172.245 51.5667 173.888 51.5667C175.034 51.5667 175.851 52.1412 176.242 53.0634H176.242Z" fill="#2B2A29"/>
<path d="M180.996 55.5656C180.592 54.9416 180.401 54.7286 179.777 54.7286H179.182V56.9433H178.122V51.6409H179.182V53.6983H179.691C180.327 53.6983 180.508 53.4861 180.91 52.8504L181.706 51.6409H182.882L181.8 53.2951C181.504 53.7319 181.229 54.0828 180.942 54.1985C181.282 54.3034 181.568 54.6542 181.875 55.1317L183.064 56.9433H181.887L180.996 55.5656H180.996Z" fill="#2B2A29"/>
<path d="M185.188 56.9433H184.064L186.512 51.6409H187.171L189.62 56.9433H188.507L186.842 53.2208L185.188 56.9433Z" fill="#2B2A29"/>
<path d="M194.756 54.2949C194.756 53.2842 193.972 52.5859 193.092 52.5859C192.211 52.5859 191.438 53.2842 191.438 54.2949C191.438 55.3002 192.211 55.9907 193.092 55.9907C193.972 55.9907 194.756 55.3002 194.756 54.2949ZM195.011 56.9434L194.947 55.9687C194.556 56.5926 193.834 57.0076 192.996 57.0076C191.491 57.0076 190.378 55.7973 190.378 54.2949C190.378 52.7872 191.491 51.5667 192.996 51.5667C193.834 51.5667 194.556 51.9917 194.947 52.6189L195.011 51.641H195.732V56.9435H195.011V56.9434Z" fill="#2B2A29"/>
<path d="M202.197 56.9433V53.3813L200.479 55.3448L198.761 53.3813V56.9433H197.702V51.6409H198.369L200.479 54.06L202.59 51.6409H203.258V56.9433H202.197Z" fill="#2B2A29"/>
<path d="M210.566 56.9432V51.6407H211.627V56.9432H210.566ZM207.936 55.9576C208.7 55.9576 208.923 55.5653 208.923 55.0987C208.923 54.6431 208.7 54.2508 207.936 54.2508H206.292V55.9576H207.936ZM207.82 53.2645C209.568 53.2645 209.982 54.2814 209.982 55.0987C209.982 55.927 209.568 56.9431 207.82 56.9431H205.232V51.6406H206.292V53.2645H207.82Z" fill="#2B2A29"/>
<defs>
<linearGradient id="paint0_linear" x1="48.5655" y1="44.3115" x2="48.5655" y2="71.8047" gradientUnits="userSpaceOnUse">
<stop stop-color="#E25D23"/>
<stop offset="1" stop-color="#9D471E"/>
</linearGradient>
<linearGradient id="paint1_linear" x1="24.4795" y1="44.3115" x2="24.4795" y2="71.8047" gradientUnits="userSpaceOnUse">
<stop stop-color="#E25D23"/>
<stop offset="1" stop-color="#9D471E"/>
</linearGradient>
</defs>
</svg>
