<svg width="178" height="52" viewBox="0 0 178 52" fill="none" xmlns="http://www.w3.org/2000/svg">
<path fill-rule="evenodd" clip-rule="evenodd" d="M41.8015 35.873C42.1217 38.301 42.3071 40.8992 42.3071 43.6845C42.3071 46.4449 42.2135 48.9904 42.0519 51.3421C50.0306 46.4841 55.3593 37.7053 55.3593 27.6821C55.3593 12.394 42.9672 0.00143293 27.6797 0.00143293C24.1676 -0.0365674 20.9403 0.685716 18.2544 1.63499L18.2703 1.65021C18.3389 1.62549 18.4068 1.59985 18.4754 1.57568C19.7838 2.23128 25.4802 6.38817 27.6796 8.19337C28.8569 9.08426 38.7344 17.0277 41.5451 34.1414H34.828C34.3674 30.5995 31.3428 27.8678 27.6811 27.8678C24.0167 27.8678 20.9921 30.5995 20.5314 34.1414H13.9546L13.6978 35.873H20.5136C20.9072 39.4816 23.9651 42.2907 27.681 42.2907C31.3943 42.2907 34.452 39.4816 34.8456 35.873H41.8015Z" fill="white"/>
<path fill-rule="evenodd" clip-rule="evenodd" d="M13.5578 35.873C13.2377 38.301 13.0522 40.8992 13.0522 43.6845C13.0522 46.4449 13.1458 48.9904 13.3074 51.3421C5.32874 46.4841 0.000114441 37.7053 0.000114441 27.6821C0.000114441 12.394 12.3922 0.00143293 27.6797 0.00143293C31.1918 -0.0365674 34.419 0.685716 37.105 1.63499L37.089 1.65021C37.0205 1.62549 36.9525 1.59985 36.884 1.57568C35.5756 2.23128 29.8792 6.38817 27.6798 8.19337C26.5025 9.08426 16.625 17.0277 13.8143 34.1414H20.5314C20.992 30.5995 24.0165 27.8678 27.6783 27.8678C31.3427 27.8678 34.3673 30.5995 34.828 34.1414H41.4047L41.6616 35.873H34.8458C34.4522 39.4816 31.3942 42.2907 27.6784 42.2907C23.9651 42.2907 20.9074 39.4816 20.5138 35.873H13.5578Z" fill="white"/>
<path fill-rule="evenodd" clip-rule="evenodd" d="M13.9547 34.1415C16.7654 17.0276 26.5024 9.08435 27.6796 8.19338C25.4802 6.38817 19.7839 2.23128 18.4754 1.57568C7.71463 5.36936 0 15.6234 0 27.6821C0 37.7656 5.39393 46.5871 13.4531 51.4257C13.2875 49.0501 13.1933 46.4781 13.1933 43.6844C13.1933 40.8992 13.3789 38.301 13.6978 35.8729L13.9547 34.1414V34.1415Z" fill="white"/>
<path d="M70.3342 22.8596C72.4578 22.8596 74.4626 21.8587 74.4626 19.4687C74.4626 17.1992 72.4578 16.0482 70.3342 16.0482H68.0047V22.8596H70.3342ZM69.9509 11.3306C75.9958 11.3306 79.2099 15.0751 79.2099 19.4687C79.2099 23.8914 75.9958 27.6069 69.9509 27.6069H68.0048V31.9709H62.9929V11.3306H69.951H69.9509Z" fill="white"/>
<path d="M88.288 24.3643H91.2956L89.7915 20.354L88.288 24.3643ZM85.4868 31.9709H79.9148L88.3466 11.3306H91.3548L99.6692 31.9709H94.0967L93.0352 29.1116H86.5483L85.4867 31.9709H85.4868Z" fill="white"/>
<path d="M111.549 25.2788C110.9 24.2761 110.428 23.9516 109.396 23.9516H108.276V31.9705H103.264V11.3302H108.276V19.1141H109.367C110.399 19.1141 110.87 18.7604 111.519 17.7874L115.647 11.3301H121.279L116.237 19.2629C115.116 20.7949 114.468 21.1783 114.084 21.444C114.497 21.6801 115.146 22.0344 116.267 23.8031L121.485 31.9704H115.824L111.549 25.2788H111.549Z" fill="white"/>
<path d="M138.995 19.2634V24.0107H130.681V27.2237H139.792V31.9709H125.668V11.3306H139.792V16.0481H130.681V19.2634H138.995Z" fill="white"/>
<path d="M153.205 31.9709H148.192V16.0481H142.914V11.3306H158.482V16.0481H153.205V31.9709Z" fill="white"/>
<path d="M166.617 24.3643H169.625L168.122 20.354L166.617 24.3643ZM163.817 31.9709H158.244L166.676 11.3306H169.686L178 31.9709H172.426L171.365 29.1116H164.878L163.817 31.9709Z" fill="white"/>
<path d="M65.9097 43.1578V39.9117H63.7964V43.1578H62.9929V39.1392H66.7131V43.1578H65.9097Z" fill="white"/>
<path d="M68.9714 41.149C68.9714 41.9109 69.566 42.4342 70.2328 42.4342C70.8991 42.4342 71.4866 41.9109 71.4866 41.149C71.4866 40.383 70.8991 39.8621 70.2328 39.8621C69.566 39.8621 68.9714 40.383 68.9714 41.149ZM72.2823 41.149C72.2823 42.2877 71.4385 43.2132 70.297 43.2132C69.7588 43.2132 69.2848 42.9391 69.0279 42.5475V44.6366H68.2239V39.1376H68.7703L68.8183 39.8787C69.1161 39.4034 69.6621 39.0913 70.2969 39.0913C71.4384 39.0913 72.2822 40.0062 72.2822 41.149L72.2823 41.149Z" fill="white"/>
<path d="M74.07 41.1492C74.07 41.9111 74.6568 42.4344 75.3237 42.4344C75.99 42.4344 76.5851 41.9111 76.5851 41.1492C76.5851 40.3832 75.99 39.854 75.3237 39.854C74.6567 39.854 74.07 40.3832 74.07 41.1492ZM77.3891 41.1492C77.3891 42.2879 76.4653 43.2051 75.3237 43.2051C74.1821 43.2051 73.2666 42.2879 73.2666 41.1492C73.2666 40.0066 74.1821 39.0815 75.3237 39.0815C76.4653 39.0815 77.3891 40.0066 77.3891 41.1492Z" fill="white"/>
<path d="M81.5032 43.1563V40.4567L79.1412 43.1563H78.6338V39.1377H79.4378V41.8398L81.801 39.1377H82.3072V43.1563H81.5032Z" fill="white"/>
<path d="M86.9386 41.9902C86.9386 42.8024 86.2562 43.2047 85.3075 43.213H85.2031C84.392 43.213 83.6681 42.8107 83.4272 42.4256L83.8687 41.9504C84.1422 42.2559 84.6323 42.4802 85.1877 42.4802H85.2833C85.7739 42.4802 86.1352 42.2815 86.1352 41.8773C86.1352 41.5652 85.9584 41.3391 85.4523 41.3309H84.7771V40.8349H85.3723C85.7899 40.8266 85.9501 40.6254 85.9501 40.3513C85.9501 39.9829 85.6208 39.8138 85.2192 39.8138H85.1468C84.6803 39.8138 84.2871 39.9977 83.9898 40.2884L83.5637 39.8221C83.9013 39.4197 84.5202 39.0811 85.2108 39.0811H85.2833C86.0795 39.0811 86.7458 39.4768 86.7458 40.1758C86.7458 40.5609 86.585 40.9062 86.1679 41.0592C86.6895 41.172 86.9387 41.5172 86.9387 41.9902H86.9386Z" fill="white"/>
<path d="M90.3618 42.474C90.8678 42.474 91.0524 42.2479 91.0524 41.9281C91.0524 41.6136 90.8762 41.3793 90.37 41.3793L89.0279 41.3734V42.474H90.3617H90.3618ZM89.028 40.7872H90.2888C90.7076 40.7872 90.8679 40.5777 90.8679 40.3036C90.8679 40.0314 90.6982 39.8224 90.2817 39.8224H89.0281V40.7872H89.028ZM90.3291 39.1377C91.269 39.1377 91.6636 39.5649 91.6636 40.2075C91.6636 40.5926 91.5105 40.9148 91.1006 41.0595C91.6066 41.1723 91.8565 41.5259 91.8565 41.9905C91.8565 42.7861 91.3985 43.1563 90.3382 43.1563H88.2246V39.1377H90.3292H90.3291Z" fill="white"/>
<path d="M93.6469 41.1492C93.6469 41.9111 94.2337 42.4344 94.9001 42.4344C95.5682 42.4344 96.1622 41.9111 96.1622 41.1492C96.1622 40.3832 95.5682 39.854 94.9001 39.854C94.2338 39.854 93.6469 40.3832 93.6469 41.1492ZM96.9667 41.1492C96.9667 42.2879 96.0417 43.2051 94.9001 43.2051C93.7597 43.2051 92.843 42.2879 92.843 41.1492C92.843 40.0066 93.7597 39.0815 94.9001 39.0815C96.0417 39.0815 96.9667 40.0066 96.9667 41.1492Z" fill="white"/>
<path d="M99.083 42.3863H100.939L100.008 40.3351L99.0831 42.3863H99.083ZM101.535 43.9769V43.1563H98.4808V43.9769H97.6768V42.3863H98.2546L99.7493 39.1377H100.257L101.75 42.3863H102.33V43.9769H101.535H101.535Z" fill="white"/>
<path d="M106.689 39.8307L106.207 40.3515C105.877 40.0062 105.524 39.862 105.105 39.862C104.439 39.862 103.852 40.383 103.852 41.149C103.852 41.9108 104.439 42.4341 105.105 42.4341C105.524 42.4341 105.877 42.2817 106.207 41.9447L106.689 42.4656C106.311 42.9159 105.74 43.2049 105.105 43.2049C103.965 43.2049 103.048 42.2876 103.048 41.149C103.048 40.0063 103.965 39.0913 105.105 39.0913C105.74 39.0913 106.311 39.3802 106.689 39.8307Z" fill="white"/>
<path d="M109.709 43.1563H108.906V39.9102H107.548V39.1377H111.075V39.9102H109.709V43.1563Z" fill="white"/>
<path d="M114.217 42.474C114.722 42.474 114.908 42.2479 114.908 41.9281C114.908 41.6136 114.731 41.3793 114.224 41.3793L112.883 41.3734V42.474H114.217ZM112.883 40.7872H114.144C114.562 40.7872 114.722 40.5777 114.722 40.3036C114.722 40.0314 114.553 39.8224 114.136 39.8224H112.883V40.7872H112.883ZM114.184 39.1377C115.124 39.1377 115.518 39.5649 115.518 40.2075C115.518 40.5926 115.366 40.9148 114.955 41.0595C115.462 41.1723 115.711 41.5259 115.711 41.9905C115.711 42.7861 115.252 43.1563 114.192 43.1563H112.079V39.1377H114.184H114.184Z" fill="white"/>
<path d="M117.503 41.1492C117.503 41.9111 118.089 42.4344 118.756 42.4344C119.423 42.4344 120.018 41.9111 120.018 41.1492C120.018 40.3832 119.423 39.854 118.756 39.854C118.089 39.854 117.503 40.3832 117.503 41.1492ZM120.821 41.1492C120.821 42.2879 119.898 43.2051 118.756 43.2051C117.615 43.2051 116.699 42.2879 116.699 41.1492C116.699 40.0066 117.615 39.0815 118.756 39.0815C119.898 39.0815 120.821 40.0066 120.821 41.1492Z" fill="white"/>
<path d="M125.438 41.149C125.438 41.9109 126.034 42.4342 126.7 42.4342C127.367 42.4342 127.953 41.9109 127.953 41.149C127.953 40.383 127.367 39.8621 126.7 39.8621C126.034 39.8621 125.438 40.383 125.438 41.149ZM128.749 41.149C128.749 42.2877 127.905 43.2132 126.764 43.2132C126.226 43.2132 125.752 42.9391 125.495 42.5475V44.6366H124.691V39.1376H125.238L125.285 39.8787C125.582 39.4034 126.129 39.0913 126.764 39.0913C127.905 39.0913 128.749 40.0062 128.749 41.149L128.749 41.149Z" fill="white"/>
<path d="M130.613 40.8419H132.92L132.823 40.448C132.655 40.0802 132.293 39.8142 131.794 39.8142C131.112 39.8142 130.645 40.2973 130.613 40.8419ZM133.571 40.2159C133.723 40.5529 133.74 41.0508 133.642 41.357H130.581C130.581 42.0642 131.119 42.4742 131.834 42.4742C132.3 42.4742 132.751 42.3448 133.128 42.1206L133.563 42.5851C133.121 42.9246 132.534 43.2051 131.834 43.2051C130.597 43.2051 129.754 42.3366 129.754 41.1492C129.754 40.0066 130.541 39.0815 131.786 39.0815C132.654 39.0815 133.274 39.517 133.57 40.2159H133.571Z" fill="white"/>
<path d="M137.173 42.1121C136.867 41.6393 136.722 41.4779 136.249 41.4779H135.798V43.1563H134.995V39.1377H135.798V40.697H136.184C136.666 40.697 136.803 40.5361 137.108 40.0544L137.711 39.1377H138.603L137.783 40.3914C137.558 40.7225 137.349 40.9884 137.132 41.0761C137.39 41.1556 137.606 41.4214 137.839 41.7833L138.74 43.1563H137.848L137.173 42.1121H137.173Z" fill="white"/>
<path d="M140.35 43.1563H139.498L141.354 39.1377H141.853L143.709 43.1563H142.865L141.604 40.3351L140.35 43.1563Z" fill="white"/>
<path d="M147.602 41.1492C147.602 40.3832 147.007 39.854 146.34 39.854C145.673 39.854 145.087 40.3832 145.087 41.1492C145.087 41.9111 145.673 42.4344 146.34 42.4344C147.007 42.4344 147.602 41.9111 147.602 41.1492ZM147.795 43.1564L147.747 42.4177C147.45 42.8906 146.903 43.2051 146.267 43.2051C145.127 43.2051 144.283 42.2879 144.283 41.1492C144.283 40.0066 145.127 39.0815 146.267 39.0815C146.903 39.0815 147.45 39.4037 147.747 39.879L147.795 39.1379H148.341V43.1565H147.795V43.1564Z" fill="white"/>
<path d="M153.241 43.1563V40.4567L151.939 41.9448L150.636 40.4567V43.1563H149.834V39.1377H150.34L151.939 40.9711L153.538 39.1377H154.045V43.1563H153.241Z" fill="white"/>
<path d="M159.583 43.1559V39.1373H160.387V43.1559H159.583ZM157.59 42.4089C158.169 42.4089 158.338 42.1117 158.338 41.758C158.338 41.4127 158.169 41.1154 157.59 41.1154H156.344V42.4089H157.59ZM157.503 40.3679C158.827 40.3679 159.141 41.1386 159.141 41.758C159.141 42.3858 158.827 43.1558 157.503 43.1558H155.541V39.1372H156.344V40.3679H157.503Z" fill="white"/>
</svg>
