<svg width="271" height="303" viewBox="0 0 271 303" fill="none" xmlns="http://www.w3.org/2000/svg">
<path d="M244.305 102.246C242.828 93.7649 237.274 69.5037 234.63 62.4853C231.971 55.467 223.522 44.3854 219.106 42.3464C214.689 40.2926 199.844 34.5154 190.716 31.0136C181.587 27.4971 175.768 25.0148 169.874 22.0893L124.069 21.2175L78.2498 22.0745C72.3562 25 66.5364 27.4823 57.408 30.9989C48.2795 34.5154 33.4347 40.2926 29.0182 42.3316C24.6017 44.3854 16.1527 55.4522 13.4939 62.4706C10.8351 69.5037 5.28124 93.7502 3.81892 102.246C2.34182 110.727 -0.582831 121.838 2.07594 122.71L1.01243 129.137C1.01243 129.137 12.8883 136.244 39.2101 139.761L40.0078 134.693C40.0078 134.693 43.1392 131.575 43.7301 130.408C44.3209 129.241 47.4671 120.272 47.4671 120.272C47.4671 120.272 44.897 148.153 45.4878 162.19C46.0786 176.227 45.6798 218.351 45.3844 228C45.089 237.648 43.4642 296.735 43.4642 296.735C43.4642 296.735 58.0579 302.586 124.055 302.586C190.051 302.586 204.645 296.735 204.645 296.735C204.645 296.735 203.02 237.648 202.725 228C202.429 218.351 202.03 176.227 202.621 162.19C203.212 148.153 200.642 120.272 200.642 120.272C200.642 120.272 203.788 129.241 204.379 130.408C204.97 131.575 208.101 134.693 208.101 134.693L208.899 139.761C235.221 136.244 247.097 129.137 247.097 129.137L246.033 122.71C248.692 121.824 245.767 110.727 244.305 102.246Z" fill="white" stroke="black" stroke-width="0.5669" stroke-miterlimit="22.9256"/>
<path d="M123.141 0.413574C108.518 0.413574 92.9196 2.48214 91.1766 4.22564L82.9492 21.8675L100.881 39.8788C102.255 38.7411 104.086 38.0171 106.391 38.0171C114.648 38.0171 116.967 47.2222 113.363 52.4084L121.487 60.5792L157.055 24.7044V4.24041C146.538 2.48214 137.764 0.413574 123.141 0.413574Z" fill="white" stroke="black" stroke-width="0.5669" stroke-miterlimit="22.9256"/>
<path d="M129.475 44.607C129.962 44.1785 130.509 43.8091 131.114 43.5284C139.105 39.9527 145.634 34.0721 153.064 29.5508C154.379 28.753 155.723 27.9699 157.052 27.2015V20.065C146.52 18.3067 137.746 14.7754 123.138 14.7754C108.515 14.7754 92.9165 18.3215 91.1736 20.065L83.4336 33.688H114.556V44.607H129.475Z" fill="#E0E0E0" stroke="black" stroke-width="0.5669" stroke-miterlimit="22.9256"/>
<path d="M129.475 44.607C129.962 44.1785 130.509 43.8091 131.114 43.5284C139.105 39.9527 145.634 34.0721 153.064 29.5508C154.379 28.753 155.723 27.9699 157.052 27.2015V20.065C146.52 18.3067 137.746 14.7754 123.138 14.7754C108.515 14.7754 92.9165 18.3215 91.1736 20.065L83.4336 33.688H114.556V44.607H129.475Z" stroke="black" stroke-width="1.0001" stroke-miterlimit="10"/>
<path d="M111.842 32.1218C111.842 32.1218 115.549 33.0969 119.242 31.25C119.242 31.25 124.781 37.5887 124.057 49.2908C123.334 60.993 113.112 68.7796 113.112 68.7796C113.112 68.7796 115.727 49.0987 103.836 36.4214L111.842 32.1218Z" fill="black" stroke="black" stroke-width="0.5669" stroke-miterlimit="22.9256"/>
<path d="M136.39 31.9297C136.39 31.9297 121.958 38.2092 116.508 50.8866C111.057 63.5639 113.775 80.9546 113.775 80.9546H132.49C132.49 80.9546 128.472 49.1431 142.667 40.0266L136.39 31.9297Z" fill="black" stroke="black" stroke-width="0.5669" stroke-miterlimit="22.9256"/>
<path d="M47.4672 120.257C47.4672 120.257 47.4081 119.947 47.3047 119.371C47.1718 118.794 46.9354 117.982 46.5957 116.948C45.9162 114.864 44.7345 111.983 43.3904 108.481C42.7257 106.723 42.0019 104.832 41.2929 102.778C40.6134 100.739 39.8897 98.5373 39.5795 96.1437C38.9296 91.4746 38.4126 86.5101 37.7922 81.5603C37.5115 79.078 37.2161 76.5958 36.8912 74.1726C36.5514 71.7494 36.1822 69.3558 35.6504 67.1247C35.5175 66.5632 35.3402 66.0313 35.1777 65.529C34.9709 64.9823 34.7789 64.4503 34.5574 63.9628C34.1438 62.9433 33.6711 61.9533 33.2132 60.9781C32.2826 59.0425 31.4111 57.1956 30.6135 55.5112C29.0182 52.0981 27.999 49.0987 27.5411 46.9562C27.4082 46.4243 27.3344 45.9367 27.29 45.5082C27.231 45.0797 27.1866 44.7251 27.2014 44.4296C27.1866 43.8386 27.1719 43.5283 27.1719 43.5283C27.1719 43.5283 27.2014 43.8386 27.2753 44.4148C27.3491 44.9911 27.5116 45.8333 27.8218 46.8823C28.3831 48.9952 29.6682 51.8321 31.3668 55.1566C32.2383 56.8114 33.1837 58.614 34.1881 60.5053C35.163 62.4409 36.3003 64.406 36.8912 66.8144C37.482 69.1342 37.8808 71.5278 38.2649 73.9805C38.6341 76.4185 38.9591 78.9007 39.2693 81.383C39.8306 86.3623 40.2885 91.3417 40.8646 95.9664C41.16 98.227 41.736 100.399 42.3417 102.438C42.9473 104.492 43.5972 106.413 44.188 108.186C45.3992 111.732 46.3298 114.731 46.8911 116.844C47.1718 117.908 47.3195 118.765 47.4081 119.341C47.4376 119.947 47.4672 120.257 47.4672 120.257Z" fill="black"/>
<path d="M200.656 120.257C200.656 120.257 200.656 119.947 200.671 119.356C200.701 118.78 200.789 117.893 201.055 116.829C201.528 114.672 202.547 111.688 203.921 108.186C204.6 106.427 205.353 104.536 206.062 102.527C206.757 100.503 207.466 98.3749 207.746 96.1142C208.337 91.4748 208.78 86.4807 209.342 81.5013C209.652 79.0043 209.977 76.522 210.346 74.0693C210.73 71.6166 211.129 69.2082 211.705 66.8884C211.838 66.2974 212.045 65.7359 212.237 65.1449C212.443 64.613 212.65 64.0811 212.916 63.5492C213.404 62.4853 213.906 61.5102 214.408 60.5497C215.412 58.6437 216.358 56.8411 217.229 55.1863C218.928 51.8618 220.213 49.0101 220.789 46.8972C220.952 46.3801 221.07 45.9073 221.144 45.4936C221.232 45.0799 221.306 44.7252 221.336 44.4297C221.409 43.8535 221.439 43.5432 221.439 43.5432C221.439 43.5432 221.424 43.8535 221.409 44.4445C221.409 44.74 221.365 45.0946 221.306 45.5231C221.262 45.9516 221.188 46.4392 221.055 46.9711C220.597 49.1283 219.563 52.1425 217.968 55.5556C217.155 57.2548 216.284 59.1018 215.353 61.0373C214.895 62.0125 214.423 63.0173 214.009 64.022C213.802 64.5243 213.596 65.0563 213.389 65.603C213.241 66.1053 213.049 66.652 212.931 67.2135C212.399 69.4446 212.03 71.853 211.69 74.2761C211.35 76.7141 211.07 79.1964 210.789 81.6786C210.154 86.6432 209.652 91.6225 208.987 96.3063C208.677 98.7295 207.82 100.901 207.037 102.911C206.24 104.92 205.398 106.782 204.659 108.511C203.921 110.24 203.212 111.806 202.636 113.209C202.059 114.613 201.602 115.869 201.291 116.903C200.981 117.952 200.804 118.78 200.715 119.371C200.686 119.947 200.656 120.257 200.656 120.257Z" fill="black"/>
<path d="M78.25 22.0747C78.25 22.0747 82.4006 18.0853 84.5424 14.1846C86.6842 10.2839 89.2248 4.4328 90.9826 4.24072C90.9826 4.24072 94.2913 25.4878 111.839 32.122C111.839 32.122 102.622 43.8241 95.0446 50.8425C95.0446 50.8425 80.1407 41.0907 78.25 22.0747Z" fill="white" stroke="black" stroke-width="0.5669" stroke-miterlimit="22.9256"/>
<path d="M169.98 22.0747C169.98 22.0747 165.829 18.0853 163.687 14.1846C161.546 10.2839 159.005 4.4328 157.247 4.24072C157.247 4.24072 153.939 25.4878 136.391 32.122C136.391 32.122 145.608 43.8241 153.185 50.8425C153.185 50.8425 168.089 41.0907 169.98 22.0747Z" fill="white" stroke="black" stroke-width="0.5669" stroke-miterlimit="22.9256"/>
<path d="M125.194 70.7005C125.194 72.2815 123.923 73.5522 122.343 73.5522C120.762 73.5522 119.492 72.2815 119.492 70.7005C119.492 69.1196 120.762 67.8489 122.343 67.8489C123.923 67.8489 125.194 69.1343 125.194 70.7005Z" fill="white" stroke="black" stroke-width="0.5669" stroke-miterlimit="22.9256"/>
<path d="M121.898 70.7005C121.898 70.996 121.647 71.2472 121.351 71.2472C121.056 71.2472 120.805 70.996 120.805 70.7005C120.805 70.3902 121.056 70.1538 121.351 70.1538C121.647 70.1538 121.898 70.405 121.898 70.7005Z" fill="#737373" stroke="black" stroke-width="0.5669" stroke-miterlimit="22.9256"/>
<path d="M123.937 70.7005C123.937 70.996 123.686 71.2472 123.39 71.2472C123.095 71.2472 122.844 70.996 122.844 70.7005C122.844 70.3902 123.095 70.1538 123.39 70.1538C123.686 70.1538 123.937 70.405 123.937 70.7005Z" fill="#737373" stroke="black" stroke-width="0.5669" stroke-miterlimit="22.9256"/>
<path d="M127.763 54.4918C127.32 55.9103 125.813 56.7081 124.395 56.2649C122.977 55.8216 122.179 54.3145 122.622 52.8961C123.066 51.4776 124.572 50.6798 125.99 51.123C127.408 51.5663 128.206 53.0734 127.763 54.4918Z" fill="white" stroke="black" stroke-width="0.5669" stroke-miterlimit="22.9256"/>
<path d="M124.791 53.561C124.703 53.8418 124.422 53.9895 124.141 53.9009C123.876 53.8122 123.713 53.5315 123.802 53.2507C123.89 52.97 124.171 52.8223 124.452 52.9109C124.717 52.9996 124.88 53.2951 124.791 53.561Z" fill="#737373" stroke="black" stroke-width="0.5669" stroke-miterlimit="22.9256"/>
<path d="M126.64 54.1374C126.552 54.4181 126.271 54.5658 125.99 54.4772C125.71 54.3885 125.562 54.1078 125.651 53.8271C125.739 53.5611 126.02 53.3986 126.301 53.4872C126.566 53.5759 126.729 53.8714 126.64 54.1374Z" fill="#737373" stroke="black" stroke-width="0.5669" stroke-miterlimit="22.9256"/>
<path d="M2.07812 122.71C2.07812 122.71 4.35285 123.774 7.82403 125.207C9.53746 125.961 11.5906 126.714 13.762 127.556C15.9628 128.354 18.2819 129.226 20.66 129.95C21.8417 130.349 23.0233 130.718 24.205 131.043C25.3719 131.398 26.5388 131.723 27.6614 132.018C28.784 132.329 29.8771 132.61 30.9258 132.846C31.9598 133.112 32.9494 133.348 33.8652 133.511C34.781 133.688 35.623 133.88 36.3615 134.028C37.1148 134.161 37.7648 134.264 38.3113 134.368C39.3896 134.575 40.0099 134.693 40.0099 134.693C40.0099 134.693 39.3748 134.678 38.2817 134.663C37.1887 134.634 35.6082 134.589 33.7323 134.338C32.787 134.25 31.7825 134.102 30.7042 133.91C29.626 133.747 28.5034 133.57 27.3512 133.289C25.0322 132.802 22.595 132.137 20.2021 131.354C19.0056 130.969 17.824 130.541 16.6571 130.112C15.4902 129.699 14.3676 129.196 13.2745 128.753C11.1032 127.807 9.13864 126.832 7.45475 125.946C5.77087 125.089 4.44148 124.232 3.51091 123.67C2.58034 123.079 2.07812 122.71 2.07812 122.71Z" fill="black"/>
<path d="M246.05 122.71C246.05 122.71 245.548 123.079 244.617 123.67C243.672 124.232 242.357 125.089 240.673 125.961C239.004 126.832 237.025 127.822 234.868 128.768C233.775 129.211 232.653 129.714 231.486 130.127C230.319 130.556 229.137 130.999 227.941 131.368C225.533 132.151 223.096 132.816 220.792 133.304C219.639 133.585 218.517 133.762 217.439 133.925C216.375 134.102 215.356 134.264 214.41 134.353C212.535 134.604 210.954 134.649 209.861 134.678C208.768 134.708 208.133 134.708 208.133 134.708C208.133 134.708 208.753 134.589 209.831 134.383C210.363 134.294 211.028 134.176 211.781 134.043C212.52 133.88 213.362 133.688 214.278 133.526C215.193 133.363 216.183 133.127 217.217 132.861C218.266 132.61 219.359 132.344 220.481 132.033C221.604 131.738 222.771 131.413 223.938 131.058C225.119 130.733 226.301 130.364 227.483 129.965C229.861 129.241 232.195 128.354 234.381 127.571C236.552 126.729 238.605 125.975 240.319 125.222C243.775 123.774 246.05 122.71 246.05 122.71Z" fill="black"/>
<path d="M192 121L198 126.201L192 131L192 121Z" fill="#E65420"/>
<path d="M54 121L48 126.201L54 131L54 121Z" fill="#E65420"/>
<path d="M67 292L72.2011 298L77 292H67Z" fill="#E65420"/>
<path d="M67 34L72.2011 28L77 34H67Z" fill="#E65420"/>
<path d="M72 33L72 239" stroke="#E65420" stroke-width="2" stroke-miterlimit="10"/>
<path d="M72 269L72 293" stroke="#E65420" stroke-width="2" stroke-miterlimit="10"/>
<path d="M112 126H53" stroke="#E65420" stroke-width="2" stroke-miterlimit="10"/>
<path d="M192 126H133" stroke="#E65420" stroke-width="2" stroke-miterlimit="10"/>
<path d="M120.448 130.232L118.912 134H116.056L122.992 117.2H124.504L131.368 134H128.512L127 130.232H120.448ZM123.736 121.928L121.36 127.784H126.112L123.736 121.928Z" fill="black"/>
<path d="M65.616 246.2H71.904C72.816 246.2 73.624 246.296 74.328 246.488C75.032 246.68 75.576 246.928 75.96 247.232C76.36 247.52 76.68 247.872 76.92 248.288C77.176 248.688 77.344 249.072 77.424 249.44C77.504 249.808 77.544 250.192 77.544 250.592C77.544 252.432 76.744 253.64 75.144 254.216C76.136 254.424 76.912 254.888 77.472 255.608C78.032 256.328 78.312 257.216 78.312 258.272C78.312 261.424 76.296 263 72.264 263H65.616V246.2ZM68.208 248.648V253.208H72.168C74.104 253.208 75.072 252.448 75.072 250.928C75.072 249.408 74.104 248.648 72.168 248.648H68.208ZM68.208 255.44V260.552H72.792C74.824 260.552 75.84 259.704 75.84 258.008C75.84 257.24 75.584 256.624 75.072 256.16C74.576 255.68 73.816 255.44 72.792 255.44H68.208Z" fill="black"/>
<path d="M244.621 43.24L237.301 40.1634L235.655 47.6681L244.621 43.24Z" fill="#E65420"/>
<path d="M263.623 115.771L256.496 89.0001" stroke="#E65420" stroke-width="2" stroke-miterlimit="10"/>
<path d="M261.91 77.5814C262.588 79.9837 262.268 82.2683 260.951 84.4353L258.993 83.242C259.867 81.6823 260.054 80.017 259.554 78.2461C259.098 76.6292 258.151 75.425 256.714 74.6334C255.297 73.8529 253.742 73.7016 252.048 74.1795C250.339 74.6617 249.084 75.6059 248.283 77.012C247.488 78.4335 247.318 79.9527 247.774 81.5696C248.282 83.3713 249.312 84.6934 250.863 85.5359L249.818 87.5763C247.562 86.4172 246.096 84.6365 245.418 82.2343C244.775 79.9553 245.028 77.7891 246.178 75.7358C247.343 73.6781 249.065 72.3278 251.344 71.6848C253.623 71.0419 255.789 71.2952 257.843 72.4449C259.911 73.5902 261.267 75.3024 261.91 77.5814Z" fill="black"/>
<path d="M249.5 67.5L239.736 44.3186" stroke="#E65420" stroke-width="2" stroke-miterlimit="10"/>
<path d="M268.387 113.615L265.216 120.895L258.843 116.603L268.387 113.615Z" fill="#E65420"/>
</svg>
