<svg width="604" height="246" viewBox="0 0 604 246" fill="none" xmlns="http://www.w3.org/2000/svg">
<path d="M55.8411 46.0739L159.41 56.103L155.11 207.392L8.15412 188.731L1.41992 188.144L55.8411 46.0739Z" fill="white" stroke="#010202" stroke-miterlimit="10"/>
<path d="M1.74414 205.953L10.6284 189.177L155.718 207.311L1.74414 205.953Z" fill="white" stroke="#010202" stroke-miterlimit="10"/>
<path d="M1.35938 211.505H155.11V207.392H1.35938V209.357V211.505Z" fill="white" stroke="#010202" stroke-miterlimit="10"/>
<path d="M1.35938 215.983L155.293 216.509L155.11 211.505H1.35938V215.983Z" fill="white" stroke="#010202" stroke-miterlimit="10"/>
<path d="M1.35938 220.257L155.293 220.987V216.509L1.35938 215.982V220.257Z" fill="white" stroke="#010202" stroke-miterlimit="10"/>
<path d="M270.16 46.0739L166.592 56.103L170.892 207.392L317.847 188.731L324.582 188.144L270.16 46.0739Z" fill="white" stroke="#010202" stroke-miterlimit="10"/>
<path d="M324.257 205.953L315.373 189.177L170.283 207.311L324.257 205.953Z" fill="white" stroke="#010202" stroke-miterlimit="10"/>
<path d="M324.641 211.505H170.891V207.392H324.641V209.357V211.505Z" fill="white" stroke="#010202" stroke-miterlimit="10"/>
<path d="M324.642 215.983L170.709 216.509L170.892 211.505H324.642V215.983Z" fill="white" stroke="#010202" stroke-miterlimit="10"/>
<path d="M324.642 220.257L170.709 220.987V216.509L324.642 215.982V220.257Z" fill="white" stroke="#010202" stroke-miterlimit="10"/>
<path d="M174.906 70.9746C179.551 52.9828 144.562 52.5371 147.726 68.9485" stroke="#010202" stroke-width="2" stroke-miterlimit="10"/>
<path d="M174.906 88.6827C179.551 70.691 144.562 70.2452 147.726 86.6566" stroke="#010202" stroke-width="2" stroke-miterlimit="10"/>
<path d="M174.906 104.952C179.551 86.9605 144.562 86.5148 147.726 102.926" stroke="#010202" stroke-width="2" stroke-miterlimit="10"/>
<path d="M176.65 124.079C181.883 103.777 142.391 103.271 145.981 121.789" stroke="#010202" stroke-width="2" stroke-miterlimit="10"/>
<path d="M177.501 142.01C183.039 120.553 141.295 120.006 145.068 139.578" stroke="#010202" stroke-width="2" stroke-miterlimit="10"/>
<path d="M177.501 160.792C183.039 139.335 141.295 138.788 145.068 158.36" stroke="#010202" stroke-width="2" stroke-miterlimit="10"/>
<path d="M179.936 178.662C186.305 157.59 138.253 157.063 142.614 176.271" stroke="#010202" stroke-width="2" stroke-miterlimit="10"/>
<path d="M179.936 196.532C186.305 175.461 138.253 174.934 142.614 194.141" stroke="#010202" stroke-width="2" stroke-miterlimit="10"/>
<path d="M60 112C72.6521 73.0698 149.9 31.4689 205.195 56.6962C260.489 81.9235 265 111.943 265 111.943" stroke="#E25D23" stroke-width="3" stroke-miterlimit="10"/>
<path d="M55 111.025L60.1882 117L65 111L55 111.025Z" fill="#E25D23"/>
<path d="M260 111.025L265.188 117L270 111L260 111.025Z" fill="#E25D23"/>
<path d="M73.712 3.2L79.016 3.2C81.192 3.2 82.96 3.752 84.32 4.856C85.68 5.96 86.36 7.464 86.36 9.368C86.36 11.272 85.68 12.776 84.32 13.88C82.96 14.984 81.192 15.536 79.016 15.536H75.584V20H73.712V3.2ZM75.584 13.784H79.136C80.704 13.784 82 13.416 83.024 12.68C84.064 11.944 84.584 10.84 84.584 9.368C84.584 7.912 84.064 6.816 83.024 6.08C82 5.328 80.704 4.952 79.136 4.952H75.584V13.784ZM101.087 20H99.8388L99.7668 17.288C99.3028 18.152 98.6388 18.848 97.7748 19.376C96.9108 19.888 95.9508 20.144 94.8948 20.144C93.1988 20.144 91.7748 19.552 90.6228 18.368C89.4708 17.168 88.8948 15.712 88.8948 14C88.8948 12.288 89.4708 10.832 90.6228 9.632C91.7748 8.432 93.1988 7.832 94.8948 7.832C95.9348 7.832 96.8868 8.096 97.7508 8.624C98.6308 9.136 99.3028 9.824 99.7668 10.688L99.8388 8H101.087V20ZM91.8948 17.192C92.7588 18.04 93.7988 18.464 95.0148 18.464C96.2308 18.464 97.2708 18.04 98.1348 17.192C98.9988 16.344 99.4308 15.28 99.4308 14C99.4308 12.72 98.9988 11.656 98.1348 10.808C97.2708 9.944 96.2308 9.512 95.0148 9.512C93.8148 9.512 92.7828 9.944 91.9188 10.808C91.0548 11.656 90.6228 12.72 90.6228 14C90.6228 15.28 91.0468 16.344 91.8948 17.192ZM110.976 7.832C112.896 7.832 114.472 8.576 115.704 10.064L114.648 11.192C113.624 10.072 112.4 9.512 110.976 9.512C109.76 9.512 108.72 9.944 107.856 10.808C107.008 11.656 106.584 12.72 106.584 14C106.584 15.28 107.008 16.344 107.856 17.192C108.72 18.04 109.76 18.464 110.976 18.464C112.416 18.464 113.64 17.912 114.648 16.808L115.704 17.936C114.472 19.408 112.896 20.144 110.976 20.144C109.264 20.144 107.808 19.544 106.608 18.344C105.424 17.144 104.832 15.696 104.832 14C104.832 12.288 105.432 10.832 106.632 9.632C107.832 8.432 109.28 7.832 110.976 7.832ZM128.262 20L126.294 16.976C125.686 16.032 125.19 15.408 124.806 15.104C124.438 14.8 123.846 14.648 123.03 14.648H121.206V20H119.454V8L121.206 8V12.968H122.766C123.582 12.968 124.174 12.816 124.542 12.512C124.926 12.208 125.422 11.584 126.03 10.64L127.758 8H129.726L127.47 11.408C127.006 12.112 126.614 12.64 126.294 12.992C125.99 13.344 125.662 13.6 125.31 13.76C125.742 13.888 126.126 14.136 126.462 14.504C126.814 14.872 127.238 15.44 127.734 16.208L130.206 20H128.262ZM139.544 7.832C141.24 7.832 142.664 8.432 143.816 9.632C144.968 10.832 145.544 12.288 145.544 14C145.544 15.712 144.968 17.168 143.816 18.368C142.664 19.552 141.24 20.144 139.544 20.144C138.584 20.144 137.704 19.912 136.904 19.448C136.12 18.968 135.52 18.336 135.104 17.552V24.416H133.352V8H134.6L134.672 10.712C135.136 9.848 135.8 9.152 136.664 8.624C137.528 8.096 138.488 7.832 139.544 7.832ZM139.4 9.512C138.184 9.512 137.144 9.944 136.28 10.808C135.416 11.656 134.984 12.72 134.984 14C134.984 15.28 135.416 16.352 136.28 17.216C137.144 18.064 138.184 18.488 139.4 18.488C140.6 18.488 141.632 18.064 142.496 17.216C143.36 16.352 143.792 15.28 143.792 14C143.792 12.72 143.36 11.656 142.496 10.808C141.632 9.944 140.6 9.512 139.4 9.512ZM151.039 11.888H155.167C156.879 11.888 158.095 12.28 158.815 13.064C159.551 13.848 159.919 14.8 159.919 15.92C159.919 16.448 159.839 16.936 159.679 17.384C159.535 17.832 159.295 18.264 158.959 18.68C158.623 19.08 158.127 19.4 157.471 19.64C156.831 19.88 156.063 20 155.167 20H149.287V8L151.039 8V11.888ZM163.159 20H161.407V8H163.159V20ZM151.015 18.368H155.311C157.215 18.368 158.167 17.552 158.167 15.92C158.167 14.32 157.215 13.52 155.311 13.52H151.015V18.368ZM172.367 9.656V20H170.615V9.656L166.223 9.656V8H176.759V9.656H172.367ZM190.649 20H188.921V10.928L180.929 20H179.873V8H181.625V17.072L189.617 8H190.649V20ZM200.483 7.832C201.779 7.832 202.891 8.144 203.819 8.768C204.747 9.392 205.435 10.248 205.883 11.336C206.075 11.8 206.187 12.336 206.219 12.944C206.267 13.552 206.227 14.04 206.099 14.408H196.163C196.163 15.672 196.579 16.68 197.411 17.432C198.259 18.168 199.347 18.544 200.675 18.56C202.195 18.56 203.579 18.128 204.827 17.264L205.763 18.32C204.211 19.536 202.515 20.144 200.675 20.144C198.819 20.128 197.307 19.552 196.139 18.416C194.971 17.28 194.387 15.808 194.387 14C194.387 12.256 194.947 10.792 196.067 9.608C197.203 8.424 198.675 7.832 200.483 7.832ZM200.483 9.44C199.299 9.44 198.307 9.808 197.507 10.544C196.723 11.28 196.299 12.176 196.235 13.232H204.515C204.547 12.816 204.459 12.36 204.251 11.864C203.947 11.128 203.467 10.544 202.811 10.112C202.155 9.664 201.379 9.44 200.483 9.44ZM221.781 20H219.909V6.992L217.797 9.536L216.549 8.576L220.725 3.56H221.781V20ZM234.26 11.216C235.284 11.504 236.1 12.016 236.708 12.752C237.332 13.472 237.644 14.352 237.644 15.392C237.644 16.832 237.116 17.984 236.06 18.848C235.004 19.712 233.596 20.152 231.836 20.168H231.716C229.924 20.168 228.492 19.736 227.42 18.872C226.364 18.008 225.836 16.848 225.836 15.392C225.836 14.352 226.14 13.472 226.748 12.752C227.356 12.016 228.172 11.504 229.196 11.216C227.372 10.576 226.46 9.344 226.46 7.52C226.46 6.288 226.94 5.288 227.9 4.52C228.876 3.736 230.132 3.344 231.668 3.344H231.884C233.404 3.376 234.636 3.776 235.58 4.544C236.524 5.312 236.996 6.304 236.996 7.52C236.996 9.344 236.084 10.576 234.26 11.216ZM229.244 5.744C228.588 6.208 228.26 6.904 228.26 7.832C228.26 8.76 228.588 9.456 229.244 9.92C229.916 10.384 230.748 10.616 231.74 10.616C232.732 10.616 233.556 10.384 234.212 9.92C234.884 9.456 235.22 8.76 235.22 7.832C235.22 6.904 234.884 6.208 234.212 5.744C233.54 5.264 232.716 5.024 231.74 5.024C230.748 5.024 229.916 5.264 229.244 5.744ZM231.74 18.44C232.94 18.44 233.924 18.144 234.692 17.552C235.46 16.96 235.844 16.144 235.844 15.104C235.844 14.064 235.468 13.256 234.716 12.68C233.98 12.104 232.988 11.8 231.74 11.768C231.324 11.768 230.9 11.816 230.468 11.912C230.052 12.008 229.612 12.176 229.148 12.416C228.7 12.64 228.332 12.984 228.044 13.448C227.772 13.912 227.636 14.464 227.636 15.104C227.636 16.144 228.012 16.96 228.764 17.552C229.532 18.144 230.524 18.44 231.74 18.44ZM243.127 5.84C244.759 4.192 246.735 3.368 249.055 3.368C251.375 3.368 253.359 4.192 255.007 5.84C256.655 7.472 257.479 9.448 257.479 11.768C257.479 14.088 256.655 16.072 255.007 17.72C253.375 19.352 251.391 20.168 249.055 20.168C246.735 20.168 244.759 19.352 243.127 17.72C241.495 16.072 240.679 14.088 240.679 11.768C240.679 9.448 241.495 7.472 243.127 5.84ZM253.687 7.04C252.439 5.776 250.903 5.144 249.079 5.144C247.255 5.144 245.711 5.776 244.447 7.04C243.199 8.304 242.575 9.88 242.575 11.768C242.575 13.656 243.199 15.232 244.447 16.496C245.711 17.76 247.255 18.392 249.079 18.392C250.903 18.392 252.439 17.76 253.687 16.496C254.951 15.232 255.583 13.656 255.583 11.768C255.583 9.88 254.951 8.304 253.687 7.04Z" fill="#2B2A29"/>
<path d="M340.25 88.386L448.51 23.0236L573.206 143.058L456.736 221.044L340.25 88.386Z" fill="white" stroke="#010202" stroke-miterlimit="10"/>
<path d="M340.25 92.8378L456.736 225.48L602.047 205.593" stroke="#010202" stroke-miterlimit="10"/>
<path d="M456.736 221.044L601.527 200.784L557.778 153.391" fill="white"/>
<path d="M456.736 221.044L601.527 200.784L557.778 153.391" stroke="#010202" stroke-miterlimit="10"/>
<path d="M339.959 97.7769L457.876 230.988L602.65 209.996" stroke="#010202" stroke-miterlimit="10"/>
<path d="M340.25 102.911L458.59 235.716L603.153 215.179" stroke="#010202" stroke-miterlimit="10"/>
<path d="M340.25 107.834L458.736 240.297L603.153 219.615" stroke="#010202" stroke-miterlimit="10"/>
<path d="M340.25 112.659L457.972 245.123L603.868 223.66" stroke="#010202" stroke-miterlimit="10"/>
<path d="M602 201L603.5 224" stroke="#010202" stroke-miterlimit="10"/>
<path d="M340.365 113.244L339.828 88.191" stroke="#010202" stroke-miterlimit="10"/>
<path d="M355.013 128.89C331.732 127.542 346.25 98.2968 358.297 100.88" stroke="#010202" stroke-width="2" stroke-miterlimit="10"/>
<path d="M371.077 147.347C347.812 148.923 360.818 116.445 374.783 120.409" stroke="#010202" stroke-width="2" stroke-miterlimit="10"/>
<path d="M387.543 165.885C364.279 167.461 377.204 135.487 391.153 139.451" stroke="#010202" stroke-width="2" stroke-miterlimit="10"/>
<path d="M403.901 185.106C380.636 186.682 393.317 154.707 407.266 158.671" stroke="#010202" stroke-width="2" stroke-miterlimit="10"/>
<path d="M420.53 202.994C397.266 204.57 409.41 173.131 423.359 177.096" stroke="#010202" stroke-width="2" stroke-miterlimit="10"/>
<path d="M437.081 221.613C413.816 223.189 426.449 192.531 440.414 196.479" stroke="#010202" stroke-width="2" stroke-miterlimit="10"/>
<path d="M452.169 237.925C428.905 239.501 442.773 207.592 456.722 211.54" stroke="#010202" stroke-width="2" stroke-miterlimit="10"/>
<path d="M262.881 2.51C263.629 1.75467 264.535 1.377 265.598 1.377C266.661 1.377 267.571 1.75467 268.326 2.51C269.081 3.258 269.459 4.16367 269.459 5.227C269.459 6.29033 269.081 7.19967 268.326 7.955C267.578 8.703 266.669 9.077 265.598 9.077C264.535 9.077 263.629 8.703 262.881 7.955C262.133 7.19967 261.759 6.29033 261.759 5.227C261.759 4.16367 262.133 3.258 262.881 2.51ZM267.721 3.06C267.149 2.48067 266.445 2.191 265.609 2.191C264.773 2.191 264.065 2.48067 263.486 3.06C262.914 3.63933 262.628 4.36167 262.628 5.227C262.628 6.09233 262.914 6.81467 263.486 7.394C264.065 7.97333 264.773 8.263 265.609 8.263C266.445 8.263 267.149 7.97333 267.721 7.394C268.3 6.81467 268.59 6.09233 268.59 5.227C268.59 4.36167 268.3 3.63933 267.721 3.06Z" fill="#2B2A29"/>
</svg>
