<svg width="522" height="467" viewBox="0 0 522 467" fill="none" xmlns="http://www.w3.org/2000/svg">
<path d="M517.8 134.582L517.8 138.138C517.8 140.303 516.96 141.386 515.28 141.386C514.179 141.386 513.465 140.891 513.138 139.902C513.017 140.537 512.741 141.027 512.312 141.372C511.883 141.727 511.351 141.904 510.716 141.904C508.905 141.904 508 140.765 508 138.488L508 134.582L517.8 134.582ZM516.778 135.674L513.544 135.674L513.544 138.236C513.544 139.645 514.081 140.35 515.154 140.35C515.649 140.35 516.041 140.201 516.33 139.902C516.629 139.613 516.778 139.057 516.778 138.236L516.778 135.674ZM512.606 135.674L509.022 135.674L509.022 138.684C509.022 140.14 509.619 140.868 510.814 140.868C511.365 140.868 511.799 140.686 512.116 140.322C512.443 139.958 512.606 139.412 512.606 138.684L512.606 135.674ZM512.732 145.017L512.732 147.425C512.732 148.424 512.503 149.133 512.046 149.553C511.589 149.983 511.033 150.197 510.38 150.197C510.072 150.197 509.787 150.151 509.526 150.057C509.265 149.973 509.013 149.833 508.77 149.637C508.537 149.441 508.35 149.152 508.21 148.769C508.07 148.396 508 147.948 508 147.425L508 143.995L515 143.995L515 145.017L512.732 145.017ZM508 152.087L508 151.065L515 151.065L515 152.087L508 152.087ZM508.952 145.003L508.952 147.509C508.952 148.62 509.428 149.175 510.38 149.175C511.313 149.175 511.78 148.62 511.78 147.509L511.78 145.003L508.952 145.003ZM515.098 157.837C515.098 158.957 514.664 159.876 513.796 160.595L513.138 159.979C513.791 159.382 514.118 158.668 514.118 157.837C514.118 157.128 513.866 156.521 513.362 156.017C512.867 155.522 512.247 155.275 511.5 155.275C510.753 155.275 510.133 155.522 509.638 156.017C509.143 156.521 508.896 157.128 508.896 157.837C508.896 158.677 509.218 159.391 509.862 159.979L509.204 160.595C508.345 159.876 507.916 158.957 507.916 157.837C507.916 156.838 508.266 155.989 508.966 155.289C509.666 154.598 510.511 154.253 511.5 154.253C512.499 154.253 513.348 154.603 514.048 155.303C514.748 156.003 515.098 156.848 515.098 157.837ZM515.098 165.876C515.098 166.875 514.743 167.724 514.034 168.424C513.334 169.124 512.489 169.474 511.5 169.474C510.511 169.474 509.666 169.124 508.966 168.424C508.266 167.724 507.916 166.875 507.916 165.876C507.916 164.877 508.266 164.028 508.966 163.328C509.666 162.637 510.511 162.292 511.5 162.292C512.499 162.292 513.348 162.642 514.048 163.342C514.748 164.042 515.098 164.887 515.098 165.876ZM514.118 165.862C514.118 165.162 513.866 164.56 513.362 164.056C512.867 163.552 512.247 163.3 511.5 163.3C510.753 163.3 510.133 163.547 509.638 164.042C509.143 164.546 508.896 165.153 508.896 165.862C508.896 166.571 509.143 167.178 509.638 167.682C510.133 168.186 510.753 168.438 511.5 168.438C512.247 168.438 512.867 168.186 513.362 167.682C513.866 167.178 514.118 166.571 514.118 165.862ZM514.034 174.248L508 174.248L508 173.226L514.034 173.226L514.034 170.664L515 170.664L515 176.81L514.034 176.81L514.034 174.248ZM508 185.14L508 184.412L509.582 184.37C509.078 184.1 508.672 183.712 508.364 183.208C508.065 182.704 507.916 182.144 507.916 181.528C507.916 180.539 508.261 179.708 508.952 179.036C509.652 178.364 510.501 178.028 511.5 178.028C512.499 178.028 513.348 178.364 514.048 179.036C514.748 179.708 515.098 180.539 515.098 181.528C515.098 182.135 514.944 182.69 514.636 183.194C514.337 183.708 513.936 184.1 513.432 184.37L515 184.412L515 185.14L508 185.14ZM509.638 179.778C509.143 180.282 508.896 180.889 508.896 181.598C508.896 182.308 509.143 182.914 509.638 183.418C510.133 183.922 510.753 184.174 511.5 184.174C512.247 184.174 512.867 183.922 513.362 183.418C513.866 182.914 514.118 182.308 514.118 181.598C514.118 180.898 513.866 180.296 513.362 179.792C512.867 179.288 512.247 179.036 511.5 179.036C510.753 179.036 510.133 179.284 509.638 179.778ZM512.424 195.044L512.424 197.578L511.752 197.578L511.752 195.044L509.19 195.044L509.19 194.316L511.752 194.316L511.752 191.782L512.424 191.782L512.424 194.316L514.986 194.316L514.986 195.044L512.424 195.044ZM517.8 204.5L517.8 208.056C517.8 210.221 516.96 211.304 515.28 211.304C514.179 211.304 513.465 210.809 513.138 209.82C513.017 210.455 512.741 210.945 512.312 211.29C511.883 211.645 511.351 211.822 510.716 211.822C508.905 211.822 508 210.683 508 208.406L508 204.5L517.8 204.5ZM516.778 205.592L513.544 205.592L513.544 208.154C513.544 209.563 514.081 210.268 515.154 210.268C515.649 210.268 516.041 210.119 516.33 209.82C516.629 209.531 516.778 208.975 516.778 208.154L516.778 205.592ZM512.606 205.592L509.022 205.592L509.022 208.602C509.022 210.058 509.619 210.786 510.814 210.786C511.365 210.786 511.799 210.604 512.116 210.24C512.443 209.876 512.606 209.33 512.606 208.602L512.606 205.592ZM512.732 214.935L512.732 217.343C512.732 218.342 512.503 219.051 512.046 219.471C511.589 219.901 511.033 220.115 510.38 220.115C510.072 220.115 509.787 220.069 509.526 219.975C509.265 219.891 509.013 219.751 508.77 219.555C508.537 219.359 508.35 219.07 508.21 218.687C508.07 218.314 508 217.866 508 217.343L508 213.913L515 213.913L515 214.935L512.732 214.935ZM508 222.005L508 220.983L515 220.983L515 222.005L508 222.005ZM508.952 214.921L508.952 217.427C508.952 218.538 509.428 219.093 510.38 219.093C511.313 219.093 511.78 218.538 511.78 217.427L511.78 214.921L508.952 214.921ZM513.432 227.225L508 224.775L508 223.697L515 226.917L515 227.533L508 230.767L508 229.689L513.432 227.225ZM515.098 235.288C515.098 236.044 514.916 236.692 514.552 237.234C514.188 237.775 513.689 238.176 513.054 238.438C512.783 238.55 512.471 238.615 512.116 238.634C511.761 238.662 511.477 238.638 511.262 238.564L511.262 232.768C510.525 232.768 509.937 233.01 509.498 233.496C509.069 233.99 508.849 234.625 508.84 235.4C508.84 236.286 509.092 237.094 509.596 237.822L508.98 238.368C508.271 237.462 507.916 236.473 507.916 235.4C507.925 234.317 508.261 233.435 508.924 232.754C509.587 232.072 510.445 231.732 511.5 231.732C512.517 231.732 513.371 232.058 514.062 232.712C514.753 233.374 515.098 234.233 515.098 235.288ZM514.16 235.288C514.16 234.597 513.945 234.018 513.516 233.552C513.087 233.094 512.564 232.847 511.948 232.81L511.948 237.64C512.191 237.658 512.457 237.607 512.746 237.486C513.175 237.308 513.516 237.028 513.768 236.646C514.029 236.263 514.16 235.81 514.16 235.288ZM514.034 243.469L508 243.469L508 242.447L514.034 242.447L514.034 239.885L515 239.885L515 246.031L514.034 246.031L514.034 243.469ZM518.388 255.44L517.352 255.44C516.857 254.749 516.148 254.166 515.224 253.69C514.309 253.223 513.343 252.985 512.326 252.976L512.172 252.976C511.155 252.976 510.184 253.209 509.26 253.676C508.336 254.152 507.608 254.74 507.076 255.44L506.04 255.44C506.6 254.413 507.435 253.564 508.546 252.892C509.666 252.22 510.875 251.884 512.172 251.884L512.326 251.884C513.605 251.893 514.804 252.234 515.924 252.906C517.044 253.587 517.865 254.432 518.388 255.44ZM516.988 264.174L513.754 260.534C513.829 260.805 513.866 261.174 513.866 261.64C513.81 262.564 513.53 263.274 513.026 263.768C512.522 264.263 511.887 264.51 511.122 264.51C510.189 264.51 509.423 264.198 508.826 263.572C508.229 262.956 507.921 262.112 507.902 261.038L507.902 260.912C507.911 260.044 508.098 259.284 508.462 258.63C508.826 257.977 509.321 257.468 509.946 257.104L510.604 257.818C509.484 258.546 508.924 259.582 508.924 260.926L508.924 261.01C508.943 261.738 509.162 262.331 509.582 262.788C510.011 263.246 510.571 263.474 511.262 263.474C512.578 263.474 513.236 262.639 513.236 260.968C513.236 260.436 513.11 259.9 512.858 259.358L513.278 258.784L516.568 262.494L516.568 257.972L517.59 257.972L517.59 264.174L516.988 264.174ZM508 278.258L508 277.236L513.292 277.236L510.366 274.66L513.292 272.084L508 272.084L508 271.062L515 271.062L515 271.678L511.612 274.66L515 277.642L515 278.258L508 278.258ZM508 288.047L508 287.025L513.292 287.025L510.366 284.449L513.292 281.873L508 281.873L508 280.851L515 280.851L515 281.467L511.612 284.449L515 287.431L515 288.047L508 288.047ZM517.352 290.22L518.388 290.22C517.865 291.228 517.044 292.068 515.924 292.74C514.804 293.421 513.605 293.767 512.326 293.776L512.172 293.776C510.875 293.776 509.666 293.44 508.546 292.768C507.435 292.096 506.6 291.247 506.04 290.22L507.076 290.22C507.608 290.92 508.336 291.503 509.26 291.97C510.184 292.446 511.155 292.684 512.172 292.684L512.326 292.684C513.343 292.675 514.309 292.432 515.224 291.956C516.148 291.489 516.857 290.911 517.352 290.22ZM513.992 304.013L513.586 303.509L515.28 302.291L513.586 301.087L513.992 300.583L515.574 301.899L516.092 299.995L516.694 300.163L516.064 302.039L518.038 301.983L518.038 302.613L516.064 302.557L516.694 304.433L516.092 304.601L515.574 302.697L513.992 304.013ZM508 317.991L508 310.725L508.616 310.725L512.34 315.037C512.872 315.653 513.311 316.083 513.656 316.325C514.001 316.568 514.384 316.689 514.804 316.689C515.373 316.689 515.826 316.47 516.162 316.031C516.498 315.593 516.666 315.065 516.666 314.449L516.68 314.323C516.68 313.259 516.237 312.368 515.35 311.649L516.008 310.935C517.137 311.841 517.702 312.993 517.702 314.393L517.702 314.547C517.693 315.481 517.427 316.251 516.904 316.857C516.391 317.464 515.751 317.767 514.986 317.767C514.37 317.767 513.805 317.581 513.292 317.207C512.779 316.843 512.153 316.218 511.416 315.331L509.022 312.615L509.022 317.991L508 317.991Z" fill="#2F80ED"/>
<path d="M4.2 321.418L4.2 317.862C4.2 315.697 5.04 314.614 6.72 314.614C7.82133 314.614 8.53533 315.109 8.862 316.098C8.98333 315.463 9.25867 314.973 9.688 314.628C10.1173 314.273 10.6493 314.096 11.284 314.096C13.0947 314.096 14 315.235 14 317.512L14 321.418L4.2 321.418ZM5.222 320.326L8.456 320.326L8.456 317.764C8.456 316.355 7.91933 315.65 6.846 315.65C6.35133 315.65 5.95933 315.799 5.67 316.098C5.37133 316.387 5.222 316.943 5.222 317.764L5.222 320.326ZM9.394 320.326L12.978 320.326L12.978 317.316C12.978 315.86 12.3807 315.132 11.186 315.132C10.6353 315.132 10.2013 315.314 9.884 315.678C9.55733 316.042 9.394 316.588 9.394 317.316L9.394 320.326ZM9.268 310.983L9.268 308.575C9.268 307.576 9.49667 306.867 9.954 306.447C10.4113 306.017 10.9667 305.803 11.62 305.803C11.928 305.803 12.2127 305.849 12.474 305.943C12.7353 306.027 12.9873 306.167 13.23 306.363C13.4633 306.559 13.65 306.848 13.79 307.231C13.93 307.604 14 308.052 14 308.575L14 312.005L7 312.005L7 310.983L9.268 310.983ZM14 303.913L14 304.935L7 304.935L7 303.913L14 303.913ZM13.048 310.997L13.048 308.491C13.048 307.38 12.572 306.825 11.62 306.825C10.6867 306.825 10.22 307.38 10.22 308.491L10.22 310.997L13.048 310.997ZM6.902 298.163C6.902 297.043 7.336 296.124 8.204 295.405L8.862 296.021C8.20867 296.618 7.882 297.332 7.882 298.163C7.882 298.872 8.134 299.479 8.638 299.983C9.13267 300.478 9.75333 300.725 10.5 300.725C11.2467 300.725 11.8673 300.478 12.362 299.983C12.8567 299.479 13.104 298.872 13.104 298.163C13.104 297.323 12.782 296.609 12.138 296.021L12.796 295.405C13.6547 296.124 14.084 297.043 14.084 298.163C14.084 299.162 13.734 300.011 13.034 300.711C12.334 301.402 11.4893 301.747 10.5 301.747C9.50133 301.747 8.652 301.397 7.952 300.697C7.252 299.997 6.902 299.152 6.902 298.163ZM6.902 290.124C6.902 289.125 7.25667 288.276 7.966 287.576C8.666 286.876 9.51067 286.526 10.5 286.526C11.4893 286.526 12.334 286.876 13.034 287.576C13.734 288.276 14.084 289.125 14.084 290.124C14.084 291.123 13.734 291.972 13.034 292.672C12.334 293.363 11.4893 293.708 10.5 293.708C9.50133 293.708 8.652 293.358 7.952 292.658C7.252 291.958 6.902 291.113 6.902 290.124ZM7.882 290.138C7.882 290.838 8.134 291.44 8.638 291.944C9.13267 292.448 9.75333 292.7 10.5 292.7C11.2467 292.7 11.8673 292.453 12.362 291.958C12.8567 291.454 13.104 290.847 13.104 290.138C13.104 289.429 12.8567 288.822 12.362 288.318C11.8673 287.814 11.2467 287.562 10.5 287.562C9.75333 287.562 9.13267 287.814 8.638 288.318C8.134 288.822 7.882 289.429 7.882 290.138ZM7.966 281.752L14 281.752L14 282.774L7.966 282.774L7.966 285.336L7 285.336L7 279.19L7.966 279.19L7.966 281.752ZM14 270.86L14 271.588L12.418 271.63C12.922 271.9 13.328 272.288 13.636 272.792C13.9347 273.296 14.084 273.856 14.084 274.472C14.084 275.461 13.7387 276.292 13.048 276.964C12.348 277.636 11.4987 277.972 10.5 277.972C9.50134 277.972 8.652 277.636 7.952 276.964C7.252 276.292 6.902 275.461 6.902 274.472C6.902 273.865 7.056 273.31 7.364 272.806C7.66267 272.292 8.064 271.9 8.568 271.63L7 271.588L7 270.86L14 270.86ZM12.362 276.222C12.8567 275.718 13.104 275.111 13.104 274.402C13.104 273.692 12.8567 273.086 12.362 272.582C11.8673 272.078 11.2467 271.826 10.5 271.826C9.75334 271.826 9.13267 272.078 8.638 272.582C8.134 273.086 7.882 273.692 7.882 274.402C7.882 275.102 8.134 275.704 8.638 276.208C9.13267 276.712 9.75334 276.964 10.5 276.964C11.2467 276.964 11.8673 276.716 12.362 276.222ZM9.576 260.956L9.576 258.422L10.248 258.422L10.248 260.956L12.81 260.956L12.81 261.684L10.248 261.684L10.248 264.218L9.576 264.218L9.576 261.684L7.014 261.684L7.014 260.956L9.576 260.956ZM4.2 251.5L4.2 247.944C4.2 245.779 5.04 244.696 6.72 244.696C7.82134 244.696 8.53534 245.191 8.862 246.18C8.98334 245.545 9.25867 245.055 9.688 244.71C10.1173 244.355 10.6493 244.178 11.284 244.178C13.0947 244.178 14 245.317 14 247.594L14 251.5L4.2 251.5ZM5.222 250.408L8.456 250.408L8.456 247.846C8.456 246.437 7.91934 245.732 6.846 245.732C6.35134 245.732 5.95934 245.881 5.67 246.18C5.37134 246.469 5.222 247.025 5.222 247.846L5.222 250.408ZM9.394 250.408L12.978 250.408L12.978 247.398C12.978 245.942 12.3807 245.214 11.186 245.214C10.6353 245.214 10.2013 245.396 9.884 245.76C9.55734 246.124 9.394 246.67 9.394 247.398L9.394 250.408ZM9.268 241.065L9.268 238.657C9.268 237.658 9.49667 236.949 9.954 236.529C10.4113 236.099 10.9667 235.885 11.62 235.885C11.928 235.885 12.2127 235.931 12.474 236.025C12.7353 236.109 12.9873 236.249 13.23 236.445C13.4633 236.641 13.65 236.93 13.79 237.313C13.93 237.686 14 238.134 14 238.657L14 242.087L7 242.087L7 241.065L9.268 241.065ZM14 233.995L14 235.017L7 235.017L7 233.995L14 233.995ZM13.048 241.079L13.048 238.573C13.048 237.462 12.572 236.907 11.62 236.907C10.6867 236.907 10.22 237.462 10.22 238.573L10.22 241.079L13.048 241.079ZM8.568 228.775L14 231.225L14 232.303L7 229.083L7 228.467L14 225.233L14 226.311L8.568 228.775ZM6.902 220.712C6.902 219.956 7.084 219.308 7.448 218.766C7.812 218.225 8.31134 217.824 8.946 217.562C9.21667 217.45 9.52934 217.385 9.884 217.366C10.2387 217.338 10.5233 217.362 10.738 217.436L10.738 223.232C11.4753 223.232 12.0633 222.99 12.502 222.504C12.9313 222.01 13.1507 221.375 13.16 220.6C13.16 219.714 12.908 218.906 12.404 218.178L13.02 217.632C13.7293 218.538 14.084 219.527 14.084 220.6C14.0747 221.683 13.7387 222.565 13.076 223.246C12.4133 223.928 11.5547 224.268 10.5 224.268C9.48267 224.268 8.62867 223.942 7.938 223.288C7.24734 222.626 6.902 221.767 6.902 220.712ZM7.84 220.712C7.84 221.403 8.05467 221.982 8.484 222.448C8.91334 222.906 9.436 223.153 10.052 223.19L10.052 218.36C9.80934 218.342 9.54334 218.393 9.254 218.514C8.82467 218.692 8.484 218.972 8.232 219.354C7.97067 219.737 7.84 220.19 7.84 220.712ZM7.966 212.531L14 212.531L14 213.553L7.966 213.553L7.966 216.115L7 216.115L7 209.969L7.966 209.969L7.966 212.531ZM3.612 200.56L4.648 200.56C5.14267 201.251 5.85201 201.834 6.776 202.31C7.69067 202.777 8.65667 203.015 9.67401 203.024L9.82801 203.024C10.8453 203.024 11.816 202.791 12.74 202.324C13.664 201.848 14.392 201.26 14.924 200.56L15.96 200.56C15.4 201.587 14.5647 202.436 13.454 203.108C12.334 203.78 11.1253 204.116 9.82801 204.116L9.674 204.116C8.39534 204.107 7.196 203.766 6.076 203.094C4.956 202.413 4.13467 201.568 3.612 200.56ZM5.01201 191.826L8.24601 195.466C8.17134 195.195 8.13401 194.826 8.13401 194.36C8.19001 193.436 8.47001 192.726 8.97401 192.232C9.47801 191.737 10.1127 191.49 10.878 191.49C11.8113 191.49 12.5767 191.802 13.174 192.428C13.7713 193.044 14.0793 193.888 14.098 194.962L14.098 195.088C14.0887 195.956 13.902 196.716 13.538 197.37C13.174 198.023 12.6793 198.532 12.054 198.896L11.396 198.182C12.516 197.454 13.076 196.418 13.076 195.074L13.076 194.99C13.0573 194.262 12.838 193.669 12.418 193.212C11.9887 192.754 11.4287 192.526 10.738 192.526C9.42201 192.526 8.76401 193.361 8.76401 195.032C8.76401 195.564 8.89001 196.1 9.14201 196.642L8.72201 197.216L5.432 193.506L5.432 198.028L4.41 198.028L4.41 191.826L5.01201 191.826ZM14 177.742L14 178.764L8.70801 178.764L11.634 181.34L8.70801 183.916L14 183.916L14 184.938L7.00001 184.938L7.00001 184.322L10.388 181.34L7.00001 178.358L7.00001 177.742L14 177.742ZM14 167.953L14 168.975L8.70801 168.975L11.634 171.551L8.70801 174.127L14 174.127L14 175.149L7.00001 175.149L7.00001 174.533L10.388 171.551L7.00001 168.569L7.00001 167.953L14 167.953ZM4.64801 165.78L3.61201 165.78C4.13467 164.772 4.95601 163.932 6.07601 163.26C7.19601 162.579 8.39534 162.233 9.67401 162.224L9.82801 162.224C11.1253 162.224 12.334 162.56 13.454 163.232C14.5647 163.904 15.4 164.753 15.96 165.78L14.924 165.78C14.392 165.08 13.664 164.497 12.74 164.03C11.816 163.554 10.8453 163.316 9.82801 163.316L9.67401 163.316C8.65667 163.325 7.69067 163.568 6.77601 164.044C5.85201 164.511 5.14267 165.089 4.64801 165.78ZM8.00801 151.987L8.41401 152.491L6.72001 153.709L8.41401 154.913L8.00801 155.417L6.42601 154.101L5.90801 156.005L5.30601 155.837L5.93601 153.961L3.96201 154.017L3.96201 153.387L5.93601 153.443L5.30601 151.567L5.90801 151.399L6.42601 153.303L8.00801 151.987ZM14 138.009L14 145.275L13.384 145.275L9.66001 140.963C9.12801 140.347 8.68934 139.917 8.34401 139.675C7.99867 139.432 7.61601 139.311 7.19601 139.311C6.62667 139.311 6.17401 139.53 5.83801 139.969C5.50201 140.407 5.33401 140.935 5.33401 141.551L5.32001 141.677C5.32001 142.741 5.76334 143.632 6.65001 144.351L5.99201 145.065C4.86267 144.159 4.29801 143.007 4.29801 141.607L4.29801 141.453C4.30734 140.519 4.57334 139.749 5.09601 139.143C5.60934 138.536 6.24867 138.233 7.01401 138.233C7.63001 138.233 8.19467 138.419 8.70801 138.793C9.22134 139.157 9.84667 139.782 10.584 140.669L12.978 143.385L12.978 138.009L14 138.009Z" fill="#2F80ED"/>
<g clip-path="url(#clip0)">
<path d="M459.322 93.7462H63.3027V360.219H459.322V93.7462Z" fill="#F8F7F7" stroke="#2F80ED" stroke-width="0.75" stroke-miterlimit="10"/>
<path d="M261 101H72V351H261V101Z" fill="white" stroke="black" stroke-width="2" stroke-miterlimit="10"/>
<path d="M252.205 108.016H78.8086V342.554H252.205V108.016Z" fill="white"/>
<path d="M252.204 339.61V342.554H249.26" stroke="#77569F" stroke-miterlimit="10"/>
<path d="M243.49 342.554H84.6387" stroke="#77569F" stroke-miterlimit="10" stroke-dasharray="2.94 2.94"/>
<path d="M81.7528 342.554H78.8086V339.61" stroke="#77569F" stroke-miterlimit="10"/>
<path d="M78.8086 333.741V113.904" stroke="#77569F" stroke-miterlimit="10" stroke-dasharray="2.99 2.99"/>
<path d="M78.8086 110.96V108.016H81.7528" stroke="#77569F" stroke-miterlimit="10"/>
<path d="M87.5234 108.016H246.375" stroke="#77569F" stroke-miterlimit="10" stroke-dasharray="2.94 2.94"/>
<path d="M249.26 108.016H252.204V110.96" stroke="#77569F" stroke-miterlimit="10"/>
<path d="M252.205 116.829V336.685" stroke="#77569F" stroke-miterlimit="10" stroke-dasharray="2.99 2.99"/>
<path d="M450.666 101H260.508V351.025H450.666V101Z" fill="white" stroke="black" stroke-width="2" stroke-miterlimit="10"/>
<path d="M442.561 108.016H269.832V342.554H442.561V108.016Z" fill="white"/>
<path d="M442.561 339.61V342.554H439.623" stroke="#77569F" stroke-miterlimit="10"/>
<path d="M272.77 342.554H269.832V339.61" stroke="#77569F" stroke-width="0.75" stroke-miterlimit="10"/>
<path d="M439.623 108.016H442.561V110.96" stroke="#77569F" stroke-miterlimit="10"/>
<path d="M269.832 110.96V108.016H272.77" stroke="#77569F" stroke-miterlimit="10"/>
<path d="M433.864 342.554H275.648" stroke="#77569F" stroke-width="0.75" stroke-miterlimit="10" stroke-dasharray="2.94 2.94"/>
<path d="M269.832 333.741V113.905" stroke="#77569F" stroke-miterlimit="10" stroke-dasharray="2.99 2.99"/>
<path d="M278.531 108.016H436.747" stroke="#77569F" stroke-width="0.75" stroke-miterlimit="10" stroke-dasharray="2.94 2.94"/>
<path d="M442.561 116.829V336.685" stroke="#77569F" stroke-miterlimit="10" stroke-dasharray="2.99 2.99"/>
<path d="M71.1125 101H33.7207" stroke="#E65420" stroke-width="2" stroke-miterlimit="10"/>
<path d="M73 351H35" stroke="#E65420" stroke-width="2" stroke-miterlimit="10"/>
<path d="M72.0762 360.219H10.4238" stroke="#E25D23" stroke-width="0.75" stroke-miterlimit="10"/>
<path d="M63.5762 93.7462H1.92383" stroke="#E25D23" stroke-width="0.75" stroke-miterlimit="10"/>
<path d="M520.74 93.7462H459.088" stroke="#E25D23" stroke-width="0.75" stroke-miterlimit="10"/>
<path d="M512.221 360.219H450.568" stroke="#E25D23" stroke-width="0.75" stroke-miterlimit="10"/>
<path d="M484 351L450 351" stroke="#E65420" stroke-width="2" stroke-miterlimit="10"/>
<path d="M486.979 101H451.648" stroke="#E65420" stroke-width="2" stroke-miterlimit="10"/>
<path d="M72 388.994V351.583" stroke="#E65420" stroke-width="2" stroke-miterlimit="10"/>
<path d="M63.3027 412.175V350.425" stroke="#E25D23" stroke-width="0.75" stroke-miterlimit="10"/>
<path d="M459.342 409.704V351.251" stroke="#E25D23" stroke-width="0.75" stroke-miterlimit="10"/>
<path d="M260.566 388.994V351.583" stroke="black" stroke-width="2" stroke-miterlimit="10"/>
<path d="M451 388.994V351.583" stroke="#E65420" stroke-width="2" stroke-miterlimit="10"/>
<path d="M253.579 374.411H78.8086" stroke="#E65420" stroke-width="0.75" stroke-miterlimit="10"/>
<path d="M78.9079 370.878L74.2168 374.685L78.9276 378.179L78.9079 370.878Z" fill="#E6551F"/>
<path d="M253.578 370.878L258.269 374.685L253.559 378.179L253.578 370.878Z" fill="#E6551F"/>
<path d="M452.374 405.09L67.6602 405.09" stroke="#E25D23" stroke-width="0.75" stroke-miterlimit="10"/>
<path d="M69.1521 401.242L64.4609 405.05L69.1717 408.564L69.1521 401.242Z" fill="#E25D23"/>
<path d="M452.393 401.242L457.084 405.05L452.373 408.564L452.393 401.242Z" fill="#E25D23"/>
<path d="M442.088 374.411H267.318" stroke="#E65420" stroke-width="0.75" stroke-miterlimit="10"/>
<path d="M267.437 370.878L262.727 374.685L267.437 378.179V370.878Z" fill="#E6551F"/>
<path d="M442.088 370.878L446.779 374.685L442.068 378.179L442.088 370.878Z" fill="#E6551F"/>
<path d="M50 106L50 345" stroke="#E65420" stroke-width="0.75" stroke-miterlimit="10"/>
<path d="M46.1074 344.674L49.9153 349.385L53.4288 344.674H46.1074Z" fill="#E65420"/>
<path d="M46.1074 106.692L49.9153 102L53.4288 106.711L46.1074 106.692Z" fill="#E65420"/>
<path d="M472.221 108V345.188" stroke="#E65420" stroke-width="0.75" stroke-miterlimit="10"/>
<path d="M468.686 344.674L472.493 349.385L476.007 344.674H468.686Z" fill="#E6551F"/>
<path d="M468.686 108.016L472.493 103.325L476.007 108.036L468.686 108.016Z" fill="#E6551F"/>
<path d="M17.9609 355.077L21.7688 359.768L25.2823 355.057L17.9609 355.077Z" fill="#E25D23"/>
<path d="M21.6328 99.4777V355.057" stroke="#E25D23" stroke-width="0.75" stroke-miterlimit="10"/>
<path d="M18.0781 99.4777L21.886 94.7669L25.3995 99.4777H18.0781Z" fill="#E25D23"/>
<path d="M495.752 355.077L499.54 359.768L503.054 355.057L495.752 355.077Z" fill="#E25D23"/>
<path d="M499.402 99.4777V355.057" stroke="#E25D23" stroke-width="0.75" stroke-miterlimit="10"/>
<path d="M495.869 99.4777L499.677 94.7669L503.171 99.4777H495.869Z" fill="#E25D23"/>
<path d="M152.328 389H142.236V380.6H143.172V388.124H146.808V380.6H147.744V388.124H151.392V380.6H152.328V389ZM160.102 389H159.238V384.464L155.242 389H154.714V383H155.59V387.536L159.586 383H160.102V389ZM165.487 382.916C166.335 382.916 167.047 383.216 167.623 383.816C168.199 384.416 168.487 385.144 168.487 386C168.487 386.856 168.199 387.584 167.623 388.184C167.047 388.776 166.335 389.072 165.487 389.072C165.007 389.072 164.567 388.956 164.167 388.724C163.775 388.484 163.475 388.168 163.267 387.776V391.208H162.391V383H163.015L163.051 384.356C163.283 383.924 163.615 383.576 164.047 383.312C164.479 383.048 164.959 382.916 165.487 382.916ZM165.415 383.756C164.807 383.756 164.287 383.972 163.855 384.404C163.423 384.828 163.207 385.36 163.207 386C163.207 386.64 163.423 387.176 163.855 387.608C164.287 388.032 164.807 388.244 165.415 388.244C166.015 388.244 166.531 388.032 166.963 387.608C167.395 387.176 167.611 386.64 167.611 386C167.611 385.36 167.395 384.828 166.963 384.404C166.531 383.972 166.015 383.756 165.415 383.756ZM175.746 389H174.882V384.464L170.886 389H170.358V383H171.234V387.536L175.23 383H175.746V389ZM183.411 389H182.535V386.396H178.851V389H177.975V383H178.851V385.556H182.535V383H183.411V389ZM191.375 389H190.751L190.715 387.644C190.483 388.076 190.151 388.424 189.719 388.688C189.287 388.944 188.807 389.072 188.279 389.072C187.431 389.072 186.719 388.776 186.143 388.184C185.567 387.584 185.279 386.856 185.279 386C185.279 385.144 185.567 384.416 186.143 383.816C186.719 383.216 187.431 382.916 188.279 382.916C188.799 382.916 189.275 383.048 189.707 383.312C190.147 383.568 190.483 383.912 190.715 384.344L190.751 383H191.375V389ZM186.779 387.596C187.211 388.02 187.731 388.232 188.339 388.232C188.947 388.232 189.467 388.02 189.899 387.596C190.331 387.172 190.547 386.64 190.547 386C190.547 385.36 190.331 384.828 189.899 384.404C189.467 383.972 188.947 383.756 188.339 383.756C187.739 383.756 187.223 383.972 186.791 384.404C186.359 384.828 186.143 385.36 186.143 386C186.143 386.64 186.355 387.172 186.779 387.596Z" fill="#2B2A29"/>
<path d="M135.16 234H133.288V227.064C132.888 228.008 132.256 228.728 131.392 229.224C130.544 229.72 129.584 229.968 128.512 229.968C126.688 229.968 125.2 229.424 124.048 228.336C122.912 227.232 122.344 225.496 122.344 223.128V217.2H124.216V223.2C124.216 226.544 125.736 228.216 128.776 228.216C130.024 228.216 131.088 227.8 131.968 226.968C132.848 226.12 133.288 224.848 133.288 223.152V217.2H135.16V234ZM145.483 221.832C146.779 221.832 147.891 222.144 148.819 222.768C149.747 223.392 150.435 224.248 150.883 225.336C151.075 225.8 151.187 226.336 151.219 226.944C151.267 227.552 151.227 228.04 151.099 228.408H141.163C141.163 229.672 141.579 230.68 142.411 231.432C143.259 232.168 144.347 232.544 145.675 232.56C147.195 232.56 148.579 232.128 149.827 231.264L150.763 232.32C149.211 233.536 147.515 234.144 145.675 234.144C143.819 234.128 142.307 233.552 141.139 232.416C139.971 231.28 139.387 229.808 139.387 228C139.387 226.256 139.947 224.792 141.067 223.608C142.203 222.424 143.675 221.832 145.483 221.832ZM145.483 223.44C144.299 223.44 143.307 223.808 142.507 224.544C141.723 225.28 141.299 226.176 141.235 227.232H149.515C149.547 226.816 149.459 226.36 149.251 225.864C148.947 225.128 148.467 224.544 147.811 224.112C147.155 223.664 146.379 223.44 145.483 223.44ZM159.508 223.656V234H157.756V223.656H153.364V222H163.9V223.656H159.508ZM177.885 234H176.133V228.792H168.765V234H167.013V222H168.765V227.112H176.133V222H177.885V234ZM193.813 234H192.565L192.493 231.288C192.029 232.152 191.365 232.848 190.501 233.376C189.637 233.888 188.677 234.144 187.621 234.144C185.925 234.144 184.501 233.552 183.349 232.368C182.197 231.168 181.621 229.712 181.621 228C181.621 226.288 182.197 224.832 183.349 223.632C184.501 222.432 185.925 221.832 187.621 221.832C188.661 221.832 189.613 222.096 190.477 222.624C191.357 223.136 192.029 223.824 192.493 224.688L192.565 222H193.813V234ZM184.621 231.192C185.485 232.04 186.525 232.464 187.741 232.464C188.957 232.464 189.997 232.04 190.861 231.192C191.725 230.344 192.157 229.28 192.157 228C192.157 226.72 191.725 225.656 190.861 224.808C189.997 223.944 188.957 223.512 187.741 223.512C186.541 223.512 185.509 223.944 184.645 224.808C183.781 225.656 183.349 226.72 183.349 228C183.349 229.28 183.773 230.344 184.621 231.192ZM208.071 234H206.343V230.088H203.415C202.679 230.104 202.127 230.264 201.759 230.568C201.391 230.872 200.903 231.496 200.295 232.44L199.239 234H197.319L198.591 232.104C198.623 232.056 198.703 231.936 198.831 231.744C198.975 231.536 199.055 231.408 199.071 231.36C199.103 231.312 199.175 231.208 199.287 231.048C199.399 230.888 199.479 230.784 199.527 230.736C199.575 230.688 199.647 230.608 199.743 230.496C199.839 230.368 199.919 230.28 199.983 230.232C200.047 230.168 200.119 230.096 200.199 230.016C200.295 229.936 200.391 229.872 200.487 229.824C199.543 229.616 198.799 229.176 198.255 228.504C197.711 227.816 197.439 227.032 197.439 226.152C197.439 224.968 197.855 223.984 198.687 223.2C199.519 222.4 200.759 222 202.407 222H208.071V234ZM206.343 223.68H202.239C201.263 223.68 200.503 223.904 199.959 224.352C199.431 224.784 199.167 225.384 199.167 226.152C199.167 226.904 199.431 227.504 199.959 227.952C200.503 228.384 201.263 228.6 202.239 228.6H206.343V223.68Z" fill="#2B2A29"/>
<path d="M307.168 234H305.296V226.368H296.344V234H294.472V217.2H296.344V224.616H305.296V217.2H307.168V234ZM317.069 221.832C318.365 221.832 319.477 222.144 320.405 222.768C321.333 223.392 322.021 224.248 322.469 225.336C322.661 225.8 322.773 226.336 322.805 226.944C322.853 227.552 322.813 228.04 322.685 228.408H312.749C312.749 229.672 313.165 230.68 313.997 231.432C314.845 232.168 315.933 232.544 317.261 232.56C318.781 232.56 320.165 232.128 321.413 231.264L322.349 232.32C320.797 233.536 319.101 234.144 317.261 234.144C315.405 234.128 313.893 233.552 312.725 232.416C311.557 231.28 310.973 229.808 310.973 228C310.973 226.256 311.533 224.792 312.653 223.608C313.789 222.424 315.261 221.832 317.069 221.832ZM317.069 223.44C315.885 223.44 314.893 223.808 314.093 224.544C313.309 225.28 312.885 226.176 312.821 227.232H321.101C321.133 226.816 321.045 226.36 320.837 225.864C320.533 225.128 320.053 224.544 319.397 224.112C318.741 223.664 317.965 223.44 317.069 223.44ZM345.399 234H343.671V229.272C342.855 230.648 341.487 231.336 339.567 231.336C335.951 231.336 334.143 229.328 334.143 225.312V222H335.895V225.216C335.895 226.736 336.183 227.864 336.759 228.6C337.351 229.32 338.367 229.68 339.807 229.68C341.183 229.68 342.167 229.304 342.759 228.552C343.367 227.8 343.671 226.832 343.671 225.648V222H345.399V234ZM355.249 221.832C356.545 221.832 357.657 222.144 358.585 222.768C359.513 223.392 360.201 224.248 360.649 225.336C360.841 225.8 360.953 226.336 360.985 226.944C361.033 227.552 360.993 228.04 360.865 228.408H350.929C350.929 229.672 351.345 230.68 352.177 231.432C353.025 232.168 354.113 232.544 355.441 232.56C356.961 232.56 358.345 232.128 359.593 231.264L360.529 232.32C358.977 233.536 357.281 234.144 355.441 234.144C353.585 234.128 352.073 233.552 350.905 232.416C349.737 231.28 349.153 229.808 349.153 228C349.153 226.256 349.713 224.792 350.833 223.608C351.969 222.424 353.441 221.832 355.249 221.832ZM355.249 223.44C354.065 223.44 353.073 223.808 352.273 224.544C351.489 225.28 351.065 226.176 351.001 227.232H359.281C359.313 226.816 359.225 226.36 359.017 225.864C358.713 225.128 358.233 224.544 357.577 224.112C356.921 223.664 356.145 223.44 355.249 223.44ZM369.274 223.656V234H367.522V223.656H363.13V222H373.666V223.656H369.274ZM387.651 234H385.899V228.792H378.531V234H376.779V222H378.531V227.112H385.899V222H387.651V234ZM403.579 234H402.331L402.259 231.288C401.795 232.152 401.131 232.848 400.267 233.376C399.403 233.888 398.443 234.144 397.387 234.144C395.691 234.144 394.267 233.552 393.115 232.368C391.963 231.168 391.387 229.712 391.387 228C391.387 226.288 391.963 224.832 393.115 223.632C394.267 222.432 395.691 221.832 397.387 221.832C398.427 221.832 399.379 222.096 400.243 222.624C401.123 223.136 401.795 223.824 402.259 224.688L402.331 222H403.579V234ZM394.387 231.192C395.251 232.04 396.291 232.464 397.507 232.464C398.723 232.464 399.763 232.04 400.627 231.192C401.491 230.344 401.923 229.28 401.923 228C401.923 226.72 401.491 225.656 400.627 224.808C399.763 223.944 398.723 223.512 397.507 223.512C396.307 223.512 395.275 223.944 394.411 224.808C393.547 225.656 393.115 226.72 393.115 228C393.115 229.28 393.539 230.344 394.387 231.192ZM417.837 234H416.109V230.088H413.181C412.445 230.104 411.893 230.264 411.525 230.568C411.157 230.872 410.669 231.496 410.061 232.44L409.005 234H407.085L408.357 232.104C408.389 232.056 408.469 231.936 408.597 231.744C408.741 231.536 408.821 231.408 408.837 231.36C408.869 231.312 408.941 231.208 409.053 231.048C409.165 230.888 409.245 230.784 409.293 230.736C409.341 230.688 409.413 230.608 409.509 230.496C409.605 230.368 409.685 230.28 409.749 230.232C409.813 230.168 409.885 230.096 409.965 230.016C410.061 229.936 410.157 229.872 410.253 229.824C409.309 229.616 408.565 229.176 408.021 228.504C407.477 227.816 407.205 227.032 407.205 226.152C407.205 224.968 407.621 223.984 408.453 223.2C409.285 222.4 410.525 222 412.173 222H417.837V234ZM416.109 223.68H412.005C411.029 223.68 410.269 223.904 409.725 224.352C409.197 224.784 408.933 225.384 408.933 226.152C408.933 226.904 409.197 227.504 409.725 227.952C410.269 228.384 411.029 228.6 412.005 228.6H416.109V223.68Z" fill="#2B2A29"/>
<path d="M340.328 389H330.236V380.6H331.172V388.124H334.808V380.6H335.744V388.124H339.392V380.6H340.328V389ZM348.102 389H347.238V384.464L343.242 389H342.714V383H343.59V387.536L347.586 383H348.102V389ZM353.487 382.916C354.335 382.916 355.047 383.216 355.623 383.816C356.199 384.416 356.487 385.144 356.487 386C356.487 386.856 356.199 387.584 355.623 388.184C355.047 388.776 354.335 389.072 353.487 389.072C353.007 389.072 352.567 388.956 352.167 388.724C351.775 388.484 351.475 388.168 351.267 387.776V391.208H350.391V383H351.015L351.051 384.356C351.283 383.924 351.615 383.576 352.047 383.312C352.479 383.048 352.959 382.916 353.487 382.916ZM353.415 383.756C352.807 383.756 352.287 383.972 351.855 384.404C351.423 384.828 351.207 385.36 351.207 386C351.207 386.64 351.423 387.176 351.855 387.608C352.287 388.032 352.807 388.244 353.415 388.244C354.015 388.244 354.531 388.032 354.963 387.608C355.395 387.176 355.611 386.64 355.611 386C355.611 385.36 355.395 384.828 354.963 384.404C354.531 383.972 354.015 383.756 353.415 383.756ZM363.746 389H362.882V384.464L358.886 389H358.358V383H359.234V387.536L363.23 383H363.746V389ZM371.411 389H370.535V386.396H366.851V389H365.975V383H366.851V385.556H370.535V383H371.411V389ZM379.375 389H378.751L378.715 387.644C378.483 388.076 378.151 388.424 377.719 388.688C377.287 388.944 376.807 389.072 376.279 389.072C375.431 389.072 374.719 388.776 374.143 388.184C373.567 387.584 373.279 386.856 373.279 386C373.279 385.144 373.567 384.416 374.143 383.816C374.719 383.216 375.431 382.916 376.279 382.916C376.799 382.916 377.275 383.048 377.707 383.312C378.147 383.568 378.483 383.912 378.715 384.344L378.751 383H379.375V389ZM374.779 387.596C375.211 388.02 375.731 388.232 376.339 388.232C376.947 388.232 377.467 388.02 377.899 387.596C378.331 387.172 378.547 386.64 378.547 386C378.547 385.36 378.331 384.828 377.899 384.404C377.467 383.972 376.947 383.756 376.339 383.756C375.739 383.756 375.223 383.972 374.791 384.404C374.359 384.828 374.143 385.36 374.143 386C374.143 386.64 374.355 387.172 374.779 387.596Z" fill="#2B2A29"/>
</g>
<path d="M299.833 454.938H302.479C303.571 454.938 304.397 455.209 304.957 455.75C305.517 456.292 305.797 457.034 305.797 457.976C305.797 458.928 305.522 459.67 304.971 460.202C304.43 460.734 303.599 461 302.479 461H298.321V451.2H304.705V452.628H299.833V454.938ZM299.833 459.572H302.507C303.17 459.572 303.646 459.437 303.935 459.166C304.224 458.896 304.369 458.499 304.369 457.976C304.369 456.903 303.748 456.366 302.507 456.366H299.833V459.572ZM310.938 453.902C311.685 453.902 312.324 454.075 312.856 454.42C313.388 454.766 313.785 455.251 314.046 455.876C314.177 456.166 314.252 456.506 314.27 456.898C314.289 457.281 314.256 457.603 314.172 457.864H308.838C308.838 458.462 309.039 458.938 309.44 459.292C309.851 459.638 310.378 459.81 311.022 459.81C311.834 459.81 312.586 459.605 313.276 459.194L314.032 460.006C313.09 460.725 312.086 461.084 311.022 461.084C309.949 461.084 309.076 460.748 308.404 460.076C307.732 459.404 307.396 458.546 307.396 457.5C307.396 456.483 307.718 455.629 308.362 454.938C309.016 454.248 309.874 453.902 310.938 453.902ZM310.952 455.176C310.374 455.176 309.893 455.354 309.51 455.708C309.128 456.054 308.922 456.474 308.894 456.968H312.912C312.912 456.726 312.856 456.497 312.744 456.282C312.595 455.946 312.362 455.68 312.044 455.484C311.736 455.279 311.372 455.176 310.952 455.176ZM320.727 457.346C321.623 457.542 322.071 458.084 322.071 458.97C322.071 459.652 321.81 460.174 321.287 460.538C320.774 460.902 320.088 461.089 319.229 461.098H319.047C318.375 461.098 317.745 460.963 317.157 460.692C316.579 460.412 316.177 460.09 315.953 459.726L316.723 458.9C316.966 459.18 317.293 459.404 317.703 459.572C318.114 459.74 318.553 459.824 319.019 459.824H319.187C319.635 459.824 319.995 459.736 320.265 459.558C320.536 459.372 320.671 459.11 320.671 458.774C320.671 458.149 320.275 457.832 319.481 457.822H318.305V456.954H319.341C320.013 456.945 320.349 456.665 320.349 456.114C320.349 455.806 320.228 455.573 319.985 455.414C319.752 455.256 319.449 455.176 319.075 455.176H318.949C318.175 455.176 317.503 455.452 316.933 456.002L316.191 455.19C316.499 454.817 316.91 454.509 317.423 454.266C317.937 454.024 318.483 453.902 319.061 453.902H319.187C319.906 453.902 320.508 454.075 320.993 454.42C321.488 454.756 321.735 455.218 321.735 455.806C321.735 456.59 321.399 457.104 320.727 457.346ZM327.359 453.902C328.358 453.902 329.207 454.257 329.907 454.966C330.607 455.666 330.957 456.511 330.957 457.5C330.957 458.49 330.607 459.334 329.907 460.034C329.207 460.734 328.358 461.084 327.359 461.084C326.361 461.084 325.511 460.734 324.811 460.034C324.121 459.334 323.775 458.49 323.775 457.5C323.775 456.502 324.125 455.652 324.825 454.952C325.525 454.252 326.37 453.902 327.359 453.902ZM328.899 455.89C328.47 455.461 327.957 455.246 327.359 455.246C326.762 455.246 326.249 455.461 325.819 455.89C325.39 456.31 325.175 456.847 325.175 457.5C325.175 458.154 325.39 458.69 325.819 459.11C326.249 459.53 326.762 459.74 327.359 459.74C327.957 459.74 328.47 459.53 328.899 459.11C329.338 458.681 329.557 458.144 329.557 457.5C329.557 456.847 329.338 456.31 328.899 455.89ZM339.509 461H338.109V455.344H334.427V461H333.027V454H339.509V461ZM348.646 461H347.694L347.61 459.712C347.349 460.132 346.989 460.468 346.532 460.72C346.075 460.963 345.575 461.084 345.034 461.084C344.045 461.084 343.219 460.739 342.556 460.048C341.903 459.348 341.576 458.499 341.576 457.5C341.576 456.492 341.903 455.643 342.556 454.952C343.219 454.252 344.045 453.902 345.034 453.902C345.575 453.902 346.075 454.028 346.532 454.28C346.989 454.532 347.349 454.868 347.61 455.288L347.694 454H348.646V461ZM343.62 459.11C344.049 459.53 344.563 459.74 345.16 459.74C345.757 459.74 346.271 459.53 346.7 459.11C347.139 458.681 347.358 458.144 347.358 457.5C347.358 456.847 347.139 456.31 346.7 455.89C346.271 455.461 345.757 455.246 345.16 455.246C344.563 455.246 344.049 455.461 343.62 455.89C343.191 456.31 342.976 456.847 342.976 457.5C342.976 458.154 343.191 458.69 343.62 459.11ZM354.306 453.916C355.426 453.916 356.346 454.346 357.064 455.204L356.224 456.114C355.683 455.545 355.044 455.26 354.306 455.26C353.709 455.26 353.196 455.47 352.766 455.89C352.337 456.31 352.122 456.847 352.122 457.5C352.122 458.154 352.337 458.69 352.766 459.11C353.196 459.53 353.709 459.74 354.306 459.74C355.025 459.74 355.664 459.456 356.224 458.886L357.064 459.796C356.346 460.655 355.426 461.084 354.306 461.084C353.308 461.084 352.458 460.734 351.758 460.034C351.068 459.334 350.722 458.49 350.722 457.5C350.722 456.511 351.068 455.666 351.758 454.966C352.458 454.266 353.308 453.916 354.306 453.916ZM365.554 461H364.154V458.13H360.472V461H359.072V454H360.472V456.786H364.154V454H365.554V461ZM371.205 453.902C372.204 453.902 373.053 454.257 373.753 454.966C374.453 455.666 374.803 456.511 374.803 457.5C374.803 458.49 374.453 459.334 373.753 460.034C373.053 460.734 372.204 461.084 371.205 461.084C370.206 461.084 369.357 460.734 368.657 460.034C367.966 459.334 367.621 458.49 367.621 457.5C367.621 456.502 367.971 455.652 368.671 454.952C369.371 454.252 370.216 453.902 371.205 453.902ZM372.745 455.89C372.316 455.461 371.802 455.246 371.205 455.246C370.608 455.246 370.094 455.461 369.665 455.89C369.236 456.31 369.021 456.847 369.021 457.5C369.021 458.154 369.236 458.69 369.665 459.11C370.094 459.53 370.608 459.74 371.205 459.74C371.802 459.74 372.316 459.53 372.745 459.11C373.184 458.681 373.403 458.144 373.403 457.5C373.403 456.847 373.184 456.31 372.745 455.89ZM379.995 453.902C380.742 453.902 381.381 454.075 381.913 454.42C382.445 454.766 382.842 455.251 383.103 455.876C383.234 456.166 383.308 456.506 383.327 456.898C383.346 457.281 383.313 457.603 383.229 457.864H377.895C377.895 458.462 378.096 458.938 378.497 459.292C378.908 459.638 379.435 459.81 380.079 459.81C380.891 459.81 381.642 459.605 382.333 459.194L383.089 460.006C382.146 460.725 381.143 461.084 380.079 461.084C379.006 461.084 378.133 460.748 377.461 460.076C376.789 459.404 376.453 458.546 376.453 457.5C376.453 456.483 376.775 455.629 377.419 454.938C378.072 454.248 378.931 453.902 379.995 453.902ZM380.009 455.176C379.43 455.176 378.95 455.354 378.567 455.708C378.184 456.054 377.979 456.474 377.951 456.968H381.969C381.969 456.726 381.913 456.497 381.801 456.282C381.652 455.946 381.418 455.68 381.101 455.484C380.793 455.279 380.429 455.176 380.009 455.176ZM396.576 461H395.176V455.344H391.494V461H390.094V454H396.576V461ZM402.226 453.902C403.225 453.902 404.074 454.257 404.774 454.966C405.474 455.666 405.824 456.511 405.824 457.5C405.824 458.49 405.474 459.334 404.774 460.034C404.074 460.734 403.225 461.084 402.226 461.084C401.228 461.084 400.378 460.734 399.678 460.034C398.988 459.334 398.642 458.49 398.642 457.5C398.642 456.502 398.992 455.652 399.692 454.952C400.392 454.252 401.237 453.902 402.226 453.902ZM403.766 455.89C403.337 455.461 402.824 455.246 402.226 455.246C401.629 455.246 401.116 455.461 400.686 455.89C400.257 456.31 400.042 456.847 400.042 457.5C400.042 458.154 400.257 458.69 400.686 459.11C401.116 459.53 401.629 459.74 402.226 459.74C402.824 459.74 403.337 459.53 403.766 459.11C404.205 458.681 404.424 458.144 404.424 457.5C404.424 456.847 404.205 456.31 403.766 455.89ZM410.423 456.086L408.239 461H406.755L409.989 454H410.857L414.091 461H412.621L410.423 456.086ZM418.509 453.902C419.255 453.902 419.895 454.075 420.427 454.42C420.959 454.766 421.355 455.251 421.617 455.876C421.747 456.166 421.822 456.506 421.841 456.898C421.859 457.281 421.827 457.603 421.743 457.864H416.409C416.409 458.462 416.609 458.938 417.011 459.292C417.421 459.638 417.949 459.81 418.593 459.81C419.405 459.81 420.156 459.605 420.847 459.194L421.603 460.006C420.66 460.725 419.657 461.084 418.593 461.084C417.519 461.084 416.647 460.748 415.975 460.076C415.303 459.404 414.967 458.546 414.967 457.5C414.967 456.483 415.289 455.629 415.933 454.938C416.586 454.248 417.445 453.902 418.509 453.902ZM418.523 455.176C417.944 455.176 417.463 455.354 417.081 455.708C416.698 456.054 416.493 456.474 416.465 456.968H420.483C420.483 456.726 420.427 456.497 420.315 456.282C420.165 455.946 419.932 455.68 419.615 455.484C419.307 455.279 418.943 455.176 418.523 455.176ZM431.659 457.416H428.187V456.52H431.659V457.416ZM444.418 452.824H439.91V455.33C440.442 454.929 441.184 454.728 442.136 454.728C443.144 454.728 443.923 455.018 444.474 455.596C445.034 456.166 445.314 456.922 445.314 457.864C445.314 458.751 445.001 459.512 444.376 460.146C443.751 460.772 442.878 461.089 441.758 461.098H441.632C440.027 461.089 438.762 460.45 437.838 459.18L438.818 458.27C439.257 458.765 439.695 459.124 440.134 459.348C440.582 459.563 441.091 459.67 441.66 459.67H441.744C442.351 459.661 442.859 459.484 443.27 459.138C443.681 458.793 443.886 458.331 443.886 457.752C443.886 457.136 443.69 456.665 443.298 456.338C442.915 456.012 442.369 455.848 441.66 455.848C441.203 455.848 440.755 455.932 440.316 456.1C439.887 456.268 439.546 456.455 439.294 456.66L438.566 456.1V451.41H444.418V452.824ZM459.254 461H457.854V456.296L455.586 458.886L453.318 456.296V461H451.918V454H452.8L455.586 457.192L458.372 454H459.254V461ZM469.084 461H467.684V456.296L465.416 458.886L463.148 456.296V461H461.748V454H462.63L465.416 457.192L468.202 454H469.084V461Z" fill="black"/>
<path d="M119.79 451.2H123.458C123.99 451.2 124.461 451.256 124.872 451.368C125.282 451.48 125.6 451.625 125.824 451.802C126.057 451.97 126.244 452.176 126.384 452.418C126.533 452.652 126.631 452.876 126.678 453.09C126.724 453.305 126.748 453.529 126.748 453.762C126.748 454.836 126.281 455.54 125.348 455.876C125.926 455.998 126.379 456.268 126.706 456.688C127.032 457.108 127.196 457.626 127.196 458.242C127.196 460.081 126.02 461 123.668 461H119.79V451.2ZM121.302 452.628V455.288H123.612C124.741 455.288 125.306 454.845 125.306 453.958C125.306 453.072 124.741 452.628 123.612 452.628H121.302ZM121.302 456.59V459.572H123.976C125.161 459.572 125.754 459.078 125.754 458.088C125.754 457.64 125.604 457.281 125.306 457.01C125.016 456.73 124.573 456.59 123.976 456.59H121.302ZM130.603 456.142H132.619C133.17 456.142 133.641 456.217 134.033 456.366C134.425 456.506 134.719 456.702 134.915 456.954C135.12 457.206 135.265 457.463 135.349 457.724C135.433 457.986 135.475 458.266 135.475 458.564C135.475 458.863 135.433 459.148 135.349 459.418C135.265 459.68 135.12 459.936 134.915 460.188C134.719 460.44 134.425 460.641 134.033 460.79C133.641 460.93 133.17 461 132.619 461H129.203V454H130.603V456.142ZM137.645 461H136.245V454H137.645V461ZM130.603 459.698H132.773C133.641 459.698 134.075 459.32 134.075 458.564C134.075 457.818 133.641 457.444 132.773 457.444H130.603V459.698ZM142.888 456.086L140.704 461H139.22L142.454 454H143.322L146.556 461H145.086L142.888 456.086ZM150.973 453.902C151.72 453.902 152.359 454.075 152.891 454.42C153.423 454.766 153.82 455.251 154.081 455.876C154.212 456.166 154.287 456.506 154.305 456.898C154.324 457.281 154.291 457.603 154.207 457.864H148.873C148.873 458.462 149.074 458.938 149.475 459.292C149.886 459.638 150.413 459.81 151.057 459.81C151.869 459.81 152.621 459.605 153.311 459.194L154.067 460.006C153.125 460.725 152.121 461.084 151.057 461.084C149.984 461.084 149.111 460.748 148.439 460.076C147.767 459.404 147.431 458.546 147.431 457.5C147.431 456.483 147.753 455.629 148.397 454.938C149.051 454.248 149.909 453.902 150.973 453.902ZM150.987 455.176C150.409 455.176 149.928 455.354 149.545 455.708C149.163 456.054 148.957 456.474 148.929 456.968H152.947C152.947 456.726 152.891 456.497 152.779 456.282C152.63 455.946 152.397 455.68 152.079 455.484C151.771 455.279 151.407 455.176 150.987 455.176ZM159.351 455.344V461H157.951V455.344H155.585V454H161.731V455.344H159.351ZM164.865 456.142H166.881C167.431 456.142 167.903 456.217 168.295 456.366C168.687 456.506 168.981 456.702 169.177 456.954C169.382 457.206 169.527 457.463 169.611 457.724C169.695 457.986 169.737 458.266 169.737 458.564C169.737 458.863 169.695 459.148 169.611 459.418C169.527 459.68 169.382 459.936 169.177 460.188C168.981 460.44 168.687 460.641 168.295 460.79C167.903 460.93 167.431 461 166.881 461H163.465V454H164.865V456.142ZM171.907 461H170.507V454H171.907V461ZM164.865 459.698H167.035C167.903 459.698 168.337 459.32 168.337 458.564C168.337 457.818 167.903 457.444 167.035 457.444H164.865V459.698ZM182.048 457.416H178.576V456.52H182.048V457.416ZM195.367 452.278L192.161 455.232C192.375 455.186 192.669 455.162 193.043 455.162C193.911 455.246 194.578 455.54 195.045 456.044C195.511 456.548 195.745 457.174 195.745 457.92C195.745 458.835 195.437 459.591 194.821 460.188C194.214 460.786 193.346 461.089 192.217 461.098H192.105C190.443 461.089 189.151 460.45 188.227 459.18L189.207 458.27C190.037 459.204 191.003 459.67 192.105 459.67H192.189C192.814 459.661 193.323 459.474 193.715 459.11C194.116 458.746 194.317 458.28 194.317 457.71C194.317 456.553 193.589 455.974 192.133 455.974C191.657 455.974 191.157 456.1 190.635 456.352L189.893 455.792L193.113 452.824H189.095V451.41H195.367V452.278ZM209.697 461H208.297V456.296L206.029 458.886L203.761 456.296V461H202.361V454H203.243L206.029 457.192L208.815 454H209.697V461ZM219.527 461H218.127V456.296L215.859 458.886L213.591 456.296V461H212.191V454H213.073L215.859 457.192L218.645 454H219.527V461Z" fill="black"/>
<path d="M33.39 243.564L33.39 240.44C33.39 238.537 34.128 237.586 35.604 237.586C36.5716 237.586 37.1989 238.021 37.4859 238.89C37.5925 238.332 37.8344 237.902 38.2116 237.598C38.5888 237.287 39.0562 237.131 39.6138 237.131C41.2046 237.131 42 238.131 42 240.132L42 243.564L33.39 243.564ZM34.2879 242.605L37.1292 242.605L37.1292 240.354C37.1292 239.115 36.6577 238.496 35.7147 238.496C35.2801 238.496 34.9357 238.628 34.6815 238.89C34.4191 239.144 34.2879 239.632 34.2879 240.354L34.2879 242.605ZM37.9533 242.605L41.1021 242.605L41.1021 239.96C41.1021 238.681 40.5773 238.041 39.5277 238.041C39.0439 238.041 38.6626 238.201 38.3838 238.521C38.0968 238.841 37.9533 239.32 37.9533 239.96L37.9533 242.605ZM37.8426 234.396L37.8426 232.28C37.8426 231.403 38.0435 230.779 38.4453 230.41C38.8471 230.033 39.335 229.845 39.909 229.845C40.1796 229.845 40.4297 229.886 40.6593 229.968C40.8889 230.041 41.1103 230.164 41.3235 230.337C41.5285 230.509 41.6925 230.763 41.8155 231.099C41.9385 231.427 42 231.821 42 232.28L42 235.294L35.85 235.294L35.85 234.396L37.8426 234.396ZM42 228.184L42 229.082L35.85 229.082L35.85 228.184L42 228.184ZM41.1636 234.408L41.1636 232.206C41.1636 231.23 40.7454 230.743 39.909 230.743C39.089 230.743 38.679 231.23 38.679 232.206L38.679 234.408L41.1636 234.408ZM35.7639 223.133C35.7639 222.149 36.1452 221.341 36.9078 220.71L37.4859 221.251C36.9119 221.776 36.6249 222.403 36.6249 223.133C36.6249 223.756 36.8463 224.289 37.2891 224.732C37.7237 225.166 38.269 225.384 38.925 225.384C39.581 225.384 40.1263 225.166 40.5609 224.732C40.9955 224.289 41.2128 223.756 41.2128 223.133C41.2128 222.395 40.9299 221.767 40.3641 221.251L40.9422 220.71C41.6966 221.341 42.0738 222.149 42.0738 223.133C42.0738 224.01 41.7663 224.756 41.1513 225.371C40.5363 225.978 39.7942 226.281 38.925 226.281C38.0476 226.281 37.3014 225.974 36.6864 225.359C36.0714 224.744 35.7639 224.002 35.7639 223.133ZM35.7639 216.07C35.7639 215.192 36.0755 214.446 36.6987 213.831C37.3137 213.216 38.0558 212.909 38.925 212.909C39.7942 212.909 40.5363 213.216 41.1513 213.831C41.7663 214.446 42.0738 215.192 42.0738 216.07C42.0738 216.947 41.7663 217.693 41.1513 218.308C40.5363 218.915 39.7942 219.219 38.925 219.219C38.0476 219.219 37.3014 218.911 36.6864 218.296C36.0714 217.681 35.7639 216.939 35.7639 216.07ZM36.6249 216.082C36.6249 216.697 36.8463 217.226 37.2891 217.669C37.7237 218.112 38.269 218.333 38.925 218.333C39.581 218.333 40.1263 218.116 40.5609 217.681C40.9955 217.238 41.2128 216.705 41.2128 216.082C41.2128 215.459 40.9955 214.926 40.5609 214.483C40.1263 214.04 39.581 213.819 38.925 213.819C38.269 213.819 37.7237 214.04 37.2891 214.483C36.8463 214.926 36.6249 215.459 36.6249 216.082ZM36.6987 208.714L42 208.714L42 209.612L36.6987 209.612L36.6987 211.863L35.85 211.863L35.85 206.463L36.6987 206.463L36.6987 208.714ZM42 199.145L42 199.784L40.6101 199.821C41.0529 200.059 41.4096 200.399 41.6802 200.842C41.9426 201.285 42.0738 201.777 42.0738 202.318C42.0738 203.187 41.7704 203.917 41.1636 204.507C40.5486 205.098 39.8024 205.393 38.925 205.393C38.0476 205.393 37.3014 205.098 36.6864 204.507C36.0714 203.917 35.7639 203.187 35.7639 202.318C35.7639 201.785 35.8992 201.297 36.1698 200.854C36.4322 200.403 36.7848 200.059 37.2276 199.821L35.85 199.784L35.85 199.145L42 199.145ZM40.5609 203.856C40.9955 203.413 41.2128 202.88 41.2128 202.257C41.2128 201.633 40.9955 201.1 40.5609 200.658C40.1263 200.215 39.581 199.993 38.925 199.993C38.269 199.993 37.7237 200.215 37.2891 200.658C36.8463 201.1 36.6249 201.633 36.6249 202.257C36.6249 202.872 36.8463 203.4 37.2891 203.843C37.7237 204.286 38.269 204.507 38.925 204.507C39.581 204.507 40.1263 204.29 40.5609 203.856Z" fill="#2B2A29"/>
<path d="M489.61 201.39L489.61 204.514C489.61 206.417 488.872 207.368 487.396 207.368C486.428 207.368 485.801 206.933 485.514 206.064C485.407 206.622 485.166 207.052 484.788 207.355C484.411 207.667 483.944 207.823 483.386 207.823C481.795 207.823 481 206.822 481 204.822L481 201.39L489.61 201.39ZM488.712 202.349L485.871 202.349L485.871 204.6C485.871 205.838 486.342 206.458 487.285 206.458C487.72 206.458 488.064 206.326 488.319 206.064C488.581 205.81 488.712 205.322 488.712 204.6L488.712 202.349ZM485.047 202.349L481.898 202.349L481.898 204.994C481.898 206.273 482.423 206.913 483.472 206.913C483.956 206.913 484.337 206.753 484.616 206.433C484.903 206.113 485.047 205.633 485.047 204.994L485.047 202.349ZM485.157 210.558L485.157 212.674C485.157 213.551 484.956 214.174 484.555 214.543C484.153 214.921 483.665 215.109 483.091 215.109C482.82 215.109 482.57 215.068 482.341 214.986C482.111 214.912 481.89 214.789 481.676 214.617C481.471 214.445 481.307 214.191 481.184 213.855C481.061 213.527 481 213.133 481 212.674L481 209.66L487.15 209.66L487.15 210.558L485.157 210.558ZM481 216.77L481 215.872L487.15 215.872L487.15 216.77L481 216.77ZM481.836 210.546L481.836 212.748C481.836 213.723 482.255 214.211 483.091 214.211C483.911 214.211 484.321 213.723 484.321 212.748L484.321 210.546L481.836 210.546ZM487.236 221.821C487.236 222.805 486.855 223.613 486.092 224.244L485.514 223.703C486.088 223.178 486.375 222.551 486.375 221.821C486.375 221.198 486.154 220.665 485.711 220.222C485.276 219.788 484.731 219.57 484.075 219.57C483.419 219.57 482.874 219.788 482.439 220.222C482.004 220.665 481.787 221.198 481.787 221.821C481.787 222.559 482.07 223.186 482.636 223.703L482.058 224.244C481.303 223.613 480.926 222.805 480.926 221.821C480.926 220.944 481.234 220.198 481.849 219.583C482.464 218.976 483.206 218.672 484.075 218.672C484.952 218.672 485.699 218.98 486.314 219.595C486.929 220.21 487.236 220.952 487.236 221.821ZM487.236 228.884C487.236 229.761 486.924 230.508 486.301 231.123C485.686 231.738 484.944 232.045 484.075 232.045C483.206 232.045 482.464 231.738 481.849 231.123C481.234 230.508 480.926 229.761 480.926 228.884C480.926 228.007 481.234 227.26 481.849 226.645C482.464 226.039 483.206 225.735 484.075 225.735C484.952 225.735 485.699 226.043 486.314 226.658C486.929 227.273 487.236 228.015 487.236 228.884ZM486.375 228.872C486.375 228.257 486.154 227.728 485.711 227.285C485.276 226.842 484.731 226.621 484.075 226.621C483.419 226.621 482.874 226.838 482.439 227.273C482.004 227.716 481.787 228.249 481.787 228.872C481.787 229.495 482.004 230.028 482.439 230.471C482.874 230.914 483.419 231.135 484.075 231.135C484.731 231.135 485.276 230.914 485.711 230.471C486.154 230.028 486.375 229.495 486.375 228.872ZM486.301 236.239L481 236.239L481 235.342L486.301 235.342L486.301 233.091L487.15 233.091L487.15 238.49L486.301 238.49L486.301 236.239ZM481 245.809L481 245.17L482.39 245.133C481.947 244.895 481.59 244.555 481.32 244.112C481.057 243.669 480.926 243.177 480.926 242.636C480.926 241.767 481.23 241.037 481.836 240.446C482.451 239.856 483.198 239.561 484.075 239.561C484.952 239.561 485.699 239.856 486.314 240.446C486.929 241.037 487.236 241.767 487.236 242.636C487.236 243.169 487.101 243.657 486.83 244.099C486.568 244.55 486.215 244.895 485.772 245.133L487.15 245.17L487.15 245.809L481 245.809ZM482.439 241.098C482.004 241.541 481.787 242.074 481.787 242.697C481.787 243.32 482.004 243.853 482.439 244.296C482.874 244.739 483.419 244.96 484.075 244.96C484.731 244.96 485.276 244.739 485.711 244.296C486.154 243.853 486.375 243.32 486.375 242.697C486.375 242.082 486.154 241.553 485.711 241.111C485.276 240.668 484.731 240.446 484.075 240.446C483.419 240.446 482.874 240.664 482.439 241.098Z" fill="#2B2A29"/>
<path d="M163.216 422H151.442V412.2H152.534V420.978H156.776V412.2H157.868V420.978H162.124V412.2H163.216V422ZM172.285 422H171.277V416.708L166.615 422H165.999V415H167.021V420.292L171.683 415H172.285V422ZM178.568 414.902C179.557 414.902 180.388 415.252 181.06 415.952C181.732 416.652 182.068 417.501 182.068 418.5C182.068 419.499 181.732 420.348 181.06 421.048C180.388 421.739 179.557 422.084 178.568 422.084C178.008 422.084 177.495 421.949 177.028 421.678C176.571 421.398 176.221 421.029 175.978 420.572V424.576H174.956V415H175.684L175.726 416.582C175.997 416.078 176.384 415.672 176.888 415.364C177.392 415.056 177.952 414.902 178.568 414.902ZM178.484 415.882C177.775 415.882 177.168 416.134 176.664 416.638C176.16 417.133 175.908 417.753 175.908 418.5C175.908 419.247 176.16 419.872 176.664 420.376C177.168 420.871 177.775 421.118 178.484 421.118C179.184 421.118 179.786 420.871 180.29 420.376C180.794 419.872 181.046 419.247 181.046 418.5C181.046 417.753 180.794 417.133 180.29 416.638C179.786 416.134 179.184 415.882 178.484 415.882ZM190.537 422H189.529V416.708L184.867 422H184.251V415H185.273V420.292L189.935 415H190.537V422ZM199.48 422H198.458V418.962H194.16V422H193.138V415H194.16V417.982H198.458V415H199.48V422ZM208.771 422H208.043L208.001 420.418C207.731 420.922 207.343 421.328 206.839 421.636C206.335 421.935 205.775 422.084 205.159 422.084C204.17 422.084 203.339 421.739 202.667 421.048C201.995 420.348 201.659 419.499 201.659 418.5C201.659 417.501 201.995 416.652 202.667 415.952C203.339 415.252 204.17 414.902 205.159 414.902C205.766 414.902 206.321 415.056 206.825 415.364C207.339 415.663 207.731 416.064 208.001 416.568L208.043 415H208.771V422ZM203.409 420.362C203.913 420.857 204.52 421.104 205.229 421.104C205.939 421.104 206.545 420.857 207.049 420.362C207.553 419.867 207.805 419.247 207.805 418.5C207.805 417.753 207.553 417.133 207.049 416.638C206.545 416.134 205.939 415.882 205.229 415.882C204.529 415.882 203.927 416.134 203.423 416.638C202.919 417.133 202.667 417.753 202.667 418.5C202.667 419.247 202.915 419.867 203.409 420.362ZM219.431 416.008L218.927 416.414L217.709 414.72L216.505 416.414L216.001 416.008L217.317 414.426L215.413 413.908L215.581 413.306L217.457 413.936L217.401 411.962H218.031L217.975 413.936L219.851 413.306L220.019 413.908L218.115 414.426L219.431 416.008ZM233.409 422H226.143V421.384L230.455 417.66C231.071 417.128 231.501 416.689 231.743 416.344C231.986 415.999 232.107 415.616 232.107 415.196C232.107 414.627 231.888 414.174 231.449 413.838C231.011 413.502 230.483 413.334 229.867 413.334L229.741 413.32C228.677 413.32 227.786 413.763 227.067 414.65L226.353 413.992C227.259 412.863 228.411 412.298 229.811 412.298H229.965C230.899 412.307 231.669 412.573 232.275 413.096C232.882 413.609 233.185 414.249 233.185 415.014C233.185 415.63 232.999 416.195 232.625 416.708C232.261 417.221 231.636 417.847 230.749 418.584L228.033 420.978H233.409V422ZM242.806 417.576H245.34V418.248H242.806V420.81H242.078V418.248H239.544V417.576H242.078V415.014H242.806V417.576ZM252.262 412.2H255.818C257.983 412.2 259.066 413.04 259.066 414.72C259.066 415.821 258.571 416.535 257.582 416.862C258.216 416.983 258.706 417.259 259.052 417.688C259.406 418.117 259.584 418.649 259.584 419.284C259.584 421.095 258.445 422 256.168 422H252.262V412.2ZM253.354 413.222V416.456H255.916C257.325 416.456 258.03 415.919 258.03 414.846C258.03 414.351 257.88 413.959 257.582 413.67C257.292 413.371 256.737 413.222 255.916 413.222H253.354ZM253.354 417.394V420.978H256.364C257.82 420.978 258.548 420.381 258.548 419.186C258.548 418.635 258.366 418.201 258.002 417.884C257.638 417.557 257.092 417.394 256.364 417.394H253.354ZM262.697 417.268H265.105C266.104 417.268 266.813 417.497 267.233 417.954C267.662 418.411 267.877 418.967 267.877 419.62C267.877 419.928 267.83 420.213 267.737 420.474C267.653 420.735 267.513 420.987 267.317 421.23C267.121 421.463 266.832 421.65 266.449 421.79C266.076 421.93 265.628 422 265.105 422H261.675V415H262.697V417.268ZM269.767 422H268.745V415H269.767V422ZM262.683 421.048H265.189C266.3 421.048 266.855 420.572 266.855 419.62C266.855 418.687 266.3 418.22 265.189 418.22H262.683V421.048ZM274.987 416.568L272.537 422H271.459L274.679 415H275.295L278.529 422H277.451L274.987 416.568ZM283.049 414.902C283.805 414.902 284.454 415.084 284.995 415.448C285.537 415.812 285.938 416.311 286.199 416.946C286.311 417.217 286.377 417.529 286.395 417.884C286.423 418.239 286.4 418.523 286.325 418.738H280.529C280.529 419.475 280.772 420.063 281.257 420.502C281.752 420.931 282.387 421.151 283.161 421.16C284.048 421.16 284.855 420.908 285.583 420.404L286.129 421.02C285.224 421.729 284.235 422.084 283.161 422.084C282.079 422.075 281.197 421.739 280.515 421.076C279.834 420.413 279.493 419.555 279.493 418.5C279.493 417.483 279.82 416.629 280.473 415.938C281.136 415.247 281.995 414.902 283.049 414.902ZM283.049 415.84C282.359 415.84 281.78 416.055 281.313 416.484C280.856 416.913 280.609 417.436 280.571 418.052H285.401C285.42 417.809 285.369 417.543 285.247 417.254C285.07 416.825 284.79 416.484 284.407 416.232C284.025 415.971 283.572 415.84 283.049 415.84ZM291.231 415.966V422H290.209V415.966H287.647V415H293.793V415.966H291.231ZM303.202 411.612V412.648C302.511 413.143 301.928 413.852 301.452 414.776C300.985 415.691 300.747 416.657 300.738 417.674V417.828C300.738 418.845 300.971 419.816 301.438 420.74C301.914 421.664 302.502 422.392 303.202 422.924V423.96C302.175 423.4 301.326 422.565 300.654 421.454C299.982 420.334 299.646 419.125 299.646 417.828V417.674C299.655 416.395 299.996 415.196 300.668 414.076C301.349 412.956 302.194 412.135 303.202 411.612ZM311.936 413.012L308.296 416.246C308.567 416.171 308.935 416.134 309.402 416.134C310.326 416.19 311.035 416.47 311.53 416.974C312.025 417.478 312.272 418.113 312.272 418.878C312.272 419.811 311.959 420.577 311.334 421.174C310.718 421.771 309.873 422.079 308.8 422.098H308.674C307.806 422.089 307.045 421.902 306.392 421.538C305.739 421.174 305.23 420.679 304.866 420.054L305.58 419.396C306.308 420.516 307.344 421.076 308.688 421.076H308.772C309.5 421.057 310.093 420.838 310.55 420.418C311.007 419.989 311.236 419.429 311.236 418.738C311.236 417.422 310.401 416.764 308.73 416.764C308.198 416.764 307.661 416.89 307.12 417.142L306.546 416.722L310.256 413.432H305.734V412.41H311.936V413.012ZM326.019 422H324.997V416.708L322.421 419.634L319.845 416.708V422H318.823V415H319.439L322.421 418.388L325.403 415H326.019V422ZM335.809 422H334.787V416.708L332.211 419.634L329.635 416.708V422H328.613V415H329.229L332.211 418.388L335.193 415H335.809V422ZM337.982 412.648V411.612C338.99 412.135 339.83 412.956 340.502 414.076C341.183 415.196 341.528 416.395 341.538 417.674V417.828C341.538 419.125 341.202 420.334 340.53 421.454C339.858 422.565 339.008 423.4 337.982 423.96V422.924C338.682 422.392 339.265 421.664 339.732 420.74C340.208 419.816 340.446 418.845 340.446 417.828V417.674C340.436 416.657 340.194 415.691 339.718 414.776C339.251 413.852 338.672 413.143 337.982 412.648ZM351.775 416.008L351.271 416.414L350.053 414.72L348.849 416.414L348.345 416.008L349.661 414.426L347.757 413.908L347.925 413.306L349.801 413.936L349.745 411.962H350.375L350.319 413.936L352.195 413.306L352.363 413.908L350.459 414.426L351.775 416.008ZM365.753 422H358.487V421.384L362.799 417.66C363.415 417.128 363.844 416.689 364.087 416.344C364.33 415.999 364.451 415.616 364.451 415.196C364.451 414.627 364.232 414.174 363.793 413.838C363.354 413.502 362.827 413.334 362.211 413.334L362.085 413.32C361.021 413.32 360.13 413.763 359.411 414.65L358.697 413.992C359.602 412.863 360.755 412.298 362.155 412.298H362.309C363.242 412.307 364.012 412.573 364.619 413.096C365.226 413.609 365.529 414.249 365.529 415.014C365.529 415.63 365.342 416.195 364.969 416.708C364.605 417.221 363.98 417.847 363.093 418.584L360.377 420.978H365.753V422Z" fill="#2F80ED"/>
<rect x="265" y="446" width="19.6283" height="19.6283" fill="white" stroke="#77569F" stroke-miterlimit="10" stroke-dasharray="2.94 2.94"/>
<rect x="262" y="1" width="85" height="73" fill="white" stroke="#E25D23" stroke-width="2"/>
<rect x="-1" y="1" width="85" height="73" transform="matrix(-1 0 0 1 457 0)" fill="white" stroke="#E25D23" stroke-width="2"/>
<rect x="87" y="446" width="19.6283" height="19.6283" fill="#F8F7F7" stroke="#2F80ED" stroke-width="0.75" stroke-miterlimit="10"/>
<path d="M274 73V15H346" stroke="black" stroke-width="2"/>
<rect x="263" y="16" width="10" height="57" fill="white"/>
<path d="M445 73V14H374" stroke="black" stroke-width="2"/>
<path d="M274 73V15H263" stroke="black" stroke-width="2"/>
<line x1="284" y1="42.5" x2="278" y2="42.5" stroke="#E25D23"/>
<line y1="-0.5" x2="6" y2="-0.5" transform="matrix(1 0 0 -1 449 42)" stroke="#E25D23"/>
<line x1="305" y1="25.5" x2="305" y2="19.5" stroke="#E25D23"/>
<path d="M288 73V29H346" stroke="#77569F" stroke-miterlimit="10" stroke-dasharray="2.94 2.94"/>
<rect x="263" y="2" width="83" height="12" fill="#F8F7F7"/>
<rect width="83" height="11" transform="matrix(-1 0 0 1 457 2)" fill="#F8F7F7"/>
<path d="M432 73V29H374" stroke="#77569F" stroke-miterlimit="10" stroke-dasharray="2.94 2.94"/>
<rect width="11" height="71" transform="matrix(-1 0 0 1 457 2)" fill="#F8F7F7"/>
<line y1="-0.5" x2="6" y2="-0.5" transform="matrix(-4.37114e-08 -1 -1 4.37114e-08 414.5 10)" stroke="#E25D23"/>
<path d="M303.336 41.824H298.828V44.33C299.36 43.9287 300.102 43.728 301.054 43.728C302.062 43.728 302.841 44.0173 303.392 44.596C303.952 45.1653 304.232 45.9213 304.232 46.864C304.232 47.7507 303.919 48.5113 303.294 49.146C302.669 49.7713 301.796 50.0887 300.676 50.098H300.55C298.945 50.0887 297.68 49.4493 296.756 48.18L297.736 47.27C298.175 47.7647 298.613 48.124 299.052 48.348C299.5 48.5627 300.009 48.67 300.578 48.67H300.662C301.269 48.6607 301.777 48.4833 302.188 48.138C302.599 47.7927 302.804 47.3307 302.804 46.752C302.804 46.136 302.608 45.6647 302.216 45.338C301.833 45.0113 301.287 44.848 300.578 44.848C300.121 44.848 299.673 44.932 299.234 45.1C298.805 45.268 298.464 45.4547 298.212 45.66L297.484 45.1V40.41H303.336V41.824ZM318.172 50H316.772V45.296L314.504 47.886L312.236 45.296V50H310.836V43H311.718L314.504 46.192L317.29 43H318.172V50ZM328.002 50H326.602V45.296L324.334 47.886L322.066 45.296V50H320.666V43H321.548L324.334 46.192L327.12 43H328.002V50Z" fill="#E25D23"/>
<path d="M390.896 41.278L387.69 44.232C387.905 44.1853 388.199 44.162 388.572 44.162C389.44 44.246 390.107 44.54 390.574 45.044C391.041 45.548 391.274 46.1733 391.274 46.92C391.274 47.8347 390.966 48.5907 390.35 49.188C389.743 49.7853 388.875 50.0887 387.746 50.098H387.634C385.973 50.0887 384.68 49.4493 383.756 48.18L384.736 47.27C385.567 48.2033 386.533 48.67 387.634 48.67H387.718C388.343 48.6607 388.852 48.474 389.244 48.11C389.645 47.746 389.846 47.2793 389.846 46.71C389.846 45.5527 389.118 44.974 387.662 44.974C387.186 44.974 386.687 45.1 386.164 45.352L385.422 44.792L388.642 41.824H384.624V40.41H390.896V41.278ZM405.227 50H403.827V45.296L401.559 47.886L399.291 45.296V50H397.891V43H398.773L401.559 46.192L404.345 43H405.227V50ZM415.057 50H413.657V45.296L411.389 47.886L409.121 45.296V50H407.721V43H408.603L411.389 46.192L414.175 43H415.057V50Z" fill="#E25D23"/>
<path d="M302 25L305.121 29L308 25H302Z" fill="#E6551F"/>
<path d="M412 9L415.121 13L418 9H412Z" fill="#E6551F"/>
<path d="M302 20L305.121 16L308 20H302Z" fill="#E6551F"/>
<path d="M412 6L415.121 2L418 6H412Z" fill="#E6551F"/>
<path d="M453 39L457 42.1207L453 45L453 39Z" fill="#E6551F"/>
<path d="M284 39L288 42.1207L284 45L284 39Z" fill="#E6551F"/>
<path d="M279 39L275 42.1207L279 45L279 39Z" fill="#E6551F"/>
<path d="M450 39L446 42.1207L450 45L450 39Z" fill="#E6551F"/>
<line x1="455" y1="42.5" x2="449" y2="42.5" stroke="#E25D23"/>
<defs>
<clipPath id="clip0">
<rect width="520.816" height="319.175" fill="white" transform="translate(0.923828 93.0004)"/>
</clipPath>
</defs>
</svg>
