<?xml version="1.0" encoding="utf-8"?>
<!-- Generator: Adobe Illustrator 24.1.2, SVG Export Plug-In . SVG Version: 6.00 Build 0)  -->
<svg version="1.1" id="Слой_1" xmlns="http://www.w3.org/2000/svg" xmlns:xlink="http://www.w3.org/1999/xlink" x="0px" y="0px"
	 viewBox="0 0 522 467" style="enable-background:new 0 0 522 467;" xml:space="preserve">
<style type="text/css">
	.st0{fill:#FFFFFF;stroke:#000000;stroke-width:0.75;stroke-miterlimit:10;}
	.st1{fill:none;stroke:#000000;stroke-miterlimit:10;stroke-dasharray:3,3;}
	.st2{fill:none;stroke:#000000;stroke-width:0.75;stroke-miterlimit:10;}
	.st3{fill:none;stroke:#E25D23;stroke-width:3;stroke-miterlimit:10;}
	.st4{fill:#E25D23;}
	.st5{fill:none;stroke:#000000;stroke-width:0.75;stroke-linejoin:round;stroke-miterlimit:10;}
	.st6{fill:#2B2A29;}
</style>
<path class="st0" d="M15.1,105.7l116.2,19.9L248.4,107l18.9,194.7l-134.6,23.7l-130-23.3L0,301.7L15.1,105.7z"/>
<path class="st1" d="M132.8,325.4V127"/>
<path class="st2" d="M2.4,302l-0.6,7.5l131.5,15.8L3,318.6v-9"/>
<path class="st2" d="M4.4,318.5l-0.1,6.3l128.9,0.7"/>
<path class="st2" d="M265.5,302.1l0.6,7.5l-132.8,15.8l131.5-6.8l-0.9-8.7"/>
<path class="st2" d="M262.6,318.5l0.9,6.3l-129.4,0.6"/>
<path class="st3" d="M24.9,167c13.4-41.2,94.9-85.1,153.3-58.5c58.4,26.7,63.2,58.4,63.2,58.4"/>
<path class="st4" d="M20.8,166.2l4.5,5.2l4.2-5.2L20.8,166.2z"/>
<path class="st4" d="M237.1,166.2l4.5,5.2l4.2-5.2L237.1,166.2z"/>
<path class="st0" d="M280,187.2c-1.7-2.9-2.3-7.4,1-12c6.3-8.6,108.5-54.9,108.5-54.9l106.3,104.8c0,0-102.2,66.4-106.8,71.1
	c-5.9,5.2-2.9,12.8-2.9,12.8l-27.9-32.4L280,187.2z"/>
<path class="st2" d="M493.6,226.8l3.8,3.8c0,0-103.5,64.6-106.6,71.1c-1.9,2.8-1.7,4.2-0.1,6.3c1.9,2.6,6.2,3,8.4,2.7
	c4.5-0.5,11.3-1.8,11.3-1.8l110.5-17.1l-6.6-6.5"/>
<path class="st2" d="M495,232l4.6,4.4c0,0-98.6,59.7-105,67.2c0,0-0.7,2.3,1.3,2.8c0.2,0.1,0.9,0,0.9,0l120.5-21.7l-4.8-5.7"/>
<path class="st5" d="M496.9,238l4.8,4.2l-3.3,1.9L398,303.8l117.7-25.7l-4.5-4.5"/>
<path class="st5" d="M498.5,244.1l4.9,4L398,303.8l115.9-31l-3.9-4.6"/>
<path class="st5" d="M501,249.3l7,4.8l-4.8,2.2 M503.1,256.2l-103.4,46.7l113.3-36L503.1,256.2z"/>
<path class="st5" d="M385.9,309.1c4.7,5.2,7.1,5.9,7.1,5.9s1.2,0.9,3.1,0.9c1.9,0,31.9-4.5,31.9-4.5l92.9-13.7v-6"/>
<path class="st5" d="M320.5,226l-23.1-27.6l-1.8,1.6l23.1,27.6L320.5,226z"/>
<path class="st5" d="M369.7,281.5l-23.1-27.6l-1.8,1.6l23.1,27.6L369.7,281.5z"/>
<path class="st6" d="M56,203.6h4.6c1.9,0,3.4,0.5,4.6,1.4s1.8,2.3,1.8,3.9c0,1.6-0.6,2.9-1.8,3.9c-1.2,1-2.7,1.4-4.6,1.4h-3v3.9H56
	V203.6z M57.6,212.7h3.1c1.4,0,2.5-0.3,3.4-1c0.9-0.6,1.3-1.6,1.3-2.9c0-1.3-0.4-2.2-1.3-2.8c-0.9-0.7-2-1-3.4-1h-3.1V212.7z
	 M79.7,218.1h-1.1l-0.1-2.3c-0.4,0.7-1,1.3-1.7,1.8c-0.7,0.4-1.6,0.7-2.5,0.7c-1.5,0-2.7-0.5-3.7-1.5c-1-1-1.5-2.3-1.5-3.8
	s0.5-2.7,1.5-3.8s2.2-1.6,3.7-1.6c0.9,0,1.7,0.2,2.5,0.7c0.8,0.4,1.3,1,1.7,1.8l0.1-2.3h1.1V218.1z M71.7,215.7
	c0.7,0.7,1.6,1.1,2.7,1.1s2-0.4,2.7-1.1c0.7-0.7,1.1-1.7,1.1-2.8s-0.4-2-1.1-2.8c-0.7-0.7-1.6-1.1-2.7-1.1c-1,0-1.9,0.4-2.7,1.1
	c-0.7,0.7-1.1,1.7-1.1,2.8S71,215,71.7,215.7z M88.2,207.6c1.7,0,3,0.6,4.1,1.9l-0.9,1c-0.9-1-1.9-1.5-3.2-1.5c-1.1,0-2,0.4-2.7,1.1
	c-0.7,0.7-1.1,1.7-1.1,2.8s0.4,2,1.1,2.8c0.7,0.7,1.6,1.1,2.7,1.1c1.2,0,2.3-0.5,3.2-1.4l0.9,1c-1.1,1.3-2.4,1.9-4.1,1.9
	c-1.5,0-2.7-0.5-3.8-1.6c-1-1-1.5-2.3-1.5-3.8c0-1.5,0.5-2.7,1.6-3.8S86.8,207.6,88.2,207.6z M103.2,218.1l-1.7-2.6
	c-0.5-0.8-1-1.4-1.3-1.6c-0.3-0.3-0.8-0.4-1.5-0.4h-1.6v4.6h-1.5v-10.4h1.5v4.3h1.3c0.7,0,1.2-0.1,1.5-0.4c0.3-0.3,0.8-0.8,1.3-1.6
	l1.5-2.3h1.7l-2,2.9c-0.4,0.6-0.7,1.1-1,1.4c-0.3,0.3-0.5,0.5-0.9,0.7c0.4,0.1,0.7,0.3,1,0.6c0.3,0.3,0.7,0.8,1.1,1.5l2.1,3.3H103.2
	z M113,207.6c1.5,0,2.7,0.5,3.7,1.6c1,1,1.5,2.3,1.5,3.8s-0.5,2.7-1.5,3.8c-1,1-2.2,1.5-3.7,1.5c-0.8,0-1.6-0.2-2.3-0.6
	c-0.7-0.4-1.2-1-1.6-1.6v5.9h-1.5v-14.2h1.1l0.1,2.3c0.4-0.7,1-1.3,1.7-1.8C111.2,207.8,112,207.6,113,207.6z M112.8,209
	c-1.1,0-2,0.4-2.7,1.1c-0.7,0.7-1.1,1.7-1.1,2.8s0.4,2,1.1,2.8c0.7,0.7,1.6,1.1,2.7,1.1c1,0,1.9-0.4,2.7-1.1
	c0.7-0.7,1.1-1.7,1.1-2.8s-0.4-2-1.1-2.8C114.8,209.4,113.9,209,112.8,209z M122.9,211.1h3.6c1.5,0,2.5,0.3,3.2,1
	c0.6,0.7,1,1.5,1,2.5c0,0.5-0.1,0.9-0.2,1.3c-0.1,0.4-0.3,0.8-0.6,1.1c-0.3,0.3-0.7,0.6-1.3,0.8c-0.6,0.2-1.2,0.3-2,0.3h-5.1v-10.4
	h1.5V211.1z M133.4,218.1h-1.5v-10.4h1.5V218.1z M122.9,216.7h3.7c1.6,0,2.5-0.7,2.5-2.1c0-1.4-0.8-2.1-2.5-2.1h-3.7V216.7z
	 M141.4,209.2v9h-1.5v-9H136v-1.4h9.1v1.4H141.4z M157.2,218.1h-1.5v-7.8l-6.9,7.8h-0.9v-10.4h1.5v7.8l6.9-7.8h0.9V218.1z
	 M165.7,207.6c1.1,0,2.1,0.3,2.9,0.8c0.8,0.5,1.4,1.3,1.8,2.2c0.2,0.4,0.3,0.9,0.3,1.4c0,0.5,0,0.9-0.1,1.3h-8.6
	c0,1.1,0.4,2,1.1,2.6c0.7,0.6,1.7,1,2.8,1c1.3,0,2.5-0.4,3.6-1.1l0.8,0.9c-1.3,1.1-2.8,1.6-4.4,1.6c-1.6,0-2.9-0.5-3.9-1.5
	c-1-1-1.5-2.3-1.5-3.8c0-1.5,0.5-2.8,1.5-3.8C162.8,208.1,164.1,207.6,165.7,207.6z M165.7,209c-1,0-1.9,0.3-2.6,1
	c-0.7,0.6-1,1.4-1.1,2.3h7.2c0-0.4,0-0.8-0.2-1.2c-0.3-0.6-0.7-1.1-1.2-1.5C167.1,209.2,166.5,209,165.7,209z M184.1,218.1h-1.6
	v-11.3l-1.8,2.2l-1.1-0.8l3.6-4.3h0.9V218.1z M194.9,210.5c0.9,0.2,1.6,0.7,2.1,1.3c0.5,0.6,0.8,1.4,0.8,2.3c0,1.2-0.5,2.2-1.4,3
	c-0.9,0.7-2.1,1.1-3.7,1.1h-0.1c-1.6,0-2.8-0.4-3.7-1.1c-0.9-0.7-1.4-1.8-1.4-3c0-0.9,0.3-1.7,0.8-2.3c0.5-0.6,1.2-1.1,2.1-1.3
	c-1.6-0.6-2.4-1.6-2.4-3.2c0-1.1,0.4-1.9,1.2-2.6c0.8-0.7,1.9-1,3.3-1h0.2c1.3,0,2.4,0.4,3.2,1c0.8,0.7,1.2,1.5,1.2,2.6
	C197.3,208.9,196.5,210,194.9,210.5z M190.6,205.8c-0.6,0.4-0.9,1-0.9,1.8c0,0.8,0.3,1.4,0.9,1.8c0.6,0.4,1.3,0.6,2.2,0.6
	c0.9,0,1.6-0.2,2.1-0.6c0.6-0.4,0.9-1,0.9-1.8c0-0.8-0.3-1.4-0.9-1.8c-0.6-0.4-1.3-0.6-2.1-0.6C191.9,205.2,191.1,205.4,190.6,205.8
	z M192.7,216.8c1,0,1.9-0.3,2.6-0.8s1-1.2,1-2.1s-0.3-1.6-1-2.1c-0.6-0.5-1.5-0.8-2.6-0.8c-0.4,0-0.7,0-1.1,0.1
	c-0.4,0.1-0.7,0.2-1.1,0.4c-0.4,0.2-0.7,0.5-1,0.9c-0.2,0.4-0.4,0.9-0.4,1.4c0,0.9,0.3,1.6,1,2.1
	C190.8,216.5,191.7,216.8,192.7,216.8z M202.6,205.9c1.4-1.4,3.1-2.1,5.1-2.1c2,0,3.7,0.7,5.2,2.1c1.4,1.4,2.1,3.1,2.1,5.1
	c0,2-0.7,3.7-2.1,5.2c-1.4,1.4-3.1,2.1-5.2,2.1c-2,0-3.7-0.7-5.1-2.1c-1.4-1.4-2.1-3.1-2.1-5.2C200.5,209,201.2,207.3,202.6,205.9z
	 M211.7,206.9c-1.1-1.1-2.4-1.6-4-1.6c-1.6,0-2.9,0.5-4,1.6c-1.1,1.1-1.6,2.5-1.6,4.1s0.5,3,1.6,4.1c1.1,1.1,2.4,1.6,4,1.6
	c1.6,0,2.9-0.5,4-1.6c1.1-1.1,1.6-2.5,1.6-4.1S212.8,208,211.7,206.9z"/>
<path class="st6" d="M219.4,202c0.7,0,1.3,0.2,1.7,0.7c0.5,0.5,0.7,1.1,0.7,1.7s-0.2,1.2-0.7,1.7c-0.5,0.5-1.1,0.7-1.7,0.7
	s-1.3-0.2-1.7-0.7c-0.5-0.5-0.7-1.1-0.7-1.7c0-0.7,0.2-1.3,0.7-1.7S218.7,202,219.4,202z M219.3,202.7c-0.5,0-0.9,0.2-1.2,0.5
	c-0.3,0.3-0.5,0.8-0.5,1.3s0.2,0.9,0.5,1.3c0.3,0.3,0.8,0.5,1.2,0.5c0.5,0,0.9-0.2,1.2-0.5c0.3-0.3,0.5-0.8,0.5-1.3
	s-0.2-0.9-0.5-1.3C220.2,202.9,219.8,202.7,219.3,202.7z"/>
<path class="st4" d="M64.2,391.2H62v-3.8c-0.5,0.7-1.3,1.1-2.4,1.1c-0.5,0-1-0.1-1.5-0.2c-0.5-0.2-0.9-0.4-1.3-0.7
	c-0.4-0.3-0.7-0.8-0.9-1.4c-0.2-0.6-0.3-1.3-0.3-2v-3.8h2.1v4c0,1.5,0.7,2.2,2.2,2.2c0.6,0,1-0.2,1.4-0.5c0.4-0.4,0.6-0.9,0.6-1.7
	v-3.9h2.1V391.2z M69.6,384.7h4.7v2h-4.7v2.4h5.1v2h-7.3v-10.9h7.3v2h-5.1V384.7z M88,391.2h-2.1v-7l-3.3,4.1l-3.3-4.1v7h-2.1v-10.9
	h1.3l4.1,5.2l4.2-5.2H88V391.2z M98.7,384.3h2.6c1.2,0,2.2,0.3,2.8,0.9c0.6,0.6,1,1.4,1,2.5c0,1.1-0.3,1.9-0.9,2.5
	c-0.6,0.6-1.6,0.9-2.8,0.9h-4.7v-10.9h7.3v2h-5.1V384.3z M98.7,389.1h2.6c1.1,0,1.7-0.5,1.7-1.4c0-0.9-0.6-1.4-1.7-1.4h-2.6V389.1z
	 M108.3,381.8c1.1-1.1,2.4-1.6,3.9-1.6c1.5,0,2.8,0.5,3.9,1.6c1.1,1.1,1.6,2.4,1.6,3.9c0,1.5-0.5,2.9-1.6,3.9
	c-1.1,1.1-2.4,1.6-3.9,1.6c-1.5,0-2.8-0.5-3.9-1.6c-1.1-1.1-1.6-2.4-1.6-3.9C106.7,384.2,107.2,382.9,108.3,381.8z M114.7,383.2
	c-0.7-0.7-1.5-1-2.4-1c-1,0-1.8,0.3-2.4,1c-0.6,0.7-1,1.5-1,2.5c0,1,0.3,1.9,1,2.6c0.7,0.7,1.5,1,2.4,1c1,0,1.8-0.3,2.4-1
	c0.7-0.7,1-1.5,1-2.6C115.7,384.7,115.3,383.8,114.7,383.2z M123.7,384.2l-2.7,7h-2.4l4.5-10.9h1.3l4.4,10.9h-2.4L123.7,384.2z
	 M133.1,384.3h2.4c1.2,0,2.1,0.3,2.8,0.9c0.6,0.6,1,1.4,1,2.5c0,1.1-0.3,1.9-0.9,2.5c-0.6,0.6-1.5,0.9-2.8,0.9h-4.6v-10.9h2.1V384.3
	z M133.1,389.1h2.5c1.1,0,1.7-0.5,1.7-1.4c0-0.9-0.6-1.4-1.7-1.4h-2.5V389.1z M154.8,391.2h-13.3v-10.9h2.1v8.9h3.4v-8.9h2.1v8.9
	h3.4v-8.9h2.1V391.2z M160.2,384.7h4.7v2h-4.7v2.4h5.1v2H158v-10.9h7.3v2h-5.1V384.7z M180,391.2l-2.2-3.5c-0.2-0.4-0.5-0.6-0.7-0.8
	c-0.2-0.1-0.5-0.2-0.8-0.2h-1v4.5h-2.1v-10.9h2.1v4.3h0.9c0.4,0,0.6-0.1,0.8-0.2c0.2-0.1,0.4-0.4,0.7-0.8l2.1-3.4h2.4l-2.6,4
	c-0.5,0.7-0.9,1.1-1.3,1.3c0.4,0.2,0.8,0.6,1.3,1.4l2.7,4.2H180z M185.2,381.8c1.1-1.1,2.4-1.6,3.9-1.6s2.8,0.5,3.9,1.6
	c1.1,1.1,1.6,2.4,1.6,3.9c0,1.5-0.5,2.9-1.6,3.9c-1.1,1.1-2.4,1.6-3.9,1.6s-2.8-0.5-3.9-1.6c-1.1-1.1-1.6-2.4-1.6-3.9
	C183.6,384.2,184.1,382.9,185.2,381.8z M191.5,383.2c-0.7-0.7-1.5-1-2.4-1c-1,0-1.8,0.3-2.4,1c-0.6,0.7-1,1.5-1,2.5
	c0,1,0.3,1.9,1,2.6c0.7,0.7,1.5,1,2.4,1c1,0,1.8-0.3,2.4-1c0.7-0.7,1-1.5,1-2.6C192.5,384.7,192.2,383.8,191.5,383.2z M200.5,384.2
	l-2.7,7h-2.4l4.5-10.9h1.3l4.4,10.9h-2.4L200.5,384.2z M216.3,391.2h-2.1v-6.9l-5.2,6.9h-1.3v-10.9h2.1v6.9l5.2-6.9h1.3V391.2z
	 M227.1,391.2H225v-3.8c-0.5,0.7-1.3,1.1-2.4,1.1c-0.5,0-1-0.1-1.5-0.2c-0.5-0.2-0.9-0.4-1.3-0.7c-0.4-0.3-0.7-0.8-0.9-1.4
	c-0.2-0.6-0.3-1.3-0.3-2v-3.8h2.1v4c0,1.5,0.7,2.2,2.2,2.2c0.6,0,1-0.2,1.4-0.5c0.4-0.4,0.6-0.9,0.6-1.7v-3.9h2.1V391.2z
	 M232.6,384.7h4.7v2h-4.7v2.4h5.1v2h-7.3v-10.9h7.3v2h-5.1V384.7z M245.1,380.2c1.6,0,3,0.6,4.1,1.8l-1.4,1.3
	c-0.7-0.7-1.6-1.1-2.7-1.1c-1,0-1.8,0.3-2.4,1c-0.6,0.7-1,1.5-1,2.5c0,1,0.3,1.9,1,2.6c0.7,0.7,1.5,1,2.4,1c1.1,0,2-0.4,2.7-1.1
	l1.4,1.3c-1.1,1.2-2.5,1.8-4.1,1.8c-1.5,0-2.8-0.5-3.9-1.6c-1.1-1.1-1.6-2.4-1.6-3.9c0-1.5,0.5-2.8,1.6-3.9
	C242.3,380.7,243.6,380.2,245.1,380.2z M255.9,382.3v8.9h-2.1v-8.9h-3v-2h8.1v2H255.9z M261.2,380.3h4.2c0.7,0,1.4,0.1,1.9,0.3
	c0.5,0.2,0.9,0.4,1.1,0.8c0.2,0.3,0.4,0.6,0.5,0.9c0.1,0.3,0.1,0.6,0.1,0.9c0,1.2-0.5,1.9-1.4,2.3c0.6,0.1,1,0.4,1.4,0.9
	c0.3,0.5,0.5,1,0.5,1.7c0,2.1-1.3,3.1-4,3.1h-4.3V380.3z M263.3,382.3v2.3h2.3c0.5,0,0.9-0.1,1.1-0.3c0.2-0.2,0.3-0.5,0.3-0.8
	c0-0.8-0.5-1.2-1.4-1.2H263.3z M263.3,386.5v2.6h2.6c0.6,0,0.9-0.1,1.2-0.4c0.2-0.2,0.4-0.6,0.4-1c0-0.4-0.1-0.7-0.4-0.9
	c-0.2-0.3-0.6-0.4-1.2-0.4H263.3z M272.8,381.8c1.1-1.1,2.4-1.6,3.9-1.6c1.5,0,2.8,0.5,3.9,1.6c1.1,1.1,1.6,2.4,1.6,3.9
	c0,1.5-0.5,2.9-1.6,3.9c-1.1,1.1-2.4,1.6-3.9,1.6c-1.5,0-2.8-0.5-3.9-1.6c-1.1-1.1-1.6-2.4-1.6-3.9
	C271.2,384.2,271.8,382.9,272.8,381.8z M279.2,383.2c-0.7-0.7-1.5-1-2.4-1c-1,0-1.8,0.3-2.4,1c-0.6,0.7-1,1.5-1,2.5
	c0,1,0.3,1.9,1,2.6c0.7,0.7,1.5,1,2.4,1c1,0,1.8-0.3,2.4-1c0.7-0.7,1-1.5,1-2.6C280.2,384.7,279.8,383.8,279.2,383.2z M294.9,380.2
	c1.6,0,3,0.6,4.1,1.8l-1.4,1.3c-0.7-0.7-1.6-1.1-2.7-1.1c-1,0-1.8,0.3-2.4,1c-0.6,0.7-1,1.5-1,2.5c0,1,0.3,1.9,1,2.6
	c0.7,0.7,1.5,1,2.4,1c1.1,0,2-0.4,2.7-1.1l1.4,1.3c-1.1,1.2-2.5,1.8-4.1,1.8c-1.5,0-2.8-0.5-3.9-1.6c-1.1-1.1-1.6-2.4-1.6-3.9
	c0-1.5,0.5-2.8,1.6-3.9C292.1,380.7,293.4,380.2,294.9,380.2z M305.7,382.3v8.9h-2.1v-8.9h-3v-2h8.1v2H305.7z M311,380.3h3.6
	c1.5,0,2.7,0.4,3.6,1.2c0.9,0.8,1.3,1.8,1.3,3c0,1.2-0.4,2.2-1.3,3c-0.9,0.8-2.1,1.2-3.6,1.2h-1.4v2.5H311V380.3z M313.1,386.6h1.6
	c0.8,0,1.4-0.2,1.9-0.5c0.5-0.4,0.8-0.9,0.8-1.6c0-0.7-0.3-1.2-0.8-1.6s-1.1-0.6-1.9-0.6h-1.6V386.6z M323.1,389.2l-0.8,2H320
	l4.5-10.9h1.3l4.4,10.9h-2.4l-0.8-2H323.1z M325.1,384.2l-1.2,3h2.4L325.1,384.2z M340.7,391.2h-2.1v-4.5h-4.2v4.5h-2.1v-10.9h2.1
	v4.4h4.2v-4.4h2.1V391.2z M352.3,391.2h-2.1v-6.9l-5.2,6.9h-1.3v-10.9h2.1v6.9l5.2-6.9h1.3V391.2z M365.1,393.2h-2.1v-2h-7.7v-10.9
	h2.1v8.9h4.2v-8.9h2.1v8.9h1.4V393.2z M370,389.2l-1.9,4.2h-1.4l1.3-4.2H370z M381.9,382.3v8.9h-2.1v-8.9h-3v-2h8.1v2H381.9z
	 M389.4,384.7h4.7v2h-4.7v2.4h5.1v2h-7.3v-10.9h7.3v2h-5.1V384.7z M407.8,391.2h-2.1v-7l-3.3,4.1l-3.3-4.1v7h-2.1v-10.9h1.3l4.1,5.2
	l4.2-5.2h1.3V391.2z M420.3,387.5l-2.5,3.7h-2.5l3.8-5.7l-3.5-5.2h2.4l2.3,3.3l2.3-3.3h2.4l-3.5,5.3l3.8,5.6h-2.4L420.3,387.5z
	 M430.8,391.2h-2.4l2.2-3.9l-4-7h2.4l2.7,4.8l2.7-4.8h2.4L430.8,391.2z M451.6,391.2l-2.2-3.5c-0.3-0.4-0.5-0.6-0.7-0.8
	c-0.2-0.1-0.5-0.2-0.8-0.2h-0.6v4.5h-2.1v-4.5h-0.6c-0.4,0-0.6,0.1-0.8,0.2c-0.2,0.1-0.4,0.4-0.7,0.8l-2.2,3.5h-2.4l2.7-4.2
	c0.5-0.8,0.9-1.2,1.3-1.4c-0.3-0.2-0.8-0.6-1.3-1.3l-2.6-4h2.4l2.1,3.4c0.3,0.4,0.5,0.6,0.7,0.8s0.5,0.2,0.8,0.2h0.5v-4.3h2.1v4.3
	h0.5c0.4,0,0.6-0.1,0.8-0.2c0.2-0.1,0.4-0.4,0.7-0.8l2.1-3.4h2.4l-2.6,4c-0.5,0.7-0.9,1.1-1.2,1.3c0.4,0.2,0.8,0.7,1.3,1.4l2.7,4.2
	H451.6z M458.2,384.7h4.7v2h-4.7v2.4h5.1v2h-7.3v-10.9h7.3v2h-5.1V384.7z M134.6,405.3h1.4c0.5,0,0.9-0.1,1.1-0.3
	c0.2-0.2,0.3-0.5,0.3-0.8c0-0.8-0.5-1.2-1.5-1.2h-0.1c-0.4,0-0.9,0.1-1.5,0.3c-0.5,0.2-1,0.5-1.4,0.8l-1.4-1.3c0.6-0.6,1.2-1,2-1.3
	c0.7-0.3,1.5-0.5,2.2-0.5h0.1c0.6,0,1.1,0.1,1.5,0.2c0.4,0.1,0.8,0.3,1,0.5c0.3,0.2,0.5,0.4,0.6,0.7c0.2,0.3,0.3,0.5,0.3,0.8
	c0.1,0.2,0.1,0.5,0.1,0.7c0,0.6-0.1,1.1-0.4,1.6c-0.3,0.4-0.6,0.8-1.1,0.9c0.6,0.1,1,0.4,1.3,0.9c0.3,0.5,0.5,1,0.5,1.7
	c0,0.9-0.3,1.7-1,2.3c-0.6,0.6-1.7,0.9-3.1,0.9h-0.1c-0.8,0-1.6-0.2-2.4-0.5c-0.8-0.4-1.4-0.8-2-1.4l1.4-1.3
	c0.4,0.4,0.9,0.7,1.4,0.9c0.6,0.2,1.1,0.3,1.6,0.3h0.1c1.3,0,1.9-0.5,1.9-1.4c0-0.4-0.1-0.7-0.4-0.9c-0.2-0.3-0.6-0.4-1.2-0.4h-1.6
	V405.3z M144.2,409.9l-0.8,2h-2.4l4.5-10.9h1.3l4.4,10.9h-2.4l-0.8-2H144.2z M146.2,404.9l-1.2,3h2.4L146.2,404.9z M160.2,411.9
	l-2.2-3.5c-0.2-0.4-0.5-0.6-0.7-0.8c-0.2-0.1-0.5-0.2-0.8-0.2h-1v4.5h-2.1V401h2.1v4.3h0.9c0.4,0,0.6-0.1,0.8-0.2
	c0.2-0.1,0.4-0.4,0.7-0.8l2.1-3.4h2.4l-2.6,4c-0.5,0.7-0.9,1.1-1.3,1.3c0.4,0.2,0.8,0.6,1.3,1.4l2.7,4.2H160.2z M164.9,401h3.6
	c1.5,0,2.7,0.4,3.6,1.2c0.9,0.8,1.3,1.8,1.3,3c0,1.2-0.4,2.2-1.3,3c-0.9,0.8-2.1,1.2-3.6,1.2h-1.4v2.5h-2.1V401z M167.1,407.4h1.6
	c0.8,0,1.4-0.2,1.9-0.5c0.5-0.4,0.8-0.9,0.8-1.6c0-0.7-0.3-1.2-0.8-1.6c-0.5-0.4-1.1-0.6-1.9-0.6h-1.6V407.4z M177.9,405h2.4
	c1.2,0,2.1,0.3,2.8,0.9c0.6,0.6,1,1.4,1,2.5c0,1.1-0.3,1.9-0.9,2.5c-0.6,0.6-1.5,0.9-2.8,0.9h-4.6V401h2.1V405z M187.4,411.9h-2.1
	V401h2.1V411.9z M177.9,409.9h2.5c1.1,0,1.7-0.5,1.7-1.4c0-0.9-0.6-1.4-1.7-1.4h-2.5V409.9z M190.7,401h4.2c0.7,0,1.4,0.1,1.9,0.3
	c0.5,0.2,0.9,0.4,1.1,0.8c0.2,0.3,0.4,0.6,0.5,0.9c0.1,0.3,0.1,0.6,0.1,0.9c0,1.2-0.5,1.9-1.4,2.3c0.6,0.1,1,0.4,1.4,0.9
	c0.3,0.5,0.5,1,0.5,1.7c0,2.1-1.3,3.1-4,3.1h-4.3V401z M192.8,403.1v2.3h2.3c0.5,0,0.9-0.1,1.1-0.3c0.2-0.2,0.3-0.5,0.3-0.8
	c0-0.8-0.5-1.2-1.4-1.2H192.8z M192.8,407.2v2.6h2.6c0.6,0,0.9-0.1,1.2-0.4c0.2-0.2,0.4-0.6,0.4-1c0-0.4-0.1-0.7-0.4-0.9
	c-0.2-0.3-0.6-0.4-1.2-0.4H192.8z M203.4,409.9l-0.8,2h-2.4l4.5-10.9h1.3l4.4,10.9H208l-0.8-2H203.4z M205.3,404.9l-1.2,3h2.4
	L205.3,404.9z M214.9,405.4h4.7v2h-4.7v2.4h5.1v2h-7.3V401h7.3v2h-5.1V405.4z M226.8,403.1v8.9h-2.1v-8.9h-3v-2h8.1v2H226.8z
	 M236.8,400.9c1.6,0,3,0.6,4.1,1.8l-1.4,1.3c-0.7-0.7-1.6-1.1-2.7-1.1c-1,0-1.8,0.3-2.4,1c-0.6,0.7-1,1.5-1,2.5c0,1,0.3,1.9,1,2.6
	c0.7,0.7,1.5,1,2.4,1c1.1,0,2-0.4,2.7-1.1l1.4,1.3c-1.1,1.2-2.5,1.8-4.1,1.8c-1.5,0-2.8-0.5-3.9-1.6c-1.1-1.1-1.6-2.4-1.6-3.9
	c0-1.5,0.5-2.8,1.6-3.9C233.9,401.5,235.2,400.9,236.8,400.9z M251.2,411.9H249v-2.7h-1.2c-0.5,0-0.9,0.1-1.2,0.3
	c-0.2,0.2-0.6,0.6-1,1.3l-0.7,1.1h-2.4l0.9-1.4c0.7-1,1.2-1.6,1.6-1.9c-0.7-0.3-1.3-0.7-1.7-1.3c-0.4-0.6-0.6-1.3-0.6-2.1
	c0-1.2,0.4-2.2,1.2-2.9c0.8-0.8,2-1.2,3.5-1.2h3.7V411.9z M249,403.1h-1.8c-0.7,0-1.3,0.2-1.8,0.5c-0.5,0.4-0.7,0.9-0.7,1.5
	c0,0.7,0.2,1.2,0.7,1.6c0.5,0.4,1.1,0.5,1.8,0.5h1.8V403.1z M259.7,401h4.2c0.7,0,1.4,0.1,1.9,0.3c0.5,0.2,0.9,0.4,1.1,0.8
	c0.2,0.3,0.4,0.6,0.5,0.9c0.1,0.3,0.1,0.6,0.1,0.9c0,1.2-0.5,1.9-1.4,2.3c0.6,0.1,1,0.4,1.4,0.9c0.3,0.5,0.5,1,0.5,1.7
	c0,2.1-1.3,3.1-4,3.1h-4.3V401z M261.8,403.1v2.3h2.3c0.5,0,0.9-0.1,1.1-0.3c0.2-0.2,0.3-0.5,0.3-0.8c0-0.8-0.5-1.2-1.4-1.2H261.8z
	 M261.8,407.2v2.6h2.6c0.6,0,0.9-0.1,1.2-0.4c0.2-0.2,0.4-0.6,0.4-1c0-0.4-0.1-0.7-0.4-0.9c-0.2-0.3-0.6-0.4-1.2-0.4H261.8z
	 M272.4,409.9l-0.8,2h-2.4l4.5-10.9h1.3l4.4,10.9h-2.4l-0.8-2H272.4z M274.4,404.9l-1.2,3h2.4L274.4,404.9z M294.9,411.9h-13.3V401
	h2.1v8.9h3.4V401h2.1v8.9h3.4V401h2.1V411.9z M300.2,405.4h4.7v2h-4.7v2.4h5.1v2h-7.3V401h7.3v2h-5.1V405.4z M321.7,411.9h-2.1v-6.9
	l-5.2,6.9h-1.3V401h2.1v6.9l5.2-6.9h1.3V411.9z M327.1,405.3h1.4c0.5,0,0.9-0.1,1.1-0.3c0.2-0.2,0.3-0.5,0.3-0.8
	c0-0.8-0.5-1.2-1.5-1.2h-0.1c-0.4,0-0.9,0.1-1.5,0.3c-0.5,0.2-1,0.5-1.4,0.8l-1.4-1.3c0.6-0.6,1.2-1,2-1.3c0.7-0.3,1.5-0.5,2.2-0.5
	h0.1c0.6,0,1.1,0.1,1.5,0.2c0.4,0.1,0.8,0.3,1,0.5c0.3,0.2,0.5,0.4,0.6,0.7s0.3,0.5,0.3,0.8c0.1,0.2,0.1,0.5,0.1,0.7
	c0,0.6-0.1,1.1-0.4,1.6c-0.3,0.4-0.6,0.8-1.1,0.9c0.6,0.1,1,0.4,1.3,0.9c0.3,0.5,0.5,1,0.5,1.7c0,0.9-0.3,1.7-1,2.3
	c-0.6,0.6-1.7,0.9-3.1,0.9h-0.1c-0.8,0-1.6-0.2-2.4-0.5c-0.8-0.4-1.4-0.8-2-1.4l1.4-1.3c0.4,0.4,0.9,0.7,1.4,0.9
	c0.6,0.2,1.1,0.3,1.6,0.3h0.1c1.3,0,1.9-0.5,1.9-1.4c0-0.4-0.1-0.7-0.4-0.9c-0.2-0.3-0.6-0.4-1.2-0.4h-1.6V405.3z M345.1,413.9h-2.1
	v-2h-7.1v2h-2.1v-4h1.4l3.6-8.9h1.3l3.6,8.9h1.4V413.9z M339.4,405l-1.9,4.9h3.9L339.4,405z M349.4,405.4h4.7v2h-4.7v2.4h5.1v2h-7.3
	V401h7.3v2h-5.1V405.4z M361.3,405l-2.7,7h-2.4l4.5-10.9h1.3l4.4,10.9H364L361.3,405z M377.1,411.9H375v-6.9l-5.2,6.9h-1.3V401h2.1
	v6.9l5.2-6.9h1.3V411.9z M382.4,405.4h4.7v2h-4.7v2.4h5.1v2h-7.3V401h7.3v2h-5.1V405.4z"/>
</svg>
