<svg width="79" height="79" viewBox="0 0 79 79" fill="none" xmlns="http://www.w3.org/2000/svg">
<circle cx="39.5" cy="39.5001" r="38" stroke="#E25D23" stroke-width="3"/>
<circle cx="39.5" cy="39.5001" r="32.5" fill="#E25D23"/>
<path d="M22.8856 39.6398C22.8856 34.8013 22.8838 29.961 22.8856 25.1224C22.8856 23.4777 23.6857 22.6766 25.3286 22.6766C35.1042 22.6749 44.878 22.6749 54.6536 22.6766C56.3089 22.6766 57.1144 23.4707 57.1144 25.1047C57.1161 34.8278 57.1161 44.5491 57.1144 54.2722C57.1144 55.9151 56.3107 56.7215 54.6714 56.7215C44.8958 56.7233 35.1219 56.7233 25.3463 56.7215C23.6963 56.7215 22.8856 55.9204 22.8856 54.2899C22.8838 49.4071 22.8856 44.5243 22.8856 39.6398ZM25.1152 46.7738C25.7446 46.2698 26.262 45.8613 26.7741 45.4475C28.9824 43.6649 31.1836 41.8734 33.399 40.1014C34.2596 39.4135 35.0882 39.4966 35.7869 40.2942C36.5888 41.2102 37.3907 42.1281 38.1855 43.0512C38.7793 43.7409 38.7687 43.7374 39.4834 43.1555C42.4741 40.7204 45.4683 38.2869 48.466 35.8588C49.3302 35.1585 50.1872 35.208 50.9393 36.0038C52.0648 37.1958 53.1743 38.4037 54.2962 39.5974C54.4509 39.7618 54.5718 39.9864 54.842 40.0483C54.8616 39.9387 54.8812 39.875 54.8812 39.8114C54.8829 35.2805 54.8883 30.7497 54.8794 26.2206C54.8776 25.2551 54.4491 24.8961 53.3805 24.8961C44.5153 24.8943 35.65 24.8943 26.7848 24.8961C25.4281 24.8961 25.1152 25.2161 25.1152 26.592C25.1134 30.083 25.1152 33.5757 25.1152 37.0667C25.1152 40.2482 25.1152 43.4279 25.1152 46.7738ZM54.8847 48.7333H54.8829C54.8829 47.2549 54.8776 45.7747 54.8865 44.2962C54.8883 43.9514 54.8225 43.6613 54.5718 43.3925C53.0409 41.7638 51.5082 40.1368 50.0147 38.4762C49.6004 38.0164 49.3266 38.0411 48.8768 38.4125C46.2471 40.5842 43.596 42.7293 40.9521 44.8833C40.2676 45.4404 40.264 45.4422 40.833 46.0947C43.1408 48.7492 45.4558 51.3984 47.7566 54.0582C48.0251 54.3694 48.3113 54.5127 48.7292 54.5074C50.3045 54.4897 51.8816 54.5056 53.457 54.4985C54.5096 54.4932 54.8794 54.1095 54.8847 53.0378C54.8901 51.6035 54.8847 50.1693 54.8847 48.7333ZM44.8086 54.5038C44.7037 54.3323 44.6682 54.2527 44.6148 54.1908C41.3361 50.4116 38.0539 46.6359 34.7823 42.8514C34.489 42.5136 34.2649 42.5507 33.952 42.8072C31.1338 45.1026 28.3121 47.3928 25.4833 49.6759C25.2166 49.8917 25.1045 50.1339 25.1116 50.4717C25.1276 51.2888 25.117 52.1058 25.117 52.9246C25.117 54.1466 25.469 54.5038 26.6994 54.5038C29.2758 54.5074 31.8521 54.5056 34.4285 54.5056C37.8459 54.5038 41.265 54.5038 44.8086 54.5038Z" fill="white"/>
<path d="M31.4591 35.5069C29.0712 35.5104 27.1527 33.6376 27.151 31.3032C27.1492 28.7495 28.9823 26.9192 31.5391 26.9192C33.911 26.9192 35.7833 28.7991 35.7851 31.1794C35.7868 33.627 33.911 35.5033 31.4591 35.5069ZM31.5018 33.2698C32.5313 33.2733 33.5127 32.3112 33.5359 31.2767C33.5607 30.1696 32.6077 29.1757 31.4982 29.1474C30.4136 29.1209 29.393 30.1201 29.393 31.2095C29.393 32.3112 30.3727 33.2662 31.5018 33.2698Z" fill="white"/>
</svg>
