<svg width="34" height="15" viewBox="0 0 34 15" fill="none" xmlns="http://www.w3.org/2000/svg">
<rect y="0.00012207" width="34" height="15" rx="7.5" fill="#2B2A29"/>
<path d="M7.05 4.00012H9.35C10.31 4.00012 11.07 4.25346 11.63 4.76012C12.19 5.26012 12.47 5.90346 12.47 6.69012C12.47 7.48346 12.19 8.13346 11.63 8.64012C11.07 9.14012 10.31 9.39012 9.35 9.39012H8.43V11.0001H7.05V4.00012ZM8.43 8.09012H9.46C9.94667 8.09012 10.35 7.97346 10.67 7.74012C10.9967 7.50679 11.16 7.15679 11.16 6.69012C11.16 6.24346 10.9967 5.90012 10.67 5.66012C10.3433 5.42012 9.94 5.30012 9.46 5.30012H8.43V8.09012ZM14.1008 4.00012H16.5308C17.5241 4.00012 18.3641 4.33346 19.0508 5.00012C19.7441 5.66012 20.0908 6.49346 20.0908 7.50012C20.0908 8.50679 19.7474 9.34346 19.0608 10.0101C18.3741 10.6701 17.5308 11.0001 16.5308 11.0001H14.1008V4.00012ZM15.4808 9.70012H16.5308C17.1641 9.70012 17.6841 9.50679 18.0908 9.12012C18.5041 8.72679 18.7108 8.18679 18.7108 7.50012C18.7108 6.81346 18.5041 6.27679 18.0908 5.89012C17.6841 5.49679 17.1641 5.30012 16.5308 5.30012H15.4808V9.70012ZM23.098 6.83012H26.128V8.13012H23.098V11.0001H21.718V4.00012H26.378V5.30012H23.098V6.83012Z" fill="white"/>
</svg>
