<svg width="79" height="79" viewBox="0 0 79 79" fill="none" xmlns="http://www.w3.org/2000/svg">
<circle cx="39.5" cy="39.5001" r="38" stroke="#E25D23" stroke-width="3"/>
<circle cx="39.5" cy="39.5001" r="32.5" fill="#E25D23"/>
<path d="M35.6425 29.838C36.5294 29.838 37.4164 29.8488 38.3033 29.8333C38.6518 29.8271 38.8352 29.8892 38.9574 30.2584C41.055 36.6561 43.1741 43.0476 45.2998 49.4359C45.4385 49.8548 45.4237 50.0099 44.8836 49.996C43.5226 49.9618 42.16 49.9727 40.799 49.9929C40.4043 49.9991 40.2209 49.8951 40.1086 49.5213C39.6841 48.1049 39.2051 46.7025 38.7774 45.2877C38.6684 44.9262 38.4966 44.7975 38.0936 44.8021C36.3825 44.8238 34.6697 44.8238 32.9569 44.8021C32.5374 44.7975 32.3953 44.9479 32.2962 45.3063C31.9114 46.6901 31.4787 48.0615 31.0889 49.4437C30.9815 49.8238 30.8461 50.0161 30.3605 49.9991C29.1234 49.9572 27.8846 49.9851 26.6475 49.9851C25.9125 49.9851 25.9109 49.9836 26.119 49.3444C27.8747 43.9442 29.6304 38.5425 31.3878 33.1408C31.695 32.1991 32.027 31.2636 32.3012 30.3127C32.4085 29.945 32.577 29.8163 32.98 29.8287C33.867 29.8566 34.7556 29.838 35.6425 29.838ZM35.4972 33.2431C35.403 33.4386 35.3452 33.5224 35.3221 33.6139C34.7275 36.1054 34.0288 38.572 33.2393 41.0153C33.1369 41.3349 33.2393 41.4187 33.5796 41.4156C34.8563 41.4016 36.1347 41.3907 37.4114 41.4202C37.864 41.4311 37.8723 41.2759 37.7698 40.9502C36.9721 38.4339 36.1743 35.9176 35.4972 33.2431Z" fill="white"/>
<path d="M48.0118 42.638C48.0118 40.3917 48.025 38.1453 48.0019 35.899C47.9969 35.4538 48.1423 35.3452 48.5965 35.3545C49.8336 35.3824 51.0707 35.3762 52.3078 35.3576C52.6959 35.3514 52.8528 35.4336 52.8512 35.8323C52.838 40.4025 52.8396 44.9743 52.8512 49.5445C52.8528 49.9168 52.7058 49.9975 52.3441 49.9928C51.0657 49.9773 49.7873 49.968 48.5089 49.9975C48.0729 50.0068 48.0019 49.8532 48.0035 49.4949C48.0184 47.2098 48.0118 44.9247 48.0118 42.638Z" fill="white"/>
<path d="M50.4167 33.5379C48.9236 33.541 47.9161 32.6443 47.9045 31.3039C47.8929 29.9388 48.9054 29.0111 50.42 29.0002C51.8916 28.9894 52.9867 29.9574 52.9999 31.2791C53.0131 32.5807 51.9197 33.5363 50.4167 33.5379Z" fill="white"/>
</svg>
