<svg width="25" height="26" viewBox="0 0 25 26" fill="none" xmlns="http://www.w3.org/2000/svg">
<path d="M9.34991 3.63104C8.49624 2.95203 7.56176 2.41796 6.59085 1.94208C6.37459 1.83595 6.14808 1.73781 5.958 1.59402C5.66092 1.37035 5.52661 1.07022 5.67003 0.691341C5.818 0.301055 6.08434 0.087653 6.51573 0.116183C6.94143 0.144712 7.30907 0.348985 7.66989 0.538422C9.39544 1.43996 11.0083 2.49898 12.2387 4.04872C12.4254 4.2838 12.5335 4.22674 12.6895 4.02932C14.0542 2.29243 15.8754 1.17406 17.8206 0.222313C17.9856 0.141289 18.1609 0.0739587 18.3385 0.0294524C18.7437 -0.0732545 19.0874 0.0887941 19.2684 0.443704C19.4585 0.819154 19.4084 1.16722 19.0635 1.43654C18.557 1.83367 17.9447 2.0505 17.3915 2.37231C16.7085 2.76944 16.045 3.19054 15.4611 3.73489C16.2168 3.36857 16.9886 3.0536 17.7808 2.79455C19.3037 2.29471 20.8699 2.03338 22.4714 2.00941C23.0712 2.00028 23.3956 2.31069 23.4025 2.83221C23.4081 3.29097 23.1668 3.58882 22.6137 3.68125C21.9569 3.79195 21.2854 3.81934 20.6275 3.92775C18.9326 4.20734 17.3198 4.73 15.8458 5.65323C16.5469 5.47292 17.2447 5.27549 17.9515 5.11687C19.7055 4.72316 21.4777 4.50976 23.2807 4.56681C24.741 4.6136 25.0324 4.87722 24.9982 6.34707C24.8822 11.3934 24.9322 16.4397 24.9106 21.4872C24.9095 21.6572 24.9015 21.8296 24.8753 21.9985C24.7752 22.6409 24.5543 22.8566 23.9169 22.8395C20.1562 22.7345 16.6027 23.7251 13.0822 24.8879C12.7031 25.0135 12.3571 25.05 11.9656 24.9199C9.26113 24.0263 6.51801 23.2857 3.67927 22.9662C2.93373 22.8829 2.1882 22.7916 1.42786 22.9C0.592402 23.0198 0.27256 22.7596 0.195161 21.9037C0.0870295 20.7101 0.15077 19.5107 0.139388 18.3136C0.124591 16.9019 0.166705 15.4891 0.116623 14.0786C0.0232888 11.3854 0.0961353 8.69107 0.00280078 5.999C-0.0302078 5.05524 0.22134 4.75283 1.14217 4.6467C3.01455 4.43101 4.8562 4.65811 6.6876 5.04269C7.50599 5.21501 8.31299 5.43298 9.12796 5.63725C8.26519 5.05981 7.31477 4.67295 6.32792 4.37966C5.12482 4.02247 3.89553 3.80336 2.64007 3.74288C2.52739 3.73717 2.41243 3.72234 2.30316 3.69495C1.83421 3.5774 1.55534 3.20766 1.5929 2.76374C1.62933 2.33009 1.93323 2.04935 2.43178 2.01398C3.01682 1.9729 3.59618 2.06077 4.17326 2.1338C5.92158 2.35405 7.59363 2.84362 9.18032 3.62077C9.22585 3.64131 9.27252 3.69152 9.34991 3.63104ZM13.3986 15.7493H13.4009C13.4009 17.8171 13.402 19.8838 13.4009 21.9517C13.3997 22.973 13.3974 22.9707 14.3627 22.6934C17.099 21.906 19.8455 21.1745 22.7218 21.1665C23.0701 21.1654 23.1031 20.9588 23.1088 20.6907C23.127 19.6933 23.168 18.697 23.1725 17.6996C23.1873 14.0923 23.1873 10.485 23.2044 6.87886C23.2067 6.49885 23.135 6.3037 22.6933 6.31169C21.9535 6.32539 21.2171 6.37103 20.4829 6.45092C18.2019 6.69969 16.0359 7.36501 13.9347 8.27111C13.5545 8.43544 13.3906 8.65569 13.3929 9.07565C13.4066 11.301 13.3986 13.5251 13.3986 15.7493ZM11.5899 15.7151C11.5899 13.7043 11.5399 11.6924 11.6127 9.6839C11.6446 8.8029 11.4181 8.35784 10.5542 8.03146C7.86681 7.0158 5.11571 6.39728 2.24283 6.3231C1.91388 6.31511 1.77274 6.43152 1.78982 6.76817C1.82282 7.40837 1.85583 8.04858 1.85811 8.68993C1.86949 12.1831 1.87177 15.6774 1.87746 19.1706C1.8786 19.7127 1.88201 20.2547 1.8786 20.7956C1.87746 21.0433 1.95714 21.1369 2.23372 21.13C2.71519 21.1186 3.19894 21.1528 3.67927 21.203C6.205 21.4724 8.66015 22.0772 11.0903 22.795C11.5865 22.9411 11.5899 22.9388 11.5899 22.4298C11.5911 20.1931 11.5899 17.9541 11.5899 15.7151ZM12.5142 6.91766C12.9865 6.91081 13.1425 6.69741 12.9843 6.2786C12.9592 6.21241 12.9467 6.14165 12.9331 6.07204C12.8693 5.74338 12.5882 5.59731 12.29 5.73881C12.233 5.7662 11.813 6.56846 11.8404 6.62095C11.8643 6.6666 11.9075 6.71225 11.953 6.73507C12.1306 6.82408 12.3082 6.91652 12.5142 6.91766Z" fill="white"/>
</svg>
