<svg width="79" height="79" viewBox="0 0 79 79" fill="none" xmlns="http://www.w3.org/2000/svg">
<circle cx="39.5" cy="39.5" r="38" stroke="#E25D23" stroke-width="3"/>
<circle cx="39.5" cy="39.5" r="32.5" fill="#E25D23"/>
<path d="M27.0161 39.4228C27.0161 36.1635 27.0161 32.9042 27.0173 29.6449C27.0173 29.4518 26.9436 29.2376 27.2854 29.2084C29.6926 29.0012 32.0998 28.8304 34.4961 29.3032C38.4626 30.0861 40.1004 33.006 39.7525 36.4736C39.3853 40.1425 36.4709 41.857 33.6808 42.2456C32.694 42.3837 31.6964 42.3977 30.7035 42.4492C30.3484 42.4679 30.2639 42.6002 30.2663 42.9302C30.282 45.0052 30.2663 47.0813 30.282 49.1562C30.2844 49.5062 30.212 49.6454 29.817 49.6291C29.0645 49.5986 28.3072 49.5951 27.5548 49.6314C27.1284 49.6513 26.9919 49.5542 27.0004 49.1141C27.0306 47.4921 27.0124 45.87 27.0124 44.2468C27.0124 42.6388 27.0124 41.0308 27.0124 39.4228C27.0137 39.4228 27.0149 39.4228 27.0161 39.4228ZM30.3653 35.7492C30.3641 35.7492 30.3629 35.7492 30.3617 35.7492C30.3617 36.7721 30.369 37.7937 30.3569 38.8154C30.3533 39.0881 30.4209 39.2145 30.7301 39.204C31.392 39.1817 32.0563 39.2086 32.7182 39.1735C34.5601 39.0776 35.5698 38.2782 36.0517 36.5649C36.5856 34.6679 35.542 32.793 33.647 32.2793C32.6348 32.0042 31.6179 32.1248 30.6021 32.2956C30.3303 32.3413 30.3666 32.511 30.3666 32.6818C30.3653 33.7047 30.3653 34.7264 30.3653 35.7492Z" fill="white"/>
<path d="M42.5197 47.85C42.5197 47.4556 42.5149 47.06 42.5209 46.6656C42.5281 46.16 42.5318 46.1589 43.0499 46.3075C43.6562 46.4819 44.2601 46.6633 44.8677 46.8353C45.5887 47.0389 46.3231 47.0694 47.0647 46.9816C47.7 46.9067 48.1372 46.5533 48.3039 45.981C48.467 45.4204 48.1529 45.0564 47.7423 44.7451C46.8485 44.0664 45.8569 43.535 44.8798 42.9838C44.0657 42.5239 43.2951 42.0055 42.7914 41.2096C41.0884 38.5133 42.8277 34.9625 46.1492 34.3446C47.88 34.0228 49.5721 34.3025 51.2582 34.6688C51.4624 34.7133 51.4841 34.8022 51.4527 34.9742C51.3005 35.8087 51.1459 36.6431 51.0167 37.4799C50.9684 37.79 50.8162 37.8158 50.5529 37.742C49.8874 37.5548 49.2231 37.3628 48.5491 37.206C47.9694 37.0714 47.3787 37.089 46.8026 37.2482C46.2168 37.4108 45.8339 37.7842 45.7144 38.367C45.6057 38.9006 45.9209 39.2634 46.3255 39.5513C47.0816 40.0885 47.9259 40.4864 48.7279 40.951C49.3752 41.3255 50.0347 41.6824 50.5927 42.1857C52.9902 44.3484 52.2027 48.3614 49.153 49.513C47.8256 50.0139 46.4463 50.0759 45.0525 49.9331C44.3193 49.8582 43.5934 49.7108 42.8639 49.6019C42.6006 49.5621 42.4871 49.4439 42.5016 49.1677C42.5257 48.73 42.5076 48.2912 42.5076 47.8523C42.5136 47.85 42.5173 47.85 42.5197 47.85Z" fill="white"/>
</svg>
