<svg width="21" height="25" viewBox="0 0 21 25" fill="none" xmlns="http://www.w3.org/2000/svg">
<path d="M0.000878369 11.945C0.000878369 8.45381 0.00175703 4.96346 0 1.47224C0 1.18496 0.0140561 0.9012 0.101029 0.626225C0.23105 0.213322 0.494604 0.0200477 0.926834 0.00159884C1.41178 -0.0194856 1.85279 0.17291 2.30698 0.287117C4.22918 0.767666 6.1786 1.02859 8.15702 1.14016C11.5815 1.33255 14.9471 0.974117 18.2705 0.158853C18.5789 0.083301 18.8872 -0.00279396 19.2096 0.00686973C19.6542 0.0200475 19.9037 0.208929 20.0249 0.631495C20.0917 0.864302 20.1207 1.10326 20.1207 1.34661C20.1198 8.39407 20.1207 15.4415 20.1189 22.4899C20.1189 23.3605 19.9089 23.646 19.0559 23.8612C17.5334 24.2469 15.9872 24.5052 14.427 24.6835C12.496 24.9049 10.5598 25.0385 8.61561 24.9901C5.98269 24.9251 3.39459 24.5474 0.863581 23.8094C0.240713 23.6276 0.00790643 23.3025 0.00527088 22.5804C-0.00175725 20.6705 0.000878516 18.7606 0 16.8498C0 15.2166 0.000878369 13.5808 0.000878369 11.945ZM1.94064 12.104H1.93625C1.93625 15.2324 1.93625 18.36 1.93625 21.4884C1.93625 22.0638 2.01971 22.1894 2.56175 22.3203C4.06753 22.6832 5.59439 22.9309 7.13706 23.0521C8.81152 23.183 10.4895 23.1848 12.1674 23.0759C13.9438 22.9599 15.6982 22.6954 17.4368 22.3221C18.1124 22.1771 18.1844 22.077 18.1844 21.3891C18.1844 15.1657 18.1844 8.94315 18.1844 2.71973C18.1844 2.60992 18.1835 2.5001 18.1791 2.39029C18.1712 2.21019 18.086 2.13025 17.8998 2.17681C17.6872 2.2304 17.4754 2.29189 17.2593 2.32791C14.1485 2.84536 11.0271 3.1792 7.8636 3.0114C6.02838 2.91388 4.21951 2.66526 2.42734 2.27784C1.95031 2.17505 1.94152 2.17417 1.94152 2.6556C1.94064 5.8042 1.94064 8.95457 1.94064 12.104Z" fill="white"/>
<path d="M12.7488 12.2322C12.3992 12.2402 12.1558 12.0003 11.9591 11.7148C11.1078 10.4761 10.2609 9.23475 9.42278 7.98814C9.14253 7.57172 9.12408 7.56909 8.82363 7.96178C7.80631 9.29625 6.78723 10.6298 5.75585 11.9538C5.29023 12.5512 4.69899 12.646 4.21668 12.2402C3.80993 11.8975 3.77567 11.4389 4.14201 10.9558C4.83692 10.0377 5.53973 9.12494 6.24342 8.21304C6.93394 7.31871 7.62533 6.42526 8.32287 5.5362C8.86492 4.84569 9.45352 4.81845 10.0087 5.49843C10.571 6.1863 11.0542 6.9348 11.5207 7.6912C11.685 7.95739 11.7763 7.93191 11.9573 7.7035C12.2419 7.34243 12.5521 6.99893 12.8771 6.67388C13.3524 6.19772 13.9023 6.24516 14.3065 6.79687C15.2342 8.06193 16.154 9.33227 17.0685 10.6079C17.4313 11.1139 17.376 11.5944 16.9508 11.9037C16.5168 12.22 15.9159 12.1444 15.5706 11.6946C15.1498 11.1473 14.7536 10.5798 14.353 10.0166C14.1114 9.6784 13.8083 9.38322 13.6361 8.9958C13.5913 8.89565 13.5255 8.88159 13.4235 8.92376C13.0449 9.08014 12.8551 9.54311 13.0554 9.90594C13.2241 10.2125 13.4279 10.5007 13.623 10.7924C13.8285 11.0998 13.8786 11.4231 13.7082 11.7561C13.5536 12.053 13.1617 12.2445 12.7488 12.2322Z" fill="white"/>
<path d="M9.90743 17.0782C7.83062 17.0009 5.81266 16.7356 3.84478 16.1505C3.23246 15.9686 2.97505 15.6901 2.96187 15.2289C2.94255 14.5639 3.4108 14.1413 4.06353 14.2687C4.92448 14.4374 5.77225 14.6667 6.63583 14.8301C9.50683 15.3739 12.3339 15.1323 15.1381 14.3978C15.3182 14.3504 15.4992 14.303 15.6819 14.2661C16.2213 14.1571 16.629 14.3926 16.7845 14.8977C16.9347 15.3862 16.7467 15.8158 16.2451 16.0205C15.4693 16.3358 14.6523 16.5107 13.8318 16.6635C12.5237 16.9086 11.2041 17.0299 9.90743 17.0782Z" fill="white"/>
<path d="M9.83691 20.3894C7.67401 20.3938 5.71755 20.0239 3.79009 19.4722C3.38948 19.3571 3.01436 19.1797 2.96604 18.6886C2.88873 17.912 3.43341 17.442 4.21793 17.6352C5.08063 17.8478 5.93894 18.0806 6.81833 18.2186C9.33001 18.613 11.8241 18.5383 14.3006 17.9489C14.7382 17.8452 15.1713 17.7204 15.6105 17.6256C16.1965 17.4991 16.569 17.6923 16.7482 18.1905C16.9336 18.7053 16.7868 19.1015 16.2852 19.3343C15.6439 19.6321 14.949 19.7648 14.2638 19.9132C12.7571 20.2409 11.2285 20.3736 9.83691 20.3894Z" fill="white"/>
</svg>
