<svg width="25" height="25" viewBox="0 0 25 25" fill="none" xmlns="http://www.w3.org/2000/svg">
<path d="M14.2302 0.108887C14.5342 0.286863 14.91 0.079224 15.2055 0.29675C16.2553 1.33777 17.2657 2.41269 18.1748 3.58225C19.9395 5.85356 21.3383 8.32404 22.315 11.0375C22.9722 12.8638 23.5041 14.7199 23.7996 16.6437C23.832 16.8528 23.7982 17.1183 24.0346 17.2624C23.9544 17.5717 23.8292 17.8599 23.6378 18.117C23.3127 18.1099 23.3155 17.8472 23.2846 17.6339C22.7414 13.8145 21.5156 10.2309 19.5666 6.90729C18.2494 4.6614 16.6775 2.61326 14.6975 0.899892C14.4681 0.700728 14.0994 0.539702 14.2302 0.108887Z" fill="#894795"/>
<path d="M24.9719 11.8525C24.9747 11.9938 24.9775 12.1364 24.9789 12.2777C24.5596 12.2424 24.53 11.8695 24.4357 11.594C24.0769 10.5445 23.6997 9.50351 23.2649 8.48367C22.5796 6.87624 21.7465 5.35214 20.7755 3.90149C20.6488 3.71222 20.5095 3.52577 20.4419 3.30542C20.4053 3.18676 20.3111 3.0328 20.5264 2.96924C22.4571 4.523 23.7194 6.52876 24.4597 8.87776C24.6961 9.63063 24.8987 10.3962 24.8973 11.1971C24.9972 11.4062 24.8861 11.6406 24.9719 11.8525Z" fill="#6D519D"/>
<path d="M14.2303 0.108986C14.2809 0.440926 14.5596 0.604777 14.7749 0.794053C17.6696 3.32103 19.7073 6.44833 21.2539 9.94146C22.2981 12.2989 22.9412 14.7652 23.3958 17.2907C23.4478 17.5761 23.3465 17.9024 23.6378 18.1157C23.6026 18.312 23.4957 18.4716 23.3817 18.627C23.0454 18.4984 23.0932 18.1835 23.0538 17.9207C22.5697 14.6917 21.6916 11.5856 20.1872 8.67585C20.0746 8.45833 19.9832 8.22385 19.7791 8.06847C19.4231 7.37635 19.0881 6.6715 18.5745 6.07542C18.5309 5.7901 18.3986 5.54856 18.2297 5.31549C16.9561 3.55268 15.5418 1.91982 13.8574 0.534151C13.7208 0.421151 13.4591 0.3251 13.6491 0.0538984C13.78 0.0567234 13.915 0.0214106 14.0389 0.0948611C14.1022 0.0990986 14.1655 0.103336 14.2303 0.108986Z" fill="#8D4694"/>
<path d="M20.5263 2.96909C20.4405 3.26713 20.653 3.45923 20.7909 3.66405C22.3937 6.03424 23.5998 8.59512 24.4807 11.3156C24.5919 11.6603 24.6594 12.0374 24.9803 12.2775C25.007 12.8468 25.0324 13.4146 24.886 13.974C24.575 13.9499 24.5848 13.6801 24.5173 13.4782C24.2007 12.5275 23.9657 11.5529 23.6167 10.6094C22.5584 7.75044 21.1638 5.08221 19.2992 2.66823C19.1711 2.50155 19.0248 2.34335 18.9544 2.14136C18.9164 2.0326 18.8657 1.88429 19.0839 1.90124C19.6172 2.18515 20.1069 2.5298 20.5263 2.96909Z" fill="#724F9B"/>
<path d="M24.7663 14.8255C24.7494 15.1193 24.6889 15.4004 24.5664 15.6688C24.285 15.6999 24.2639 15.4795 24.2259 15.2959C23.7235 12.8692 22.9326 10.5386 21.8842 8.29833C20.9625 6.33212 19.8324 4.48879 18.4646 2.79802C18.0888 2.3333 17.7215 1.86152 17.3177 1.42082C17.191 1.28381 17.0292 1.13691 17.1924 0.917969C17.3936 1.12702 17.699 1.10442 17.927 1.25556C19.3075 2.6158 20.3531 4.22324 21.3199 5.88576C22.7919 8.41698 23.8192 11.1304 24.558 13.9611C24.6326 14.2492 24.634 14.5529 24.7663 14.8255Z" fill="#7B4C99"/>
<path d="M24.7664 14.8259C24.644 14.8781 24.5989 14.8541 24.5666 14.7044C23.7166 10.8525 22.2108 7.28026 19.9887 4.0216C19.416 3.18257 18.8207 2.35626 18.1171 1.61893C18.0186 1.51581 17.9201 1.41553 17.9271 1.25732C18.3521 1.4014 18.7321 1.62599 19.0853 1.90002C18.9038 2.05822 19.0839 2.14014 19.1599 2.24043C20.394 3.84504 21.4931 5.5344 22.3825 7.35795C23.3479 9.33264 24.1036 11.3864 24.6679 13.5108C24.7143 13.6832 24.7397 13.8541 24.886 13.9756C24.9142 14.2679 24.8508 14.549 24.7664 14.8259Z" fill="#774D9A"/>
<path d="M24.0345 17.2607C23.8192 17.3666 23.7531 17.2522 23.7292 17.0601C23.5786 15.8609 23.2929 14.6913 22.9847 13.526C22.654 12.2689 22.215 11.0456 21.7154 9.85065C20.8443 7.76861 19.7199 5.825 18.3478 4.03253C17.4303 2.83331 16.4635 1.67646 15.3419 0.662279C15.2307 0.561991 15.0478 0.497015 15.2054 0.297852C15.3827 0.297852 15.5572 0.309152 15.7064 0.42074C16.9124 1.53803 18.0227 2.74149 18.9543 4.10456C19.347 4.76703 19.7945 5.39419 20.2237 6.03405C21.0807 7.5864 21.9208 9.1444 22.488 10.8352C22.9003 12.211 23.4111 13.5585 23.6926 14.971C23.8389 15.7055 24.0754 16.4259 24.0585 17.1872C24.0669 17.2141 24.0585 17.2395 24.0345 17.2607Z" fill="#854996"/>
<path d="M19.8043 7.94238C20.0674 8.0342 20.1448 8.27856 20.2574 8.49467C21.7139 11.3027 22.6273 14.2846 23.1156 17.4076C23.1789 17.813 23.124 18.2579 23.3801 18.6252C23.2746 18.8018 23.1676 18.9797 23.0621 19.1563C22.7666 19.1393 22.7666 18.8992 22.7328 18.6986C22.5935 17.8681 22.4964 17.0305 22.3247 16.2042C21.8265 13.8015 21.1046 11.4765 19.9943 9.28285C19.9141 9.12465 19.8845 8.9495 19.8226 8.78565C19.786 8.50597 19.6059 8.22771 19.8043 7.94238Z" fill="#914493"/>
<path d="M7.68777 0.987422C7.97063 0.878659 8.25348 0.769896 8.53634 0.661133C9.64527 1.04392 10.5839 1.72899 11.5183 2.40841C12.3261 2.99742 13.0945 3.64153 13.77 4.38592C13.9022 4.53141 14.1865 4.65995 13.9557 4.94245C13.6883 5.04556 13.4167 5.0272 13.1437 4.96787C12.654 4.7108 12.3331 4.25173 11.911 3.9099C10.7317 2.95364 9.4778 2.12732 8.11698 1.4592C7.93544 1.3688 7.59348 1.35891 7.68777 0.987422Z" fill="#B1368A"/>
<path d="M0.581197 16.1068C0.49254 15.9359 0.429213 15.7579 0.423584 15.5644C0.705036 15.3384 1.02448 15.4161 1.32986 15.4698C2.72164 15.717 3.89952 16.3526 4.82268 17.443C5.80073 18.6168 6.38897 19.963 6.61835 21.4743C6.69293 21.9659 6.66901 22.456 6.65494 22.9462C6.65072 23.1256 6.5902 23.2922 6.42133 23.3925C6.29327 23.3629 6.1821 23.3064 6.10048 23.2004C5.99915 23.0846 6.00338 22.949 6.00478 22.8049C6.02589 20.1734 5.10273 18.0504 2.73149 16.7142C2.22066 16.426 1.6676 16.2664 1.08078 16.2396C0.902053 16.2325 0.730367 16.2142 0.581197 16.1068Z" fill="#F28A47"/>
<path d="M0.384087 15.3596C0.277135 15.2325 0.291208 15.0786 0.292615 14.9288C0.917439 14.6068 1.53663 14.8441 2.1305 14.9995C3.18313 15.2749 4.10488 15.8145 4.86762 16.6083C5.02523 16.7722 5.18425 16.9374 5.37705 17.0645C5.7739 17.7595 6.23689 18.4149 6.61403 19.124C6.66469 19.4361 6.7632 19.7342 6.86734 20.0322C7.25011 21.1283 7.24167 22.264 7.19382 23.4025C7.18819 23.5254 7.15442 23.644 7.05028 23.7288C6.94614 23.6807 6.84201 23.6327 6.73646 23.5847C6.57041 23.4081 6.62107 23.1906 6.63092 22.9844C6.71958 21.1001 6.26503 19.3768 5.11811 17.8612C4.02045 16.3894 2.59912 15.5136 0.730273 15.4599C0.605027 15.4543 0.48541 15.443 0.384087 15.3596Z" fill="#F18443"/>
<path d="M22.7695 19.5872C22.6442 19.8457 22.4782 20.0717 22.2657 20.2652C22.0039 19.9219 22.0363 19.5067 21.9941 19.114C21.6985 16.3398 21.0653 13.6546 19.938 11.0952C19.8621 10.759 19.8227 10.4256 19.9746 10.0979C20.3954 9.95103 20.4306 10.3296 20.5249 10.5485C21.0048 11.6658 21.4227 12.8071 21.7492 13.9809C22.26 15.82 22.6076 17.6859 22.7695 19.5872Z" fill="#9A4091"/>
<path d="M0.0885444 13.4457C0.0857299 13.351 0.0815081 13.2578 0.0786936 13.1632C-0.0395164 12.8001 0.0533629 12.5544 0.468505 12.5643C2.18114 12.601 3.75868 13.0459 5.10543 14.1604C5.1378 14.2225 5.16735 14.2875 5.17157 14.3581C5.18565 14.5997 5.26445 14.8836 5.02663 15.039C4.79724 15.1887 4.596 14.9811 4.41306 14.8624C3.22955 14.0883 1.94191 13.6448 0.526203 13.5954C0.364368 13.5883 0.212383 13.5615 0.0885444 13.4457Z" fill="#EE7138"/>
<path d="M16.3452 0.610352C16.5197 0.69369 16.6928 0.775615 16.8673 0.858953C18.5659 2.739 20.0618 4.76172 21.2622 7.00478C22.3866 9.10519 23.2338 11.3087 23.86 13.604C24.0767 14.3964 24.2034 15.2115 24.4722 15.9898C24.482 16.1437 24.4384 16.2821 24.3512 16.4093C23.9754 16.3994 23.974 16.0773 23.9276 15.8443C23.5223 13.806 22.9073 11.8313 22.1474 9.90184C21.8645 9.18287 21.5634 8.47097 21.1651 7.80568C20.8527 7.06835 20.4854 6.36068 20.0126 5.71092C19.9802 5.67137 19.9535 5.629 19.9281 5.5838C19.3638 4.50888 18.594 3.58086 17.8398 2.64013C17.4232 2.12032 16.9701 1.6429 16.4846 1.18948C16.3199 1.03693 16.1384 0.864603 16.3452 0.610352Z" fill="#7F4A98"/>
<path d="M22.7694 19.5875C22.3571 19.2358 22.5443 18.7245 22.488 18.305C22.146 15.7695 21.517 13.3188 20.5347 10.9599C20.4024 10.6421 20.3574 10.2706 20.0365 10.0559C19.8255 9.64489 19.6425 9.23243 19.9493 8.78467C20.4939 9.93869 21.016 11.1012 21.4283 12.3103C22.1362 14.3867 22.6104 16.5182 22.8792 18.6948C22.9003 18.8714 22.8792 19.0508 23.0636 19.1567C22.9946 19.3206 22.9074 19.4717 22.7694 19.5875Z" fill="#954392"/>
<path d="M13.597 0.101701C14.3499 0.860218 15.2168 1.49585 15.9387 2.28968C16.8478 3.28973 17.6978 4.3364 18.4788 5.44099C18.6083 5.6232 18.6871 5.804 18.6632 6.02718C18.2452 6.00458 17.9975 5.70936 17.7316 5.4424C16.8309 4.133 15.8064 2.93237 14.63 1.8631C14.1093 1.38991 13.5844 0.920956 13.0327 0.484491C12.892 0.372902 12.7104 0.234477 12.8582 0C13.0355 0.00423753 13.2128 0.00706255 13.3902 0.0113001C13.4479 0.0649754 13.5478 0.0226002 13.597 0.101701Z" fill="#914493"/>
<path d="M5.0393 14.1889C4.10206 13.5942 3.11838 13.1055 2.02353 12.8823C1.52959 12.782 1.03141 12.7086 0.521986 12.6959C0.157506 12.686 0.0547755 12.8428 0.078699 13.1634C-0.0282529 12.7566 -0.0212166 12.3484 0.0716627 11.9388C1.90814 11.8088 3.59404 12.2312 5.09699 13.323C5.19832 13.4897 5.19128 13.6747 5.18706 13.8598C5.1758 13.9869 5.15188 14.1084 5.0393 14.1889Z" fill="#ED6D3B"/>
<path d="M5.05622 13.8682C5.05059 13.6917 5.04496 13.5151 5.03934 13.3385C4.89157 13.162 4.89579 12.9487 4.89439 12.7354C4.90846 12.5885 4.89017 12.4416 4.89579 12.2947C4.90846 12.1506 4.89157 12.0051 4.8972 11.861C4.90705 11.717 4.89017 11.5743 4.8972 11.4302C4.90705 11.2579 4.88735 11.087 4.90002 10.9147C4.90002 10.7452 4.89157 10.5742 4.90002 10.4047C4.90002 10.3214 4.89861 10.2381 4.8972 10.1561C4.92957 9.81291 4.67063 9.70697 4.42858 9.61374C3.4829 9.24932 2.51612 8.9654 1.49304 8.92868C1.19892 8.91738 0.900579 8.91031 0.624756 8.7846C0.647272 8.55436 0.731708 8.34672 0.842881 8.14756C0.9822 7.87495 1.24254 7.8806 1.48319 7.89613C2.66247 7.97241 3.79109 8.27469 4.88313 8.7168C5.04778 8.78319 5.18569 8.89336 5.25465 9.06993C5.40522 10.1406 5.3039 11.2169 5.31797 12.2904C5.32501 12.7961 5.41085 13.3131 5.22509 13.8103C5.1871 13.8781 5.1294 13.8979 5.05622 13.8682Z" fill="#DE5951"/>
<path d="M14.0191 4.85909C12.8173 3.47907 11.3819 2.38861 9.83253 1.43234C9.40472 1.1682 8.91077 1.01424 8.53784 0.661112C8.78271 0.586249 9.02898 0.511386 9.27384 0.436523C10.4883 0.976102 11.5128 1.81231 12.5809 2.58071C13.3028 3.0991 13.8235 3.81666 14.4469 4.43251C14.575 4.55823 14.8171 4.70513 14.5778 4.94808C14.3752 5.01305 14.1824 5.03283 14.0191 4.85909Z" fill="#AB398D"/>
<path d="M11.586 0.0170548C11.7296 0.0128173 11.8731 0.00857972 12.0153 0.00292969C12.3685 0.0862677 12.633 0.322157 12.9117 0.532621C14.4597 1.70642 15.8261 3.06384 17.011 4.60347C17.1433 4.7758 17.4149 4.92835 17.2587 5.22921C16.9801 5.3295 16.7408 5.2278 16.5086 5.08655C15.3111 3.63873 14.015 2.29261 12.5148 1.1513C12.194 0.906935 11.8408 0.707772 11.5368 0.44222C11.3735 0.300969 11.2075 0.117343 11.586 0.0170548Z" fill="#9A4091"/>
<path d="M24.4723 15.9911C24.1078 15.7341 24.1683 15.2919 24.0867 14.9459C23.6955 13.3088 23.2494 11.6957 22.6161 10.132C21.8224 8.17431 20.8612 6.31121 19.6679 4.56958C18.9361 3.50031 18.1959 2.43952 17.2798 1.51574C17.0968 1.3307 16.9322 1.12165 16.8674 0.857507C16.9842 0.83067 17.0996 0.810895 17.1911 0.919658C17.2854 1.40415 17.709 1.65699 17.989 1.99458C19.2696 3.53704 20.3856 5.17979 21.3439 6.94542C22.6428 9.33963 23.5167 11.8836 24.2091 14.5052C24.3118 14.8964 24.2049 15.3583 24.5666 15.6691C24.5778 15.7891 24.5652 15.9021 24.4723 15.9911Z" fill="#7F4B98"/>
<path d="M20.8008 21.8276C20.6221 22.0423 20.4251 22.2358 20.1704 22.3601C19.7665 22.2726 19.8706 21.9321 19.8777 21.6864C19.9171 20.3459 19.7215 19.0308 19.5132 17.7158C19.5146 17.0491 19.8101 16.429 19.8214 15.7623C19.8228 15.6564 19.8833 15.5123 20.0606 15.573C20.2942 16.025 20.2253 16.5335 20.3195 17.0124C20.6305 18.6 20.8487 20.2018 20.8008 21.8276Z" fill="#B1368A"/>
<path d="M5.46147 22.7922C5.2926 22.7244 5.14906 22.6241 5.03648 22.4786C4.86057 22.2159 5.02241 21.9263 4.96612 21.6509C4.58616 19.7793 3.68973 18.3117 1.84903 17.556C1.58306 17.4472 1.29035 17.5094 1.04126 17.3653C0.911796 17.176 0.82736 16.967 0.790771 16.7396C0.975123 16.5503 1.18621 16.6492 1.38464 16.6944C3.16341 17.0997 4.36803 18.2029 5.10403 19.84C5.41503 20.5307 5.61909 21.2638 5.68663 22.0266C5.71337 22.3105 5.73589 22.5958 5.46147 22.7922Z" fill="#F49851"/>
<path d="M5.05626 13.8681C5.07455 13.8681 5.09284 13.8681 5.11114 13.8667C5.3757 14.0461 5.3166 14.3272 5.31801 14.5772C5.31941 14.9741 5.37289 15.3767 5.25468 15.768C5.10551 16.0363 4.92397 15.8767 4.76917 15.7863C4.51165 15.6366 4.28226 15.4417 4.03318 15.275C3.04246 14.6139 1.94902 14.2792 0.765516 14.2297C0.44466 14.2156 0.104103 14.2396 0.104103 13.7679C0.0984739 13.6605 0.0942521 13.5546 0.088623 13.4472C1.66053 13.3836 3.08609 13.8455 4.40892 14.669C4.59327 14.7834 4.77903 15.0659 4.97604 14.9431C5.15476 14.8315 5.02389 14.5179 5.045 14.2947C5.04781 14.2594 5.04218 14.2241 5.03937 14.1888C5.045 14.0814 5.05063 13.9755 5.05626 13.8681Z" fill="#EE763A"/>
<path d="M0.581299 16.1067C2.64716 16.0573 4.10227 17.0743 5.1169 18.7919C5.68966 19.7609 6.06258 20.8146 6.20049 21.946C6.25397 22.3782 6.11184 22.7822 6.09917 23.2017C5.96689 23.1749 5.85994 23.1085 5.77832 23.0012C5.71077 22.9136 5.69247 22.8147 5.69529 22.7045C5.72765 21.2666 5.41383 19.9106 4.55118 18.7523C3.6829 17.5856 2.58383 16.7141 1.0654 16.5488C0.886675 16.529 0.713581 16.505 0.633367 16.3101C0.61648 16.2423 0.599593 16.1745 0.581299 16.1067Z" fill="#F2904A"/>
<path d="M5.038 12.7013C5.038 12.9132 5.03941 13.1264 5.03941 13.3383C4.50606 13.1618 4.05714 12.8143 3.52801 12.6151C2.63299 12.2789 1.72672 12.0558 0.766964 12.0628C0.534766 12.0642 0.270201 12.1645 0.0717773 11.9385C0.0802209 11.7704 0.0886645 11.6009 0.0971081 11.4328C0.408113 11.1885 0.772594 11.269 1.11174 11.2944C2.35013 11.3876 3.52379 11.7182 4.61723 12.3199C4.78892 12.416 4.95216 12.5134 5.038 12.7013Z" fill="#ED693C"/>
<path d="M6.73239 1.46928C6.84638 1.35205 6.98289 1.28142 7.14472 1.25741C7.36144 1.20656 7.55846 1.27295 7.74984 1.36193C9.4667 2.15576 11.0259 3.19255 12.4402 4.44827C12.5711 4.56409 12.771 4.68839 12.6091 4.92428C12.3994 5.03446 12.1827 5.01892 11.9646 4.96101C11.1371 4.31832 10.3054 3.67845 9.41745 3.11768C8.73633 2.68687 8.0313 2.30267 7.28826 1.98626C7.05325 1.88597 6.72254 1.85066 6.73239 1.46928Z" fill="#B93384"/>
<path d="M0.634766 16.3091C1.43268 16.4178 2.2109 16.5944 2.90186 17.0337C4.09241 17.7908 5.00853 18.7796 5.42931 20.1624C5.59958 20.7218 5.75016 21.2868 5.87681 21.8574C5.96125 22.2388 5.85148 22.6216 5.77831 23.0001C5.65165 22.9634 5.53766 22.9069 5.46167 22.7925C5.72483 21.6215 5.30547 20.565 4.8087 19.572C3.98827 17.9306 2.64011 16.956 0.790972 16.7413C0.74031 16.5972 0.686834 16.4532 0.634766 16.3091Z" fill="#F3944E"/>
<path d="M14.651 4.86594C13.5758 3.59044 12.3599 2.48445 10.9597 1.56349C10.3954 1.192 9.74524 0.944815 9.271 0.436312C9.47505 0.381224 9.68051 0.326136 9.88456 0.272461C11.2834 0.992841 12.5049 1.96323 13.6645 3.01273C14.1584 3.46049 14.6172 3.94781 15.076 4.4323C15.2012 4.56508 15.4447 4.7035 15.2096 4.94645C15.0112 5.01425 14.8184 5.0312 14.651 4.86594Z" fill="#A83A8E"/>
<path d="M1.04126 17.3652C1.85747 17.1604 2.45556 17.6618 3.03394 18.0687C4.22449 18.9077 4.78598 20.1549 5.09136 21.5491C5.16454 21.8796 5.02944 22.1677 5.03648 22.4785C4.8676 22.4036 4.72266 22.2991 4.61993 22.1423C4.43839 21.0731 4.13583 20.0617 3.4139 19.21C2.9678 18.6845 2.4246 18.3257 1.80118 18.0687C1.60698 17.9896 1.3987 17.9401 1.23828 17.7932C1.1257 17.6717 1.05815 17.5305 1.04126 17.3652Z" fill="#F49C53"/>
<path d="M20.8007 21.8272C20.5108 21.3173 20.6318 20.7354 20.591 20.2014C20.501 19.0149 20.3138 17.8482 20.0971 16.6843C20.0253 16.2973 20.0746 15.9159 20.0211 15.5359C19.8874 15.3579 19.8888 15.1842 20.038 15.0161C20.3293 15.0246 20.4165 15.2478 20.4686 15.4695C20.8964 17.2959 21.2384 19.1364 21.2454 21.0235C21.2454 21.1831 21.2243 21.3385 21.1722 21.4882C21.0484 21.6012 20.9245 21.7142 20.8007 21.8272Z" fill="#AB398D"/>
<path d="M22.0404 20.5436C21.9673 20.6142 21.8955 20.6835 21.8223 20.7541C21.4212 20.8586 21.4916 20.5337 21.4789 20.3402C21.3664 18.6932 21.1173 17.066 20.7232 15.4642C20.5192 14.6309 20.3278 13.7904 19.9408 13.0135C19.8648 12.7042 19.8226 12.3949 19.9872 12.0982C20.3658 12.0008 20.4122 12.3172 20.4939 12.5403C21.0807 14.1224 21.4818 15.7538 21.7731 17.4149C21.9067 18.1748 21.9588 18.9447 22.07 19.7074C22.1108 19.9843 22.0981 20.2668 22.0404 20.5436Z" fill="#A13D8F"/>
<path d="M22.0406 20.5437C21.8098 20.0917 21.8956 19.5861 21.8506 19.1143C21.6339 16.8359 21.078 14.6437 20.335 12.4924C20.2787 12.3286 20.2182 12.1577 20.0451 12.0687C19.8016 11.7509 19.8016 11.433 20.0437 11.1152C20.5264 11.7975 20.7121 12.6054 20.964 13.3795C21.5241 15.0943 21.8562 16.8641 22.1194 18.6453C22.1982 19.1807 22.2179 19.7245 22.2643 20.2655C22.2291 20.3884 22.1545 20.4816 22.0406 20.5437Z" fill="#9E3F90"/>
<path d="M12.6456 24.997C12.5049 24.997 12.3642 24.997 12.2235 24.997C12.0166 24.7597 12.0447 24.4674 12.0785 24.1947C12.2136 23.0774 12.2206 21.963 12.0799 20.8457C12.049 20.6056 12.0335 20.3541 12.1756 20.131C12.3417 19.9685 12.5331 19.9713 12.7343 20.0448C12.9243 20.1507 12.9848 20.3301 12.9961 20.5307C13.058 21.6805 13.2522 22.8246 13.0087 23.9814C12.9299 24.3445 13.0791 24.7668 12.6456 24.997Z" fill="#DF5950"/>
<path d="M9.47647 24.6538C9.1725 24.5988 8.87416 24.5295 8.59975 24.377C8.7067 23.0676 8.7658 21.7596 8.53079 20.4559C8.50265 20.2991 8.50687 20.1409 8.60256 19.9996C8.88542 19.8216 9.15843 19.7948 9.41174 20.0547C9.7143 21.5845 9.74807 23.117 9.47647 24.6538Z" fill="#ED6D3B"/>
<path d="M4.81152 2.73605C4.95647 2.5496 5.14505 2.41824 5.35895 2.32219C5.62774 2.19365 5.8726 2.32501 6.11043 2.41542C7.45155 2.92533 8.72231 3.57226 9.88893 4.41412C10.0536 4.53277 10.3252 4.6161 10.1929 4.92544C9.85797 5.14156 9.50052 5.1684 9.12619 5.04974C8.856 4.42965 8.20162 4.30535 7.70767 3.98895C6.99982 3.53412 6.20894 3.23608 5.38006 3.05387C5.16897 3.00726 4.91285 2.99737 4.81152 2.73605Z" fill="#C1387A"/>
<path d="M1.23828 17.7935C2.53437 18.0195 3.44205 18.7667 4.04999 19.9136C4.34833 20.4758 4.57209 21.0606 4.68326 21.692C4.71422 21.8657 4.69311 21.9999 4.61993 22.1426C4.48343 22.0267 4.34692 21.9109 4.21042 21.7951C4.04858 21.6016 3.98104 21.3657 3.90786 21.1326C3.57574 20.0831 2.93122 19.2851 1.98132 18.7356C1.82933 18.648 1.68579 18.5491 1.55773 18.4291C1.40293 18.2398 1.28894 18.0322 1.23828 17.7935Z" fill="#F5A257"/>
<path d="M17.2881 5.19097C15.8373 3.14848 14.0149 1.48596 12.0151 0.00282502C12.2952 0.00141251 12.5766 0 12.8567 0C12.9693 0.485903 13.4322 0.639867 13.7559 0.902593C15.2941 2.1569 16.5817 3.63721 17.7652 5.21781C17.8032 5.26725 17.7962 5.35058 17.8088 5.41839C17.571 5.49607 17.367 5.4876 17.2881 5.19097Z" fill="#954392"/>
<path d="M8.63645 20.014C8.90243 21.1835 8.84614 22.3714 8.84754 23.5565C8.84754 23.856 8.8391 24.1512 8.60127 24.3786C8.45914 24.3715 8.32545 24.3376 8.21287 24.243C8.09325 24.1794 8.01304 24.082 8.04259 23.9464C8.19598 23.2486 8.0046 22.5466 8.08622 21.8432C8.13688 21.4109 7.97786 20.9773 7.91594 20.5436C7.87794 20.2823 7.80336 20.0154 8.0834 19.8303C8.30856 19.7668 8.51402 19.7654 8.63645 20.014Z" fill="#EE7138"/>
<path d="M10.221 0.216147C10.3927 0.159647 10.5616 0.0890212 10.7502 0.117271C11.6072 0.470399 12.2883 1.08767 13.0088 1.64137C13.9165 2.33774 14.7032 3.1697 15.4842 4.00308C15.7051 4.23897 16.0457 4.46074 15.9387 4.88732C15.7248 5.02857 15.5546 4.97065 15.3885 4.78844C13.9193 3.17959 12.3319 1.71199 10.456 0.581987C10.3266 0.502886 10.176 0.418136 10.221 0.216147Z" fill="#A13D8F"/>
<path d="M1.36084 6.98494C1.41432 6.7434 1.55223 6.54565 1.69295 6.35073C1.98144 6.12049 2.29245 6.24055 2.60064 6.28999C3.43374 6.41994 4.24995 6.61628 5.03098 6.94398C5.29414 7.05416 5.54885 7.17704 5.58825 7.51181C5.59107 7.67566 5.55448 7.81973 5.39687 7.90307C4.86633 7.99065 4.43008 7.66577 3.94317 7.55701C3.1945 7.39033 2.45569 7.19117 1.68873 7.12761C1.56489 7.11772 1.44809 7.08241 1.36084 6.98494Z" fill="#D64F5C"/>
<path d="M21.1722 21.4872C20.9892 20.7725 21.0877 20.0366 21.0019 19.3091C20.8457 17.9899 20.5797 16.696 20.3095 15.4007C20.2786 15.251 20.1969 15.1027 20.0351 15.0335C19.7607 14.5998 19.8367 14.1521 19.976 13.7001C20.3067 13.5518 20.2955 13.8314 20.356 14.0108C20.7303 15.1239 20.9864 16.268 21.1736 17.422C21.3481 18.5054 21.524 19.593 21.524 20.699C21.524 20.8587 21.5127 21.0126 21.4888 21.168C21.4156 21.3078 21.3073 21.4109 21.1722 21.4872Z" fill="#A83B8E"/>
<path d="M15.9175 4.86189C15.8105 4.51723 15.5656 4.26581 15.3278 4.01297C14.0078 2.6047 12.5696 1.33344 10.9344 0.29807C10.864 0.252869 10.8105 0.178006 10.75 0.117269C11.0272 0.0763058 11.2988 -0.0211573 11.5859 0.0169804C11.379 0.145519 11.4466 0.266995 11.6084 0.363045C12.6498 0.984549 13.5406 1.80239 14.4314 2.61035C15.2181 3.32366 15.9189 4.13303 16.5451 4.9989C16.4297 5.09778 16.2988 5.08789 16.1637 5.05681C16.0582 5.0215 15.9681 4.96641 15.9175 4.86189Z" fill="#9E3F90"/>
<path d="M0.104102 13.7661C0.21809 13.8777 0.21809 14.0938 0.465768 14.0839C2.27973 14.0119 3.77283 14.7916 5.14632 15.8806C5.24905 15.9611 5.26875 16.0741 5.26453 16.1956C5.21668 16.447 5.07596 16.5219 4.84798 16.4075C4.70585 16.3369 4.58482 16.2309 4.46521 16.1278C3.38302 15.1885 2.09678 14.7761 0.697966 14.6532C0.523466 14.6376 0.343336 14.6433 0.206832 14.5049C0.139283 14.2633 0.0689203 14.0218 0.104102 13.7661Z" fill="#EF7C3E"/>
<path d="M21.1949 7.72645C21.7395 8.30276 21.9449 9.06127 22.232 9.7647C23.037 11.7408 23.6787 13.7706 24.0657 15.8752C24.1008 16.0659 24.122 16.3046 24.3513 16.4106C24.3147 16.5179 24.2782 16.6253 24.2416 16.7326C24.1079 16.9162 24.0488 16.8767 23.9798 16.6747C23.8335 16.2439 23.7772 15.7947 23.6899 15.354C23.3817 13.7932 22.8934 12.2903 22.3558 10.7987C21.8042 9.37203 21.1737 7.98353 20.404 6.6586C20.2914 6.46367 20.2267 6.24191 20.1394 6.03144C20.1633 6.02438 20.1873 6.01732 20.2112 6.01025C20.6742 6.50322 20.9148 7.12614 21.1949 7.72645Z" fill="#824997"/>
<path d="M9.47647 24.6537C9.23302 24.2935 9.48351 23.9347 9.47929 23.5759C9.46521 22.5052 9.55669 21.4275 9.29775 20.3709C9.26961 20.2537 9.30197 20.1633 9.40752 20.1026C9.56794 19.991 9.72134 20.0037 9.86769 20.1294C10.083 20.354 10.0647 20.6563 10.09 20.9275C10.1956 22.0659 10.2378 23.2073 10.0478 24.3429C10.0126 24.5506 9.98872 24.7921 9.66505 24.6847C9.60313 24.6734 9.5398 24.6636 9.47647 24.6537Z" fill="#ED6A3B"/>
<path d="M3.95996 3.47917C4.07817 3.30825 4.22453 3.167 4.40466 3.06248C4.65233 2.91275 4.88031 3.05824 5.10688 3.1218C6.25239 3.44809 7.32332 3.95094 8.35203 4.54702C8.5223 4.6459 8.74887 4.71511 8.76295 4.97643C8.55889 5.20666 8.30136 5.28577 8.00302 5.24621C6.92788 4.54137 5.7317 4.1148 4.51442 3.74048C4.31741 3.67974 4.09647 3.66844 3.95996 3.47917Z" fill="#C63D73"/>
<path d="M12.6472 4.85758C11.6888 3.89849 10.6024 3.11031 9.44565 2.41394C8.70824 1.97041 7.94692 1.57208 7.14478 1.25709C7.29957 1.11443 7.49659 1.05511 7.68798 0.987305C7.76819 1.24862 8.02713 1.27404 8.21992 1.36727C9.92412 2.19924 11.4763 3.24732 12.8329 4.57932C12.9188 4.66407 12.9905 4.76436 13.0694 4.85899C12.9286 4.99036 12.7879 4.99036 12.6472 4.85758Z" fill="#B53486"/>
<path d="M0.205575 14.5052C1.94495 14.491 3.47887 15.0334 4.78621 16.1988C4.91286 16.3118 5.07189 16.5688 5.16899 16.1691C5.53769 16.4361 5.42089 16.8005 5.3646 17.1536C4.87628 17.0095 4.668 16.5321 4.29367 16.2496C3.10876 15.3512 1.79297 14.8597 0.292825 14.9289C0.205575 14.8004 0.184466 14.6577 0.205575 14.5052Z" fill="#F08040"/>
<path d="M8.74056 4.97325C7.41351 4.06642 5.94714 3.47599 4.40479 3.06213C4.50892 2.91523 4.64824 2.8107 4.81008 2.73584C5.83597 3.05224 6.88579 3.30367 7.82162 3.86867C8.18469 4.08902 8.51681 4.36164 8.92913 4.50854C9.05719 4.55374 9.37664 4.69923 9.05719 4.94924C8.96009 5.06365 8.85314 5.05942 8.74056 4.97325Z" fill="#C43A77"/>
<path d="M5.04072 10.3747C5.03931 10.5512 5.03931 10.7278 5.03791 10.9044C4.88451 11.0244 4.73394 10.9524 4.59321 10.886C3.28305 10.2786 1.90253 9.99612 0.462898 9.99612C0.409422 9.99612 0.361575 9.9707 0.315136 9.9481C0.294027 9.79413 0.34891 9.65853 0.415051 9.52434C0.711983 9.102 1.15809 9.26444 1.5296 9.29128C2.654 9.37038 3.72352 9.69949 4.75786 10.1444C4.87466 10.1953 4.95769 10.2843 5.04072 10.3747Z" fill="#E36049"/>
<path d="M6.73231 1.46924C6.86882 1.73055 7.14042 1.78988 7.37684 1.88734C8.94593 2.53145 10.3068 3.5089 11.6324 4.54427C11.7408 4.62902 11.8167 4.75332 11.9068 4.85926C11.7745 5.01181 11.6071 4.99769 11.4354 4.95955C10.4376 4.22646 9.45114 3.48065 8.35629 2.88881C7.83138 2.6049 7.28536 2.38172 6.74498 2.13594C6.54092 2.04272 6.30732 1.99893 6.18066 1.78423C6.3425 1.63733 6.517 1.51868 6.73231 1.46924Z" fill="#BC3282"/>
<path d="M0.31522 9.94839C1.17365 9.68284 1.99831 9.97806 2.83 10.1151C3.60962 10.2436 4.30481 10.6349 5.0394 10.9047C5.0394 11.0798 5.0394 11.255 5.0394 11.4301C4.7692 11.5191 4.56797 11.3425 4.35125 11.2437C3.30143 10.7564 2.18547 10.5445 1.047 10.4202C0.76273 10.3891 0.493943 10.5007 0.21249 10.4781C0.182938 10.2888 0.261744 10.1207 0.31522 9.94839Z" fill="#E56146"/>
<path d="M5.03801 11.8538C5.03801 11.995 5.03801 12.1363 5.03801 12.2775C4.87195 12.3496 4.727 12.2719 4.58628 12.2055C3.22968 11.5741 1.82945 11.1518 0.309609 11.269C0.239246 11.2746 0.17029 11.2535 0.10837 11.2196C0.0886687 11.0359 0.102741 10.8594 0.192806 10.6941C0.502404 10.4526 0.865477 10.5274 1.20322 10.5543C2.37969 10.6433 3.50831 10.93 4.5722 11.454C4.76218 11.5458 4.94372 11.6475 5.03801 11.8538Z" fill="#EA6641"/>
<path d="M8.12559 19.8997C7.78503 20.3517 8.21706 20.7854 8.17343 21.243C8.15232 21.4634 8.25927 21.7134 8.23957 21.9846C8.1861 22.7332 8.21565 23.4889 8.21284 24.2418C8.01863 24.2178 7.84695 24.1415 7.68933 24.0299C7.5669 23.722 7.63023 23.3999 7.63867 23.0864C7.664 22.1117 7.60771 21.147 7.38255 20.1949C7.34033 20.0156 7.25167 19.8178 7.42477 19.6483C7.71607 19.5664 7.98627 19.5494 8.12559 19.8997Z" fill="#EF773A"/>
<path d="M5.03807 11.8539C3.52527 11.0361 1.91677 10.6208 0.192871 10.6929C0.1985 10.6208 0.205536 10.5488 0.211165 10.4767C0.49121 10.1109 0.895094 10.2479 1.22862 10.2846C2.56411 10.433 3.86019 10.7409 5.03807 11.4302C5.03807 11.5714 5.03807 11.7127 5.03807 11.8539Z" fill="#E76344"/>
<path d="M11.5902 24.9946C11.2989 24.9988 11.0048 25.0299 10.729 24.8943C10.76 24.8406 10.8036 24.7983 10.8571 24.7672C11.1076 24.6754 11.0977 24.455 11.1259 24.2446C11.2708 23.1202 11.2694 21.9958 11.1399 20.8701C11.1104 20.613 11.0372 20.346 11.1681 20.0904C11.3229 19.9929 11.4749 19.9986 11.6254 20.1003C11.7844 20.3037 11.8154 20.5424 11.845 20.791C11.9843 21.9309 11.9815 23.0679 11.8464 24.2078C11.8126 24.4903 11.7774 24.7658 11.5902 24.9946Z" fill="#E35F49"/>
<path d="M0.626283 8.78427C1.12586 8.67269 1.62685 8.76732 2.11657 8.82524C2.91308 8.91987 3.68708 9.16 4.43855 9.44674C4.758 9.56822 5.13796 9.67415 5.04368 10.1629C4.83962 10.2377 4.66794 10.1247 4.49625 10.0555C3.44081 9.62895 2.35862 9.33374 1.2117 9.30831C0.973876 9.30266 0.719162 9.28995 0.526367 9.10491C0.558734 8.99756 0.592508 8.89021 0.626283 8.78427Z" fill="#E05C4E"/>
<path d="M5.15327 8.99788C3.9571 8.45971 2.70886 8.1306 1.3987 8.04443C1.2059 8.03313 1.01452 8.03313 0.844238 8.14755C0.869569 7.95403 0.95119 7.78312 1.05673 7.62209C1.23405 7.48226 1.44232 7.45683 1.65623 7.47661C2.74545 7.58254 3.80371 7.81984 4.81975 8.23512C5.05195 8.32976 5.2757 8.44417 5.26867 8.7521C5.26022 8.84956 5.23067 8.93573 5.15327 8.99788Z" fill="#DC5655"/>
<path d="M10.5347 24.8743C10.3827 24.8941 10.2405 24.8715 10.1125 24.7839C9.89717 24.2656 10.1294 23.7472 10.1378 23.2302C10.1519 22.3841 10.142 21.5479 10.0266 20.7103C9.99849 20.5069 9.95064 20.2893 10.09 20.0972C10.249 19.9927 10.408 19.9927 10.5642 20.1029C10.7246 20.3133 10.7106 20.5704 10.7345 20.8106C10.8513 21.9858 10.8611 23.1624 10.7162 24.3362C10.6937 24.5269 10.688 24.7274 10.5347 24.8743Z" fill="#EA6641"/>
<path d="M0.108426 11.2183C1.04003 10.9669 1.94772 11.135 2.84555 11.3906C3.60688 11.6067 4.34851 11.8808 5.03806 12.2777C5.03806 12.4189 5.03806 12.5602 5.03806 12.7014C3.50415 11.8327 1.87454 11.3426 0.097168 11.4344C0.10139 11.3624 0.104204 11.2903 0.108426 11.2183Z" fill="#EB673F"/>
<path d="M19.5834 17.6733C19.8648 18.2087 19.8283 18.8104 19.9183 19.3811C20.0506 20.2243 20.0562 21.0803 20.0365 21.9349C20.0323 22.0888 20.0084 22.2555 20.1716 22.3586C20.0182 22.5408 19.8353 22.6821 19.6158 22.7739C19.347 22.3925 19.4216 21.949 19.5018 21.5606C19.6594 20.795 19.4258 20.069 19.3723 19.3288C19.3484 18.9912 19.3639 18.6282 19.2288 18.2977C19.2302 18.0251 19.2766 17.7736 19.5834 17.6733Z" fill="#B63486"/>
<path d="M21.4888 21.1693C21.4255 20.4758 21.372 19.7808 21.2988 19.0887C21.106 17.2892 20.7275 15.5278 20.1955 13.8003C20.1772 13.7424 20.0984 13.7042 20.0464 13.6576C19.855 13.4457 19.855 13.2338 20.0464 13.022C20.4925 13.594 20.5741 14.3074 20.75 14.9712C21.22 16.7468 21.5296 18.5534 21.6169 20.3939C21.6239 20.5521 21.6014 20.723 21.8237 20.754C21.7787 20.9476 21.6309 21.0563 21.4888 21.1693Z" fill="#A43D8F"/>
<path d="M15.9175 4.86202C15.9879 4.89309 16.0582 4.92276 16.1286 4.95383C15.826 5.16712 15.5347 5.26035 15.28 4.88462C14.4525 3.90434 13.528 3.02717 12.5373 2.21356C11.8182 1.62313 11.0596 1.09627 10.2631 0.618841C10.1182 0.531265 9.93946 0.46629 9.88599 0.271363C9.98449 0.1739 10.1055 0.214863 10.2209 0.216276C10.9133 0.714891 11.6085 1.20644 12.2952 1.71071C13.4435 2.55398 14.4005 3.60489 15.3884 4.61907C15.5502 4.78433 15.6853 4.90298 15.9175 4.86202Z" fill="#A43C8F"/>
<path d="M17.3965 24.028C17.3065 24.1085 17.2023 24.1537 17.0799 24.1523C16.9603 24.052 16.9378 23.9135 16.9364 23.7723C16.9167 22.4954 16.9476 21.2171 16.9026 19.9402C17.0321 19.724 17.2023 19.6605 17.4289 19.7933C17.6062 20.0687 17.6555 20.3766 17.6569 20.6973C17.6597 21.5928 17.6583 22.4897 17.6583 23.3853C17.6569 23.6339 17.6527 23.8811 17.3965 24.028Z" fill="#C63C74"/>
<path d="M12.6458 24.9971C12.8864 24.6566 12.7147 24.2258 12.8146 23.9207C13.0454 23.2187 12.9948 22.5237 12.9328 21.8486C12.8808 21.2807 12.9427 20.6903 12.7527 20.1366C12.9005 19.9855 13.0553 19.9996 13.2157 20.1154C13.3606 20.3075 13.4 20.5519 13.4043 20.7652C13.4338 22.083 13.5323 23.4052 13.317 24.7174C13.2987 24.8247 13.241 24.9137 13.1749 24.9971C12.9976 24.9971 12.8217 24.9971 12.6458 24.9971Z" fill="#DC5655"/>
<path d="M7.51619 19.675C7.42613 20.2315 7.70899 20.7358 7.73995 21.2782C7.79342 22.1977 7.88067 23.1159 7.68788 24.0312C7.61611 23.9987 7.54575 23.9662 7.47398 23.9337C7.19956 23.7699 7.20238 23.5001 7.23052 23.2373C7.34451 22.1455 7.208 21.0804 6.91389 20.0281C6.85056 19.8007 6.74502 19.538 7.07994 19.408C7.2854 19.3996 7.45005 19.4561 7.51619 19.675Z" fill="#EF7C3E"/>
<path d="M10.5347 24.8746C10.681 23.294 10.6824 21.7134 10.5347 20.1328C10.6487 20.0226 10.7683 20.0283 10.8907 20.1173C11.2102 20.5834 11.0779 21.1343 11.1651 21.6428C11.3241 22.5694 11.1426 23.4875 11.0736 24.4085C11.061 24.5836 10.9864 24.7461 10.8513 24.8704C10.8105 24.8774 10.7697 24.8859 10.7289 24.893C10.6641 24.8873 10.5994 24.8817 10.5347 24.8746Z" fill="#E76344"/>
<path d="M7.15305 19.4853C6.911 19.5221 6.94759 19.669 7.01373 19.8328C7.3557 20.6874 7.34022 21.6055 7.46687 22.4968C7.53442 22.97 7.20512 23.4531 7.47532 23.9319C7.31067 23.9122 7.16853 23.8472 7.05173 23.7285C7.03906 22.6409 7.14602 21.5434 6.84064 20.4755C6.72947 20.0885 6.61126 19.7043 6.48883 19.3201C6.45364 19.2085 6.43254 19.1167 6.55356 19.0503C6.85049 19.0616 7.10661 19.128 7.15305 19.4853Z" fill="#F08141"/>
<path d="M12.2235 20.1366C12.3769 21.7568 12.3529 23.3769 12.2235 24.9957C12.0827 24.9957 11.942 24.9957 11.8013 24.9957C11.6873 24.5126 11.7999 24.0309 11.8491 23.5549C11.9223 22.8529 11.9322 22.1593 11.8491 21.4601C11.7957 21.0138 11.7422 20.5646 11.7746 20.1112C11.9308 19.9996 12.0813 19.9883 12.2235 20.1366Z" fill="#E05C4D"/>
<path d="M2.70605 4.86044C2.78345 4.69235 2.88759 4.54545 3.0438 4.44375C3.47161 4.28555 3.86705 4.49319 4.25686 4.59348C4.99708 4.78558 5.72182 5.04124 6.41701 5.36895C6.60839 5.45935 6.81104 5.53421 6.80963 5.79976C6.76178 6.00599 6.61402 6.07661 6.42123 6.08791C5.2729 5.6684 4.13583 5.21074 2.92137 4.99887C2.83412 4.98333 2.75812 4.93672 2.70605 4.86044Z" fill="#CD446A"/>
<path d="M6.18062 1.78271C8.01006 2.40139 9.62982 3.3958 11.1412 4.58089C11.2355 4.65434 11.3002 4.76593 11.379 4.85916C11.2721 4.98487 11.1356 4.98205 10.9935 4.94814C10.1589 4.34642 9.32444 3.7461 8.41957 3.24466C7.75957 2.87882 7.07704 2.57231 6.37904 2.29546C6.18906 2.21918 5.96249 2.20223 5.85132 1.98894C5.93857 1.883 6.04271 1.80531 6.18062 1.78271Z" fill="#BD3380"/>
<path d="M1.5564 18.4277C2.93129 18.9066 3.68418 19.9434 4.0951 21.2824C4.14576 21.4491 4.17109 21.6228 4.20908 21.7937C3.91497 21.6016 3.67714 21.3502 3.46324 21.0748C3.25215 20.2753 2.71317 19.7343 2.0616 19.2823C1.84629 19.0266 1.6732 18.7441 1.5564 18.4277Z" fill="#F6A85B"/>
<path d="M16.3454 0.61007C16.2877 0.978735 16.5762 1.14965 16.7901 1.3361C17.7738 2.19349 18.5027 3.26417 19.2711 4.30096C19.5708 4.70635 19.9283 5.0849 20.0324 5.60753C19.8678 5.65838 19.8298 5.52843 19.7622 5.42673C19.4709 4.98885 19.1712 4.55662 18.8714 4.12439C17.9581 2.98591 17.0504 1.84178 15.9767 0.845959C15.8514 0.730133 15.7037 0.619958 15.7051 0.417969C15.9373 0.422206 16.1498 0.487182 16.3454 0.61007Z" fill="#824A97"/>
<path d="M19.2977 18.2227C19.6284 18.5998 19.4807 19.0942 19.5862 19.5264C19.8466 20.5929 19.5876 21.6904 19.6144 22.7752C19.5581 22.8148 19.5004 22.8543 19.4441 22.8953C19.264 22.9377 19.2372 22.8105 19.2246 22.6848C19.1218 21.6396 19.1711 20.5858 19.0458 19.5406C19.0092 19.2312 18.8924 18.9233 18.9572 18.6027C19.0135 18.4261 19.0304 18.21 19.2977 18.2227Z" fill="#B93384"/>
<path d="M15.9189 24.5593C15.8148 24.5904 15.7093 24.6229 15.6051 24.654C15.5517 24.5579 15.5432 24.452 15.5517 24.346C15.6558 23.1045 15.6755 21.8629 15.5559 20.6213C15.539 20.4461 15.5643 20.2695 15.6825 20.1226C15.8021 20.0266 15.926 20.0224 16.0526 20.1071C16.2159 20.4461 16.2651 20.8119 16.2722 21.1806C16.2876 21.9914 16.2862 22.8008 16.2722 23.6115C16.2665 23.9633 16.2468 24.322 15.9189 24.5593Z" fill="#CE446A"/>
<path d="M5.16884 8.81716C5.18292 8.58551 5.05063 8.4937 4.8494 8.41318C3.63071 7.92587 2.37684 7.61653 1.05542 7.62077C1.12156 7.47952 1.1877 7.33826 1.25384 7.19701C1.99406 7.02469 2.70332 7.24928 3.3971 7.42725C4.05711 7.59675 4.7734 7.66455 5.31942 8.15752C5.40667 8.40895 5.47 8.65614 5.16884 8.81716Z" fill="#DA5457"/>
<path d="M10.2181 4.87165C9.45959 4.16116 8.54768 3.67949 7.63578 3.22184C6.90822 2.85741 6.16238 2.5057 5.35742 2.32207C5.43341 2.21048 5.54037 2.14268 5.66843 2.10596C6.57611 2.19636 7.33744 2.67237 8.12832 3.06081C8.92764 3.45349 9.67349 3.94081 10.387 4.47615C10.5277 4.58209 10.7599 4.65271 10.6093 4.91403C10.4714 4.98465 10.3391 4.98607 10.2181 4.87165Z" fill="#C0357C"/>
<path d="M13.1733 24.9971C13.3042 23.3769 13.3619 21.7568 13.1733 20.1366C13.2915 20.0222 13.4126 20.0279 13.535 20.131C13.6279 20.2468 13.6476 20.3895 13.6602 20.5265C13.7911 21.9588 13.8333 23.3897 13.5969 24.8163C13.5857 24.8841 13.5336 24.9406 13.4886 24.9943C13.3844 24.9957 13.2789 24.9971 13.1733 24.9971Z" fill="#DA5457"/>
<path d="M5.15338 17.7893C5.93582 18.5309 6.22008 19.5281 6.51842 20.5126C6.82098 21.5155 6.72811 22.5551 6.73796 23.5848C6.63241 23.5213 6.52687 23.4577 6.42132 23.3941C6.7084 22.1285 6.44384 20.9237 6.01462 19.74C5.74302 18.9928 5.35743 18.3077 4.82408 17.7116C4.7706 17.6523 4.76075 17.5534 4.7312 17.4729C4.98451 17.4277 5.02532 17.6664 5.15338 17.7893Z" fill="#F18845"/>
<path d="M5.47418 7.52605C5.46996 7.31699 5.33205 7.21812 5.16177 7.15173C4.04441 6.71527 2.90171 6.38474 1.69287 6.35084C1.74775 6.18416 1.82797 6.03302 1.96307 5.9172C2.92845 5.90166 3.84739 6.14885 4.75366 6.44124C5.1097 6.55565 5.51359 6.60933 5.75001 6.96528C5.76408 7.20399 5.78378 7.44695 5.47418 7.52605Z" fill="#D54D60"/>
<path d="M15.397 24.6921C15.3055 24.7839 15.1901 24.7825 15.0733 24.7712C14.9509 24.2881 14.9818 23.7853 15.0508 23.3135C15.1901 22.3417 14.9678 21.3868 15.0057 20.4249C15.01 20.3204 14.9889 20.2145 15.0452 20.117C15.1859 19.9955 15.335 19.9927 15.4927 20.0803C15.601 20.7498 15.7122 21.4179 15.6742 22.103C15.6334 22.8191 15.7375 23.5423 15.5574 24.2528C15.5152 24.4082 15.4941 24.5621 15.397 24.6921Z" fill="#D14866"/>
<path d="M3.55476 3.88275C3.61809 3.81778 3.68142 3.7528 3.74334 3.68783C4.08812 3.55505 4.39771 3.71749 4.71013 3.81213C5.59952 4.07909 6.46498 4.40679 7.29245 4.83478C7.4768 4.93083 7.68367 5.00852 7.72026 5.25712C7.64005 5.48171 7.47399 5.55799 7.24883 5.53397C6.24545 4.97321 5.17593 4.58336 4.06982 4.28108C3.85451 4.22175 3.54914 4.24435 3.55476 3.88275Z" fill="#C93F6F"/>
<path d="M2.3064 5.39712C2.35284 5.3265 2.39928 5.25587 2.44431 5.18525C2.80316 4.77703 3.21549 5.09061 3.57152 5.14993C4.41869 5.29119 5.21661 5.62171 5.99201 5.99462C6.10459 6.04829 6.20029 6.12457 6.25658 6.2418C6.29739 6.45227 6.20592 6.57092 6.00046 6.60906C4.89294 6.18107 3.77417 5.78839 2.59629 5.60053C2.47527 5.58075 2.36832 5.51436 2.3064 5.39712Z" fill="#D14866"/>
<path d="M17.3966 24.028C17.4909 23.8726 17.5064 23.7017 17.5008 23.5237C17.4586 22.2722 17.6035 21.0151 17.3826 19.7679C17.4529 19.5913 17.5768 19.6181 17.7105 19.6789C17.9033 19.9063 17.9314 20.1959 17.9412 20.4657C17.9821 21.4586 18.0088 22.4516 17.9595 23.446C17.9525 23.5901 17.9103 23.7201 17.8174 23.8302C17.7006 23.9432 17.5571 24.004 17.3966 24.028Z" fill="#C43B77"/>
<path d="M16.8674 24.243C16.7957 24.2727 16.7239 24.3024 16.6507 24.332C16.4636 24.2487 16.4157 24.0848 16.4101 23.9012C16.3707 22.6596 16.4579 21.4166 16.3468 20.1764C16.3425 20.1227 16.3805 20.079 16.403 20.0309C16.4523 19.9801 16.5114 19.9504 16.5818 19.9434C17.0265 20.0903 16.9505 20.4914 16.9631 20.8106C16.9941 21.5776 16.9871 22.346 16.9674 23.1144C16.9575 23.4916 17.0715 23.8828 16.8674 24.243Z" fill="#C93F6F"/>
<path d="M14.651 24.8659C14.4061 24.9069 14.1683 25.0044 13.9122 24.9733C13.8854 24.9097 13.8967 24.8532 13.9431 24.8038C14.1191 24.6837 14.1599 24.5043 14.1782 24.3038C14.2809 23.1681 14.3498 22.0353 14.1922 20.8982C14.157 20.6425 14.1388 20.3713 14.2907 20.1312C14.3667 20.0578 14.4526 20.0507 14.5483 20.086C14.8438 20.4151 14.8649 20.8375 14.8438 21.2316C14.803 22.0423 14.7819 22.8503 14.8522 23.6597C14.8832 24.0142 14.7439 24.3546 14.7298 24.7063C14.7199 24.7671 14.6918 24.8207 14.651 24.8659Z" fill="#D54D60"/>
<path d="M19.081 18.5239C19.2906 19.7457 19.2189 20.9916 19.4032 22.2148C19.4384 22.4451 19.1921 22.6852 19.4426 22.8942C19.3272 22.9719 19.2104 23.051 19.095 23.1287C18.8938 22.9564 18.9304 22.7177 18.9276 22.4945C18.9149 21.4111 18.8206 20.3334 18.7109 19.257C18.7038 19.1864 18.6813 19.12 18.6518 19.0564C18.5884 18.7118 18.7404 18.5409 19.081 18.5239Z" fill="#BD3382"/>
<path d="M2.30662 5.39746C3.38036 5.60227 4.44988 5.82121 5.46029 6.25485C5.65027 6.33678 5.85573 6.39469 5.99787 6.56137C6.03727 6.75488 6.01335 6.90461 5.76145 6.88342C4.79044 6.36079 3.72936 6.13197 2.65984 5.93704C2.44875 5.8989 2.2447 5.88336 2.09131 5.71386C2.1279 5.58391 2.19685 5.47656 2.30662 5.39746Z" fill="#D24A64"/>
<path d="M10.6403 4.86459C10.0239 4.22613 9.25557 3.80238 8.49705 3.3758C7.59359 2.86871 6.65354 2.43648 5.66846 2.10596C5.72897 2.06641 5.78948 2.02685 5.84999 1.9873C7.63722 2.50428 9.18943 3.47044 10.6811 4.54677C10.7909 4.62587 10.8655 4.75441 10.9555 4.86035C10.8528 4.9564 10.7473 4.9564 10.6403 4.86459Z" fill="#BF347E"/>
<path d="M17.8189 23.8306C17.8189 22.8348 17.8245 21.8375 17.8146 20.8417C17.8104 20.4476 17.7682 20.0535 17.5923 19.6905C17.612 19.5196 17.7302 19.5182 17.8583 19.5365C18.12 19.7682 18.2495 20.0408 18.2129 20.4095C18.1636 20.8926 18.1538 21.3672 18.3339 21.8516C18.4648 22.2019 18.462 22.6271 18.2875 22.9831C18.1735 23.2175 18.2312 23.469 18.127 23.6921C18.0243 23.7388 17.9216 23.784 17.8189 23.8306Z" fill="#C2397A"/>
<path d="M5.1533 17.789C5.01257 17.683 4.87185 17.5771 4.73112 17.4711C4.08097 16.8595 3.40407 16.2903 2.55972 15.9583C1.87157 15.6886 1.16794 15.5191 0.423494 15.5643C0.410829 15.4965 0.398163 15.4287 0.385498 15.3594C2.34441 15.2295 3.81922 16.1434 5.06323 17.5502C5.1139 17.611 5.12375 17.7084 5.1533 17.789Z" fill="#F18745"/>
<path d="M7.68515 5.27001C7.14617 4.80106 6.4735 4.59766 5.83178 4.33776C5.15489 4.06373 4.45267 3.85892 3.74341 3.68659C3.81518 3.61738 3.88836 3.54675 3.96013 3.47754C5.28717 3.72897 6.50586 4.27137 7.70063 4.87875C7.81884 4.93807 7.90187 5.0652 8.00178 5.15983C7.92861 5.2912 7.83432 5.359 7.68515 5.27001Z" fill="#C83D71"/>
<path d="M0.524805 9.10352C2.08687 9.21369 3.625 9.43546 5.04352 10.1615C5.04211 10.2321 5.04211 10.3027 5.04071 10.3748C3.99089 10.0245 2.96781 9.57812 1.85185 9.46512C1.37057 9.41568 0.886472 9.33941 0.415039 9.52586C0.451628 9.38461 0.488217 9.24335 0.524805 9.10352Z" fill="#E15E4B"/>
<path d="M10.1125 20.1283C10.1787 20.8077 10.2533 21.4857 10.3082 22.1665C10.3673 22.9067 10.1928 23.6327 10.159 24.3672C10.1519 24.5071 10.128 24.6455 10.1125 24.7853C9.95493 24.791 9.79732 24.7966 9.66504 24.685C10.0985 24.5537 9.96197 24.1229 9.97041 23.8842C10.0112 22.6284 10.1294 21.3614 9.79591 20.1212C9.90427 20.0294 10.0098 20.0294 10.1125 20.1283Z" fill="#EB673E"/>
<path d="M5.26882 8.15032C4.34003 7.82545 3.40702 7.52176 2.43178 7.35367C2.03916 7.28587 1.62824 7.37768 1.25391 7.19688C1.28909 7.12626 1.32427 7.05563 1.35945 6.98501C2.57814 6.97653 3.72224 7.3452 4.86916 7.69691C5.03381 7.74776 5.18298 7.85087 5.36733 7.83392C5.43206 7.96952 5.37155 8.06699 5.26882 8.15032Z" fill="#D85259"/>
<path d="M18.68 18.9586C19.0586 19.2863 18.9122 19.7609 18.9559 20.1536C19.0642 21.1381 19.0572 22.1368 19.0966 23.1298C18.9896 23.1933 18.8827 23.2569 18.7757 23.3219C18.5646 23.127 18.6181 22.8671 18.6223 22.6297C18.6463 21.456 18.5984 20.2864 18.4858 19.1182C18.5126 19.018 18.5407 18.9191 18.68 18.9586Z" fill="#BE3380"/>
<path d="M6.24817 6.25874C5.27715 5.86606 4.35962 5.34484 3.27462 5.24455C3.00161 5.21913 2.73001 5.1146 2.44434 5.18523C2.53159 5.07647 2.61884 4.96911 2.70609 4.86035C4.01625 5.04963 5.28701 5.36603 6.43252 6.06805C6.4297 6.1867 6.36497 6.24885 6.24817 6.25874Z" fill="#D04668"/>
<path d="M3.5548 3.88281C3.6716 4.06079 3.85595 4.09186 4.04593 4.13424C5.05072 4.35742 5.98655 4.77411 6.9266 5.17667C7.0631 5.236 7.23479 5.27413 7.26294 5.46765C7.24183 5.60466 7.15035 5.65127 7.02511 5.64986C5.92885 5.14842 4.8143 4.69642 3.62939 4.4464C3.47177 4.4125 3.31979 4.38002 3.23535 4.22323C3.3409 4.11023 3.44785 3.99581 3.5548 3.88281Z" fill="#CA416D"/>
<path d="M18.6604 23.3899C18.5886 23.4295 18.5168 23.469 18.4465 23.5072C18.2255 23.486 18.2129 23.3136 18.2297 23.1597C18.3634 22.0043 18.1918 20.8644 18.0904 19.7188C18.0806 19.6129 18.1003 19.5083 18.1341 19.4081C18.1777 19.3092 18.2424 19.2357 18.3592 19.2329C18.6618 19.3657 18.5689 19.6637 18.5872 19.8798C18.6913 21.048 18.787 22.2175 18.6604 23.3899Z" fill="#C0357C"/>
<path d="M14.6511 24.8656C14.6511 24.8374 14.6511 24.8077 14.6511 24.7795C14.8608 23.8246 14.8861 22.8585 14.8678 21.8824C14.8566 21.2991 14.6314 20.7213 14.8186 20.1351C14.9002 20.0603 14.9846 20.0589 15.0719 20.1253C15.1774 21.0957 15.3196 22.0618 15.1901 23.0435C15.1155 23.6156 15.2661 24.206 15.0719 24.771C14.9396 24.8346 14.8031 24.8882 14.6511 24.8656Z" fill="#D24A64"/>
<path d="M16.4452 20.0196C16.6451 21.2499 16.5142 22.4887 16.5508 23.7232C16.5564 23.9308 16.524 24.1441 16.6507 24.332C16.5114 24.3744 16.3735 24.4181 16.2342 24.4605C16.0512 24.2642 16.2257 24.0636 16.2229 23.8659C16.2046 22.6638 16.3411 21.4561 16.1019 20.2611C16.0906 20.2089 16.054 20.1693 16.0231 20.1269C15.9203 20.1255 15.8176 20.1255 15.7135 20.1241C15.7107 20.093 15.7064 20.0634 15.7036 20.0323C15.9471 19.8148 16.1947 19.819 16.4452 20.0196Z" fill="#CA416D"/>
<path d="M13.49 24.9958C13.6209 23.3771 13.6786 21.7569 13.49 20.1382C13.5815 20.0591 13.6701 20.0619 13.756 20.1481C13.8094 20.2201 13.8488 20.302 13.8573 20.3896C13.9952 21.8798 14.0768 23.37 13.7855 24.8531C13.7757 24.9054 13.732 24.9435 13.7011 24.9859C13.6307 24.9873 13.5604 24.9916 13.49 24.9958Z" fill="#D95259"/>
<path d="M13.7012 24.983C13.8461 23.9433 13.8011 22.8967 13.8067 21.8514C13.8109 21.2765 13.8264 20.7016 13.7012 20.1352C13.7926 20.0561 13.8827 20.0604 13.9685 20.1451C14.129 20.3697 14.1642 20.631 14.1712 20.8952C14.2007 21.9658 14.1951 23.0351 14.1712 24.1058C14.1642 24.3911 14.1205 24.6665 13.9123 24.8855C13.9123 24.9137 13.9123 24.9434 13.9123 24.9717C13.8419 24.9759 13.7715 24.9801 13.7012 24.983Z" fill="#D7515B"/>
<path d="M3.2352 4.2251C4.55803 4.53444 5.86397 4.89463 7.05311 5.58676C7.01511 5.75908 6.94334 5.88339 6.73507 5.80711C6.47613 5.37488 5.98499 5.35369 5.58955 5.1856C4.77475 4.83813 3.91069 4.63473 3.04663 4.44404C3.10714 4.37059 3.17047 4.29714 3.2352 4.2251Z" fill="#CC426C"/>
<path d="M18.2212 19.3327C18.3816 20.5546 18.3394 21.7834 18.3464 23.0109C18.3478 23.1804 18.2901 23.3669 18.4463 23.5081C18.3394 23.5689 18.2338 23.631 18.1269 23.6917C18.003 23.4431 17.9876 23.2171 18.1424 22.9558C18.3478 22.6069 18.338 22.1535 18.1874 21.847C17.9819 21.4303 18.0002 21.0249 18.0495 20.6323C18.1001 20.2283 18.0298 19.9034 17.8088 19.587C17.8384 19.3257 18.0087 19.2946 18.2212 19.3327Z" fill="#C1387B"/>
<path d="M2.0912 5.71387C3.27892 5.89043 4.44976 6.13056 5.54884 6.64189C5.66423 6.69556 5.78103 6.7224 5.78526 6.87636C5.82607 6.96676 5.774 7.00208 5.69941 7.02326C5.05207 6.58256 4.30482 6.40458 3.55897 6.2591C3.02421 6.15457 2.48664 6.06841 1.96313 5.91586C2.00535 5.84947 2.04898 5.78167 2.0912 5.71387Z" fill="#D34B62"/>
<path d="M11.8012 20.1365C12.1037 21.7566 12.0503 23.3768 11.8012 24.9969C11.7308 24.9955 11.6605 24.9955 11.5901 24.9941C11.6605 24.2101 11.797 23.4347 11.804 22.6437C11.8124 21.8004 11.7097 20.967 11.5901 20.1365C11.6619 20.0658 11.7322 20.0658 11.8012 20.1365Z" fill="#E15D4B"/>
<path d="M15.397 24.692C15.3759 24.3911 15.3857 24.0987 15.5391 23.8219C15.594 23.7216 15.6151 23.5789 15.5954 23.4645C15.48 22.7498 15.5419 22.0393 15.5968 21.326C15.6278 20.9192 15.2267 20.5435 15.4941 20.1127C15.5574 20.0604 15.6235 20.0533 15.6939 20.0999L15.7136 20.124C15.7347 20.6466 15.7037 21.165 15.7727 21.6918C15.9008 22.6806 15.76 23.6708 15.6052 24.6525C15.5363 24.6666 15.4659 24.6793 15.397 24.692Z" fill="#CF4668"/>
<path d="M16.8674 24.2427C16.8674 23.1537 16.8815 22.0632 16.8589 20.9742C16.8519 20.6352 16.911 20.2397 16.5381 20.008C16.631 19.7453 16.7928 19.7919 16.9715 19.9092C17.1911 21.3188 17.0236 22.7384 17.0785 24.1523C17.0278 24.2272 16.9532 24.2498 16.8674 24.2427Z" fill="#C83F72"/>
<path d="M16.0231 20.127C16.4143 20.401 16.32 20.8417 16.3242 21.2019C16.3383 22.2881 16.4213 23.3785 16.2342 24.4605C16.1413 24.5326 16.0386 24.5735 15.9189 24.5594C16.0639 24.1992 16.1371 23.8277 16.1314 23.435C16.1188 22.3319 16.1694 21.2259 16.0231 20.127Z" fill="#CC426C"/>
<path d="M22.3557 10.7988C22.7849 11.5121 22.9454 12.3272 23.1902 13.1069C23.5294 14.1903 23.7756 15.3005 23.9712 16.4206C23.9881 16.5195 23.9192 16.8387 24.2414 16.7342C24.226 16.9037 24.1669 17.0548 24.0585 17.1862C23.7531 16.3613 23.6912 15.4785 23.4745 14.6324C23.1958 13.5447 22.868 12.4727 22.5049 11.409C22.4387 11.2099 22.405 11.0022 22.3557 10.7988Z" fill="#844996"/>
<path d="M2.06152 19.2837C2.80456 19.4673 3.58981 20.4702 3.46316 21.0762C2.92418 20.5352 2.44008 19.9518 2.06152 19.2837Z" fill="#F7AC5E"/>
<path d="M18.6602 23.3898C18.6799 22.1001 18.6095 20.8162 18.4519 19.5364C18.4392 19.4291 18.428 19.3288 18.3267 19.2652C18.3323 19.1141 18.3759 19.0096 18.5589 19.0703C18.7024 19.6141 18.7488 20.1721 18.7629 20.7286C18.784 21.5916 18.7728 22.4561 18.7756 23.3191C18.7362 23.3431 18.6982 23.3672 18.6602 23.3898Z" fill="#BF357F"/>
<path d="M24.9718 11.8522C24.817 11.6488 24.9113 11.4171 24.8958 11.1968C25.0014 11.4058 24.9873 11.629 24.9718 11.8522Z" fill="#724F9B"/>
<path d="M13.5969 0.101755C13.528 0.0720925 13.459 0.0410173 13.3887 0.0113546C13.6096 -0.00135798 13.832 -0.0211331 14.0374 0.0932801C13.8911 0.0961052 13.7433 0.0989302 13.5969 0.101755Z" fill="#8D4895"/>
<path d="M18.5577 19.0701C18.4803 19.1351 18.4029 19.2001 18.3255 19.2651C18.2903 19.2877 18.2551 19.3103 18.2199 19.3329C18.082 19.4176 17.9455 19.5024 17.8076 19.5857C17.7358 19.6196 17.6626 19.6549 17.5909 19.6888C17.5219 19.7157 17.4515 19.7411 17.3826 19.7679C17.2461 19.8145 17.1082 19.8612 16.9717 19.9078C16.8183 19.9035 16.6677 19.9106 16.5382 20.0066L16.4904 19.9996L16.4454 20.0194C16.192 20.0208 15.9359 19.9982 15.6939 20.1013C15.6277 20.1055 15.5616 20.1098 15.494 20.114C15.3533 20.1182 15.2126 20.1225 15.0719 20.1267C15.0015 20.1281 14.9311 20.1295 14.8608 20.1309C14.7566 20.2072 14.6511 20.21 14.5441 20.1338C14.4738 20.1338 14.4034 20.1352 14.3331 20.1352C14.1923 20.2383 14.0516 20.2397 13.9109 20.1366C13.8405 20.1366 13.7702 20.1366 13.6998 20.1366C13.6294 20.1366 13.5591 20.1366 13.4887 20.1366C13.3832 20.1366 13.2776 20.1366 13.1721 20.1366C13.0313 20.1366 12.8906 20.1366 12.7499 20.1366C12.574 20.1366 12.3981 20.1366 12.2222 20.1366C12.0814 20.1366 11.9407 20.1366 11.8 20.1366C11.7296 20.1366 11.6593 20.1366 11.5889 20.1366C11.4496 20.1366 11.3089 20.1366 11.1695 20.1366C11.0626 20.2242 10.957 20.2072 10.8501 20.1352C10.7445 20.1352 10.639 20.1338 10.5334 20.1338C10.3927 20.1324 10.252 20.1309 10.1113 20.1281C10.0057 20.1253 9.90018 20.1225 9.79464 20.1211C9.66517 20.1154 9.53429 20.1098 9.40483 20.1041C9.15574 20.001 8.89399 20.0179 8.63365 20.0151C8.47463 19.9247 8.30294 19.8993 8.12281 19.9007C7.92016 19.8258 7.71611 19.751 7.51347 19.6761C7.39244 19.6126 7.27142 19.5504 7.15039 19.4868C6.95056 19.3414 6.75073 19.1959 6.55231 19.0504C6.0077 18.5122 5.63055 17.8681 5.36317 17.1548C5.29844 16.8271 5.2323 16.4994 5.16756 16.1717C5.16052 16.0756 5.15208 15.9796 5.14504 15.8835C5.13379 15.2112 5.12112 14.5388 5.10986 13.8665C5.12394 12.2435 5.13801 10.6219 5.15208 8.99895C5.15771 8.93821 5.16334 8.87748 5.16897 8.81815C5.27451 8.60628 5.27311 8.38027 5.26888 8.15145C5.30125 8.04551 5.33502 7.93957 5.36739 7.83504C5.45605 7.75029 5.47716 7.64294 5.47434 7.52712C5.54893 7.36044 5.62492 7.19235 5.69951 7.02568C5.72765 6.97624 5.7572 6.9268 5.78535 6.87878C5.85571 6.77425 5.92607 6.66831 5.99784 6.56379C6.08087 6.4635 6.16531 6.3618 6.24834 6.26151C6.31026 6.19795 6.37077 6.13438 6.43269 6.06941C6.5326 5.98183 6.63252 5.89567 6.73384 5.80809C6.83939 5.73464 6.94634 5.66119 7.05188 5.58774C7.12225 5.54819 7.19261 5.51005 7.26297 5.4705C7.4037 5.40412 7.54443 5.33773 7.68515 5.27134C7.7907 5.23461 7.89624 5.19789 8.00179 5.16116C8.24806 5.09901 8.49433 5.03686 8.7406 4.97471C8.84614 4.96624 8.95169 4.95917 9.05723 4.9507C9.44704 4.96765 9.83404 4.94364 10.2182 4.8716C10.3589 4.86877 10.4997 4.86736 10.6404 4.86454C10.7459 4.86312 10.8515 4.86171 10.957 4.86171C11.0978 4.86171 11.2385 4.8603 11.3792 4.8603C11.5551 4.8603 11.731 4.8603 11.9069 4.85889C12.1532 4.85889 12.3995 4.85889 12.6457 4.85889C12.7865 4.85889 12.9272 4.85889 13.0679 4.85889C13.3846 4.85889 13.7012 4.8603 14.0178 4.8603C14.2289 4.86171 14.44 4.86454 14.6511 4.86595C14.8608 4.8716 15.0705 4.87866 15.2801 4.88431C15.556 4.98319 15.843 4.95494 16.1287 4.95352C16.2666 4.96906 16.406 4.9846 16.5439 4.99872C16.7915 5.06229 17.0392 5.12726 17.2883 5.19083C17.4628 5.2671 17.6373 5.34196 17.8104 5.41824C18.0947 5.62023 18.3789 5.82363 18.6632 6.02562C19.198 6.57226 19.5498 7.22767 19.8045 7.94098C19.8523 8.22207 19.9002 8.50316 19.948 8.78425C19.9776 9.208 20.0071 9.63176 20.0353 10.0555C20.0381 10.4086 20.0409 10.7618 20.0437 11.1149C20.0437 11.4327 20.0451 11.7505 20.0451 12.0683C20.0451 12.3862 20.0451 12.704 20.0451 13.0218C20.0451 13.2337 20.0451 13.4455 20.0451 13.6574C20.0423 14.1165 20.0381 14.5755 20.0353 15.0346C20.0296 15.2013 20.0254 15.3694 20.0198 15.536C19.9157 16.2578 19.8467 16.9853 19.5821 17.6746C19.4864 17.8568 19.3922 18.0404 19.2965 18.2226C19.2247 18.3229 19.1529 18.4232 19.0812 18.5249C18.9475 18.669 18.8138 18.8145 18.6787 18.9586C18.6393 18.9953 18.5985 19.0334 18.5577 19.0701Z" fill="white"/>
<path d="M18.8728 4.12451C19.2598 4.38583 19.3991 4.835 19.6763 5.17824C19.7932 5.32232 19.8368 5.52996 20.0338 5.60623C20.0901 5.74183 20.2843 5.84353 20.1393 6.02998C19.6313 5.45368 19.2134 4.81523 18.8728 4.12451Z" fill="#824997"/>
<path d="M20.1392 6.03166C20.1041 5.89041 20.0689 5.74916 20.0337 5.60791C20.5924 6.21953 20.9822 6.92437 21.1947 7.72667C20.9287 7.26478 20.6627 6.80431 20.3996 6.33959C20.3306 6.21953 20.2814 6.08675 20.1392 6.03166Z" fill="#824A97"/>
<path d="M10.8513 20.1353C10.9583 20.1353 11.0638 20.1367 11.1708 20.1367C11.3298 20.5661 11.3481 21.0251 11.365 21.4658C11.4058 22.4744 11.41 23.4857 11.2791 24.4928C11.2425 24.7768 11.1398 24.9124 10.8513 24.8714C11.106 23.2922 11.106 21.713 10.8513 20.1353Z" fill="#E56146"/>
<path d="M13.9121 20.1352C14.0528 20.1352 14.1936 20.1338 14.3343 20.1338C14.3202 21.0463 14.5102 21.9489 14.4412 22.8642C14.399 23.4221 14.3638 23.9801 14.3343 24.5394C14.3188 24.8191 14.1556 24.8954 13.9121 24.8869C14.0754 23.3021 14.0838 21.7186 13.9121 20.1352Z" fill="#D64F5D"/>
<path d="M14.5454 20.1327C14.651 20.1313 14.7565 20.1299 14.862 20.1299C14.8578 20.7754 14.9648 21.4082 15.0534 22.0438C15.1421 22.6894 15.0014 23.3292 14.8874 23.9564C14.8381 24.2262 15.0647 24.6089 14.6524 24.7799C14.6073 24.1471 14.7227 23.5185 14.6608 22.8829C14.5721 21.9704 14.8086 21.041 14.5454 20.1327Z" fill="#D34B62"/>
<path d="M18.4632 16.6294C18.4224 16.9147 18.3422 17.1831 18.1452 17.4035C17.8469 17.2679 17.7906 16.9854 17.7413 16.7085C17.5035 15.3751 16.8843 14.1589 16.6113 12.7945C16.4776 12.9103 16.486 13.0784 16.327 13.036C16.1581 12.8439 16.1919 12.6052 16.199 12.382C16.2299 11.3904 15.8668 10.5683 15.1702 9.88045C15.0337 9.74485 14.8916 9.61207 14.8212 9.42562C14.6031 8.62896 13.9881 8.09645 13.5125 7.47353C13.3225 7.22493 13.1058 6.99045 12.9031 6.7475C12.7765 6.59495 12.6273 6.47489 12.4092 6.49184C12.3065 6.48901 12.2051 6.48901 12.1024 6.48054C11.9772 6.44946 11.8238 6.45935 11.8069 6.2729C12.1925 6.2729 12.5795 6.27148 12.9651 6.27148C13.0411 6.29408 13.11 6.33081 13.179 6.36754C14.0008 7.0978 14.6242 7.99333 15.2336 8.89593C16.6619 11.0161 17.6695 13.3298 18.331 15.7989C18.4084 16.0701 18.4548 16.3469 18.4632 16.6294Z" fill="#BE3580"/>
<path d="M18.6491 14.6081C18.6646 15.0277 18.6885 15.4486 18.6055 15.8653C18.3184 15.8328 18.3325 15.5814 18.2692 15.3907C17.8681 14.1872 17.4642 12.988 16.9323 11.8297C16.102 10.0217 15.0339 8.37473 13.7547 6.86052C13.6238 6.70656 13.4155 6.58649 13.4817 6.328C14.0037 6.1924 14.3781 6.38027 14.6863 6.81815C15.1056 7.41281 15.6573 7.92132 15.8008 8.67983C15.9275 8.9355 16.1864 9.06827 16.3609 9.28015C17.384 10.9441 18.2593 12.6716 18.6491 14.6081Z" fill="#BA3384"/>
<path d="M13.4915 6.35056C14.7341 7.72352 15.7868 9.23631 16.6367 10.8791C17.4065 12.3664 17.9863 13.9343 18.4437 15.546C18.4788 15.6689 18.5 15.7833 18.6055 15.8638C18.5844 16.1237 18.6027 16.3907 18.4648 16.628C18.2467 15.9288 18.037 15.2282 17.8104 14.5332C16.9337 11.8495 15.6545 9.38604 13.8053 7.23903C13.5548 6.94805 13.3142 6.64577 13.0693 6.34915C13.2101 6.27146 13.3508 6.27005 13.4915 6.35056Z" fill="#BD3381"/>
<path d="M9.67642 18.6552L9.62998 18.6665L9.58636 18.6467C9.45689 18.5224 9.37386 18.3713 9.31616 18.2004C8.77718 16.6014 7.87091 15.2313 6.73102 14.0052C6.62266 13.888 6.51853 13.7693 6.47772 13.6097C6.47631 13.4219 6.46364 13.234 6.48616 13.0475C6.75073 12.8427 6.90271 13.073 7.06032 13.2142C7.62463 13.7213 8.08481 14.323 8.51965 14.9403C9.19092 15.8952 9.67502 16.9489 10.0733 18.0422C10.145 18.2414 10.297 18.4631 10.0873 18.6778C9.94943 18.6891 9.81152 18.7075 9.67642 18.6552Z" fill="#EA6641"/>
<path d="M16.3736 13.0233C16.4144 12.9132 16.4552 12.803 16.496 12.6914C16.8718 12.8863 16.9773 13.2903 17.0195 13.6138C17.1082 14.2988 17.4009 14.8907 17.6415 15.5136C17.7457 15.7834 17.7584 16.0885 17.8118 16.3781C17.878 16.734 17.9638 17.0843 18.1439 17.4035C17.9357 17.5801 17.8934 17.905 17.6092 18.0152C17.4037 17.7906 17.4262 17.4925 17.3615 17.2241C17.0589 15.9939 16.793 14.7537 16.1836 13.6251C16.1456 13.3934 16.1513 13.1731 16.3736 13.0233Z" fill="#C1377A"/>
<path d="M18.649 14.6083C18.1326 13.2311 17.6626 11.8355 16.9505 10.5417C16.7225 10.1278 16.4734 9.72522 16.2356 9.31701C16.4059 9.15315 16.6043 9.16587 16.8098 9.22237C17.2742 9.53736 17.4332 10.0713 17.6555 10.5318C18.0425 11.3341 18.4971 12.1194 18.6547 13.0192C18.6519 13.5503 18.6504 14.0786 18.649 14.6083Z" fill="#B53487"/>
<path d="M6.54103 13.6592C8.00177 15.0477 9.03751 16.6975 9.58493 18.6482C9.288 18.6566 8.98826 18.6877 8.70821 18.5465C8.88693 18.3289 8.85738 18.11 8.75465 17.8628C8.24663 16.6368 7.57114 15.5195 6.63813 14.5688C6.56354 14.4926 6.48615 14.4248 6.47348 14.3103C6.50163 14.0928 6.41015 13.864 6.54103 13.6592Z" fill="#EC693D"/>
<path d="M6.54228 14.3994C7.02356 14.5167 7.19243 14.9757 7.45419 15.3034C8.12545 16.1453 8.61377 17.1015 9.00358 18.1073C9.12038 18.4081 9.01625 18.5409 8.70806 18.5451C8.64895 18.5352 8.58844 18.5254 8.52933 18.5141C8.22114 18.0409 8.10434 17.4801 7.81726 16.9928C7.43167 16.3388 6.94616 15.7611 6.51976 15.1396C6.51554 15.0421 6.51273 14.9446 6.5085 14.8472C6.47192 14.6946 6.42548 14.5407 6.54228 14.3994Z" fill="#ED6B3B"/>
<path d="M11.8083 6.27148C11.8942 6.36754 12.0096 6.34493 12.1193 6.35058C12.9496 6.9622 13.5322 7.797 14.1331 8.61343C14.2077 8.71513 14.2204 8.84508 14.0895 8.9383C13.7095 8.95243 13.3521 8.8931 13.0481 8.64026C12.7948 8.46653 13.3929 8.70807 13.1396 8.42698C12.64 7.87186 12.0475 7.41421 11.5592 6.85344C11.3341 6.59354 11.1005 6.43957 10.7557 6.48477C10.6262 6.48195 10.4982 6.4763 10.3785 6.41697C10.3321 6.3859 10.3124 6.34352 10.3237 6.28702C10.819 6.28137 11.3144 6.27572 11.8083 6.27148Z" fill="#C1387A"/>
<path d="M17.1826 18.3017C17.0264 18.4175 16.8547 18.491 16.6605 18.5093C16.4509 17.2183 16.0695 15.9739 15.6558 14.7365C15.6924 14.4653 15.7866 14.2393 16.0822 14.1616C16.2074 14.2125 16.2651 14.3241 16.3059 14.4413C16.7056 15.5713 17.0672 16.7126 17.2502 17.9019C17.2727 18.0488 17.2797 18.1802 17.1826 18.3017Z" fill="#C63D74"/>
<path d="M6.54235 14.3991C6.53109 14.5488 6.52124 14.6971 6.50998 14.8468C6.40866 13.2493 6.41147 11.6531 6.5142 10.057C6.58597 9.99061 6.67885 9.96801 6.75344 10.0174C7.53447 10.533 8.33238 11.033 8.84181 11.8608C8.86996 11.9935 8.86574 12.1235 8.80241 12.2464C8.57865 12.4625 8.41682 12.276 8.27469 12.1419C7.93413 11.8226 7.55135 11.5514 7.22205 11.2181C7.07711 11.0712 6.93497 10.872 6.67604 10.9186C6.669 10.961 6.66196 11.002 6.65915 11.0443C6.65915 11.1912 6.66759 11.3353 6.66759 11.4808C6.67181 11.6461 6.67885 11.8113 6.67463 11.9766C6.669 12.1532 6.68589 12.3283 6.67181 12.5049C6.67463 12.6899 6.66478 12.8721 6.53812 13.0233C6.53812 13.2351 6.53812 13.447 6.53812 13.6575C6.54094 13.9047 6.54235 14.1519 6.54235 14.3991Z" fill="#DF5B51"/>
<path d="M6.52124 15.1406C7.38108 15.8158 7.86517 16.7579 8.30846 17.7213C8.42245 17.967 8.58288 18.2157 8.53081 18.5151C8.30002 18.4996 8.09737 18.4049 7.90598 18.282C7.59076 17.4035 6.97719 16.6958 6.54376 15.885C6.53531 15.6364 6.52828 15.3892 6.52124 15.1406Z" fill="#ED6E3B"/>
<path d="M18.6533 13.0203C18.3367 12.5753 18.2438 12.0301 17.9905 11.5541C17.5993 10.8182 17.2404 10.0625 16.8689 9.31665C16.8844 9.02991 17.0645 8.96494 17.3094 8.98471C17.8413 9.90143 18.3915 10.8097 18.6547 11.8549C18.6533 12.2434 18.6533 12.6318 18.6533 13.0203Z" fill="#B1368A"/>
<path d="M6.64365 8.46809C6.62254 8.30989 6.70839 8.18135 6.76327 8.04575C6.90681 7.9158 7.06161 7.95676 7.19952 8.0401C8.00729 8.52883 8.7658 9.08536 9.42018 9.77325C9.51868 9.87637 9.57779 10.0035 9.56794 10.1532C9.53698 10.3171 9.4821 10.464 9.30056 10.5148C8.87275 10.351 8.65181 9.93852 8.30422 9.67579C7.7582 9.26192 7.19108 8.87913 6.64365 8.46809Z" fill="#D64F5D"/>
<path d="M7.80054 6.77732C7.93704 6.63606 8.10451 6.56403 8.2973 6.55131C8.41129 6.49481 8.50558 6.55838 8.5872 6.61488C9.40904 7.19118 10.1901 7.81551 10.8627 8.56838C10.9458 8.6616 11.0161 8.76189 11.0147 8.89608C10.9697 9.08253 10.836 9.14327 10.6615 9.14892C10.2632 8.97094 10.0423 8.58533 9.7116 8.32684C9.17262 7.9045 8.65897 7.44826 8.07636 7.08101C7.95956 7.00614 7.83572 6.93128 7.80054 6.77732Z" fill="#CE446A"/>
<path d="M6.6438 8.46826C7.42764 8.68296 7.95959 9.28893 8.58019 9.75082C8.84194 9.94575 9.03895 10.2283 9.26552 10.4698C9.34855 10.6591 9.25708 10.7636 9.09243 10.8328C8.69981 10.6944 8.44228 10.3723 8.13127 10.1209C7.62747 9.71269 7.12227 9.30588 6.5481 8.99513C6.51996 8.80726 6.58751 8.63918 6.6438 8.46826Z" fill="#D8525A"/>
<path d="M18.6533 11.8551C18.2142 10.8932 17.6443 9.99197 17.2882 8.9905C17.246 8.87327 17.3051 8.78993 17.3839 8.71506C17.6513 8.55686 17.7808 8.75038 17.8708 8.93965C18.1326 9.48771 18.5097 9.98067 18.6505 10.5852C18.6505 11.0076 18.6519 11.4313 18.6533 11.8551Z" fill="#AC398D"/>
<path d="M17.1828 18.3018C16.9478 16.8907 16.579 15.5164 16.0415 14.1886C15.9781 14.0459 16.0555 13.9739 16.1738 13.9231C16.3187 13.9089 16.406 13.9852 16.4538 14.1123C16.9393 15.4062 17.384 16.7114 17.498 18.1041C17.4234 18.2171 17.3122 18.2736 17.1828 18.3018Z" fill="#C43A77"/>
<path d="M9.47639 10.1504C9.3047 9.62354 8.82623 9.38342 8.43642 9.07973C7.91995 8.67716 7.44993 8.17855 6.76318 8.04577C6.8251 7.84943 6.87576 7.64603 7.03901 7.50195C7.06293 7.51043 7.08545 7.52032 7.10937 7.52879C7.83833 8.01469 8.56307 8.50625 9.23152 9.07549C9.4792 9.28595 9.78458 9.47099 9.77473 9.86649C9.71984 10.0063 9.71281 10.1998 9.47639 10.1504Z" fill="#D44D60"/>
<path d="M15.8119 18.6354C15.3588 18.7244 14.9014 18.7456 14.4413 18.7075C14.4216 18.6594 14.43 18.6185 14.4722 18.5846C14.513 18.5606 14.5581 18.5436 14.6045 18.5323C14.696 18.514 14.7889 18.5111 14.8817 18.5083C14.9901 18.4956 15.1069 18.5125 15.1942 18.4207C15.211 17.8289 14.9662 17.295 14.8381 16.7356C14.7649 16.4136 14.6101 16.1056 14.6692 15.7596C14.7269 15.6127 14.8198 15.5152 14.9887 15.5166C15.1463 15.5562 15.2068 15.6875 15.249 15.8175C15.5249 16.6593 15.7655 17.5111 15.8823 18.3939C15.8936 18.4829 15.871 18.5648 15.8119 18.6354Z" fill="#CE456A"/>
<path d="M7.2854 7.20104C7.33325 7.0838 7.41909 7.00612 7.5373 6.96515C8.00733 6.88181 8.24797 7.27025 8.57586 7.47648C9.13876 7.83102 9.61583 8.2915 10.0985 8.74491C10.2618 8.89746 10.4391 9.05708 10.394 9.32404C10.3532 9.43846 10.2702 9.48789 10.152 9.48224C9.73826 9.30144 9.48636 8.92006 9.15565 8.63898C8.55334 8.12623 7.83986 7.76887 7.2854 7.20104Z" fill="#D14866"/>
<path d="M16.5508 18.5266C16.4213 18.6057 16.2834 18.641 16.1328 18.6184C15.8865 17.4785 15.6332 16.34 15.2434 15.2382C15.2659 15.0687 15.3658 14.9811 15.5291 14.96C15.7585 14.96 15.8063 15.145 15.8612 15.306C16.1877 16.2439 16.4157 17.2087 16.6211 18.1805C16.6479 18.3076 16.6267 18.4206 16.5508 18.5266Z" fill="#C9406F"/>
<path d="M6.5437 15.8853C7.1643 16.5887 7.78209 17.2935 7.90593 18.2823C6.95181 17.7696 6.60562 16.9079 6.5437 15.8853Z" fill="#EE723A"/>
<path d="M6.54947 8.9935C6.62828 8.95395 6.7099 8.92146 6.79434 8.97655C7.61758 9.51754 8.40283 10.1037 9.0741 10.8312C9.15994 10.9696 9.14024 11.0826 8.99107 11.1617C8.72228 11.19 8.58578 10.9781 8.42113 10.8312C7.81882 10.2916 7.12786 9.86643 6.5354 9.31555C6.54103 9.2082 6.54525 9.10085 6.54947 8.9935Z" fill="#DA5458"/>
<path d="M8.70239 6.43534C8.94866 6.30539 9.21323 6.33082 9.47639 6.33929C9.86057 6.43676 10.1322 6.71361 10.4136 6.9608C10.8316 7.32946 11.2129 7.73768 11.5999 8.14024C11.7547 8.30127 11.9405 8.47077 11.7435 8.72643C11.645 8.82107 11.5352 8.87757 11.3959 8.82248C10.6937 7.90859 9.84509 7.15855 8.85438 6.57236C8.79386 6.53704 8.73476 6.50314 8.70239 6.43534Z" fill="#C9406F"/>
<path d="M7.28539 7.20117C8.3535 7.79725 9.34984 8.48514 10.1252 9.45412C10.114 9.61374 10.0296 9.68154 9.87194 9.65894C9.00506 8.85522 8.08894 8.11507 7.06164 7.52181L7.04053 7.50062C7.09119 7.37632 7.16437 7.27038 7.28539 7.20117Z" fill="#D24A63"/>
<path d="M18.6504 10.5838C18.3154 10.1007 18.0565 9.57526 17.7891 9.05404C17.7131 8.90714 17.6934 8.63453 17.4007 8.78567C17.177 8.49187 17.2473 8.11472 17.1136 7.7955C17.1122 7.74323 17.1235 7.6938 17.1446 7.64577C17.4866 7.53418 17.5907 7.8181 17.7258 8.01867C17.9791 8.3944 18.1803 8.80262 18.4083 9.19529C18.4097 9.19812 18.4463 9.18965 18.4491 9.18117C18.4604 9.14868 18.466 9.11337 18.4787 9.07947C18.4998 9.03709 18.5307 9.00602 18.5716 8.98483C18.7179 9.51028 18.6546 10.0485 18.6504 10.5838Z" fill="#A83C8F"/>
<path d="M10.3223 9.30291C9.99303 8.58959 9.31051 8.22234 8.7476 7.75762C8.38453 7.45817 8.01864 7.10646 7.53735 6.96521C7.60209 6.87057 7.68371 6.79712 7.80192 6.77734C8.86722 7.40167 9.82838 8.15595 10.6418 9.09245C10.5953 9.25488 10.525 9.3806 10.3223 9.30291Z" fill="#D04668"/>
<path d="M13.4915 6.35082C13.3508 6.35082 13.2101 6.35082 13.0693 6.34941C13.0356 6.32257 13.0018 6.29573 12.968 6.26889C13.856 6.25618 14.744 6.18697 15.6277 6.33528C15.5813 6.40873 15.5109 6.44263 15.4307 6.46241C15.1788 6.47512 14.9185 6.54292 14.7538 6.42003C15.1197 6.87627 15.594 7.36076 15.874 7.98933C15.8543 8.26194 15.9162 8.55433 15.7009 8.78316C15.5292 7.90458 14.8622 7.33534 14.3767 6.65168C14.1501 6.33528 13.8293 6.32398 13.4915 6.35082Z" fill="#B63687"/>
<path d="M17.0856 6.64307C18.0946 7.09507 18.5181 7.92139 18.5716 8.98359L18.5463 9.00619C18.3732 9.1093 18.2831 8.99348 18.2142 8.86635C17.8863 8.26462 17.5007 7.69962 17.1264 7.12614C17.0321 6.98207 16.9364 6.8168 17.0856 6.64307Z" fill="#A23F90"/>
<path d="M17.4992 18.1043C17.1826 16.8641 16.918 15.6084 16.462 14.4077C16.3945 14.2312 16.386 14.0151 16.1398 13.9769C16.0244 13.8187 16.0919 13.7241 16.2481 13.6591C16.31 13.6365 16.3987 13.5842 16.4283 13.6676C16.9433 15.0843 17.4626 16.4997 17.6104 18.0167C17.5738 18.0449 17.5358 18.0746 17.4992 18.1043Z" fill="#C23979"/>
<path d="M11.6958 8.667C11.8365 8.43958 11.6255 8.35342 11.5171 8.23759C10.8796 7.55959 10.2013 6.92396 9.47656 6.33918C9.50049 6.31799 9.52582 6.31799 9.55115 6.33918C9.67639 6.27985 9.81008 6.30104 9.94237 6.30104C10.8374 6.81378 11.4904 7.59773 12.1841 8.33506C12.2545 8.40992 12.2897 8.51868 12.2137 8.62462C12.0504 8.75316 11.8844 8.84215 11.6958 8.667Z" fill="#C83F72"/>
<path d="M8.7025 6.43523C8.9347 6.44936 9.14157 6.52422 9.32592 6.67253C9.98029 7.19375 10.6304 7.72061 11.1962 8.3407C11.3003 8.45512 11.5241 8.5328 11.3791 8.76304C11.3425 8.91983 11.2412 8.96927 11.0906 8.93113C10.6079 8.15566 9.88319 7.63162 9.19504 7.06521C8.98536 6.89147 8.63354 6.82508 8.63354 6.45077C8.65325 6.42676 8.67576 6.42252 8.7025 6.43523Z" fill="#CA426D"/>
<path d="M6.53684 9.31543C7.34882 9.67138 7.95676 10.3098 8.63506 10.8508C8.74342 10.937 8.84896 11.0288 8.95591 11.1178C9.05724 11.2506 9.04738 11.3692 8.90947 11.4695C8.37472 11.4526 8.15096 10.9497 7.76256 10.7025C7.32771 10.4257 6.92242 10.0796 6.52417 9.73918C6.52839 9.59793 6.53261 9.45668 6.53684 9.31543Z" fill="#DC5655"/>
<path d="M16.5507 18.5264C16.3692 17.4769 16.1131 16.4458 15.7852 15.433C15.7373 15.2861 15.7542 15.0601 15.5094 15.0375C15.4334 14.82 15.5643 14.7522 15.7402 14.7183C16.251 15.8144 16.479 16.9952 16.7534 18.162C16.7829 18.2905 16.7196 18.4007 16.6605 18.508C16.6239 18.5151 16.5873 18.5207 16.5507 18.5264Z" fill="#C83E71"/>
<path d="M17.0855 6.64315C17.4753 7.49066 17.9284 8.30002 18.5462 9.00628C18.5462 9.1786 18.5462 9.35093 18.5462 9.66168C18.2084 9.08679 17.927 8.62349 17.6624 8.15171C17.5414 7.93418 17.4021 7.74491 17.1826 7.62202C16.8884 7.2816 16.4775 7.00334 16.5493 6.46094C16.7294 6.52026 16.9067 6.581 17.0855 6.64315Z" fill="#A53D8F"/>
<path d="M6.52401 9.73927C7.03203 9.73645 7.26282 10.1997 7.63293 10.4257C8.07903 10.6984 8.44914 11.0939 8.85303 11.4357C8.97687 11.6193 8.99657 11.7818 8.75593 11.8877C8.13392 11.1221 7.39088 10.5077 6.51416 10.0571C6.51697 9.95115 6.51979 9.84521 6.52401 9.73927Z" fill="#DD5853"/>
<path d="M8.63492 6.45083C9.32448 7.06103 10.0844 7.5879 10.7346 8.24471C10.9147 8.42693 11.1567 8.55829 11.0639 8.8761C11.0413 8.91424 11.009 8.92836 10.9653 8.91565C10.2322 7.9495 9.25412 7.26019 8.29858 6.54829C8.39006 6.44942 8.51108 6.44518 8.63492 6.45083Z" fill="#CC426C"/>
<path d="M15.3166 15.248C15.6487 15.5786 15.629 16.0475 15.7599 16.4515C15.9471 17.0264 16.0414 17.6324 16.1919 18.22C16.2314 18.3739 16.2018 18.4912 16.1314 18.6155C16.0948 18.6183 16.0583 18.6197 16.0217 18.6225C15.6994 18.1945 15.7571 17.6564 15.6093 17.1761C15.4348 16.6097 15.3293 16.0221 15.0633 15.4839C15.0281 15.2791 15.1689 15.2593 15.3166 15.248Z" fill="#CA426D"/>
<path d="M15.3955 6.36185C15.4729 6.35338 15.5503 6.3449 15.6277 6.33643C15.7966 6.34631 15.964 6.3562 16.1329 6.36609C16.4594 6.69803 16.8422 7.00172 16.7634 7.55118C16.6437 7.63593 16.5115 7.643 16.3736 7.62181C15.8416 7.36332 15.5475 6.91838 15.3955 6.36185Z" fill="#AC3A8D"/>
<path d="M15.0957 15.4643C15.4687 15.9262 15.5264 16.511 15.6811 17.052C15.8289 17.5661 15.9119 18.1001 16.0217 18.6241C15.9513 18.6284 15.881 18.6312 15.8106 18.6354C15.5728 17.6015 15.4264 16.5421 14.9761 15.5674C14.9536 15.4601 14.9846 15.4149 15.0957 15.4643Z" fill="#CC426C"/>
<path d="M16.7618 7.51894C16.5521 7.13474 16.341 6.75054 16.1313 6.36775C16.2833 6.34374 16.4212 6.37905 16.5507 6.46098C16.652 6.90874 17.0855 7.17288 17.184 7.62206C17.1812 7.66443 17.1784 7.70822 17.1755 7.7506C16.9771 7.78167 16.8392 7.70539 16.7618 7.51894Z" fill="#A93E8F"/>
<path d="M9.67627 18.6552C9.82262 18.6453 9.96757 18.6355 10.1139 18.6256C10.2279 18.5281 10.3658 18.497 10.5108 18.4928C10.622 18.4843 10.7345 18.4871 10.8457 18.4914C10.9822 18.49 11.1201 18.4886 11.258 18.4928C11.3397 18.4914 11.4213 18.4914 11.5029 18.4914C11.638 18.4829 11.7731 18.497 11.9096 18.4886C12.0968 18.4871 12.2825 18.4928 12.4697 18.4956C12.5752 18.4942 12.6794 18.5027 12.7835 18.521C12.8356 18.5323 12.8834 18.5521 12.9285 18.579C12.9735 18.6143 12.9833 18.6595 12.965 18.7131C11.8674 18.7244 10.7697 18.7993 9.67627 18.6552Z" fill="#D8525B"/>
<path d="M12.9651 18.7129C12.9651 18.6889 12.9651 18.6649 12.9651 18.6409C13.0186 18.5689 13.0931 18.5364 13.1776 18.5166C13.3141 18.4926 13.4506 18.4926 13.5885 18.494C13.7236 18.4926 13.8587 18.4926 13.9924 18.4968C14.1022 18.4982 14.2105 18.5053 14.3147 18.5406C14.3667 18.5604 14.4089 18.5943 14.4413 18.6409C14.4413 18.6635 14.4413 18.6847 14.4413 18.7073C13.9488 18.7087 13.4562 18.7115 12.9651 18.7129Z" fill="#D34C65"/>
<path d="M10.0112 6.3591C9.85781 6.35204 9.70442 6.34498 9.55103 6.33933C9.80293 6.23481 10.0647 6.26447 10.325 6.28707C10.325 6.30543 10.325 6.32238 10.325 6.34074C10.2265 6.44668 10.121 6.41984 10.0112 6.3591Z" fill="#C43B77"/>
<path d="M15.0957 15.464C15.0563 15.4979 15.0169 15.5332 14.9761 15.5671C14.8987 15.6264 14.8213 15.6857 14.7439 15.7451C14.6777 15.9033 14.5257 15.9668 14.3977 16.0586C14.3428 16.0996 14.2851 16.1349 14.2232 16.1646C14.1191 16.2098 14.0107 16.2423 13.9051 16.2818C13.7968 16.3185 13.687 16.3553 13.5787 16.3906C13.4408 16.4301 13.3 16.4555 13.1635 16.5022C13.1157 16.5177 13.0664 16.5262 13.0158 16.5346C12.8877 16.5502 12.7582 16.553 12.6302 16.5544C12.4993 16.5587 12.367 16.5544 12.2361 16.5431C12.0546 16.5248 11.8829 16.4499 11.7 16.44C11.5241 16.4089 11.3524 16.3553 11.1849 16.2931C10.9612 16.1872 10.7374 16.0798 10.5207 15.9612C10.3968 15.8764 10.2716 15.7945 10.1464 15.7112C9.42724 15.1052 8.94033 14.3537 8.72361 13.4314C8.68843 13.2124 8.59978 13.0034 8.59978 12.7788C8.59696 12.6022 8.6054 12.4271 8.72924 12.283C8.73909 12.1516 8.74754 12.0203 8.75739 11.8903C8.85449 11.7533 8.85168 11.5951 8.85449 11.4383C8.94596 11.3507 8.96003 11.2377 8.95722 11.1191C9.04869 11.0456 9.06839 10.9425 9.07543 10.8338C9.14016 10.7123 9.20349 10.5922 9.26822 10.4707C9.33859 10.3648 9.40895 10.2589 9.47931 10.1515C9.5539 10.0569 9.62848 9.96365 9.70307 9.86902C9.75232 9.77579 9.77202 9.65573 9.91275 9.65008C9.98452 9.5851 10.0563 9.52013 10.1281 9.45515C10.1942 9.4043 10.2589 9.35486 10.3251 9.30401C10.4306 9.23339 10.5376 9.16276 10.6431 9.09355C10.7515 9.03563 10.8598 8.97772 10.9682 8.9184C11.0006 8.90568 11.0329 8.89156 11.0667 8.87885C11.1722 8.84071 11.2778 8.80257 11.3833 8.76443C11.4889 8.73195 11.5944 8.70087 11.7 8.66838C11.8759 8.63731 12.0518 8.60623 12.2277 8.57516C12.3684 8.42684 12.55 8.43532 12.7315 8.43814C12.8539 8.45086 12.9707 8.47769 13.0481 8.58646C13.4084 8.68957 13.7672 8.79127 14.1275 8.89438C14.2218 8.88167 14.3076 8.90851 14.3921 8.94665C14.5609 9.054 14.7945 9.08225 14.8522 9.3252C15.9935 10.2956 16.5058 11.5287 16.3777 13.026C16.3355 13.2378 16.2947 13.4497 16.2525 13.6616C16.2159 13.7675 16.1807 13.8735 16.1441 13.9794C16.1117 14.05 16.0794 14.1207 16.047 14.1913C15.9457 14.3679 15.8444 14.5444 15.7444 14.721C15.667 14.8269 15.591 14.9343 15.5136 15.0402C15.4503 15.1108 15.3856 15.18 15.3223 15.2507C15.2435 15.3199 15.1703 15.3919 15.0957 15.464Z" fill="white"/>
<path d="M14.3358 8.99768C14.2655 8.96236 14.1937 8.92705 14.1233 8.89315C13.9052 8.34369 13.4619 7.95807 13.1087 7.50889C12.7949 7.11057 12.4501 6.73625 12.1194 6.35205C12.2249 6.35205 12.3305 6.35205 12.436 6.35205C13.2902 6.99615 13.8827 7.87191 14.5005 8.72083C14.6299 8.90021 14.5976 8.92423 14.3358 8.99768Z" fill="#C0367D"/>
<path d="M14.3358 8.99752C14.6468 8.85768 14.3907 8.71925 14.3175 8.61331C13.756 7.80395 13.0848 7.08639 12.436 6.35048C12.6528 6.3194 12.8061 6.42958 12.9342 6.58495C13.5872 7.38161 14.2964 8.13447 14.841 9.01729C14.9058 9.12323 15.0099 9.21504 14.8495 9.32098C14.6778 9.21363 14.5061 9.10487 14.3358 8.99752Z" fill="#BF357F"/>
<path d="M16.7618 7.51899C16.8997 7.59668 17.0376 7.67296 17.1755 7.75065C17.4218 8.05857 17.4542 8.41312 17.3993 8.78602C17.3613 8.85382 17.3247 8.92303 17.2867 8.99083C17.1474 9.0996 17.0067 9.20836 16.8674 9.31712C16.6563 9.31712 16.4452 9.31712 16.2341 9.31854C16.023 9.17446 15.8358 9.00637 15.6993 8.78743C15.6754 8.49787 15.6529 8.2083 15.7866 7.93569C15.7922 7.55289 16.0891 7.56419 16.3453 7.52041C16.4846 7.51758 16.6225 7.51758 16.7618 7.51899Z" fill="#FFFEFF"/>
<path d="M10.5348 18.6324C10.3941 18.631 10.2548 18.6296 10.1141 18.6268C9.50331 16.6125 8.50978 14.8257 7.0026 13.344C6.86891 13.2126 6.76336 13.0318 6.54102 13.0233C6.54102 12.8468 6.54102 12.6702 6.54102 12.4937C6.74366 12.3538 6.87172 12.5134 6.99556 12.6236C8.72368 14.1604 9.83401 16.0885 10.5348 18.2736C10.5714 18.3909 10.6038 18.5124 10.5348 18.6324Z" fill="#E76344"/>
<path d="M12.7498 8.56542C12.5738 8.56824 12.3993 8.57107 12.2234 8.57248C11.669 7.94533 11.1033 7.32947 10.439 6.81391C10.2772 6.68819 10.1534 6.51163 10.0112 6.35767C10.1154 6.3506 10.2195 6.34495 10.325 6.33789C10.4658 6.34213 10.6065 6.34637 10.7486 6.35202C11.4987 6.84357 12.0503 7.54559 12.6625 8.18122C12.7554 8.28009 12.8215 8.41569 12.7498 8.56542Z" fill="#C63D74"/>
<path d="M12.7498 8.56543C12.4177 7.92415 11.8098 7.5343 11.3496 7.00885C11.154 6.78567 10.9486 6.57097 10.7473 6.35203C11.1118 6.3139 11.3792 6.393 11.6311 6.73059C12.073 7.32243 12.7555 7.68827 13.1903 8.31401C13.4056 8.62476 13.2213 8.56543 13.044 8.5838C12.9455 8.57815 12.8484 8.5725 12.7498 8.56543Z" fill="#C43B77"/>
<path d="M8.83339 13.4443C9.09091 14.306 9.5525 15.0334 10.2336 15.621C10.7768 16.3979 11.0301 17.2991 11.3172 18.1861C11.3679 18.3401 11.3988 18.4955 11.2736 18.6339C11.1328 18.6339 10.9921 18.6339 10.8514 18.6339C10.6882 18.4827 10.6417 18.2737 10.577 18.0745C9.85646 15.8597 8.67859 13.9415 6.92092 12.3991C6.77738 12.2734 6.61836 12.1575 6.53955 11.9711C6.53955 11.7931 6.53955 11.6151 6.53955 11.4372C6.65776 11.3284 6.77175 11.3905 6.86744 11.464C7.61329 12.0318 8.30426 12.6576 8.83339 13.4443Z" fill="#E35F49"/>
<path d="M6.54102 11.9697C7.39382 12.5446 8.08901 13.2904 8.69694 14.104C9.71158 15.4657 10.4631 16.9658 10.8543 18.6325C10.7487 18.6325 10.6418 18.6325 10.5362 18.6311C10.0451 17.1805 9.45968 15.7722 8.54074 14.5334C7.96939 13.765 7.37271 13.0093 6.54242 12.4924C6.54102 12.3186 6.54102 12.1449 6.54102 11.9697Z" fill="#E56246"/>
<path d="M8.83339 13.4441C8.1185 12.8621 7.5753 12.0951 6.81256 11.5683C6.72953 11.5118 6.63102 11.4793 6.53955 11.4355C6.53955 11.2617 6.53955 11.0866 6.53955 10.9129C6.69716 10.8408 6.8013 10.9665 6.92373 11.0188C6.96454 11.0414 7.00113 11.0696 7.03772 11.0993C7.1883 11.242 7.34169 11.3832 7.52041 11.4906C7.93274 11.9214 8.44498 12.2604 8.72925 12.8099C8.76584 13.0203 8.79961 13.2322 8.83339 13.4441Z" fill="#E15D4B"/>
<path d="M8.73072 12.8098C8.27758 12.4214 7.84977 12.0075 7.47544 11.54C7.28264 11.4199 7.14473 11.2321 6.94771 11.1162C6.80558 11.0188 6.67893 10.9015 6.54102 10.7998C6.63249 10.4933 6.79292 10.7264 6.86609 10.7857C7.34175 11.1671 7.80192 11.5682 8.26632 11.9637C8.40986 12.0852 8.50837 12.2731 8.72931 12.2816C8.72931 12.4567 8.73072 12.6333 8.73072 12.8098Z" fill="#E05B4E"/>
<path d="M6.54096 10.7988C6.74783 10.813 6.85759 10.9514 6.94766 11.1152C6.77034 11.1294 6.67887 10.974 6.53955 10.9118C6.54096 10.8751 6.54096 10.837 6.54096 10.7988Z" fill="#E05B4E"/>
<path d="M9.90982 9.6502C9.83946 9.72365 9.7705 9.79569 9.70014 9.86914C9.52423 9.2773 8.95851 9.06119 8.55041 8.70241C8.19859 8.39448 7.77782 8.16848 7.39927 7.8888C7.26839 7.79275 7.06434 7.74614 7.06152 7.52297C7.56392 7.52014 7.88899 7.88739 8.24081 8.15012C8.8403 8.59506 9.47498 9.01316 9.90982 9.6502Z" fill="#D34B62"/>
<path d="M14.2133 16.0505C14.2569 16.0307 14.3005 16.011 14.3442 15.9912C14.5538 15.8612 14.6524 16.0251 14.6988 16.1663C14.9605 16.9672 15.2434 17.7639 15.2786 18.6185C15.1407 18.6213 15.0028 18.6255 14.8649 18.6283C14.4891 18.0789 14.5159 17.4023 14.2963 16.8034C14.2091 16.5675 14.0697 16.3203 14.2133 16.0505Z" fill="#D14766"/>
<path d="M13.583 16.3004C13.6717 16.21 13.7842 16.1945 13.9025 16.1945C14.0868 16.1479 14.167 16.2736 14.2022 16.4092C14.3626 17.0349 14.561 17.6494 14.6849 18.285C14.7173 18.4502 14.6919 18.5548 14.547 18.6325C14.5118 18.6353 14.4766 18.6381 14.4414 18.6409C14.4063 18.6381 14.3697 18.6353 14.3345 18.631C13.9433 17.9008 13.9081 17.0533 13.583 16.3004Z" fill="#D34C62"/>
<path d="M14.5469 18.6324C14.6538 18.0406 14.3583 17.5194 14.2204 16.9798C14.1557 16.7241 14.2528 16.3512 13.9023 16.1958C14.0065 16.1478 14.1092 16.0998 14.2134 16.0518C14.454 16.9049 14.7397 17.7468 14.8635 18.6296C14.758 18.6296 14.6524 18.631 14.5469 18.6324Z" fill="#D34C65"/>
<path d="M15.2773 18.6196C15.1379 18.0461 15.0155 17.4684 14.8509 16.902C14.7538 16.5672 14.7411 16.166 14.3442 15.9923C14.4779 15.9104 14.6116 15.827 14.7453 15.7451C14.9409 16.5262 15.1365 17.3088 15.3321 18.0899C15.3772 18.2735 15.4743 18.4614 15.2773 18.6196Z" fill="#D04769"/>
<path d="M16.3454 7.5172C16.1456 7.63726 15.9303 7.73614 15.7868 7.93248C15.3955 7.43104 15.0043 6.92959 14.561 6.36035C14.8903 6.36035 15.1436 6.36035 15.3955 6.36035C15.7445 6.72054 15.8895 7.246 16.3454 7.5172Z" fill="#B2378A"/>
<path d="M11.1779 16.166C11.3524 16.2183 11.5269 16.2705 11.7 16.3242C11.8097 16.3694 11.9491 16.3751 11.9983 16.505C12.2572 17.1943 12.6063 17.861 12.5387 18.6337C12.3276 18.6337 12.1165 18.6337 11.9068 18.6337C11.8168 18.5772 11.7211 18.5207 11.6943 18.4105C11.5381 17.796 11.2933 17.2113 11.1075 16.6067C11.0597 16.4542 11.0371 16.2931 11.1779 16.166Z" fill="#DE5951"/>
<path d="M11.1778 16.1661C11.3002 17.0249 11.7365 17.7891 11.9068 18.6338C11.7661 18.6338 11.6267 18.6338 11.486 18.6338C11.106 17.7877 10.8935 16.878 10.5051 16.0348C10.4742 15.967 10.4981 15.8978 10.5445 15.8398C10.7556 15.95 10.9667 16.0574 11.1778 16.1661Z" fill="#E05C4E"/>
<path d="M12.5387 18.6322C12.36 18.0375 12.184 17.4415 12.0011 16.8482C11.9406 16.6519 11.8899 16.4456 11.7 16.3228C11.8745 16.3552 12.0504 16.3863 12.2249 16.4188C12.7146 17.077 12.9918 17.7946 12.8567 18.6322C12.7512 18.6322 12.6442 18.6322 12.5387 18.6322Z" fill="#DC5655"/>
<path d="M12.8567 18.6323C12.7638 17.8611 12.488 17.1421 12.2249 16.4189C12.3656 16.4218 12.5049 16.4232 12.6456 16.426C13.0354 16.9882 13.1677 17.6408 13.2887 18.2962C13.3127 18.4219 13.2592 18.5377 13.1733 18.6338C13.103 18.6352 13.034 18.638 12.9637 18.6394C12.9285 18.638 12.8933 18.6352 12.8567 18.6323Z" fill="#DA5457"/>
<path d="M10.5445 15.841C10.8639 16.7704 11.3255 17.6504 11.486 18.6335C11.4156 18.6335 11.3452 18.6335 11.2749 18.6335C11.1032 17.7874 10.7837 16.9936 10.4347 16.2097C10.3503 16.0204 10.2068 15.8495 10.2335 15.6221C10.3376 15.6941 10.4404 15.7676 10.5445 15.841Z" fill="#E25E4B"/>
<path d="M13.0678 16.4065C13.0889 16.3825 13.1115 16.3811 13.1368 16.4008C13.3169 16.3344 13.5111 16.3231 13.5927 16.5209C13.8517 17.1537 14.0571 17.8035 14.0923 18.4956C14.0951 18.5464 14.0501 18.5902 14.0191 18.6326C13.8784 18.6326 13.7391 18.634 13.5984 18.634C13.3197 17.915 12.9595 17.2173 13.0678 16.4065Z" fill="#D64F5D"/>
<path d="M13.0677 16.4062C13.1902 17.1619 13.5603 17.8569 13.5969 18.6324C13.4562 18.6324 13.3154 18.6324 13.1747 18.6338C13.1888 18.0462 12.9509 17.5207 12.7793 16.9783C12.723 16.7989 12.6906 16.6097 12.647 16.426C12.7863 16.419 12.927 16.4133 13.0677 16.4062Z" fill="#D8525B"/>
<path d="M14.0177 18.6324C13.9346 17.9925 13.7348 17.3795 13.5575 16.7622C13.4956 16.5447 13.4055 16.3695 13.1367 16.4006C13.2704 16.2989 13.428 16.3031 13.5842 16.3003C13.9614 16.3568 13.8389 16.7297 13.9121 16.9289C14.1134 17.4727 14.2935 18.0391 14.3343 18.6309C14.2288 18.6309 14.1232 18.6309 14.0177 18.6324Z" fill="#D54D60"/>
<path d="M12.6498 15.0161C12.4289 15.0359 12.2066 15.0641 12.0067 14.9328C11.6099 14.0033 11.0962 13.1431 10.4911 12.3366C10.3757 12.1826 10.2434 12.0371 10.1843 11.845C10.2308 11.619 10.2997 11.4043 10.4503 11.2235C10.6304 11.0936 10.7557 11.2193 10.8514 11.3365C11.6507 12.3154 12.322 13.3762 12.8173 14.5429C12.9017 14.7393 12.9805 14.9568 12.6498 15.0161Z" fill="#D7505C"/>
<path d="M11.6944 10.1602C11.807 10.0416 11.9548 10.043 12.1025 10.043C12.1279 10.05 12.1518 10.0585 12.1771 10.0656C13.1594 11.1913 13.8292 12.5064 14.4498 13.8511C14.485 13.9288 14.4935 14.022 14.4527 14.1082C14.3865 14.2551 14.2767 14.361 14.1346 14.4345C13.9362 14.32 13.8785 14.1068 13.7884 13.9217C13.2424 12.7832 12.6528 11.6716 11.8619 10.6786C11.7479 10.5317 11.6029 10.3806 11.6944 10.1602Z" fill="#CD446A"/>
<path d="M10.1843 11.8452C10.9794 12.5585 11.4367 13.5021 11.9124 14.4301C11.987 14.5756 12.2121 14.7239 12.0053 14.933C11.7956 14.9612 11.6281 14.8765 11.4761 14.7423C10.9343 14.0855 10.4995 13.3594 10.1181 12.6009C10.1097 12.3452 10.0534 12.0868 10.1843 11.8452Z" fill="#DA5458"/>
<path d="M13.9095 14.6026C13.8574 14.6746 13.7955 14.7269 13.6984 14.7014C13.507 14.6478 13.4338 14.4825 13.3635 14.3243C12.8245 13.1223 12.1377 12.0106 11.3581 10.9541C11.2512 10.8086 11.0696 10.68 11.1541 10.4512C11.192 10.4258 11.2315 10.4004 11.2694 10.3749C11.4763 10.2549 11.5959 10.3961 11.7071 10.5331C12.6275 11.6674 13.3494 12.9217 13.9292 14.2607C13.9784 14.3723 14.0066 14.4924 13.9095 14.6026Z" fill="#D14866"/>
<path d="M13.9093 14.6025C13.3647 13.0742 12.4767 11.7464 11.5015 10.4709C11.4565 10.413 11.3481 10.4045 11.2693 10.3734C11.3833 10.2463 11.524 10.1729 11.6943 10.1602C12.5386 11.3453 13.338 12.5572 13.9234 13.8977C14.0008 14.0728 14.0641 14.255 14.1345 14.433C14.0824 14.5192 14.0134 14.5841 13.9093 14.6025Z" fill="#D04668"/>
<path d="M11.154 10.4497C12.1715 11.7648 13.0215 13.1815 13.6984 14.7014C13.5956 14.7466 13.4915 14.7918 13.3888 14.8355C13.0032 14.4768 12.9159 13.9513 12.6668 13.5149C12.1715 12.6462 11.6269 11.8142 11.0302 11.0147C10.957 10.9172 10.8698 10.8283 10.8613 10.6955C10.9218 10.5684 11.026 10.4949 11.154 10.4497Z" fill="#D24A64"/>
<path d="M12.6497 15.0163C12.7722 14.9217 12.8031 14.8285 12.7328 14.6632C12.2177 13.4456 11.5028 12.3538 10.681 11.3283C10.6331 11.269 10.529 11.2577 10.4502 11.2238C10.522 11.1192 10.5937 11.0147 10.6641 10.9116C10.8273 10.8692 10.9413 10.9653 11.0244 11.0754C11.849 12.1687 12.6469 13.279 13.1437 14.5714C13.1873 14.6858 13.238 14.8016 13.1718 14.9259C13.01 15.0262 12.8341 15.0418 12.6497 15.0163Z" fill="#D54D60"/>
<path d="M13.1733 14.9258C12.6723 13.6065 11.8814 12.4582 11.0652 11.3239C10.9512 11.1643 10.8288 11.0202 10.6655 10.9115C10.6993 10.8112 10.764 10.7377 10.8625 10.6968C11.5451 11.2759 11.9574 12.0641 12.4105 12.8042C12.8003 13.4413 13.2113 14.0882 13.3886 14.8368C13.3478 14.9414 13.2605 14.9343 13.1733 14.9258Z" fill="#D34B62"/>
<path d="M14.8718 13.3649C14.8465 13.4341 14.8212 13.5019 14.7959 13.5711C14.4792 13.6079 14.4469 13.3268 14.3596 13.146C13.9248 12.2462 13.4266 11.3846 12.8595 10.5625C12.7272 10.3704 12.5935 10.1924 12.3402 10.1684C12.2684 10.1401 12.1995 10.1062 12.1333 10.0653L12.1038 10.0413C12.4274 9.91273 12.7497 9.90991 13.072 10.0455C13.694 10.5145 13.9768 11.2306 14.3737 11.862C14.5496 12.1431 14.6959 12.4454 14.817 12.7547C14.8901 12.9468 14.9689 13.1516 14.8718 13.3649Z" fill="#C93F6F"/>
<path d="M13.4914 10.1685C14.6243 10.6162 15.266 11.8126 14.9845 12.9497C14.4413 12.1149 14.029 11.2038 13.4816 10.3704C13.4422 10.3111 13.4576 10.2348 13.4914 10.1685Z" fill="#C74075"/>
<path d="M12.3303 10.0614C12.6258 9.99219 12.7708 10.1815 12.9129 10.3919C13.4843 11.2465 14.0275 12.118 14.4595 13.0545C14.5439 13.2396 14.596 13.4571 14.7958 13.5715C14.7494 13.7311 14.6875 13.8808 14.5482 13.9839C14.0627 13.0799 13.6095 12.159 13.0804 11.2762C12.8355 10.8694 12.4119 10.5713 12.3303 10.0614Z" fill="#CA416D"/>
<path d="M12.3305 10.0615C13.1875 11.1237 13.8391 12.3116 14.433 13.5349C14.5019 13.679 14.5582 13.823 14.5484 13.9855C14.516 14.0264 14.4836 14.0674 14.4513 14.1084C13.8039 12.6888 12.9947 11.3624 12.1321 10.0672C12.1982 10.0658 12.2644 10.0629 12.3305 10.0615Z" fill="#CC426B"/>
<path d="M13.4915 10.1687C14.0249 11.0756 14.6427 11.9386 14.9832 12.95C14.9818 13.0983 14.986 13.248 14.8706 13.3652C14.6933 12.5502 14.2177 11.8793 13.8081 11.1787C13.5816 10.7902 13.317 10.423 13.0693 10.0458C13.2255 10.0374 13.3691 10.0656 13.4915 10.1687Z" fill="#C83F72"/>
<path d="M10.1196 8C10.6769 8.64693 11.1132 9.37154 11.4776 10.1414C10.5897 9.70631 10.1379 8.99158 10.1196 8Z" fill="#DC5857"/>
<path d="M6.94775 11.1167C7.21513 11.1435 7.3446 11.3427 7.47548 11.5405C7.2081 11.5136 7.07863 11.313 6.94775 11.1167Z" fill="#E05B4E"/>
</svg>
