<svg width="79" height="79" viewBox="0 0 79 79" fill="none" xmlns="http://www.w3.org/2000/svg">
<circle cx="39.5" cy="39.5" r="38" stroke="#E25D23" stroke-width="3"/>
<circle cx="39.5" cy="39.5" r="32.5" fill="#E25D23"/>
<path d="M42.1416 24.8841C42.0421 28.0269 41.3103 31.057 40.3329 34.0262C40.0377 34.922 40.0936 35.5801 40.6095 36.3891C42.3125 39.0642 44.1958 41.5855 46.4908 43.8037C46.7627 44.0657 47.0067 44.1617 47.4045 44.0977C50.147 43.6574 52.9067 43.4319 55.6896 43.6239C57.0477 43.7183 58.3887 43.9073 59.6535 44.4405C60.101 44.6294 60.5268 44.8518 60.909 45.1519C61.8149 45.8633 62.1645 46.7911 61.9283 47.8895C61.7061 48.9224 60.9696 49.5089 59.9658 49.7893C58.6839 50.1473 57.3895 50.065 56.0983 49.8578C52.7855 49.3276 49.9792 47.7692 47.4589 45.6775C46.8979 45.2128 46.4193 45.0346 45.6595 45.1793C42.2348 45.8314 38.894 46.7667 35.5563 47.7417C34.6784 47.9977 34.1843 48.4669 33.757 49.2027C32.0415 52.1521 30.1225 54.9613 27.613 57.3379C26.5595 58.3357 25.4081 59.2026 24.0097 59.6947C22.7899 60.1243 21.5794 60.1334 20.4125 59.5103C19.1088 58.8126 18.6566 57.4765 19.2704 56.1557C19.8096 54.9933 20.7341 54.1509 21.7302 53.3846C24.2381 51.4528 27.0754 50.0894 30.0106 48.927C30.8016 48.6132 31.3019 48.1668 31.6966 47.434C34.0724 43.0237 35.9013 38.3939 37.5732 33.6956C37.6882 33.3711 37.682 33.0984 37.536 32.7755C36.4218 30.3334 35.6232 27.7969 35.3326 25.1309C35.1834 23.7659 35.1663 22.3978 35.6216 21.0663C35.9945 19.9694 36.6891 19.1925 37.8902 19.0325C39.0929 18.8726 40.1045 19.3067 40.8628 20.2421C41.7733 21.3634 42.0095 22.7116 42.1385 24.0858C42.1633 24.3493 42.1416 24.6175 42.1416 24.8841ZM39.6507 36.2642C38.9795 38.1806 38.3113 39.9981 37.5453 41.7775C36.8321 43.4319 36.167 45.1092 35.171 46.6327C35.0995 46.7424 34.9907 46.8719 35.0855 46.9907C35.2176 47.1537 35.3683 46.9937 35.5035 46.9526C38.7604 45.9502 42.0406 45.0376 45.4047 44.442C45.529 44.4206 45.7139 44.477 45.7636 44.3232C45.8195 44.1495 45.6315 44.0672 45.529 43.9651C43.6271 42.0715 41.994 39.9737 40.5722 37.7145C40.2816 37.2513 39.9864 36.7928 39.6507 36.2642ZM30.236 49.6674C29.6051 49.9431 28.968 50.2052 28.3434 50.4946C25.9737 51.593 23.6585 52.7798 21.6571 54.4723C20.947 55.0725 20.3146 55.7368 19.9401 56.599C19.6542 57.2587 19.7552 57.8757 20.2385 58.4013C20.6766 58.8781 21.2407 58.9954 21.8824 58.8629C22.8303 58.6663 23.587 58.1362 24.2816 57.5283C26.8035 55.3239 28.5951 52.5695 30.236 49.6674ZM47.6407 44.8244C50.1455 46.8399 52.6689 48.47 55.7766 48.9834C56.6701 49.1311 57.562 49.0504 58.3467 48.5141C59.6069 47.6519 59.5851 45.8786 58.3048 45.0498C57.8588 44.7604 57.3678 44.6004 56.8441 44.5242C53.8157 44.0855 50.8136 44.3369 47.6407 44.8244ZM38.1388 32.1036C38.3657 31.3572 38.5553 30.7798 38.7169 30.1948C39.4006 27.7375 40.0439 25.2725 40.0625 22.6994C40.0672 22.1053 40.0143 21.5173 39.789 20.9627C39.5093 20.2772 39.0323 19.8003 38.2336 19.7897C37.4738 19.779 36.961 20.1888 36.6332 20.8332C36.3985 21.2948 36.2696 21.79 36.1919 22.3003C35.9168 24.1025 36.2105 25.8606 36.6068 27.6095C36.9486 29.1101 37.4567 30.5574 38.1388 32.1036Z" fill="white"/>
</svg>
