<svg width="20" height="20" viewBox="0 0 20 20" fill="none" xmlns="http://www.w3.org/2000/svg">
<circle cx="9.5" cy="9.5" r="8.5" fill="white"/>
<path fill-rule="evenodd" clip-rule="evenodd" d="M17.0669 2.93099C13.1595 -0.976997 6.83051 -0.976997 2.92743 2.93099C-0.829388 6.688 -0.971319 12.6995 2.50743 16.6278L2.6117 16.7106C2.2337 17.525 1.58488 18.531 0.555158 19.0377C0.214815 19.2046 0.293021 19.7112 0.668123 19.7693C1.79488 19.9435 3.41115 19.749 4.92025 18.6094L4.94052 18.6254C8.77264 20.8784 13.7851 20.3631 17.077 17.0706C20.9758 13.167 20.9758 6.83317 17.0683 2.92954L17.0669 2.93099ZM13.2927 14.279C13.0726 14.504 12.8394 14.7116 12.6323 14.9438C12.3296 15.285 11.9473 15.3924 11.5142 15.3677C10.8828 15.3344 10.2962 15.1224 9.73575 14.848C8.48444 14.2412 7.41706 13.3978 6.52348 12.3337C5.86307 11.5483 5.31852 10.6918 4.95645 9.72352C4.78266 9.25316 4.65666 8.77555 4.69432 8.26891C4.71894 7.95679 4.83625 7.69113 5.06362 7.47047C5.31273 7.23384 5.5459 6.9885 5.79066 6.74752C6.11072 6.4325 6.51045 6.43541 6.83051 6.74752C7.03038 6.9435 7.22155 7.13803 7.41706 7.33401C7.60824 7.52564 7.79941 7.71145 7.98623 7.90308C8.31934 8.23987 8.31934 8.63038 7.98623 8.96718C7.75017 9.20816 7.51265 9.44914 7.26789 9.68287C7.20562 9.74529 7.19693 9.79465 7.23024 9.87449C7.3881 10.2563 7.62127 10.5974 7.87906 10.9139C8.39754 11.5541 8.98844 12.1232 9.69519 12.5645C9.84437 12.6603 10.0109 12.7271 10.1688 12.8142C10.2484 12.8592 10.3064 12.8432 10.3686 12.7765C10.6047 12.5311 10.8509 12.2901 11.0913 12.0491C11.4114 11.7341 11.8097 11.7341 12.1268 12.0491C12.5179 12.4353 12.9046 12.8229 13.2898 13.2134C13.6229 13.5546 13.6229 13.9538 13.2941 14.2819L13.2927 14.279ZM9.60685 7.82033L9.7314 6.93044C10.5917 7.05093 11.3737 7.44144 11.9878 8.05696C12.5744 8.64345 12.9567 9.37946 13.0928 10.1895L12.2079 10.3434C12.1008 9.71481 11.8053 9.14574 11.352 8.69281C10.8741 8.21519 10.2716 7.91179 9.60685 7.82033ZM14.5397 10.1895C14.3398 9.02525 13.7924 7.96986 12.9567 7.13077C12.0761 6.24959 10.9566 5.69213 9.72271 5.51793L9.84726 4.62803C11.2724 4.82692 12.57 5.47147 13.5881 6.49347C14.557 7.46176 15.1928 8.68845 15.426 10.0356L14.5411 10.1895H14.5397Z" fill="#E25D23"/>
</svg>
