<svg width="36" height="41" viewBox="0 0 36 41" fill="none" xmlns="http://www.w3.org/2000/svg">
<path d="M35.2274 20.9783C35.2274 27.2614 35.2274 33.5446 35.2274 39.8277C35.2274 40.9506 35.2275 40.9528 33.9231 40.9528C30.1058 40.955 26.2858 40.9483 22.4684 40.9594C21.8601 40.9616 21.2863 40.8863 20.7178 40.7092C14.1856 38.6871 7.65596 36.6585 1.11042 34.6674C0.289573 34.4172 -0.00263854 34.0805 1.79278e-05 33.3519C0.0265826 22.8896 0.0265826 12.4251 0.00533087 1.96275C0.00533087 1.21418 0.265665 0.959487 1.18746 0.961702C12.1454 0.983849 23.1007 0.981634 34.0559 0.959487C34.9831 0.957272 35.2407 1.21418 35.2381 1.96275C35.2115 8.30126 35.2221 14.6398 35.2221 20.9783C35.2248 20.9783 35.2248 20.9783 35.2274 20.9783ZM32.5975 20.9141C32.5975 19.1733 32.5896 17.4347 32.6002 15.694C32.6215 11.8271 32.6374 7.9602 32.6932 4.09331C32.7038 3.40674 32.4222 3.17199 31.604 3.18084C28.8174 3.20742 26.0281 3.18749 23.2388 3.18749C16.7012 3.18749 10.161 3.19856 3.62344 3.18084C2.79197 3.17863 2.60601 3.38238 2.60336 4.09331C2.59539 6.41433 2.62992 8.73313 2.6193 11.0542C2.60336 14.2854 2.59273 17.5167 2.61398 20.7479C2.62195 22.017 2.61133 23.2882 2.60867 24.5595C2.6007 27.0732 2.58742 29.5869 2.56085 32.0984C2.55554 32.6144 2.85307 32.7694 3.42421 32.7561C4.37788 32.734 5.25186 32.5258 6.06739 32.1139C7.54705 31.3631 8.89122 30.4617 10.2088 29.5315C11.2581 28.7896 11.2634 28.794 12.2012 29.5758C15.6254 32.4328 19.0549 35.2898 22.4737 38.1534C22.8855 38.4989 23.2946 38.7558 23.9295 38.7514C26.485 38.7314 29.0405 38.7292 31.5961 38.7536C32.4169 38.7602 32.7144 38.4944 32.6932 37.8167C32.6347 35.994 32.6082 34.1713 32.6029 32.3486C32.5869 28.5371 32.5949 24.7256 32.5975 20.9141ZM18.0587 37.6684C18.0932 37.613 18.1304 37.5554 18.165 37.5C15.992 35.6862 13.819 33.8701 11.6407 32.0585C11.4467 31.899 11.2183 31.7462 10.9394 31.9012C9.64034 32.6232 8.35196 33.3563 6.88824 34.1802C10.7693 35.3916 14.414 36.53 18.0587 37.6684Z" fill="#E25D23"/>
</svg>
