<svg width="23" height="25" viewBox="0 0 23 25" fill="none" xmlns="http://www.w3.org/2000/svg">
<path d="M22.1152 24.9999H18.5026V22.5645H19.6021V21.499H22.1152V24.9999Z" fill="#E25D23"/>
<path d="M13.5394 22.5645H8.57604V24.9999H13.5394V22.5645Z" fill="#E25D23"/>
<path d="M3.6126 24.9999H0V21.499H2.51311V22.5645H3.6126V24.9999Z" fill="#E25D23"/>
<path d="M2.51311 17.8975H0V14.2992H2.51311V17.8975ZM2.51311 10.7008H0V7.09933H2.51311V10.7008Z" fill="#E25D23"/>
<path d="M2.51311 3.50097H0V0H3.6126V2.43546H2.51311V3.50097Z" fill="#E25D23"/>
<path d="M13.5394 0H8.57604V2.43546H13.5394V0Z" fill="#E25D23"/>
<path d="M22.1152 3.50097H19.6021V2.43546H18.5026V0H22.1152V3.50097Z" fill="#E25D23"/>
<path d="M22.1152 17.8975H19.6021V14.2992H22.1152V17.8975ZM22.1152 10.7008H19.6021V7.09933H22.1152V10.7008Z" fill="#E25D23"/>
</svg>
