<svg width="25" height="26" viewBox="0 0 25 26" fill="none" xmlns="http://www.w3.org/2000/svg">
<path d="M0.00966569 5.59966C0.00966569 6.84467 0.0166024 8.08969 0.00446314 9.33558C0.00186186 9.63275 0.105046 9.72026 0.39899 9.73152C1.5106 9.77397 2.62395 9.74538 3.73469 9.74712C4.73705 9.74885 5.74201 9.78957 6.74437 9.72372C7.15537 9.69687 7.56464 9.8095 7.97477 9.72892C8.04674 9.71506 8.14733 9.75058 8.18201 9.67347C8.2271 9.57297 8.11871 9.52358 8.06235 9.4664C7.13716 8.53849 6.20937 7.6123 5.28245 6.68526C4.9807 6.38375 4.98504 6.37682 5.27118 6.06145C6.72963 4.44994 8.52451 3.42326 10.655 3.00132C14.7589 2.1895 18.9773 4.16749 20.9838 7.82284C21.7381 9.19608 22.1439 10.6629 22.1803 12.2276C22.1864 12.5083 22.3 12.5794 22.5558 12.569C23.2252 12.5439 23.8946 12.5317 24.564 12.5205C24.9715 12.5135 24.9975 12.5014 24.9871 12.1029C24.9316 9.96892 24.3481 7.98486 23.2573 6.15242C21.7945 3.69444 19.7351 1.90705 17.068 0.881235C13.8008 -0.375912 10.5422 -0.288403 7.33399 1.14636C5.72727 1.8646 4.34946 2.89562 3.17975 4.20388C2.9942 4.41182 2.90315 4.30958 2.77049 4.17702C1.95195 3.35654 1.13255 2.53693 0.30968 1.71991C0.238578 1.64887 0.177882 1.50678 0.0590899 1.5605C-0.0336889 1.60295 0.0105328 1.73724 0.0105328 1.83081C0.00793151 3.08709 0.0087986 4.34337 0.00966569 5.59966Z" fill="white"/>
<path d="M24.9886 19.391C24.9886 18.1348 24.9834 16.8785 24.9929 15.6231C24.9946 15.3458 24.9305 15.2644 24.6235 15.2713C23.8795 15.2869 23.133 15.2748 22.3881 15.2739C21.8393 15.273 21.2878 15.2652 20.7381 15.2774C20.0357 15.293 19.3334 15.2947 18.631 15.2765C18.1021 15.2635 17.5732 15.3423 17.0451 15.254C16.9645 15.2401 16.8466 15.254 16.8119 15.3354C16.7633 15.4463 16.8856 15.5018 16.9497 15.5659C17.8827 16.5016 18.8123 17.4416 19.7574 18.3652C19.9759 18.5792 19.9525 18.7204 19.7626 18.9284C18.1871 20.6568 16.2569 21.7554 13.9383 22.0786C10.861 22.5075 8.14703 21.6783 5.85877 19.5487C4.04048 17.8558 3.07887 15.7443 2.82828 13.2916C2.81181 13.1304 2.80921 12.9667 2.81701 12.8046C2.83089 12.5369 2.70776 12.4182 2.44676 12.4494C1.75743 12.5335 1.06462 12.4676 0.373547 12.491C0.0865391 12.5005 -0.00277139 12.5976 0.00503244 12.8757C0.085672 15.5477 0.932821 17.9537 2.55342 20.072C4.58761 22.7319 7.27993 24.3382 10.5862 24.8442C14.0155 25.3692 17.1431 24.5721 19.949 22.5248C20.6262 22.031 21.2366 21.4652 21.7916 20.8414C21.9667 20.6447 22.0613 20.6698 22.2243 20.8353C23.0385 21.6601 23.8605 22.4772 24.6833 23.2942C24.7544 23.3652 24.8169 23.5125 24.9331 23.4579C25.0397 23.4085 24.9877 23.2621 24.9877 23.159C24.9903 21.9027 24.9886 20.6473 24.9886 19.391Z" fill="white"/>
</svg>
