<svg width="17" height="25" viewBox="0 0 17 25" fill="none" xmlns="http://www.w3.org/2000/svg">
<path d="M0.00102499 10.3255C0.00102499 7.4416 0.00102499 4.55642 0.00233051 1.67252C0.00233051 1.5113 -0.00158604 1.3488 0.0193022 1.19016C0.125049 0.359554 0.485371 0.00745052 1.33657 0.00616077C6.09909 -0.00286752 10.8616 -0.00157776 15.6254 0.00745052C16.3448 0.00874028 16.5941 0.305384 16.5954 1.09987C16.5994 5.12907 16.5798 9.15697 16.6072 13.1849C16.6176 14.73 16.6764 16.2764 16.6646 17.8228C16.662 18.0963 16.6555 18.371 16.645 18.6444C16.615 19.4634 16.1999 19.9754 15.4218 20.2682C14.2364 20.7132 14.2442 20.7351 14.2416 22.0004C14.2403 22.6285 14.252 23.2579 14.2377 23.886C14.2207 24.6327 13.8682 24.9913 13.1162 24.9939C10.0666 25.0016 7.01556 25.0029 3.96588 24.9926C3.18518 24.99 2.84705 24.6327 2.83791 23.846C2.82747 22.9277 2.84052 22.0094 2.83661 21.0911C2.83399 20.5107 2.76611 20.4475 2.19168 20.4475C1.89794 20.4475 1.6042 20.4578 1.31046 20.4449C0.36918 20.4036 0.0153857 20.0567 0.00755257 19.1255C-0.00550259 17.6913 0.00233051 16.2571 0.00233051 14.8229C-0.000280524 13.3216 0.00102499 11.8229 0.00102499 10.3255ZM4.54161 14.8242C4.54161 17.4011 4.54161 19.978 4.54291 22.5562C4.54291 23.2295 4.61211 23.3056 5.30534 23.2978C6.00509 23.2901 6.70485 23.2437 7.4046 23.2398C8.85503 23.2308 10.3055 23.2269 11.7546 23.2966C12.4269 23.3288 12.5261 23.2101 12.5261 22.5524C12.5288 17.3817 12.5274 12.2111 12.5248 7.04048C12.5248 6.45107 12.4086 6.33757 11.8029 6.33757C9.61745 6.3337 7.43333 6.33499 5.24789 6.33886C4.63822 6.34015 4.54161 6.43946 4.54161 7.04564C4.5403 9.63805 4.54161 12.2317 4.54161 14.8242ZM11.1684 1.76152C11.1645 1.7383 11.1606 1.71638 11.1567 1.69316C11.0666 1.69316 10.9752 1.69316 10.8851 1.69316C8.08086 1.69187 5.27661 1.69058 2.47237 1.69187C1.78828 1.69187 1.71256 1.76539 1.71125 2.44251C1.70733 4.06889 1.71256 5.69656 1.71256 7.32294C1.71386 10.8981 1.71386 14.4746 1.71256 18.0498C1.71256 18.3632 1.73736 18.6367 2.14599 18.6728C2.55722 18.7089 2.75827 18.4974 2.80919 18.1285C2.84183 17.8912 2.83399 17.6461 2.83399 17.405C2.83399 13.684 2.83138 9.96307 2.83138 6.24342C2.83138 5.21161 3.09379 4.82984 4.0664 4.4584C5.19176 4.02891 6.32103 3.61103 7.44638 3.18283C8.68793 2.71207 9.92686 2.23486 11.1684 1.76152ZM8.93859 4.47903C8.9425 4.50225 8.94773 4.52546 8.95164 4.54868C10.1357 4.54868 11.3185 4.5461 12.5026 4.54868C14.0001 4.55255 14.2403 4.79115 14.239 6.25631C14.2377 10.2829 14.2377 14.3095 14.2429 18.3362C14.2429 18.4806 14.1502 18.7089 14.3656 18.7502C14.5941 18.7927 14.7769 18.6315 14.8434 18.4161C14.8943 18.251 14.8878 18.0666 14.8878 17.8899C14.8904 14.4269 14.8904 10.9639 14.8917 7.50093C14.8917 5.92227 14.8957 4.34361 14.8865 2.76624C14.8852 2.5573 14.9766 2.18972 14.5353 2.35609C12.6671 3.05643 10.8042 3.77096 8.93859 4.47903Z" fill="white"/>
<path d="M8.53542 14.4607C7.65681 14.4607 6.77689 14.4684 5.89828 14.4581C5.27163 14.4516 4.93612 14.1421 4.94134 13.6094C4.94656 13.0974 5.26641 12.7801 5.87478 12.7749C7.64898 12.7595 9.42317 12.7582 11.1974 12.7724C11.811 12.7775 12.153 13.1322 12.1282 13.6597C12.1047 14.1743 11.7809 14.4542 11.1713 14.4607C10.2926 14.4684 9.41273 14.4632 8.53412 14.4632C8.53542 14.4607 8.53542 14.4607 8.53542 14.4607Z" fill="white"/>
<path d="M8.53675 11.3627C7.65552 11.3627 6.77561 11.3704 5.89438 11.3601C5.26904 11.3524 4.96486 11.0841 4.94397 10.5553C4.92439 10.0471 5.28601 9.68471 5.89177 9.67955C7.65291 9.66408 9.41405 9.66408 11.1752 9.67568C11.7836 9.67955 12.1165 10.02 12.1112 10.5605C12.1073 11.097 11.8162 11.3549 11.1765 11.3614C10.2953 11.3691 9.41536 11.364 8.53413 11.364C8.53675 11.364 8.53675 11.3627 8.53675 11.3627Z" fill="white"/>
</svg>
