<svg width="25" height="24" viewBox="0 0 25 24" fill="none" xmlns="http://www.w3.org/2000/svg">
<path d="M12.4451 0.00106156C10.7691 0.00106156 9.09319 -0.00176766 7.41723 0.00247825C6.51072 0.00530885 6.20117 0.311013 6.1938 1.19133C6.18201 2.54861 6.18201 2.54861 4.74043 2.54861C3.54353 2.54861 2.34663 2.54436 1.14826 2.55144C0.347867 2.5571 0.00737006 2.88262 0.00442204 3.65396C-0.00147401 5.82928 -0.00147401 8.0046 0.00442204 10.1799C0.00589605 10.913 0.328705 11.2556 0.983167 11.2598C1.6391 11.264 2.00024 10.8805 2.00318 10.146C2.00908 8.46599 2.0194 6.78603 1.99729 5.10606C1.99139 4.62203 2.15648 4.44794 2.66502 4.46351C3.64081 4.49323 4.61661 4.48333 5.5924 4.46776C5.99776 4.46068 6.1938 4.56825 6.20117 5.00274C6.21886 5.95666 6.46944 6.16895 7.47472 6.16895C10.8266 6.17037 14.1785 6.17037 17.5304 6.16895C18.493 6.16895 18.7657 5.92269 18.801 4.97727C18.8143 4.62061 18.9396 4.46493 19.3228 4.46917C20.3723 4.4805 21.4218 4.4805 22.4728 4.46917C22.8502 4.46493 22.999 4.60929 22.9975 4.97161C22.9902 7.39461 22.9902 9.8176 22.9975 12.2392C22.999 12.6043 22.8428 12.743 22.4699 12.7388C21.4204 12.7275 20.3709 12.7275 19.3199 12.7388C18.9337 12.743 18.7892 12.5803 18.8055 12.2264C18.8187 11.9264 18.8099 11.6249 18.8069 11.3249C18.7966 10.5168 18.4709 10.1941 17.638 10.1912C15.4653 10.1856 13.2912 10.1884 11.1185 10.1884C9.86557 10.1884 8.61413 10.1842 7.36122 10.1912C6.5284 10.1955 6.20559 10.5168 6.1938 11.3263C6.17317 12.736 6.17317 12.736 4.68441 12.736C3.5052 12.736 2.32747 12.7317 1.14826 12.7388C0.39651 12.743 -0.00589595 13.1025 0.00884418 13.7366C0.0221103 14.3565 0.381769 14.6551 1.15415 14.6579C2.57215 14.6636 3.99015 14.6594 5.40815 14.6608C6.19085 14.6622 6.1938 14.6636 6.1938 15.4378C6.19528 17.8608 6.1938 20.2838 6.19528 22.7054C6.19528 23.7796 6.42817 23.9989 7.56611 23.9989C10.8635 24.0004 14.1594 24.0004 17.4567 23.9989C18.5269 23.9989 18.8084 23.7329 18.8084 22.7209C18.8099 20.2625 18.8231 17.8042 18.7981 15.3472C18.7922 14.8122 18.9632 14.6367 19.5233 14.6494C20.9413 14.682 22.3593 14.6636 23.7773 14.6579C24.6824 14.6551 24.9963 14.3494 24.9978 13.4677C25.0007 10.2139 25.0007 6.96011 24.9978 3.70633C24.9963 2.86564 24.6706 2.55285 23.7979 2.55002C22.3608 2.54436 20.9236 2.52879 19.4879 2.55852C18.947 2.56984 18.7509 2.38019 18.804 1.88058C18.8305 1.63574 18.8114 1.38523 18.8069 1.13897C18.7966 0.330828 18.4723 0.00813791 17.638 0.0053073C15.9075 -0.00318452 14.1756 0.00106156 12.4451 0.00106156ZM16.8037 17.0427C16.8037 18.5274 16.792 20.012 16.8111 21.4967C16.817 21.934 16.6549 22.0855 16.1994 22.0826C13.7319 22.0685 11.2659 22.0685 8.79838 22.0826C8.34291 22.0855 8.18667 21.9312 8.18814 21.4953C8.20141 18.5613 8.20141 15.626 8.18814 12.6921C8.18667 12.2562 8.34439 12.1033 8.79838 12.1061C11.2659 12.1203 13.7319 12.1203 16.1994 12.1061C16.6549 12.1033 16.8141 12.2576 16.8096 12.6935C16.792 14.1428 16.8037 15.5935 16.8037 17.0427ZM12.4982 1.92446C13.7496 1.92446 15.001 1.93295 16.251 1.92021C16.6504 1.91597 16.8377 2.05608 16.8052 2.4467C16.7934 2.58682 16.8037 2.72977 16.8037 2.86988C16.8037 4.24556 16.8037 4.24556 15.3725 4.24556C13.1836 4.24556 10.9932 4.23706 8.80428 4.25122C8.35471 4.25405 8.16161 4.10969 8.19109 3.66953C8.21615 3.28173 8.21615 2.89111 8.19109 2.50473C8.16308 2.0674 8.34439 1.91031 8.79986 1.9188C10.0321 1.9372 11.2659 1.92446 12.4982 1.92446Z" fill="#E25D23"/>
</svg>
