<svg width="43" height="47" viewBox="0 0 43 47" fill="none" xmlns="http://www.w3.org/2000/svg">
<path d="M16.4995 7.303L20.9157 -2.83356e-05L28.45 4.55599L24.0338 11.859L16.4995 7.303ZM21.5309 2.68171L19.1601 6.60214L23.4186 9.17728L25.7893 5.25685L21.5309 2.68171Z" fill="#E25D23"/>
<path d="M0.689974 33.4471L5.10618 26.1441L12.6404 30.7001L8.22421 38.0031L0.689974 33.4471ZM5.72131 28.8258L3.3506 32.7462L7.60908 35.3214L9.9798 31.4009L5.72131 28.8258Z" fill="#E25D23"/>
<path d="M28.3062 22.8966L35.8404 27.4526L31.4242 34.7556L23.89 30.1996L28.3062 22.8966ZM28.9213 25.5783L26.5506 29.4987L30.8091 32.0739L33.1798 28.1535L28.9213 25.5783Z" fill="#E25D23"/>
<path d="M34.5469 13.2274C35.7435 11.2486 38.2785 10.578 40.1981 11.7388C42.1177 12.8996 42.7012 15.456 41.5046 17.4348C40.308 19.4136 37.7698 20.0822 35.8535 18.9234C33.9372 17.7646 33.3483 15.2096 34.5469 13.2274ZM39.8668 16.4443C40.5009 15.3957 40.1908 14.0441 39.1753 13.4301C38.1599 12.816 36.8189 13.1692 36.1848 14.2178C35.5507 15.2664 35.8607 16.618 36.8762 17.2321C37.8917 17.8462 39.2327 17.4929 39.8668 16.4443Z" fill="#E25D23"/>
<path d="M18.2281 40.2136C19.4247 38.2348 21.9597 37.5642 23.8793 38.725C25.7989 39.8858 26.3845 42.4388 25.1858 44.421C23.9872 46.4032 21.4543 47.0704 19.5347 45.9096C17.6151 44.7488 17.0315 42.1924 18.2281 40.2136ZM23.548 43.4306C24.1821 42.382 23.872 41.0304 22.8565 40.4163C21.8411 39.8022 20.5001 40.1555 19.866 41.2041C19.2319 42.2527 19.5419 43.6043 20.5574 44.2183C21.5749 44.829 22.9159 44.4758 23.548 43.4306Z" fill="#E25D23"/>
<path d="M25.1278 9.42098L26.2226 7.77326C26.3287 7.84201 36.5182 14.7983 32.2498 25.2303C32.2474 25.2566 32.2429 25.2862 32.2372 25.3105L32.2147 25.3107L31.2829 25.1722L30.3302 25.0535C30.3372 24.9607 30.3559 24.7965 30.4299 24.6149C34.1811 15.6301 25.5008 9.66965 25.1278 9.42098Z" fill="#E25D23"/>
<path d="M10.611 33.5014C11.0012 33.7143 20.3114 38.6328 26.5292 31.1396L27.9919 32.3752C20.7345 41.1291 9.76919 35.2929 9.66028 35.2363L10.611 33.5014Z" fill="#E25D23"/>
<path d="M33.0309 26.2247L37.4941 18.8439L35.8563 17.8534L31.393 25.2342L33.0309 26.2247Z" fill="#E25D23"/>
<path d="M24.7162 39.9746L28.8317 33.1689L27.1938 32.1784L23.0783 38.9842L24.7162 39.9746Z" fill="#E25D23"/>
</svg>
