<svg width="25" height="17" viewBox="0 0 25 17" fill="none" xmlns="http://www.w3.org/2000/svg">
<path d="M12.5429 0.00274206C16.0566 0.00274206 19.5688 3.03581e-05 23.0824 0.00545375C24.2712 0.0068096 24.993 0.711851 24.9944 1.87924C25.0013 6.07966 25.0013 10.2801 24.9972 14.4805C24.9958 15.5828 24.2393 16.2987 23.0769 16.3C18.9065 16.3041 14.7348 16.3014 10.5644 16.3014C7.95139 16.3014 5.33835 16.3028 2.72391 16.3C2.29302 16.3 1.85936 16.3285 1.43124 16.239C0.577778 16.0614 0.0111101 15.4526 0.00833909 14.6039C-0.00274489 10.3018 -0.00413038 5.99966 0.0124956 1.69891C0.0166521 0.690157 0.770363 0.0285032 1.89954 0.0135888C3.57738 -0.00946058 5.2566 0.0040979 6.93582 0.00274206C8.80486 0.00274206 10.6739 0.00274206 12.5429 0.00274206ZM12.5374 1.78568C9.16093 1.78568 5.78586 1.79382 2.40941 1.77619C1.94942 1.77348 1.82057 1.91449 1.82195 2.3565C1.8372 6.20168 1.83858 10.0482 1.81918 13.8934C1.81641 14.3788 1.95496 14.5279 2.45928 14.5266C9.15955 14.5117 15.8584 14.513 22.5587 14.5279C23.0422 14.5293 23.178 14.3788 23.1752 13.9178C23.1586 10.0889 23.1558 6.25998 23.1752 2.43107C23.178 1.92127 23.0381 1.76806 22.506 1.77212C19.185 1.79653 15.8612 1.78568 12.5374 1.78568Z" fill="white"/>
<path d="M7.25456 12.6624C6.12953 12.6637 5.0059 12.6691 3.88087 12.661C3.08975 12.6556 2.80157 12.3559 2.7988 11.5723C2.79741 11.217 2.82097 10.8591 2.79464 10.5066C2.70181 9.23477 3.33914 8.36974 4.40875 7.77723C4.77313 7.57521 4.88813 7.41522 4.74127 6.99491C4.36718 5.91565 4.77452 4.80115 5.71666 4.12458C6.61584 3.47919 7.85171 3.46699 8.78138 4.09204C9.71105 4.71844 10.1586 5.87905 9.79556 6.95966C9.64731 7.39895 9.74568 7.5725 10.1295 7.78266C11.8904 8.74395 11.9431 10.291 11.6549 12.0848C11.587 12.5105 11.1769 12.6664 10.7294 12.6637C9.5725 12.6569 8.41422 12.6624 7.25456 12.6624ZM7.2504 10.8794C7.8905 10.8794 8.53199 10.8903 9.17209 10.874C9.41178 10.8672 9.75538 11.0042 9.85514 10.6815C9.95905 10.3439 9.95905 9.96828 9.68472 9.67271C9.43533 9.40425 9.12082 9.22121 8.77306 9.10732C7.75611 8.77378 6.735 8.75887 5.7222 9.12223C5.39661 9.23884 5.08903 9.39883 4.85488 9.66322C4.57501 9.97777 4.54868 10.3655 4.68169 10.7154C4.79391 11.0082 5.14029 10.8672 5.38275 10.874C6.00345 10.8903 6.62693 10.8794 7.2504 10.8794ZM7.26564 5.43568C6.80427 5.43297 6.4288 5.776 6.4191 6.20852C6.4094 6.64781 6.76686 7.00575 7.22546 7.01931C7.709 7.03287 8.09694 6.67628 8.09417 6.21936C8.0914 5.776 7.73394 5.43839 7.26564 5.43568Z" fill="white"/>
<path d="M16.9558 4.13001C18.5477 4.13001 19.7226 4.13001 20.8975 4.12865C20.9834 4.12865 21.0707 4.10967 21.1566 4.11238C21.7925 4.12865 22.1929 4.47439 22.1985 5.0086C22.204 5.54687 21.8216 5.91024 21.1746 5.91837C19.929 5.936 18.6821 5.92786 17.4365 5.92786C16.2602 5.92786 15.0826 5.92786 13.9063 5.92108C13.7178 5.91973 13.5225 5.91024 13.3424 5.86007C12.8935 5.73805 12.6094 5.31909 12.6898 4.89335C12.7757 4.44321 13.0473 4.17204 13.5377 4.15035C14.8152 4.09476 16.094 4.20051 16.9558 4.13001Z" fill="white"/>
<path d="M16.5527 9.07343C15.7227 9.07343 14.8928 9.08021 14.0629 9.06937C13.8066 9.06666 13.5378 9.05174 13.2953 8.97853C12.9185 8.86464 12.6885 8.59211 12.6774 8.18942C12.6649 7.76911 12.8769 7.46811 13.276 7.33388C13.499 7.25931 13.7512 7.23762 13.9895 7.23762C15.7186 7.2322 17.4477 7.23491 19.1768 7.23897C20.0593 7.24169 20.529 7.57116 20.5179 8.16637C20.5069 8.74532 20.0496 9.06123 19.199 9.06666C18.3178 9.07208 17.4352 9.06801 16.554 9.06801C16.5527 9.06937 16.5527 9.07072 16.5527 9.07343Z" fill="white"/>
<path d="M16.7244 10.3845C17.7095 10.3845 18.696 10.3628 19.6797 10.3913C20.3918 10.4117 20.82 10.897 20.6759 11.4611C20.5678 11.8828 20.2949 12.1458 19.8335 12.1512C18.8165 12.1634 17.7982 12.1661 16.7812 12.1661C15.7629 12.1661 14.7446 12.1621 13.7248 12.1553C13.075 12.1499 12.7148 11.8678 12.6788 11.3458C12.6428 10.8279 13.0279 10.4157 13.6639 10.3967C14.6822 10.3669 15.7033 10.3886 16.723 10.3886C16.7244 10.3873 16.7244 10.3859 16.7244 10.3845Z" fill="white"/>
</svg>
