<svg width="40" height="32" viewBox="0 0 40 32" fill="none" xmlns="http://www.w3.org/2000/svg">
<path d="M20.0432 0.961947C25.3055 0.961947 30.5678 0.959163 35.8302 0.961947C38.6235 0.96473 39.9979 2.3201 39.9979 5.08929C40.0007 12.6009 40.0007 20.1097 39.9979 27.6213C39.9952 30.3153 38.593 31.7236 35.8884 31.7264C25.2944 31.7319 14.7004 31.7319 4.10649 31.7264C1.449 31.7236 0.00801791 30.2625 0.0052468 27.5768C-0.000295425 20.0624 -0.00306654 12.5536 0.0052468 5.04198C0.00801791 2.42586 1.46285 0.96473 4.0483 0.961947C9.37992 0.95638 14.7115 0.961947 20.0432 0.961947ZM2.76527 19.3833C5.91048 16.4555 9.01967 13.5945 12.079 10.6778C12.7413 10.046 13.1237 10.071 13.7694 10.6917C17.4466 14.2262 21.1793 17.7023 24.8621 21.2285C25.4496 21.7907 25.8542 21.8825 26.5054 21.312C27.9131 20.0763 29.4234 18.9631 30.8255 17.7218C31.4962 17.129 31.9645 17.1791 32.5991 17.7385C33.8488 18.835 35.154 19.8731 36.4426 20.9251C36.6754 21.1172 36.9137 21.4762 37.2157 21.3593C37.5566 21.2285 37.3986 20.8083 37.3986 20.516C37.4069 15.3701 37.4069 10.2213 37.4014 5.07537C37.3986 3.69774 37.0772 3.3749 35.6639 3.3749C25.2057 3.36933 14.7476 3.36933 4.28938 3.3749C2.76527 3.3749 2.52419 3.61981 2.52142 5.1199C2.52142 9.53391 2.52142 13.9507 2.52973 18.3675C2.52973 18.6681 2.43551 18.9937 2.76527 19.3833ZM29.5702 28.9238C28.6391 28.0527 27.7385 27.215 26.8462 26.3717C22.6147 22.3696 18.3943 18.3563 14.1518 14.3654C12.9186 13.2048 12.8854 13.2299 11.6716 14.3515C8.92268 16.8924 6.19314 19.4557 3.42757 21.9772C2.78744 22.5588 2.45214 23.1711 2.50756 24.0561C2.5713 25.0608 2.51865 26.0711 2.52142 27.0786C2.52696 28.896 2.7431 29.1186 4.55541 29.1186C12.514 29.1214 20.4727 29.1214 28.4313 29.113C28.7666 29.1186 29.1213 29.2188 29.5702 28.9238ZM37.4069 26.3939C37.7727 25.1944 37.0439 24.3122 35.9327 23.5218C34.7217 22.659 33.5828 21.6905 32.4494 20.7248C31.9423 20.2906 31.5599 20.2155 31.0251 20.6942C30.0967 21.5263 29.1269 22.3167 28.1376 23.0709C27.5501 23.519 27.6305 23.8391 28.1237 24.2927C29.4261 25.4867 30.7452 26.6695 31.9645 27.9441C32.793 28.8125 33.6687 29.191 34.8825 29.1464C37.3654 29.0602 37.4069 29.0852 37.4069 26.3939Z" fill="#E25D23"/>
<path d="M25.865 15.055C23.2795 15.0578 21.2317 13.0373 21.204 10.4573C21.1762 7.88851 23.3072 5.74552 25.8844 5.75387C28.4033 5.75944 30.5398 7.8579 30.5786 10.3627C30.6202 12.8731 28.431 15.0522 25.865 15.055ZM28.201 10.4044C28.2703 9.22162 27.1646 8.0388 25.9481 7.99427C24.7815 7.95252 23.6647 8.98784 23.5899 10.1762C23.5123 11.4147 24.5265 12.553 25.7735 12.6281C26.979 12.7005 28.1262 11.6485 28.201 10.4044Z" fill="#E25D23"/>
</svg>
