<svg width="59" height="59" viewBox="0 0 59 59" fill="none" xmlns="http://www.w3.org/2000/svg">
<path d="M32.5 51.5C43.8218 51.5 53 42.3218 53 31C53 19.6782 43.8218 10.5 32.5 10.5C21.1782 10.5 12 19.6782 12 31C12 42.3218 21.1782 51.5 32.5 51.5Z" fill="white"/>
<path d="M12.02 30C12.1 28.27 12.4 26.59 12.89 25" stroke="#2B2A29" stroke-width="2" stroke-miterlimit="10"/>
<path d="M13.2301 38C12.6501 36.42 12.2701 34.74 12.1001 33" stroke="#2B2A29" stroke-width="2" stroke-miterlimit="10"/>
<path d="M14.0801 22C17.4101 15.19 24.4101 10.5 32.5001 10.5C43.8201 10.5 53.0001 19.68 53.0001 31C53.0001 42.32 43.8201 51.5 32.5001 51.5C24.8101 51.5 18.1101 47.27 14.6001 41" stroke="#2B2A29" stroke-width="2" stroke-miterlimit="10"/>
<path d="M21.9399 20C24.6799 17.37 28.3999 15.75 32.4999 15.75C40.9199 15.75 47.7499 22.58 47.7499 31C47.7499 39.42 40.9199 46.25 32.4999 46.25C28.4299 46.25 24.7299 44.66 21.9999 42.06" stroke="#2B2A29" stroke-width="2" stroke-miterlimit="10"/>
<path d="M32 42C38.0751 42 43 37.0751 43 31C43 24.9249 38.0751 20 32 20C25.9249 20 21 24.9249 21 31C21 37.0751 25.9249 42 32 42Z" fill="#F2F2F2"/>
<path d="M22 4H16" stroke="#BCC0C4" stroke-width="2" stroke-miterlimit="10"/>
<path d="M58 21.74C56 16.14 52.18 11.4 47.26 8.24C45.62 7.18 43.86 6.3 42 5.62" stroke="#BCC0C4" stroke-width="2" stroke-miterlimit="10"/>
<path d="M54.94 47.25C50.06 53.78 42.27 58 33.5 58H20" stroke="#BCC0C4" stroke-width="2" stroke-miterlimit="10"/>
<path d="M30 8V5H35V8" stroke="#2B2A29" stroke-width="2" stroke-miterlimit="10"/>
<path d="M38 1H27V5H38V1Z" fill="#F3723A" stroke="#2B2A29" stroke-width="2" stroke-miterlimit="10"/>
<path d="M5 22H19" stroke="#2B2A29" stroke-width="2" stroke-miterlimit="10"/>
<path d="M0 30H16" stroke="#2B2A29" stroke-width="2" stroke-miterlimit="10"/>
<path d="M4 38H18" stroke="#2B2A29" stroke-width="2" stroke-miterlimit="10"/>
<path d="M34.79 28.59L41 22" stroke="#2B2A29" stroke-width="2" stroke-miterlimit="10"/>
<path d="M18 58H14" stroke="#BCC0C4" stroke-width="2" stroke-miterlimit="10"/>
<path d="M12 58H10" stroke="#BCC0C4" stroke-width="2" stroke-miterlimit="10"/>
<path d="M14 4H10" stroke="#BCC0C4" stroke-width="2" stroke-miterlimit="10"/>
<path d="M8 4H6" stroke="#BCC0C4" stroke-width="2" stroke-miterlimit="10"/>
<path d="M32.5 33.75C34.0188 33.75 35.25 32.5188 35.25 31C35.25 29.4812 34.0188 28.25 32.5 28.25C30.9812 28.25 29.75 29.4812 29.75 31C29.75 32.5188 30.9812 33.75 32.5 33.75Z" fill="#F3723A" stroke="#2B2A29" stroke-width="2" stroke-miterlimit="10"/>
<path d="M18.2401 11.13L14.5601 14.81" stroke="#2B2A29" stroke-width="2" stroke-miterlimit="10"/>
<path d="M16.4001 12.97L19.0001 15.57" stroke="#2B2A29" stroke-width="2" stroke-miterlimit="10"/>
</svg>
