<svg width="40" height="39" viewBox="0 0 40 39" fill="none" xmlns="http://www.w3.org/2000/svg">
<path d="M3.20067 28.2715C3.20738 27.7347 3.32145 26.9698 3.44894 26.2115C3.6234 25.1312 3.38855 24.1851 2.61019 23.3866C2.13378 22.8968 1.65066 22.407 1.21451 21.8903C-0.409305 19.9578 -0.402595 18.3608 1.22122 16.4284C1.52317 16.066 1.83183 15.6903 2.18746 15.3816C3.38855 14.355 3.71063 13.0868 3.38184 11.5703C3.2208 10.8188 3.17383 10.0472 3.21409 9.26879C3.29461 7.76575 4.06626 6.77939 5.42839 6.22917C6.13294 5.94064 6.88446 5.81986 7.62927 5.68566C7.8507 5.6454 8.06542 5.61185 8.28685 5.5783C9.48794 5.39042 10.2797 4.67916 10.8031 3.61227C11.2258 2.7601 11.6687 1.92135 12.3061 1.19667C13.2254 0.156618 14.3527 -0.219141 15.7148 0.123068C16.4865 0.317658 17.1843 0.673288 17.9023 1.00208C18.0096 1.04905 18.117 1.10944 18.2176 1.16312C19.4053 1.8207 20.5863 1.81399 21.7807 1.17654C22.3577 0.867878 22.9549 0.599478 23.5588 0.364628C25.5181 -0.400311 26.9675 0.0559686 28.1552 1.79386C28.5175 2.32395 28.853 2.86746 29.108 3.45123C29.7119 4.85362 30.7922 5.53133 32.2684 5.69237C32.9595 5.76618 33.6439 5.92051 34.3082 6.14865C36.0662 6.74584 36.9184 8.04086 36.8043 9.89953C36.7574 10.6578 36.6634 11.4093 36.5494 12.1541C36.3816 13.221 36.6097 14.1537 37.3747 14.9387C37.9316 15.5091 38.502 16.0794 38.9985 16.7102C40.3271 18.4212 40.3338 19.9041 39.0186 21.6152C38.5959 22.1721 38.1195 22.6821 37.6095 23.1652C36.6836 24.0442 36.3346 25.0843 36.5628 26.3457C36.7238 27.2315 36.8312 28.1306 36.7842 29.0432C36.7104 30.5663 35.932 31.5594 34.5431 32.1163C33.6976 32.4585 32.7985 32.5995 31.906 32.7269C30.5976 32.9081 29.7253 33.6127 29.1617 34.7936C28.7725 35.6122 28.3363 36.4107 27.7391 37.1019C26.8735 38.1017 25.8134 38.5512 24.4848 38.2493C23.8339 38.1017 23.1898 37.9138 22.5926 37.5984C22.3309 37.4575 22.0558 37.3367 21.8008 37.1958C20.5997 36.5181 19.4053 36.5449 18.1975 37.1891C17.5802 37.5112 16.9427 37.8064 16.2919 38.048C14.4735 38.7257 13.0577 38.2761 11.9304 36.6926C11.5345 36.1356 11.1721 35.5519 10.897 34.9278C10.2864 33.5053 9.1927 32.8276 7.70308 32.6598C7.01195 32.586 6.32753 32.4317 5.66324 32.2036C3.94548 31.5862 3.09331 30.3248 3.20067 28.2715ZM34.5833 9.85927C34.59 8.82593 34.3418 8.47702 33.5231 8.22204C32.9729 8.04758 32.4026 7.94692 31.8255 7.85969C30.2889 7.61813 28.8865 7.1216 27.9404 5.7796C27.6385 5.35687 27.3567 4.92072 27.1218 4.45773C26.8668 3.95448 26.6051 3.45123 26.2831 2.98824C25.7261 2.19646 25.3235 2.06897 24.4177 2.40447C23.8339 2.61919 23.2837 2.92114 22.7201 3.18954C21.7739 3.63911 20.7876 3.99474 19.7274 3.91422C18.7746 3.84041 17.8754 3.51833 17.0233 3.06876C16.4865 2.78023 15.943 2.51183 15.3525 2.33737C14.6479 2.12265 14.2789 2.24343 13.836 2.8272C13.3663 3.44452 13.0241 4.14236 12.6752 4.82678C11.8096 6.50428 10.4542 7.49064 8.59551 7.79259C7.8507 7.91337 7.09918 8.01402 6.3745 8.25558C5.66995 8.49043 5.40826 8.83264 5.41497 9.57745C5.42168 10.0673 5.44181 10.5638 5.54917 11.0402C6.07255 13.4022 5.52233 15.4084 3.68379 17.039C3.34158 17.3409 3.05305 17.71 2.75781 18.0656C2.0801 18.9043 2.07339 19.4546 2.77123 20.2866C3.18725 20.7899 3.65024 21.2528 4.09981 21.7293C5.29419 22.9706 5.91151 24.4133 5.69008 26.1713C5.58272 27.0234 5.40826 27.8689 5.40826 28.7345C5.40826 29.5061 5.65653 29.8484 6.38121 30.0899C6.95827 30.2778 7.55546 30.3986 8.15936 30.4791C10.1992 30.7341 11.7559 31.6936 12.6953 33.5724C13.004 34.1964 13.3261 34.8205 13.7287 35.3908C14.2587 36.1289 14.6681 36.2631 15.5269 35.9544C16.1174 35.7397 16.6743 35.4579 17.2246 35.1694C19.0698 34.2031 20.9151 34.2099 22.767 35.1761C23.277 35.4445 23.8071 35.6928 24.3372 35.9075C25.3101 36.3034 25.7597 36.1625 26.3233 35.27C26.6924 34.6796 27.0212 34.0622 27.35 33.4449C28.2222 31.8077 29.571 30.8549 31.3894 30.5596C32.1342 30.4388 32.8857 30.3315 33.6104 30.0966C34.3149 29.8618 34.5699 29.5196 34.5699 28.7748C34.5699 28.1239 34.4827 27.473 34.3686 26.8289C33.9928 24.789 34.5162 23.0444 36.0193 21.6018C36.4487 21.1925 36.8446 20.7496 37.2204 20.2933C37.9048 19.4613 37.9115 18.9111 37.2136 18.079C36.7976 17.5758 36.3413 17.1128 35.8851 16.6364C34.6907 15.395 34.0599 13.9524 34.2948 12.1944C34.4156 11.3422 34.5028 10.5169 34.5833 9.85927Z" fill="#E25D23"/>
<path d="M34.0933 19.1521C34.1 26.8955 27.7457 33.2565 19.9956 33.2565C12.2389 33.2565 5.89122 26.9156 5.89793 19.1655C5.89793 11.4021 12.2322 5.07456 19.9889 5.06785C27.7457 5.05443 34.0933 11.3954 34.0933 19.1521ZM31.8388 19.1991C31.9126 12.6434 26.4641 7.28215 20.0023 7.31569C13.4333 7.34925 8.1592 12.583 8.1592 19.1454C8.1592 25.7413 13.4131 30.9953 20.0158 31.002C26.5513 31.002 31.8388 25.7212 31.8388 19.1991Z" fill="#E25D23"/>
<path d="M18.4925 25.3321C18.1167 25.3253 17.8081 25.1643 17.5799 24.8624C16.3721 23.2788 15.1576 21.7019 13.9565 20.1184C13.5338 19.5547 13.621 18.877 14.131 18.5013C14.6544 18.1054 15.2918 18.206 15.7347 18.7764C16.5466 19.8231 17.3451 20.8766 18.1436 21.9234C18.4992 22.3931 18.4992 22.3931 18.8481 21.9435C20.6062 19.6621 22.3642 17.3807 24.1222 15.0993C24.3503 14.8041 24.5785 14.5088 24.9744 14.4283C25.4441 14.3344 25.8869 14.5088 26.1419 14.8913C26.417 15.3006 26.417 15.7368 26.0949 16.1796C25.5783 16.8842 25.0348 17.5753 24.498 18.2664C22.8272 20.4338 21.1631 22.5944 19.499 24.7617C19.2373 25.0905 18.9354 25.3186 18.4925 25.3321Z" fill="#E25D23"/>
</svg>
