<svg width="21" height="25" viewBox="0 0 21 25" fill="none" xmlns="http://www.w3.org/2000/svg">
<path d="M10.4679 24.998C9.27064 24.998 8.07338 24.9993 6.87611 24.998C4.84003 24.9953 3.27696 23.4828 3.16574 21.4548C3.10812 20.4012 2.98015 19.3522 2.88837 18.3006C2.81266 17.4308 2.74566 16.561 2.67263 15.6912C2.57816 14.565 2.48302 13.4381 2.38655 12.3118C2.29878 11.2849 2.20297 10.2585 2.1219 9.23155C2.08438 8.75735 2.04418 8.70873 1.56783 8.71539C1.29983 8.71872 1.03318 8.72272 0.767194 8.6701C0.258676 8.56821 -0.00462832 8.26517 6.15701e-05 7.74568C0.00408148 7.24285 0.145448 6.75932 0.237906 6.26981C0.351804 5.66507 0.480441 5.063 0.600368 4.45893C0.749104 3.71433 1.15646 3.37267 1.92292 3.35735C2.14066 3.35269 2.35841 3.34936 2.57615 3.35535C2.79189 3.36068 2.88636 3.25945 2.92789 3.05232C3.06725 2.35034 3.20996 1.64903 3.37142 0.952388C3.52686 0.281051 3.72116 0.105224 4.4099 0.0452836C5.32845 -0.0353036 6.25035 0.0166452 7.17091 0.0146471C10.1014 0.00798705 13.0319 0.0113171 15.9624 0.0139811C16.2043 0.0139811 16.4468 0.0366255 16.6887 0.0512777C17.1543 0.0799161 17.4512 0.322343 17.5784 0.764574C17.7446 1.34134 17.8418 1.93275 17.9644 2.51884C17.9999 2.69001 18.0374 2.86117 18.0628 3.03367C18.097 3.26744 18.237 3.35868 18.4622 3.35735C18.7884 3.35468 19.1147 3.33937 19.439 3.39997C19.8939 3.48589 20.2222 3.73498 20.32 4.18387C20.5592 5.28078 20.7944 6.38037 20.9766 7.48794C21.1046 8.26517 20.714 8.6741 19.9127 8.7114C19.7036 8.72139 19.4933 8.71006 19.2856 8.72805C18.9854 8.75402 18.901 8.83794 18.8762 9.13032C18.7871 10.1906 18.7067 11.2516 18.6163 12.3112C18.5077 13.5866 18.3905 14.8607 18.2813 16.1361C18.1901 17.2043 18.1131 18.274 18.0153 19.3416C17.9302 20.268 17.9101 21.2031 17.7265 22.1182C17.3942 23.7725 15.9115 24.9813 14.2111 24.9953C12.9629 25.006 11.7154 24.998 10.4679 24.998ZM10.5202 23.0759V23.0779C11.424 23.0779 12.3278 23.0812 13.2316 23.0766C13.641 23.0746 14.0503 23.0945 14.459 23.0313C15.1678 22.9207 15.7628 22.3346 15.8311 21.6613C16.0047 19.933 16.1333 18.2014 16.2592 16.4697C16.2706 16.3172 16.2184 16.2433 16.0817 16.2293C15.6985 16.19 15.3146 16.1807 14.9313 16.2426C14.7866 16.2659 14.7169 16.3525 14.6861 16.4891C14.6426 16.6842 14.587 16.876 14.4938 17.0552C13.6269 18.7189 12.2668 19.6226 10.3674 19.5993C8.91957 19.582 7.76853 18.93 6.9143 17.7698C6.69589 17.4727 6.55452 17.1344 6.42588 16.7888C6.24968 16.3159 6.05203 16.1907 5.55825 16.202C5.37401 16.206 5.19043 16.2073 5.00619 16.2087C4.74087 16.2107 4.69263 16.2726 4.72077 16.5437C4.87822 18.0728 4.99346 19.6053 5.10936 21.1378C5.14554 21.6127 5.22192 22.0809 5.5482 22.4658C5.94417 22.9327 6.47948 23.0679 7.05567 23.0732C8.21005 23.0832 9.36511 23.0759 10.5202 23.0759ZM10.4847 8.7114V8.71606C9.50513 8.71606 8.52562 8.71673 7.5461 8.71606C6.55787 8.71539 5.57031 8.71406 4.58209 8.71206C4.11712 8.7114 4.07491 8.75402 4.10372 9.20957C4.10573 9.24287 4.10908 9.27617 4.11176 9.30881C4.19149 10.2446 4.26652 11.1803 4.35161 12.116C4.40588 12.7115 4.44273 13.3095 4.54859 13.8996C4.58812 14.1194 4.70201 14.2486 4.92512 14.2633C5.16698 14.2792 5.40952 14.2872 5.65205 14.2886C6.11635 14.2912 6.19943 14.2339 6.35219 13.8077C6.76021 12.6628 7.49451 11.8157 8.6087 11.2889C10.4558 10.4151 12.6145 10.8892 13.8942 12.465C14.2406 12.8919 14.4778 13.3741 14.6687 13.8843C14.7437 14.0854 14.8509 14.2759 15.0995 14.2826C15.476 14.2932 15.8526 14.2899 16.2291 14.2826C16.3772 14.2799 16.4783 14.2126 16.4904 14.0415C16.5172 13.6598 16.5567 13.2796 16.5889 12.8986C16.6512 12.1613 16.7128 11.4247 16.7718 10.6874C16.8147 10.1573 16.8609 9.62716 16.8904 9.09635C16.9078 8.78599 16.8395 8.72672 16.538 8.71406C16.4797 8.7114 16.4207 8.71273 16.3624 8.71273C14.4027 8.7114 12.4437 8.7114 10.4847 8.7114ZM10.2863 5.37136C8.36951 5.37136 6.45268 5.37136 4.53653 5.37136C3.97575 5.37136 3.41497 5.37003 2.8542 5.37203C2.45958 5.37402 2.42407 5.40666 2.34501 5.79827C2.30883 5.97743 2.27265 6.15725 2.23245 6.33508C2.142 6.73402 2.18555 6.79329 2.59424 6.79329C3.48934 6.79396 4.38444 6.77331 5.27954 6.76532C6.53442 6.754 7.7893 6.75 9.04418 6.78463C10.3151 6.81993 11.5881 6.79263 12.8604 6.79263C13.9317 6.79263 15.0037 6.80928 16.0743 6.78663C16.9272 6.76798 17.7794 6.73335 18.6317 6.7893C18.7878 6.79929 18.8407 6.7147 18.8441 6.5775C18.8621 5.71369 18.5861 5.45195 17.8196 5.37469C17.7366 5.36603 17.6521 5.37069 17.5684 5.37069C15.141 5.37136 12.7137 5.37136 10.2863 5.37136ZM10.494 17.5973C11.8374 17.6439 12.9093 16.5716 12.9167 15.2077C12.9241 13.9229 11.7858 12.8067 10.49 12.8067C9.21101 12.8067 8.06467 13.9229 8.08008 15.1977C8.09884 16.7215 9.30012 17.6572 10.494 17.5973ZM10.4947 3.35002C10.7292 3.35002 10.9637 3.35002 11.1982 3.35002C12.7304 3.35135 14.2627 3.35269 15.7949 3.35269C16.083 3.35269 16.1052 3.32471 16.0522 3.05232C16.008 2.82387 15.9671 2.5941 15.9176 2.36699C15.8338 1.98737 15.8043 1.96672 15.4171 1.96672C12.2353 1.96739 9.05423 1.96805 5.87248 1.96872C5.71369 1.96872 5.55423 1.97138 5.39545 1.96872C5.23331 1.96539 5.14822 2.04664 5.11874 2.19849C5.06783 2.45957 5.00954 2.71931 4.96398 2.98172C4.901 3.34603 4.90569 3.34936 5.2715 3.34936C7.01212 3.35069 8.75341 3.35002 10.4947 3.35002Z" fill="#E25D23"/>
</svg>
