<svg width="79" height="79" viewBox="0 0 79 79" fill="none" xmlns="http://www.w3.org/2000/svg">
<circle cx="39.5" cy="39.5" r="38" stroke="#E25D23" stroke-width="3"/>
<circle cx="39.5" cy="39.5" r="32.5" fill="#E25D23"/>
<path d="M44.7922 30.5665C44.7906 35.3835 44.0391 40.1071 43.0322 44.7945C42.4359 47.5761 41.7329 50.3332 40.9587 53.0689C40.8973 53.2854 40.8036 53.492 40.7438 53.7085C40.6226 54.153 40.3996 54.3859 39.8889 54.3793C39.3766 54.3711 39.1794 54.1251 39.055 53.6823C38.1629 50.5333 37.3306 47.3678 36.6453 44.1631C35.9989 41.1387 35.4963 38.0914 35.2086 35.0112C34.8692 31.3702 34.8175 27.7324 35.674 24.1455C36.1136 22.3036 36.6841 20.5077 38.0675 19.1267C39.1293 18.064 40.3769 18 41.5405 18.9513C42.465 19.7073 43.008 20.739 43.4459 21.828C44.5077 24.4719 44.8019 27.2486 44.7938 30.0745C44.7922 30.2385 44.7922 30.4025 44.7922 30.5665Z" fill="white"/>
<path d="M41.4414 53.9201C41.4737 53.5117 41.6725 53.2985 41.8002 53.0558C44.4716 47.9583 46.794 42.7181 48.0691 37.0614C48.806 33.7894 49.1971 30.4845 48.6444 27.1321C48.0061 23.2566 46.1184 20.2289 42.7149 18.2477C42.647 18.2083 42.5888 18.1509 42.529 18.0984C42.5193 18.0902 42.5274 18.059 42.5274 18C43.5407 18.0328 44.4312 18.4592 45.3298 18.8611C50.2121 21.044 52.8932 26.5319 52.2177 31.9639C51.6359 36.6432 49.842 40.8746 47.7136 44.9897C46.3334 47.6614 44.7399 50.1987 42.8264 52.5194C42.4288 53.0016 41.9973 53.4461 41.4414 53.9201Z" fill="white"/>
<path d="M38.5191 53.7807C37.5349 53.1296 36.8593 52.2095 36.1854 51.2992C32.6332 46.497 30.0215 41.2043 28.3796 35.4443C27.4422 32.1591 27.2677 28.8215 28.5072 25.5429C29.9181 21.81 32.5669 19.4122 36.2905 18.1968C36.6169 18.0902 36.9466 18.005 37.3005 18.0312C37.3555 18.2182 37.1874 18.2214 37.105 18.2723C33.5269 20.511 31.67 23.8339 31.211 28.0064C30.6696 32.9333 31.7993 37.6125 33.354 42.2196C34.6792 46.1476 36.4812 49.8592 38.4027 53.5134C38.448 53.5987 38.4803 53.6922 38.5191 53.7807Z" fill="white"/>
<path d="M37.0472 53.5117C36.0275 52.6376 35.2744 51.7027 34.5342 50.7662C31.226 46.5954 28.3703 42.1409 26.4633 37.1188C25.5195 34.6341 24.9053 32.0689 25.012 29.3841C25.1688 25.4133 27.1711 22.5333 30.3129 20.3569C30.4616 20.2535 30.6329 20.183 30.7961 20.1027C30.8672 20.0682 30.9432 20.0453 31.1032 19.9846C31.0143 20.2535 30.8333 20.3388 30.6943 20.4504C27.2358 23.2681 25.9025 26.9616 26.3146 31.3801C26.7671 36.2381 28.7986 40.5007 31.1662 44.6338C32.7823 47.4548 34.6279 50.1184 36.6076 52.6884C36.7628 52.8918 36.9794 53.0673 37.0472 53.5117Z" fill="white"/>
<path d="M42.9215 53.3199C43.1703 52.9853 43.416 52.649 43.6697 52.3177C47.1234 47.8189 50.0954 43.0298 52.1608 37.7027C53.1596 35.1277 53.7446 32.4675 53.7462 29.6793C53.7478 25.9185 52.2772 22.9056 49.415 20.557C49.2696 20.4389 49.0514 20.3749 49.032 20.0846C49.7156 20.2781 50.215 20.7226 50.7241 21.1408C52.9899 23.0089 54.488 25.3527 54.892 28.3229C55.1571 30.2763 54.8936 32.205 54.4314 34.1076C53.4343 38.221 51.5354 41.9129 49.2906 45.444C47.6017 48.1027 45.7076 50.5973 43.5808 52.9115C43.4144 53.0952 43.256 53.31 42.9215 53.3199Z" fill="white"/>
<path d="M39.9274 56.0752C40.7548 56.0752 41.5839 56.0817 42.4114 56.0735C42.8784 56.0686 43.0206 56.2769 42.9107 56.7296C42.6877 57.6448 42.4728 58.5616 42.2772 59.4817C42.1996 59.8491 42.0073 60 41.6485 59.9983C40.4769 59.9918 39.3068 59.9901 38.1351 60C37.765 60.0032 37.584 59.831 37.5129 59.4768C37.3206 58.5337 37.1186 57.5939 36.9149 56.6525C36.8277 56.249 36.9925 56.0735 37.3836 56.0735C38.2305 56.0768 39.0789 56.0752 39.9274 56.0752Z" fill="white"/>
</svg>
