<svg width="20" height="21" viewBox="0 0 20 21" fill="none" xmlns="http://www.w3.org/2000/svg">
<path d="M0.683711 19.4808C1.04716 18.3973 1.39603 17.3253 1.77197 16.2627C1.87298 15.9764 1.84383 15.7714 1.67408 15.5154C-2.38007 9.43189 1.32209 1.15233 8.55875 0.103204C14.0011 -0.685722 19.1341 3.14754 19.8995 8.57115C20.6681 14.0239 16.917 19.0697 11.4538 19.8857C9.09506 20.2385 6.87377 19.7806 4.83055 18.5399C4.58061 18.388 4.38171 18.3713 4.11303 18.4608C3.07892 18.8064 2.03648 19.128 0.997171 19.4579C0.911777 19.4839 0.833672 19.5412 0.683711 19.4808ZM4.20363 7.35029C4.18176 7.904 4.34005 8.44937 4.56708 8.97914C4.9451 9.8607 5.52412 10.6142 6.1073 11.3626C7.75583 13.4764 9.85945 14.8898 12.49 15.4893C12.8982 15.582 13.3096 15.6403 13.7251 15.5435C15.2987 15.1792 16.0006 14.3809 16.0193 13.0258C16.0224 12.8072 15.9599 12.6542 15.7537 12.5564C15.0029 12.2015 14.2541 11.8382 13.5054 11.4781C13.168 11.3157 12.9055 11.4063 12.6931 11.7029C12.4963 11.9777 12.2994 12.2525 12.0901 12.5179C11.7881 12.9019 11.5955 12.9529 11.1424 12.7708C9.45955 12.0953 8.21717 10.9192 7.28616 9.38609C7.15182 9.16544 7.16952 8.97186 7.33615 8.78139C7.55067 8.53784 7.77041 8.29742 7.97452 8.0445C8.14323 7.83738 8.25466 7.61465 8.13281 7.32843C7.80165 6.552 7.48507 5.77036 7.15807 4.99288C7.09246 4.83676 7.00082 4.69105 6.8269 4.62756C6.30725 4.43709 5.48454 4.64942 5.09506 5.05949C4.49418 5.69542 4.19217 6.44479 4.20363 7.35029Z" fill="#6EB861"/>
<path d="M4.20282 7.35024C4.19137 6.4437 4.49441 5.69537 5.0953 5.06048C5.48478 4.64936 6.30748 4.43808 6.82714 4.62855C7.00105 4.69204 7.09269 4.83775 7.1583 4.99387C7.48634 5.77135 7.80293 6.55299 8.13305 7.32942C8.25489 7.61564 8.14242 7.83837 7.97476 8.04549C7.77064 8.29737 7.55091 8.53779 7.33638 8.78238C7.16872 8.97284 7.15205 9.16643 7.28639 9.38708C8.2174 10.9202 9.45979 12.0963 11.1427 12.7718C11.5957 12.9529 11.7883 12.9029 12.0904 12.5188C12.2986 12.2534 12.4965 11.9787 12.6933 11.7039C12.9058 11.4073 13.1682 11.3167 13.5056 11.4791C14.2544 11.8392 15.0021 12.2014 15.754 12.5574C15.9602 12.6552 16.0227 12.8082 16.0195 13.0268C16.0008 14.3819 15.2989 15.1802 13.7253 15.5445C13.3098 15.6402 12.8974 15.583 12.4902 15.4903C9.86072 14.8908 7.75606 13.4764 6.10753 11.3636C5.52435 10.6152 4.94534 9.86169 4.56731 8.98013C4.33924 8.44932 4.18095 7.90394 4.20282 7.35024Z" fill="#F8F9FA"/>
</svg>
