<svg width="25" height="24" viewBox="0 0 25 24" fill="none" xmlns="http://www.w3.org/2000/svg">
<path d="M0.00515974 12.0361C0.00515974 5.93679 4.63679 0.899095 10.9322 0.101637C17.7173 -0.758123 24.0335 3.93442 24.8985 10.4773C25.7688 17.0663 20.9462 23.0423 14.0663 23.9058C11.5102 24.226 9.12685 23.7214 6.89546 22.5239C6.51879 22.3221 6.29929 22.357 6.03043 22.651C5.70962 23.0012 5.35374 23.3226 5.00046 23.6441C4.52119 24.0815 3.851 24.0964 3.42888 23.6952C3.00676 23.294 3.01585 22.6423 3.47304 22.1887C4.08219 21.5844 4.70693 20.9938 5.33037 20.4032C5.92003 19.845 6.30579 19.7901 7.01884 20.2138C8.29949 20.9764 9.63988 21.5956 11.1439 21.8037C14.0286 22.2024 16.6458 21.5259 18.9005 19.7827C22.7074 16.8383 23.9309 12.1844 21.8956 7.92545C20.1435 4.25714 17.0445 2.29963 12.8142 2.1065C7.77996 1.87847 3.31068 5.34866 2.36124 10.0362C1.87028 12.461 2.23136 14.7761 3.5107 16.9392C3.60682 17.1012 3.71462 17.257 3.80943 17.4202C4.12505 17.961 3.99127 18.5466 3.48732 18.8519C2.96649 19.1671 2.39501 19.0438 2.00276 18.5167C1.60402 17.9822 1.2897 17.4015 1.02474 16.7972C0.350649 15.2608 -0.05069 13.6672 0.00515974 12.0361Z" fill="#E25D23"/>
<path d="M13.5818 13.5193C13.5818 14.2818 13.587 15.0444 13.5805 15.8082C13.574 16.5446 13.1116 17.0468 12.4713 17.0293C11.8297 17.0119 11.4127 16.5471 11.4089 15.8145C11.4024 14.2731 11.4024 12.7318 11.4089 11.1905C11.4115 10.4366 11.8569 9.95564 12.5129 9.97059C13.1428 9.9843 13.5727 10.4665 13.5805 11.1842C13.5883 11.963 13.5818 12.7418 13.5818 13.5193Z" fill="#E25D23"/>
<path d="M12.5116 9.03381C11.918 9.04128 11.4115 8.57153 11.4141 8.01954C11.4167 7.47004 11.9375 6.97412 12.5051 6.9816C13.0831 6.98907 13.5818 7.48001 13.5766 8.03574C13.5701 8.56904 13.0831 9.02633 12.5116 9.03381Z" fill="#E25D23"/>
</svg>
