<svg width="20" height="20" viewBox="0 0 20 20" fill="none" xmlns="http://www.w3.org/2000/svg">
<circle cx="10" cy="10" r="10" fill="#E25D23"/>
<path d="M13.9983 9.12318C13.9832 10.5257 13.5121 11.7858 12.7958 12.9631C12.1445 14.0334 11.3336 14.9692 10.395 15.7918C10.0962 16.0534 9.93174 16.0699 9.66245 15.8332C8.32079 14.6558 7.21771 13.2935 6.53454 11.6209C6.07607 10.5001 5.85257 9.33735 6.1062 8.1241C6.47369 6.36567 8.11295 5.05081 9.89198 5.00152C11.8054 4.94798 13.5211 6.31152 13.9205 8.19346C13.985 8.50012 14.0067 8.80922 13.9983 9.12318ZM8.21476 9.03799C8.21235 10.0054 9.03891 10.8427 10.001 10.8457C10.9565 10.8494 11.7909 10.0085 11.7927 9.04165C11.7945 8.07603 10.9643 7.23576 10.0052 7.23393C9.04795 7.2315 8.21717 8.06873 8.21476 9.03799Z" fill="white"/>
</svg>
