<svg width="23" height="25" viewBox="0 0 23 25" fill="none" xmlns="http://www.w3.org/2000/svg">
<path d="M0.00141148 14.199C0.00141148 17.285 0.00141148 20.371 0.00141148 23.4576C0.00141148 23.6402 0.00802986 23.8214 0.0424471 24.0019C0.15298 24.5828 0.470678 24.8775 1.05842 24.9565C1.5118 25.0176 1.96651 24.997 2.42121 24.997C7.16947 24.999 11.9171 24.9976 16.6653 24.9996C16.9062 24.9996 17.1445 24.983 17.3821 24.9532C17.9328 24.8835 18.2644 24.5622 18.3412 24.0079C18.4378 23.3142 18.3743 22.6166 18.3869 21.9209C18.3928 21.5718 18.3862 21.5711 18.7251 21.5711C19.6431 21.5711 20.5618 21.5731 21.4798 21.5718C22.5805 21.5711 22.9981 21.1569 22.9988 20.0503C23.0001 13.879 23.0001 7.707 22.9968 1.53433C22.9968 1.32856 22.9756 1.1188 22.9332 0.917002C22.8406 0.471592 22.5738 0.179521 22.1211 0.0792871C21.9027 0.0308298 21.6823 0.000295022 21.4573 0.000295022C16.3701 0.000295022 11.283 -0.000368777 6.1952 0.000295022C6.00524 0.000295022 5.81594 0.00361402 5.62665 0.0328212C4.95617 0.137701 4.63318 0.48686 4.62061 1.16991C4.60869 1.82508 4.60671 2.48091 4.62061 3.13608C4.62524 3.37173 4.54184 3.43147 4.31945 3.42948C3.40938 3.41952 2.49931 3.4255 1.5899 3.4255C1.49922 3.4255 1.40789 3.4255 1.31721 3.42683C0.46075 3.44342 0.0126624 3.8802 0.00670556 4.74115C-0.00388437 6.22607 0.00141083 7.71099 0.000748963 9.1959C8.70925e-05 10.8634 0.00141148 12.5315 0.00141148 14.199C0.000749609 14.199 0.00141148 14.1996 0.00141148 14.199ZM16.1325 14.2089C16.1319 14.2089 16.1312 14.2089 16.1312 14.2089C16.1312 16.9292 16.1312 19.6494 16.1312 22.3697C16.1312 22.7434 16.1305 22.7427 15.7698 22.7421C15.4223 22.7414 15.0755 22.7414 14.728 22.7414C10.7005 22.7414 6.67373 22.7414 2.64625 22.7414C2.31332 22.7414 2.30803 22.7401 2.31266 22.4155C2.32061 21.8021 2.34708 21.1894 2.34576 20.5761C2.33715 15.725 2.38018 10.874 2.30869 6.02294C2.30538 5.79725 2.33451 5.67379 2.61051 5.67445C7.00996 5.68175 11.4088 5.67976 15.8082 5.68042C16.1279 5.68042 16.1325 5.68706 16.1325 6.02228C16.1325 8.75182 16.1325 11.4807 16.1325 14.2089ZM13.7174 2.29571C13.7187 2.28376 13.7207 2.27248 13.722 2.26053C13.7769 2.26053 13.8319 2.26053 13.8868 2.26053C16.0121 2.2592 18.138 2.25788 20.2633 2.25655C20.6577 2.25655 20.6591 2.25721 20.6591 2.65217C20.6584 5.18191 20.6564 7.71165 20.6564 10.2414C20.6557 13.1528 20.6564 16.0642 20.6564 18.9757C20.6564 19.3062 20.6511 19.3115 20.3261 19.3129C19.8297 19.3142 19.334 19.3155 18.8376 19.3129C18.3544 19.3102 18.3895 19.358 18.3895 18.8489C18.3888 14.1459 18.3888 9.44284 18.3862 4.73982C18.3855 3.97778 18.1175 3.60738 17.4185 3.39563C16.8248 3.21574 16.2285 3.04581 15.6341 2.86923C14.9934 2.67939 14.3561 2.48689 13.7174 2.29571ZM9.38276 3.39098C9.38144 3.40293 9.37945 3.41488 9.37813 3.42683C8.65603 3.42683 7.93327 3.42948 7.21117 3.42417C7.09865 3.42351 6.92458 3.49055 6.89215 3.32526C6.85376 3.12613 6.84582 2.91371 6.90605 2.71191C6.92259 2.65682 6.9901 2.6774 7.03776 2.692C7.82009 2.92499 8.60176 3.15799 9.38276 3.39098Z" fill="#E25D23"/>
</svg>
