<svg width="25" height="25" viewBox="0 0 25 25" fill="none" xmlns="http://www.w3.org/2000/svg">
<path d="M25 12.5623C24.9816 19.3634 19.3115 25.0482 12.5141 24.9987C5.5091 24.9478 0.00424019 19.4736 2.42458e-06 12.5044C-0.00423534 5.48425 5.54724 -0.0309567 12.5452 0.000130775C19.546 0.0312183 24.9364 5.59305 25 12.5623ZM12.5071 2.36419C6.91039 2.46028 2.40423 6.77014 2.38728 12.4747C2.37033 18.0747 6.76207 22.581 12.4703 22.5979C18.0713 22.6149 22.5718 18.2287 22.5901 12.5128C22.6071 6.91427 18.2168 2.49278 12.5071 2.36419Z" fill="#E25D23"/>
<path d="M18.1732 7.94809C18.1619 8.41157 17.9571 8.70973 17.6859 8.97963C16.6349 10.0253 15.5981 11.0865 14.533 12.1181C14.2264 12.4148 14.2462 12.59 14.5415 12.8769C15.6178 13.9211 16.6759 14.9866 17.7268 16.0563C18.3766 16.7162 18.2891 17.6304 17.563 18.0303C17.0573 18.3087 16.5261 18.2098 16.0317 17.7195C14.9779 16.6752 13.9227 15.6352 12.8916 14.5683C12.5921 14.2574 12.4099 14.2278 12.0949 14.5542C11.0665 15.621 10.0028 16.6554 8.95891 17.7082C8.58175 18.0883 8.15514 18.2833 7.62119 18.1208C6.75809 17.8565 6.52502 16.8038 7.20023 16.1071C8.24414 15.0304 9.30217 13.9649 10.3856 12.9263C10.7444 12.583 10.7275 12.3837 10.38 12.0502C9.32336 11.0356 8.29782 9.98856 7.26663 8.94712C6.78211 8.45679 6.6804 7.96504 6.9276 7.46482C7.29912 6.71448 8.23142 6.57882 8.88404 7.21329C9.90817 8.2095 10.9083 9.23398 11.9225 10.2415C12.561 10.876 12.4197 10.8703 13.0427 10.2514C14.0697 9.23115 15.0881 8.20244 16.1165 7.18503C16.505 6.80067 16.9697 6.69187 17.4782 6.91654C17.9458 7.12427 18.1591 7.51145 18.1732 7.94809Z" fill="#E25D23"/>
</svg>
