<svg width="64" height="53" viewBox="0 0 64 53" fill="none" xmlns="http://www.w3.org/2000/svg">
<path d="M36 44C48.1503 44 58 34.1503 58 22C58 9.84974 48.1503 0 36 0C23.8497 0 14 9.84974 14 22C14 34.1503 23.8497 44 36 44Z" fill="white"/>
<path d="M61.68 45.27L16.22 26.58C16.22 26.58 14.47 27.89 12.13 29.81C9.79996 31.73 10.6 34.69 12.83 37.23C15.87 40.69 18.44 42.59 24.69 43.72C28.89 44.48 30.48 44.56 33.33 46.75L35.08 48.34C36.57 50.13 41.06 52 43.9 52C46.73 52 51.3 52 52.79 52C56.17 52 58.51 50.54 60.04 48.87C60.37 48.51 61.82 46.68 62.34 45.19L61.68 45.27Z" fill="white"/>
<path d="M15.6201 40C17.8001 41.79 20.3701 42.94 24.6901 43.73C28.8901 44.49 30.4801 44.57 33.3301 46.76L35.0801 48.35C36.5701 50.14 41.0601 52.01 43.9001 52.01C46.7301 52.01 51.3001 52.01 52.7901 52.01C56.1701 52.01 58.5101 50.55 60.0401 48.88C60.3701 48.52 61.8201 46.69 62.3401 45.2L61.6901 45.27" stroke="#2B2A29" stroke-width="2" stroke-miterlimit="10"/>
<path d="M16.22 26.58C16.22 26.58 14.47 27.89 12.13 29.81C9.79996 31.73 10.6 34.69 12.83 37.23" stroke="#2B2A29" stroke-width="2" stroke-miterlimit="10"/>
<path d="M11 8H32.15C39.32 8 45.59 11.85 49.01 17.6" stroke="#BCC0C4" stroke-width="2" stroke-miterlimit="10"/>
<path d="M9 8H7" stroke="#BCC0C4" stroke-width="2" stroke-miterlimit="10"/>
<path d="M5 8H3" stroke="#BCC0C4" stroke-width="2" stroke-miterlimit="10"/>
<path d="M15.99 27.38C15.45 31.58 21.89 36.13 24.65 37.13C28.54 38.54 32.37 37.81 36.04 42.27C39.71 46.73 45.06 48.32 50.6 48.32C56.13 48.32 59.05 48.57 61.27 46.79C62.68 45.4 63.83 41.73 62.24 41.09C60.26 40.3 55.47 39.26 52.69 38.57C50.7 35.99 45.1 25.17 43.94 22.41C43.04 20.26 41.97 20.03 40.01 20.76C38.26 21.41 34.29 22.94 30.97 20.21C27.66 17.48 30.35 15.49 28.22 15.23C26.09 14.97 25.45 14.81 23.74 16.41C22.03 18.02 16.53 23.18 15.99 27.38Z" fill="#F3723A" stroke="#2B2A29" stroke-width="2" stroke-miterlimit="10"/>
<path d="M41 25V27" stroke="#2B2A29" stroke-width="2" stroke-miterlimit="10"/>
<path d="M43 29V31" stroke="#2B2A29" stroke-width="2" stroke-miterlimit="10"/>
<path d="M45 33V35" stroke="#2B2A29" stroke-width="2" stroke-miterlimit="10"/>
<path d="M18 37H3" stroke="#2B2A29" stroke-width="2" stroke-miterlimit="10"/>
<path d="M9 28H0" stroke="#2B2A29" stroke-width="2" stroke-miterlimit="10"/>
<path d="M26 22H11" stroke="#2B2A29" stroke-width="2" stroke-miterlimit="10"/>
<path d="M9 22H7" stroke="#2B2A29" stroke-width="2" stroke-miterlimit="10"/>
<path d="M24 49H10" stroke="#BCC0C4" stroke-width="2" stroke-miterlimit="10"/>
</svg>
