<svg width="161" height="145" viewBox="0 0 161 145" fill="none" xmlns="http://www.w3.org/2000/svg">
<g clip-path="url(#clip0)">
<path d="M142.61 145H18.3627C11.7217 145 5.79031 141.549 2.46984 135.788C-0.850624 130.027 -0.850624 123.125 2.46984 117.363L64.6221 9.21223C67.9142 3.45102 73.874 0 80.4866 0C87.1275 0 93.0589 3.45102 96.3794 9.21223L158.503 117.335C161.824 123.096 161.824 129.998 158.503 135.759C155.183 141.549 149.251 145 142.61 145ZM72.8523 14.0037L10.7284 122.126C9.13915 124.893 9.13915 128.23 10.7284 130.996C12.3177 133.763 15.1841 135.446 18.3627 135.446H142.61C145.789 135.446 148.655 133.791 150.245 130.996C151.834 128.23 151.834 124.893 150.245 122.126L88.1492 14.0037C86.5599 11.2372 83.6935 9.55448 80.515 9.55448C77.308 9.55448 74.4416 11.2087 72.8523 14.0037Z" fill="#F3723A"/>
<path d="M80.5141 39.1309C87.3821 39.1309 92.7459 45.1773 91.9229 52.0508L86.8713 94.4328C86.4739 97.6842 83.7495 100.137 80.4857 100.137C77.222 100.137 74.4692 97.6842 74.1002 94.4328L69.1337 52.0223C68.3107 45.1773 73.6462 39.1309 80.5141 39.1309Z" fill="#F3723A"/>
<path d="M74.0154 120.729C72.2558 118.961 71.3477 116.764 71.3477 114.198C71.3477 111.631 72.2274 109.435 74.0154 107.666C75.7749 105.898 77.9602 104.985 80.5144 104.985C83.0686 104.985 85.2539 105.869 87.0134 107.666C88.773 109.435 89.6812 111.631 89.6812 114.198C89.6812 116.764 88.8014 118.961 87.0134 120.729C85.2539 122.497 83.0686 123.41 80.5144 123.41C77.9602 123.41 75.8033 122.526 74.0154 120.729Z" fill="#F3723A"/>
</g>
<defs>
<clipPath id="clip0">
<rect width="161" height="145" fill="white"/>
</clipPath>
</defs>
</svg>
