<svg width="516" height="402" viewBox="0 0 516 402" fill="none" xmlns="http://www.w3.org/2000/svg">
<path d="M48 21L45.3995 17L43 21L48 21Z" fill="#E6551F"/>
<path d="M32 390L253 390L253 115L32 115L32 390Z" fill="white" stroke="#6F6F6E" stroke-width="0.5" stroke-miterlimit="10"/>
<path d="M248 119H37V385H248V119Z" fill="#F8F7F7" stroke="black" stroke-width="0.75" stroke-miterlimit="10"/>
<path d="M40.8406 108C48.4897 108 54.6812 114.197 54.6812 121.853C54.6812 129.509 48.4897 135.707 40.8406 135.707C33.1915 135.707 27 129.509 27 121.853C27 114.197 33.1915 108 40.8406 108Z" stroke="#E25D23" stroke-width="2.0001" stroke-miterlimit="22.9256"/>
<path d="M41 85V107.5" stroke="#E25D23" stroke-width="2.0001" stroke-miterlimit="22.9256"/>
<line x1="41" y1="277.5" x2="49" y2="277.5" stroke="#E25D23"/>
<path d="M50 262.894L50 270.244L49.118 270.244L45.562 266.072C45.114 265.549 44.736 265.171 44.428 264.938C44.1107 264.705 43.7653 264.588 43.392 264.588C42.8787 264.588 42.4773 264.775 42.188 265.148C41.8893 265.512 41.7353 265.965 41.726 266.506L41.726 266.618C41.726 267.477 42.1273 268.293 42.93 269.068L42.02 270.048C40.872 269.031 40.298 267.845 40.298 266.492L40.298 266.366C40.3073 265.377 40.5827 264.583 41.124 263.986C41.6653 263.389 42.3233 263.09 43.098 263.09C43.742 263.09 44.3393 263.291 44.89 263.692C45.4407 264.084 46.0753 264.723 46.794 265.61L48.586 267.654L48.586 262.894L50 262.894ZM41.74 259.817C40.7787 258.856 40.298 257.698 40.298 256.345C40.298 254.992 40.7787 253.839 41.74 252.887C42.692 251.926 43.8447 251.445 45.198 251.445C46.5513 251.445 47.7087 251.926 48.67 252.887C49.622 253.839 50.098 254.992 50.098 256.345C50.098 257.698 49.622 258.856 48.67 259.817C47.7087 260.769 46.5513 261.245 45.198 261.245C43.8447 261.245 42.692 260.769 41.74 259.817ZM42.72 253.937C42.0573 254.59 41.726 255.393 41.726 256.345C41.726 257.297 42.0573 258.1 42.72 258.753C43.3733 259.397 44.1993 259.719 45.198 259.719C46.206 259.719 47.0367 259.397 47.69 258.753C48.3433 258.1 48.67 257.297 48.67 256.345C48.67 255.393 48.3433 254.59 47.69 253.937C47.0367 253.284 46.206 252.957 45.198 252.957C44.1993 252.957 43.3733 253.284 42.72 253.937ZM50 237.371L50 238.771L45.296 238.771L47.886 241.039L45.296 243.307L50 243.307L50 244.707L43 244.707L43 243.825L46.192 241.039L43 238.253L43 237.371L50 237.371ZM50 227.541L50 228.941L45.296 228.941L47.886 231.209L45.296 233.477L50 233.477L50 234.877L43 234.877L43 233.995L46.192 231.209L43 228.423L43 227.541L50 227.541Z" fill="#E25D23"/>
<path d="M49 280L53 277.399L49 275L49 280Z" fill="#E6551F"/>
<path d="M42 280L38 277.399L42 275L42 280Z" fill="#E6551F"/>
<line x1="235" y1="277.5" x2="243" y2="277.5" stroke="#E25D23"/>
<path d="M244 262.894L244 270.244L243.118 270.244L239.562 266.072C239.114 265.549 238.736 265.171 238.428 264.938C238.111 264.705 237.765 264.588 237.392 264.588C236.879 264.588 236.477 264.775 236.188 265.148C235.889 265.512 235.735 265.965 235.726 266.506L235.726 266.618C235.726 267.477 236.127 268.293 236.93 269.068L236.02 270.048C234.872 269.031 234.298 267.845 234.298 266.492L234.298 266.366C234.307 265.377 234.583 264.583 235.124 263.986C235.665 263.389 236.323 263.09 237.098 263.09C237.742 263.09 238.339 263.291 238.89 263.692C239.441 264.084 240.075 264.723 240.794 265.61L242.586 267.654L242.586 262.894L244 262.894ZM235.74 259.817C234.779 258.856 234.298 257.698 234.298 256.345C234.298 254.992 234.779 253.839 235.74 252.887C236.692 251.926 237.845 251.445 239.198 251.445C240.551 251.445 241.709 251.926 242.67 252.887C243.622 253.839 244.098 254.992 244.098 256.345C244.098 257.698 243.622 258.856 242.67 259.817C241.709 260.769 240.551 261.245 239.198 261.245C237.845 261.245 236.692 260.769 235.74 259.817ZM236.72 253.937C236.057 254.59 235.726 255.393 235.726 256.345C235.726 257.297 236.057 258.1 236.72 258.753C237.373 259.397 238.199 259.719 239.198 259.719C240.206 259.719 241.037 259.397 241.69 258.753C242.343 258.1 242.67 257.297 242.67 256.345C242.67 255.393 242.343 254.59 241.69 253.937C241.037 253.284 240.206 252.957 239.198 252.957C238.199 252.957 237.373 253.284 236.72 253.937ZM244 237.371L244 238.771L239.296 238.771L241.886 241.039L239.296 243.307L244 243.307L244 244.707L237 244.707L237 243.825L240.192 241.039L237 238.253L237 237.371L244 237.371ZM244 227.541L244 228.941L239.296 228.941L241.886 231.209L239.296 233.477L244 233.477L244 234.877L237 234.877L237 233.995L240.192 231.209L237 228.423L237 227.541L244 227.541Z" fill="#E25D23"/>
<path d="M243 280L247 277.399L243 275L243 280Z" fill="#E6551F"/>
<path d="M236 280L232 277.399L236 275L236 280Z" fill="#E6551F"/>
<line x1="117.5" y1="374" x2="117.5" y2="381" stroke="#E25D23"/>
<path d="M132.106 382L124.756 382L124.756 381.118L128.928 377.562C129.451 377.114 129.829 376.736 130.062 376.428C130.295 376.111 130.412 375.765 130.412 375.392C130.412 374.879 130.225 374.477 129.852 374.188C129.488 373.889 129.035 373.735 128.494 373.726L128.382 373.726C127.523 373.726 126.707 374.127 125.932 374.93L124.952 374.02C125.969 372.872 127.155 372.298 128.508 372.298L128.634 372.298C129.623 372.307 130.417 372.583 131.014 373.124C131.611 373.665 131.91 374.323 131.91 375.098C131.91 375.742 131.709 376.339 131.308 376.89C130.916 377.441 130.277 378.075 129.39 378.794L127.346 380.586L132.106 380.586L132.106 382ZM135.183 373.74C136.144 372.779 137.302 372.298 138.655 372.298C140.008 372.298 141.161 372.779 142.113 373.74C143.074 374.692 143.555 375.845 143.555 377.198C143.555 378.551 143.074 379.709 142.113 380.67C141.161 381.622 140.008 382.098 138.655 382.098C137.302 382.098 136.144 381.622 135.183 380.67C134.231 379.709 133.755 378.551 133.755 377.198C133.755 375.845 134.231 374.692 135.183 373.74ZM141.063 374.72C140.41 374.057 139.607 373.726 138.655 373.726C137.703 373.726 136.9 374.057 136.247 374.72C135.603 375.373 135.281 376.199 135.281 377.198C135.281 378.206 135.603 379.037 136.247 379.69C136.9 380.343 137.703 380.67 138.655 380.67C139.607 380.67 140.41 380.343 141.063 379.69C141.716 379.037 142.043 378.206 142.043 377.198C142.043 376.199 141.716 375.373 141.063 374.72ZM157.629 382L156.229 382L156.229 377.296L153.961 379.886L151.693 377.296L151.693 382L150.293 382L150.293 375L151.175 375L153.961 378.192L156.747 375L157.629 375L157.629 382ZM167.459 382L166.059 382L166.059 377.296L163.791 379.886L161.523 377.296L161.523 382L160.123 382L160.123 375L161.005 375L163.791 378.192L166.577 375L167.459 375L167.459 382Z" fill="#E25D23"/>
<path d="M115 380L117.601 384L120 380L115 380Z" fill="#E6551F"/>
<path d="M115 375L117.601 371L120 375H115Z" fill="#E6551F"/>
<line x1="117.5" y1="123" x2="117.5" y2="130" stroke="#E25D23"/>
<path d="M132.106 131L124.756 131L124.756 130.118L128.928 126.562C129.451 126.114 129.829 125.736 130.062 125.428C130.295 125.111 130.412 124.765 130.412 124.392C130.412 123.879 130.225 123.477 129.852 123.188C129.488 122.889 129.035 122.735 128.494 122.726L128.382 122.726C127.523 122.726 126.707 123.127 125.932 123.93L124.952 123.02C125.969 121.872 127.155 121.298 128.508 121.298L128.634 121.298C129.623 121.307 130.417 121.583 131.014 122.124C131.611 122.665 131.91 123.323 131.91 124.098C131.91 124.742 131.709 125.339 131.308 125.89C130.916 126.441 130.277 127.075 129.39 127.794L127.346 129.586L132.106 129.586L132.106 131ZM135.183 122.74C136.144 121.779 137.302 121.298 138.655 121.298C140.008 121.298 141.161 121.779 142.113 122.74C143.074 123.692 143.555 124.845 143.555 126.198C143.555 127.551 143.074 128.709 142.113 129.67C141.161 130.622 140.008 131.098 138.655 131.098C137.302 131.098 136.144 130.622 135.183 129.67C134.231 128.709 133.755 127.551 133.755 126.198C133.755 124.845 134.231 123.692 135.183 122.74ZM141.063 123.72C140.41 123.057 139.607 122.726 138.655 122.726C137.703 122.726 136.9 123.057 136.247 123.72C135.603 124.373 135.281 125.199 135.281 126.198C135.281 127.206 135.603 128.037 136.247 128.69C136.9 129.343 137.703 129.67 138.655 129.67C139.607 129.67 140.41 129.343 141.063 128.69C141.716 128.037 142.043 127.206 142.043 126.198C142.043 125.199 141.716 124.373 141.063 123.72ZM157.629 131L156.229 131L156.229 126.296L153.961 128.886L151.693 126.296L151.693 131L150.293 131L150.293 124L151.175 124L153.961 127.192L156.747 124L157.629 124L157.629 131ZM167.459 131L166.059 131L166.059 126.296L163.791 128.886L161.523 126.296L161.523 131L160.123 131L160.123 124L161.005 124L163.791 127.192L166.577 124L167.459 124L167.459 131Z" fill="#E25D23"/>
<path d="M115 129L117.601 133L120 129L115 129Z" fill="#E6551F"/>
<path d="M115 124L117.601 120L120 124L115 124Z" fill="#E6551F"/>
<path d="M231.589 134.626H54.2578V369.803H231.589V134.626Z" fill="white" stroke="black" stroke-width="2" stroke-miterlimit="10"/>
<path d="M209.297 141H62.2969V362H209.297V141Z" fill="white"/>
<path d="M210 359V362H207" stroke="#77569F" stroke-width="0.75" stroke-miterlimit="10"/>
<path d="M205 362L68 362" stroke="#77569F" stroke-width="0.75" stroke-miterlimit="10" stroke-dasharray="2.98 2.98"/>
<path d="M66 362H63V359" stroke="#77569F" stroke-width="0.75" stroke-miterlimit="10"/>
<path d="M63 357V147" stroke="#77569F" stroke-miterlimit="10" stroke-dasharray="2.99 2.99"/>
<path d="M62.5938 143.769V141H65.3645" stroke="#77569F" stroke-width="0.75" stroke-miterlimit="10"/>
<path d="M71.2969 141H203.297" stroke="#77569F" stroke-miterlimit="10" stroke-dasharray="2.98 2.98"/>
<path d="M206.297 141H209.297V144" stroke="#77569F" stroke-width="0.75" stroke-miterlimit="10"/>
<path d="M210 146L210 356" stroke="#77569F" stroke-miterlimit="10" stroke-dasharray="2.99 2.99"/>
<path d="M216 100L216 370" stroke="#E65420" stroke-miterlimit="10" stroke-dasharray="2.96 2.96"/>
<path d="M232 100L232 370" stroke="#E65420" stroke-miterlimit="10" stroke-dasharray="2.96 2.96"/>
<path d="M223.369 231.05C225.593 231.05 227.396 229.248 227.396 227.025C227.396 224.802 225.593 223 223.369 223C221.145 223 219.342 224.802 219.342 227.025C219.342 229.248 221.145 231.05 223.369 231.05Z" fill="#2B2A29"/>
<path d="M223.369 280.498C225.593 280.498 227.396 278.696 227.396 276.473C227.396 274.25 225.593 272.448 223.369 272.448C221.145 272.448 219.342 274.25 219.342 276.473C219.342 278.696 221.145 280.498 223.369 280.498Z" fill="#2B2A29"/>
<path d="M259 390L479 390L479 115L259 115L259 390Z" fill="white" stroke="#6F6F6E" stroke-width="0.5" stroke-miterlimit="10"/>
<path d="M264 385L474 385L474 119L264 119L264 385Z" fill="#F8F7F7" stroke="black" stroke-width="0.75" stroke-miterlimit="10"/>
<line x1="344.5" y1="123" x2="344.5" y2="130" stroke="#E25D23"/>
<path d="M359.106 131L351.756 131L351.756 130.118L355.928 126.562C356.451 126.114 356.829 125.736 357.062 125.428C357.295 125.111 357.412 124.765 357.412 124.392C357.412 123.879 357.225 123.477 356.852 123.188C356.488 122.889 356.035 122.735 355.494 122.726L355.382 122.726C354.523 122.726 353.707 123.127 352.932 123.93L351.952 123.02C352.969 121.872 354.155 121.298 355.508 121.298L355.634 121.298C356.623 121.307 357.417 121.583 358.014 122.124C358.611 122.665 358.91 123.323 358.91 124.098C358.91 124.742 358.709 125.339 358.308 125.89C357.916 126.441 357.277 127.075 356.39 127.794L354.346 129.586L359.106 129.586L359.106 131ZM362.183 122.74C363.144 121.779 364.302 121.298 365.655 121.298C367.008 121.298 368.161 121.779 369.113 122.74C370.074 123.692 370.555 124.845 370.555 126.198C370.555 127.551 370.074 128.709 369.113 129.67C368.161 130.622 367.008 131.098 365.655 131.098C364.302 131.098 363.144 130.622 362.183 129.67C361.231 128.709 360.755 127.551 360.755 126.198C360.755 124.845 361.231 123.692 362.183 122.74ZM368.063 123.72C367.41 123.057 366.607 122.726 365.655 122.726C364.703 122.726 363.9 123.057 363.247 123.72C362.603 124.373 362.281 125.199 362.281 126.198C362.281 127.206 362.603 128.037 363.247 128.69C363.9 129.343 364.703 129.67 365.655 129.67C366.607 129.67 367.41 129.343 368.063 128.69C368.716 128.037 369.043 127.206 369.043 126.198C369.043 125.199 368.716 124.373 368.063 123.72ZM384.629 131L383.229 131L383.229 126.296L380.961 128.886L378.693 126.296L378.693 131L377.293 131L377.293 124L378.175 124L380.961 127.192L383.747 124L384.629 124L384.629 131ZM394.459 131L393.059 131L393.059 126.296L390.791 128.886L388.523 126.296L388.523 131L387.123 131L387.123 124L388.005 124L390.791 127.192L393.577 124L394.459 124L394.459 131Z" fill="#E25D23"/>
<path d="M342 129L344.601 133L347 129L342 129Z" fill="#E6551F"/>
<path d="M342 124L344.601 120L347 124L342 124Z" fill="#E6551F"/>
<line x1="344.5" y1="374" x2="344.5" y2="381" stroke="#E25D23"/>
<path d="M359.106 382L351.756 382L351.756 381.118L355.928 377.562C356.451 377.114 356.829 376.736 357.062 376.428C357.295 376.111 357.412 375.765 357.412 375.392C357.412 374.879 357.225 374.477 356.852 374.188C356.488 373.889 356.035 373.735 355.494 373.726L355.382 373.726C354.523 373.726 353.707 374.127 352.932 374.93L351.952 374.02C352.969 372.872 354.155 372.298 355.508 372.298L355.634 372.298C356.623 372.307 357.417 372.583 358.014 373.124C358.611 373.665 358.91 374.323 358.91 375.098C358.91 375.742 358.709 376.339 358.308 376.89C357.916 377.441 357.277 378.075 356.39 378.794L354.346 380.586L359.106 380.586L359.106 382ZM362.183 373.74C363.144 372.779 364.302 372.298 365.655 372.298C367.008 372.298 368.161 372.779 369.113 373.74C370.074 374.692 370.555 375.845 370.555 377.198C370.555 378.551 370.074 379.709 369.113 380.67C368.161 381.622 367.008 382.098 365.655 382.098C364.302 382.098 363.144 381.622 362.183 380.67C361.231 379.709 360.755 378.551 360.755 377.198C360.755 375.845 361.231 374.692 362.183 373.74ZM368.063 374.72C367.41 374.057 366.607 373.726 365.655 373.726C364.703 373.726 363.9 374.057 363.247 374.72C362.603 375.373 362.281 376.199 362.281 377.198C362.281 378.206 362.603 379.037 363.247 379.69C363.9 380.343 364.703 380.67 365.655 380.67C366.607 380.67 367.41 380.343 368.063 379.69C368.716 379.037 369.043 378.206 369.043 377.198C369.043 376.199 368.716 375.373 368.063 374.72ZM384.629 382L383.229 382L383.229 377.296L380.961 379.886L378.693 377.296L378.693 382L377.293 382L377.293 375L378.175 375L380.961 378.192L383.747 375L384.629 375L384.629 382ZM394.459 382L393.059 382L393.059 377.296L390.791 379.886L388.523 377.296L388.523 382L387.123 382L387.123 375L388.005 375L390.791 378.192L393.577 375L394.459 375L394.459 382Z" fill="#E25D23"/>
<path d="M342 380L344.601 384L347 380L342 380Z" fill="#E6551F"/>
<path d="M342 375L344.601 371L347 375H342Z" fill="#E6551F"/>
<path d="M279.698 369.816L457.029 369.816L457.029 134.64L279.698 134.64L279.698 369.816Z" fill="white" stroke="black" stroke-width="2" stroke-miterlimit="10"/>
<path d="M449 141H302V362H449V141Z" fill="white"/>
<path d="M302 359V362H305" stroke="#77569F" stroke-miterlimit="10"/>
<path d="M307 362L442 362" stroke="#77569F" stroke-miterlimit="10" stroke-dasharray="2.98 2.98"/>
<path d="M445.932 361.592H448.702V358.822" stroke="#77569F" stroke-miterlimit="10"/>
<path d="M448.703 353.32V146.521" stroke="#77569F" stroke-miterlimit="10" stroke-dasharray="2.99 2.99"/>
<path d="M448.702 143.769V141H445.932" stroke="#77569F" stroke-miterlimit="10"/>
<path d="M440 141H308" stroke="#77569F" stroke-miterlimit="10" stroke-dasharray="2.98 2.98"/>
<path d="M305 141H302V144" stroke="#77569F" stroke-miterlimit="10"/>
<path d="M302 149.289V356.07" stroke="#77569F" stroke-miterlimit="10" stroke-dasharray="2.99 2.99"/>
<path d="M295 135L295 370" stroke="#E65420" stroke-miterlimit="10" stroke-dasharray="3.01 3.01"/>
<path d="M280 135L280 370" stroke="#E65420" stroke-miterlimit="10" stroke-dasharray="3.01 3.01"/>
<path d="M287.927 230.05C290.151 230.05 291.954 228.248 291.954 226.025C291.954 223.802 290.151 222 287.927 222C285.703 222 283.9 223.802 283.9 226.025C283.9 228.248 285.703 230.05 287.927 230.05Z" fill="#2B2A29"/>
<path d="M287.927 279.498C290.151 279.498 291.954 277.696 291.954 275.473C291.954 273.25 290.151 271.448 287.927 271.448C285.703 271.448 283.9 273.25 283.9 275.473C283.9 277.696 285.703 279.498 287.927 279.498Z" fill="#2B2A29"/>
<path d="M105.64 245H103.768V238.064C103.368 239.008 102.736 239.728 101.872 240.224C101.024 240.72 100.064 240.968 98.9925 240.968C97.1685 240.968 95.6805 240.424 94.5285 239.336C93.3925 238.232 92.8245 236.496 92.8245 234.128V228.2H94.6965V234.2C94.6965 237.544 96.2165 239.216 99.2565 239.216C100.504 239.216 101.568 238.8 102.448 237.968C103.328 237.12 103.768 235.848 103.768 234.152V228.2H105.64V245ZM115.963 232.832C117.259 232.832 118.371 233.144 119.299 233.768C120.227 234.392 120.915 235.248 121.363 236.336C121.555 236.8 121.667 237.336 121.699 237.944C121.747 238.552 121.707 239.04 121.579 239.408H111.643C111.643 240.672 112.059 241.68 112.891 242.432C113.739 243.168 114.827 243.544 116.155 243.56C117.675 243.56 119.059 243.128 120.307 242.264L121.243 243.32C119.691 244.536 117.995 245.144 116.155 245.144C114.299 245.128 112.787 244.552 111.619 243.416C110.451 242.28 109.867 240.808 109.867 239C109.867 237.256 110.427 235.792 111.547 234.608C112.683 233.424 114.155 232.832 115.963 232.832ZM115.963 234.44C114.779 234.44 113.787 234.808 112.987 235.544C112.203 236.28 111.779 237.176 111.715 238.232H119.995C120.027 237.816 119.939 237.36 119.731 236.864C119.427 236.128 118.947 235.544 118.291 235.112C117.635 234.664 116.859 234.44 115.963 234.44ZM129.988 234.656V245H128.236V234.656H123.844V233H134.38V234.656H129.988ZM148.366 245H146.614V239.792H139.246V245H137.494V233H139.246V238.112H146.614V233H148.366V245ZM164.294 245H163.046L162.974 242.288C162.51 243.152 161.846 243.848 160.982 244.376C160.118 244.888 159.158 245.144 158.102 245.144C156.406 245.144 154.982 244.552 153.83 243.368C152.678 242.168 152.102 240.712 152.102 239C152.102 237.288 152.678 235.832 153.83 234.632C154.982 233.432 156.406 232.832 158.102 232.832C159.142 232.832 160.094 233.096 160.958 233.624C161.838 234.136 162.51 234.824 162.974 235.688L163.046 233H164.294V245ZM155.102 242.192C155.966 243.04 157.006 243.464 158.222 243.464C159.438 243.464 160.478 243.04 161.342 242.192C162.206 241.344 162.638 240.28 162.638 239C162.638 237.72 162.206 236.656 161.342 235.808C160.478 234.944 159.438 234.512 158.222 234.512C157.022 234.512 155.99 234.944 155.126 235.808C154.262 236.656 153.83 237.72 153.83 239C153.83 240.28 154.254 241.344 155.102 242.192ZM178.551 245H176.823V241.088H173.895C173.159 241.104 172.607 241.264 172.239 241.568C171.871 241.872 171.383 242.496 170.775 243.44L169.719 245H167.799L169.071 243.104C169.103 243.056 169.183 242.936 169.311 242.744C169.455 242.536 169.535 242.408 169.551 242.36C169.583 242.312 169.655 242.208 169.767 242.048C169.879 241.888 169.959 241.784 170.007 241.736C170.055 241.688 170.127 241.608 170.223 241.496C170.319 241.368 170.399 241.28 170.463 241.232C170.527 241.168 170.599 241.096 170.679 241.016C170.775 240.936 170.871 240.872 170.967 240.824C170.023 240.616 169.279 240.176 168.735 239.504C168.191 238.816 167.919 238.032 167.919 237.152C167.919 235.968 168.335 234.984 169.167 234.2C169.999 233.4 171.239 233 172.887 233H178.551V245ZM176.823 234.68H172.719C171.743 234.68 170.983 234.904 170.439 235.352C169.911 235.784 169.647 236.384 169.647 237.152C169.647 237.904 169.911 238.504 170.439 238.952C170.983 239.384 171.743 239.6 172.719 239.6H176.823V234.68Z" fill="#2B2A29"/>
<path d="M73.3752 260.552C75.0392 258.872 77.0552 258.032 79.4232 258.032C81.7912 258.032 83.8072 258.872 85.4712 260.552C87.1512 262.216 87.9912 264.232 87.9912 266.6C87.9912 268.968 87.1512 270.992 85.4712 272.672C83.8072 274.336 81.7912 275.168 79.4232 275.168C77.0552 275.168 75.0392 274.336 73.3752 272.672C71.7112 270.992 70.8792 268.968 70.8792 266.6C70.8792 264.232 71.7112 262.216 73.3752 260.552ZM83.6712 262.232C82.5192 261.064 81.1032 260.48 79.4232 260.48C77.7432 260.48 76.3272 261.064 75.1752 262.232C74.0392 263.384 73.4712 264.84 73.4712 266.6C73.4712 268.376 74.0392 269.84 75.1752 270.992C76.3272 272.144 77.7432 272.72 79.4232 272.72C81.1032 272.72 82.5192 272.144 83.6712 270.992C84.8232 269.84 85.3992 268.376 85.3992 266.6C85.3992 264.84 84.8232 263.384 83.6712 262.232ZM94.7314 264.608H99.2674C101.139 264.608 102.555 265.072 103.515 266C104.475 266.928 104.955 268.2 104.955 269.816C104.955 271.448 104.483 272.72 103.539 273.632C102.611 274.544 101.187 275 99.2674 275H92.1394V258.2H103.083V260.648H94.7314V264.608ZM94.7314 272.552H99.3154C100.451 272.552 101.267 272.32 101.763 271.856C102.259 271.392 102.507 270.712 102.507 269.816C102.507 267.976 101.443 267.056 99.3154 267.056H94.7314V272.552ZM114.595 262.976L109.795 275H106.939L113.875 258.2H115.387L122.251 275H119.395L114.595 262.976ZM126.461 260.552C128.125 258.872 130.141 258.032 132.509 258.032C134.877 258.032 136.893 258.872 138.557 260.552C140.237 262.216 141.077 264.232 141.077 266.6C141.077 268.968 140.237 270.992 138.557 272.672C136.893 274.336 134.877 275.168 132.509 275.168C130.141 275.168 128.125 274.336 126.461 272.672C124.797 270.992 123.965 268.968 123.965 266.6C123.965 264.232 124.797 262.216 126.461 260.552ZM136.757 262.232C135.605 261.064 134.189 260.48 132.509 260.48C130.829 260.48 129.413 261.064 128.261 262.232C127.125 263.384 126.557 264.84 126.557 266.6C126.557 268.376 127.125 269.84 128.261 270.992C129.413 272.144 130.829 272.72 132.509 272.72C134.189 272.72 135.605 272.144 136.757 270.992C137.909 269.84 138.485 268.376 138.485 266.6C138.485 264.84 137.909 263.384 136.757 262.232ZM163.606 275L160.15 269.624C159.654 268.856 159.238 268.352 158.902 268.112C158.582 267.856 158.078 267.728 157.39 267.728H155.95V275H153.358V267.728H151.942C151.254 267.728 150.742 267.856 150.406 268.112C150.086 268.352 149.678 268.856 149.182 269.624L145.726 275H142.798L146.782 268.808C147.278 268.024 147.686 267.464 148.006 267.128C148.342 266.776 148.694 266.536 149.062 266.408C148.486 266.104 147.79 265.344 146.974 264.128L143.134 258.2H146.086L149.35 263.312C149.862 264.08 150.286 264.592 150.622 264.848C150.958 265.104 151.462 265.232 152.134 265.232H153.358V258.2H155.95V265.232H157.198C157.87 265.232 158.374 265.104 158.71 264.848C159.046 264.592 159.47 264.08 159.982 263.312L163.246 258.2H166.198L162.358 264.128C161.542 265.344 160.846 266.104 160.27 266.408C160.638 266.536 160.982 266.776 161.302 267.128C161.638 267.464 162.054 268.024 162.55 268.808L166.534 275H163.606ZM181.177 275L177.721 269.648C177.225 268.88 176.809 268.368 176.473 268.112C176.153 267.856 175.649 267.728 174.961 267.728H172.825V275H170.233V258.2H172.825V265.232H174.769C175.441 265.232 175.945 265.104 176.281 264.848C176.617 264.592 177.041 264.08 177.553 263.312L180.817 258.2H183.769L179.953 264.128C179.089 265.36 178.385 266.12 177.841 266.408C178.209 266.536 178.553 266.776 178.873 267.128C179.209 267.464 179.625 268.024 180.121 268.808L184.105 275H181.177ZM190.643 271.232L189.107 275H186.251L193.187 258.2H194.699L201.563 275H198.707L197.195 271.232H190.643ZM193.931 262.928L191.555 268.784H196.307L193.931 262.928Z" fill="#E25D23"/>
<path d="M326.266 245H324.394V237.368H315.442V245H313.57V228.2H315.442V235.616H324.394V228.2H326.266V245ZM336.167 232.832C337.463 232.832 338.575 233.144 339.503 233.768C340.431 234.392 341.119 235.248 341.567 236.336C341.759 236.8 341.871 237.336 341.903 237.944C341.951 238.552 341.911 239.04 341.783 239.408H331.847C331.847 240.672 332.263 241.68 333.095 242.432C333.943 243.168 335.031 243.544 336.359 243.56C337.879 243.56 339.263 243.128 340.511 242.264L341.447 243.32C339.895 244.536 338.199 245.144 336.359 245.144C334.503 245.128 332.991 244.552 331.823 243.416C330.655 242.28 330.071 240.808 330.071 239C330.071 237.256 330.631 235.792 331.751 234.608C332.887 233.424 334.359 232.832 336.167 232.832ZM336.167 234.44C334.983 234.44 333.991 234.808 333.191 235.544C332.407 236.28 331.983 237.176 331.919 238.232H340.199C340.231 237.816 340.143 237.36 339.935 236.864C339.631 236.128 339.151 235.544 338.495 235.112C337.839 234.664 337.063 234.44 336.167 234.44ZM364.497 245H362.769V240.272C361.953 241.648 360.585 242.336 358.665 242.336C355.049 242.336 353.241 240.328 353.241 236.312V233H354.993V236.216C354.993 237.736 355.281 238.864 355.857 239.6C356.449 240.32 357.465 240.68 358.905 240.68C360.281 240.68 361.265 240.304 361.857 239.552C362.465 238.8 362.769 237.832 362.769 236.648V233H364.497V245ZM374.346 232.832C375.642 232.832 376.754 233.144 377.682 233.768C378.61 234.392 379.298 235.248 379.746 236.336C379.938 236.8 380.05 237.336 380.082 237.944C380.13 238.552 380.09 239.04 379.962 239.408H370.026C370.026 240.672 370.442 241.68 371.274 242.432C372.122 243.168 373.21 243.544 374.538 243.56C376.058 243.56 377.442 243.128 378.69 242.264L379.626 243.32C378.074 244.536 376.378 245.144 374.538 245.144C372.682 245.128 371.17 244.552 370.002 243.416C368.834 242.28 368.25 240.808 368.25 239C368.25 237.256 368.81 235.792 369.93 234.608C371.066 233.424 372.538 232.832 374.346 232.832ZM374.346 234.44C373.162 234.44 372.17 234.808 371.37 235.544C370.586 236.28 370.162 237.176 370.098 238.232H378.378C378.41 237.816 378.322 237.36 378.114 236.864C377.81 236.128 377.33 235.544 376.674 235.112C376.018 234.664 375.242 234.44 374.346 234.44ZM388.371 234.656V245H386.619V234.656H382.227V233H392.763V234.656H388.371ZM406.749 245H404.997V239.792H397.629V245H395.877V233H397.629V238.112H404.997V233H406.749V245ZM422.677 245H421.429L421.357 242.288C420.893 243.152 420.229 243.848 419.365 244.376C418.501 244.888 417.541 245.144 416.485 245.144C414.789 245.144 413.365 244.552 412.213 243.368C411.061 242.168 410.485 240.712 410.485 239C410.485 237.288 411.061 235.832 412.213 234.632C413.365 233.432 414.789 232.832 416.485 232.832C417.525 232.832 418.477 233.096 419.341 233.624C420.221 234.136 420.893 234.824 421.357 235.688L421.429 233H422.677V245ZM413.485 242.192C414.349 243.04 415.389 243.464 416.605 243.464C417.821 243.464 418.861 243.04 419.725 242.192C420.589 241.344 421.021 240.28 421.021 239C421.021 237.72 420.589 236.656 419.725 235.808C418.861 234.944 417.821 234.512 416.605 234.512C415.405 234.512 414.373 234.944 413.509 235.808C412.645 236.656 412.213 237.72 412.213 239C412.213 240.28 412.637 241.344 413.485 242.192ZM436.934 245H435.206V241.088H432.278C431.542 241.104 430.99 241.264 430.622 241.568C430.254 241.872 429.766 242.496 429.158 243.44L428.102 245H426.182L427.454 243.104C427.486 243.056 427.566 242.936 427.694 242.744C427.838 242.536 427.918 242.408 427.934 242.36C427.966 242.312 428.038 242.208 428.15 242.048C428.262 241.888 428.342 241.784 428.39 241.736C428.438 241.688 428.51 241.608 428.606 241.496C428.702 241.368 428.782 241.28 428.846 241.232C428.91 241.168 428.982 241.096 429.062 241.016C429.158 240.936 429.254 240.872 429.35 240.824C428.406 240.616 427.662 240.176 427.118 239.504C426.574 238.816 426.302 238.032 426.302 237.152C426.302 235.968 426.718 234.984 427.55 234.2C428.382 233.4 429.622 233 431.27 233H436.934V245ZM435.206 234.68H431.102C430.126 234.68 429.366 234.904 428.822 235.352C428.294 235.784 428.03 236.384 428.03 237.152C428.03 237.904 428.294 238.504 428.822 238.952C429.366 239.384 430.126 239.6 431.102 239.6H435.206V234.68Z" fill="#2B2A29"/>
<path d="M312.375 260.552C314.039 258.872 316.055 258.032 318.423 258.032C320.791 258.032 322.807 258.872 324.471 260.552C326.151 262.216 326.991 264.232 326.991 266.6C326.991 268.968 326.151 270.992 324.471 272.672C322.807 274.336 320.791 275.168 318.423 275.168C316.055 275.168 314.039 274.336 312.375 272.672C310.711 270.992 309.879 268.968 309.879 266.6C309.879 264.232 310.711 262.216 312.375 260.552ZM322.671 262.232C321.519 261.064 320.103 260.48 318.423 260.48C316.743 260.48 315.327 261.064 314.175 262.232C313.039 263.384 312.471 264.84 312.471 266.6C312.471 268.376 313.039 269.84 314.175 270.992C315.327 272.144 316.743 272.72 318.423 272.72C320.103 272.72 321.519 272.144 322.671 270.992C323.823 269.84 324.399 268.376 324.399 266.6C324.399 264.84 323.823 263.384 322.671 262.232ZM333.731 264.608H338.267C340.139 264.608 341.555 265.072 342.515 266C343.475 266.928 343.955 268.2 343.955 269.816C343.955 271.448 343.483 272.72 342.539 273.632C341.611 274.544 340.187 275 338.267 275H331.139V258.2H342.083V260.648H333.731V264.608ZM333.731 272.552H338.315C339.451 272.552 340.267 272.32 340.763 271.856C341.259 271.392 341.507 270.712 341.507 269.816C341.507 267.976 340.443 267.056 338.315 267.056H333.731V272.552ZM353.595 262.976L348.795 275H345.939L352.875 258.2H354.387L361.251 275H358.395L353.595 262.976ZM365.461 260.552C367.125 258.872 369.141 258.032 371.509 258.032C373.877 258.032 375.893 258.872 377.557 260.552C379.237 262.216 380.077 264.232 380.077 266.6C380.077 268.968 379.237 270.992 377.557 272.672C375.893 274.336 373.877 275.168 371.509 275.168C369.141 275.168 367.125 274.336 365.461 272.672C363.797 270.992 362.965 268.968 362.965 266.6C362.965 264.232 363.797 262.216 365.461 260.552ZM375.757 262.232C374.605 261.064 373.189 260.48 371.509 260.48C369.829 260.48 368.413 261.064 367.261 262.232C366.125 263.384 365.557 264.84 365.557 266.6C365.557 268.376 366.125 269.84 367.261 270.992C368.413 272.144 369.829 272.72 371.509 272.72C373.189 272.72 374.605 272.144 375.757 270.992C376.909 269.84 377.485 268.376 377.485 266.6C377.485 264.84 376.909 263.384 375.757 262.232ZM402.606 275L399.15 269.624C398.654 268.856 398.238 268.352 397.902 268.112C397.582 267.856 397.078 267.728 396.39 267.728H394.95V275H392.358V267.728H390.942C390.254 267.728 389.742 267.856 389.406 268.112C389.086 268.352 388.678 268.856 388.182 269.624L384.726 275H381.798L385.782 268.808C386.278 268.024 386.686 267.464 387.006 267.128C387.342 266.776 387.694 266.536 388.062 266.408C387.486 266.104 386.79 265.344 385.974 264.128L382.134 258.2H385.086L388.35 263.312C388.862 264.08 389.286 264.592 389.622 264.848C389.958 265.104 390.462 265.232 391.134 265.232H392.358V258.2H394.95V265.232H396.198C396.87 265.232 397.374 265.104 397.71 264.848C398.046 264.592 398.47 264.08 398.982 263.312L402.246 258.2H405.198L401.358 264.128C400.542 265.344 399.846 266.104 399.27 266.408C399.638 266.536 399.982 266.776 400.302 267.128C400.638 267.464 401.054 268.024 401.55 268.808L405.534 275H402.606ZM420.177 275L416.721 269.648C416.225 268.88 415.809 268.368 415.473 268.112C415.153 267.856 414.649 267.728 413.961 267.728H411.825V275H409.233V258.2H411.825V265.232H413.769C414.441 265.232 414.945 265.104 415.281 264.848C415.617 264.592 416.041 264.08 416.553 263.312L419.817 258.2H422.769L418.953 264.128C418.089 265.36 417.385 266.12 416.841 266.408C417.209 266.536 417.553 266.776 417.873 267.128C418.209 267.464 418.625 268.024 419.121 268.808L423.105 275H420.177ZM429.643 271.232L428.107 275H425.251L432.187 258.2H433.699L440.563 275H437.707L436.195 271.232H429.643ZM432.931 262.928L430.555 268.784H435.307L432.931 262.928Z" fill="#E25D23"/>
<rect x="-1" y="1" width="83" height="72" transform="matrix(-1 0 0 1 264 15)" fill="white" stroke="#E25D23" stroke-width="2"/>
<rect x="395" y="16" width="83" height="72" fill="white" stroke="#E25D23" stroke-width="2"/>
<rect x="-1" y="1" width="83" height="72" transform="matrix(-1 0 0 1 115 15)" fill="white" stroke="#E25D23" stroke-width="2"/>
<path d="M253 87V29H183" stroke="black" stroke-width="2"/>
<path d="M442 87V63H477" stroke="black" stroke-width="2"/>
<path d="M407 87V29H477" stroke="#6F6F6E"/>
<path d="M73 87V56H34" stroke="black" stroke-width="2"/>
<line x1="212" y1="105.5" x2="200" y2="105.5" stroke="#E25D23"/>
<line x1="232" y1="105.5" x2="216" y2="105.5" stroke="#E25D23"/>
<line x1="253" y1="105.5" x2="235" y2="105.5" stroke="#E25D23"/>
<line x1="267" y1="277.5" x2="275" y2="277.5" stroke="#E25D23"/>
<path d="M276 262.894L276 270.244L275.118 270.244L271.562 266.072C271.114 265.549 270.736 265.171 270.428 264.938C270.111 264.705 269.765 264.588 269.392 264.588C268.879 264.588 268.477 264.775 268.188 265.148C267.889 265.512 267.735 265.965 267.726 266.506L267.726 266.618C267.726 267.477 268.127 268.293 268.93 269.068L268.02 270.048C266.872 269.031 266.298 267.845 266.298 266.492L266.298 266.366C266.307 265.377 266.583 264.583 267.124 263.986C267.665 263.389 268.323 263.09 269.098 263.09C269.742 263.09 270.339 263.291 270.89 263.692C271.441 264.084 272.075 264.723 272.794 265.61L274.586 267.654L274.586 262.894L276 262.894ZM267.74 259.817C266.779 258.856 266.298 257.698 266.298 256.345C266.298 254.992 266.779 253.839 267.74 252.887C268.692 251.926 269.845 251.445 271.198 251.445C272.551 251.445 273.709 251.926 274.67 252.887C275.622 253.839 276.098 254.992 276.098 256.345C276.098 257.698 275.622 258.856 274.67 259.817C273.709 260.769 272.551 261.245 271.198 261.245C269.845 261.245 268.692 260.769 267.74 259.817ZM268.72 253.937C268.057 254.59 267.726 255.393 267.726 256.345C267.726 257.297 268.057 258.1 268.72 258.753C269.373 259.397 270.199 259.719 271.198 259.719C272.206 259.719 273.037 259.397 273.69 258.753C274.343 258.1 274.67 257.297 274.67 256.345C274.67 255.393 274.343 254.59 273.69 253.937C273.037 253.284 272.206 252.957 271.198 252.957C270.199 252.957 269.373 253.284 268.72 253.937ZM276 237.371L276 238.771L271.296 238.771L273.886 241.039L271.296 243.307L276 243.307L276 244.707L269 244.707L269 243.825L272.192 241.039L269 238.253L269 237.371L276 237.371ZM276 227.541L276 228.941L271.296 228.941L273.886 231.209L271.296 233.477L276 233.477L276 234.877L269 234.877L269 233.995L272.192 231.209L269 228.423L269 227.541L276 227.541Z" fill="#E25D23"/>
<path d="M275 280L279 277.399L275 275L275 280Z" fill="#E6551F"/>
<path d="M268 280L264 277.399L268 275L268 280Z" fill="#E6551F"/>
<line x1="461" y1="277.5" x2="469" y2="277.5" stroke="#E25D23"/>
<path d="M470 262.894L470 270.244L469.118 270.244L465.562 266.072C465.114 265.549 464.736 265.171 464.428 264.938C464.111 264.705 463.765 264.588 463.392 264.588C462.879 264.588 462.477 264.775 462.188 265.148C461.889 265.512 461.735 265.965 461.726 266.506L461.726 266.618C461.726 267.477 462.127 268.293 462.93 269.068L462.02 270.048C460.872 269.031 460.298 267.845 460.298 266.492L460.298 266.366C460.307 265.377 460.583 264.583 461.124 263.986C461.665 263.389 462.323 263.09 463.098 263.09C463.742 263.09 464.339 263.291 464.89 263.692C465.441 264.084 466.075 264.723 466.794 265.61L468.586 267.654L468.586 262.894L470 262.894ZM461.74 259.817C460.779 258.856 460.298 257.698 460.298 256.345C460.298 254.992 460.779 253.839 461.74 252.887C462.692 251.926 463.845 251.445 465.198 251.445C466.551 251.445 467.709 251.926 468.67 252.887C469.622 253.839 470.098 254.992 470.098 256.345C470.098 257.698 469.622 258.856 468.67 259.817C467.709 260.769 466.551 261.245 465.198 261.245C463.845 261.245 462.692 260.769 461.74 259.817ZM462.72 253.937C462.057 254.59 461.726 255.393 461.726 256.345C461.726 257.297 462.057 258.1 462.72 258.753C463.373 259.397 464.199 259.719 465.198 259.719C466.206 259.719 467.037 259.397 467.69 258.753C468.343 258.1 468.67 257.297 468.67 256.345C468.67 255.393 468.343 254.59 467.69 253.937C467.037 253.284 466.206 252.957 465.198 252.957C464.199 252.957 463.373 253.284 462.72 253.937ZM470 237.371L470 238.771L465.296 238.771L467.886 241.039L465.296 243.307L470 243.307L470 244.707L463 244.707L463 243.825L466.192 241.039L463 238.253L463 237.371L470 237.371ZM470 227.541L470 228.941L465.296 228.941L467.886 231.209L465.296 233.477L470 233.477L470 234.877L463 234.877L463 233.995L466.192 231.209L463 228.423L463 227.541L470 227.541Z" fill="#E25D23"/>
<path d="M469 280L473 277.399L469 275L469 280Z" fill="#E6551F"/>
<path d="M462 280L458 277.399L462 275L462 280Z" fill="#E6551F"/>
<rect width="10" height="70" transform="matrix(-1 0 0 1 264 17)" fill="#F8F7F7"/>
<rect x="396" y="17" width="10" height="70" fill="#F8F7F7"/>
<rect width="41" height="70" transform="matrix(-1 0 0 1 115 17)" fill="#F8F7F7"/>
<rect width="81" height="11" transform="matrix(-1 0 0 1 264 17)" fill="#F8F7F7"/>
<rect x="396" y="17" width="81" height="11" fill="#F8F7F7"/>
<rect width="81" height="38" transform="matrix(-1 0 0 1 115 17)" fill="#F8F7F7"/>
<path d="M195 15L195 87" stroke="#E65420" stroke-width="2" stroke-miterlimit="10" stroke-dasharray="2.96 2.96"/>
<path d="M210.106 73H202.756V72.118L206.928 68.562C207.451 68.114 207.829 67.736 208.062 67.428C208.295 67.1107 208.412 66.7653 208.412 66.392C208.412 65.8787 208.225 65.4773 207.852 65.188C207.488 64.8893 207.035 64.7353 206.494 64.726H206.382C205.523 64.726 204.707 65.1273 203.932 65.93L202.952 65.02C203.969 63.872 205.155 63.298 206.508 63.298H206.634C207.623 63.3073 208.417 63.5827 209.014 64.124C209.611 64.6653 209.91 65.3233 209.91 66.098C209.91 66.742 209.709 67.3393 209.308 67.89C208.916 68.4407 208.277 69.0753 207.39 69.794L205.346 71.586H210.106V73ZM213.183 64.74C214.144 63.7787 215.302 63.298 216.655 63.298C218.008 63.298 219.161 63.7787 220.113 64.74C221.074 65.692 221.555 66.8447 221.555 68.198C221.555 69.5513 221.074 70.7087 220.113 71.67C219.161 72.622 218.008 73.098 216.655 73.098C215.302 73.098 214.144 72.622 213.183 71.67C212.231 70.7087 211.755 69.5513 211.755 68.198C211.755 66.8447 212.231 65.692 213.183 64.74ZM219.063 65.72C218.41 65.0573 217.607 64.726 216.655 64.726C215.703 64.726 214.9 65.0573 214.247 65.72C213.603 66.3733 213.281 67.1993 213.281 68.198C213.281 69.206 213.603 70.0367 214.247 70.69C214.9 71.3433 215.703 71.67 216.655 71.67C217.607 71.67 218.41 71.3433 219.063 70.69C219.716 70.0367 220.043 69.206 220.043 68.198C220.043 67.1993 219.716 66.3733 219.063 65.72ZM235.629 73H234.229V68.296L231.961 70.886L229.693 68.296V73H228.293V66H229.175L231.961 69.192L234.747 66H235.629V73ZM245.459 73H244.059V68.296L241.791 70.886L239.523 68.296V73H238.123V66H239.005L241.791 69.192L244.577 66H245.459V73Z" fill="#E25D23"/>
<path d="M419.896 43.278L416.69 46.232C416.905 46.1853 417.199 46.162 417.572 46.162C418.44 46.246 419.107 46.54 419.574 47.044C420.041 47.548 420.274 48.1733 420.274 48.92C420.274 49.8347 419.966 50.5907 419.35 51.188C418.743 51.7853 417.875 52.0887 416.746 52.098H416.634C414.973 52.0887 413.68 51.4493 412.756 50.18L413.736 49.27C414.567 50.2033 415.533 50.67 416.634 50.67H416.718C417.343 50.6607 417.852 50.474 418.244 50.11C418.645 49.746 418.846 49.2793 418.846 48.71C418.846 47.5527 418.118 46.974 416.662 46.974C416.186 46.974 415.687 47.1 415.164 47.352L414.422 46.792L417.642 43.824H413.624V42.41H419.896V43.278ZM434.227 52H432.827V47.296L430.559 49.886L428.291 47.296V52H426.891V45H427.773L430.559 48.192L433.345 45H434.227V52ZM444.057 52H442.657V47.296L440.389 49.886L438.121 47.296V52H436.721V45H437.603L440.389 48.192L443.175 45H444.057V52Z" fill="#E25D23"/>
<path d="M72.106 44H64.756V43.118L68.928 39.562C69.4507 39.114 69.8287 38.736 70.062 38.428C70.2953 38.1107 70.412 37.7653 70.412 37.392C70.412 36.8787 70.2253 36.4773 69.852 36.188C69.488 35.8893 69.0353 35.7353 68.494 35.726H68.382C67.5233 35.726 66.7067 36.1273 65.932 36.93L64.952 36.02C65.9693 34.872 67.1547 34.298 68.508 34.298H68.634C69.6233 34.3073 70.4167 34.5827 71.014 35.124C71.6113 35.6653 71.91 36.3233 71.91 37.098C71.91 37.742 71.7093 38.3393 71.308 38.89C70.916 39.4407 70.2767 40.0753 69.39 40.794L67.346 42.586H72.106V44ZM75.183 35.74C76.1444 34.7787 77.3017 34.298 78.655 34.298C80.0084 34.298 81.161 34.7787 82.113 35.74C83.0744 36.692 83.555 37.8447 83.555 39.198C83.555 40.5513 83.0744 41.7087 82.113 42.67C81.161 43.622 80.0084 44.098 78.655 44.098C77.3017 44.098 76.1444 43.622 75.183 42.67C74.231 41.7087 73.755 40.5513 73.755 39.198C73.755 37.8447 74.231 36.692 75.183 35.74ZM81.063 36.72C80.4097 36.0573 79.607 35.726 78.655 35.726C77.703 35.726 76.9004 36.0573 76.247 36.72C75.603 37.3733 75.281 38.1993 75.281 39.198C75.281 40.206 75.603 41.0367 76.247 41.69C76.9004 42.3433 77.703 42.67 78.655 42.67C79.607 42.67 80.4097 42.3433 81.063 41.69C81.7164 41.0367 82.043 40.206 82.043 39.198C82.043 38.1993 81.7164 37.3733 81.063 36.72ZM97.6289 44H96.2289V39.296L93.9609 41.886L91.6929 39.296V44H90.2929V37H91.1749L93.9609 40.192L96.7469 37H97.6289V44ZM107.459 44H106.059V39.296L103.791 41.886L101.523 39.296V44H100.123V37H101.005L103.791 40.192L106.577 37H107.459V44Z" fill="#E25D23"/>
<path d="M247 46L251 48.6005L247 51L247 46Z" fill="#E6551F"/>
<path d="M412 68L408 70.6005L412 73L412 68Z" fill="#E6551F"/>
<path d="M454 33L451.399 29L449 33L454 33Z" fill="#E6551F"/>
<path d="M111 73L115 75.6005L111 78L111 73Z" fill="#E6551F"/>
<path d="M48 51L45.3995 55L43 51L48 51Z" fill="#E6551F"/>
<line x1="200" y1="48.5" x2="247" y2="48.5" stroke="#E25D23"/>
<line x1="437" y1="70.5" x2="412" y2="70.5" stroke="#E25D23"/>
<line x1="451.5" y1="58" x2="451.5" y2="33" stroke="#E25D23"/>
<line x1="78" y1="75.5" x2="111" y2="75.5" stroke="#E25D23"/>
<line x1="45.5" y1="20" x2="45.5" y2="51" stroke="#E25D23"/>
<path d="M201 46L197 48.6005L201 51L201 46Z" fill="#E6551F"/>
<path d="M437 68L441 70.6005L437 73L437 68Z" fill="#E6551F"/>
<path d="M454 58L451.399 62L449 58L454 58Z" fill="#E6551F"/>
<path d="M78 73L74 75.6005L78 78L78 73Z" fill="#E6551F"/>
<path d="M211 103L215 105.601L211 108L211 103Z" fill="#E6551F"/>
<path d="M237 103L233 105.601L237 108L237 103Z" fill="#E6551F"/>
<path d="M472.841 107C480.49 107 486.681 113.197 486.681 120.853C486.681 128.509 480.49 134.707 472.841 134.707C465.191 134.707 459 128.509 459 120.853C459 113.197 465.191 107 472.841 107Z" stroke="#E25D23" stroke-width="2.0001" stroke-miterlimit="22.9256"/>
<path d="M300.841 124C308.49 124 314.681 130.197 314.681 137.853C314.681 145.509 308.49 151.707 300.841 151.707C293.191 151.707 287 145.509 287 137.853C287 130.197 293.191 124 300.841 124Z" stroke="#E25D23" stroke-width="2.0001" stroke-miterlimit="22.9256"/>
<path d="M473 88L473 107" stroke="#E25D23" stroke-width="2.0001" stroke-miterlimit="22.9256"/>
<path d="M301 87L301 123" stroke="#E25D23" stroke-width="2.0001" stroke-miterlimit="22.9256"/>
<rect x="289" y="16" width="85" height="73" fill="white" stroke="#E25D23" stroke-width="2"/>
<path d="M290 30H373" stroke="black" stroke-width="2"/>
<rect x="290" y="31" width="10" height="57" fill="white"/>
<path d="M301 88V30" stroke="#E25D23" stroke-width="2" stroke-dasharray="5 5"/>
<line x1="318" y1="57.5" x2="305" y2="57.5" stroke="#E25D23"/>
<line x1="331.5" y1="44" x2="331.5" y2="35" stroke="#E25D23"/>
<path d="M322 88V48H373" stroke="#77569F" stroke-miterlimit="10" stroke-dasharray="2.94 2.94"/>
<rect x="290" y="17" width="83" height="12" fill="#F8F7F7"/>
<path d="M337.336 64.824H332.828V67.33C333.36 66.9287 334.102 66.728 335.054 66.728C336.062 66.728 336.841 67.0173 337.392 67.596C337.952 68.1653 338.232 68.9213 338.232 69.864C338.232 70.7507 337.919 71.5113 337.294 72.146C336.669 72.7713 335.796 73.0887 334.676 73.098H334.55C332.945 73.0887 331.68 72.4493 330.756 71.18L331.736 70.27C332.175 70.7647 332.613 71.124 333.052 71.348C333.5 71.5627 334.009 71.67 334.578 71.67H334.662C335.269 71.6607 335.777 71.4833 336.188 71.138C336.599 70.7927 336.804 70.3307 336.804 69.752C336.804 69.136 336.608 68.6647 336.216 68.338C335.833 68.0113 335.287 67.848 334.578 67.848C334.121 67.848 333.673 67.932 333.234 68.1C332.805 68.268 332.464 68.4547 332.212 68.66L331.484 68.1V63.41H337.336V64.824ZM352.172 73H350.772V68.296L348.504 70.886L346.236 68.296V73H344.836V66H345.718L348.504 69.192L351.29 66H352.172V73ZM362.002 73H360.602V68.296L358.334 70.886L356.066 68.296V73H354.666V66H355.548L358.334 69.192L361.12 66H362.002V73Z" fill="#E25D23"/>
<path d="M329 43L331.601 47L334 43H329Z" fill="#E6551F"/>
<path d="M329 35L331.601 31L334 35H329Z" fill="#E6551F"/>
<path d="M318 55L322 57.6005L318 60L318 55Z" fill="#E6551F"/>
<path d="M306 55L302 57.6005L306 60L306 55Z" fill="#E6551F"/>
<line x1="200.5" y1="106" x2="200.5" y2="89" stroke="#E25D23"/>
</svg>
