<?xml version="1.0" encoding="utf-8"?>
<!-- Generator: Adobe Illustrator 24.1.2, SVG Export Plug-In . SVG Version: 6.00 Build 0)  -->
<svg version="1.1" id="Слой_1" xmlns="http://www.w3.org/2000/svg" xmlns:xlink="http://www.w3.org/1999/xlink" x="0px" y="0px"
	 viewBox="0 0 377 358" style="enable-background:new 0 0 377 358;" xml:space="preserve">
<style type="text/css">
	.st0{fill:#2B2A29;}
	.st1{clip-path:url(#SVGID_2_);}
	.st2{fill:#1D1D1B;}
	.st3{fill:#E5541F;}
</style>
<path class="st0" d="M76.5,313.8H75v-8.4h-4.4v8.4H69V304h7.4V313.8z M82.1,306.7c1,0,1.8,0.4,2.5,1.1c0.7,0.7,1.1,1.5,1.1,2.5
	s-0.3,1.8-1.1,2.5c-0.7,0.7-1.5,1.1-2.5,1.1c-1,0-1.8-0.4-2.5-1.1c-0.7-0.7-1-1.5-1-2.5c0-1,0.3-1.8,1-2.5
	C80.3,307.1,81.1,306.7,82.1,306.7z M83.7,308.7c-0.4-0.4-0.9-0.6-1.5-0.6c-0.6,0-1.1,0.2-1.5,0.6c-0.4,0.4-0.6,1-0.6,1.6
	s0.2,1.2,0.6,1.6c0.4,0.4,0.9,0.6,1.5,0.6c0.6,0,1.1-0.2,1.5-0.6c0.4-0.4,0.7-1,0.7-1.6C84.3,309.6,84.1,309.1,83.7,308.7z
	 M95,315.2h-1.4v-1.4h-5.3v1.4h-1.4v-2.8h1l2.6-5.7h0.9l2.6,5.7h1V315.2z M91,308.9l-1.6,3.6h3.2L91,308.9z M100.4,306.7
	c1,0,1.8,0.4,2.5,1.1c0.7,0.7,1,1.5,1,2.5c0,1-0.3,1.9-1,2.6c-0.7,0.7-1.5,1-2.5,1c-0.5,0-0.9-0.1-1.3-0.3c-0.4-0.2-0.7-0.5-0.9-0.9
	v3.6h-1.4v-9.6h1l0.1,1.3c0.3-0.4,0.6-0.8,1.1-1C99.4,306.8,99.9,306.7,100.4,306.7z M101.9,308.7c-0.4-0.4-0.9-0.6-1.5-0.6
	s-1.1,0.2-1.6,0.6c-0.4,0.4-0.6,1-0.6,1.6s0.2,1.2,0.6,1.6c0.4,0.4,1,0.6,1.6,0.6s1.1-0.2,1.5-0.6c0.4-0.4,0.6-1,0.6-1.6
	S102.3,309.1,101.9,308.7z M109.1,306.7c0.7,0,1.4,0.2,1.9,0.5s0.9,0.8,1.2,1.5c0.1,0.3,0.2,0.6,0.2,1c0,0.4,0,0.7-0.1,1H107
	c0,0.6,0.2,1.1,0.6,1.4c0.4,0.3,0.9,0.5,1.6,0.5c0.8,0,1.6-0.2,2.3-0.6l0.8,0.8c-0.9,0.7-1.9,1.1-3,1.1c-1.1,0-1.9-0.3-2.6-1
	c-0.7-0.7-1-1.5-1-2.6c0-1,0.3-1.9,1-2.6C107.2,307,108,306.7,109.1,306.7z M109.1,308c-0.6,0-1.1,0.2-1.4,0.5
	c-0.4,0.3-0.6,0.8-0.6,1.3h4c0-0.2-0.1-0.5-0.2-0.7c-0.1-0.3-0.4-0.6-0.7-0.8C109.9,308.1,109.5,308,109.1,308z M118.9,310.1
	c0.9,0.2,1.3,0.7,1.3,1.6c0,0.7-0.3,1.2-0.8,1.6c-0.5,0.4-1.2,0.6-2.1,0.6h-0.2c-0.7,0-1.3-0.1-1.9-0.4c-0.6-0.3-1-0.6-1.2-1
	l0.8-0.8c0.2,0.3,0.6,0.5,1,0.7c0.4,0.2,0.8,0.3,1.3,0.3h0.2c0.4,0,0.8-0.1,1.1-0.3c0.3-0.2,0.4-0.4,0.4-0.8c0-0.6-0.4-0.9-1.2-1
	h-1.2v-0.9h1c0.7,0,1-0.3,1-0.8c0-0.3-0.1-0.5-0.4-0.7c-0.2-0.2-0.5-0.2-0.9-0.2h-0.1c-0.8,0-1.4,0.3-2,0.8l-0.7-0.8
	c0.3-0.4,0.7-0.7,1.2-0.9c0.5-0.2,1.1-0.4,1.6-0.4h0.1c0.7,0,1.3,0.2,1.8,0.5c0.5,0.3,0.7,0.8,0.7,1.4
	C119.9,309.4,119.6,309.9,118.9,310.1z M127.4,313.8l-1.2-1.8c-0.3-0.4-0.5-0.7-0.7-0.9c-0.2-0.1-0.5-0.2-0.9-0.2h-0.8v2.9h-1.4v-7
	h1.4v2.7h0.7c0.4,0,0.7-0.1,0.9-0.2c0.2-0.1,0.4-0.4,0.7-0.9l1.1-1.6h1.6l-1.4,2.2c-0.5,0.7-0.8,1.1-1.1,1.2
	c0.4,0.1,0.8,0.5,1.2,1.2l1.6,2.4H127.4z M137.1,313.8h-1l-0.1-1.3c-0.3,0.4-0.6,0.8-1.1,1c-0.5,0.2-1,0.4-1.5,0.4
	c-1,0-1.8-0.3-2.5-1c-0.7-0.7-1-1.5-1-2.5c0-1,0.3-1.9,1-2.5c0.7-0.7,1.5-1,2.5-1c0.5,0,1,0.1,1.5,0.4c0.5,0.3,0.8,0.6,1.1,1
	l0.1-1.3h1V313.8z M132.1,311.9c0.4,0.4,0.9,0.6,1.5,0.6c0.6,0,1.1-0.2,1.5-0.6c0.4-0.4,0.7-1,0.7-1.6c0-0.7-0.2-1.2-0.7-1.6
	c-0.4-0.4-0.9-0.6-1.5-0.6c-0.6,0-1.1,0.2-1.5,0.6c-0.4,0.4-0.6,1-0.6,1.6S131.6,311.5,132.1,311.9z M149.2,304h1.4
	c0,0.6-0.2,1.1-0.6,1.4c-0.4,0.3-1,0.4-1.9,0.4h-0.4c-0.8,0-1.4,0.2-1.9,0.5c-0.5,0.4-0.7,0.9-0.7,1.6v0.4c0.2-0.4,0.5-0.8,1-1
	c0.4-0.3,0.9-0.4,1.5-0.4c1,0,1.8,0.3,2.4,1c0.6,0.6,0.9,1.4,0.9,2.4c0,1-0.3,1.9-1,2.6c-0.7,0.7-1.5,1-2.6,1c-1,0-1.9-0.3-2.6-1
	c-0.7-0.7-1-1.6-1-2.7v-1.8c0-1.2,0.4-2.2,1.1-2.8c0.7-0.7,1.7-1,3-1c0.5,0,0.9,0,1.1-0.1C149.1,304.4,149.2,304.2,149.2,304z
	 M147.4,308.2c-0.6,0-1.1,0.2-1.6,0.6c-0.4,0.4-0.6,0.9-0.6,1.5c0,0.6,0.2,1.1,0.6,1.6c0.4,0.4,1,0.6,1.6,0.6c0.6,0,1.1-0.2,1.5-0.6
	c0.4-0.4,0.6-0.9,0.6-1.6c0-0.6-0.2-1.1-0.7-1.5C148.5,308.4,148,308.2,147.4,308.2z M156.5,306.7c1,0,1.8,0.4,2.5,1.1
	c0.7,0.7,1,1.5,1,2.5c0,1-0.3,1.9-1,2.6c-0.7,0.7-1.5,1-2.5,1c-0.5,0-0.9-0.1-1.3-0.3c-0.4-0.2-0.7-0.5-0.9-0.9v3.6h-1.4v-9.6h1
	l0.1,1.3c0.3-0.4,0.6-0.8,1.1-1C155.4,306.8,155.9,306.7,156.5,306.7z M157.9,308.7c-0.4-0.4-0.9-0.6-1.5-0.6
	c-0.6,0-1.1,0.2-1.6,0.6c-0.4,0.4-0.6,1-0.6,1.6s0.2,1.2,0.6,1.6c0.4,0.4,1,0.6,1.6,0.6c0.6,0,1.1-0.2,1.5-0.6
	c0.4-0.4,0.6-1,0.6-1.6S158.3,309.1,157.9,308.7z M165.2,306.7c1,0,1.8,0.4,2.5,1.1c0.7,0.7,1.1,1.5,1.1,2.5s-0.4,1.8-1.1,2.5
	c-0.7,0.7-1.5,1.1-2.5,1.1c-1,0-1.8-0.4-2.5-1.1c-0.7-0.7-1-1.5-1-2.5c0-1,0.4-1.8,1.1-2.5C163.3,307.1,164.2,306.7,165.2,306.7z
	 M166.7,308.7c-0.4-0.4-0.9-0.6-1.5-0.6c-0.6,0-1.1,0.2-1.5,0.6c-0.4,0.4-0.6,1-0.6,1.6s0.2,1.2,0.6,1.6c0.4,0.4,0.9,0.6,1.5,0.6
	c0.6,0,1.1-0.2,1.5-0.6c0.4-0.4,0.7-1,0.7-1.6C167.4,309.6,167.1,309.1,166.7,308.7z M181.2,313.8h-10.3v-7h1.4v5.7h3.1v-5.7h1.4
	v5.7h3.1v-5.7h1.4V313.8z M189.8,306.7c1,0,1.8,0.4,2.5,1.1c0.7,0.7,1.1,1.5,1.1,2.5s-0.3,1.8-1,2.5c-0.7,0.7-1.6,1.1-2.5,1.1
	c-0.9,0-1.6-0.3-2.3-0.8c-0.7-0.6-1.1-1.3-1.2-2.1h-1.2v2.9h-1.4v-7h1.4v2.8h1.2c0.1-0.8,0.6-1.5,1.2-2.1
	C188.2,307,188.9,306.7,189.8,306.7z M188.2,311.9c0.4,0.4,0.9,0.6,1.5,0.6c0.6,0,1.1-0.2,1.5-0.6c0.4-0.4,0.7-1,0.7-1.6
	c0-0.7-0.2-1.2-0.7-1.6c-0.4-0.4-0.9-0.6-1.5-0.6c-0.6,0-1.1,0.2-1.5,0.6c-0.4,0.4-0.6,1-0.6,1.6S187.8,311.5,188.2,311.9z
	 M199.1,306.7c1,0,1.8,0.4,2.5,1.1c0.7,0.7,1,1.5,1,2.5c0,1-0.3,1.9-1,2.6c-0.7,0.7-1.5,1-2.5,1c-0.5,0-0.9-0.1-1.3-0.3
	c-0.4-0.2-0.7-0.5-0.9-0.9v3.6h-1.4v-9.6h1l0.1,1.3c0.3-0.4,0.6-0.8,1.1-1C198.1,306.8,198.6,306.7,199.1,306.7z M200.6,308.7
	c-0.4-0.4-0.9-0.6-1.5-0.6c-0.6,0-1.1,0.2-1.6,0.6c-0.4,0.4-0.6,1-0.6,1.6s0.2,1.2,0.6,1.6c0.4,0.4,1,0.6,1.6,0.6
	c0.6,0,1.1-0.2,1.5-0.6c0.4-0.4,0.6-1,0.6-1.6S201,309.1,200.6,308.7z M206.1,308.9h2c0.5,0,1,0.1,1.4,0.2c0.4,0.1,0.7,0.3,0.9,0.6
	c0.2,0.3,0.4,0.5,0.4,0.8c0.1,0.3,0.1,0.5,0.1,0.8c0,0.3,0,0.6-0.1,0.9c-0.1,0.3-0.2,0.5-0.4,0.8c-0.2,0.3-0.5,0.5-0.9,0.6
	c-0.4,0.1-0.9,0.2-1.4,0.2h-3.4v-7h1.4V308.9z M213.1,313.8h-1.4v-7h1.4V313.8z M206.1,312.5h2.2c0.9,0,1.3-0.4,1.3-1.1
	c0-0.7-0.4-1.1-1.3-1.1h-2.2V312.5z M223.4,306.7c1.1,0,2,0.4,2.8,1.3l-0.8,0.9c-0.5-0.6-1.2-0.9-1.9-0.9c-0.6,0-1.1,0.2-1.5,0.6
	c-0.4,0.4-0.6,1-0.6,1.6s0.2,1.2,0.6,1.6c0.4,0.4,0.9,0.6,1.5,0.6c0.7,0,1.4-0.3,1.9-0.9l0.8,0.9c-0.7,0.9-1.6,1.3-2.8,1.3
	c-1,0-1.8-0.4-2.5-1.1c-0.7-0.7-1-1.5-1-2.5s0.3-1.8,1-2.5C221.5,307.1,222.4,306.7,223.4,306.7z M239.4,305.1l-3.2,3
	c0.2,0,0.5-0.1,0.9-0.1c0.9,0.1,1.5,0.4,2,0.9c0.5,0.5,0.7,1.1,0.7,1.9c0,0.9-0.3,1.7-0.9,2.3c-0.6,0.6-1.5,0.9-2.6,0.9h-0.1
	c-1.7,0-3-0.6-3.9-1.9l1-0.9c0.8,0.9,1.8,1.4,2.9,1.4h0.1c0.6,0,1.1-0.2,1.5-0.6c0.4-0.4,0.6-0.8,0.6-1.4c0-1.2-0.7-1.7-2.2-1.7
	c-0.5,0-1,0.1-1.5,0.4l-0.7-0.6l3.2-3h-4v-1.4h6.3V305.1z M244.8,310.2h-3.5v-0.9h3.5V310.2z M249.7,311.3l-2,2.5h-1.6l2.8-3.6
	l-2.7-3.4h1.6l1.9,2.3l1.8-2.3h1.6l-2.7,3.4l2.8,3.6h-1.6L249.7,311.3z M262.9,306.7c1.1,0,2,0.4,2.8,1.3l-0.8,0.9
	c-0.5-0.6-1.2-0.9-1.9-0.9c-0.6,0-1.1,0.2-1.5,0.6c-0.4,0.4-0.6,1-0.6,1.6s0.2,1.2,0.6,1.6c0.4,0.4,0.9,0.6,1.5,0.6
	c0.7,0,1.4-0.3,1.9-0.9l0.8,0.9c-0.7,0.9-1.6,1.3-2.8,1.3c-1,0-1.8-0.4-2.5-1.1c-0.7-0.7-1-1.5-1-2.5s0.3-1.8,1-2.5
	C261,307.1,261.9,306.7,262.9,306.7z M270.6,308.1v5.7h-1.4v-5.7h-2.4v-1.3h6.1v1.3H270.6z M277.7,306.7c1,0,1.8,0.4,2.5,1.1
	c0.7,0.7,1,1.5,1,2.5s-0.3,1.8-1,2.5c-0.7,0.7-1.5,1.1-2.5,1.1c-1,0-1.8-0.4-2.5-1.1c-0.7-0.7-1-1.5-1-2.5c0-1,0.4-1.8,1-2.5
	C275.9,307.1,276.7,306.7,277.7,306.7z M279.3,308.7c-0.4-0.4-0.9-0.6-1.5-0.6c-0.6,0-1.1,0.2-1.5,0.6c-0.4,0.4-0.6,1-0.6,1.6
	s0.2,1.2,0.6,1.6c0.4,0.4,0.9,0.6,1.5,0.6c0.6,0,1.1-0.2,1.5-0.6c0.4-0.4,0.7-1,0.7-1.6C279.9,309.6,279.7,309.1,279.3,308.7z
	 M287.1,306.7c1,0,1.8,0.4,2.5,1.1c0.7,0.7,1,1.5,1,2.5c0,1-0.3,1.9-1,2.6c-0.7,0.7-1.5,1-2.5,1c-0.5,0-0.9-0.1-1.3-0.3
	c-0.4-0.2-0.7-0.5-0.9-0.9v3.6h-1.4v-9.6h1l0.1,1.3c0.3-0.4,0.6-0.8,1.1-1C286.1,306.8,286.6,306.7,287.1,306.7z M288.5,308.7
	c-0.4-0.4-0.9-0.6-1.5-0.6c-0.6,0-1.1,0.2-1.6,0.6c-0.4,0.4-0.6,1-0.6,1.6s0.2,1.2,0.6,1.6c0.4,0.4,1,0.6,1.6,0.6
	c0.6,0,1.1-0.2,1.5-0.6c0.4-0.4,0.6-1,0.6-1.6S289,309.1,288.5,308.7z M295.8,306.7c1,0,1.8,0.4,2.5,1.1c0.7,0.7,1,1.5,1,2.5
	s-0.3,1.8-1,2.5c-0.7,0.7-1.5,1.1-2.5,1.1c-1,0-1.8-0.4-2.5-1.1c-0.7-0.7-1-1.5-1-2.5c0-1,0.3-1.8,1-2.5
	C294,307.1,294.8,306.7,295.8,306.7z M297.4,308.7c-0.4-0.4-0.9-0.6-1.5-0.6c-0.6,0-1.1,0.2-1.5,0.6c-0.4,0.4-0.6,1-0.6,1.6
	s0.2,1.2,0.6,1.6c0.4,0.4,0.9,0.6,1.5,0.6c0.6,0,1.1-0.2,1.5-0.6c0.4-0.4,0.7-1,0.7-1.6C298,309.6,297.8,309.1,297.4,308.7z
	 M308,313.8h-1.4v-2.9h-3.7v2.9h-1.4v-7h1.4v2.8h3.7v-2.8h1.4V313.8z M170.7,334.8h-1.4v-5.7h-3.7v5.7h-1.4v-7h6.5V334.8z
	 M176.3,327.7c1,0,1.8,0.4,2.5,1.1c0.7,0.7,1.1,1.5,1.1,2.5s-0.4,1.8-1.1,2.5c-0.7,0.7-1.5,1.1-2.5,1.1c-1,0-1.8-0.4-2.5-1.1
	c-0.7-0.7-1-1.5-1-2.5c0-1,0.4-1.8,1.1-2.5C174.5,328.1,175.4,327.7,176.3,327.7z M177.9,329.7c-0.4-0.4-0.9-0.6-1.5-0.6
	s-1.1,0.2-1.5,0.6c-0.4,0.4-0.6,1-0.6,1.6s0.2,1.2,0.6,1.6c0.4,0.4,0.9,0.6,1.5,0.6s1.1-0.2,1.5-0.6c0.4-0.4,0.7-1,0.7-1.6
	C178.5,330.6,178.3,330.1,177.9,329.7z M193.5,334.8h-7.4v-0.9l4.2-3.6c0.5-0.4,0.9-0.8,1.1-1.1c0.2-0.3,0.4-0.7,0.4-1
	c0-0.5-0.2-0.9-0.6-1.2c-0.4-0.3-0.8-0.5-1.4-0.5h-0.1c-0.9,0-1.7,0.4-2.5,1.2l-1-0.9c1-1.1,2.2-1.7,3.6-1.7h0.1
	c1,0,1.8,0.3,2.4,0.8c0.6,0.5,0.9,1.2,0.9,2c0,0.6-0.2,1.2-0.6,1.8c-0.4,0.6-1,1.2-1.9,1.9l-2,1.8h4.8V334.8z M207.4,334.8H206v-4.7
	l-2.3,2.6l-2.3-2.6v4.7h-1.4v-7h0.9l2.8,3.2l2.8-3.2h0.9V334.8z M217.2,334.8h-1.4v-4.7l-2.3,2.6l-2.3-2.6v4.7h-1.4v-7h0.9l2.8,3.2
	l2.8-3.2h0.9V334.8z"/>
<g>
	<defs>
		<rect id="SVGID_1_" x="60.2" y="69.2" width="255" height="220.5"/>
	</defs>
	<clipPath id="SVGID_2_">
		<use xlink:href="#SVGID_1_"  style="overflow:visible;"/>
	</clipPath>
	<g class="st1">
		<path class="st2" d="M92,263.5L92,263.5c-3.7-0.5-11.9-3-10.4-15.5l0.9,0.1l-0.9-0.2l33.8-160.4H247l0.1,0.4L263,99.8l32.1,155.1
			l-0.3-0.2l0.1,0.2c-9.5,5.8-14.2,8.3-14.2,8.3l-0.2,0.1h-0.3L92,263.5z M83.7,248.2c-1.2,9.8,4,12.6,8.5,13.2l187.8-0.3
			c1-0.5,5.3-2.9,13.3-7.7l-14.7-11l-169.5-0.6C92.1,242.2,84.8,243.1,83.7,248.2z M279.8,240.9l12.3,9.1l-30.9-149.1l-13.4-10
			C250.4,102.6,261.7,153,279.8,240.9z M117.1,89.5L84.7,243.4c4.3-3,12.7-3.3,24.4-3.5l168.6,0.6c-19.2-93.4-30.7-144.2-32.3-151
			H117.1L117.1,89.5z"/>
		<path class="st2" d="M288.4,257.3H93.5c-2.9,0-5.2-2.3-5.2-5.2c0-2.9,2.3-5.2,5.2-5.2h192.6L253.8,94.5l0.7-0.2L287,247.2
			l-0.7,0.2l0-0.2v0.5H93.5c-2.5,0-4.5,2-4.5,4.5c0,2.5,2,4.5,4.5,4.5h194.9V257.3L288.4,257.3z M293.2,254.4h-198
			c-2.5,0-3.6-1.1-3.6-2.2c0-1.1,1.2-2.3,3.6-2.3l195-0.1l-33-152.8l0.7-0.2L291,250.2l-0.4,0.1v0.4l-195.5,0.1
			c-1.9,0-2.9,0.8-2.9,1.5c0,0.7,0.9,1.4,2.9,1.4h198V254.4z M282.6,244.7L249.7,91.5l0.7-0.2l32.9,153.3L282.6,244.7z"/>
		<path class="st3" d="M287.9,289.8l-3.2-14.7l2.9-0.6l3.2,14.7L287.9,289.8z M281.6,260.5l-3.2-14.7l2.9-0.6l3.2,14.7L281.6,260.5z
			 M315.2,242.6h-15v-3h15V242.6z M285.2,242.6h-15v-3h15V242.6z M255.2,242.6h-15v-3h15V242.6z M225.2,242.6h-15v-3h15V242.6z
			 M195.2,242.6h-15v-3h15V242.6z M165.2,242.6h-15v-3h15V242.6z M135.2,242.6h-15v-3h15V242.6z M105.2,242.6h-15v-3h15V242.6z
			 M75.2,242.6h-15v-3h15V242.6z M275.2,231.1l-3.2-14.7l2.9-0.6l3.2,14.7L275.2,231.1z M268.9,201.8l-3.2-14.7l2.9-0.6l3.2,14.7
			L268.9,201.8z M262.5,172.5l-3.2-14.7l2.9-0.6l3.2,14.7L262.5,172.5z M256.2,143.2l-3.2-14.7l2.9-0.6l3.2,14.7L256.2,143.2z
			 M249.8,113.9l-3.2-14.7l2.9-0.6l3.2,14.7L249.8,113.9z M281,90.9h-15v-3h15V90.9z M251,90.9h-15v-3h15V90.9z M221,90.9h-15v-3h15
			V90.9z M191,90.9h-15v-3h15V90.9z M161,90.9h-15v-3h15V90.9z M131,90.9h-15v-3h15V90.9z M101,90.9H86v-3h15V90.9z M243.5,84.5
			l-3.2-14.7l2.9-0.6l3.2,14.7L243.5,84.5z"/>
	</g>
</g>
</svg>
