<svg width="377" height="358" viewBox="0 0 377 358" fill="none" xmlns="http://www.w3.org/2000/svg">
<path d="M126.895 302.102C128.351 302.102 129.583 302.643 130.591 303.726L129.611 304.636C128.874 303.899 127.969 303.53 126.895 303.53C125.915 303.53 125.089 303.871 124.417 304.552C123.755 305.224 123.423 306.073 123.423 307.1C123.423 308.136 123.755 308.99 124.417 309.662C125.089 310.334 125.915 310.67 126.895 310.67C127.987 310.67 128.893 310.301 129.611 309.564L130.591 310.474C129.583 311.557 128.351 312.098 126.895 312.098C125.514 312.098 124.338 311.613 123.367 310.642C122.397 309.662 121.911 308.481 121.911 307.1C121.911 305.719 122.397 304.543 123.367 303.572C124.338 302.592 125.514 302.102 126.895 302.102ZM137.515 302.2H138.901C138.901 302.816 138.705 303.273 138.313 303.572C137.93 303.871 137.291 304.02 136.395 304.02H136.031C135.219 304.02 134.584 304.202 134.127 304.566C133.67 304.921 133.441 305.448 133.441 306.148V306.54C133.656 306.12 133.982 305.784 134.421 305.532C134.86 305.271 135.345 305.14 135.877 305.14C136.857 305.14 137.66 305.462 138.285 306.106C138.91 306.741 139.223 307.539 139.223 308.5C139.223 309.527 138.887 310.385 138.215 311.076C137.552 311.767 136.689 312.112 135.625 312.112C134.598 312.112 133.744 311.767 133.063 311.076C132.382 310.385 132.041 309.489 132.041 308.388V306.624C132.041 305.401 132.396 304.463 133.105 303.81C133.824 303.157 134.832 302.83 136.129 302.83C136.67 302.83 137.034 302.788 137.221 302.704C137.417 302.611 137.515 302.443 137.515 302.2ZM135.639 306.428C135.042 306.428 134.524 306.638 134.085 307.058C133.656 307.469 133.441 307.982 133.441 308.598C133.441 309.223 133.651 309.741 134.071 310.152C134.5 310.563 135.023 310.768 135.639 310.768C136.246 310.768 136.759 310.563 137.179 310.152C137.608 309.741 137.823 309.223 137.823 308.598C137.823 307.982 137.604 307.469 137.165 307.058C136.736 306.638 136.227 306.428 135.639 306.428ZM144.457 304.902C145.456 304.902 146.305 305.257 147.005 305.966C147.705 306.666 148.055 307.511 148.055 308.5C148.055 309.489 147.705 310.334 147.005 311.034C146.305 311.734 145.456 312.084 144.457 312.084C143.458 312.084 142.609 311.734 141.909 311.034C141.218 310.334 140.873 309.489 140.873 308.5C140.873 307.501 141.223 306.652 141.923 305.952C142.623 305.252 143.468 304.902 144.457 304.902ZM145.997 306.89C145.568 306.461 145.054 306.246 144.457 306.246C143.86 306.246 143.346 306.461 142.917 306.89C142.488 307.31 142.273 307.847 142.273 308.5C142.273 309.153 142.488 309.69 142.917 310.11C143.346 310.53 143.86 310.74 144.457 310.74C145.054 310.74 145.568 310.53 145.997 310.11C146.436 309.681 146.655 309.144 146.655 308.5C146.655 307.847 146.436 307.31 145.997 306.89ZM153.848 304.916C154.837 304.916 155.659 305.266 156.312 305.966C156.975 306.657 157.306 307.501 157.306 308.5C157.306 309.508 156.975 310.362 156.312 311.062C155.659 311.753 154.837 312.098 153.848 312.098C153.391 312.098 152.966 311.995 152.574 311.79C152.182 311.575 151.869 311.291 151.636 310.936V314.576H150.236V305H151.188L151.272 306.288C151.533 305.868 151.893 305.537 152.35 305.294C152.807 305.042 153.307 304.916 153.848 304.916ZM155.276 306.89C154.847 306.47 154.333 306.26 153.736 306.26C153.139 306.26 152.621 306.475 152.182 306.904C151.753 307.324 151.538 307.856 151.538 308.5C151.538 309.144 151.753 309.681 152.182 310.11C152.621 310.53 153.139 310.74 153.736 310.74C154.333 310.74 154.847 310.53 155.276 310.11C155.705 309.69 155.92 309.153 155.92 308.5C155.92 307.847 155.705 307.31 155.276 306.89ZM164.421 312L163.245 310.18C162.955 309.741 162.713 309.447 162.517 309.298C162.321 309.149 162.027 309.074 161.635 309.074H160.851V312H159.451V305H160.851V307.716H161.523C161.924 307.716 162.218 307.641 162.405 307.492C162.601 307.343 162.843 307.044 163.133 306.596L164.183 305H165.737L164.309 307.184C163.851 307.856 163.473 308.253 163.175 308.374C163.539 308.486 163.949 308.897 164.407 309.606L165.975 312H164.421ZM174.125 312H173.173L173.089 310.712C172.827 311.132 172.468 311.468 172.011 311.72C171.553 311.963 171.054 312.084 170.513 312.084C169.523 312.084 168.697 311.739 168.035 311.048C167.381 310.348 167.055 309.499 167.055 308.5C167.055 307.492 167.381 306.643 168.035 305.952C168.697 305.252 169.523 304.902 170.513 304.902C171.054 304.902 171.553 305.028 172.011 305.28C172.468 305.532 172.827 305.868 173.089 306.288L173.173 305H174.125V312ZM169.099 310.11C169.528 310.53 170.041 310.74 170.639 310.74C171.236 310.74 171.749 310.53 172.179 310.11C172.617 309.681 172.837 309.144 172.837 308.5C172.837 307.847 172.617 307.31 172.179 306.89C171.749 306.461 171.236 306.246 170.639 306.246C170.041 306.246 169.528 306.461 169.099 306.89C168.669 307.31 168.455 307.847 168.455 308.5C168.455 309.153 168.669 309.69 169.099 310.11ZM186.269 302.2H187.655C187.655 302.816 187.459 303.273 187.067 303.572C186.684 303.871 186.045 304.02 185.149 304.02H184.785C183.973 304.02 183.338 304.202 182.881 304.566C182.423 304.921 182.195 305.448 182.195 306.148V306.54C182.409 306.12 182.736 305.784 183.175 305.532C183.613 305.271 184.099 305.14 184.631 305.14C185.611 305.14 186.413 305.462 187.039 306.106C187.664 306.741 187.977 307.539 187.977 308.5C187.977 309.527 187.641 310.385 186.969 311.076C186.306 311.767 185.443 312.112 184.379 312.112C183.352 312.112 182.498 311.767 181.817 311.076C181.135 310.385 180.795 309.489 180.795 308.388V306.624C180.795 305.401 181.149 304.463 181.859 303.81C182.577 303.157 183.585 302.83 184.883 302.83C185.424 302.83 185.788 302.788 185.975 302.704C186.171 302.611 186.269 302.443 186.269 302.2ZM184.393 306.428C183.795 306.428 183.277 306.638 182.839 307.058C182.409 307.469 182.195 307.982 182.195 308.598C182.195 309.223 182.405 309.741 182.825 310.152C183.254 310.563 183.777 310.768 184.393 310.768C184.999 310.768 185.513 310.563 185.933 310.152C186.362 309.741 186.577 309.223 186.577 308.598C186.577 307.982 186.357 307.469 185.919 307.058C185.489 306.638 184.981 306.428 184.393 306.428ZM193.496 304.916C194.486 304.916 195.307 305.266 195.96 305.966C196.623 306.657 196.954 307.501 196.954 308.5C196.954 309.508 196.623 310.362 195.96 311.062C195.307 311.753 194.486 312.098 193.496 312.098C193.039 312.098 192.614 311.995 192.222 311.79C191.83 311.575 191.518 311.291 191.284 310.936V314.576H189.884V305H190.836L190.92 306.288C191.182 305.868 191.541 305.537 191.998 305.294C192.456 305.042 192.955 304.916 193.496 304.916ZM194.924 306.89C194.495 306.47 193.982 306.26 193.384 306.26C192.787 306.26 192.269 306.475 191.83 306.904C191.401 307.324 191.186 307.856 191.186 308.5C191.186 309.144 191.401 309.681 191.83 310.11C192.269 310.53 192.787 310.74 193.384 310.74C193.982 310.74 194.495 310.53 194.924 310.11C195.354 309.69 195.568 309.153 195.568 308.5C195.568 307.847 195.354 307.31 194.924 306.89ZM202.193 304.902C203.192 304.902 204.041 305.257 204.741 305.966C205.441 306.666 205.791 307.511 205.791 308.5C205.791 309.489 205.441 310.334 204.741 311.034C204.041 311.734 203.192 312.084 202.193 312.084C201.195 312.084 200.345 311.734 199.645 311.034C198.955 310.334 198.609 309.489 198.609 308.5C198.609 307.501 198.959 306.652 199.659 305.952C200.359 305.252 201.204 304.902 202.193 304.902ZM203.733 306.89C203.304 306.461 202.791 306.246 202.193 306.246C201.596 306.246 201.083 306.461 200.653 306.89C200.224 307.31 200.009 307.847 200.009 308.5C200.009 309.153 200.224 309.69 200.653 310.11C201.083 310.53 201.596 310.74 202.193 310.74C202.791 310.74 203.304 310.53 203.733 310.11C204.172 309.681 204.391 309.144 204.391 308.5C204.391 307.847 204.172 307.31 203.733 306.89ZM218.193 312H207.861V305H209.261V310.656H212.327V305H213.727V310.656H216.807V305H218.193V312ZM226.803 304.902C227.793 304.902 228.637 305.257 229.337 305.966C230.047 306.666 230.401 307.511 230.401 308.5C230.401 309.489 230.051 310.334 229.351 311.034C228.651 311.734 227.802 312.084 226.803 312.084C225.926 312.084 225.156 311.804 224.493 311.244C223.84 310.684 223.443 309.979 223.303 309.13H222.085V312H220.685V305H222.085V307.786H223.331C223.481 306.965 223.882 306.279 224.535 305.728C225.189 305.177 225.945 304.902 226.803 304.902ZM225.263 310.11C225.693 310.53 226.206 310.74 226.803 310.74C227.401 310.74 227.914 310.53 228.343 310.11C228.782 309.681 229.001 309.144 229.001 308.5C229.001 307.847 228.782 307.31 228.343 306.89C227.914 306.461 227.401 306.246 226.803 306.246C226.206 306.246 225.693 306.461 225.263 306.89C224.834 307.31 224.619 307.847 224.619 308.5C224.619 309.153 224.834 309.69 225.263 310.11ZM236.153 304.916C237.142 304.916 237.963 305.266 238.617 305.966C239.279 306.657 239.611 307.501 239.611 308.5C239.611 309.508 239.279 310.362 238.617 311.062C237.963 311.753 237.142 312.098 236.153 312.098C235.695 312.098 235.271 311.995 234.879 311.79C234.487 311.575 234.174 311.291 233.941 310.936V314.576H232.541V305H233.493L233.577 306.288C233.838 305.868 234.197 305.537 234.655 305.294C235.112 305.042 235.611 304.916 236.153 304.916ZM237.581 306.89C237.151 306.47 236.638 306.26 236.041 306.26C235.443 306.26 234.925 306.475 234.487 306.904C234.057 307.324 233.843 307.856 233.843 308.5C233.843 309.144 234.057 309.681 234.487 310.11C234.925 310.53 235.443 310.74 236.041 310.74C236.638 310.74 237.151 310.53 237.581 310.11C238.01 309.69 238.225 309.153 238.225 308.5C238.225 307.847 238.01 307.31 237.581 306.89ZM243.085 307.142H245.101C245.652 307.142 246.123 307.217 246.515 307.366C246.907 307.506 247.201 307.702 247.397 307.954C247.603 308.206 247.747 308.463 247.831 308.724C247.915 308.985 247.957 309.265 247.957 309.564C247.957 309.863 247.915 310.147 247.831 310.418C247.747 310.679 247.603 310.936 247.397 311.188C247.201 311.44 246.907 311.641 246.515 311.79C246.123 311.93 245.652 312 245.101 312H241.685V305H243.085V307.142ZM250.127 312H248.727V305H250.127V312ZM243.085 310.698H245.255C246.123 310.698 246.557 310.32 246.557 309.564C246.557 308.817 246.123 308.444 245.255 308.444H243.085V310.698ZM60.4318 322.584V324.012C59.7878 324.553 59.2698 325.249 58.8778 326.098C58.4858 326.938 58.2805 327.787 58.2618 328.646V328.842C58.2618 329.701 58.4578 330.559 58.8498 331.418C59.2512 332.267 59.7785 332.972 60.4318 333.532V334.96C59.3212 334.344 58.4298 333.476 57.7578 332.356C57.0858 331.236 56.7498 330.065 56.7498 328.842V328.646C56.7592 327.433 57.0998 326.266 57.7718 325.146C58.4438 324.026 59.3305 323.172 60.4318 322.584ZM62.5019 326H66.1699C66.9632 326 67.5465 326.163 67.9199 326.49C68.3025 326.817 68.4939 327.274 68.4939 327.862C68.4939 328.618 68.1672 329.113 67.5139 329.346C67.9432 329.439 68.2699 329.631 68.4939 329.92C68.7179 330.2 68.8299 330.55 68.8299 330.97C68.8299 331.67 68.6152 332.183 68.1859 332.51C67.7659 332.837 67.0985 333 66.1839 333H62.5019V326ZM63.9019 327.19V328.87H66.0999C66.7719 328.87 67.1079 328.59 67.1079 328.03C67.1079 327.47 66.7672 327.19 66.0859 327.19H63.9019ZM63.9019 331.81H66.2259C67.0285 331.81 67.4299 331.493 67.4299 330.858C67.4299 330.223 67.0332 329.906 66.2399 329.906L63.9019 329.892V331.81ZM77.4057 333H76.0057V330.13H72.3237V333H70.9237V326H72.3237V328.786H76.0057V326H77.4057V333ZM86.5845 326V332.118C86.5845 333.173 86.2765 334.027 85.6605 334.68C85.0538 335.343 84.2138 335.674 83.1405 335.674C81.9645 335.674 80.9472 335.315 80.0885 334.596L80.8865 333.742C81.6145 334.181 82.3658 334.4 83.1405 334.4C83.7845 334.4 84.2838 334.227 84.6385 333.882C85.0025 333.537 85.1845 333.047 85.1845 332.412V331.768C84.9512 332.16 84.6292 332.454 84.2185 332.65C83.8172 332.837 83.3925 332.93 82.9445 332.93C81.9738 332.93 81.2225 332.631 80.6905 332.034C80.1585 331.437 79.8925 330.615 79.8925 329.57V326H81.2925V329.486C81.2925 330.886 81.9132 331.586 83.1545 331.586C83.7892 331.586 84.2885 331.385 84.6525 330.984C85.0165 330.573 85.1985 329.985 85.1985 329.22V326H86.5845ZM92.0076 327.344V333H90.6076V327.344H88.2416V326H94.3876V327.344H92.0076ZM99.803 325.916C100.792 325.916 101.614 326.266 102.267 326.966C102.93 327.657 103.261 328.501 103.261 329.5C103.261 330.508 102.93 331.362 102.267 332.062C101.614 332.753 100.792 333.098 99.803 333.098C99.3457 333.098 98.921 332.995 98.529 332.79C98.137 332.575 97.8243 332.291 97.591 331.936V335.576H96.191V326H97.143L97.227 327.288C97.4883 326.868 97.8477 326.537 98.305 326.294C98.7623 326.042 99.2617 325.916 99.803 325.916ZM101.231 327.89C100.802 327.47 100.288 327.26 99.691 327.26C99.0937 327.26 98.5757 327.475 98.137 327.904C97.7077 328.324 97.493 328.856 97.493 329.5C97.493 330.144 97.7077 330.681 98.137 331.11C98.5757 331.53 99.0937 331.74 99.691 331.74C100.288 331.74 100.802 331.53 101.231 331.11C101.66 330.69 101.875 330.153 101.875 329.5C101.875 328.847 101.66 328.31 101.231 327.89ZM108.458 325.902C109.205 325.902 109.844 326.075 110.376 326.42C110.908 326.765 111.305 327.251 111.566 327.876C111.697 328.165 111.771 328.506 111.79 328.898C111.809 329.281 111.776 329.603 111.692 329.864H106.358C106.358 330.461 106.559 330.937 106.96 331.292C107.371 331.637 107.898 331.81 108.542 331.81C109.354 331.81 110.105 331.605 110.796 331.194L111.552 332.006C110.609 332.725 109.606 333.084 108.542 333.084C107.469 333.084 106.596 332.748 105.924 332.076C105.252 331.404 104.916 330.545 104.916 329.5C104.916 328.483 105.238 327.629 105.882 326.938C106.535 326.247 107.394 325.902 108.458 325.902ZM108.472 327.176C107.893 327.176 107.413 327.353 107.03 327.708C106.647 328.053 106.442 328.473 106.414 328.968H110.432C110.432 328.725 110.376 328.497 110.264 328.282C110.115 327.946 109.881 327.68 109.564 327.484C109.256 327.279 108.892 327.176 108.472 327.176ZM120.445 333H119.045V330.13H115.363V333H113.963V326H115.363V328.786H119.045V326H120.445V333ZM129.414 333H128.014V330.13H124.332V333H122.932V326H124.332V328.786H128.014V326H129.414V333ZM138.298 333H136.898V328.296L132.782 333H131.9V326H133.3V330.704L137.416 326H138.298V333ZM143.909 325.902C144.656 325.902 145.295 326.075 145.827 326.42C146.359 326.765 146.756 327.251 147.017 327.876C147.148 328.165 147.222 328.506 147.241 328.898C147.26 329.281 147.227 329.603 147.143 329.864H141.809C141.809 330.461 142.01 330.937 142.411 331.292C142.822 331.637 143.349 331.81 143.993 331.81C144.805 331.81 145.556 331.605 146.247 331.194L147.003 332.006C146.06 332.725 145.057 333.084 143.993 333.084C142.92 333.084 142.047 332.748 141.375 332.076C140.703 331.404 140.367 330.545 140.367 329.5C140.367 328.483 140.689 327.629 141.333 326.938C141.986 326.247 142.845 325.902 143.909 325.902ZM143.923 327.176C143.344 327.176 142.864 327.353 142.481 327.708C142.098 328.053 141.893 328.473 141.865 328.968H145.883C145.883 328.725 145.827 328.497 145.715 328.282C145.566 327.946 145.332 327.68 145.015 327.484C144.707 327.279 144.343 327.176 143.923 327.176ZM156.906 328.086L154.722 333H153.238L156.472 326H157.34L160.574 333H159.104L156.906 328.086ZM168.554 333H167.154V328.296L163.038 333H162.156V326H163.556V330.704L167.672 326H168.554V333ZM174.207 325.916C175.327 325.916 176.246 326.345 176.965 327.204L176.125 328.114C175.584 327.545 174.944 327.26 174.207 327.26C173.61 327.26 173.096 327.47 172.667 327.89C172.238 328.31 172.023 328.847 172.023 329.5C172.023 330.153 172.238 330.69 172.667 331.11C173.096 331.53 173.61 331.74 174.207 331.74C174.926 331.74 175.565 331.455 176.125 330.886L176.965 331.796C176.246 332.655 175.327 333.084 174.207 333.084C173.208 333.084 172.359 332.734 171.659 332.034C170.968 331.334 170.623 330.489 170.623 329.5C170.623 328.511 170.968 327.666 171.659 326.966C172.359 326.266 173.208 325.916 174.207 325.916ZM181.969 327.344V333H180.569V327.344H178.203V326H184.349V327.344H181.969ZM187.482 328.142H189.498C190.049 328.142 190.52 328.217 190.912 328.366C191.304 328.506 191.598 328.702 191.794 328.954C191.999 329.206 192.144 329.463 192.228 329.724C192.312 329.985 192.354 330.265 192.354 330.564C192.354 330.863 192.312 331.147 192.228 331.418C192.144 331.679 191.999 331.936 191.794 332.188C191.598 332.44 191.304 332.641 190.912 332.79C190.52 332.93 190.049 333 189.498 333H186.082V326H187.482V328.142ZM194.524 333H193.124V326H194.524V333ZM187.482 331.698H189.652C190.52 331.698 190.954 331.32 190.954 330.564C190.954 329.817 190.52 329.444 189.652 329.444H187.482V331.698ZM204.777 325.916C205.897 325.916 206.817 326.345 207.535 327.204L206.695 328.114C206.154 327.545 205.515 327.26 204.777 327.26C204.18 327.26 203.667 327.47 203.237 327.89C202.808 328.31 202.593 328.847 202.593 329.5C202.593 330.153 202.808 330.69 203.237 331.11C203.667 331.53 204.18 331.74 204.777 331.74C205.496 331.74 206.135 331.455 206.695 330.886L207.535 331.796C206.817 332.655 205.897 333.084 204.777 333.084C203.779 333.084 202.929 332.734 202.229 332.034C201.539 331.334 201.193 330.489 201.193 329.5C201.193 328.511 201.539 327.666 202.229 326.966C202.929 326.266 203.779 325.916 204.777 325.916ZM215.941 333H214.541V328.296L210.425 333H209.543V326H210.943V330.704L215.059 326H215.941V333ZM221.328 328.086L219.144 333H217.66L220.894 326H221.762L224.996 333H223.526L221.328 328.086ZM228.128 328.142H230.144C230.695 328.142 231.166 328.217 231.558 328.366C231.95 328.506 232.244 328.702 232.44 328.954C232.646 329.206 232.79 329.463 232.874 329.724C232.958 329.985 233 330.265 233 330.564C233 330.863 232.958 331.147 232.874 331.418C232.79 331.679 232.646 331.936 232.44 332.188C232.244 332.44 231.95 332.641 231.558 332.79C231.166 332.93 230.695 333 230.144 333H226.728V326H228.128V328.142ZM228.128 331.698H230.298C231.166 331.698 231.6 331.32 231.6 330.564C231.6 329.817 231.166 329.444 230.298 329.444H228.128V331.698ZM241.482 333H240.082V330.13H236.4V333H235V326H236.4V328.786H240.082V326H241.482V333ZM247.133 325.902C248.131 325.902 248.981 326.257 249.681 326.966C250.381 327.666 250.731 328.511 250.731 329.5C250.731 330.489 250.381 331.334 249.681 332.034C248.981 332.734 248.131 333.084 247.133 333.084C246.134 333.084 245.285 332.734 244.585 332.034C243.894 331.334 243.549 330.489 243.549 329.5C243.549 328.501 243.899 327.652 244.599 326.952C245.299 326.252 246.143 325.902 247.133 325.902ZM248.673 327.89C248.243 327.461 247.73 327.246 247.133 327.246C246.535 327.246 246.022 327.461 245.593 327.89C245.163 328.31 244.949 328.847 244.949 329.5C244.949 330.153 245.163 330.69 245.593 331.11C246.022 331.53 246.535 331.74 247.133 331.74C247.73 331.74 248.243 331.53 248.673 331.11C249.111 330.681 249.331 330.144 249.331 329.5C249.331 328.847 249.111 328.31 248.673 327.89ZM257.394 326H261.062C261.856 326 262.439 326.163 262.812 326.49C263.195 326.817 263.386 327.274 263.386 327.862C263.386 328.618 263.06 329.113 262.406 329.346C262.836 329.439 263.162 329.631 263.386 329.92C263.61 330.2 263.722 330.55 263.722 330.97C263.722 331.67 263.508 332.183 263.078 332.51C262.658 332.837 261.991 333 261.076 333H257.394V326ZM258.794 327.19V328.87H260.992C261.664 328.87 262 328.59 262 328.03C262 327.47 261.66 327.19 260.978 327.19H258.794ZM258.794 331.81H261.118C261.921 331.81 262.322 331.493 262.322 330.858C262.322 330.223 261.926 329.906 261.132 329.906L258.794 329.892V331.81ZM267.216 328.142H269.232C269.783 328.142 270.254 328.217 270.646 328.366C271.038 328.506 271.332 328.702 271.528 328.954C271.734 329.206 271.878 329.463 271.962 329.724C272.046 329.985 272.088 330.265 272.088 330.564C272.088 330.863 272.046 331.147 271.962 331.418C271.878 331.679 271.734 331.936 271.528 332.188C271.332 332.44 271.038 332.641 270.646 332.79C270.254 332.93 269.783 333 269.232 333H265.816V326H267.216V328.142ZM274.258 333H272.858V326H274.258V333ZM267.216 331.698H269.386C270.254 331.698 270.688 331.32 270.688 330.564C270.688 329.817 270.254 329.444 269.386 329.444H267.216V331.698ZM279.596 330.536L277.608 333H275.984L278.812 329.374L276.138 326H277.762L279.638 328.268L281.472 326H283.096L280.422 329.43L283.25 333H281.626L279.596 330.536ZM287.916 325.902C288.915 325.902 289.764 326.257 290.464 326.966C291.164 327.666 291.514 328.511 291.514 329.5C291.514 330.489 291.164 331.334 290.464 332.034C289.764 332.734 288.915 333.084 287.916 333.084C286.917 333.084 286.068 332.734 285.368 332.034C284.677 331.334 284.332 330.489 284.332 329.5C284.332 328.501 284.682 327.652 285.382 326.952C286.082 326.252 286.927 325.902 287.916 325.902ZM289.456 327.89C289.027 327.461 288.513 327.246 287.916 327.246C287.319 327.246 286.805 327.461 286.376 327.89C285.947 328.31 285.732 328.847 285.732 329.5C285.732 330.153 285.947 330.69 286.376 331.11C286.805 331.53 287.319 331.74 287.916 331.74C288.513 331.74 289.027 331.53 289.456 331.11C289.895 330.681 290.114 330.144 290.114 329.5C290.114 328.847 289.895 328.31 289.456 327.89ZM300.797 334.428H299.411V333H294.091V334.428H292.691V331.656H293.699L296.303 326H297.185L299.789 331.656H300.797V334.428ZM296.751 328.086L295.141 331.656H298.375L296.751 328.086ZM308.349 333H306.949V330.844H305.731C305.376 330.853 305.106 330.933 304.919 331.082C304.732 331.231 304.494 331.525 304.205 331.964L303.505 333H301.979L302.791 331.768C302.819 331.731 302.875 331.647 302.959 331.516C303.052 331.376 303.118 331.283 303.155 331.236C303.192 331.189 303.248 331.119 303.323 331.026C303.398 330.933 303.463 330.858 303.519 330.802C303.584 330.746 303.654 330.695 303.729 330.648C303.225 330.508 302.819 330.237 302.511 329.836C302.212 329.435 302.063 328.991 302.063 328.506C302.063 327.806 302.301 327.213 302.777 326.728C303.262 326.243 304.018 326 305.045 326H308.349V333ZM306.949 327.344H304.905C304.438 327.344 304.079 327.447 303.827 327.652C303.584 327.857 303.463 328.142 303.463 328.506C303.463 328.861 303.584 329.141 303.827 329.346C304.079 329.551 304.438 329.654 304.905 329.654H306.949V327.344ZM313.615 327.344V333H312.215V327.344H309.849V326H315.995V327.344H313.615ZM115.875 350.346C116.771 350.542 117.219 351.083 117.219 351.97C117.219 352.651 116.957 353.174 116.435 353.538C115.921 353.902 115.235 354.089 114.377 354.098H114.195C113.523 354.098 112.893 353.963 112.305 353.692C111.726 353.412 111.325 353.09 111.101 352.726L111.871 351.9C112.113 352.18 112.44 352.404 112.851 352.572C113.261 352.74 113.7 352.824 114.167 352.824H114.335C114.783 352.824 115.142 352.735 115.413 352.558C115.683 352.371 115.819 352.11 115.819 351.774C115.819 351.149 115.422 350.831 114.629 350.822H113.453V349.954H114.489C115.161 349.945 115.497 349.665 115.497 349.114C115.497 348.806 115.375 348.573 115.133 348.414C114.899 348.255 114.596 348.176 114.223 348.176H114.097C113.322 348.176 112.65 348.451 112.081 349.002L111.339 348.19C111.647 347.817 112.057 347.509 112.571 347.266C113.084 347.023 113.63 346.902 114.209 346.902H114.335C115.053 346.902 115.655 347.075 116.141 347.42C116.635 347.756 116.883 348.218 116.883 348.806C116.883 349.59 116.547 350.103 115.875 350.346ZM125.993 354H125.041L124.957 352.712C124.695 353.132 124.336 353.468 123.879 353.72C123.421 353.963 122.922 354.084 122.381 354.084C121.391 354.084 120.565 353.739 119.903 353.048C119.249 352.348 118.923 351.499 118.923 350.5C118.923 349.492 119.249 348.643 119.903 347.952C120.565 347.252 121.391 346.902 122.381 346.902C122.922 346.902 123.421 347.028 123.879 347.28C124.336 347.532 124.695 347.868 124.957 348.288L125.041 347H125.993V354ZM120.967 352.11C121.396 352.53 121.909 352.74 122.507 352.74C123.104 352.74 123.617 352.53 124.047 352.11C124.485 351.681 124.705 351.144 124.705 350.5C124.705 349.847 124.485 349.31 124.047 348.89C123.617 348.461 123.104 348.246 122.507 348.246C121.909 348.246 121.396 348.461 120.967 348.89C120.537 349.31 120.323 349.847 120.323 350.5C120.323 351.153 120.537 351.69 120.967 352.11ZM134.483 348.344V354H133.083V347H138.403V348.344H134.483ZM143.82 346.916C144.809 346.916 145.63 347.266 146.284 347.966C146.946 348.657 147.278 349.501 147.278 350.5C147.278 351.508 146.946 352.362 146.284 353.062C145.63 353.753 144.809 354.098 143.82 354.098C143.362 354.098 142.938 353.995 142.546 353.79C142.154 353.575 141.841 353.291 141.608 352.936V356.576H140.208V347H141.16L141.244 348.288C141.505 347.868 141.864 347.537 142.322 347.294C142.779 347.042 143.278 346.916 143.82 346.916ZM145.248 348.89C144.818 348.47 144.305 348.26 143.708 348.26C143.11 348.26 142.592 348.475 142.154 348.904C141.724 349.324 141.51 349.856 141.51 350.5C141.51 351.144 141.724 351.681 142.154 352.11C142.592 352.53 143.11 352.74 143.708 352.74C144.305 352.74 144.818 352.53 145.248 352.11C145.677 351.69 145.892 351.153 145.892 350.5C145.892 349.847 145.677 349.31 145.248 348.89ZM156.002 354H155.05L154.966 352.712C154.705 353.132 154.346 353.468 153.888 353.72C153.431 353.963 152.932 354.084 152.39 354.084C151.401 354.084 150.575 353.739 149.912 353.048C149.259 352.348 148.932 351.499 148.932 350.5C148.932 349.492 149.259 348.643 149.912 347.952C150.575 347.252 151.401 346.902 152.39 346.902C152.932 346.902 153.431 347.028 153.888 347.28C154.346 347.532 154.705 347.868 154.966 348.288L155.05 347H156.002V354ZM150.976 352.11C151.406 352.53 151.919 352.74 152.516 352.74C153.114 352.74 153.627 352.53 154.056 352.11C154.495 351.681 154.714 351.144 154.714 350.5C154.714 349.847 154.495 349.31 154.056 348.89C153.627 348.461 153.114 348.246 152.516 348.246C151.919 348.246 151.406 348.461 150.976 348.89C150.547 349.31 150.332 349.847 150.332 350.5C150.332 351.153 150.547 351.69 150.976 352.11ZM164.981 354H163.581V351.13H159.899V354H158.499V347H159.899V349.786H163.581V347H164.981V354ZM173.866 354H172.466V349.296L168.35 354H167.468V347H168.868V351.704L172.984 347H173.866V354ZM183.956 355.428H182.556V354H176.354V347H177.754V352.656H181.352V347H182.752V352.656H183.956V355.428ZM192.371 347V353.118C192.371 354.173 192.063 355.027 191.447 355.68C190.84 356.343 190 356.674 188.927 356.674C187.751 356.674 186.733 356.315 185.875 355.596L186.673 354.742C187.401 355.181 188.152 355.4 188.927 355.4C189.571 355.4 190.07 355.227 190.425 354.882C190.789 354.537 190.971 354.047 190.971 353.412V352.768C190.737 353.16 190.415 353.454 190.005 353.65C189.603 353.837 189.179 353.93 188.731 353.93C187.76 353.93 187.009 353.631 186.477 353.034C185.945 352.437 185.679 351.615 185.679 350.57V347H187.079V350.486C187.079 351.886 187.699 352.586 188.941 352.586C189.575 352.586 190.075 352.385 190.439 351.984C190.803 351.573 190.985 350.985 190.985 350.22V347H192.371ZM202.556 346.902C203.554 346.902 204.404 347.257 205.104 347.966C205.804 348.666 206.154 349.511 206.154 350.5C206.154 351.489 205.804 352.334 205.104 353.034C204.404 353.734 203.554 354.084 202.556 354.084C201.557 354.084 200.708 353.734 200.008 353.034C199.317 352.334 198.972 351.489 198.972 350.5C198.972 349.501 199.322 348.652 200.022 347.952C200.722 347.252 201.566 346.902 202.556 346.902ZM204.096 348.89C203.666 348.461 203.153 348.246 202.556 348.246C201.958 348.246 201.445 348.461 201.016 348.89C200.586 349.31 200.372 349.847 200.372 350.5C200.372 351.153 200.586 351.69 201.016 352.11C201.445 352.53 201.958 352.74 202.556 352.74C203.153 352.74 203.666 352.53 204.096 352.11C204.534 351.681 204.754 351.144 204.754 350.5C204.754 349.847 204.534 349.31 204.096 348.89ZM213.278 344.2H214.664C214.664 344.816 214.468 345.273 214.076 345.572C213.693 345.871 213.054 346.02 212.158 346.02H211.794C210.982 346.02 210.347 346.202 209.89 346.566C209.432 346.921 209.204 347.448 209.204 348.148V348.54C209.418 348.12 209.745 347.784 210.184 347.532C210.622 347.271 211.108 347.14 211.64 347.14C212.62 347.14 213.422 347.462 214.048 348.106C214.673 348.741 214.986 349.539 214.986 350.5C214.986 351.527 214.65 352.385 213.978 353.076C213.315 353.767 212.452 354.112 211.388 354.112C210.361 354.112 209.507 353.767 208.826 353.076C208.144 352.385 207.804 351.489 207.804 350.388V348.624C207.804 347.401 208.158 346.463 208.868 345.81C209.586 345.157 210.594 344.83 211.892 344.83C212.433 344.83 212.797 344.788 212.984 344.704C213.18 344.611 213.278 344.443 213.278 344.2ZM211.402 348.428C210.804 348.428 210.286 348.638 209.848 349.058C209.418 349.469 209.204 349.982 209.204 350.598C209.204 351.223 209.414 351.741 209.834 352.152C210.263 352.563 210.786 352.768 211.402 352.768C212.008 352.768 212.522 352.563 212.942 352.152C213.371 351.741 213.586 351.223 213.586 350.598C213.586 349.982 213.366 349.469 212.928 349.058C212.498 348.638 211.99 348.428 211.402 348.428ZM219.557 349.086L217.373 354H215.889L219.123 347H219.991L223.225 354H221.755L219.557 349.086ZM227.684 346.902C228.683 346.902 229.532 347.257 230.232 347.966C230.932 348.666 231.282 349.511 231.282 350.5C231.282 351.489 230.932 352.334 230.232 353.034C229.532 353.734 228.683 354.084 227.684 354.084C226.686 354.084 225.836 353.734 225.136 353.034C224.446 352.334 224.1 351.489 224.1 350.5C224.1 349.501 224.45 348.652 225.15 347.952C225.85 347.252 226.695 346.902 227.684 346.902ZM229.224 348.89C228.795 348.461 228.282 348.246 227.684 348.246C227.087 348.246 226.574 348.461 226.144 348.89C225.715 349.31 225.5 349.847 225.5 350.5C225.5 351.153 225.715 351.69 226.144 352.11C226.574 352.53 227.087 352.74 227.684 352.74C228.282 352.74 228.795 352.53 229.224 352.11C229.663 351.681 229.882 351.144 229.882 350.5C229.882 349.847 229.663 349.31 229.224 348.89ZM242.151 354L240.975 352.18C240.686 351.732 240.443 351.438 240.247 351.298C240.06 351.149 239.766 351.074 239.365 351.074H238.707V354H237.307V351.074H236.663C236.262 351.074 235.963 351.149 235.767 351.298C235.571 351.447 235.328 351.741 235.039 352.18L233.863 354H232.309L233.877 351.606C234.334 350.897 234.745 350.486 235.109 350.374C234.81 350.253 234.432 349.856 233.975 349.184L232.547 347H234.101L235.151 348.596C235.44 349.044 235.678 349.343 235.865 349.492C236.061 349.641 236.36 349.716 236.761 349.716H237.307V347H238.707V349.716H239.253C239.654 349.716 239.948 349.646 240.135 349.506C240.331 349.357 240.578 349.053 240.877 348.596L241.913 347H243.481L242.039 349.184C241.6 349.847 241.222 350.243 240.905 350.374C241.26 350.486 241.675 350.897 242.151 351.606L243.705 354H242.151ZM250.478 354L249.302 352.18C249.013 351.741 248.77 351.447 248.574 351.298C248.378 351.149 248.084 351.074 247.692 351.074H246.908V354H245.508V347H246.908V349.716H247.58C247.982 349.716 248.276 349.641 248.462 349.492C248.658 349.343 248.901 349.044 249.19 348.596L250.24 347H251.794L250.366 349.184C249.909 349.856 249.531 350.253 249.232 350.374C249.596 350.486 250.007 350.897 250.464 351.606L252.032 354H250.478ZM260.081 354H258.681V349.296L254.565 354H253.683V347H255.083V351.704L259.199 347H260.081V354ZM262.149 345.012V343.584C263.251 344.172 264.133 345.026 264.795 346.146C265.467 347.266 265.813 348.433 265.831 349.646V349.842C265.831 351.065 265.495 352.236 264.823 353.356C264.151 354.476 263.26 355.344 262.149 355.96V354.532C262.803 353.972 263.325 353.267 263.717 352.418C264.109 351.569 264.305 350.71 264.305 349.842V349.646C264.296 348.787 264.095 347.938 263.703 347.098C263.311 346.249 262.793 345.553 262.149 345.012Z" fill="#2B2A29"/>
<g clip-path="url(#clip0)">
<path d="M246.751 82.16L230.981 71.95L222.481 194.34C183.691 208.15 141.711 224.97 102.801 236.93C98.3008 238.26 95.3308 240.82 93.7808 243.75C92.8308 245.54 92.4108 247.47 92.4908 249.34C92.5708 251.19 93.1508 252.98 94.2008 254.51C95.7008 256.69 98.1808 258.34 101.561 258.89L245.891 259.93L263.471 247.47L111.801 251.79L111.711 251.78C109.711 251.45 108.441 250.53 107.771 249.37C107.361 248.66 107.181 247.88 107.211 247.09C107.241 246.33 107.461 245.56 107.851 244.88C108.581 243.59 109.911 242.56 111.651 242.28L242.381 201.72L246.751 82.16ZM230.651 69.36L248.791 81.1C247.301 121.8 245.811 162.5 244.331 203.2C200.251 216.89 156.171 230.55 112.091 244.23L112.021 244.24C110.901 244.4 110.061 245.05 109.601 245.86C109.371 246.27 109.231 246.72 109.221 247.16C109.201 247.58 109.301 248 109.511 248.37C109.891 249.03 110.681 249.57 111.961 249.8L270.001 245.28L246.531 261.92C198.151 261.58 149.781 261.23 101.401 260.88L101.331 260.87C97.3208 260.24 94.3708 258.27 92.5608 255.65C91.2908 253.81 90.6008 251.66 90.5008 249.43C90.4008 247.22 90.9008 244.94 92.0208 242.83C93.8008 239.46 97.1608 236.54 102.201 235.04L220.581 192.91L229.231 68.45L230.651 69.36Z" fill="#1D1D1B"/>
<path d="M221.63 193.36L243.46 202.2L243.25 202.72L221.42 193.89L221.63 193.36Z" fill="#1D1D1B"/>
<path d="M233.019 71.91C227.459 151.47 224.359 194.89 224.349 195.02L224.329 195.26L224.099 195.34C142.339 225.01 102.019 238.48 101.899 238.52C98.6891 239.72 96.4291 242.12 95.3091 244.83C94.6491 246.42 94.3791 248.13 94.5491 249.75C94.7191 251.36 95.3091 252.9 96.3791 254.17C97.8991 255.99 100.379 257.29 103.939 257.56C199.029 257.73 248.419 258.4 248.569 258.4L248.559 259.15C248.419 259.15 199.009 258.48 103.909 258.31H103.879C100.099 258.03 97.4391 256.62 95.7991 254.66C94.6391 253.26 93.9791 251.59 93.7991 249.84C93.6191 248.1 93.8991 246.27 94.6091 244.56C95.8091 241.67 98.2191 239.1 101.649 237.83H101.659C101.779 237.79 142.019 224.35 223.609 194.74C223.859 191.21 226.949 147.98 232.269 71.88L233.019 71.91Z" fill="#1D1D1B"/>
<path d="M239.309 75.94L231.789 197.65L231.039 197.61L238.559 75.89L239.309 75.94Z" fill="#1D1D1B"/>
<path d="M245.549 80.25L239.699 200.85L238.949 200.81L244.799 80.21L245.549 80.25Z" fill="#1D1D1B"/>
<path d="M235.14 73.25L226.41 195.48L225.66 195.42L234.4 73.19L235.14 73.25Z" fill="#1D1D1B"/>
<path d="M237.63 74.03L228.9 196.26L228.15 196.2L236.88 73.97L237.63 74.03Z" fill="#1D1D1B"/>
<path d="M243.54 79.17L237.1 199.8L236.35 199.76L242.79 79.14L243.54 79.17Z" fill="#1D1D1B"/>
<path d="M241.52 77.6L234.18 198.62L233.43 198.57L240.77 77.56L241.52 77.6Z" fill="#1D1D1B"/>
<path d="M226.129 195.72C143.679 225.5 102.089 240.03 101.499 240.23C99.4491 241.06 97.8291 242.89 96.9691 245.04C96.4191 246.39 96.1791 247.87 96.3291 249.29C96.4791 250.7 97.0091 252.06 97.9991 253.19C99.3391 254.71 101.519 255.83 104.749 256.15C201.669 256.56 250.369 256.88 250.509 256.88V257.44C250.369 257.44 201.669 257.12 104.739 256.71H104.709C101.319 256.38 99.0091 255.19 97.5791 253.56C96.4991 252.33 95.9291 250.86 95.7691 249.34C95.6091 247.83 95.8691 246.26 96.4491 244.82C97.3691 242.54 99.0991 240.59 101.299 239.7H101.309C101.429 239.66 143.039 225.13 225.949 195.18L226.129 195.72Z" fill="#1D1D1B"/>
<path d="M228.841 196.38C145.911 226.34 103.301 241.3 103.181 241.34L103.161 241.35C101.081 241.92 99.5109 243.67 98.7909 245.74C98.4209 246.79 98.281 247.93 98.411 249.03C98.541 250.12 98.9309 251.18 99.6309 252.08C100.911 253.72 103.231 254.88 106.871 254.88C203.801 255.29 254.031 255 254.181 255V255.56C254.031 255.56 203.801 255.86 106.871 255.44C103.031 255.45 100.561 254.2 99.1809 252.43C98.4109 251.44 97.9809 250.28 97.8409 249.09C97.7009 247.91 97.8609 246.69 98.2509 245.55C99.0209 243.32 100.731 241.43 102.991 240.8C103.311 240.69 145.921 225.72 228.641 195.84L228.841 196.38Z" fill="#1D1D1B"/>
<path d="M231.51 197.89C152.94 226.27 104.83 242.54 104.34 242.71C102.74 243.33 101.57 244.67 101.04 246.21C100.74 247.07 100.65 248 100.81 248.88C100.96 249.76 101.36 250.6 102.05 251.31C103.23 252.54 105.26 253.38 108.34 253.36C200.53 253.75 256.32 253.37 256.48 253.37V253.93C256.32 253.93 200.52 254.31 108.33 253.92C105.07 253.94 102.9 253.03 101.63 251.7C100.86 250.9 100.42 249.96 100.24 248.97C100.07 247.99 100.17 246.97 100.5 246.02C101.08 244.34 102.37 242.86 104.13 242.18H104.14C104.28 242.13 152.46 225.85 231.31 197.36L231.51 197.89Z" fill="#1D1D1B"/>
<path d="M233.9 198.86C150.98 228.81 106.72 243.47 106.59 243.51H106.58C105.2 243.92 104.04 245.05 103.51 246.36C103.24 247.01 103.13 247.7 103.23 248.37C103.32 249.03 103.62 249.67 104.16 250.23C105.25 251.35 107.34 252.14 110.82 252.11C207.75 252.52 258.91 251.52 259.06 251.52L259.07 252.08C258.92 252.08 207.76 253.09 110.82 252.67C107.17 252.7 104.94 251.84 103.75 250.62C103.12 249.97 102.77 249.22 102.66 248.44C102.55 247.67 102.68 246.88 102.98 246.14C103.58 244.68 104.87 243.42 106.41 242.96C106.83 242.82 151.05 228.17 233.7 198.31L233.9 198.86Z" fill="#1D1D1B"/>
<path d="M236.711 200.09C153.781 230.05 108.95 243.87 108.82 243.91C107.56 244.29 106.72 245.13 106.36 246.11C106.15 246.66 106.09 247.26 106.18 247.84C106.27 248.42 106.52 248.99 106.92 249.48C107.71 250.45 109.121 251.14 111.191 251.15C208.11 251.56 261.74 249.03 261.9 249.02L261.921 249.58C261.761 249.59 208.131 252.12 111.191 251.71C108.931 251.7 107.37 250.92 106.49 249.83C106.02 249.26 105.73 248.59 105.63 247.91C105.52 247.23 105.59 246.54 105.84 245.9C106.27 244.76 107.23 243.79 108.67 243.36C108.89 243.29 153.701 229.47 236.531 199.55L236.711 200.09Z" fill="#1D1D1B"/>
<path d="M239.449 200.95L115.109 242.64L114.869 241.93L239.219 200.24L239.449 200.95Z" fill="#1D1D1B"/>
<path d="M230.1 70.2L108.66 119.65L92.5598 247.57L90.5898 247.32L106.84 118.24L229.37 68.35L230.1 70.2Z" fill="#1D1D1B"/>
<path d="M265.46 50.4H247.57V48.4H264.9L294.39 30.69H244.16V28.69H297V7.89001H299V30.25L265.46 50.4Z" fill="#1D1D1B"/>
<path d="M272.621 45.41H245.771V44.41H272.621V45.41ZM278.441 41.63H244.771V40.63H278.441V41.63ZM286.991 36.52H244.141V35.52H286.991V36.52Z" fill="#1D1D1B"/>
<path d="M277.63 69.06C258.59 69.06 243.1 53.57 243.1 34.53C243.1 15.49 258.59 0 277.63 0C296.67 0 312.16 15.49 312.16 34.53C312.16 53.57 296.67 69.06 277.63 69.06ZM277.63 2C259.7 2 245.1 16.59 245.1 34.53C245.1 52.47 259.69 67.06 277.63 67.06C295.57 67.06 310.16 52.47 310.16 34.53C310.16 16.59 295.57 2 277.63 2Z" fill="#E5541F"/>
<path d="M247.399 92.41L263.199 93.36L269.99 245.41L268 245.5L261.299 95.25L247.279 94.4L247.399 92.41Z" fill="#1D1D1B"/>
<path d="M33.5 159.15H132.8V209.85H33.5V159.15Z" fill="white" stroke="#9B51E0" stroke-width="2.9999" stroke-miterlimit="22.9256" stroke-dasharray="30 30"/>
<path fill-rule="evenodd" clip-rule="evenodd" d="M46.9997 180.15C34.9997 182.96 38.5997 195.26 46.9997 195.45C46.9997 195.45 73.4497 196.95 126.35 199.95C126.35 199.95 123.15 197.2 116.75 191.7C116.75 191.7 93.7997 191.25 47.8997 190.35C44.5197 190.2 44.0997 185.37 48.1997 184.65C48.1997 184.65 70.8997 182.15 116.3 177.15C116.3 177.15 119.1 174 124.7 167.7C72.8997 176 46.9997 180.15 46.9997 180.15Z" fill="#1D1D1B"/>
<circle cx="263.5" cy="244.5" r="13.5" stroke="#E25D23" stroke-width="2"/>
</g>
<defs>
<clipPath id="clip0">
<rect width="280.16" height="266.72" fill="white" transform="translate(32)"/>
</clipPath>
</defs>
</svg>
