<?xml version="1.0" encoding="utf-8"?>
<!-- Generator: Adobe Illustrator 24.1.1, SVG Export Plug-In . SVG Version: 6.00 Build 0)  -->
<svg version="1.1" id="Слой_1" xmlns="http://www.w3.org/2000/svg" xmlns:xlink="http://www.w3.org/1999/xlink" x="0px" y="0px"
	 viewBox="0 0 377 358" style="enable-background:new 0 0 377 358;" xml:space="preserve">
<style type="text/css">
	.st0{fill:#2B2A29;}
	.st1{fill:none;}
	.st2{clip-path:url(#SVGID_2_);fill:#E55C2A;}
	.st3{clip-path:url(#SVGID_2_);fill:#FBEDE8;}
	.st4{clip-path:url(#SVGID_4_);}
	.st5{fill:#FEFDFD;}
	.st6{fill:#E55B28;}
	.st7{fill:#FCF2EE;}
</style>
<path class="st0" d="M107.1,304h3.7c0.5,0,1,0.1,1.4,0.2s0.7,0.3,1,0.4c0.2,0.2,0.4,0.4,0.6,0.6c0.1,0.2,0.2,0.5,0.3,0.7
	c0,0.2,0.1,0.4,0.1,0.7c0,1.1-0.5,1.8-1.4,2.1c0.6,0.1,1,0.4,1.4,0.8c0.3,0.4,0.5,0.9,0.5,1.6c0,1.8-1.2,2.8-3.5,2.8h-3.9V304H107.1
	z M108.6,305.4v2.7h2.3c1.1,0,1.7-0.4,1.7-1.3s-0.6-1.3-1.7-1.3h-2.3V305.4z M108.6,309.4v3h2.7c1.2,0,1.8-0.5,1.8-1.5
	c0-0.4-0.1-0.8-0.4-1.1c-0.3-0.3-0.7-0.4-1.3-0.4H108.6z M123,313.8h-1.4v-2.9h-3.7v2.9h-1.4v-7h1.4v2.8h3.7v-2.8h1.4V313.8z
	 M132.1,306.8v6.1c0,1.1-0.3,1.9-0.9,2.6c-0.6,0.7-1.4,1-2.5,1c-1.2,0-2.2-0.4-3.1-1.1l0.8-0.9c0.7,0.4,1.5,0.7,2.3,0.7
	c0.6,0,1.1-0.2,1.5-0.5s0.5-0.8,0.5-1.5v-0.6c-0.2,0.4-0.6,0.7-1,0.9c-0.4,0.2-0.8,0.3-1.3,0.3c-1,0-1.7-0.3-2.3-0.9
	c-0.5-0.6-0.8-1.4-0.8-2.5v-3.6h1.4v3.5c0,1.4,0.6,2.1,1.9,2.1c0.6,0,1.1-0.2,1.5-0.6s0.5-1,0.5-1.8v-3.2H132.1z M137.6,308.1v5.7
	h-1.4v-5.7h-2.4v-1.3h6.1v1.3H137.6z M145.4,306.7c1,0,1.8,0.4,2.5,1.1s1,1.5,1,2.5s-0.3,1.9-1,2.6s-1.5,1-2.5,1
	c-0.5,0-0.9-0.1-1.3-0.3c-0.4-0.2-0.7-0.5-0.9-0.9v3.6h-1.4v-9.6h1l0.1,1.3c0.3-0.4,0.6-0.8,1.1-1
	C144.3,306.8,144.8,306.7,145.4,306.7z M146.8,308.7c-0.4-0.4-0.9-0.6-1.5-0.6s-1.1,0.2-1.6,0.6c-0.4,0.4-0.6,1-0.6,1.6
	s0.2,1.2,0.6,1.6c0.4,0.4,1,0.6,1.6,0.6s1.1-0.2,1.5-0.6s0.6-1,0.6-1.6S147.2,309.1,146.8,308.7z M154,306.7c0.7,0,1.4,0.2,1.9,0.5
	s0.9,0.8,1.2,1.5c0.1,0.3,0.2,0.6,0.2,1s0,0.7-0.1,1h-5.3c0,0.6,0.2,1.1,0.6,1.4c0.4,0.3,0.9,0.5,1.6,0.5c0.8,0,1.6-0.2,2.3-0.6
	l0.8,0.8c-0.9,0.7-1.9,1.1-3,1.1s-1.9-0.3-2.6-1s-1-1.5-1-2.6c0-1,0.3-1.9,1-2.6C152.1,307,152.9,306.7,154,306.7z M154,308
	c-0.6,0-1.1,0.2-1.4,0.5c-0.4,0.3-0.6,0.8-0.6,1.3h4c0-0.2-0.1-0.5-0.2-0.7c-0.1-0.3-0.4-0.6-0.7-0.8S154.4,308,154,308z M166,313.8
	h-1.4v-2.9h-3.7v2.9h-1.4v-7h1.4v2.8h3.7v-2.8h1.4V313.8z M175,313.8h-1.4v-2.9h-3.7v2.9h-1.4v-7h1.4v2.8h3.7v-2.8h1.4V313.8z
	 M183.9,313.8h-1.4v-4.7l-4.1,4.7h-0.9v-7h1.4v4.7l4.1-4.7h0.9V313.8z M191,305.5c-0.4,0.4-0.9,0.6-1.5,0.6s-1.1-0.2-1.5-0.6
	s-0.6-0.8-0.6-1.4h1c0,0.3,0.1,0.5,0.3,0.7s0.5,0.3,0.8,0.3s0.6-0.1,0.8-0.3c0.2-0.2,0.3-0.4,0.3-0.7h1
	C191.6,304.7,191.4,305.2,191,305.5z M192.7,313.8h-1.4v-4.7l-4.1,4.7h-0.9v-7h1.4v4.7l4.1-4.7h0.9V313.8z M203.5,306.7
	c1,0,1.8,0.4,2.5,1.1s1,1.5,1,2.5s-0.3,1.9-1,2.6s-1.5,1-2.5,1c-0.5,0-0.9-0.1-1.3-0.3c-0.4-0.2-0.7-0.5-0.9-0.9v3.6h-1.4v-9.6h1
	l0.1,1.3c0.3-0.4,0.6-0.8,1.1-1C202.5,306.8,203,306.7,203.5,306.7z M204.9,308.7c-0.4-0.4-0.9-0.6-1.5-0.6s-1.1,0.2-1.6,0.6
	c-0.4,0.4-0.6,1-0.6,1.6s0.2,1.2,0.6,1.6c0.4,0.4,1,0.6,1.6,0.6s1.1-0.2,1.5-0.6s0.6-1,0.6-1.6S205.4,309.1,204.9,308.7z
	 M215.7,313.8h-1l-0.1-1.3c-0.3,0.4-0.6,0.8-1.1,1s-1,0.4-1.5,0.4c-1,0-1.8-0.3-2.5-1s-1-1.5-1-2.5s0.3-1.9,1-2.5
	c0.7-0.7,1.5-1,2.5-1c0.5,0,1,0.1,1.5,0.4s0.8,0.6,1.1,1l0.1-1.3h1V313.8z M210.7,311.9c0.4,0.4,0.9,0.6,1.5,0.6s1.1-0.2,1.5-0.6
	s0.7-1,0.7-1.6c0-0.7-0.2-1.2-0.7-1.6c-0.4-0.4-0.9-0.6-1.5-0.6s-1.1,0.2-1.5,0.6s-0.6,1-0.6,1.6S210.2,311.5,210.7,311.9z
	 M222.3,310.1c0.9,0.2,1.3,0.7,1.3,1.6c0,0.7-0.3,1.2-0.8,1.6s-1.2,0.6-2.1,0.6h-0.2c-0.7,0-1.3-0.1-1.9-0.4c-0.6-0.3-1-0.6-1.2-1
	l0.8-0.8c0.2,0.3,0.6,0.5,1,0.7s0.8,0.3,1.3,0.3h0.2c0.4,0,0.8-0.1,1.1-0.3c0.3-0.2,0.4-0.4,0.4-0.8c0-0.6-0.4-0.9-1.2-1h-1.2v-0.9
	h1c0.7,0,1-0.3,1-0.8c0-0.3-0.1-0.5-0.4-0.7c-0.2-0.2-0.5-0.2-0.9-0.2h-0.1c-0.8,0-1.4,0.3-2,0.8l-0.7-0.8c0.3-0.4,0.7-0.7,1.2-0.9
	c0.5-0.2,1.1-0.4,1.6-0.4h0.1c0.7,0,1.3,0.2,1.8,0.5s0.7,0.8,0.7,1.4C223.3,309.4,223,309.9,222.3,310.1z M225.8,306.8h3.7
	c0.8,0,1.4,0.2,1.8,0.5c0.4,0.3,0.6,0.8,0.6,1.4c0,0.8-0.3,1.3-1,1.5c0.4,0.1,0.8,0.3,1,0.6c0.2,0.3,0.3,0.6,0.3,1
	c0,0.7-0.2,1.2-0.6,1.5c-0.4,0.3-1.1,0.5-2,0.5h-3.7v-7H225.8z M227.2,308v1.7h2.2c0.7,0,1-0.3,1-0.8s-0.3-0.8-1-0.8h-2.2V308z
	 M227.2,312.6h2.3c0.8,0,1.2-0.3,1.2-1s-0.4-1-1.2-1h-2.3V312.6z M237.4,306.7c1,0,1.8,0.4,2.5,1.1s1,1.5,1,2.5s-0.3,1.8-1,2.5
	s-1.5,1.1-2.5,1.1s-1.8-0.4-2.5-1.1s-1-1.5-1-2.5s0.3-1.8,1.1-2.5C235.5,307.1,236.4,306.7,237.4,306.7z M238.9,308.7
	c-0.4-0.4-0.9-0.6-1.5-0.6s-1.1,0.2-1.5,0.6s-0.6,1-0.6,1.6s0.2,1.2,0.6,1.6c0.4,0.4,0.9,0.6,1.5,0.6s1.1-0.2,1.5-0.6s0.7-1,0.7-1.6
	C239.6,309.6,239.3,309.1,238.9,308.7z M246.8,306.7c1,0,1.8,0.4,2.5,1.1s1,1.5,1,2.5s-0.3,1.9-1,2.6s-1.5,1-2.5,1
	c-0.5,0-0.9-0.1-1.3-0.3c-0.4-0.2-0.7-0.5-0.9-0.9v3.6h-1.4v-9.6h1l0.1,1.3c0.3-0.4,0.6-0.8,1.1-1
	C245.7,306.8,246.2,306.7,246.8,306.7z M248.2,308.7c-0.4-0.4-0.9-0.6-1.5-0.6s-1.1,0.2-1.6,0.6c-0.4,0.4-0.6,1-0.6,1.6
	s0.2,1.2,0.6,1.6c0.4,0.4,1,0.6,1.6,0.6s1.1-0.2,1.5-0.6s0.6-1,0.6-1.6S248.6,309.1,248.2,308.7z M255.5,306.7c1,0,1.8,0.4,2.5,1.1
	s1.1,1.5,1.1,2.5s-0.4,1.8-1.1,2.5s-1.5,1.1-2.5,1.1s-1.8-0.4-2.5-1.1s-1-1.5-1-2.5s0.4-1.8,1-2.5S254.5,306.7,255.5,306.7z
	 M257,308.7c-0.4-0.4-0.9-0.6-1.5-0.6s-1.1,0.2-1.5,0.6s-0.6,1-0.6,1.6s0.2,1.2,0.6,1.6c0.4,0.4,0.9,0.6,1.5,0.6s1.1-0.2,1.5-0.6
	s0.7-1,0.7-1.6C257.7,309.6,257.4,309.1,257,308.7z M264,308.1v5.7h-1.4v-5.7h-2.4v-1.3h6.1v1.3H264z M102.7,324.4v1.4
	c-0.6,0.5-1.2,1.2-1.6,2.1c-0.4,0.8-0.6,1.7-0.6,2.5v0.2c0,0.9,0.2,1.7,0.6,2.6c0.4,0.8,0.9,1.6,1.6,2.1v1.4c-1.1-0.6-2-1.5-2.7-2.6
	s-1-2.3-1-3.5v-0.2c0-1.2,0.4-2.4,1-3.5S101.6,325,102.7,324.4z M111.2,334.8h-1.4v-4.7l-4.1,4.7h-0.9v-7h1.4v4.7l4.1-4.7h0.9V334.8
	z M120.1,334.8h-1.4v-2.9H115v2.9h-1.4v-7h1.4v2.8h3.7v-2.8h1.4V334.8z M131.5,327.7c1,0,1.8,0.4,2.5,1.1s1,1.5,1,2.5
	s-0.3,1.9-1,2.6s-1.5,1-2.5,1c-0.5,0-0.9-0.1-1.3-0.3c-0.4-0.2-0.7-0.5-0.9-0.8v3.5h-1.4v-3.5c-0.2,0.3-0.5,0.6-0.9,0.8
	c-0.4,0.2-0.8,0.3-1.3,0.3c-1,0-1.8-0.3-2.5-1s-1-1.6-1-2.6s0.3-1.8,1-2.5s1.5-1.1,2.5-1.1c0.5,0,1,0.1,1.5,0.4
	c0.4,0.2,0.8,0.6,1.1,1v-1.2h0.7v1.2c0.3-0.4,0.6-0.7,1.1-1C130.5,327.8,131,327.7,131.5,327.7z M124.2,332.9
	c0.4,0.4,0.9,0.6,1.5,0.6s1.1-0.2,1.5-0.6s0.7-1,0.7-1.6s-0.2-1.2-0.7-1.6c-0.4-0.4-0.9-0.6-1.5-0.6s-1.1,0.2-1.5,0.6
	s-0.6,1-0.6,1.6S123.8,332.5,124.2,332.9z M129.8,332.9c0.4,0.4,1,0.6,1.6,0.6s1.1-0.2,1.5-0.6s0.6-1,0.6-1.6s-0.2-1.2-0.6-1.6
	c-0.4-0.4-0.9-0.6-1.5-0.6s-1.1,0.2-1.6,0.6c-0.4,0.4-0.6,1-0.6,1.6S129.4,332.5,129.8,332.9z M140.2,327.7c1,0,1.8,0.4,2.5,1.1
	s1.1,1.5,1.1,2.5s-0.3,1.8-1.1,2.5c-0.7,0.7-1.5,1.1-2.5,1.1s-1.8-0.4-2.5-1.1s-1-1.5-1-2.5s0.3-1.8,1-2.5
	C138.3,328.1,139.2,327.7,140.2,327.7z M141.7,329.7c-0.4-0.4-0.9-0.6-1.5-0.6s-1.1,0.2-1.5,0.6s-0.6,1-0.6,1.6s0.2,1.2,0.6,1.6
	c0.4,0.4,0.9,0.6,1.5,0.6s1.1-0.2,1.5-0.6s0.7-1,0.7-1.6C142.4,330.6,142.2,330.1,141.7,329.7z M149.6,327.7c1,0,1.8,0.4,2.5,1.1
	s1,1.5,1,2.5s-0.3,1.9-1,2.6s-1.5,1-2.5,1c-0.5,0-0.9-0.1-1.3-0.3c-0.4-0.2-0.7-0.5-0.9-0.9v3.6H146v-9.6h1l0.1,1.3
	c0.3-0.4,0.6-0.8,1.1-1C148.5,327.8,149,327.7,149.6,327.7z M151,329.7c-0.4-0.4-0.9-0.6-1.5-0.6s-1.1,0.2-1.6,0.6
	c-0.4,0.4-0.6,1-0.6,1.6s0.2,1.2,0.6,1.6c0.4,0.4,1,0.6,1.6,0.6s1.1-0.2,1.5-0.6s0.6-1,0.6-1.6S151.4,330.1,151,329.7z M162.4,334.8
	H161v-4.7l-2.3,2.6l-2.3-2.6v4.7H155v-7h0.9l2.8,3.2l2.8-3.2h0.9V334.8z M171.6,334.8h-1l-0.1-1.3c-0.3,0.4-0.6,0.8-1.1,1
	s-1,0.4-1.5,0.4c-1,0-1.8-0.3-2.5-1s-1-1.5-1-2.5s0.3-1.9,1-2.5c0.7-0.7,1.5-1,2.5-1c0.5,0,1,0.1,1.5,0.4s0.8,0.6,1.1,1l0.1-1.3h1
	V334.8z M166.6,332.9c0.4,0.4,0.9,0.6,1.5,0.6s1.1-0.2,1.5-0.6s0.7-1,0.7-1.6c0-0.7-0.2-1.2-0.7-1.6c-0.4-0.4-0.9-0.6-1.5-0.6
	s-1.1,0.2-1.5,0.6s-0.6,1-0.6,1.6S166.1,332.5,166.6,332.9z M181.7,336.2h-1.4v-1.4h-6.2v-7h1.4v5.7h3.6v-5.7h1.4v5.7h1.2V336.2z
	 M189.8,334.8h-1.4v-4.7l-4.1,4.7h-0.9v-7h1.4v4.7l4.1-4.7h0.9V334.8z M198.1,334.8h-1.4v-2.2h-1.2c-0.4,0-0.6,0.1-0.8,0.2
	s-0.4,0.4-0.7,0.9l-0.7,1h-1.5l0.8-1.2c0,0,0.1-0.1,0.2-0.3c0.1-0.1,0.2-0.2,0.2-0.3c0,0,0.1-0.1,0.2-0.2c0.1-0.1,0.1-0.2,0.2-0.2
	c0.1-0.1,0.1-0.1,0.2-0.2c-0.5-0.1-0.9-0.4-1.2-0.8s-0.4-0.8-0.4-1.3c0-0.7,0.2-1.3,0.7-1.8s1.2-0.7,2.3-0.7h3.3v7.1H198.1z
	 M196.7,329.1h-2c-0.5,0-0.8,0.1-1.1,0.3c-0.2,0.2-0.4,0.5-0.4,0.9s0.1,0.6,0.4,0.8c0.3,0.2,0.6,0.3,1.1,0.3h2V329.1z M209.3,331.1
	c0.9,0.2,1.3,0.7,1.3,1.6c0,0.7-0.3,1.2-0.8,1.6s-1.2,0.6-2.1,0.6h-0.2c-0.7,0-1.3-0.1-1.9-0.4c-0.6-0.3-1-0.6-1.2-1l0.8-0.8
	c0.2,0.3,0.6,0.5,1,0.7s0.8,0.3,1.3,0.3h0.2c0.4,0,0.8-0.1,1.1-0.3c0.3-0.2,0.4-0.4,0.4-0.8c0-0.6-0.4-0.9-1.2-1h-1.2v-0.9h1
	c0.7,0,1-0.3,1-0.8c0-0.3-0.1-0.5-0.4-0.7c-0.2-0.2-0.5-0.2-0.9-0.2h-0.1c-0.8,0-1.4,0.3-2,0.8l-0.7-0.8c0.3-0.4,0.7-0.7,1.2-0.9
	c0.5-0.2,1.1-0.4,1.6-0.4h0.1c0.7,0,1.3,0.2,1.8,0.5s0.7,0.8,0.7,1.4C210.3,330.4,209.9,330.9,209.3,331.1z M219.4,334.8h-1
	l-0.1-1.3c-0.3,0.4-0.6,0.8-1.1,1s-1,0.4-1.5,0.4c-1,0-1.8-0.3-2.5-1s-1-1.5-1-2.5s0.3-1.9,1-2.5c0.7-0.7,1.5-1,2.5-1
	c0.5,0,1,0.1,1.5,0.4s0.8,0.6,1.1,1l0.1-1.3h1V334.8z M214.3,332.9c0.4,0.4,0.9,0.6,1.5,0.6s1.1-0.2,1.5-0.6s0.7-1,0.7-1.6
	c0-0.7-0.2-1.2-0.7-1.6c-0.4-0.4-0.9-0.6-1.5-0.6s-1.1,0.2-1.5,0.6s-0.6,1-0.6,1.6S213.9,332.5,214.3,332.9z M225.5,327.7
	c1,0,1.8,0.4,2.5,1.1s1,1.5,1,2.5s-0.3,1.9-1,2.6s-1.5,1-2.5,1c-0.5,0-0.9-0.1-1.3-0.3c-0.4-0.2-0.7-0.5-0.9-0.9v3.6h-1.4v-9.6h1
	l0.1,1.3c0.3-0.4,0.6-0.8,1.1-1C224.5,327.8,225,327.7,225.5,327.7z M227,329.7c-0.4-0.4-0.9-0.6-1.5-0.6s-1.1,0.2-1.6,0.6
	c-0.4,0.4-0.6,1-0.6,1.6s0.2,1.2,0.6,1.6c0.4,0.4,1,0.6,1.6,0.6s1.1-0.2,1.5-0.6s0.6-1,0.6-1.6S227.4,330.1,227,329.7z M234.2,327.7
	c0.7,0,1.4,0.2,1.9,0.5s0.9,0.8,1.2,1.5c0.1,0.3,0.2,0.6,0.2,1s0,0.7-0.1,1h-5.3c0,0.6,0.2,1.1,0.6,1.4c0.4,0.3,0.9,0.5,1.6,0.5
	c0.8,0,1.6-0.2,2.3-0.6l0.8,0.8c-0.9,0.7-1.9,1.1-3,1.1s-1.9-0.3-2.6-1c-0.7-0.7-1-1.5-1-2.6c0-1,0.3-1.9,1-2.6
	C232.3,328,233.1,327.7,234.2,327.7z M234.2,329c-0.6,0-1.1,0.2-1.4,0.5c-0.4,0.3-0.6,0.8-0.6,1.3h4c0-0.2-0.1-0.5-0.2-0.7
	c-0.1-0.3-0.4-0.6-0.7-0.8S234.6,329,234.2,329z M244,331.1c0.9,0.2,1.3,0.7,1.3,1.6c0,0.7-0.3,1.2-0.8,1.6s-1.2,0.6-2.1,0.6h-0.2
	c-0.7,0-1.3-0.1-1.9-0.4c-0.6-0.3-1-0.6-1.2-1l0.8-0.8c0.2,0.3,0.6,0.5,1,0.7s0.8,0.3,1.3,0.3h0.2c0.4,0,0.8-0.1,1.1-0.3
	c0.3-0.2,0.4-0.4,0.4-0.8c0-0.6-0.4-0.9-1.2-1h-1.2v-0.9h1c0.7,0,1-0.3,1-0.8c0-0.3-0.1-0.5-0.4-0.7c-0.2-0.2-0.5-0.2-0.9-0.2h-0.1
	c-0.8,0-1.4,0.3-2,0.8l-0.7-0.8c0.3-0.4,0.7-0.7,1.2-0.9c0.5-0.2,1.1-0.4,1.6-0.4h0.1c0.7,0,1.3,0.2,1.8,0.5s0.7,0.8,0.7,1.4
	C245,330.4,244.7,330.9,244,331.1z M254.1,334.8h-1l-0.1-1.3c-0.3,0.4-0.6,0.8-1.1,1s-1,0.4-1.5,0.4c-1,0-1.8-0.3-2.5-1
	s-1-1.5-1-2.5s0.3-1.9,1-2.5c0.7-0.7,1.5-1,2.5-1c0.5,0,1,0.1,1.5,0.4s0.8,0.6,1.1,1l0.1-1.3h1V334.8z M249.1,332.9
	c0.4,0.4,0.9,0.6,1.5,0.6s1.1-0.2,1.5-0.6s0.7-1,0.7-1.6c0-0.7-0.2-1.2-0.7-1.6c-0.4-0.4-0.9-0.6-1.5-0.6s-1.1,0.2-1.5,0.6
	s-0.6,1-0.6,1.6S248.7,332.5,249.1,332.9z M263.1,334.8h-1.4v-2.9H258v2.9h-1.4v-7h1.4v2.8h3.7v-2.8h1.4V334.8z M272.2,334.8h-1
	l-0.1-1.3c-0.3,0.4-0.6,0.8-1.1,1s-1,0.4-1.5,0.4c-1,0-1.8-0.3-2.5-1s-1-1.5-1-2.5s0.3-1.9,1-2.5c0.7-0.7,1.5-1,2.5-1
	c0.5,0,1,0.1,1.5,0.4s0.8,0.6,1.1,1l0.1-1.3h1V334.8z M267.2,332.9c0.4,0.4,0.9,0.6,1.5,0.6s1.1-0.2,1.5-0.6s0.7-1,0.7-1.6
	c0-0.7-0.2-1.2-0.7-1.6c-0.4-0.4-0.9-0.6-1.5-0.6s-1.1,0.2-1.5,0.6s-0.6,1-0.6,1.6S266.8,332.5,267.2,332.9z M274.3,325.8v-1.4
	c1.1,0.6,2,1.4,2.6,2.6c0.7,1.1,1,2.3,1,3.5v0.2c0,1.2-0.3,2.4-1,3.5s-1.6,2-2.7,2.6v-1.4c0.7-0.6,1.2-1.3,1.6-2.1s0.6-1.7,0.6-2.6
	v-0.2c0-0.9-0.2-1.7-0.6-2.5C275.5,327,274.9,326.4,274.3,325.8z"/>
<rect x="169.2" y="55.6" class="st1" width="171" height="209"/>
<rect x="48.2" y="58.6" class="st1" width="169" height="206"/>
<path d="M84.6,67.8l102,17.5l103.8-16.5c5.6,57.6,11.2,115.2,16.8,172.8c-39.8,7-79.5,14-119.3,21L73.5,242.1l-3.3-0.6
	c4.5-58,8.9-116,13.4-173.9L84.6,67.8z M186.4,87.1L85.3,69.8L72.2,240c38.6,6.7,77.2,13.8,115.7,20.7L305.2,240L288.8,70.9
	L186.6,87.1H186.4z"/>
<path d="M187.5,259.6h0.9v2.1h-0.9V259.6z M187.5,87.3v2.1h0.9v-2.1H187.5z M187.5,91.5h0.9v2.1h-0.9V91.5z M187.5,95.7h0.9v2.1
	h-0.9V95.7z M187.5,99.9h0.9v2.1h-0.9V99.9z M187.5,104.1h0.9v2.1h-0.9V104.1z M187.5,108.3h0.9v2.1h-0.9V108.3z M187.5,112.5h0.9
	v2.1h-0.9V112.5z M187.5,116.7h0.9v2.1h-0.9V116.7z M187.5,120.9h0.9v2.1h-0.9V120.9z M187.5,125.1h0.9v2.1h-0.9V125.1z
	 M187.5,129.3h0.9v2.1h-0.9V129.3z M187.5,133.5h0.9v2.1h-0.9V133.5z M187.5,137.7h0.9v2.1h-0.9V137.7z M187.5,141.9h0.9v2.1h-0.9
	V141.9z M187.5,146.1h0.9v2.1h-0.9V146.1z M187.5,150.3h0.9v2.1h-0.9V150.3z M187.5,154.5h0.9v2.1h-0.9V154.5z M187.5,158.7h0.9v2.1
	h-0.9V158.7z M187.5,162.9h0.9v2.1h-0.9V162.9z M187.5,167.1h0.9v2.1h-0.9V167.1z M187.5,171.3h0.9v2.1h-0.9V171.3z M187.5,175.5
	h0.9v2.1h-0.9V175.5z M187.5,179.7h0.9v2.1h-0.9V179.7z M187.5,183.9h0.9v2.1h-0.9V183.9z M187.5,188.1h0.9v2.1h-0.9V188.1z
	 M187.5,192.3h0.9v2.1h-0.9V192.3z M187.5,196.5h0.9v2.1h-0.9V196.5z M187.5,200.7h0.9v2.1h-0.9V200.7z M187.5,204.9h0.9v2.1h-0.9
	V204.9z M187.5,209.1h0.9v2.1h-0.9V209.1z M187.5,213.3h0.9v2.1h-0.9V213.3z M187.5,217.5h0.9v2.1h-0.9V217.5z M187.5,221.7h0.9v2.1
	h-0.9V221.7z M187.5,225.9h0.9v2.1h-0.9V225.9z M187.5,230.1h0.9v2.1h-0.9V230.1z M187.5,234.3h0.9v2.1h-0.9V234.3z M187.5,238.6
	h0.9v2.1h-0.9V238.6z M187.5,242.8h0.9v2.1h-0.9V242.8z M187.5,247h0.9v2.1h-0.9V247z M187.5,251.2h0.9v2.1h-0.9V251.2z
	 M187.5,255.4h0.9v2.1h-0.9V255.4z"/>
<path d="M73.6,241.1l-0.5,6.3l115.4,13.9v0.5l-114.8-6V248l-1.1-0.1l0.6-6.9L73.6,241.1z M180.6,261L74.1,248.1v7.2L180.6,261z"/>
<path d="M75.3,255.6l-0.1,5.2l113.1,0.6v0.5l-113.6-0.6l0.1-5.8L75.3,255.6z"/>
<path d="M304.8,241.2l0.6,6.8l-1.9,0.2l0.8,7.7l-115.9,6v-0.5l116.5-13.8l-0.5-6.3L304.8,241.2z M303,248.3L196.2,261l107.5-5.5
	L303,248.3z"/>
<path d="M302.3,255.5l0.8,5.8L189,261.9v-0.5l113.4-0.6l-0.7-5.2L302.3,255.5z"/>
<polygon class="st1" points="116.9,147 114.6,147 114.6,147 "/>
<g>
	<defs>
		<polygon id="SVGID_1_" points="186.9,76 293.8,58.5 311.3,238.6 187.6,261.4 		"/>
	</defs>
	<clipPath id="SVGID_2_">
		<use xlink:href="#SVGID_1_"  style="overflow:visible;"/>
	</clipPath>
	<path class="st2" d="M246.8,202.8c-0.1-2.8-0.2-5.6-0.4-8.4c-0.1-1.4,0.2-2.1,1.7-2.3c2.4-0.3,4.9-0.8,7.3-1.2
		c0.8-0.1,1.8-0.6,2,0.9c0.2,1.3-0.2,2-1.6,2.1c-1,0.1-1.9,0.3-2.9,0.4c-3.4,0.6-4.2,2-3.2,5.3c0.3,1,0.9,0.9,1.6,0.8
		c1.2-0.2,2.4-0.4,3.6-0.6c0.8-0.1,1.8-0.5,1.9,0.9c0.1,1.2-0.1,2-1.5,2.1c-1,0.1-2.1,0.4-3.1,0.5c-1.8,0.1-2.3,0.9-2.2,2.7
		c0.3,4.2,0.2,4.2,4.4,3.5c0.9-0.1,1.7-0.3,2.6-0.4c1-0.2,1.5,0,1.6,1.1c0,0.9,0.3,1.8-1.1,2c-3,0.4-5.9,0.9-8.8,1.5
		c-1.4,0.3-1.4-0.6-1.4-1.5c-0.1-1.6-0.2-3.1-0.3-4.7C247,206,246.9,204.4,246.8,202.8C246.8,202.8,246.8,202.8,246.8,202.8z"/>
	<path class="st2" d="M211.6,204.2c0,0.2,0,0.4,0.1,0.5c0.7,1.9-2,3.2-1.5,4.4c0.6,1.4,2.2,2.3,2.3,4.1c0.5,4.9-4.1,9.1-8.9,8.1
		c-1.9-0.4-3.1-1.6-3.6-3.4c-0.2-0.8-0.7-1.8,0.6-2.2c0.9-0.2,1.9-0.6,2.4,0.7c0.6,1.5,1.7,1.9,3.2,1.7c1.5-0.3,2.5-1.1,3.1-2.6
		c1-2.6-0.4-4.3-3.1-4.2c-0.9,0.1-2,0.7-2.1-1c-0.1-1.3,0.4-2,1.7-2.1c0.5,0,1-0.2,1.5-0.4c1.4-0.6,1.8-1.8,1.8-3.2
		c0-1.1-0.6-2-1.7-2.4c-1.4-0.4-2.6,0-3.6,1.1c-0.4,0.5-0.6,1.3-1,1.8c-0.6,1-1.8,1-2.6,0.7c-0.8-0.3-0.3-1.3-0.1-1.9
		c1-3.3,4.9-5.6,8.3-4.8C210.7,199.6,211.5,200.8,211.6,204.2z"/>
	<path class="st2" d="M266.1,201.3c-1.2,0.2-2.1,0.6-2.3-1c-0.1-1.4,0.5-1.9,1.7-2c1.9-0.2,3-1.3,3-3.3c0-1.4-0.7-2.4-2.1-2.7
		c-1.9-0.3-3.3,0.4-3.9,2.3c-0.4,1.5-1.8,1.7-2.7,1.3c-1.2-0.5-0.4-1.7-0.1-2.5c1.3-3.5,5.7-5.3,8.9-3.8c2.8,1.3,3.6,5,1.6,8.4
		c-0.7,1.1-0.2,1.4,0.5,2c2.4,2.2,2.3,6.2,0.1,8.8c-2.1,2.5-6.4,3.2-8.9,1.5c-0.9-0.6-1.5-1.5-1.9-2.5c-0.2-0.7-0.8-1.7,0.3-2.1
		c0.9-0.4,2-0.8,2.7,0.6c0.9,1.9,2.5,2.1,4.2,1.3c1.7-0.8,2.4-2.2,2.1-4.1C269,201.6,267.7,201.1,266.1,201.3z"/>
	<path class="st2" d="M229.4,216.2c0.1,0.9-0.5,1-1.1,1.1c-0.8,0.1-1.7,0.5-2.1-0.8c-0.4-1.2-0.3-3.1-1.5-3.4
		c-1.3-0.4-2.9,0.3-4.4,0.4c-1.6,0.1-2.3,0.9-2.5,2.4c-0.1,0.9-0.3,1.7-0.6,2.5c-0.5,1.3-1.8,1.2-2.7,1c-1-0.2-0.3-1.2-0.1-1.7
		c1.6-6.3,3.3-12.5,4.9-18.8c0.3-1.2,0.6-2.1,2.1-2.2c1.7-0.2,1.6,1.1,1.9,2c1.9,5.3,3.8,10.7,5.7,16.1
		C229.1,215.2,229.3,215.7,229.4,216.2z M221.2,201.8c-0.6,2.5-1.2,4.6-1.6,6.7c-0.1,0.5-0.7,1.4-0.1,1.7c1.2,0.5,2.5-0.2,3.8-0.4
		c0.6-0.1,0.6-0.8,0.4-1.3C222.9,206.5,222.5,204.2,221.2,201.8z"/>
	<path class="st2" d="M243.9,200.1c0,4.1-2,6.8-6.1,7.2c-3.1,0.3-3.8,1.7-3.3,4.4c0.2,1,0.1,2.1,0.1,3.1c0.1,1.5-0.9,1.4-1.9,1.6
		c-1.3,0.2-1.2-0.6-1.2-1.4c-0.2-6.1-0.5-12.2-0.7-18.3c-0.1-1.2,0.3-1.8,1.5-1.9c1.5-0.2,2.9-0.5,4.4-0.7
		C241.3,193.4,243.9,195.6,243.9,200.1z M234.1,200.9c0.9,1-1.4,3.7,1.6,3.8c3.5,0.2,5.4-1.6,5.2-4.4c-0.1-2-0.8-3.6-3.3-3.5
		C234.3,197,234,197.3,234.1,200.9z"/>
	<path class="st2" d="M274.5,207.8c1.4-6.4,2.8-13,4.1-19.6c0.2-1.1,1-1.3,1.9-1.4c1.1-0.2,1.4,0.5,1.7,1.2
		c2.4,5.7,4.7,11.5,7.1,17.2c0.3,0.7,0.9,1.5-0.4,1.8c-0.9,0.2-1.9,0.9-2.4-0.6c0-0.1-0.1-0.2-0.1-0.2c-0.6-1.1-0.5-3.1-1.7-3.3
		c-1.7-0.2-3.6,0.3-5.4,0.8c-1.7,0.4-1.1,2.2-1.4,3.3c-0.3,1.1-0.4,2.2-1.9,2.3C274.6,209.4,274.1,209.2,274.5,207.8z M281,192.3
		c-0.2,0.1-0.4,0.1-0.5,0.2c-0.4,2-0.9,4.1-1.2,6.1c-0.1,0.6-0.6,1.7,0.3,1.8c1.2,0.1,2.4-0.2,3.5-0.6c0.8-0.3,0.3-1.1,0.1-1.6
		C282.5,196.1,281.7,194.2,281,192.3z"/>
	<path class="st2" d="M245.3,139.7c-1,0.2-1.3-0.2-1.3-1.2c-0.2-5.3-0.5-10.7-0.8-16c-0.1-1.1,0.3-1.6,1.4-1.7
		c2.4-0.3,4.9-0.7,7.3-1.2c0.9-0.2,1.6-0.2,1.6,1c0.1,0.9-0.2,1.5-1.2,1.6c-1.4,0.2-2.8,0.5-4.2,0.6c-1.5,0.1-2,0.8-2,2.4
		c0.2,3.1,0.1,3.1,3.3,2.6c0.7-0.1,1.4-0.2,2.1-0.3c0.8-0.1,1.4-0.1,1.4,0.9c0,0.8,0.1,1.6-1.1,1.7c-1.2,0.2-2.4,0.3-3.6,0.6
		c-3.2,0.6-1.3,3.1-1.5,4.7c-0.2,1.9,1.4,1,2.3,0.9c1.3-0.1,2.6-0.4,3.9-0.6c0.9-0.2,1.5-0.1,1.6,1c0.1,0.9-0.1,1.5-1.1,1.7
		C250.7,138.8,248,139.2,245.3,139.7z"/>
	<path class="st2" d="M205.1,137.8c-0.5,0-1.4,0.6-1.6-0.7c-0.2-1.1,0.1-1.9,1.4-2c0.3,0,0.5-0.1,0.8-0.1c1.5-0.3,2.3-1.3,2.4-2.7
		c0.1-1.2-0.3-2.1-1.5-2.5c-1.4-0.4-2.8-0.1-3.5,1.1c-0.8,1.3-1.9,3.1-3.2,1.8c-1.1-1,0.4-2.9,1.6-3.9c1.9-1.7,4.1-2.3,6.6-1.7
		c1.7,0.4,2.5,1.7,2.9,3.4c0.4,2.1-2,4.1-1.6,5.1c0.7,1.5,2.2,2.7,2.1,4.8c-0.3,4.3-5.4,7.4-9.4,5.8c-0.9-0.4-1.7-1-2.1-1.9
		c-0.4-0.8-1.1-1.8,0-2.5c0.9-0.5,1.8-0.5,2.6,0.7c1.5,2.1,4.8,1.5,5.7-1C209.2,139.2,208,137.7,205.1,137.8z"/>
	<path class="st2" d="M261.2,128.7c-0.9,0.2-1.7,0.4-1.8-1c-0.1-1.2,0.5-1.5,1.5-1.6c1.7-0.2,2.8-0.9,2.9-2.8
		c0.1-1.3-0.5-2.3-1.8-2.5c-1.6-0.4-3,0.2-3.6,1.8c-0.5,1.4-1.7,1.8-2.6,1.3c-1-0.6-0.2-1.7,0.2-2.6c1.2-2.5,4.6-4,7.4-3.2
		c2.3,0.6,3.2,2.2,3.4,4.4c0.1,1.6-1.4,2.8-1.5,4c-0.1,1,2,1.8,2.3,3.4c0.5,2.9-1,5.7-4,6.9c-3,1.2-6,0.4-7.2-1.8
		c-0.4-0.7-1.1-1.7-0.2-2.3c0.8-0.5,2-0.9,2.6,0.5c0,0.1,0.1,0.2,0.1,0.2c1.6,1.8,4.4,1.4,5.4-0.7
		C265.5,130.3,264.2,128.5,261.2,128.7z"/>
	<path class="st2" d="M227.2,141.8c0.2,0.6-0.2,0.9-0.8,1c-0.8,0-2,0.8-2.2-0.6c-0.5-3.5-2.7-3.2-5.3-2.7c-1.7,0.3-2.5,1-2.7,2.6
		c-0.1,0.6-0.2,1.2-0.5,1.8c-0.4,1.2-1.6,1.1-2.4,0.9c-1.1-0.3-0.3-1.2-0.2-1.7c1.5-5.5,3.1-10.9,4.6-16.4c0.3-1,0.7-1.7,1.8-1.8
		c1.5-0.2,1.5,0.9,1.8,1.7c1.8,4.7,3.6,9.5,5.4,14.3C226.9,141.1,227.1,141.4,227.2,141.8z M219.9,129.7c-0.2,0-0.4,0.1-0.5,0.1
		c-0.4,1.4-0.7,2.8-1.1,4.3c-0.8,3-0.6,3.1,2.4,2.5c1.1-0.3,1.5-0.6,1-1.7C221,133.1,220.5,131.4,219.9,129.7z"/>
	<path class="st2" d="M283.5,132.7c0.2,0.7-0.5,0.7-1,0.9c-1.1,0.3-2,0.2-2.2-1.1c-0.5-2.9-2.4-2.7-4.7-2.4
		c-2.1,0.3-3.1,1.1-3.2,3.2c0,0.8,0,1.9-1.2,2c-0.6,0.1-1.2,0.5-1.8,0c-0.5-0.4,0-1,0.1-1.4c1.2-5.5,2.5-10.9,3.7-16.4
		c0.2-1.1,0.6-1.7,1.8-1.9c1.3-0.2,1.5,0.7,1.8,1.5c2.1,4.9,4.2,9.8,6.4,14.7C283.3,132.2,283.4,132.4,283.5,132.7z M275.6,120.7
		c-0.2,0-0.4,0.1-0.6,0.1c-0.4,1.9-0.8,3.7-1.2,5.6c-0.2,1,0.1,1.4,1.2,1.3c3.1-0.2,3.2-0.4,2.1-3.2
		C276.6,123.2,276.1,122,275.6,120.7z"/>
	<path class="st2" d="M235.3,122.3c3-0.1,4.9,1.4,5.4,4c0.6,3.3-0.7,6.9-3.6,7.2c-4.9,0.5-5.8,3-4.9,7.1c0.3,1.3-0.7,1.4-1.6,1.5
		c-1.2,0.2-1.2-0.6-1.2-1.4c-0.2-5.2-0.4-10.5-0.6-15.7c0-1,0.2-1.7,1.3-1.8C231.9,122.8,233.8,122.5,235.3,122.3z M231.6,128.7
		c0.7,0.8-1.3,3.3,1.8,3.1c3.2-0.2,4.7-1.4,4.6-3.9c-0.1-2-1-3.1-3.1-3C231.7,125,231.5,125.3,231.6,128.7z"/>
	<path class="st2" d="M210.6,176.7c0-3,0.6-5.4,2.3-7.3c1.7-2,4.6-2.5,6.4-1.2c1.5,1.1,3,5.4,2.3,6.9c-0.3,0.7-0.9,0.7-1.5,0.8
		c-1.5,0.3-2.9,0.4-4.4,0.7c-0.7,0.1-1.8-0.1-1.8,1c-0.1,1,0.6,1.8,1.5,2.3c1.3,0.7,2.6,0.2,3.6-0.7c0.6-0.5,1-1.6,2-0.4
		c0.9,1,0.1,1.6-0.4,2.2c-1.6,1.8-3.6,2.5-5.9,2c-2.1-0.5-3.2-2.1-3.7-4.1C210.7,178.1,210.7,177.2,210.6,176.7z M215.1,174.2
		c0.9-0.9,3.3,0.6,3.5-1.7c0.1-1.1-0.8-2.2-2.2-2.1c-1.8,0.2-2.5,1.4-2.8,3C213.5,174.4,214.3,174.3,215.1,174.2z"/>
	<path class="st2" d="M234,165.3c-0.4,0.7-0.6,1.3-0.9,1.8c-3,3.8-3.2,7.4,0.6,10.8c0.5,0.4,1.9,1.4,0.7,2c-0.8,0.5-2.5,1.3-3.5-0.2
		c-0.8-1.2-1.7-2.5-2.5-3.7c-0.3-0.4-0.7-0.8-1.3-0.6c-0.6,0.2-0.6,0.8-0.6,1.3c0,1.1,0.1,2.3,0.1,3.4c0.1,1.2-0.7,1.4-1.6,1.6
		c-1.2,0.2-1.2-0.6-1.3-1.4c-0.1-3.9-0.2-7.9-0.4-11.8c-0.1-1.4,0.5-1.9,1.8-2c1.5-0.1,1,1.1,1.2,1.8c0.3,1.2-0.6,3.2,0.7,3.5
		c1.3,0.3,1.5-1.9,2.1-3C230.1,166.9,230.6,164.5,234,165.3z"/>
	<path class="st2" d="M291.9,184.9c1-0.1,1.1,0.6,1.2,1.3c0.1,1.6,0.4,3.1,0.4,4.7c-0.1,2.3,1,2.6,2.9,2.1c0.8-0.2,1.7-0.3,2.6-0.5
		c0.9-0.2,1.6-0.2,1.7,1c0.1,1,0.1,1.8-1.3,2.1c-1.7,0.3-4.2-0.2-5,1.4c-0.7,1.5,0.1,3.6,0.2,5.4c0.1,0.9,0.2,1.7,0.2,2.6
		c0,1.1-0.9,1.1-1.7,1.2c-0.8,0.2-1.3-0.1-1.4-1c-0.6-6.3-1.1-12.5-1.7-18.8C289.8,185,290.9,185.1,291.9,184.9z"/>
	<path class="st2" d="M209.6,106.6c0.1-2.7,0.9-5.3,3.7-6.8c1.7-0.9,3.4-1,4.9,0.3c1.6,1.5,1.9,3.5,1.7,5.6
		c-0.1,0.8-0.8,0.8-1.4,0.9c-1.3,0.2-2.6,0.4-3.9,0.7c-0.7,0.2-2-0.3-1.9,1.1c0.1,1.2,1,1.8,2.1,2c1.1,0.2,2.1-0.3,2.8-1
		c0.6-0.6,1-0.9,1.7-0.2c0.7,0.7,0.3,1.3-0.2,1.8c-1.7,1.8-3.7,2.7-6.1,1.9C210.2,111.9,209.8,109.4,209.6,106.6z M213.8,105.1
		c0.9-0.7,2.9,0.5,3.3-1.3c0.2-1-0.6-2-1.9-2c-1.5,0-2.3,1.1-2.7,2.5C212.4,105,212.9,105.3,213.8,105.1z"/>
	<path class="st2" d="M235.5,172.2c-0.1-4.4,1.6-7.5,4.4-8.5c2.6-0.9,5.1,0.3,5.9,2.9c0.2,0.6,0.7,1.5-0.3,1.8
		c-0.7,0.3-1.7,0.7-2.2-0.5c-0.4-1.1-1.2-1.8-2.4-1.5c-1.4,0.3-2,1.4-2.3,2.6c-0.3,1.7-0.3,3.5,0.2,5.2c0.3,1,0.9,1.8,1.9,1.9
		c1.2,0.2,2-0.4,2.6-1.3c0.3-0.5,0.3-1.2,1-1.4c0.6-0.2,1.2-0.5,1.7-0.1c0.5,0.4,0.2,1,0.1,1.5c-0.6,2.4-2.9,4.3-5.3,4.4
		c-2.4,0.1-4.2-1.4-5-4.2C235.7,173.9,235.6,172.7,235.5,172.2z"/>
	<path class="st2" d="M232,97.3c-5.3,4.5-3.5,8.4,0.3,12.2c0,0,0,0.2,0,0.3c-2.6,1.6-3.9-0.1-5.1-2c-0.5-0.7-0.8-2.1-2-1.7
		c-1.2,0.4-0.5,1.7-0.6,2.5c-0.1,0.5,0,1,0.1,1.6c0.1,1.3-0.9,1.3-1.7,1.4c-1,0.1-1-0.7-1-1.4c-0.1-3.4-0.1-6.8-0.3-10.2
		c-0.1-1.3,0.5-1.7,1.7-1.8c1.5-0.1,0.9,1.1,1.1,1.8c0.2,0.9-0.6,2.5,0.6,2.7c1.2,0.3,1.3-1.4,1.8-2.2
		C227.9,98.8,228.3,96.4,232,97.3z"/>
	<path class="st2" d="M284.1,115.8c-0.3-1.3,0.5-1.6,1.5-1.7c1.2-0.2,1.3,0.5,1.4,1.4c0,0.3,0.1,0.7,0.1,1c0.2,1.6-0.1,3.5,0.8,4.5
		c0.9,1,2.8,0,4.2-0.2c0.8-0.1,1.4-0.1,1.4,1c0,0.8,0.1,1.5-1,1.8c-1.5,0.4-3.8-0.3-4.4,1.5c-0.5,1.4,0.1,3.3,0.3,4.9
		c0,0.5,0.1,1,0.2,1.6c0.1,1.4-0.9,1.2-1.7,1.4c-1,0.2-1.1-0.5-1.2-1.2C285,126.3,284.5,121,284.1,115.8z"/>
	<path class="st2" d="M233.1,102.4c0-2.6,0.8-5,3.4-6.4c2.4-1.2,5.1-0.4,6.1,1.8c0.3,0.7,0.9,1.5-0.2,2c-0.7,0.3-1.6,0.5-2-0.5
		c-0.5-1.1-1.4-1.6-2.6-1.1c-1.2,0.4-1.8,1.4-1.9,2.6c-0.1,1-0.1,1.9,0,2.9c0.1,1.2,0.4,2.5,1.8,2.9c1.4,0.4,2.4-0.3,2.9-1.6
		c0.5-1,1.5-1.3,2.2-1c1.1,0.6,0.2,1.6-0.1,2.3c-1.1,2.1-2.9,3.3-5.4,2.9c-2.5-0.3-3.5-2.1-3.9-4.3
		C233.1,104.2,233.1,103.4,233.1,102.4z"/>
	<path class="st2" d="M249.5,165.3c-1,0.1-2,0.6-2.1-0.9c-0.1-1.2,0.2-1.8,1.5-1.9c2.5-0.3,5-0.8,7.5-1.2c0.7-0.1,1.7-0.6,1.8,0.7
		c0.1,1,0.2,2.1-1.3,2c-2.5,0-2.7,1.5-2.4,3.4c0.3,2.5,0.3,5.1,0.5,7.6c0.1,1.2-0.3,1.7-1.5,1.9c-1.4,0.2-1.4-0.7-1.4-1.6
		c-0.2-2.7-0.3-5.4-0.4-8.1C251.5,165.6,251.2,164.6,249.5,165.3z"/>
	<path class="st2" d="M205.8,178.7c0,1.4-0.1,2.8,0,4.2c0.2,1.5-0.5,2.1-1.9,2.1c-1.5,0-1-1.2-1-1.9c-0.1-2.6-0.2-5.2-0.2-7.9
		c0-1.6-0.2-2.6-2.2-2c-0.8,0.2-1.8,0.7-1.9-0.9c-0.1-1.1,0.3-1.8,1.5-1.9c2.6-0.4,5.2-0.8,7.8-1.3c0.7-0.1,1.5-0.4,1.5,0.7
		c0,0.7,0.4,2-0.7,1.9c-4.3,0-3.1,3-3.1,5.3C205.7,177.7,205.7,178.2,205.8,178.7C205.8,178.7,205.8,178.7,205.8,178.7z"/>
	<path class="st2" d="M208.1,100.6c0.1,0,0.6,0.2,0.6,1c0.1,0.9-0.1,1.6-1.2,1.6c-2.6-0.1-2.6,1.6-2.5,3.5c0.1,2.1,0,4.2,0.1,6.3
		c0.1,1.4-0.7,1.6-1.7,1.7c-1.3,0.1-1-0.9-1-1.6c-0.1-2.3-0.2-4.5-0.1-6.8c0-1.5-0.3-2.4-2.1-1.9c-0.7,0.2-1.6,0.6-1.8-0.8
		c-0.1-0.9,0.2-1.5,1.2-1.7C202.3,101.5,204.9,101.1,208.1,100.6z"/>
	<path class="st2" d="M253.1,93.4c0.8-0.1,1.1,0.2,1.2,1c0.1,0.8,0,1.5-0.9,1.5c-3-0.1-2.8,1.8-2.6,3.9c0.2,1.9,0.2,3.8,0.4,5.8
		c0.1,1.3-0.4,1.7-1.6,1.8c-1.6,0.2-1.1-1-1.2-1.7c-0.2-1.9-0.4-3.8-0.4-5.8c0-1.9,0-3.6-2.8-2.6c-0.8,0.3-1.1-0.2-1.2-0.9
		c-0.1-0.8,0-1.4,0.9-1.5C247.8,94.2,250.4,93.8,253.1,93.4z"/>
	<path class="st2" d="M304.3,234c0.5,1.1,1,2.2-0.3,2.8c-1.5,0.7-3.1,0.9-4.4-0.3c-0.9-0.8-1.8-1.7-1.5-2.9c0.3-0.9,1.5-1.3,2.1-0.3
		C301.3,235.3,302.7,234.8,304.3,234z"/>
	<path class="st2" d="M301.3,219.8c1.3-0.1,1.9,0.2,2,1.4c0.1,1.3-0.4,1.3-1.5,1.1c-1.2-0.2-1.9,0.6-2.3,1.7c-0.3,1-1.1,1.2-1.8,1
		c-0.9-0.3-0.5-1.2-0.3-1.8C298.1,221.2,299.4,219.9,301.3,219.8z"/>
	<path class="st2" d="M303.7,226.4c0.1,1.1,0.3,2.2,0.5,3.7c-1.3-1.2-3.4,0.8-3.9-1.4c-0.5-2.4,2.6-0.8,2.8-2.7
		C303.3,226.1,303.5,226.3,303.7,226.4z"/>
	<path class="st3" d="M215.1,174.2c-0.8,0.1-1.6,0.2-1.4-0.8c0.3-1.6,1-2.9,2.8-3c1.4-0.1,2.3,0.9,2.2,2.1
		C218.4,174.8,216,173.3,215.1,174.2z"/>
</g>
<g>
	<defs>
		<polygon id="SVGID_3_" points="85.3,69.8 186.6,87.1 187.4,260.6 72.2,240 		"/>
	</defs>
	<clipPath id="SVGID_4_">
		<use xlink:href="#SVGID_3_"  style="overflow:visible;"/>
	</clipPath>
	<g class="st4">
		<path class="st5" d="M44.9,163.5c0-35.2,0-70.4,0-105.6c0-1.7,0.3-2.1,2.1-2.1c57.5,0.1,115,0.1,172.4,0c1.7,0,2.1,0.3,2.1,2.1
			c-0.1,70.4-0.1,140.8,0,211.2c0,1.7-0.3,2.1-2.1,2.1c-57.5-0.1-115-0.1-172.4,0c-1.7,0-2.1-0.3-2.1-2.1
			C44.9,233.9,44.9,198.7,44.9,163.5z M153.1,194.2c2.6-1.7,3.3-3.1,2.3-5.3c-1.6-3.6-9-5.8-12.3-3.6c-0.9,0.6-2.4,1.6-1.4,2.7
			c0.7,0.8,2.4,1.5,3.5,0c0.8-1,1.9-1.1,3-0.9c1.9,0.4,4,1,3.8,3.3c-0.2,2.6-2.5,1.9-4.2,1.7c-0.7-0.1-1.5-0.6-1.7,0.7
			c-0.1,1,0.2,1.6,1.3,1.8c1.1,0.2,2.2,0.4,3.2,0.9c1.3,0.6,2,1.7,1.6,3.1c-0.3,1.4-1.5,1.7-2.8,1.7c-2-0.1-3.9-0.6-4.8-2.6
			c-0.7-1.5-2.5-1.8-3.4-1.2c-1,0.7,0.1,2,0.7,2.8c2.1,2.9,8,4.5,11.3,3.2c2.8-1.1,3.6-4,1.8-6.4
			C154.6,195.4,153.9,194.9,153.1,194.2z M126,189.9c-0.1,0-0.1,0-0.2,0c0,2.1,0.1,4.2,0,6.4c-0.1,1.4,0.2,2.2,1.8,2.4
			c3.3,0.5,6.5,1.2,9.7,1.7c0.6,0.1,1.6,0.8,1.8-0.6c0.2-1.1-0.2-1.8-1.4-1.9c-1.7-0.2-3.3-0.8-5-0.9c-2.8-0.1-3.6-1.4-3.2-4
			c0.2-1.4,0.4-2,2-1.5c1.5,0.4,3.1,0.6,4.7,0.9c0.7,0.1,1.4,0.3,1.4-0.9c0-0.8,0.1-1.3-1.1-1.5c-1.9-0.2-3.8-0.7-5.6-1.2
			c-2.3-0.7-0.9-2.6-0.9-3.9c-0.1-1.4,1.2-0.8,1.9-0.7c1.8,0.3,3.7,0.7,5.5,1c0.7,0.1,1.7,0.9,2-0.6c0.2-1.2-0.4-1.6-1.5-1.8
			c-3.3-0.5-6.5-1.1-9.7-1.8c-1.4-0.3-1.8,0.2-1.8,1.5C126.3,185,126.1,187.4,126,189.9z M107.6,186.4
			C107.6,186.4,107.6,186.4,107.6,186.4c-0.1,2.4-0.2,4.7-0.4,7.1c-0.1,1.7,1.2,1.5,2.2,1.8c1.5,0.3,1.4-0.6,1.5-1.6
			c0.4-4.6,0.4-4.6,4.9-3.8c0.3,0,0.5,0.1,0.8,0.1c3.1,0.4,5.4-0.7,6.2-2.8c0.8-2.3-0.2-4.9-2.6-6.6c-1.1-0.8-2.4-1.3-3.7-1.6
			c-2.2-0.4-4.3-0.7-6.5-1.2c-1.5-0.4-1.9,0.2-2,1.6C108,181.6,107.7,184,107.6,186.4z M176.1,207.4c-2.5-6.1-4.8-11.9-7.1-17.8
			c-0.6-1.5-1.7-1.4-2.9-1.6c-1.2-0.2-1.3,0.8-1.7,1.5c-2.1,4.2-4.1,8.3-6.1,12.5c-0.3,0.7-1.5,1.8,0.1,2.2c1,0.2,2.6,1.4,3.1-0.7
			c0.7-2.7,2.4-2.6,4.4-2c0.8,0.2,1.7,0.4,2.5,0.4c1.6,0.1,2.7,0.8,3,2.5C171.9,207,173.6,207.4,176.1,207.4z M104.8,194.1
			c-2.1-5.9-4.2-11.5-6.1-17.2c-0.5-1.5-1.6-1.6-2.7-1.8c-1.3-0.3-1.5,0.9-1.9,1.6c-2.2,4-4.4,8-6.6,12c-0.4,0.7-1.7,1.7-0.3,2.2
			c1,0.4,2.9,1.5,3.5-0.8c0.7-2.2,2.1-2.5,4.1-1.9c0.9,0.3,1.8,0.5,2.7,0.5c1.7,0.1,2.7,0.8,2.9,2.5
			C100.8,193.8,102.4,194.3,104.8,194.1z M129.7,129.2c-0.1,0-0.1,0-0.2,0c-0.1,1.9-0.1,3.9-0.3,5.8c-0.2,1.5,0.2,2.3,1.9,2.5
			c3,0.4,6,1.1,9,1.6c0.6,0.1,1.6,0.7,1.9-0.5c0.3-1.2-0.5-1.6-1.5-1.8c-1.8-0.3-3.5-0.8-5.2-0.9c-3-0.1-2.5-2.1-2.3-3.9
			c0.2-2.4,1.9-0.8,2.9-0.8c1.2,0,2.3,0.4,3.5,0.6c0.6,0.1,1.4,0.5,1.6-0.6c0.2-1-0.2-1.6-1.3-1.7c-1.7-0.2-3.3-0.7-5-0.9
			c-2.2-0.3-1.4-1.9-1.5-3.1c0-1.7,1.1-1.3,2.1-1.1c1.7,0.3,3.5,0.6,5.2,0.9c0.7,0.1,1.6,0.6,1.7-0.7c0.1-1-0.4-1.4-1.3-1.5
			c-3.3-0.6-6.5-1.1-9.7-1.7c-1.1-0.2-1.6,0.1-1.5,1.3C129.7,124.8,129.7,127,129.7,129.2z M155.3,133.5c2.7-1.5,3.2-3,2-5.1
			c-1.8-3.1-8.3-4.8-11.4-3.1c-0.9,0.5-2.2,1.5-1.5,2.5c0.6,0.8,2.1,1.4,3.3,0.2c0.2-0.2,0.3-0.4,0.5-0.5c1.8-0.9,3.5-0.4,5,0.6
			c0.9,0.6,1.5,1.5,1,2.6c-0.9,1.7-2.5,1-3.8,0.9c-0.1,0-0.2,0-0.2,0c-0.7-0.1-1.4-0.3-1.4,0.8c0,0.8,0.2,1.3,1,1.4
			c0.9,0.1,1.8,0.3,2.7,0.7c1.4,0.5,2.5,1.4,2.1,3c-0.3,1.6-1.8,1.7-3.1,1.6c-1.8-0.1-3.4-0.7-4.4-2.5c-0.6-1.3-2.2-1.5-3.1-1
			c-1.1,0.7,0,1.8,0.5,2.6c2,2.8,8,4.3,11.2,2.9c2.2-1,3-3.2,1.8-5.2C157.1,135,156.2,134.4,155.3,133.5z M177.3,145.5
			c-2.3-5.4-4.5-10.8-6.8-16.1c-0.8-1.8-3.2-2.1-4-0.5c-2.2,4.2-4.3,8.4-6.5,12.6c-0.4,0.8-0.3,1.3,0.6,1.4c1.3,0.2,2.8,0.8,3.2-1.2
			c0.3-1.5,1.2-2,2.8-1.5c1.2,0.4,2.5,0.5,3.7,0.7c1.3,0.1,2.3,0.7,2.5,2C173.3,145.2,174.9,145.8,177.3,145.5z M111.8,126
			C111.8,126,111.9,126,111.8,126c-0.1,2.1,0,4.3-0.3,6.4c-0.2,1.8,0.9,1.8,2.1,2c1.7,0.3,1.2-0.9,1.3-1.7c0.1-0.8,0.2-1.5,0.2-2.3
			c0-1.4,0.6-1.7,1.9-1.4c1.7,0.3,3.5,0.8,5.3,0.6c1.7-0.2,3.2-0.8,3.8-2.5c0.7-1.7,0.3-3.3-0.9-4.8c-0.9-1.1-2.1-2-3.5-2.4
			c-1.5-0.4-3.1-0.8-4.7-1.1c-4.7-0.9-4.7-0.8-5,3.8C112,123.8,111.9,124.9,111.8,126z M109.2,133.3c-2-5.4-4-10.8-6.1-16.1
			c-0.7-1.7-3.1-1.7-4-0.1c-2.3,4-4.6,8.1-6.9,12.1c-0.3,0.5-0.8,1.2,0.2,1.4c1.3,0.2,2.9,1.2,3.5-1c0.5-1.6,1.6-1.9,3.1-1.5
			c1.2,0.3,2.5,0.5,3.7,0.7c1.1,0.1,1.9,0.6,2.1,1.8C105.2,132.9,106.7,133.5,109.2,133.3z M82.6,181.3c3.9-2.5,3.7-6.1-0.3-8.2
			c-1.4-0.7-2.8-1.2-4.4-1.3c-1-0.1-2.4-0.9-2.6,1.2c-0.1,2.2,1.4,1.1,2.2,1.1c2.5,0.1,4.6,1.7,4.3,3.4c-0.6,2.4-2.4,1.8-4.1,1.6
			c-0.8-0.1-1.7-0.6-1.9,0.8c-0.2,1.3,0.6,1.5,1.6,1.7c0.7,0.1,1.5,0.3,2.2,0.5c1.4,0.6,2.3,1.5,2,3.1c-0.3,1.5-1.6,1.8-2.9,1.9
			c-1.5,0-2.8-0.5-4-1.3c-1.1,2.3-0.1,3.3,2,3.6c0.9,0.1,1.8,0.3,2.8,0.3c2.4,0.1,4.7-0.4,5.6-3C85.9,184.4,84.6,182.7,82.6,181.3z
			 M91.9,149.9c-3.4,0-5.6,2-5.8,5.4c-0.3,5.1,5.4,9.2,10.5,7.4c0.7-0.2,2-0.3,1.6-1.5c-0.3-1-1.1-1.5-2.4-0.9
			c-2.2,0.9-4.1,0.2-5.6-1.6c-0.3-0.4-0.6-0.9-0.4-1.4c0.3-0.6,0.9-0.3,1.3-0.3c2.1,0.4,4.2,0.6,6.2,1.1c1.7,0.4,1.9-0.3,1.8-1.7
			C99.1,152.7,96,149.9,91.9,149.9z M88,121.6c3.6-2.5,3.4-5.5-0.2-7.5c-2-1.1-4.3-1.5-6.6-1.4c-1.5,0.1-1,1.3-1.4,2
			c-0.3,0.5-0.4,1.1,0,1.4c0.8,0.5,1-0.6,1.6-0.8c1.9-0.7,3.5-0.3,5,0.9c0.8,0.6,1.2,1.5,0.7,2.5c-1,1.5-2.5,1.1-3.9,0.9
			c-0.1,0-0.2,0-0.3,0c-0.7-0.1-1.4-0.2-1.5,0.8c-0.1,0.8,0.2,1.2,1,1.4c1.1,0.2,2.2,0.5,3.2,0.9c1.1,0.5,1.7,1.4,1.5,2.7
			c-0.3,1.2-1.3,1.5-2.3,1.6c-2.2,0.2-4.1-0.6-5.3-2.7c-0.8,3.6-0.7,3.7,2.4,4.6c1.1,0.3,2.3,0.5,3.5,0.5c2.1,0,4.1-0.4,5-2.7
			C91.2,124.4,89.8,123,88,121.6z M114.4,154.4c-2.5-1.1-4.4-1-6,1c-0.7,0.9-1.6,2.5-3,1.9c-1.3-0.6-0.4-2.1-0.4-3.2
			c0-0.9,0.1-1.9-1.1-1.7c-0.9,0.2-2.4-0.6-2.4,1.5c0,2.9-0.3,5.7-0.6,8.6c-0.2,1.5,0.8,1.8,1.9,2.2c1.6,0.5,1.1-0.7,1.3-1.4
			c0.2-0.7,0.4-1.3,0.5-1.9c0.3-1.8,1.2-1.4,2-0.5c0.7,0.7,1.3,1.6,1.7,2.5c1.1,2.5,3.1,3.3,6,3.2c-1.5-2-2.8-4-4.2-5.8
			c-1-1.2-0.8-2,0.4-2.9C111.8,156.8,113,155.7,114.4,154.4z M99.5,104.9c-0.2,0,0.2,0.1,0.5,0c1-0.4,2.9,0,2.6-1.6
			c-0.2-1.5-1.7-1-2.9-0.7c-1.9,0.4-3.5-0.2-4.7-1.7c-0.3-0.4-0.6-0.9-0.2-1.4c0.3-0.4,0.8-0.2,1.2-0.1c2,0.3,4,0.7,6,1.1
			c0.8,0.1,1.4,0.4,1.7-0.8c0.6-2.9-2-6.1-5.6-6.7c-3.8-0.6-6.5,1.2-6.8,4.6C90.8,101.7,94,104.7,99.5,104.9z M118.3,96.9
			c-2.2-0.8-3.9-1.1-5.5,0.7c-0.7,0.9-1.6,2.4-3,1.9c-1.4-0.6-0.5-2.1-0.5-3.2c0-1.6-1.2-1.3-2.1-1.6c-1.1-0.3-1.2,0.4-1.3,1.3
			c-0.1,2.8-0.3,5.6-0.5,8.4c-0.1,1,0.1,1.5,1.2,1.8c2.2,0.6,2.1-0.7,2.2-2.1c0-0.6-0.5-1.7,0.6-1.9c0.9-0.2,1.3,0.6,1.8,1.2
			c0.4,0.6,0.9,1.1,1.1,1.7c1.1,2.3,3.1,3,5.8,3c-1.5-2-2.8-3.8-4.1-5.5c-0.8-0.9-0.8-1.5,0.2-2.3C115.6,99.3,116.8,98.2,118.3,96.9
			z M115.7,160.8c-0.1,2.8,0.9,5,3.4,6.4c2.4,1.4,4.9,1.9,7.5,0.5c0.9-0.5,2.1-1.4,1.4-2.5c-0.5-0.8-1.9-0.9-3-0.2
			c-2.2,1.4-4,1.1-5.2-0.7c-1.1-1.7-0.9-5.1,0.5-6.1c1.6-1.2,3.3-0.6,4.9,1.8c0.5,0.8,1.2,0.8,1.9,1c1.3,0.3,1.5-0.2,1.1-1.3
			c-0.8-2.7-4.7-4.8-8.1-4.4C117.3,155.6,115.8,157.5,115.7,160.8z M127,109.8c1.1,0.1,2.2-0.2,3.2-0.9c0.6-0.4,1.4-1,1.1-1.8
			c-0.3-0.9-1.4-0.7-2.2-0.7c-0.3,0-0.7,0.4-1,0.6c-1.8,1-3.8,0.6-4.9-1.1c-1-1.6-0.8-4.7,0.5-5.4c1.9-1.1,3.6-0.5,4.7,1.4
			c0.2,0.3,0.5,0.7,0.9,0.8c0.7,0.2,1.6,0.7,2.1,0.1c0.5-0.5-0.1-1.3-0.4-1.8c-1.3-2.1-3.4-2.9-5.8-3.2c-3.6-0.4-5.8,1.7-5.8,5.3
			C119.5,107,122.5,109.7,127,109.8z M134.9,165.4c-0.1,0-0.1,0-0.2,0c0,1.3,0,2.5,0,3.8c0,1.8,1.5,1.3,2.4,1.5
			c1.2,0.3,1.1-0.8,1.1-1.5c0.1-1.8,0.3-3.6,0.1-5.3c-0.2-2.4,0.5-3.5,3.1-2.6c0.7,0.2,1.7,0.8,1.9-0.7c0.1-1.1-0.5-1.4-1.5-1.6
			c-3.2-0.5-6.3-1.2-9.5-1.7c-0.7-0.1-1.7-0.9-2,0.6c-0.2,1.2,0.5,1.7,1.6,1.7c2.9-0.1,3.5,1.5,3.1,4
			C134.8,164.2,134.9,164.8,134.9,165.4z M72.5,215.9c1.7-0.7,3.3-0.8,4.2,1c0.9,1.8-0.6,2.8-1.7,3.8c-0.6,0.6-1.3,1.1-2,1.5
			c-1.9,1-1.5,2.7-1.4,4.2c0.1,1.4,1.6,0.8,2.5,1.1c1.3,0.4,2.6,0.6,4,0.8c0.6,0.1,1.4,0.6,1.7-0.4c0.3-1-0.4-1.3-1.3-1.5
			c-1.7-0.3-3.4-0.7-5.8-1.1c1.9-1.4,3.3-2.4,4.6-3.4c1.6-1.2,3-2.7,2.3-4.9c-0.7-2.3-2.7-3.1-4.9-3.5C72.6,213.2,72,214,72.5,215.9
			z M134.9,99.7c-0.5-0.1-1.3-0.3-1.4,0.7c-0.1,1,0.4,1.4,1.3,1.5c0.3,0,0.7,0.2,1,0.2c1.9,0,2.4,0.9,2.2,2.7
			c-0.2,1.8,0,3.7-0.2,5.6c-0.2,1.8,1.2,1.5,2.1,1.7c1.5,0.3,1.1-0.9,1.2-1.6c0.1-1.4,0.2-2.9,0.1-4.3c-0.2-2.4,0.4-3.6,3-2.6
			c0.7,0.2,1.6,0.5,1.7-0.8c0.1-1-0.6-1.3-1.4-1.4C141.3,100.8,138.2,100.2,134.9,99.7z M76.8,154.1
			C76.9,154.1,76.9,154.1,76.8,154.1c-0.1,1.3-0.1,2.5-0.3,3.8c-0.3,1.6,0.5,2,1.9,2.2c1.7,0.2,1.5-0.9,1.6-1.9
			c0.1-1.6,0.4-3.2,0.3-4.8c-0.1-2.5,0.8-3.4,3.2-2.6c0.8,0.3,1.7,0.6,1.9-0.8c0.1-1.3-0.7-1.3-1.6-1.5c-1.7-0.3-3.3-0.5-5-0.9
			c-1.1-0.3-1.5,0-1.6,1.2C77.2,150.6,77,152.4,76.8,154.1z M83,90.5c-1.3-0.1-2,0.8-1.1,1.8c0.8,1,0.6,1.9,0.6,2.8
			c-0.1,1.7-0.2,3.4-0.4,5.1c-0.2,1.5,0.6,1.8,1.9,2c1.5,0.2,1.4-0.8,1.5-1.7c0.1-1.3,0.3-2.5,0.2-3.8c0-2.4,0.4-4,3.4-2.9
			c0.6,0.2,1.4,0.3,1.6-0.7c0.2-1-0.4-1.3-1.3-1.5C87.1,91.2,85.1,90.9,83,90.5z"/>
		<path class="st6" d="M153.1,194.2c0.8,0.7,1.4,1.2,2,1.9c1.9,2.4,1,5.3-1.8,6.4c-3.4,1.3-9.2-0.3-11.3-3.2
			c-0.6-0.8-1.7-2.2-0.7-2.8c0.9-0.6,2.7-0.3,3.4,1.2c1,2.1,2.8,2.5,4.8,2.6c1.3,0,2.4-0.3,2.8-1.7c0.3-1.4-0.4-2.5-1.6-3.1
			c-1-0.5-2.1-0.7-3.2-0.9c-1-0.2-1.4-0.7-1.3-1.8c0.2-1.3,1-0.8,1.7-0.7c1.7,0.2,4,1,4.2-1.7c0.2-2.3-1.9-2.9-3.8-3.3
			c-1.1-0.2-2.2-0.1-3,0.9c-1.2,1.5-2.9,0.8-3.5,0c-1-1.2,0.5-2.1,1.4-2.7c3.3-2.2,10.7,0.1,12.3,3.6
			C156.4,191,155.8,192.5,153.1,194.2z"/>
		<path class="st6" d="M126,189.9c0.1-2.5,0.3-4.9,0.3-7.4c0-1.3,0.3-1.8,1.8-1.5c3.2,0.7,6.5,1.2,9.7,1.8c1.1,0.2,1.8,0.6,1.5,1.8
			c-0.3,1.4-1.3,0.7-2,0.6c-1.8-0.3-3.7-0.7-5.5-1c-0.7-0.1-2-0.8-1.9,0.7c0.1,1.3-1.3,3.2,0.9,3.9c1.8,0.6,3.7,1.1,5.6,1.2
			c1.2,0.1,1.1,0.7,1.1,1.5c0.1,1.1-0.7,1-1.4,0.9c-1.6-0.2-3.2-0.4-4.7-0.9c-1.5-0.4-1.8,0.1-2,1.5c-0.4,2.6,0.4,3.9,3.2,4
			c1.7,0.1,3.3,0.6,5,0.9c1.2,0.2,1.6,0.8,1.4,1.9c-0.2,1.3-1.2,0.7-1.8,0.6c-3.3-0.5-6.5-1.2-9.7-1.7c-1.5-0.2-1.9-1-1.8-2.4
			c0.1-2.1,0-4.2,0-6.4C125.9,189.9,125.9,189.9,126,189.9z"/>
		<path class="st6" d="M107.6,186.4c0.1-2.4,0.3-4.7,0.4-7.1c0-1.5,0.4-2,2-1.6c2.1,0.5,4.3,0.8,6.5,1.2c1.3,0.3,2.6,0.8,3.7,1.6
			c2.4,1.7,3.4,4.3,2.6,6.6c-0.8,2.1-3.1,3.2-6.2,2.8c-0.3,0-0.5-0.1-0.8-0.1c-4.5-0.7-4.5-0.7-4.9,3.8c-0.1,1,0,2-1.5,1.6
			c-1-0.2-2.3,0-2.2-1.8C107.4,191.1,107.5,188.7,107.6,186.4C107.6,186.4,107.6,186.4,107.6,186.4z M111.3,183.7c0.3,1-0.8,2.5,1,3
			c1.6,0.4,3.1,0.8,4.8,0.6c1.1-0.1,1.9-0.6,2.2-1.8c0.2-1.4-0.2-2.6-1.3-3.4c-1.8-1.3-4-1.7-6-1.4
			C110.9,180.9,111.7,182.7,111.3,183.7z"/>
		<path class="st6" d="M176.1,207.4c-2.5,0-4.2-0.4-4.6-2.9c-0.3-1.7-1.3-2.4-3-2.5c-0.8-0.1-1.7-0.2-2.5-0.4
			c-2.1-0.6-3.8-0.7-4.4,2c-0.5,2-2.1,0.9-3.1,0.7c-1.6-0.4-0.4-1.5-0.1-2.2c2-4.2,4-8.4,6.1-12.5c0.3-0.7,0.5-1.8,1.7-1.5
			c1.1,0.2,2.3,0.2,2.9,1.6C171.3,195.5,173.6,201.2,176.1,207.4z M166.9,192c-1.1,2.6-2.9,4.5-2.5,6.5c0.2,1,3,0.9,4.7,1.1
			c0.1,0,0.1-0.1,0.5-0.3C168.7,197.1,167.9,194.8,166.9,192z"/>
		<path class="st6" d="M104.8,194.1c-2.4,0.1-4.1-0.3-4.4-2.7c-0.2-1.7-1.2-2.5-2.9-2.5c-0.9,0-1.9-0.2-2.7-0.5
			c-2-0.7-3.4-0.4-4.1,1.9c-0.7,2.3-2.5,1.2-3.5,0.8c-1.3-0.6,0-1.6,0.3-2.2c2.1-4,4.3-8,6.6-12c0.4-0.8,0.6-1.9,1.9-1.6
			c1.2,0.2,2.2,0.3,2.7,1.8C100.7,182.6,102.7,188.2,104.8,194.1z M96.4,178.9c-1.1,2.3-1.9,3.9-2.8,5.5c-0.4,0.8-0.3,1.2,0.6,1.4
			c1.2,0.2,2.3,0.4,3.5,0.6c0.8,0.1,1.1-0.2,0.8-1C97.9,183.5,97.3,181.6,96.4,178.9z"/>
		<path class="st6" d="M129.7,129.2c0-2.2,0-4.4,0-6.6c0-1.1,0.4-1.5,1.5-1.3c3.2,0.6,6.5,1.2,9.7,1.7c0.9,0.2,1.4,0.6,1.3,1.5
			c-0.2,1.3-1.1,0.8-1.7,0.7c-1.8-0.3-3.5-0.6-5.2-0.9c-1-0.2-2.2-0.5-2.1,1.1c0,1.2-0.8,2.8,1.5,3.1c1.7,0.2,3.3,0.6,5,0.9
			c1.1,0.2,1.5,0.7,1.3,1.7c-0.2,1.1-1,0.7-1.6,0.6c-1.2-0.2-2.3-0.6-3.5-0.6c-1,0-2.7-1.6-2.9,0.8c-0.2,1.8-0.7,3.8,2.3,3.9
			c1.8,0.1,3.5,0.6,5.2,0.9c1.1,0.2,1.8,0.6,1.5,1.8c-0.3,1.2-1.2,0.6-1.9,0.5c-3-0.5-6-1.2-9-1.6c-1.7-0.2-2.1-1-1.9-2.5
			c0.2-1.9,0.2-3.9,0.3-5.8C129.5,129.2,129.6,129.2,129.7,129.2z"/>
		<path class="st6" d="M155.3,133.5c0.9,0.9,1.7,1.5,2.2,2.3c1.3,2,0.5,4.2-1.8,5.2c-3.1,1.4-9.2-0.2-11.2-2.9
			c-0.5-0.8-1.6-1.9-0.5-2.6c0.8-0.5,2.4-0.3,3.1,1c0.9,1.9,2.5,2.4,4.4,2.5c1.3,0.1,2.7-0.1,3.1-1.6c0.4-1.6-0.8-2.5-2.1-3
			c-0.9-0.3-1.8-0.5-2.7-0.7c-0.9-0.1-1.1-0.7-1-1.4c0.1-1.1,0.7-0.9,1.4-0.8c0.1,0,0.2,0,0.2,0c1.4,0.1,3,0.8,3.8-0.9
			c0.6-1.1-0.1-2-1-2.6c-1.5-1.1-3.2-1.5-5-0.6c-0.2,0.1-0.4,0.3-0.5,0.5c-1.2,1.3-2.8,0.6-3.3-0.2c-0.7-1,0.5-1.9,1.5-2.5
			c3.1-1.8,9.6,0,11.4,3.1C158.6,130.5,158,131.9,155.3,133.5z"/>
		<path class="st6" d="M177.3,145.5c-2.4,0.3-4-0.3-4.4-2.7c-0.2-1.3-1.2-1.9-2.5-2c-1.3-0.1-2.5-0.3-3.7-0.7
			c-1.5-0.5-2.4-0.1-2.8,1.5c-0.5,2.1-1.9,1.4-3.2,1.2c-1-0.1-1-0.6-0.6-1.4c2.2-4.2,4.2-8.5,6.5-12.6c0.8-1.5,3.2-1.2,4,0.5
			C172.8,134.7,175,140,177.3,145.5z M168.5,131.5c-1.1,2.4-2.8,4.1-2.3,5.9c0.3,1,2.8,1,4.4,1c0.1,0,0.1-0.1,0.4-0.3
			C170.3,136.1,169.5,134.2,168.5,131.5z"/>
		<path class="st6" d="M111.8,126c0.1-1.1,0.2-2.2,0.2-3.3c0.3-4.7,0.3-4.7,5-3.8c1.6,0.3,3.2,0.6,4.7,1.1c1.4,0.4,2.6,1.3,3.5,2.4
			c1.2,1.4,1.6,3,0.9,4.8c-0.7,1.7-2.2,2.3-3.8,2.5c-1.8,0.2-3.5-0.3-5.3-0.6c-1.3-0.3-1.9,0-1.9,1.4c0,0.8-0.1,1.5-0.2,2.3
			c-0.1,0.8,0.4,2.1-1.3,1.7c-1.2-0.2-2.4-0.2-2.1-2C111.8,130.2,111.8,128.1,111.8,126C111.9,126,111.8,126,111.8,126z
			 M115.3,123.9c0.4,0.9-0.7,2.3,1.1,2.7c1.5,0.3,3,0.7,4.5,0.6c1.1-0.1,1.9-0.5,2.2-1.8c0.4-2.2-1.6-3.7-5.8-4.3
			C114.4,120.6,115.9,122.8,115.3,123.9z"/>
		<path class="st6" d="M109.2,133.3c-2.5,0.2-4-0.4-4.3-2.9c-0.2-1.2-0.9-1.7-2.1-1.8c-1.3-0.1-2.5-0.3-3.7-0.7
			c-1.6-0.4-2.6-0.1-3.1,1.5c-0.6,2.2-2.2,1.3-3.5,1c-1-0.2-0.5-0.8-0.2-1.4c2.3-4,4.6-8.1,6.9-12.1c0.9-1.6,3.3-1.5,4,0.1
			C105.2,122.5,107.1,127.9,109.2,133.3z M101.3,119.8c-4,5.4-3.9,5.8,1.5,6.5c0.1,0,0.3-0.1,0.6-0.3
			C102.7,124.1,102,122.1,101.3,119.8z"/>
		<path class="st6" d="M82.6,181.3c2,1.5,3.4,3.1,2.5,5.5c-0.9,2.6-3.2,3.1-5.6,3c-0.9,0-1.8-0.2-2.8-0.3c-2-0.3-3.1-1.3-2-3.6
			c1.2,0.8,2.5,1.4,4,1.3c1.3,0,2.6-0.3,2.9-1.9c0.3-1.6-0.6-2.6-2-3.1c-0.7-0.3-1.5-0.4-2.2-0.5c-1-0.2-1.8-0.4-1.6-1.7
			c0.2-1.4,1.2-0.9,1.9-0.8c1.7,0.2,3.6,0.8,4.1-1.6c0.4-1.7-1.7-3.3-4.3-3.4c-0.8,0-2.3,1.1-2.2-1.1c0.1-2.1,1.6-1.3,2.6-1.2
			c1.5,0.1,3,0.5,4.4,1.3C86.3,175.2,86.5,178.8,82.6,181.3z"/>
		<path class="st6" d="M91.9,149.9c4.2,0,7.2,2.8,7.3,6.6c0,1.3-0.2,2.1-1.8,1.7c-2-0.5-4.2-0.8-6.2-1.1c-0.5-0.1-1.1-0.4-1.3,0.3
			c-0.2,0.5,0.1,1,0.4,1.4c1.5,1.9,3.5,2.5,5.6,1.6c1.3-0.5,2.1,0,2.4,0.9c0.4,1.2-0.9,1.3-1.6,1.5c-5,1.8-10.8-2.3-10.5-7.4
			C86.3,152,88.4,149.9,91.9,149.9z M92.4,152.3c-1.3,0.1-2.4,0.5-2.5,1.7c-0.1,1.3,1.3,0.8,2.1,1.1c0.5,0.2,1.1,0.3,1.7,0.3
			c0.7,0,1.6,0.6,2-0.3c0.3-0.8-0.4-1.5-1-2.1C94,152.5,93.2,152.3,92.4,152.3z"/>
		<path class="st6" d="M88,121.6c1.8,1.4,3.2,2.8,2.3,5c-0.9,2.2-2.9,2.6-5,2.7c-1.2,0-2.4-0.1-3.5-0.5c-3.1-0.9-3.2-1-2.4-4.6
			c1.2,2.1,3.1,2.8,5.3,2.7c1-0.1,2.1-0.4,2.3-1.6c0.3-1.3-0.4-2.2-1.5-2.7c-1-0.4-2.1-0.7-3.2-0.9c-0.8-0.2-1.1-0.6-1-1.4
			c0.1-1,0.8-0.9,1.5-0.8c0.1,0,0.2,0,0.3,0c1.4,0.2,2.9,0.7,3.9-0.9c0.6-0.9,0.2-1.8-0.7-2.5c-1.5-1.2-3.1-1.5-5-0.9
			c-0.6,0.2-0.8,1.3-1.6,0.8c-0.4-0.3-0.3-0.9,0-1.4c0.4-0.7,0-1.9,1.4-2c2.4-0.1,4.6,0.3,6.6,1.4C91.4,116.1,91.6,119.1,88,121.6z"
			/>
		<path class="st6" d="M114.4,154.4c-1.5,1.3-2.6,2.4-3.9,3.3c-1.2,0.9-1.4,1.7-0.4,2.9c1.5,1.8,2.7,3.7,4.2,5.8
			c-2.9,0.1-4.9-0.7-6-3.2c-0.4-0.9-1-1.8-1.7-2.5c-0.8-0.9-1.8-1.2-2,0.5c-0.1,0.7-0.4,1.3-0.5,1.9c-0.2,0.7,0.3,1.9-1.3,1.4
			c-1.1-0.4-2.1-0.6-1.9-2.2c0.3-2.9,0.7-5.7,0.6-8.6c0-2.2,1.5-1.4,2.4-1.5c1.3-0.3,1.1,0.8,1.1,1.7c0.1,1.1-0.9,2.7,0.4,3.2
			c1.4,0.6,2.3-1,3-1.9C110,153.4,111.9,153.2,114.4,154.4z"/>
		<path class="st6" d="M99.5,104.9c-5.6-0.3-8.7-3.2-8.3-7.4c0.3-3.3,3.1-5.2,6.8-4.6c3.6,0.6,6.2,3.8,5.6,6.7
			c-0.2,1.2-0.9,0.9-1.7,0.8c-2-0.4-4-0.7-6-1.1c-0.4-0.1-0.9-0.3-1.2,0.1c-0.3,0.5-0.1,1,0.2,1.4c1.2,1.5,2.9,2.1,4.7,1.7
			c1.2-0.3,2.7-0.8,2.9,0.7c0.2,1.6-1.6,1.2-2.6,1.6C99.7,105,99.4,104.9,99.5,104.9z M99.1,98c0.4,0,1,0.3,1.3-0.3
			c0.2-0.5-0.1-1-0.4-1.4c-1.2-1.3-2.7-1.7-4.3-0.8c-0.5,0.3-1,0.7-0.9,1.4c0.1,0.6,0.8,0.5,1.3,0.6C97,97.6,98,97.8,99.1,98z"/>
		<path class="st6" d="M118.3,96.9c-1.5,1.2-2.7,2.4-4,3.4c-1,0.7-1,1.4-0.2,2.3c1.4,1.7,2.6,3.5,4.1,5.5c-2.7,0-4.7-0.7-5.8-3
			c-0.3-0.6-0.8-1.1-1.1-1.7c-0.4-0.6-0.9-1.4-1.8-1.2c-1.1,0.2-0.6,1.2-0.6,1.9c-0.1,1.4,0,2.8-2.2,2.1c-1.1-0.3-1.3-0.8-1.2-1.8
			c0.2-2.8,0.3-5.6,0.5-8.4c0-0.9,0.1-1.6,1.3-1.3c0.9,0.2,2.1-0.1,2.1,1.6c0,1.1-0.9,2.6,0.5,3.2c1.4,0.6,2.3-1,3-1.9
			C114.4,95.8,116,96.1,118.3,96.9z"/>
		<path class="st6" d="M115.7,160.8c0.1-3.2,1.7-5.1,4.5-5.5c3.4-0.5,7.3,1.7,8.1,4.4c0.3,1.1,0.1,1.7-1.1,1.3
			c-0.7-0.2-1.4-0.2-1.9-1c-1.7-2.4-3.4-2.9-4.9-1.8c-1.4,1-1.7,4.4-0.5,6.1c1.2,1.8,3,2,5.2,0.7c1.1-0.7,2.5-0.5,3,0.2
			c0.7,1.1-0.5,2-1.4,2.5c-2.6,1.4-5.1,0.8-7.5-0.5C116.6,165.7,115.6,163.5,115.7,160.8z"/>
		<path class="st6" d="M127,109.8c-4.5-0.1-7.5-2.8-7.5-6.7c0-3.6,2.2-5.7,5.8-5.3c2.4,0.3,4.5,1.1,5.8,3.2c0.4,0.6,0.9,1.3,0.4,1.8
			c-0.6,0.7-1.4,0.2-2.1-0.1c-0.3-0.1-0.7-0.5-0.9-0.8c-1.2-1.9-2.8-2.5-4.7-1.4c-1.3,0.7-1.5,3.8-0.5,5.4c1,1.7,3,2.1,4.9,1.1
			c0.4-0.2,0.7-0.6,1-0.6c0.8,0.1,1.9-0.2,2.2,0.7c0.3,0.8-0.5,1.4-1.1,1.8C129.3,109.7,128.1,109.9,127,109.8z"/>
		<path class="st6" d="M134.9,165.4c0-0.6-0.1-1.2,0-1.8c0.5-2.5-0.2-4.1-3.1-4c-1.1,0-1.8-0.5-1.6-1.7c0.3-1.4,1.3-0.7,2-0.6
			c3.2,0.5,6.3,1.2,9.5,1.7c1,0.2,1.6,0.4,1.5,1.6c-0.1,1.5-1.2,1-1.9,0.7c-2.6-0.9-3.3,0.1-3.1,2.6c0.1,1.8-0.1,3.5-0.1,5.3
			c0,0.7,0.1,1.7-1.1,1.5c-0.9-0.2-2.4,0.3-2.4-1.5c0-1.3,0-2.5,0-3.8C134.8,165.4,134.8,165.4,134.9,165.4z"/>
		<path class="st6" d="M72.5,215.9c-0.5-2,0.1-2.8,2.1-2.4c2.2,0.4,4.2,1.1,4.9,3.5c0.7,2.2-0.7,3.7-2.3,4.9c-1.3,1-2.7,2-4.6,3.4
			c2.4,0.5,4.1,0.8,5.8,1.1c0.9,0.2,1.5,0.5,1.3,1.5c-0.3,1-1.1,0.5-1.7,0.4c-1.3-0.2-2.7-0.4-4-0.8c-0.9-0.3-2.4,0.3-2.5-1.1
			c-0.1-1.5-0.4-3.3,1.4-4.2c0.7-0.4,1.4-0.9,2-1.5c1.1-1,2.6-2,1.7-3.8C75.8,215.2,74.2,215.3,72.5,215.9z"/>
		<path class="st6" d="M134.9,99.7c3.3,0.6,6.4,1.1,9.6,1.7c0.8,0.1,1.5,0.3,1.4,1.4c-0.1,1.2-1,1-1.7,0.8c-2.6-0.9-3.2,0.3-3,2.6
			c0.1,1.4,0,2.9-0.1,4.3c0,0.7,0.3,1.9-1.2,1.6c-1-0.2-2.3,0.1-2.1-1.7c0.2-1.8,0-3.7,0.2-5.6c0.2-1.8-0.3-2.8-2.2-2.7
			c-0.3,0-0.7-0.1-1-0.2c-0.9-0.1-1.4-0.5-1.3-1.5C133.6,99.3,134.3,99.6,134.9,99.7z"/>
		<path class="st6" d="M76.8,154.1c0.1-1.8,0.3-3.5,0.4-5.3c0.1-1.1,0.5-1.4,1.6-1.2c1.6,0.4,3.3,0.6,5,0.9c0.8,0.2,1.7,0.2,1.6,1.5
			c-0.2,1.4-1.1,1.1-1.9,0.8c-2.5-0.8-3.4,0-3.2,2.6c0.1,1.6-0.2,3.2-0.3,4.8c-0.1,1,0.2,2.1-1.6,1.9c-1.4-0.2-2.2-0.5-1.9-2.2
			C76.8,156.7,76.8,155.4,76.8,154.1C76.9,154.1,76.9,154.1,76.8,154.1z"/>
		<path class="st6" d="M83,90.5c2.1,0.4,4.2,0.7,6.2,1.1c0.9,0.1,1.5,0.5,1.3,1.5c-0.2,1-0.9,0.9-1.6,0.7c-2.9-1.1-3.4,0.5-3.4,2.9
			c0,1.3-0.1,2.5-0.2,3.8c-0.1,0.9,0,1.9-1.5,1.7c-1.3-0.2-2.1-0.4-1.9-2c0.2-1.7,0.4-3.4,0.4-5.1c0-0.9,0.3-1.8-0.6-2.8
			C81,91.3,81.7,90.4,83,90.5z"/>
		<path class="st7" d="M111.3,183.7c0.3-1-0.4-2.8,0.7-3c2-0.3,4.2,0.1,6,1.4c1.1,0.8,1.5,2,1.3,3.4c-0.2,1.2-1.1,1.7-2.2,1.8
			c-1.6,0.1-3.2-0.2-4.8-0.6C110.6,186.3,111.6,184.8,111.3,183.7z"/>
		<path class="st7" d="M166.9,192c1.1,2.9,1.9,5.1,2.7,7.3c-0.3,0.2-0.4,0.3-0.5,0.3c-1.7-0.2-4.4-0.1-4.7-1.1
			C163.9,196.4,165.7,194.6,166.9,192z"/>
		<path class="st7" d="M96.4,178.9c0.9,2.6,1.5,4.6,2.1,6.5c0.3,0.8,0,1.1-0.8,1c-1.2-0.2-2.3-0.4-3.5-0.6c-0.9-0.2-1.1-0.6-0.6-1.4
			C94.5,182.8,95.3,181.2,96.4,178.9z"/>
		<path class="st7" d="M168.5,131.5c1,2.7,1.8,4.6,2.5,6.5c-0.3,0.2-0.4,0.3-0.4,0.3c-1.6,0-4,0.1-4.4-1
			C165.7,135.6,167.4,133.9,168.5,131.5z"/>
		<path class="st7" d="M115.3,123.9c0.6-1-0.9-3.3,2-2.8c4.2,0.7,6.2,2.1,5.8,4.3c-0.2,1.2-1.1,1.6-2.2,1.8c-1.6,0.2-3-0.3-4.5-0.6
			C114.6,126.2,115.7,124.8,115.3,123.9z"/>
		<path class="st7" d="M101.3,119.8c0.8,2.3,1.4,4.3,2.1,6.2c-0.3,0.2-0.4,0.3-0.6,0.3C97.4,125.6,97.2,125.2,101.3,119.8z"/>
		<path class="st7" d="M92.4,152.3c0.8,0,1.6,0.2,2.3,0.8c0.7,0.6,1.4,1.3,1,2.1c-0.4,0.9-1.3,0.3-2,0.3c-0.6,0-1.2-0.2-1.7-0.3
			c-0.8-0.3-2.2,0.3-2.1-1.1C90,152.8,91.1,152.4,92.4,152.3z"/>
		<path class="st7" d="M99.1,98c-1-0.2-2-0.3-3-0.5c-0.5-0.1-1.1,0-1.3-0.6c-0.2-0.7,0.3-1.1,0.9-1.4c1.6-0.9,3.1-0.5,4.3,0.8
			c0.4,0.4,0.6,0.9,0.4,1.4C100.1,98.3,99.5,98,99.1,98z"/>
	</g>
</g>
</svg>
