<svg width="48" height="35" viewBox="0 0 48 35" fill="none" xmlns="http://www.w3.org/2000/svg">
<path d="M21.537 18.9749L18.6173 21.6404C18.8128 21.5983 19.0806 21.5773 19.4206 21.5773C20.211 21.6531 20.8187 21.9184 21.2437 22.3732C21.6687 22.828 21.8812 23.3922 21.8812 24.066C21.8812 24.8914 21.6007 25.5735 21.0397 26.1126C20.4873 26.6516 19.6968 26.9253 18.6683 26.9337H18.5663C17.0534 26.9253 15.8762 26.3484 15.0347 25.203L15.9272 24.3818C16.6837 25.224 17.5634 25.6451 18.5663 25.6451H18.6428C19.2123 25.6367 19.6755 25.4683 20.0325 25.1398C20.398 24.8114 20.5808 24.3902 20.5808 23.8765C20.5808 22.8322 19.9178 22.31 18.5918 22.31C18.1584 22.31 17.7036 22.4237 17.2276 22.6511L16.5519 22.1458L19.4843 19.4676H15.8252V18.1916H21.537V18.9749Z" fill="#2B2A29"/>
<path d="M24.6923 19.3918C25.5677 18.5243 26.6217 18.0906 27.8541 18.0906C29.0866 18.0906 30.1363 18.5243 31.0033 19.3918C31.8787 20.2508 32.3164 21.2909 32.3164 22.5121C32.3164 23.7333 31.8787 24.7777 31.0033 25.6451C30.1363 26.5042 29.0866 26.9337 27.8541 26.9337C26.6217 26.9337 25.5677 26.5042 24.6923 25.6451C23.8253 24.7777 23.3918 23.7333 23.3918 22.5121C23.3918 21.2909 23.8253 20.2508 24.6923 19.3918ZM30.047 20.2761C29.4521 19.6781 28.7211 19.3791 27.8541 19.3791C26.9872 19.3791 26.2562 19.6781 25.6612 20.2761C25.0747 20.8656 24.7815 21.611 24.7815 22.5121C24.7815 23.4217 25.0747 24.1713 25.6612 24.7608C26.2562 25.3504 26.9872 25.6451 27.8541 25.6451C28.7211 25.6451 29.4521 25.3504 30.047 24.7608C30.642 24.1713 30.9395 23.4217 30.9395 22.5121C30.9395 21.611 30.642 20.8656 30.047 20.2761Z" fill="#2B2A29"/>
<path fill-rule="evenodd" clip-rule="evenodd" d="M45.613 0.969664C45.7564 0.306428 46.3939 -0.119939 47.0473 0.0300792C47.7007 0.172201 48.1151 0.827542 47.9716 1.49078L40.9753 34.0288C40.8558 34.6052 40.3538 35 39.796 35H8.20921C7.61158 35 7.11754 34.5578 7.01395 33.9815L0.0256448 1.49078C-0.109818 0.827542 0.30454 0.172201 0.95795 0.0300792C1.61136 -0.119939 2.2568 0.306428 2.39227 0.969664L9.18136 32.5287H38.8159L45.613 0.969664Z" fill="#2B2A29"/>
<path fill-rule="evenodd" clip-rule="evenodd" d="M2.60841 8.57315C2.95902 8.57315 3.66821 7.7678 4.38537 6.96244C5.45314 5.7465 6.52887 4.53847 7.95522 4.53847C9.38157 4.53847 10.4573 5.7544 11.5251 6.96244C12.2343 7.7678 12.9435 8.57315 13.302 8.57315C13.6526 8.57315 14.3698 7.7678 15.079 6.96244C16.1468 5.7465 17.2225 4.53847 18.6488 4.53847C20.0752 4.53847 21.1509 5.7544 22.2187 6.96244C22.9279 7.7678 23.6371 8.57315 23.9956 8.57315C24.3463 8.57315 25.0634 7.7678 25.7726 6.96244C26.8404 5.7465 27.9161 4.53847 29.3425 4.53847C30.7688 4.53847 31.8445 5.7544 32.9123 6.96244C33.6215 7.7678 34.3307 8.57315 34.6893 8.57315C35.0399 8.57315 35.757 7.7678 36.4662 6.96244C37.534 5.7465 38.6097 4.53847 40.0361 4.53847C41.4624 4.53847 42.5382 5.7544 43.6059 6.96244C44.3151 7.7678 45.0243 8.57315 45.3829 8.57315V11.0366C43.9565 11.0366 42.8808 9.82067 41.813 8.61263C41.1038 7.80727 40.3947 7.00192 40.0361 7.00192C39.6855 7.00192 38.9683 7.80727 38.2591 8.61263C37.1834 9.82067 36.1156 11.0366 34.6893 11.0366C33.2629 11.0366 32.1872 9.82067 31.1194 8.61263C30.4102 7.80727 29.701 7.00192 29.3425 7.00192C28.9918 7.00192 28.2747 7.80727 27.5655 8.61263C26.4898 9.82067 25.422 11.0366 23.9956 11.0366C22.5693 11.0366 21.4936 9.82067 20.4258 8.61263C19.7166 7.80727 19.0074 7.00192 18.6488 7.00192C18.2982 7.00192 17.5811 7.80727 16.8719 8.61263C15.8041 9.82067 14.7284 11.0366 13.302 11.0366C11.8757 11.0366 10.7999 9.82067 9.73218 8.61263C9.02299 7.80727 8.3138 7.00192 7.95522 7.00192C7.60461 7.00192 6.88745 7.80727 6.17826 8.60474C5.1105 9.82067 4.03476 11.0287 2.60841 11.0287V8.57315Z" fill="#2B2A29"/>
<path fill-rule="evenodd" clip-rule="evenodd" d="M34.7454 15.0018C35.3191 15.0018 35.8371 15.2386 36.2116 15.6176C36.5861 15.9966 36.8172 16.5256 36.8172 17.1099C36.8172 17.6942 36.5861 18.2232 36.2116 18.6022C35.8371 18.9812 35.3191 19.2181 34.7454 19.2181C34.1717 19.2181 33.6537 18.9812 33.2792 18.6022C32.9047 18.2232 32.6736 17.6942 32.6736 17.1099C32.6736 16.5256 32.9047 16.0045 33.2792 15.6176C33.6537 15.2386 34.1797 15.0018 34.7454 15.0018ZM35.6459 16.194C35.4148 15.965 35.104 15.815 34.7454 15.815C34.3948 15.815 34.0761 15.9571 33.845 16.194C33.6139 16.423 33.4784 16.7467 33.4784 17.1099C33.4784 17.4652 33.6219 17.7889 33.845 18.0258C34.0761 18.2548 34.3948 18.4048 34.7454 18.4048C35.096 18.4048 35.4148 18.2627 35.6459 18.0258C35.8769 17.7968 36.0124 17.4731 36.0124 17.1099C36.0204 16.7546 35.8769 16.4309 35.6459 16.194Z" fill="#2B2A29"/>
</svg>
