<svg width="32" height="33" viewBox="0 0 32 33" fill="none" xmlns="http://www.w3.org/2000/svg">
<path fill-rule="evenodd" clip-rule="evenodd" d="M32 0V33H0V0H32ZM30.0347 2.02637H1.96525V30.9736H30.0347V2.02637Z" fill="#2B2A29"/>
<path fill-rule="evenodd" clip-rule="evenodd" d="M1.37703 0L31.2727 30.8438L29.8893 32.2667L0 1.42286L1.37703 0Z" fill="#2B2A29"/>
<path fill-rule="evenodd" clip-rule="evenodd" d="M0 30.8438L29.8893 0L31.2727 1.42286L1.37703 32.2667L0 30.8438Z" fill="#2B2A29"/>
<path fill-rule="evenodd" clip-rule="evenodd" d="M16 0C20.4154 0 24.417 1.84488 27.3131 4.83307C30.2093 7.82126 32 11.9463 32 16.5C32 21.0537 30.2093 25.1852 27.3131 28.1669C24.417 31.1551 20.4154 33 16 33C11.5846 33 7.58303 31.1551 4.68687 28.1669C1.79071 25.1852 0 21.0602 0 16.5C0 11.9463 1.79071 7.81476 4.68687 4.83307C7.58303 1.84488 11.5846 0 16 0ZM25.9232 6.2687C23.3826 3.65079 19.8723 2.02677 16 2.02677C12.1277 2.02677 8.61737 3.64429 6.07677 6.2687C3.53616 8.88661 1.96525 12.5049 1.96525 16.5065C1.96525 20.5081 3.53616 24.1264 6.07677 26.7443C8.61737 29.3622 12.1277 30.9862 16 30.9862C19.8723 30.9862 23.3826 29.3622 25.9232 26.7443C28.4638 24.1264 30.0347 20.5081 30.0347 16.5065C30.0347 12.5049 28.4638 8.88661 25.9232 6.2687Z" fill="#2B2A29"/>
</svg>
