<svg width="47" height="30" viewBox="0 0 47 30" fill="none" xmlns="http://www.w3.org/2000/svg">
<path fill-rule="evenodd" clip-rule="evenodd" d="M14.9167 24.2788C16.6341 24.2788 18.029 22.8449 18.029 21.0899C18.029 19.3349 16.6266 17.9085 14.9167 17.9085C13.1993 17.9085 11.7969 19.3424 11.7969 21.0899C11.7969 22.8524 13.1993 24.2788 14.9167 24.2788Z" fill="#2B2A29"/>
<path fill-rule="evenodd" clip-rule="evenodd" d="M23.7287 24.2788C25.4461 24.2788 26.8411 22.8449 26.8411 21.0899C26.8411 19.3349 25.4386 17.9085 23.7287 17.9085C22.0113 17.9085 20.6164 19.3424 20.6164 21.0899C20.6164 22.8524 22.0113 24.2788 23.7287 24.2788Z" fill="#2B2A29"/>
<path fill-rule="evenodd" clip-rule="evenodd" d="M32.5408 24.2788C34.2582 24.2788 35.6531 22.8449 35.6531 21.0899C35.6531 19.3349 34.2507 17.9085 32.5408 17.9085C30.8234 17.9085 29.4284 19.3424 29.4284 21.0899C29.4284 22.8524 30.8234 24.2788 32.5408 24.2788Z" fill="#2B2A29"/>
<path fill-rule="evenodd" clip-rule="evenodd" d="M14.4367 11.5756H44.6976L46.835 28.685L47 29.9919H0V28.8269C0 24.6223 0.599968 20.3879 2.68486 17.1393C4.82974 13.8085 8.45955 11.5756 14.4367 11.5756ZM42.7027 13.9056H14.4367C9.352 13.9056 6.32216 15.7129 4.58226 18.4089C2.96984 20.9107 2.39237 24.234 2.29488 27.6544H44.4201L42.7027 13.9056Z" fill="#2B2A29"/>
<path fill-rule="evenodd" clip-rule="evenodd" d="M9.23951 2.33005C8.60954 2.33005 8.09957 1.80728 8.09957 1.16502C8.10707 0.522767 8.61704 0 9.23951 0H42.3952C42.9877 0 43.4752 0.463022 43.5277 1.06047L46.8425 28.6924C46.9175 29.3272 46.475 29.9097 45.8526 29.9919C45.2301 30.0666 44.6601 29.6185 44.5851 28.9762L41.3903 2.33005H9.23951Z" fill="#2B2A29"/>
</svg>
