<svg width="377" height="179" viewBox="0 0 377 179" fill="none" xmlns="http://www.w3.org/2000/svg">
<rect width="377" height="179" fill="white"/>
<line x1="45" y1="68.5" x2="331" y2="68.5" stroke="#E25D23" stroke-width="3"/>
<line x1="50" y1="75.25" x2="325" y2="75.25" stroke="#828282" stroke-width="1.5"/>
<line x1="51" y1="80.25" x2="326" y2="80.25" stroke="#828282" stroke-width="1.5"/>
<line x1="53" y1="85.25" x2="327" y2="85.25" stroke="#828282" stroke-width="1.5"/>
<line x1="53" y1="90.25" x2="327" y2="90.25" stroke="#828282" stroke-width="1.5"/>
<line x1="52" y1="95.25" x2="326" y2="95.25" stroke="#828282" stroke-width="1.5"/>
<line x1="50" y1="100.25" x2="325" y2="100.25" stroke="#828282" stroke-width="1.5"/>
<line x1="45" y1="107.5" x2="331" y2="107.5" stroke="#E25D23" stroke-width="3"/>
<path d="M142.717 54H134.317V52.992L139.085 48.928C139.682 48.416 140.114 47.984 140.381 47.632C140.648 47.2693 140.781 46.8747 140.781 46.448C140.781 45.8613 140.568 45.4027 140.141 45.072C139.725 44.7307 139.208 44.5547 138.589 44.544H138.461C137.48 44.544 136.546 45.0027 135.661 45.92L134.541 44.88C135.704 43.568 137.058 42.912 138.605 42.912H138.749C139.88 42.9227 140.786 43.2373 141.469 43.856C142.152 44.4747 142.493 45.2267 142.493 46.112C142.493 46.848 142.264 47.5307 141.805 48.16C141.357 48.7893 140.626 49.5147 139.613 50.336L137.277 52.384H142.717V54ZM144.826 52.592C145.018 52.4213 145.252 52.336 145.53 52.336C145.807 52.336 146.036 52.4213 146.218 52.592C146.41 52.7627 146.506 52.976 146.506 53.232C146.506 53.4773 146.41 53.6853 146.218 53.856C146.036 54.0267 145.807 54.112 145.53 54.112C145.252 54.112 145.018 54.0267 144.826 53.856C144.634 53.6853 144.538 53.4773 144.538 53.232C144.538 52.976 144.634 52.7627 144.826 52.592ZM155.375 44.368C156.484 43.248 157.828 42.688 159.407 42.688C160.986 42.688 162.33 43.248 163.439 44.368C164.559 45.4773 165.119 46.8213 165.119 48.4C165.119 49.9787 164.559 51.328 163.439 52.448C162.33 53.5573 160.986 54.112 159.407 54.112C157.828 54.112 156.484 53.5573 155.375 52.448C154.266 51.328 153.711 49.9787 153.711 48.4C153.711 46.8213 154.266 45.4773 155.375 44.368ZM162.239 45.488C161.471 44.7093 160.527 44.32 159.407 44.32C158.287 44.32 157.343 44.7093 156.575 45.488C155.818 46.256 155.439 47.2267 155.439 48.4C155.439 49.584 155.818 50.56 156.575 51.328C157.343 52.096 158.287 52.48 159.407 52.48C160.527 52.48 161.471 52.096 162.239 51.328C163.007 50.56 163.391 49.584 163.391 48.4C163.391 47.2267 163.007 46.256 162.239 45.488ZM169.613 47.072H172.637C173.885 47.072 174.829 47.3813 175.469 48C176.109 48.6187 176.429 49.4667 176.429 50.544C176.429 51.632 176.114 52.48 175.485 53.088C174.866 53.696 173.917 54 172.637 54H167.885V42.8H175.181V44.432H169.613V47.072ZM169.613 52.368H172.669C173.426 52.368 173.97 52.2133 174.301 51.904C174.631 51.5947 174.797 51.1413 174.797 50.544C174.797 49.3173 174.087 48.704 172.669 48.704H169.613V52.368ZM182.855 45.984L179.655 54H177.751L182.375 42.8H183.383L187.959 54H186.055L182.855 45.984ZM190.766 44.368C191.875 43.248 193.219 42.688 194.798 42.688C196.376 42.688 197.72 43.248 198.83 44.368C199.95 45.4773 200.51 46.8213 200.51 48.4C200.51 49.9787 199.95 51.328 198.83 52.448C197.72 53.5573 196.376 54.112 194.798 54.112C193.219 54.112 191.875 53.5573 190.766 52.448C189.656 51.328 189.102 49.9787 189.102 48.4C189.102 46.8213 189.656 45.4773 190.766 44.368ZM197.63 45.488C196.862 44.7093 195.918 44.32 194.798 44.32C193.678 44.32 192.734 44.7093 191.966 45.488C191.208 46.256 190.83 47.2267 190.83 48.4C190.83 49.584 191.208 50.56 191.966 51.328C192.734 52.096 193.678 52.48 194.798 52.48C195.918 52.48 196.862 52.096 197.63 51.328C198.398 50.56 198.782 49.584 198.782 48.4C198.782 47.2267 198.398 46.256 197.63 45.488ZM215.529 54L213.225 50.416C212.894 49.904 212.617 49.568 212.393 49.408C212.18 49.2373 211.844 49.152 211.385 49.152H210.425V54H208.697V49.152H207.753C207.294 49.152 206.953 49.2373 206.729 49.408C206.516 49.568 206.244 49.904 205.913 50.416L203.609 54H201.657L204.313 49.872C204.644 49.3493 204.916 48.976 205.129 48.752C205.353 48.5173 205.588 48.3573 205.833 48.272C205.449 48.0693 204.985 47.5627 204.441 46.752L201.881 42.8H203.849L206.025 46.208C206.366 46.72 206.649 47.0613 206.873 47.232C207.097 47.4027 207.433 47.488 207.881 47.488H208.697V42.8H210.425V47.488H211.257C211.705 47.488 212.041 47.4027 212.265 47.232C212.489 47.0613 212.772 46.72 213.113 46.208L215.289 42.8H217.257L214.697 46.752C214.153 47.5627 213.689 48.0693 213.305 48.272C213.55 48.3573 213.78 48.5173 213.993 48.752C214.217 48.976 214.494 49.3493 214.825 49.872L217.481 54H215.529ZM227.243 54L224.939 50.432C224.608 49.92 224.331 49.5787 224.107 49.408C223.894 49.2373 223.558 49.152 223.099 49.152H221.675V54H219.947V42.8H221.675V47.488H222.971C223.419 47.488 223.755 47.4027 223.979 47.232C224.203 47.0613 224.486 46.72 224.827 46.208L227.003 42.8H228.971L226.427 46.752C225.851 47.5733 225.382 48.08 225.019 48.272C225.264 48.3573 225.494 48.5173 225.707 48.752C225.931 48.976 226.208 49.3493 226.539 49.872L229.195 54H227.243ZM233.554 51.488L232.53 54H230.626L235.25 42.8H236.258L240.834 54H238.93L237.922 51.488H233.554ZM235.746 45.952L234.162 49.856H237.33L235.746 45.952Z" fill="black"/>
<path d="M146.588 134H144.86V124.432H139.804V134H138.076V122.8H146.588V134ZM150.852 124.368C151.961 123.248 153.305 122.688 154.884 122.688C156.462 122.688 157.806 123.248 158.916 124.368C160.036 125.477 160.596 126.821 160.596 128.4C160.596 129.979 160.036 131.328 158.916 132.448C157.806 133.557 156.462 134.112 154.884 134.112C153.305 134.112 151.961 133.557 150.852 132.448C149.742 131.328 149.188 129.979 149.188 128.4C149.188 126.821 149.742 125.477 150.852 124.368ZM157.716 125.488C156.948 124.709 156.004 124.32 154.884 124.32C153.764 124.32 152.82 124.709 152.052 125.488C151.294 126.256 150.916 127.227 150.916 128.4C150.916 129.584 151.294 130.56 152.052 131.328C152.82 132.096 153.764 132.48 154.884 132.48C156.004 132.48 156.948 132.096 157.716 131.328C158.484 130.56 158.868 129.584 158.868 128.4C158.868 127.227 158.484 126.256 157.716 125.488ZM173.438 136.064H171.71V134H163.358V136.064H161.63V132.368H163.102L167.054 122.8H168.062L171.982 132.368H173.438V136.064ZM167.55 125.984L164.958 132.368H170.126L167.55 125.984ZM179.816 125.984L176.616 134H174.712L179.336 122.8H180.344L184.92 134H183.016L179.816 125.984ZM187.727 124.368C188.836 123.248 190.18 122.688 191.759 122.688C193.337 122.688 194.681 123.248 195.791 124.368C196.911 125.477 197.471 126.821 197.471 128.4C197.471 129.979 196.911 131.328 195.791 132.448C194.681 133.557 193.337 134.112 191.759 134.112C190.18 134.112 188.836 133.557 187.727 132.448C186.617 131.328 186.063 129.979 186.063 128.4C186.063 126.821 186.617 125.477 187.727 124.368ZM194.591 125.488C193.823 124.709 192.879 124.32 191.759 124.32C190.639 124.32 189.695 124.709 188.927 125.488C188.169 126.256 187.791 127.227 187.791 128.4C187.791 129.584 188.169 130.56 188.927 131.328C189.695 132.096 190.639 132.48 191.759 132.48C192.879 132.48 193.823 132.096 194.591 131.328C195.359 130.56 195.743 129.584 195.743 128.4C195.743 127.227 195.359 126.256 194.591 125.488ZM212.49 134L210.186 130.416C209.855 129.904 209.578 129.568 209.354 129.408C209.141 129.237 208.805 129.152 208.346 129.152H207.386V134H205.658V129.152H204.714C204.255 129.152 203.914 129.237 203.69 129.408C203.477 129.568 203.205 129.904 202.874 130.416L200.57 134H198.618L201.274 129.872C201.605 129.349 201.877 128.976 202.09 128.752C202.314 128.517 202.549 128.357 202.794 128.272C202.41 128.069 201.946 127.563 201.402 126.752L198.842 122.8H200.81L202.986 126.208C203.327 126.72 203.61 127.061 203.834 127.232C204.058 127.403 204.394 127.488 204.842 127.488H205.658V122.8H207.386V127.488H208.218C208.666 127.488 209.002 127.403 209.226 127.232C209.45 127.061 209.733 126.72 210.074 126.208L212.25 122.8H214.218L211.658 126.752C211.114 127.563 210.65 128.069 210.266 128.272C210.511 128.357 210.741 128.517 210.954 128.752C211.178 128.976 211.455 129.349 211.786 129.872L214.442 134H212.49ZM224.204 134L221.9 130.432C221.569 129.92 221.292 129.579 221.068 129.408C220.855 129.237 220.519 129.152 220.06 129.152H218.636V134H216.908V122.8H218.636V127.488H219.932C220.38 127.488 220.716 127.403 220.94 127.232C221.164 127.061 221.447 126.72 221.788 126.208L223.964 122.8H225.932L223.388 126.752C222.812 127.573 222.343 128.08 221.98 128.272C222.225 128.357 222.455 128.517 222.668 128.752C222.892 128.976 223.169 129.349 223.5 129.872L226.156 134H224.204ZM230.515 131.488L229.491 134H227.587L232.211 122.8H233.219L237.795 134H235.891L234.883 131.488H230.515ZM232.707 125.952L231.123 129.856H234.291L232.707 125.952Z" fill="#828282"/>
</svg>
