<svg width="772" height="292" viewBox="0 0 772 292" fill="none" xmlns="http://www.w3.org/2000/svg">
<g clip-path="url(#clip0)">
<path d="M692.58 95.4428C695.227 94.9158 697.965 94.6333 700.765 94.6333C723.861 94.6333 742.755 113.55 742.755 136.674V163.609C742.755 186.734 723.861 205.65 700.765 205.65C698.461 205.65 696.203 205.459 694.007 205.1M590.086 6C647.584 6 694.197 15.401 694.197 27.0013C694.197 38.6017 647.584 48.0027 590.086 48.0027C532.589 48.0027 485.976 38.5941 485.976 27.0013C485.976 15.401 532.581 6 590.086 6ZM694.075 31.2092C659.674 52.4244 524.938 52.5084 485.938 31.2398L487.86 261.995C490.4 271.235 502.703 278.33 524.77 283.279C579.507 290.717 626.585 289.686 665.998 280.186C680.597 276.016 690.322 271.793 692.878 260.933C693.412 116.826 694.075 31.2092 694.075 31.2092ZM693.984 67.1712C698.004 66.3693 702.153 65.9493 706.402 65.9493C741.428 65.9493 770.093 94.6409 770.093 129.717V170.574C770.093 205.643 741.436 234.342 706.402 234.342C702.916 234.342 696.913 233.769 693.572 233.227L693.984 67.1712Z" stroke="black" stroke-width="5" stroke-miterlimit="22.9256"/>
</g>
<rect x="54" y="68.0054" width="613" height="189" fill="white" stroke="#E25D23" stroke-width="4"/>
<path d="M156.78 149.805H166.5C168.228 149.805 169.692 150.033 170.892 150.489C172.092 150.921 172.968 151.509 173.52 152.253C174.096 152.997 174.492 153.705 174.708 154.377C174.924 155.049 175.032 155.757 175.032 156.501C175.032 159.189 173.928 160.977 171.72 161.865C173.04 162.177 174.084 162.873 174.852 163.953C175.62 165.009 176.004 166.281 176.004 167.769C176.004 172.593 172.896 175.005 166.68 175.005H156.78V149.805ZM161.748 154.485V159.885H167.04C168.24 159.885 169.092 159.621 169.596 159.093C170.1 158.541 170.352 157.905 170.352 157.185C170.352 155.385 169.248 154.485 167.04 154.485H161.748ZM161.748 164.169V170.289H167.724C168.996 170.289 169.908 170.013 170.46 169.461C171.036 168.885 171.324 168.141 171.324 167.229C171.324 166.365 171.024 165.645 170.424 165.069C169.848 164.469 168.948 164.169 167.724 164.169H161.748ZM186.254 170.397L184.454 175.005H178.946L189.314 149.805H192.23L202.454 175.005H196.946L195.146 170.397H186.254ZM190.718 158.805L187.982 165.681H193.418L190.718 158.805ZM238.104 175.005H207.432V149.805H212.4V170.325H220.284V149.805H225.252V170.325H233.136V149.805H238.104V175.005ZM250.553 159.993H261.461V164.673H250.553V170.325H262.361V175.005H245.585V149.805H262.361V154.485H250.553V159.993ZM300.041 175.005H295.073V159.129L283.121 175.005H280.205V149.805H285.173V165.681L297.089 149.805H300.041V175.005ZM312.649 159.705H315.817C317.017 159.705 317.869 159.441 318.373 158.913C318.877 158.361 319.129 157.725 319.129 157.005C319.129 155.157 317.953 154.233 315.601 154.233H315.421C314.413 154.233 313.273 154.461 312.001 154.917C310.753 155.373 309.673 155.973 308.761 156.717L305.521 153.729C306.865 152.457 308.389 151.449 310.093 150.705C311.797 149.937 313.513 149.553 315.241 149.553H315.493C316.789 149.577 317.941 149.745 318.949 150.057C319.981 150.369 320.785 150.765 321.361 151.245C321.961 151.701 322.453 152.241 322.837 152.865C323.221 153.489 323.473 154.077 323.593 154.629C323.737 155.181 323.809 155.745 323.809 156.321C323.809 157.689 323.497 158.889 322.873 159.921C322.249 160.953 321.421 161.673 320.389 162.081C321.685 162.393 322.705 163.077 323.449 164.133C324.217 165.189 324.601 166.461 324.601 167.949C324.601 170.133 323.845 171.897 322.333 173.241C320.845 174.561 318.493 175.233 315.277 175.257H315.025C313.129 175.257 311.305 174.837 309.553 173.997C307.801 173.157 306.289 172.041 305.017 170.649L308.257 167.661C309.145 168.525 310.225 169.233 311.497 169.785C312.793 170.313 314.029 170.577 315.205 170.577H315.385C318.385 170.529 319.885 169.473 319.885 167.409C319.885 166.545 319.585 165.825 318.985 165.249C318.409 164.649 317.509 164.349 316.285 164.349H312.649V159.705ZM332.293 153.333C334.789 150.813 337.813 149.553 341.365 149.553C344.917 149.553 347.941 150.813 350.437 153.333C352.957 155.829 354.217 158.853 354.217 162.405C354.217 165.957 352.957 168.993 350.437 171.513C347.941 174.009 344.917 175.257 341.365 175.257C337.813 175.257 334.789 174.009 332.293 171.513C329.797 168.993 328.549 165.957 328.549 162.405C328.549 158.853 329.797 155.829 332.293 153.333ZM346.981 156.537C345.469 155.001 343.597 154.233 341.365 154.233C339.133 154.233 337.261 155.001 335.749 156.537C334.261 158.073 333.517 160.029 333.517 162.405C333.517 164.805 334.261 166.773 335.749 168.309C337.261 169.821 339.133 170.577 341.365 170.577C343.621 170.577 345.493 169.821 346.981 168.309C348.493 166.773 349.249 164.805 349.249 162.405C349.249 160.029 348.493 158.073 346.981 156.537ZM365.057 159.093H370.961C373.793 159.093 375.941 159.813 377.405 161.253C378.869 162.669 379.601 164.601 379.601 167.049C379.601 169.521 378.881 171.465 377.441 172.881C376.001 174.297 373.841 175.005 370.961 175.005H360.089V149.805H376.937V154.485H365.057V159.093ZM365.057 170.325H371.033C373.601 170.325 374.885 169.233 374.885 167.049C374.885 164.865 373.601 163.773 371.033 163.773H365.057V170.325ZM385.26 149.805H393.54C396.996 149.805 399.732 150.717 401.748 152.541C403.764 154.341 404.772 156.657 404.772 159.489C404.772 162.345 403.764 164.685 401.748 166.509C399.732 168.309 396.996 169.209 393.54 169.209H390.228V175.005H385.26V149.805ZM390.228 164.529H393.936C395.688 164.529 397.14 164.109 398.292 163.269C399.468 162.429 400.056 161.169 400.056 159.489C400.056 157.881 399.468 156.645 398.292 155.781C397.116 154.917 395.664 154.485 393.936 154.485H390.228V164.529ZM413.364 170.397L411.564 175.005H406.056L416.424 149.805H419.34L429.564 175.005H424.056L422.256 170.397H413.364ZM417.828 158.805L415.092 165.681H420.528L417.828 158.805ZM463.197 175.005L458.013 166.905C457.413 166.017 456.897 165.417 456.465 165.105C456.033 164.793 455.409 164.637 454.593 164.637H453.225V175.005H448.257V164.637H446.889C446.049 164.637 445.413 164.793 444.981 165.105C444.549 165.417 444.045 166.017 443.469 166.905L438.285 175.005H432.669L438.825 165.393C439.977 163.617 440.997 162.525 441.885 162.117C441.117 161.709 440.145 160.701 438.969 159.093L433.065 149.805H438.681L443.613 157.581C444.213 158.469 444.729 159.069 445.161 159.381C445.593 159.693 446.217 159.849 447.033 159.849H448.257V149.805H453.225V159.849H454.413C455.229 159.849 455.853 159.693 456.285 159.381C456.741 159.069 457.257 158.469 457.833 157.581L462.801 149.805H468.417L462.477 159.093C461.373 160.653 460.413 161.661 459.597 162.117C460.485 162.549 461.505 163.641 462.657 165.393L468.813 175.005H463.197ZM478.541 159.993H489.449V164.673H478.541V170.325H490.349V175.005H473.573V149.805H490.349V154.485H478.541V159.993ZM515.757 175.005H510.789V164.673H501.033V175.005H496.065V149.805H501.033V159.993H510.789V149.805H515.757V175.005ZM542.479 175.005H537.511V159.129L525.559 175.005H522.643V149.805H527.611V165.681L539.527 149.805H542.479V175.005ZM554.654 159.993H565.562V164.673H554.654V170.325H566.462V175.005H549.686V149.805H566.462V154.485H554.654V159.993Z" fill="black"/>
<path d="M24 253.005L29.2011 259.005L34 253.005H24Z" fill="#E65420"/>
<path d="M58 37.0054L52 42.2064L58 47.0054L58 37.0054Z" fill="#E65420"/>
<path d="M24 72.0054L29.2011 66.0054L34 72.0054H24Z" fill="#E65420"/>
<path d="M454 37.0054L460 42.2064L454 47.0054L454 37.0054Z" fill="#E65420"/>
<path d="M29 68.0054L29 253.005" stroke="#E65420" stroke-width="2" stroke-miterlimit="10"/>
<path d="M454 42.0054L58 42.0054" stroke="#E65420" stroke-width="2" stroke-miterlimit="10"/>
<path d="M7.2 211.479L7.2 207.811C7.2 207.279 7.256 206.808 7.368 206.397C7.48 205.987 7.62467 205.669 7.802 205.445C7.97 205.212 8.17533 205.025 8.418 204.885C8.65133 204.736 8.87533 204.638 9.09 204.591C9.30467 204.545 9.52867 204.521 9.762 204.521C10.8353 204.521 11.54 204.988 11.876 205.921C11.9973 205.343 12.268 204.89 12.688 204.563C13.108 204.237 13.626 204.073 14.242 204.073C16.0807 204.073 17 205.249 17 207.601L17 211.479L7.2 211.479ZM8.628 209.967L11.288 209.967L11.288 207.657C11.288 206.528 10.8447 205.963 9.958 205.963C9.07133 205.963 8.628 206.528 8.628 207.657L8.628 209.967ZM12.59 209.967L15.572 209.967L15.572 207.293C15.572 206.108 15.0773 205.515 14.088 205.515C13.64 205.515 13.2807 205.665 13.01 205.963C12.73 206.253 12.59 206.696 12.59 207.293L12.59 209.967ZM10.938 200.358L10.938 197.782C10.938 196.699 11.2087 195.878 11.75 195.318C12.2913 194.749 13.0333 194.464 13.976 194.464C14.9187 194.464 15.6607 194.739 16.202 195.29C16.734 195.831 17 196.662 17 197.782L17 201.87L7.2 201.87L7.2 200.358L10.938 200.358ZM17 191.79L17 193.302L7.2 193.302L7.2 191.79L17 191.79ZM15.572 200.358L15.572 197.754C15.572 197.101 15.4367 196.629 15.166 196.34C14.8953 196.051 14.4987 195.906 13.976 195.906C12.9027 195.906 12.366 196.522 12.366 197.754L12.366 200.358L15.572 200.358ZM7.102 184.403C7.102 182.947 7.64333 181.715 8.726 180.707L9.636 181.687C8.89867 182.424 8.53 183.33 8.53 184.403C8.53 185.383 8.87067 186.209 9.552 186.881C10.224 187.544 11.0733 187.875 12.1 187.875C13.136 187.875 13.99 187.544 14.662 186.881C15.334 186.209 15.67 185.383 15.67 184.403C15.67 183.311 15.3013 182.406 14.564 181.687L15.474 180.707C16.5567 181.715 17.098 182.947 17.098 184.403C17.098 185.784 16.6127 186.96 15.642 187.931C14.662 188.902 13.4813 189.387 12.1 189.387C10.7187 189.387 9.54267 188.902 8.572 187.931C7.592 186.96 7.102 185.784 7.102 184.403ZM8.572 177.595C7.592 176.624 7.102 175.448 7.102 174.067C7.102 172.686 7.592 171.51 8.572 170.539C9.54266 169.559 10.7187 169.069 12.1 169.069C13.4813 169.069 14.662 169.559 15.642 170.539C16.6127 171.51 17.098 172.686 17.098 174.067C17.098 175.448 16.6127 176.624 15.642 177.595C14.662 178.566 13.4813 179.051 12.1 179.051C10.7187 179.051 9.54266 178.566 8.572 177.595ZM9.552 171.589C8.87066 172.261 8.53 173.087 8.53 174.067C8.53 175.047 8.87066 175.873 9.552 176.545C10.224 177.208 11.0733 177.539 12.1 177.539C13.136 177.539 13.99 177.208 14.662 176.545C15.334 175.873 15.67 175.047 15.67 174.067C15.67 173.087 15.334 172.261 14.662 171.589C13.99 170.917 13.136 170.581 12.1 170.581C11.0733 170.581 10.224 170.917 9.552 171.589ZM8.628 163.383L17 163.383L17 164.895L8.628 164.895L8.628 167.751L7.2 167.751L7.2 160.513L8.628 160.513L8.628 163.383ZM14.802 157.902L17 158.798L17 160.464L7.2 156.418L7.2 155.536L17 151.532L17 153.198L14.802 154.08L14.802 157.902ZM9.958 155.984L13.374 157.37L13.374 154.598L9.958 155.984ZM11.89 140.434C12.058 139.883 12.352 139.445 12.772 139.118C13.1827 138.782 13.6773 138.614 14.256 138.614C15.1053 138.614 15.7913 138.922 16.314 139.538C16.8273 140.145 17.0887 140.975 17.098 142.03L17.098 142.114C17.098 143.178 16.8367 144.018 16.314 144.634C15.7913 145.25 15.1053 145.558 14.256 145.558C13.6773 145.558 13.1827 145.395 12.772 145.068C12.352 144.741 12.058 144.303 11.89 143.752C11.4793 144.732 10.77 145.222 9.762 145.222C9.08066 145.222 8.502 144.942 8.026 144.382C7.54066 143.822 7.298 143.075 7.298 142.142L7.298 142.002C7.298 141.069 7.54066 140.331 8.026 139.79C8.502 139.239 9.08066 138.964 9.762 138.964C10.7793 138.964 11.4887 139.454 11.89 140.434ZM8.992 143.29C9.22533 143.607 9.57066 143.766 10.028 143.766C10.4853 143.766 10.8353 143.607 11.078 143.29C11.3113 142.963 11.428 142.557 11.428 142.072C11.428 141.587 11.3113 141.185 11.078 140.868C10.8353 140.541 10.4853 140.378 10.028 140.378C9.57066 140.378 9.22533 140.541 8.992 140.868C8.74933 141.185 8.628 141.587 8.628 142.072C8.628 142.557 8.74933 142.963 8.992 143.29ZM15.25 143.542C15.5487 143.159 15.698 142.669 15.698 142.072C15.698 141.475 15.5487 140.989 15.25 140.616C14.942 140.233 14.5267 140.042 14.004 140.042C13.4907 140.042 13.0847 140.229 12.786 140.602C12.4873 140.966 12.3333 141.456 12.324 142.072C12.324 142.296 12.352 142.52 12.408 142.744C12.464 142.959 12.5527 143.173 12.674 143.388C12.7953 143.593 12.9727 143.766 13.206 143.906C13.43 144.037 13.696 144.102 14.004 144.102C14.5267 144.102 14.942 143.915 15.25 143.542ZM7.102 127.378C7.102 125.922 7.64333 124.69 8.726 123.682L9.636 124.662C8.89866 125.399 8.53 126.304 8.53 127.378C8.53 128.358 8.87066 129.184 9.552 129.856C10.224 130.518 11.0733 130.85 12.1 130.85C13.136 130.85 13.99 130.518 14.662 129.856C15.334 129.184 15.67 128.358 15.67 127.378C15.67 126.286 15.3013 125.38 14.564 124.662L15.474 123.682C16.5567 124.69 17.098 125.922 17.098 127.378C17.098 128.759 16.6127 129.935 15.642 130.906C14.662 131.876 13.4813 132.362 12.1 132.362C10.7187 132.362 9.54266 131.876 8.572 130.906C7.592 129.935 7.102 128.759 7.102 127.378ZM17 111.904L17 113.416L10.028 113.416L14.172 116.706L10.028 120.01L17 120.01L17 121.522L7.2 121.522L7.2 120.64L12.17 116.706L7.19999 112.772L7.19999 111.904L17 111.904Z" fill="black"/>
<path d="M212.23 30.0054L200.386 30.0054L200.386 20.2054L201.898 20.2054L201.898 28.5774L205.552 28.5774L205.552 20.2054L207.064 20.2054L207.064 28.5774L210.718 28.5774L210.718 20.2054H212.23L212.23 30.0054ZM222.657 30.0054H221.145V23.0894L215.965 30.0054H215.083L215.083 20.2054H216.595L216.595 27.1214L221.775 20.2054L222.657 20.2054L222.657 30.0054ZM225.573 20.2054L228.737 20.2054C230.044 20.2054 231.089 20.546 231.873 21.2274C232.657 21.8994 233.049 22.786 233.049 23.8874C233.049 24.998 232.657 25.8894 231.873 26.5614C231.089 27.2334 230.044 27.5694 228.737 27.5694H227.085V30.0054L225.573 30.0054L225.573 20.2054ZM227.085 26.1554H228.835C229.638 26.1554 230.3 25.9687 230.823 25.5954C231.355 25.2127 231.621 24.6434 231.621 23.8874C231.621 23.15 231.355 22.59 230.823 22.2074C230.291 21.8247 229.628 21.6334 228.835 21.6334H227.085L227.085 26.1554ZM242.905 30.0054L241.393 30.0054L241.393 23.0894L236.213 30.0054H235.331L235.331 20.2054H236.843L236.843 27.1214L242.023 20.2054H242.905L242.905 30.0054ZM253.213 30.0054L251.701 30.0054V25.7774L247.193 25.7774V30.0054H245.681L245.681 20.2054L247.193 20.2054L247.193 24.3494L251.701 24.3494L251.701 20.2054H253.213L253.213 30.0054ZM257.699 27.8074L256.803 30.0054L255.137 30.0054L259.183 20.2054L260.065 20.2054L264.069 30.0054H262.403L261.521 27.8074L257.699 27.8074ZM259.617 22.9634L258.231 26.3794L261.003 26.3794L259.617 22.9634ZM277.393 30.0054L270.043 30.0054V29.1234L274.215 25.5674C274.738 25.1194 275.116 24.7414 275.349 24.4334C275.582 24.116 275.699 23.7707 275.699 23.3974C275.699 22.884 275.512 22.4827 275.139 22.1934C274.775 21.8947 274.322 21.7407 273.781 21.7314H273.669C272.81 21.7314 271.994 22.1327 271.219 22.9354L270.239 22.0254C271.256 20.8774 272.442 20.3034 273.795 20.3034H273.921C274.91 20.3127 275.704 20.588 276.301 21.1294C276.898 21.6707 277.197 22.3287 277.197 23.1034C277.197 23.7474 276.996 24.3447 276.595 24.8954C276.203 25.446 275.564 26.0807 274.677 26.7994L272.633 28.5914L277.393 28.5914V30.0054ZM280.47 21.7454C281.431 20.784 282.589 20.3034 283.942 20.3034C285.295 20.3034 286.448 20.784 287.4 21.7454C288.361 22.6974 288.842 23.85 288.842 25.2034C288.842 26.5567 288.361 27.714 287.4 28.6754C286.448 29.6274 285.295 30.1034 283.942 30.1034C282.589 30.1034 281.431 29.6274 280.47 28.6754C279.518 27.714 279.042 26.5567 279.042 25.2034C279.042 23.85 279.518 22.6974 280.47 21.7454ZM286.35 22.7254C285.697 22.0627 284.894 21.7314 283.942 21.7314C282.99 21.7314 282.187 22.0627 281.534 22.7254C280.89 23.3787 280.568 24.2047 280.568 25.2034C280.568 26.2114 280.89 27.042 281.534 27.6954C282.187 28.3487 282.99 28.6754 283.942 28.6754C284.894 28.6754 285.697 28.3487 286.35 27.6954C287.003 27.042 287.33 26.2114 287.33 25.2034C287.33 24.2047 287.003 23.3787 286.35 22.7254ZM300.2 20.1074C301.656 20.1074 302.888 20.6487 303.896 21.7314L302.916 22.6414C302.179 21.904 301.273 21.5354 300.2 21.5354C299.22 21.5354 298.394 21.876 297.722 22.5574C297.059 23.2294 296.728 24.0787 296.728 25.1054C296.728 26.1414 297.059 26.9954 297.722 27.6674C298.394 28.3394 299.22 28.6754 300.2 28.6754C301.292 28.6754 302.197 28.3067 302.916 27.5694L303.896 28.4794C302.888 29.562 301.656 30.1034 300.2 30.1034C298.819 30.1034 297.643 29.618 296.672 28.6474C295.701 27.6674 295.216 26.4867 295.216 25.1054C295.216 23.724 295.701 22.548 296.672 21.5774C297.643 20.5974 298.819 20.1074 300.2 20.1074ZM315.674 30.0054H314.162V23.0334L310.872 27.1774L307.568 23.0334V30.0054H306.056V20.2054H306.938L310.872 25.1754L314.806 20.2054H315.674V30.0054Z" fill="black"/>
<defs>
<clipPath id="clip0">
<rect width="288" height="292" fill="white" transform="translate(484)"/>
</clipPath>
</defs>
</svg>
