<svg width="335" height="310" viewBox="0 0 335 310" fill="none" xmlns="http://www.w3.org/2000/svg">
<path fill-rule="evenodd" clip-rule="evenodd" d="M252.993 216.599C254.929 231.259 256.051 246.947 256.051 263.764C256.051 280.431 255.485 295.801 254.507 310C302.768 280.668 335 227.662 335 167.143C335 74.8341 260.043 0.00865194 167.573 0.00865194C146.329 -0.220792 126.809 4.14031 110.562 9.87195L110.658 9.96384C111.073 9.81459 111.484 9.65977 111.899 9.51386C119.813 13.4723 154.269 38.5714 167.573 49.4711C174.694 54.8502 234.44 102.812 251.442 206.143H210.812C208.025 184.758 189.731 168.264 167.582 168.264C145.417 168.264 127.122 184.758 124.335 206.143H84.5537L83 216.599H124.227C126.608 238.387 145.105 255.348 167.581 255.348C190.042 255.348 208.537 238.387 210.918 216.599H252.993Z" fill="#F3723A"/>
<path fill-rule="evenodd" clip-rule="evenodd" d="M82.0073 216.599C80.0709 231.259 78.9489 246.947 78.9489 263.764C78.9489 280.431 79.5152 295.801 80.4926 310C32.2315 280.668 0 227.662 0 167.143C0 74.8341 74.9566 0.00865194 167.427 0.00865194C188.671 -0.220792 208.191 4.14031 224.438 9.87195L224.342 9.96384C223.927 9.81459 223.516 9.65977 223.101 9.51386C215.187 13.4723 180.731 38.5714 167.427 49.4711C160.306 54.8502 100.56 102.812 83.5583 206.143H124.188C126.975 184.758 145.269 168.264 167.418 168.264C189.583 168.264 207.878 184.758 210.665 206.143H250.446L252 216.599H210.773C208.392 238.387 189.895 255.348 167.419 255.348C144.958 255.348 126.463 238.387 124.082 216.599H82.0073Z" fill="#F3723A"/>
</svg>
