<svg width="528" height="92" viewBox="0 0 528 92" fill="none" xmlns="http://www.w3.org/2000/svg">
<path d="M198.624 25.688C200.288 25.688 201.696 26.3067 202.848 27.544L201.408 28.872C200.651 28.136 199.723 27.768 198.624 27.768C197.632 27.768 196.8 28.1093 196.128 28.792C195.467 29.4747 195.136 30.344 195.136 31.4C195.136 32.4667 195.467 33.3413 196.128 34.024C196.8 34.696 197.632 35.032 198.624 35.032C199.744 35.032 200.672 34.664 201.408 33.928L202.848 35.256C201.696 36.4933 200.288 37.112 198.624 37.112C197.045 37.112 195.701 36.5573 194.592 35.448C193.483 34.328 192.928 32.9787 192.928 31.4C192.928 29.8213 193.483 28.4773 194.592 27.368C195.701 26.248 197.045 25.688 198.624 25.688ZM213.373 37H211.341V32.28L209.101 34.856L206.861 32.28V37H204.829V29H206.141L209.101 32.424L212.061 29H213.373V37ZM219.662 28.888C221.358 28.888 222.531 29.608 223.182 31.048C223.342 31.4 223.433 31.8267 223.454 32.328C223.475 32.8187 223.427 33.2293 223.31 33.56H217.726C217.726 34.0827 217.913 34.4933 218.286 34.792C218.67 35.0907 219.145 35.24 219.71 35.24C220.595 35.24 221.401 35.0533 222.126 34.68L223.198 35.848C222.078 36.68 220.915 37.096 219.71 37.096C218.505 37.096 217.523 36.712 216.766 35.944C216.009 35.1653 215.63 34.184 215.63 33C215.63 31.8267 215.998 30.8507 216.734 30.072C217.47 29.2827 218.446 28.888 219.662 28.888ZM219.662 30.744C219.139 30.744 218.702 30.8987 218.35 31.208C218.009 31.5173 217.827 31.8747 217.806 32.28H221.47C221.47 32.0453 221.406 31.832 221.278 31.64C220.958 31.0427 220.419 30.744 219.662 30.744ZM239.108 38.488H237.076V37H225.876V29H227.908V35.032H230.836V29H232.852V35.032H235.78V29H237.812V35.032H239.108V38.488ZM244.506 28.888C246.202 28.888 247.375 29.608 248.026 31.048C248.186 31.4 248.276 31.8267 248.298 32.328C248.319 32.8187 248.271 33.2293 248.154 33.56H242.57C242.57 34.0827 242.756 34.4933 243.13 34.792C243.514 35.0907 243.988 35.24 244.554 35.24C245.439 35.24 246.244 35.0533 246.97 34.68L248.042 35.848C246.922 36.68 245.759 37.096 244.554 37.096C243.348 37.096 242.367 36.712 241.61 35.944C240.852 35.1653 240.474 34.184 240.474 33C240.474 31.8267 240.842 30.8507 241.578 30.072C242.314 29.2827 243.29 28.888 244.506 28.888ZM244.506 30.744C243.983 30.744 243.546 30.8987 243.194 31.208C242.852 31.5173 242.671 31.8747 242.65 32.28H246.314C246.314 32.0453 246.25 31.832 246.122 31.64C245.802 31.0427 245.263 30.744 244.506 30.744ZM258.271 37H256.239V33.928H252.751V37H250.719V29H252.751V31.96H256.239V29H258.271V37ZM268.441 37H266.409V32.28L262.313 37H261.001V29H263.033V33.72L267.129 29H268.441V37ZM274.709 28.888C276.405 28.888 277.578 29.608 278.229 31.048C278.389 31.4 278.48 31.8267 278.501 32.328C278.522 32.8187 278.474 33.2293 278.357 33.56H272.773C272.773 34.0827 272.96 34.4933 273.333 34.792C273.717 35.0907 274.192 35.24 274.757 35.24C275.642 35.24 276.448 35.0533 277.173 34.68L278.245 35.848C277.125 36.68 275.962 37.096 274.757 37.096C273.552 37.096 272.57 36.712 271.813 35.944C271.056 35.1653 270.677 34.184 270.677 33C270.677 31.8267 271.045 30.8507 271.781 30.072C272.517 29.2827 273.493 28.888 274.709 28.888ZM274.709 30.744C274.186 30.744 273.749 30.8987 273.397 31.208C273.056 31.5173 272.874 31.8747 272.853 32.28H276.517C276.517 32.0453 276.453 31.832 276.325 31.64C276.005 31.0427 275.466 30.744 274.709 30.744ZM291.785 25.8H293.817C293.817 26.6 293.588 27.1973 293.129 27.592C292.681 27.9867 291.913 28.184 290.825 28.184H290.313C289.556 28.184 288.958 28.36 288.521 28.712C288.084 29.0533 287.865 29.544 287.865 30.184V30.536C288.089 30.152 288.42 29.8427 288.857 29.608C289.305 29.3733 289.79 29.256 290.313 29.256C291.433 29.256 292.334 29.608 293.017 30.312C293.7 31.016 294.041 31.912 294.041 33C294.041 34.1733 293.662 35.1547 292.905 35.944C292.148 36.7333 291.156 37.128 289.929 37.128C288.756 37.128 287.78 36.7333 287.001 35.944C286.222 35.1547 285.833 34.1147 285.833 32.824V30.904C285.833 29.496 286.233 28.408 287.033 27.64C287.844 26.8613 288.99 26.472 290.473 26.472C290.985 26.472 291.332 26.424 291.513 26.328C291.694 26.232 291.785 26.056 291.785 25.8ZM289.929 31.128C289.374 31.128 288.889 31.32 288.473 31.704C288.068 32.088 287.865 32.568 287.865 33.144C287.865 33.7307 288.068 34.216 288.473 34.6C288.878 34.9733 289.364 35.16 289.929 35.16C290.494 35.16 290.98 34.9733 291.385 34.6C291.79 34.216 291.993 33.7307 291.993 33.144C291.993 32.568 291.785 32.088 291.369 31.704C290.953 31.32 290.473 31.128 289.929 31.128ZM303.722 37H301.69V32.28L297.594 37H296.282V29H298.314V33.72L302.41 29H303.722V37ZM308.47 30.968V37H306.438V29H312.438V30.968H308.47ZM317.929 28.888C319.07 28.888 320.041 29.2933 320.841 30.104C321.641 30.904 322.041 31.8693 322.041 33C322.041 34.1307 321.641 35.096 320.841 35.896C320.041 36.696 319.07 37.096 317.929 37.096C316.788 37.096 315.817 36.696 315.017 35.896C314.228 35.096 313.833 34.1307 313.833 33C313.833 31.8587 314.233 30.888 315.033 30.088C315.833 29.288 316.798 28.888 317.929 28.888ZM319.369 31.464C318.964 31.0587 318.484 30.856 317.929 30.856C317.374 30.856 316.889 31.0587 316.473 31.464C316.068 31.8587 315.865 32.3707 315.865 33C315.865 33.6293 316.068 34.1413 316.473 34.536C316.878 34.9307 317.364 35.128 317.929 35.128C318.484 35.128 318.964 34.9307 319.369 34.536C319.785 34.1413 319.993 33.6293 319.993 33C319.993 32.3707 319.785 31.8587 319.369 31.464ZM324.282 29H328.474C330.309 29 331.226 29.7253 331.226 31.176C331.226 32.0187 330.863 32.568 330.138 32.824C331.109 33.048 331.594 33.6453 331.594 34.616C331.594 35.4587 331.349 36.0667 330.858 36.44C330.367 36.8133 329.578 37 328.49 37H324.282V29ZM326.314 30.728V32.152H328.362C328.917 32.1413 329.194 31.9013 329.194 31.432C329.194 30.9627 328.906 30.728 328.33 30.728H326.314ZM326.314 35.272H328.538C329.221 35.272 329.562 34.9947 329.562 34.44C329.562 33.9067 329.231 33.6347 328.57 33.624H326.314V35.272ZM339.428 37L338.052 34.872C337.796 34.4773 337.567 34.2107 337.364 34.072C337.172 33.9333 336.895 33.864 336.532 33.864H335.972V37H333.94V29H335.972V31.912H336.468C336.831 31.912 337.108 31.8427 337.3 31.704C337.492 31.5653 337.716 31.2987 337.972 30.904L339.22 29H341.476L339.684 31.704C339.279 32.3333 338.9 32.7227 338.548 32.872C338.911 32.9893 339.316 33.3893 339.764 34.072L341.684 37H339.428ZM350.878 37H348.846V32.28L344.75 37H343.438V29H345.47V33.72L349.566 29H350.878V37Z" fill="black"/>
<line x1="389" y1="51" x2="136" y2="51" stroke="#E25D23" stroke-width="4"/>
<path d="M137 43L126 50.2815L137 57L137 43Z" fill="#E6551F"/>
<path d="M0 23H82V0" stroke="#9B51E0" stroke-width="8"/>
<path d="M1 33H92V1" stroke="black" stroke-width="4"/>
<path d="M1 42H100V1" stroke="black" stroke-width="4"/>
<path d="M1 51H109V1" stroke="black" stroke-width="4"/>
<path d="M1 60H528" stroke="black" stroke-width="4"/>
<path d="M1 69H528" stroke="black" stroke-width="4"/>
<path d="M1 78H528" stroke="black" stroke-width="4"/>
<path d="M1 88H528" stroke="#9B51E0" stroke-width="8"/>
<path d="M78 19L112.5 54.5" stroke="#E25D23" stroke-width="4" stroke-dasharray="5 5"/>
</svg>
