<svg width="408" height="348" viewBox="0 0 408 348" fill="none" xmlns="http://www.w3.org/2000/svg">
<path d="M40.8666 281.4H45.0066C46.7346 281.4 48.1026 281.856 49.1106 282.768C50.1186 283.668 50.6226 284.826 50.6226 286.242C50.6226 287.67 50.1186 288.84 49.1106 289.752C48.1026 290.652 46.7346 291.102 45.0066 291.102H43.3506V294H40.8666V281.4ZM43.3506 288.762H45.2046C46.0806 288.762 46.8066 288.552 47.3826 288.132C47.9706 287.712 48.2646 287.082 48.2646 286.242C48.2646 285.438 47.9706 284.82 47.3826 284.388C46.7946 283.956 46.0686 283.74 45.2046 283.74H43.3506V288.762ZM54.9182 291.696L54.0182 294H51.2642L56.4482 281.4H57.9062L63.0182 294H60.2642L59.3642 291.696H54.9182ZM57.1502 285.9L55.7822 289.338H58.5002L57.1502 285.9ZM69.9481 281.274C71.8201 281.274 73.4041 281.97 74.7001 283.362L73.0801 284.856C72.2281 284.028 71.1841 283.614 69.9481 283.614C68.8321 283.614 67.8961 283.998 67.1401 284.766C66.3961 285.534 66.0241 286.512 66.0241 287.7C66.0241 288.9 66.3961 289.884 67.1401 290.652C67.8961 291.408 68.8321 291.786 69.9481 291.786C71.2081 291.786 72.2521 291.372 73.0801 290.544L74.7001 292.038C73.4041 293.43 71.8201 294.126 69.9481 294.126C68.1721 294.126 66.6601 293.502 65.4121 292.254C64.1641 290.994 63.5401 289.476 63.5401 287.7C63.5401 285.924 64.1641 284.412 65.4121 283.164C66.6601 281.904 68.1721 281.274 69.9481 281.274ZM85.4901 294L82.8981 289.95C82.6101 289.506 82.3581 289.206 82.1421 289.05C81.9261 288.894 81.6081 288.816 81.1881 288.816H80.0361V294H77.5521V281.4H80.0361V286.422H81.1161C81.5241 286.422 81.8361 286.344 82.0521 286.188C82.2801 286.032 82.5381 285.732 82.8261 285.288L85.3101 281.4H88.1181L85.1481 286.044C84.5601 286.848 84.0741 287.352 83.6901 287.556C84.1461 287.76 84.6561 288.306 85.2201 289.194L88.2981 294H85.4901ZM90.9642 281.4H95.1042C96.8322 281.4 98.2002 281.856 99.2082 282.768C100.216 283.668 100.72 284.826 100.72 286.242C100.72 287.67 100.216 288.84 99.2082 289.752C98.2002 290.652 96.8322 291.102 95.1042 291.102H93.4482V294H90.9642V281.4ZM93.4482 288.762H95.3022C96.1782 288.762 96.9042 288.552 97.4802 288.132C98.0682 287.712 98.3622 287.082 98.3622 286.242C98.3622 285.438 98.0682 284.82 97.4802 284.388C96.8922 283.956 96.1662 283.74 95.3022 283.74H93.4482V288.762ZM106.014 286.044H108.84C110.256 286.044 111.324 286.404 112.044 287.124C112.776 287.832 113.142 288.798 113.142 290.022C113.142 291.258 112.782 292.23 112.062 292.938C111.354 293.646 110.28 294 108.84 294H103.53V281.4H106.014V286.044ZM116.904 294H114.42V281.4H116.904V294ZM106.014 291.66H108.876C110.16 291.66 110.802 291.114 110.802 290.022C110.802 288.93 110.16 288.384 108.876 288.384H106.014V291.66ZM120.706 281.4H125.566C126.43 281.4 127.162 281.514 127.762 281.742C128.362 281.958 128.8 282.252 129.076 282.624C129.364 282.996 129.562 283.35 129.67 283.686C129.778 284.022 129.832 284.376 129.832 284.748C129.832 286.092 129.28 286.986 128.176 287.43C128.836 287.586 129.358 287.934 129.742 288.474C130.126 289.002 130.318 289.638 130.318 290.382C130.318 292.794 128.764 294 125.656 294H120.706V281.4ZM123.19 283.74V286.44H125.836C126.436 286.44 126.862 286.308 127.114 286.044C127.366 285.768 127.492 285.45 127.492 285.09C127.492 284.19 126.94 283.74 125.836 283.74H123.19ZM123.19 288.582V291.642H126.178C126.814 291.642 127.27 291.504 127.546 291.228C127.834 290.94 127.978 290.568 127.978 290.112C127.978 289.68 127.828 289.32 127.528 289.032C127.24 288.732 126.79 288.582 126.178 288.582H123.19ZM135.444 291.696L134.544 294H131.79L136.974 281.4H138.432L143.544 294H140.79L139.89 291.696H135.444ZM137.676 285.9L136.308 289.338H139.026L137.676 285.9ZM148.696 286.494H154.15V288.834H148.696V291.66H154.6V294H146.212V281.4H154.6V283.74H148.696V286.494ZM170.004 294H167.52V285.954L163.722 290.67L159.942 285.954V294H157.458V281.4H158.934L163.722 287.412L168.528 281.4H170.004V294ZM174.818 283.164C176.066 281.904 177.578 281.274 179.354 281.274C181.13 281.274 182.642 281.904 183.89 283.164C185.15 284.412 185.78 285.924 185.78 287.7C185.78 289.476 185.15 290.994 183.89 292.254C182.642 293.502 181.13 294.126 179.354 294.126C177.578 294.126 176.066 293.502 174.818 292.254C173.57 290.994 172.946 289.476 172.946 287.7C172.946 285.924 173.57 284.412 174.818 283.164ZM182.162 284.766C181.406 283.998 180.47 283.614 179.354 283.614C178.238 283.614 177.302 283.998 176.546 284.766C175.802 285.534 175.43 286.512 175.43 287.7C175.43 288.9 175.802 289.884 176.546 290.652C177.302 291.408 178.238 291.786 179.354 291.786C180.482 291.786 181.418 291.408 182.162 290.652C182.918 289.884 183.296 288.9 183.296 287.7C183.296 286.512 182.918 285.534 182.162 284.766ZM194.278 281.274C196.15 281.274 197.734 281.97 199.03 283.362L197.41 284.856C196.558 284.028 195.514 283.614 194.278 283.614C193.162 283.614 192.226 283.998 191.47 284.766C190.726 285.534 190.354 286.512 190.354 287.7C190.354 288.9 190.726 289.884 191.47 290.652C192.226 291.408 193.162 291.786 194.278 291.786C195.538 291.786 196.582 291.372 197.41 290.544L199.03 292.038C197.734 293.43 196.15 294.126 194.278 294.126C192.502 294.126 190.99 293.502 189.742 292.254C188.494 290.994 187.87 289.476 187.87 287.7C187.87 285.924 188.494 284.412 189.742 283.164C190.99 281.904 192.502 281.274 194.278 281.274ZM206.706 283.74V294H204.222V283.74H200.766V281.4H210.162V283.74H206.706ZM215.191 286.044H218.017C219.433 286.044 220.501 286.404 221.221 287.124C221.953 287.832 222.319 288.798 222.319 290.022C222.319 291.258 221.959 292.23 221.239 292.938C220.531 293.646 219.457 294 218.017 294H212.707V281.4H215.191V286.044ZM215.191 291.66H218.053C219.337 291.66 219.979 291.114 219.979 290.022C219.979 288.93 219.337 288.384 218.053 288.384H215.191V291.66ZM240.833 294H238.349V288.834H233.471V294H230.987V281.4H233.471V286.494H238.349V281.4H240.833V294ZM246.94 286.494H252.394V288.834H246.94V291.66H252.844V294H244.456V281.4H252.844V283.74H246.94V286.494ZM261.947 281.4H266.807C267.671 281.4 268.403 281.514 269.003 281.742C269.603 281.958 270.041 282.252 270.317 282.624C270.605 282.996 270.803 283.35 270.911 283.686C271.019 284.022 271.073 284.376 271.073 284.748C271.073 286.092 270.521 286.986 269.417 287.43C270.077 287.586 270.599 287.934 270.983 288.474C271.367 289.002 271.559 289.638 271.559 290.382C271.559 292.794 270.005 294 266.897 294H261.947V281.4ZM264.431 283.74V286.44H267.077C267.677 286.44 268.103 286.308 268.355 286.044C268.607 285.768 268.733 285.45 268.733 285.09C268.733 284.19 268.181 283.74 267.077 283.74H264.431ZM264.431 288.582V291.642H267.419C268.055 291.642 268.511 291.504 268.787 291.228C269.075 290.94 269.219 290.568 269.219 290.112C269.219 289.68 269.069 289.32 268.769 289.032C268.481 288.732 268.031 288.582 267.419 288.582H264.431ZM276.768 286.044H279.594C281.01 286.044 282.078 286.404 282.798 287.124C283.53 287.832 283.896 288.798 283.896 290.022C283.896 291.258 283.536 292.23 282.816 292.938C282.108 293.646 281.034 294 279.594 294H274.284V281.4H276.768V286.044ZM287.658 294H285.174V281.4H287.658V294ZM276.768 291.66H279.63C280.914 291.66 281.556 291.114 281.556 290.022C281.556 288.93 280.914 288.384 279.63 288.384H276.768V291.66ZM297.022 281.274C298.894 281.274 300.478 281.97 301.774 283.362L300.154 284.856C299.302 284.028 298.258 283.614 297.022 283.614C295.906 283.614 294.97 283.998 294.214 284.766C293.47 285.534 293.098 286.512 293.098 287.7C293.098 288.9 293.47 289.884 294.214 290.652C294.97 291.408 295.906 291.786 297.022 291.786C298.282 291.786 299.326 291.372 300.154 290.544L301.774 292.038C300.478 293.43 298.894 294.126 297.022 294.126C295.246 294.126 293.734 293.502 292.486 292.254C291.238 290.994 290.614 289.476 290.614 287.7C290.614 285.924 291.238 284.412 292.486 283.164C293.734 281.904 295.246 281.274 297.022 281.274ZM305.652 283.164C306.9 281.904 308.412 281.274 310.188 281.274C311.964 281.274 313.476 281.904 314.724 283.164C315.984 284.412 316.614 285.924 316.614 287.7C316.614 289.476 315.984 290.994 314.724 292.254C313.476 293.502 311.964 294.126 310.188 294.126C308.412 294.126 306.9 293.502 305.652 292.254C304.404 290.994 303.78 289.476 303.78 287.7C303.78 285.924 304.404 284.412 305.652 283.164ZM312.996 284.766C312.24 283.998 311.304 283.614 310.188 283.614C309.072 283.614 308.136 283.998 307.38 284.766C306.636 285.534 306.264 286.512 306.264 287.7C306.264 288.9 306.636 289.884 307.38 290.652C308.136 291.408 309.072 291.786 310.188 291.786C311.316 291.786 312.252 291.408 312.996 290.652C313.752 289.884 314.13 288.9 314.13 287.7C314.13 286.512 313.752 285.534 312.996 284.766ZM327.488 294L324.896 289.95C324.608 289.506 324.356 289.206 324.14 289.05C323.924 288.894 323.606 288.816 323.186 288.816H322.034V294H319.55V281.4H322.034V286.422H323.114C323.522 286.422 323.834 286.344 324.05 286.188C324.278 286.032 324.536 285.732 324.824 285.288L327.308 281.4H330.116L327.146 286.044C326.558 286.848 326.072 287.352 325.688 287.556C326.144 287.76 326.654 288.306 327.218 289.194L330.296 294H327.488ZM335.5 291.696L334.6 294H331.846L337.03 281.4H338.488L343.6 294H340.846L339.946 291.696H335.5ZM337.732 285.9L336.364 289.338H339.082L337.732 285.9ZM355.143 294H352.659V290.922H351.273C350.673 290.934 350.223 291.048 349.923 291.264C349.635 291.48 349.245 291.972 348.753 292.74L347.943 294H345.153L346.233 292.326C346.989 291.162 347.619 290.424 348.123 290.112C347.259 289.776 346.587 289.266 346.107 288.582C345.639 287.898 345.405 287.088 345.405 286.152C345.405 284.772 345.885 283.638 346.845 282.75C347.817 281.85 349.155 281.4 350.859 281.4H355.143V294ZM352.659 283.74H350.625C349.773 283.74 349.077 283.95 348.537 284.37C348.009 284.79 347.745 285.384 347.745 286.152C347.745 286.956 348.009 287.562 348.537 287.97C349.065 288.378 349.761 288.582 350.625 288.582H352.659V283.74ZM361.949 291.696L359.699 296.592H358.025L359.537 291.696H361.949ZM12.7483 315.696L11.8483 318H9.09431L14.2783 305.4H15.7363L20.8483 318H18.0943L17.1943 315.696H12.7483ZM14.9803 309.9L13.6123 313.338H16.3303L14.9803 309.9ZM32.2814 310.35H33.8654C34.4654 310.35 34.8914 310.218 35.1434 309.954C35.3954 309.678 35.5214 309.36 35.5214 309C35.5214 308.076 34.9334 307.614 33.7574 307.614H33.6674C33.1634 307.614 32.5934 307.728 31.9574 307.956C31.3334 308.184 30.7934 308.484 30.3374 308.856L28.7174 307.362C29.3894 306.726 30.1514 306.222 31.0034 305.85C31.8554 305.466 32.7134 305.274 33.5774 305.274H33.7034C34.3514 305.286 34.9274 305.37 35.4314 305.526C35.9474 305.682 36.3494 305.88 36.6374 306.12C36.9374 306.348 37.1834 306.618 37.3754 306.93C37.5674 307.242 37.6934 307.536 37.7534 307.812C37.8254 308.088 37.8614 308.37 37.8614 308.658C37.8614 309.342 37.7054 309.942 37.3934 310.458C37.0814 310.974 36.6674 311.334 36.1514 311.538C36.7994 311.694 37.3094 312.036 37.6814 312.564C38.0654 313.092 38.2574 313.728 38.2574 314.472C38.2574 315.564 37.8794 316.446 37.1234 317.118C36.3794 317.778 35.2034 318.114 33.5954 318.126H33.4694C32.5214 318.126 31.6094 317.916 30.7334 317.496C29.8574 317.076 29.1014 316.518 28.4654 315.822L30.0854 314.328C30.5294 314.76 31.0694 315.114 31.7054 315.39C32.3534 315.654 32.9714 315.786 33.5594 315.786H33.6494C35.1494 315.762 35.8994 315.234 35.8994 314.202C35.8994 313.77 35.7494 313.41 35.4494 313.122C35.1614 312.822 34.7114 312.672 34.0994 312.672H32.2814V310.35ZM50.7435 318H48.2595V312.834H43.3815V318H40.8975V305.4H43.3815V310.494H48.2595V305.4H50.7435V318ZM56.7815 315.696L55.8815 318H53.1275L58.3115 305.4H59.7695L64.8815 318H62.1275L61.2275 315.696H56.7815ZM59.0135 309.9L57.6455 313.338H60.3635L59.0135 309.9ZM75.6683 318H73.1843V313.608C72.6203 314.448 71.7083 314.868 70.4483 314.868C69.8243 314.868 69.2483 314.784 68.7203 314.616C68.1923 314.436 67.7063 314.16 67.2623 313.788C66.8303 313.404 66.4883 312.876 66.2363 312.204C65.9843 311.532 65.8583 310.746 65.8583 309.846V305.4H68.3423V309.972C68.3423 311.676 69.1763 312.528 70.8443 312.528C71.4923 312.528 72.0443 312.324 72.5003 311.916C72.9563 311.496 73.1843 310.842 73.1843 309.954V305.4H75.6683V318ZM89.1885 318H86.7045V310.062L80.7285 318H79.2705V305.4H81.7545V313.338L87.7125 305.4H89.1885V318ZM97.6163 307.74V318H95.1323V307.74H91.6763V305.4H101.072V307.74H97.6163ZM118.412 318H108.872V316.506L114.056 312.168C114.632 311.7 115.058 311.286 115.334 310.926C115.622 310.566 115.766 310.17 115.766 309.738C115.766 309.162 115.568 308.712 115.172 308.388C114.788 308.052 114.296 307.878 113.696 307.866H113.588C112.736 307.866 111.782 308.328 110.726 309.252L109.106 307.776C110.594 306.276 112.154 305.526 113.786 305.526H113.93C115.286 305.538 116.336 305.91 117.08 306.642C117.824 307.362 118.196 308.226 118.196 309.234C118.196 310.098 117.926 310.908 117.386 311.664C116.846 312.408 116 313.23 114.848 314.13L113.084 315.66H118.412V318ZM124.798 313.518H120.334V312.096H124.798V313.518ZM135.137 316.002V318H132.653V316.002H126.587V314.544L133.661 305.67H135.137V313.662H136.361V316.002H135.137ZM132.635 309.702L129.485 313.662H132.635V309.702ZM157.436 318H154.952V309.954L151.154 314.67L147.374 309.954V318H144.89V305.4H146.366L151.154 311.412L155.96 305.4H157.436V318ZM173.59 318H171.106V309.954L167.308 314.67L163.528 309.954V318H161.044V305.4H162.52L167.308 311.412L172.114 305.4H173.59V318ZM184.469 307.164C185.717 305.904 187.229 305.274 189.005 305.274C190.781 305.274 192.293 305.904 193.541 307.164C194.801 308.412 195.431 309.924 195.431 311.7C195.431 313.476 194.801 314.994 193.541 316.254C192.293 317.502 190.781 318.126 189.005 318.126C187.229 318.126 185.717 317.502 184.469 316.254C183.221 314.994 182.597 313.476 182.597 311.7C182.597 309.924 183.221 308.412 184.469 307.164ZM191.813 308.766C191.057 307.998 190.121 307.614 189.005 307.614C187.889 307.614 186.953 307.998 186.197 308.766C185.453 309.534 185.081 310.512 185.081 311.7C185.081 312.9 185.453 313.884 186.197 314.652C186.953 315.408 187.889 315.786 189.005 315.786C190.133 315.786 191.069 315.408 191.813 314.652C192.569 313.884 192.947 312.9 192.947 311.7C192.947 310.512 192.569 309.534 191.813 308.766ZM203.05 307.74V318H200.566V307.74H197.11V305.4H206.506V307.74H203.05ZM223.18 318L220.588 313.95C220.3 313.506 220.048 313.206 219.832 313.05C219.616 312.894 219.298 312.816 218.878 312.816H217.726V318H215.242V305.4H217.726V310.422H218.806C219.214 310.422 219.526 310.344 219.742 310.188C219.97 310.032 220.228 309.732 220.516 309.288L223 305.4H225.808L222.838 310.044C222.25 310.848 221.764 311.352 221.38 311.556C221.836 311.76 222.346 312.306 222.91 313.194L225.988 318H223.18ZM229.135 307.164C230.383 305.904 231.895 305.274 233.671 305.274C235.447 305.274 236.959 305.904 238.207 307.164C239.467 308.412 240.097 309.924 240.097 311.7C240.097 313.476 239.467 314.994 238.207 316.254C236.959 317.502 235.447 318.126 233.671 318.126C231.895 318.126 230.383 317.502 229.135 316.254C227.887 314.994 227.263 313.476 227.263 311.7C227.263 309.924 227.887 308.412 229.135 307.164ZM236.479 308.766C235.723 307.998 234.787 307.614 233.671 307.614C232.555 307.614 231.619 307.998 230.863 308.766C230.119 309.534 229.747 310.512 229.747 311.7C229.747 312.9 230.119 313.884 230.863 314.652C231.619 315.408 232.555 315.786 233.671 315.786C234.799 315.786 235.735 315.408 236.479 314.652C237.235 313.884 237.613 312.9 237.613 311.7C237.613 310.512 237.235 309.534 236.479 308.766ZM243.033 305.4H247.173C248.901 305.4 250.269 305.856 251.277 306.768C252.285 307.668 252.789 308.826 252.789 310.242C252.789 311.67 252.285 312.84 251.277 313.752C250.269 314.652 248.901 315.102 247.173 315.102H245.517V318H243.033V305.4ZM245.517 312.762H247.371C248.247 312.762 248.973 312.552 249.549 312.132C250.137 311.712 250.431 311.082 250.431 310.242C250.431 309.438 250.137 308.82 249.549 308.388C248.961 307.956 248.235 307.74 247.371 307.74H245.517V312.762ZM257.856 310.494H263.31V312.834H257.856V315.66H263.76V318H255.372V305.4H263.76V307.74H257.856V310.494ZM281.954 318H266.618V305.4H269.102V315.66H273.044V305.4H275.528V315.66H279.47V305.4H281.954V318ZM293.633 318L291.041 313.95C290.753 313.506 290.501 313.206 290.285 313.05C290.069 312.894 289.751 312.816 289.331 312.816H288.179V318H285.695V305.4H288.179V310.422H289.259C289.667 310.422 289.979 310.344 290.195 310.188C290.423 310.032 290.681 309.732 290.969 309.288L293.453 305.4H296.261L293.291 310.044C292.703 310.848 292.217 311.352 291.833 311.556C292.289 311.76 292.799 312.306 293.363 313.194L296.441 318H293.633ZM301.645 315.696L300.745 318H297.991L303.175 305.4H304.633L309.745 318H306.991L306.091 315.696H301.645ZM303.877 309.9L302.509 313.338H305.227L303.877 309.9ZM318.478 305.4H323.338C324.202 305.4 324.934 305.514 325.534 305.742C326.134 305.958 326.572 306.252 326.848 306.624C327.136 306.996 327.334 307.35 327.442 307.686C327.55 308.022 327.604 308.376 327.604 308.748C327.604 310.092 327.052 310.986 325.948 311.43C326.608 311.586 327.13 311.934 327.514 312.474C327.898 313.002 328.09 313.638 328.09 314.382C328.09 316.794 326.536 318 323.428 318H318.478V305.4ZM320.962 307.74V310.44H323.608C324.208 310.44 324.634 310.308 324.886 310.044C325.138 309.768 325.264 309.45 325.264 309.09C325.264 308.19 324.712 307.74 323.608 307.74H320.962ZM320.962 312.582V315.642H323.95C324.586 315.642 325.042 315.504 325.318 315.228C325.606 314.94 325.75 314.568 325.75 314.112C325.75 313.68 325.6 313.32 325.3 313.032C325.012 312.732 324.562 312.582 323.95 312.582H320.962ZM339.489 310.044H342.441C343.857 310.044 344.931 310.404 345.663 311.124C346.395 311.832 346.761 312.798 346.761 314.022C346.761 315.258 346.401 316.23 345.681 316.938C344.961 317.646 343.881 318 342.441 318H337.005V305.4H345.429V307.74H339.489V310.044ZM339.489 315.66H342.477C343.761 315.66 344.403 315.114 344.403 314.022C344.403 312.93 343.761 312.384 342.477 312.384H339.489V315.66ZM353.957 309.954L350.825 318H348.071L353.255 305.4H354.713L359.825 318H357.071L353.957 309.954ZM362.834 307.164C364.082 305.904 365.594 305.274 367.37 305.274C369.146 305.274 370.658 305.904 371.906 307.164C373.166 308.412 373.796 309.924 373.796 311.7C373.796 313.476 373.166 314.994 371.906 316.254C370.658 317.502 369.146 318.126 367.37 318.126C365.594 318.126 364.082 317.502 362.834 316.254C361.586 314.994 360.962 313.476 360.962 311.7C360.962 309.924 361.586 308.412 362.834 307.164ZM370.178 308.766C369.422 307.998 368.486 307.614 367.37 307.614C366.254 307.614 365.318 307.998 364.562 308.766C363.818 309.534 363.446 310.512 363.446 311.7C363.446 312.9 363.818 313.884 364.562 314.652C365.318 315.408 366.254 315.786 367.37 315.786C368.498 315.786 369.434 315.408 370.178 314.652C370.934 313.884 371.312 312.9 371.312 311.7C371.312 310.512 370.934 309.534 370.178 308.766ZM384.67 318L382.078 313.95C381.79 313.506 381.538 313.206 381.322 313.05C381.106 312.894 380.788 312.816 380.368 312.816H379.216V318H376.732V305.4H379.216V310.422H380.296C380.704 310.422 381.016 310.344 381.232 310.188C381.46 310.032 381.718 309.732 382.006 309.288L384.49 305.4H387.298L384.328 310.044C383.74 310.848 383.254 311.352 382.87 311.556C383.326 311.76 383.836 312.306 384.4 313.194L387.478 318H384.67ZM392.628 310.494H398.082V312.834H392.628V315.66H398.532V318H390.144V305.4H398.532V307.74H392.628V310.494ZM102.677 334.044H105.629C107.045 334.044 108.119 334.404 108.851 335.124C109.583 335.832 109.949 336.798 109.949 338.022C109.949 339.258 109.589 340.23 108.869 340.938C108.149 341.646 107.069 342 105.629 342H100.193V329.4H108.617V331.74H102.677V334.044ZM102.677 339.66H105.665C106.949 339.66 107.591 339.114 107.591 338.022C107.591 336.93 106.949 336.384 105.665 336.384H102.677V339.66ZM116.046 342H113.238L115.83 337.446L111.258 329.4H114.084L117.252 334.89L120.402 329.4H123.228L116.046 342ZM135.717 344.322H133.233V342H125.025V344.322H122.541V339.66H124.215L128.427 329.4H129.903L134.061 339.66H135.717V344.322ZM129.129 333.954L126.879 339.66H131.397L129.129 333.954ZM140.937 342H138.129L140.721 337.446L136.149 329.4H138.975L142.143 334.89L145.293 329.4H148.119L140.937 342ZM155.607 331.74V342H153.123V331.74H149.667V329.4H159.063V331.74H155.607ZM177.338 342H174.854V331.74H170.102V342H167.618V329.4H177.338V342ZM185.717 333.954L182.585 342H179.831L185.015 329.4H186.473L191.585 342H188.831L185.717 333.954ZM194.594 331.164C195.842 329.904 197.354 329.274 199.13 329.274C200.906 329.274 202.418 329.904 203.666 331.164C204.926 332.412 205.556 333.924 205.556 335.7C205.556 337.476 204.926 338.994 203.666 340.254C202.418 341.502 200.906 342.126 199.13 342.126C197.354 342.126 195.842 341.502 194.594 340.254C193.346 338.994 192.722 337.476 192.722 335.7C192.722 333.924 193.346 332.412 194.594 331.164ZM201.938 332.766C201.182 331.998 200.246 331.614 199.13 331.614C198.014 331.614 197.078 331.998 196.322 332.766C195.578 333.534 195.206 334.512 195.206 335.7C195.206 336.9 195.578 337.884 196.322 338.652C197.078 339.408 198.014 339.786 199.13 339.786C200.258 339.786 201.194 339.408 201.938 338.652C202.694 337.884 203.072 336.9 203.072 335.7C203.072 334.512 202.694 333.534 201.938 332.766ZM212.256 337.716L209.358 342H206.514L210.888 335.43L206.802 329.4H209.628L212.31 333.252L214.938 329.4H217.764L213.678 335.538L218.052 342H215.226L212.256 337.716ZM220.961 331.164C222.209 329.904 223.721 329.274 225.497 329.274C227.273 329.274 228.785 329.904 230.033 331.164C231.293 332.412 231.923 333.924 231.923 335.7C231.923 337.476 231.293 338.994 230.033 340.254C228.785 341.502 227.273 342.126 225.497 342.126C223.721 342.126 222.209 341.502 220.961 340.254C219.713 338.994 219.089 337.476 219.089 335.7C219.089 333.924 219.713 332.412 220.961 331.164ZM228.305 332.766C227.549 331.998 226.613 331.614 225.497 331.614C224.381 331.614 223.445 331.998 222.689 332.766C221.945 333.534 221.573 334.512 221.573 335.7C221.573 336.9 221.945 337.884 222.689 338.652C223.445 339.408 224.381 339.786 225.497 339.786C226.625 339.786 227.561 339.408 228.305 338.652C229.061 337.884 229.439 336.9 229.439 335.7C229.439 334.512 229.061 333.534 228.305 332.766ZM240.923 329.4H245.783C246.647 329.4 247.379 329.514 247.979 329.742C248.579 329.958 249.017 330.252 249.293 330.624C249.581 330.996 249.779 331.35 249.887 331.686C249.995 332.022 250.049 332.376 250.049 332.748C250.049 334.092 249.497 334.986 248.393 335.43C249.053 335.586 249.575 335.934 249.959 336.474C250.343 337.002 250.535 337.638 250.535 338.382C250.535 340.794 248.981 342 245.873 342H240.923V329.4ZM243.407 331.74V334.44H246.053C246.653 334.44 247.079 334.308 247.331 334.044C247.583 333.768 247.709 333.45 247.709 333.09C247.709 332.19 247.157 331.74 246.053 331.74H243.407ZM243.407 336.582V339.642H246.395C247.031 339.642 247.487 339.504 247.763 339.228C248.051 338.94 248.195 338.568 248.195 338.112C248.195 337.68 248.045 337.32 247.745 337.032C247.457 336.732 247.007 336.582 246.395 336.582H243.407ZM263.124 342H260.64V334.062L254.664 342H253.206V329.4H255.69V337.338L261.648 329.4H263.124V342ZM278.68 344.322H276.196V342H267.988V344.322H265.504V339.66H267.178L271.39 329.4H272.866L277.024 339.66H278.68V344.322ZM272.092 333.954L269.842 339.66H274.36L272.092 333.954ZM290.913 342H288.429V336.834H283.551V342H281.067V329.4H283.551V334.494H288.429V329.4H290.913V342ZM296.894 334.044H299.72C301.136 334.044 302.204 334.404 302.924 335.124C303.656 335.832 304.022 336.798 304.022 338.022C304.022 339.258 303.662 340.23 302.942 340.938C302.234 341.646 301.16 342 299.72 342H294.41V329.4H296.894V334.044ZM307.784 342H305.3V329.4H307.784V342ZM296.894 339.66H299.756C301.04 339.66 301.682 339.114 301.682 338.022C301.682 336.93 301.04 336.384 299.756 336.384H296.894V339.66Z" fill="#E25D23"/>
<g clip-path="url(#clip0)">
<path fill-rule="evenodd" clip-rule="evenodd" d="M88.4316 89.2759L89.4333 65.3462L223.891 216.958L223.5 245.5L88.4316 89.2759Z" fill="#E5541F" stroke="#1D1D1B" stroke-width="2" stroke-miterlimit="22.9256" stroke-linejoin="bevel"/>
<path fill-rule="evenodd" clip-rule="evenodd" d="M225 219.5L89.5 66L99.2966 63.835L237 216.957L225 219.5Z" fill="#F8F7F7" stroke="#1D1D1B" stroke-width="2" stroke-miterlimit="22.9256" stroke-linecap="round" stroke-linejoin="bevel"/>
<path fill-rule="evenodd" clip-rule="evenodd" d="M223.197 245.568L223.891 219.434L388.014 196.537L388.568 221.793L223.197 245.568Z" fill="white" stroke="#1D1D1B" stroke-width="2" stroke-miterlimit="22.9256" stroke-linejoin="bevel"/>
<path fill-rule="evenodd" clip-rule="evenodd" d="M236.5 217C337.193 203.971 387.5 196 387.5 196L220.316 17.9275L212.98 20.7337C281.866 93.6639 317.172 129.636 317.172 129.636C325.909 136.204 326.69 144.654 323.5 151.5C320.942 153.412 321.656 152.625 321.656 152.625C265.207 194.934 236.5 217 236.5 217Z" fill="white" stroke="#1D1D1B" stroke-miterlimit="22.9256"/>
<path fill-rule="evenodd" clip-rule="evenodd" d="M276.025 144.9C293.871 133.613 307.586 128.525 317.172 129.635C317.172 129.635 277.566 88.2364 198.356 5.43831C187.383 -0.636633 172.743 2.52419 154.436 14.9208C235.495 101.574 276.025 144.9 276.025 144.9Z" fill="white" stroke="#1D1D1B" stroke-width="2" stroke-miterlimit="22.9256"/>
<path fill-rule="evenodd" clip-rule="evenodd" d="M276.026 142.424C292.931 131.431 304 126 316.5 128C323 130 329.5 143.5 323.5 150.5C263.784 195.245 237.5 217 237.5 217L99.2969 63.8352L160.5 21.5L276.026 142.424Z" fill="white" stroke="#1D1D1B" stroke-width="2" stroke-miterlimit="22.9256"/>
<path d="M231.52 241.035L388.507 218.925M268.798 192.235L346.174 180.286L340.627 173.81L280.695 183.323L268.798 192.235ZM289.957 176.385L338.099 168.953L333.014 163.757L298.879 169.709L289.957 176.385ZM308.341 162.601L327.682 159.579L321.379 152.825L308.341 162.601ZM231.92 222.487L387.614 200.469L231.92 222.487ZM231.889 224.167C283.823 216.828 335.772 209.489 387.706 202.149L231.889 224.167ZM231.843 225.863C283.823 218.524 335.803 211.185 387.783 203.83L231.843 225.863ZM231.812 227.544C283.823 220.205 335.849 212.85 387.86 205.511L231.812 227.544ZM231.782 229.225C283.839 221.87 335.896 214.531 387.953 207.176L231.782 229.225ZM231.735 230.921C283.823 223.566 335.926 216.227 388.014 208.872L231.735 230.921ZM231.704 232.601C283.839 225.247 335.973 217.892 388.107 210.537L231.704 232.601ZM231.658 234.282C283.823 226.927 336.003 219.572 388.168 212.218L231.658 234.282ZM231.627 235.978C283.839 228.623 336.05 221.253 388.261 213.898L231.627 235.978ZM231.597 237.659C283.854 230.304 336.096 222.934 388.353 215.579L231.597 237.659ZM231.55 239.339C283.839 231.969 336.127 224.614 388.415 217.244L231.55 239.339Z" stroke="#1D1D1B" stroke-width="0.5669" stroke-miterlimit="22.9256"/>
<line x1="235.082" y1="216.493" x2="223.082" y2="218.493" stroke="black"/>
<line x1="104.726" y1="244.038" x2="227.726" y2="209.038" stroke="#E25D23" stroke-width="2" stroke-dasharray="5 5"/>
</g>
<path d="M48.662 186.822H48.746C49.9687 186.831 50.9487 187.275 51.686 188.152L50.706 189.062C50.1087 188.521 49.4507 188.25 48.732 188.25H48.662C47.906 188.25 47.3273 188.544 46.926 189.132C46.5247 189.72 46.2913 190.453 46.226 191.33C46.4407 190.929 46.7627 190.611 47.192 190.378C47.6213 190.135 48.116 190.014 48.676 190.014C49.6 190.014 50.3747 190.313 51 190.91C51.6253 191.498 51.938 192.277 51.938 193.248C51.938 194.163 51.6207 194.956 50.986 195.628C50.3513 196.291 49.502 196.622 48.438 196.622C47.3553 196.622 46.4687 196.249 45.778 195.502C45.0967 194.755 44.756 193.808 44.756 192.66V191.974C44.756 191.022 44.8913 190.168 45.162 189.412C45.442 188.647 45.8807 188.026 46.478 187.55C47.0847 187.065 47.8127 186.822 48.662 186.822ZM49.838 191.862C49.446 191.489 48.9513 191.302 48.354 191.302C47.7567 191.302 47.262 191.484 46.87 191.848C46.478 192.203 46.282 192.637 46.282 193.15C46.282 193.729 46.4687 194.214 46.842 194.606C47.2153 194.998 47.7193 195.194 48.354 195.194C48.9513 195.194 49.446 195.012 49.838 194.648C50.23 194.275 50.426 193.808 50.426 193.248C50.426 192.688 50.23 192.226 49.838 191.862ZM65.8847 196.524H64.4847V191.82L62.2167 194.41L59.9487 191.82V196.524H58.5487V189.524H59.4307L62.2167 192.716L65.0027 189.524H65.8847V196.524ZM75.7148 196.524H74.3148V191.82L72.0468 194.41L69.7788 191.82V196.524H68.3788V189.524H69.2608L72.0468 192.716L74.8328 189.524H75.7148V196.524Z" fill="#E25D23"/>
<path d="M21 178L58.5 221.5L45 223.5L21 198.623V178Z" fill="white"/>
<path d="M102 173.5V186.5L59 219.5L21.5 173.5H102Z" fill="white"/>
<path d="M21 199.524L45 224.524V243.524H21V199.524Z" fill="#E25D23"/>
<path d="M20 175.524L60 222.024" stroke="black" stroke-width="2"/>
<path d="M44.7166 224.699L20.0006 199.024" stroke="black" stroke-width="2"/>
<path d="M59.6214 222.325L103 187.024" stroke="black" stroke-width="2"/>
<path d="M44.521 224.03L44.5211 243.524" stroke="black" stroke-width="2"/>
<path d="M43.8867 224.403L103 216.524" stroke="black" stroke-width="2"/>
<rect x="20" y="172.524" width="83" height="72" stroke="#E25D23" stroke-width="2"/>
<path d="M29.0009 206.024L38 198.524" stroke="#E25D23" stroke-width="2" stroke-dasharray="2 2"/>
<defs>
<clipPath id="clip0">
<rect width="301" height="246" fill="white" transform="translate(88)"/>
</clipPath>
</defs>
</svg>
