<svg width="477" height="430" viewBox="0 0 477 430" fill="none" xmlns="http://www.w3.org/2000/svg">
<rect x="2" y="1" width="83" height="72" fill="white" stroke="#E25D23" stroke-width="2"/>
<path d="M23 72V20H84" stroke="black" stroke-width="2"/>
<rect x="3" y="2" width="19" height="70" fill="#F8F7F7"/>
<line x1="18.5859" y1="42.5" x2="4.58594" y2="42.5" stroke="#E25D23"/>
<rect x="3" y="2" width="81" height="17" fill="#F8F7F7"/>
<line x1="43.5" y1="16" x2="43.5" y2="4" stroke="#E25D23"/>
<path d="M43.896 44.278L40.69 47.232C40.9047 47.1853 41.1987 47.162 41.572 47.162C42.44 47.246 43.1073 47.54 43.574 48.044C44.0407 48.548 44.274 49.1733 44.274 49.92C44.274 50.8347 43.966 51.5907 43.35 52.188C42.7433 52.7853 41.8753 53.0887 40.746 53.098H40.634C38.9727 53.0887 37.68 52.4493 36.756 51.18L37.736 50.27C38.5667 51.2033 39.5327 51.67 40.634 51.67H40.718C41.3433 51.6607 41.852 51.474 42.244 51.11C42.6453 50.746 42.846 50.2793 42.846 49.71C42.846 48.5527 42.118 47.974 40.662 47.974C40.186 47.974 39.6867 48.1 39.164 48.352L38.422 47.792L41.642 44.824H37.624V43.41H43.896V44.278ZM58.2265 53H56.8265V48.296L54.5585 50.886L52.2905 48.296V53H50.8905V46H51.7725L54.5585 49.192L57.3445 46H58.2265V53ZM68.0566 53H66.6566V48.296L64.3886 50.886L62.1206 48.296V53H60.7206V46H61.6026L64.3886 49.192L67.1746 46H68.0566V53Z" fill="#E25D23"/>
<path d="M46 15L43.3995 19L41 15H46Z" fill="#E6551F"/>
<path d="M46 6L43.3995 2L41 6H46Z" fill="#E6551F"/>
<path d="M7 39L3 42.1207L7 45L7 39Z" fill="#E6551F"/>
<path d="M18 39L22 42.1207L18 45L18 39Z" fill="#E6551F"/>
<path d="M422.2 247.175V243.507C422.2 242.975 422.256 242.504 422.368 242.093C422.48 241.683 422.625 241.365 422.802 241.141C422.97 240.908 423.175 240.721 423.418 240.581C423.651 240.432 423.875 240.334 424.09 240.287C424.305 240.241 424.529 240.217 424.762 240.217C425.835 240.217 426.54 240.684 426.876 241.617C426.997 241.039 427.268 240.586 427.688 240.259C428.108 239.933 428.626 239.769 429.242 239.769C431.081 239.769 432 240.945 432 243.297V247.175H422.2ZM423.628 245.663H426.288V243.353C426.288 242.224 425.845 241.659 424.958 241.659C424.071 241.659 423.628 242.224 423.628 243.353V245.663ZM427.59 245.663H430.572V242.989C430.572 241.804 430.077 241.211 429.088 241.211C428.64 241.211 428.281 241.361 428.01 241.659C427.73 241.949 427.59 242.392 427.59 242.989V245.663ZM427.142 236.362V234.346C427.142 233.795 427.217 233.324 427.366 232.932C427.506 232.54 427.702 232.246 427.954 232.05C428.206 231.844 428.463 231.7 428.724 231.616C428.985 231.532 429.265 231.49 429.564 231.49C429.863 231.49 430.147 231.532 430.418 231.616C430.679 231.7 430.936 231.844 431.188 232.05C431.44 232.246 431.641 232.54 431.79 232.932C431.93 233.324 432 233.795 432 234.346V237.762H425V236.362H427.142ZM432 229.32V230.72H425V229.32H432ZM430.698 236.362V234.192C430.698 233.324 430.32 232.89 429.564 232.89C428.817 232.89 428.444 233.324 428.444 234.192V236.362H430.698ZM424.916 223.66C424.916 222.54 425.345 221.621 426.204 220.902L427.114 221.742C426.545 222.284 426.26 222.923 426.26 223.66C426.26 224.258 426.47 224.771 426.89 225.2C427.31 225.63 427.847 225.844 428.5 225.844C429.153 225.844 429.69 225.63 430.11 225.2C430.53 224.771 430.74 224.258 430.74 223.66C430.74 222.942 430.455 222.302 429.886 221.742L430.796 220.902C431.655 221.621 432.084 222.54 432.084 223.66C432.084 224.659 431.734 225.508 431.034 226.208C430.334 226.899 429.489 227.244 428.5 227.244C427.511 227.244 426.666 226.899 425.966 226.208C425.266 225.508 424.916 224.659 424.916 223.66ZM424.902 215.731C424.902 214.732 425.257 213.883 425.966 213.183C426.666 212.483 427.511 212.133 428.5 212.133C429.489 212.133 430.334 212.483 431.034 213.183C431.734 213.883 432.084 214.732 432.084 215.731C432.084 216.729 431.734 217.579 431.034 218.279C430.334 218.969 429.489 219.315 428.5 219.315C427.501 219.315 426.652 218.965 425.952 218.265C425.252 217.565 424.902 216.72 424.902 215.731ZM426.89 214.191C426.461 214.62 426.246 215.133 426.246 215.731C426.246 216.328 426.461 216.841 426.89 217.271C427.31 217.7 427.847 217.915 428.5 217.915C429.153 217.915 429.69 217.7 430.11 217.271C430.53 216.841 430.74 216.328 430.74 215.731C430.74 215.133 430.53 214.62 430.11 214.191C429.681 213.752 429.144 213.533 428.5 213.533C427.847 213.533 427.31 213.752 426.89 214.191ZM426.344 207.19H432V208.59H426.344V210.956H425V204.81H426.344V207.19ZM432 196.549V197.501L430.712 197.585C431.132 197.847 431.468 198.206 431.72 198.663C431.963 199.121 432.084 199.62 432.084 200.161C432.084 201.151 431.739 201.977 431.048 202.639C430.348 203.293 429.499 203.619 428.5 203.619C427.492 203.619 426.643 203.293 425.952 202.639C425.252 201.977 424.902 201.151 424.902 200.161C424.902 199.62 425.028 199.121 425.28 198.663C425.532 198.206 425.868 197.847 426.288 197.585L425 197.501V196.549H432ZM430.11 201.575C430.53 201.146 430.74 200.633 430.74 200.035C430.74 199.438 430.53 198.925 430.11 198.495C429.681 198.057 429.144 197.837 428.5 197.837C427.847 197.837 427.31 198.057 426.89 198.495C426.461 198.925 426.246 199.438 426.246 200.035C426.246 200.633 426.461 201.146 426.89 201.575C427.31 202.005 427.847 202.219 428.5 202.219C429.153 202.219 429.69 202.005 430.11 201.575Z" fill="#2B2A29"/>
<path d="M11.4766 99.2915H183.825V327.483H11.4766V99.2915Z" stroke="#1D1D1B" stroke-width="2.0001" stroke-miterlimit="22.9256"/>
<path fill-rule="evenodd" clip-rule="evenodd" d="M1.34961 91H387.102V334.684H1.34961V91Z" fill="#F8F7F7" stroke="#6F6F6E" stroke-width="0.5" stroke-miterlimit="22.9256"/>
<path fill-rule="evenodd" clip-rule="evenodd" d="M183 101H206V327H183V101Z" fill="#E25D23" stroke="#2B2A29" stroke-width="2.0001" stroke-miterlimit="22.9256"/>
<path fill-rule="evenodd" clip-rule="evenodd" d="M11 101H183.461V326.968H11V101Z" fill="white" stroke="#1D1D1B" stroke-width="2.0001" stroke-miterlimit="22.9256"/>
<path d="M171.701 100.788V326.462" stroke="#9B51E0" stroke-width="1.0001" stroke-miterlimit="22.9256" stroke-dasharray="5 5"/>
<path fill-rule="evenodd" clip-rule="evenodd" d="M205.771 101.249H378.218V327.217H205.771V101.249Z" fill="white" stroke="#1D1D1B" stroke-width="2.0001" stroke-miterlimit="22.9256"/>
<path d="M218.217 100.788V326.462" stroke="#9B51E0" stroke-width="1.0001" stroke-miterlimit="22.9256" stroke-dasharray="5 5"/>
<path d="M183.617 378.616V328.615" stroke="#E5541F" stroke-width="2.0001" stroke-miterlimit="22.9256"/>
<path d="M176.02 364L180.711 367.808L176 371.321L176.02 364Z" fill="#E25D23"/>
<path d="M381.02 396L385.711 399.808L381 403.321L381.02 396Z" fill="#E25D23"/>
<path d="M370.67 364L375.361 367.808L370.65 371.321L370.67 364Z" fill="#E25D23"/>
<path d="M176.02 343L180.711 346.808L176 350.321L176.02 343Z" fill="#E25D23"/>
<path d="M212.691 343L208 346.808L212.711 350.321L212.691 343Z" fill="#E25D23"/>
<path d="M17.6913 364L13.0002 367.808L17.7109 371.321L17.6913 364Z" fill="#E25D23"/>
<path d="M6.69129 396L2.00015 399.808L6.71094 403.321L6.69129 396Z" fill="#E25D23"/>
<path d="M212.342 364L207.651 367.808L212.361 371.321L212.342 364Z" fill="#E25D23"/>
<path d="M11.1699 378.616V328.615" stroke="#E5541F" stroke-width="2.0001" stroke-miterlimit="22.9256"/>
<path d="M387 430V335M1 430V335V430Z" stroke="#E5541F" stroke-width="0.5" stroke-miterlimit="22.9256"/>
<path d="M387 427V367M1 427V367V427Z" stroke="#E5541F" stroke-width="0.5" stroke-miterlimit="22.9256"/>
<path d="M378.217 378.616V328.615" stroke="#E5541F" stroke-width="2.0001" stroke-miterlimit="22.9256"/>
<path d="M205.771 378.616V328.615" stroke="#E5541F" stroke-width="2.0001" stroke-miterlimit="22.9256"/>
<path d="M429.568 101.249H379.615M429.568 327.217H379.615H429.568Z" stroke="#E5541F" stroke-width="2.0001" stroke-miterlimit="22.9256"/>
<path d="M387 91H477M387 335H477H387Z" stroke="#E5541F" stroke-width="0.5" stroke-miterlimit="22.9256"/>
<path d="M182.848 346.918H205.813" stroke="#E5541F" stroke-width="0.75" stroke-miterlimit="22.9256"/>
<path d="M420 321.021L415.839 326L412 321L420 321.021Z" fill="#E25D23"/>
<path d="M453 330.021L448.839 335L445 330L453 330.021Z" fill="#E25D23"/>
<path d="M420 107.979L415.839 103L412 108L420 107.979Z" fill="#E25D23"/>
<path d="M453 96.9791L448.839 92L445 97L453 96.9791Z" fill="#E25D23"/>
<path d="M416 321L416 107" stroke="#E65420" stroke-width="0.75" stroke-miterlimit="10"/>
<path d="M449 330L449 94" stroke="#E65420" stroke-width="0.75" stroke-miterlimit="10"/>
<path d="M29.008 207.552C30.672 205.872 32.688 205.032 35.056 205.032C37.424 205.032 39.44 205.872 41.104 207.552C42.784 209.216 43.624 211.232 43.624 213.6C43.624 215.968 42.784 217.992 41.104 219.672C39.44 221.336 37.424 222.168 35.056 222.168C32.688 222.168 30.672 221.336 29.008 219.672C27.344 217.992 26.512 215.968 26.512 213.6C26.512 211.232 27.344 209.216 29.008 207.552ZM39.304 209.232C38.152 208.064 36.736 207.48 35.056 207.48C33.376 207.48 31.96 208.064 30.808 209.232C29.672 210.384 29.104 211.84 29.104 213.6C29.104 215.376 29.672 216.84 30.808 217.992C31.96 219.144 33.376 219.72 35.056 219.72C36.736 219.72 38.152 219.144 39.304 217.992C40.456 216.84 41.032 215.376 41.032 213.6C41.032 211.84 40.456 210.384 39.304 209.232ZM50.3643 211.608H54.9003C56.7723 211.608 58.1883 212.072 59.1483 213C60.1083 213.928 60.5883 215.2 60.5883 216.816C60.5883 218.448 60.1163 219.72 59.1723 220.632C58.2443 221.544 56.8203 222 54.9003 222H47.7723V205.2H58.7162V207.648H50.3643V211.608ZM50.3643 219.552H54.9483C56.0843 219.552 56.9003 219.32 57.3963 218.856C57.8923 218.392 58.1403 217.712 58.1403 216.816C58.1403 214.976 57.0763 214.056 54.9483 214.056H50.3643V219.552ZM70.2276 209.976L65.4276 222H62.5716L69.5076 205.2H71.0196L77.8836 222H75.0276L70.2276 209.976ZM82.0939 207.552C83.7579 205.872 85.7739 205.032 88.1419 205.032C90.5099 205.032 92.5259 205.872 94.1899 207.552C95.8699 209.216 96.7099 211.232 96.7099 213.6C96.7099 215.968 95.8699 217.992 94.1899 219.672C92.5259 221.336 90.5099 222.168 88.1419 222.168C85.7739 222.168 83.7579 221.336 82.0939 219.672C80.4299 217.992 79.5979 215.968 79.5979 213.6C79.5979 211.232 80.4299 209.216 82.0939 207.552ZM92.3899 209.232C91.2379 208.064 89.8219 207.48 88.1419 207.48C86.4619 207.48 85.0459 208.064 83.8939 209.232C82.7579 210.384 82.1899 211.84 82.1899 213.6C82.1899 215.376 82.7579 216.84 83.8939 217.992C85.0459 219.144 86.4619 219.72 88.1419 219.72C89.8219 219.72 91.2379 219.144 92.3899 217.992C93.5419 216.84 94.1179 215.376 94.1179 213.6C94.1179 211.84 93.5419 210.384 92.3899 209.232ZM119.239 222L115.783 216.624C115.287 215.856 114.871 215.352 114.535 215.112C114.215 214.856 113.711 214.728 113.023 214.728H111.583V222H108.991V214.728H107.575C106.887 214.728 106.375 214.856 106.039 215.112C105.719 215.352 105.311 215.856 104.815 216.624L101.359 222H98.431L102.415 215.808C102.911 215.024 103.319 214.464 103.639 214.128C103.975 213.776 104.327 213.536 104.695 213.408C104.119 213.104 103.423 212.344 102.607 211.128L98.767 205.2H101.719L104.983 210.312C105.495 211.08 105.919 211.592 106.255 211.848C106.591 212.104 107.095 212.232 107.767 212.232H108.991V205.2H111.583V212.232H112.831C113.503 212.232 114.007 212.104 114.343 211.848C114.679 211.592 115.103 211.08 115.615 210.312L118.879 205.2H121.831L117.991 211.128C117.175 212.344 116.479 213.104 115.903 213.408C116.271 213.536 116.615 213.776 116.935 214.128C117.271 214.464 117.687 215.024 118.183 215.808L122.167 222H119.239ZM136.81 222L133.354 216.648C132.858 215.88 132.442 215.368 132.106 215.112C131.786 214.856 131.282 214.728 130.594 214.728H128.458V222H125.866V205.2H128.458V212.232H130.402C131.074 212.232 131.578 212.104 131.914 211.848C132.25 211.592 132.674 211.08 133.186 210.312L136.45 205.2H139.402L135.586 211.128C134.722 212.36 134.018 213.12 133.474 213.408C133.842 213.536 134.186 213.776 134.506 214.128C134.842 214.464 135.258 215.024 135.754 215.808L139.738 222H136.81ZM146.276 218.232L144.74 222H141.884L148.82 205.2H150.332L157.196 222H154.34L152.828 218.232H146.276ZM149.564 209.928L147.188 215.784H151.94L149.564 209.928Z" fill="#2B2A29"/>
<path d="M201 252.506L197.004 255.062C196.296 255.53 195.828 255.908 195.6 256.196C195.372 256.472 195.258 256.91 195.258 257.51V259.562H201V260.966H188.4V259.562H193.926V257.708C193.926 257.108 193.818 256.67 193.602 256.394C193.374 256.106 192.9 255.728 192.18 255.26L188.4 252.83V251.228L192.666 254C193.254 254.396 193.686 254.714 193.962 254.954C194.226 255.194 194.418 255.44 194.538 255.692C194.646 255.368 194.844 255.08 195.132 254.828C195.408 254.564 195.87 254.222 196.518 253.802L201 250.904V252.506ZM190.164 247.511C188.904 246.263 188.274 244.751 188.274 242.975C188.274 241.199 188.904 239.687 190.164 238.439C191.412 237.179 192.924 236.549 194.7 236.549C196.476 236.549 197.994 237.179 199.254 238.439C200.502 239.687 201.126 241.199 201.126 242.975C201.126 244.751 200.502 246.263 199.254 247.511C197.994 248.759 196.476 249.383 194.7 249.383C192.924 249.383 191.412 248.759 190.164 247.511ZM191.064 239.411C190.08 240.383 189.588 241.571 189.588 242.975C189.588 244.379 190.08 245.567 191.064 246.539C192.036 247.499 193.248 247.979 194.7 247.979C196.152 247.979 197.37 247.499 198.354 246.539C199.326 245.567 199.812 244.379 199.812 242.975C199.812 241.571 199.326 240.383 198.354 239.411C197.37 238.439 196.152 237.953 194.7 237.953C193.248 237.953 192.036 238.439 191.064 239.411ZM188.4 233.28V229.302C188.4 227.67 188.814 226.344 189.642 225.324C190.47 224.304 191.598 223.794 193.026 223.794C194.454 223.794 195.582 224.304 196.41 225.324C197.238 226.344 197.652 227.67 197.652 229.302V231.876H201V233.28H188.4ZM196.338 231.876V229.212C196.338 228.036 196.062 227.064 195.51 226.296C194.958 225.516 194.13 225.126 193.026 225.126C191.934 225.126 191.112 225.516 190.56 226.296C189.996 227.064 189.714 228.036 189.714 229.212V231.876H196.338ZM193.98 219.466V213.292H195.294V219.466H199.686V212.896H201V220.87H188.4V212.896H189.714V219.466H193.98ZM201 194.803V209.941H188.4V208.537H199.686V203.083H188.4V201.679H199.686V196.207H188.4V194.803H201ZM190.164 189.784C188.904 188.536 188.274 187.024 188.274 185.248C188.274 183.472 188.904 181.96 190.164 180.712C191.412 179.452 192.924 178.822 194.7 178.822C196.476 178.822 197.994 179.452 199.254 180.712C200.502 181.96 201.126 183.472 201.126 185.248C201.126 187.024 200.502 188.536 199.254 189.784C197.994 191.032 196.476 191.656 194.7 191.656C192.924 191.656 191.412 191.032 190.164 189.784ZM191.064 181.684C190.08 182.656 189.588 183.844 189.588 185.248C189.588 186.652 190.08 187.84 191.064 188.812C192.036 189.772 193.248 190.252 194.7 190.252C196.152 190.252 197.37 189.772 198.354 188.812C199.326 187.84 199.812 186.652 199.812 185.248C199.812 183.844 199.326 182.656 198.354 181.684C197.37 180.712 196.152 180.226 194.7 180.226C193.248 180.226 192.036 180.712 191.064 181.684ZM201 167.094L197.004 169.65C196.296 170.118 195.828 170.496 195.6 170.784C195.372 171.06 195.258 171.498 195.258 172.098V174.15H201V175.554H188.4V174.15H193.926V172.296C193.926 171.696 193.818 171.258 193.602 170.982C193.374 170.694 192.9 170.316 192.18 169.848L188.4 167.418V165.816L192.666 168.588C193.254 168.984 193.686 169.302 193.962 169.542C194.226 169.782 194.418 170.028 194.538 170.28C194.646 169.956 194.844 169.668 195.132 169.416C195.408 169.152 195.87 168.81 196.518 168.39L201 165.492V167.094Z" fill="white"/>
<path d="M236.008 207.552C237.672 205.872 239.688 205.032 242.056 205.032C244.424 205.032 246.44 205.872 248.104 207.552C249.784 209.216 250.624 211.232 250.624 213.6C250.624 215.968 249.784 217.992 248.104 219.672C246.44 221.336 244.424 222.168 242.056 222.168C239.688 222.168 237.672 221.336 236.008 219.672C234.344 217.992 233.512 215.968 233.512 213.6C233.512 211.232 234.344 209.216 236.008 207.552ZM246.304 209.232C245.152 208.064 243.736 207.48 242.056 207.48C240.376 207.48 238.96 208.064 237.808 209.232C236.672 210.384 236.104 211.84 236.104 213.6C236.104 215.376 236.672 216.84 237.808 217.992C238.96 219.144 240.376 219.72 242.056 219.72C243.736 219.72 245.152 219.144 246.304 217.992C247.456 216.84 248.032 215.376 248.032 213.6C248.032 211.84 247.456 210.384 246.304 209.232ZM257.364 211.608H261.9C263.772 211.608 265.188 212.072 266.148 213C267.108 213.928 267.588 215.2 267.588 216.816C267.588 218.448 267.116 219.72 266.172 220.632C265.244 221.544 263.82 222 261.9 222H254.772V205.2H265.716V207.648H257.364V211.608ZM257.364 219.552H261.948C263.084 219.552 263.9 219.32 264.396 218.856C264.892 218.392 265.14 217.712 265.14 216.816C265.14 214.976 264.076 214.056 261.948 214.056H257.364V219.552ZM277.228 209.976L272.428 222H269.572L276.508 205.2H278.02L284.884 222H282.028L277.228 209.976ZM289.094 207.552C290.758 205.872 292.774 205.032 295.142 205.032C297.51 205.032 299.526 205.872 301.19 207.552C302.87 209.216 303.71 211.232 303.71 213.6C303.71 215.968 302.87 217.992 301.19 219.672C299.526 221.336 297.51 222.168 295.142 222.168C292.774 222.168 290.758 221.336 289.094 219.672C287.43 217.992 286.598 215.968 286.598 213.6C286.598 211.232 287.43 209.216 289.094 207.552ZM299.39 209.232C298.238 208.064 296.822 207.48 295.142 207.48C293.462 207.48 292.046 208.064 290.894 209.232C289.758 210.384 289.19 211.84 289.19 213.6C289.19 215.376 289.758 216.84 290.894 217.992C292.046 219.144 293.462 219.72 295.142 219.72C296.822 219.72 298.238 219.144 299.39 217.992C300.542 216.84 301.118 215.376 301.118 213.6C301.118 211.84 300.542 210.384 299.39 209.232ZM326.239 222L322.783 216.624C322.287 215.856 321.871 215.352 321.535 215.112C321.215 214.856 320.711 214.728 320.023 214.728H318.583V222H315.991V214.728H314.575C313.887 214.728 313.375 214.856 313.039 215.112C312.719 215.352 312.311 215.856 311.815 216.624L308.359 222H305.431L309.415 215.808C309.911 215.024 310.319 214.464 310.639 214.128C310.975 213.776 311.327 213.536 311.695 213.408C311.119 213.104 310.423 212.344 309.607 211.128L305.767 205.2H308.719L311.983 210.312C312.495 211.08 312.919 211.592 313.255 211.848C313.591 212.104 314.095 212.232 314.767 212.232H315.991V205.2H318.583V212.232H319.831C320.503 212.232 321.007 212.104 321.343 211.848C321.679 211.592 322.103 211.08 322.615 210.312L325.879 205.2H328.831L324.991 211.128C324.175 212.344 323.479 213.104 322.903 213.408C323.271 213.536 323.615 213.776 323.935 214.128C324.271 214.464 324.687 215.024 325.183 215.808L329.167 222H326.239ZM343.81 222L340.354 216.648C339.858 215.88 339.442 215.368 339.106 215.112C338.786 214.856 338.282 214.728 337.594 214.728H335.458V222H332.866V205.2H335.458V212.232H337.402C338.074 212.232 338.578 212.104 338.914 211.848C339.25 211.592 339.674 211.08 340.186 210.312L343.45 205.2H346.402L342.586 211.128C341.722 212.36 341.018 213.12 340.474 213.408C340.842 213.536 341.186 213.776 341.506 214.128C341.842 214.464 342.258 215.024 342.754 215.808L346.738 222H343.81ZM353.276 218.232L351.74 222H348.884L355.82 205.2H357.332L364.196 222H361.34L359.828 218.232H353.276ZM356.564 209.928L354.188 215.784H358.94L356.564 209.928Z" fill="#2B2A29"/>
<path d="M75.3296 384H63.4856V374.2H64.9976V382.572H68.6516V374.2H70.1636V382.572H73.8176V374.2H75.3296V384ZM84.4409 384H83.0409V379.296L78.9249 384H78.0429V377H79.4429V381.704L83.5589 377H84.4409V384ZM90.6116 376.916C91.6009 376.916 92.4223 377.266 93.0756 377.966C93.7383 378.657 94.0696 379.501 94.0696 380.5C94.0696 381.508 93.7383 382.362 93.0756 383.062C92.4223 383.753 91.6009 384.098 90.6116 384.098C90.1543 384.098 89.7296 383.995 89.3376 383.79C88.9456 383.575 88.6329 383.291 88.3996 382.936V386.576H86.9996V377H87.9516L88.0356 378.288C88.2969 377.868 88.6563 377.537 89.1136 377.294C89.5709 377.042 90.0703 376.916 90.6116 376.916ZM92.0396 378.89C91.6103 378.47 91.0969 378.26 90.4996 378.26C89.9023 378.26 89.3843 378.475 88.9456 378.904C88.5163 379.324 88.3016 379.856 88.3016 380.5C88.3016 381.144 88.5163 381.681 88.9456 382.11C89.3843 382.53 89.9023 382.74 90.4996 382.74C91.0969 382.74 91.6103 382.53 92.0396 382.11C92.4689 381.69 92.6836 381.153 92.6836 380.5C92.6836 379.847 92.4689 379.31 92.0396 378.89ZM102.542 384H101.142V379.296L97.0264 384H96.1444V377H97.5444V381.704L101.66 377H102.542V384ZM111.513 384H110.113V381.13H106.431V384H105.031V377H106.431V379.786H110.113V377H111.513V384ZM120.65 384H119.698L119.614 382.712C119.353 383.132 118.993 383.468 118.536 383.72C118.079 383.963 117.579 384.084 117.038 384.084C116.049 384.084 115.223 383.739 114.56 383.048C113.907 382.348 113.58 381.499 113.58 380.5C113.58 379.492 113.907 378.643 114.56 377.952C115.223 377.252 116.049 376.902 117.038 376.902C117.579 376.902 118.079 377.028 118.536 377.28C118.993 377.532 119.353 377.868 119.614 378.288L119.698 377H120.65V384ZM115.624 382.11C116.053 382.53 116.567 382.74 117.164 382.74C117.761 382.74 118.275 382.53 118.704 382.11C119.143 381.681 119.362 381.144 119.362 380.5C119.362 379.847 119.143 379.31 118.704 378.89C118.275 378.461 117.761 378.246 117.164 378.246C116.567 378.246 116.053 378.461 115.624 378.89C115.195 379.31 114.98 379.847 114.98 380.5C114.98 381.153 115.195 381.69 115.624 382.11Z" fill="#2B2A29"/>
<path d="M275.33 384H263.486V374.2H264.998V382.572H268.652V374.2H270.164V382.572H273.818V374.2H275.33V384ZM284.441 384H283.041V379.296L278.925 384H278.043V377H279.443V381.704L283.559 377H284.441V384ZM290.612 376.916C291.601 376.916 292.422 377.266 293.076 377.966C293.738 378.657 294.07 379.501 294.07 380.5C294.07 381.508 293.738 382.362 293.076 383.062C292.422 383.753 291.601 384.098 290.612 384.098C290.154 384.098 289.73 383.995 289.338 383.79C288.946 383.575 288.633 383.291 288.4 382.936V386.576H287V377H287.952L288.036 378.288C288.297 377.868 288.656 377.537 289.114 377.294C289.571 377.042 290.07 376.916 290.612 376.916ZM292.04 378.89C291.61 378.47 291.097 378.26 290.5 378.26C289.902 378.26 289.384 378.475 288.946 378.904C288.516 379.324 288.302 379.856 288.302 380.5C288.302 381.144 288.516 381.681 288.946 382.11C289.384 382.53 289.902 382.74 290.5 382.74C291.097 382.74 291.61 382.53 292.04 382.11C292.469 381.69 292.684 381.153 292.684 380.5C292.684 379.847 292.469 379.31 292.04 378.89ZM302.542 384H301.142V379.296L297.026 384H296.144V377H297.544V381.704L301.66 377H302.542V384ZM311.513 384H310.113V381.13H306.431V384H305.031V377H306.431V379.786H310.113V377H311.513V384ZM320.65 384H319.698L319.614 382.712C319.353 383.132 318.993 383.468 318.536 383.72C318.079 383.963 317.579 384.084 317.038 384.084C316.049 384.084 315.223 383.739 314.56 383.048C313.907 382.348 313.58 381.499 313.58 380.5C313.58 379.492 313.907 378.643 314.56 377.952C315.223 377.252 316.049 376.902 317.038 376.902C317.579 376.902 318.079 377.028 318.536 377.28C318.993 377.532 319.353 377.868 319.614 378.288L319.698 377H320.65V384ZM315.624 382.11C316.053 382.53 316.567 382.74 317.164 382.74C317.761 382.74 318.275 382.53 318.704 382.11C319.143 381.681 319.362 381.144 319.362 380.5C319.362 379.847 319.143 379.31 318.704 378.89C318.275 378.461 317.761 378.246 317.164 378.246C316.567 378.246 316.053 378.461 315.624 378.89C315.195 379.31 314.98 379.847 314.98 380.5C314.98 381.153 315.195 381.69 315.624 382.11Z" fill="#2B2A29"/>
<path d="M65.6245 420H53.7805V410.2H55.2925V418.572H58.9465V410.2H60.4585V418.572H64.1125V410.2H65.6245V420ZM74.7358 420H73.3358V415.296L69.2198 420H68.3378V413H69.7378V417.704L73.8538 413H74.7358V420ZM80.9065 412.916C81.8958 412.916 82.7172 413.266 83.3705 413.966C84.0332 414.657 84.3645 415.501 84.3645 416.5C84.3645 417.508 84.0332 418.362 83.3705 419.062C82.7172 419.753 81.8958 420.098 80.9065 420.098C80.4492 420.098 80.0245 419.995 79.6325 419.79C79.2405 419.575 78.9278 419.291 78.6945 418.936V422.576H77.2945V413H78.2465L78.3305 414.288C78.5918 413.868 78.9512 413.537 79.4085 413.294C79.8658 413.042 80.3652 412.916 80.9065 412.916ZM82.3345 414.89C81.9052 414.47 81.3918 414.26 80.7945 414.26C80.1972 414.26 79.6792 414.475 79.2405 414.904C78.8112 415.324 78.5965 415.856 78.5965 416.5C78.5965 417.144 78.8112 417.681 79.2405 418.11C79.6792 418.53 80.1972 418.74 80.7945 418.74C81.3918 418.74 81.9052 418.53 82.3345 418.11C82.7638 417.69 82.9785 417.153 82.9785 416.5C82.9785 415.847 82.7638 415.31 82.3345 414.89ZM92.8374 420H91.4374V415.296L87.3214 420H86.4394V413H87.8394V417.704L91.9554 413H92.8374V420ZM101.808 420H100.408V417.13H96.7261V420H95.3261V413H96.7261V415.786H100.408V413H101.808V420ZM110.945 420H109.993L109.909 418.712C109.647 419.132 109.288 419.468 108.831 419.72C108.373 419.963 107.874 420.084 107.333 420.084C106.343 420.084 105.517 419.739 104.855 419.048C104.201 418.348 103.875 417.499 103.875 416.5C103.875 415.492 104.201 414.643 104.855 413.952C105.517 413.252 106.343 412.902 107.333 412.902C107.874 412.902 108.373 413.028 108.831 413.28C109.288 413.532 109.647 413.868 109.909 414.288L109.993 413H110.945V420ZM105.919 418.11C106.348 418.53 106.861 418.74 107.459 418.74C108.056 418.74 108.569 418.53 108.999 418.11C109.437 417.681 109.657 417.144 109.657 416.5C109.657 415.847 109.437 415.31 108.999 414.89C108.569 414.461 108.056 414.246 107.459 414.246C106.861 414.246 106.348 414.461 105.919 414.89C105.489 415.31 105.275 415.847 105.275 416.5C105.275 417.153 105.489 417.69 105.919 418.11ZM121.955 414.176L121.311 414.694L120.051 412.93L118.791 414.694L118.147 414.176L119.561 412.566L117.615 412.09L117.839 411.306L119.729 411.95L119.645 409.962H120.457L120.373 411.964L122.277 411.306L122.501 412.09L120.541 412.566L121.955 414.176ZM136.024 420H128.674V419.118L132.846 415.562C133.369 415.114 133.747 414.736 133.98 414.428C134.213 414.111 134.33 413.765 134.33 413.392C134.33 412.879 134.143 412.477 133.77 412.188C133.406 411.889 132.953 411.735 132.412 411.726H132.3C131.441 411.726 130.625 412.127 129.85 412.93L128.87 412.02C129.887 410.872 131.073 410.298 132.426 410.298H132.552C133.541 410.307 134.335 410.583 134.932 411.124C135.529 411.665 135.828 412.323 135.828 413.098C135.828 413.742 135.627 414.339 135.226 414.89C134.834 415.441 134.195 416.075 133.308 416.794L131.264 418.586H136.024V420ZM145.599 415.604H148.007V416.5H145.599V418.95H144.619V416.5H142.211V415.604H144.619V413.154H145.599V415.604ZM159.716 420L158.54 418.18C158.25 417.741 158.008 417.447 157.812 417.298C157.616 417.149 157.322 417.074 156.93 417.074H156.146V420H154.746V413H156.146V415.716H156.818C157.219 415.716 157.513 415.641 157.7 415.492C157.896 415.343 158.138 415.044 158.428 414.596L159.478 413H161.032L159.604 415.184C159.146 415.856 158.768 416.253 158.47 416.374C158.834 416.486 159.244 416.897 159.702 417.606L161.27 420H159.716ZM166.002 412.902C167 412.902 167.85 413.257 168.55 413.966C169.25 414.666 169.6 415.511 169.6 416.5C169.6 417.489 169.25 418.334 168.55 419.034C167.85 419.734 167 420.084 166.002 420.084C165.003 420.084 164.154 419.734 163.454 419.034C162.763 418.334 162.418 417.489 162.418 416.5C162.418 415.501 162.768 414.652 163.468 413.952C164.168 413.252 165.012 412.902 166.002 412.902ZM167.542 414.89C167.112 414.461 166.599 414.246 166.002 414.246C165.404 414.246 164.891 414.461 164.462 414.89C164.032 415.31 163.818 415.847 163.818 416.5C163.818 417.153 164.032 417.69 164.462 418.11C164.891 418.53 165.404 418.74 166.002 418.74C166.599 418.74 167.112 418.53 167.542 418.11C167.98 417.681 168.2 417.144 168.2 416.5C168.2 415.847 167.98 415.31 167.542 414.89ZM175.393 412.916C176.382 412.916 177.204 413.266 177.857 413.966C178.52 414.657 178.851 415.501 178.851 416.5C178.851 417.508 178.52 418.362 177.857 419.062C177.204 419.753 176.382 420.098 175.393 420.098C174.936 420.098 174.511 419.995 174.119 419.79C173.727 419.575 173.414 419.291 173.181 418.936V422.576H171.781V413H172.733L172.817 414.288C173.078 413.868 173.438 413.537 173.895 413.294C174.352 413.042 174.852 412.916 175.393 412.916ZM176.821 414.89C176.392 414.47 175.878 414.26 175.281 414.26C174.684 414.26 174.166 414.475 173.727 414.904C173.298 415.324 173.083 415.856 173.083 416.5C173.083 417.144 173.298 417.681 173.727 418.11C174.166 418.53 174.684 418.74 175.281 418.74C175.878 418.74 176.392 418.53 176.821 418.11C177.25 417.69 177.465 417.153 177.465 416.5C177.465 415.847 177.25 415.31 176.821 414.89ZM184.048 412.902C184.794 412.902 185.434 413.075 185.966 413.42C186.498 413.765 186.894 414.251 187.156 414.876C187.286 415.165 187.361 415.506 187.38 415.898C187.398 416.281 187.366 416.603 187.282 416.864H181.948C181.948 417.461 182.148 417.937 182.55 418.292C182.96 418.637 183.488 418.81 184.132 418.81C184.944 418.81 185.695 418.605 186.386 418.194L187.142 419.006C186.199 419.725 185.196 420.084 184.132 420.084C183.058 420.084 182.186 419.748 181.514 419.076C180.842 418.404 180.506 417.545 180.506 416.5C180.506 415.483 180.828 414.629 181.472 413.938C182.125 413.247 182.984 412.902 184.048 412.902ZM184.062 414.176C183.483 414.176 183.002 414.353 182.62 414.708C182.237 415.053 182.032 415.473 182.004 415.968H186.022C186.022 415.725 185.966 415.497 185.854 415.282C185.704 414.946 185.471 414.68 185.154 414.484C184.846 414.279 184.482 414.176 184.062 414.176ZM199.885 420H189.553V413H190.953V418.656H194.019V413H195.419V418.656H198.499V413H199.885V420ZM205.541 412.902C206.54 412.902 207.389 413.257 208.089 413.966C208.789 414.666 209.139 415.511 209.139 416.5C209.139 417.489 208.789 418.334 208.089 419.034C207.389 419.734 206.54 420.084 205.541 420.084C204.542 420.084 203.693 419.734 202.993 419.034C202.302 418.334 201.957 417.489 201.957 416.5C201.957 415.501 202.307 414.652 203.007 413.952C203.707 413.252 204.552 412.902 205.541 412.902ZM207.081 414.89C206.652 414.461 206.138 414.246 205.541 414.246C204.944 414.246 204.43 414.461 204.001 414.89C203.572 415.31 203.357 415.847 203.357 416.5C203.357 417.153 203.572 417.69 204.001 418.11C204.43 418.53 204.944 418.74 205.541 418.74C206.138 418.74 206.652 418.53 207.081 418.11C207.52 417.681 207.739 417.144 207.739 416.5C207.739 415.847 207.52 415.31 207.081 414.89ZM216.167 420L214.991 418.18C214.702 417.741 214.459 417.447 214.263 417.298C214.067 417.149 213.773 417.074 213.381 417.074H212.597V420H211.197V413H212.597V415.716H213.269C213.67 415.716 213.964 415.641 214.151 415.492C214.347 415.343 214.59 415.044 214.879 414.596L215.929 413H217.483L216.055 415.184C215.598 415.856 215.22 416.253 214.921 416.374C215.285 416.486 215.696 416.897 216.153 417.606L217.721 420H216.167ZM226.933 415.604H229.341V416.5H226.933V418.95H225.953V416.5H223.545V415.604H225.953V413.154H226.933V415.604ZM236.01 413H239.678C240.471 413 241.054 413.163 241.428 413.49C241.81 413.817 242.002 414.274 242.002 414.862C242.002 415.618 241.675 416.113 241.022 416.346C241.451 416.439 241.778 416.631 242.002 416.92C242.226 417.2 242.338 417.55 242.338 417.97C242.338 418.67 242.123 419.183 241.694 419.51C241.274 419.837 240.606 420 239.692 420H236.01V413ZM237.41 414.19V415.87H239.608C240.28 415.87 240.616 415.59 240.616 415.03C240.616 414.47 240.275 414.19 239.594 414.19H237.41ZM237.41 418.81H239.734C240.536 418.81 240.938 418.493 240.938 417.858C240.938 417.223 240.541 416.906 239.748 416.906L237.41 416.892V418.81ZM245.832 415.142H247.848C248.398 415.142 248.87 415.217 249.262 415.366C249.654 415.506 249.948 415.702 250.144 415.954C250.349 416.206 250.494 416.463 250.578 416.724C250.662 416.985 250.704 417.265 250.704 417.564C250.704 417.863 250.662 418.147 250.578 418.418C250.494 418.679 250.349 418.936 250.144 419.188C249.948 419.44 249.654 419.641 249.262 419.79C248.87 419.93 248.398 420 247.848 420H244.432V413H245.832V415.142ZM252.874 420H251.474V413H252.874V420ZM245.832 418.698H248.002C248.87 418.698 249.304 418.32 249.304 417.564C249.304 416.817 248.87 416.444 248.002 416.444H245.832V418.698ZM258.117 415.086L255.933 420H254.449L257.683 413H258.551L261.785 420H260.315L258.117 415.086ZM266.202 412.902C266.949 412.902 267.588 413.075 268.12 413.42C268.652 413.765 269.049 414.251 269.31 414.876C269.441 415.165 269.515 415.506 269.534 415.898C269.553 416.281 269.52 416.603 269.436 416.864H264.102C264.102 417.461 264.303 417.937 264.704 418.292C265.115 418.637 265.642 418.81 266.286 418.81C267.098 418.81 267.849 418.605 268.54 418.194L269.296 419.006C268.353 419.725 267.35 420.084 266.286 420.084C265.213 420.084 264.34 419.748 263.668 419.076C262.996 418.404 262.66 417.545 262.66 416.5C262.66 415.483 262.982 414.629 263.626 413.938C264.279 413.247 265.138 412.902 266.202 412.902ZM266.216 414.176C265.637 414.176 265.157 414.353 264.774 414.708C264.391 415.053 264.186 415.473 264.158 415.968H268.176C268.176 415.725 268.12 415.497 268.008 415.282C267.859 414.946 267.625 414.68 267.308 414.484C267 414.279 266.636 414.176 266.216 414.176ZM274.58 414.344V420H273.18V414.344H270.814V413H276.96V414.344H274.58ZM286.549 409.584V411.012C285.905 411.553 285.387 412.249 284.995 413.098C284.603 413.938 284.398 414.787 284.379 415.646V415.842C284.379 416.701 284.575 417.559 284.967 418.418C285.368 419.267 285.896 419.972 286.549 420.532V421.96C285.438 421.344 284.547 420.476 283.875 419.356C283.203 418.236 282.867 417.065 282.867 415.842V415.646C282.876 414.433 283.217 413.266 283.889 412.146C284.561 411.026 285.448 410.172 286.549 409.584ZM295.269 411.278L292.063 414.232C292.278 414.185 292.572 414.162 292.945 414.162C293.813 414.246 294.48 414.54 294.947 415.044C295.414 415.548 295.647 416.173 295.647 416.92C295.647 417.835 295.339 418.591 294.723 419.188C294.116 419.785 293.248 420.089 292.119 420.098H292.007C290.346 420.089 289.053 419.449 288.129 418.18L289.109 417.27C289.94 418.203 290.906 418.67 292.007 418.67H292.091C292.716 418.661 293.225 418.474 293.617 418.11C294.018 417.746 294.219 417.279 294.219 416.71C294.219 415.553 293.491 414.974 292.035 414.974C291.559 414.974 291.06 415.1 290.537 415.352L289.795 414.792L293.015 411.824H288.997V410.41H295.269V411.278ZM309.6 420H308.2V415.296L305.932 417.886L303.664 415.296V420H302.264V413H303.146L305.932 416.192L308.718 413H309.6V420ZM319.43 420H318.03V415.296L315.762 417.886L313.494 415.296V420H312.094V413H312.976L315.762 416.192L318.548 413H319.43V420ZM321.504 411.012V409.584C322.605 410.172 323.487 411.026 324.15 412.146C324.822 413.266 325.167 414.433 325.186 415.646V415.842C325.186 417.065 324.85 418.236 324.178 419.356C323.506 420.476 322.614 421.344 321.504 421.96V420.532C322.157 419.972 322.68 419.267 323.072 418.418C323.464 417.569 323.66 416.71 323.66 415.842V415.646C323.65 414.787 323.45 413.938 323.058 413.098C322.666 412.249 322.148 411.553 321.504 411.012ZM335.77 414.176L335.126 414.694L333.866 412.93L332.606 414.694L331.962 414.176L333.376 412.566L331.43 412.09L331.654 411.306L333.544 411.95L333.46 409.962H334.272L334.188 411.964L336.092 411.306L336.316 412.09L334.356 412.566L335.77 414.176ZM349.838 420H342.488V419.118L346.66 415.562C347.183 415.114 347.561 414.736 347.794 414.428C348.028 414.111 348.144 413.765 348.144 413.392C348.144 412.879 347.958 412.477 347.584 412.188C347.22 411.889 346.768 411.735 346.226 411.726H346.114C345.256 411.726 344.439 412.127 343.664 412.93L342.684 412.02C343.702 410.872 344.887 410.298 346.24 410.298H346.366C347.356 410.307 348.149 410.583 348.746 411.124C349.344 411.665 349.642 412.323 349.642 413.098C349.642 413.742 349.442 414.339 349.04 414.89C348.648 415.441 348.009 416.075 347.122 416.794L345.078 418.586H349.838V420Z" fill="#2F80ED"/>
<path d="M459.2 303.415V299.747C459.2 299.215 459.256 298.744 459.368 298.333C459.48 297.923 459.625 297.605 459.802 297.381C459.97 297.148 460.175 296.961 460.418 296.821C460.651 296.672 460.875 296.574 461.09 296.527C461.305 296.481 461.529 296.457 461.762 296.457C462.835 296.457 463.54 296.924 463.876 297.857C463.997 297.279 464.268 296.826 464.688 296.499C465.108 296.173 465.626 296.009 466.242 296.009C468.081 296.009 469 297.185 469 299.537V303.415H459.2ZM460.628 301.903H463.288V299.593C463.288 298.464 462.845 297.899 461.958 297.899C461.071 297.899 460.628 298.464 460.628 299.593V301.903ZM464.59 301.903H467.572V299.229C467.572 298.044 467.077 297.451 466.088 297.451C465.64 297.451 465.281 297.601 465.01 297.899C464.73 298.189 464.59 298.632 464.59 299.229V301.903ZM464.142 292.602V290.586C464.142 290.035 464.217 289.564 464.366 289.172C464.506 288.78 464.702 288.486 464.954 288.29C465.206 288.085 465.463 287.94 465.724 287.856C465.985 287.772 466.265 287.73 466.564 287.73C466.863 287.73 467.147 287.772 467.418 287.856C467.679 287.94 467.936 288.085 468.188 288.29C468.44 288.486 468.641 288.78 468.79 289.172C468.93 289.564 469 290.035 469 290.586V294.002H462V292.602H464.142ZM469 285.56V286.96H462V285.56H469ZM467.698 292.602V290.432C467.698 289.564 467.32 289.13 466.564 289.13C465.817 289.13 465.444 289.564 465.444 290.432V292.602H467.698ZM461.916 279.901C461.916 278.781 462.345 277.861 463.204 277.143L464.114 277.983C463.545 278.524 463.26 279.163 463.26 279.901C463.26 280.498 463.47 281.011 463.89 281.441C464.31 281.87 464.847 282.085 465.5 282.085C466.153 282.085 466.69 281.87 467.11 281.441C467.53 281.011 467.74 280.498 467.74 279.901C467.74 279.182 467.455 278.543 466.886 277.983L467.796 277.143C468.655 277.861 469.084 278.781 469.084 279.901C469.084 280.899 468.734 281.749 468.034 282.449C467.334 283.139 466.489 283.485 465.5 283.485C464.511 283.485 463.666 283.139 462.966 282.449C462.266 281.749 461.916 280.899 461.916 279.901ZM461.902 271.971C461.902 270.972 462.257 270.123 462.966 269.423C463.666 268.723 464.511 268.373 465.5 268.373C466.489 268.373 467.334 268.723 468.034 269.423C468.734 270.123 469.084 270.972 469.084 271.971C469.084 272.97 468.734 273.819 468.034 274.519C467.334 275.21 466.489 275.555 465.5 275.555C464.501 275.555 463.652 275.205 462.952 274.505C462.252 273.805 461.902 272.96 461.902 271.971ZM463.89 270.431C463.461 270.86 463.246 271.374 463.246 271.971C463.246 272.568 463.461 273.082 463.89 273.511C464.31 273.94 464.847 274.155 465.5 274.155C466.153 274.155 466.69 273.94 467.11 273.511C467.53 273.082 467.74 272.568 467.74 271.971C467.74 271.374 467.53 270.86 467.11 270.431C466.681 269.992 466.144 269.773 465.5 269.773C464.847 269.773 464.31 269.992 463.89 270.431ZM463.344 263.43H469V264.83H463.344V267.196H462V261.05H463.344V263.43ZM469 252.79V253.742L467.712 253.826C468.132 254.087 468.468 254.446 468.72 254.904C468.963 255.361 469.084 255.86 469.084 256.402C469.084 257.391 468.739 258.217 468.048 258.88C467.348 259.533 466.499 259.86 465.5 259.86C464.492 259.86 463.643 259.533 462.952 258.88C462.252 258.217 461.902 257.391 461.902 256.402C461.902 255.86 462.028 255.361 462.28 254.904C462.532 254.446 462.868 254.087 463.288 253.826L462 253.742V252.79H469ZM467.11 257.816C467.53 257.386 467.74 256.873 467.74 256.276C467.74 255.678 467.53 255.165 467.11 254.736C466.681 254.297 466.144 254.078 465.5 254.078C464.847 254.078 464.31 254.297 463.89 254.736C463.461 255.165 463.246 255.678 463.246 256.276C463.246 256.873 463.461 257.386 463.89 257.816C464.31 258.245 464.847 258.46 465.5 258.46C466.153 258.46 466.69 258.245 467.11 257.816ZM464.604 242.731V240.323H465.5V242.731H467.95V243.711H465.5V246.119H464.604V243.711H462.154V242.731H464.604ZM462 233.654V229.986C462 229.193 462.163 228.61 462.49 228.236C462.817 227.854 463.274 227.662 463.862 227.662C464.618 227.662 465.113 227.989 465.346 228.642C465.439 228.213 465.631 227.886 465.92 227.662C466.2 227.438 466.55 227.326 466.97 227.326C467.67 227.326 468.183 227.541 468.51 227.97C468.837 228.39 469 229.058 469 229.972V233.654H462ZM463.19 232.254H464.87V230.056C464.87 229.384 464.59 229.048 464.03 229.048C463.47 229.048 463.19 229.389 463.19 230.07V232.254ZM467.81 232.254V229.93C467.81 229.128 467.493 228.726 466.858 228.726C466.223 228.726 465.906 229.123 465.906 229.916L465.892 232.254H467.81ZM464.142 223.833V221.817C464.142 221.266 464.217 220.795 464.366 220.403C464.506 220.011 464.702 219.717 464.954 219.521C465.206 219.315 465.463 219.171 465.724 219.087C465.985 219.003 466.265 218.961 466.564 218.961C466.863 218.961 467.147 219.003 467.418 219.087C467.679 219.171 467.936 219.315 468.188 219.521C468.44 219.717 468.641 220.011 468.79 220.403C468.93 220.795 469 221.266 469 221.817V225.233H462V223.833H464.142ZM469 216.791V218.191H462V216.791H469ZM467.698 223.833V221.663C467.698 220.795 467.32 220.361 466.564 220.361C465.817 220.361 465.444 220.795 465.444 221.663V223.833H467.698ZM464.086 211.547L469 213.731V215.215L462 211.981V211.113L469 207.879V209.349L464.086 211.547ZM461.902 203.462C461.902 202.715 462.075 202.076 462.42 201.544C462.765 201.012 463.251 200.615 463.876 200.354C464.165 200.223 464.506 200.149 464.898 200.13C465.281 200.111 465.603 200.144 465.864 200.228V205.562C466.461 205.562 466.937 205.361 467.292 204.96C467.637 204.549 467.81 204.022 467.81 203.378C467.81 202.566 467.605 201.815 467.194 201.124L468.006 200.368C468.725 201.311 469.084 202.314 469.084 203.378C469.084 204.451 468.748 205.324 468.076 205.996C467.404 206.668 466.545 207.004 465.5 207.004C464.483 207.004 463.629 206.682 462.938 206.038C462.247 205.385 461.902 204.526 461.902 203.462ZM463.176 203.448C463.176 204.027 463.353 204.507 463.708 204.89C464.053 205.273 464.473 205.478 464.968 205.506V201.488C464.725 201.488 464.497 201.544 464.282 201.656C463.946 201.805 463.68 202.039 463.484 202.356C463.279 202.664 463.176 203.028 463.176 203.448ZM463.344 195.084H469V196.484H463.344V198.85H462V192.704H463.344V195.084ZM458.584 183.115H460.012C460.553 183.759 461.249 184.277 462.098 184.669C462.938 185.061 463.787 185.266 464.646 185.285H464.842C465.701 185.285 466.559 185.089 467.418 184.697C468.267 184.296 468.972 183.768 469.532 183.115H470.96C470.344 184.226 469.476 185.117 468.356 185.789C467.236 186.461 466.065 186.797 464.842 186.797H464.646C463.433 186.788 462.266 186.447 461.146 185.775C460.026 185.103 459.172 184.216 458.584 183.115ZM460.278 174.395L463.232 177.601C463.185 177.386 463.162 177.092 463.162 176.719C463.246 175.851 463.54 175.184 464.044 174.717C464.548 174.25 465.173 174.017 465.92 174.017C466.835 174.017 467.591 174.325 468.188 174.941C468.785 175.548 469.089 176.416 469.098 177.545V177.657C469.089 179.318 468.449 180.611 467.18 181.535L466.27 180.555C467.203 179.724 467.67 178.758 467.67 177.657V177.573C467.661 176.948 467.474 176.439 467.11 176.047C466.746 175.646 466.279 175.445 465.71 175.445C464.553 175.445 463.974 176.173 463.974 177.629C463.974 178.105 464.1 178.604 464.352 179.127L463.792 179.869L460.824 176.649V180.667H459.41V174.395H460.278ZM469 160.064V161.464H464.296L466.886 163.732L464.296 166H469V167.4H462V166.518L465.192 163.732L462 160.946V160.064H469ZM469 150.234V151.634H464.296L466.886 153.902L464.296 156.17H469V157.57H462V156.688L465.192 153.902L462 151.116V150.234H469ZM460.012 148.16H458.584C459.172 147.059 460.026 146.177 461.146 145.514C462.266 144.842 463.433 144.497 464.646 144.478H464.842C466.065 144.478 467.236 144.814 468.356 145.486C469.476 146.158 470.344 147.05 470.96 148.16H469.532C468.972 147.507 468.267 146.984 467.418 146.592C466.569 146.2 465.71 146.004 464.842 146.004H464.646C463.787 146.014 462.938 146.214 462.098 146.606C461.249 146.998 460.553 147.516 460.012 148.16ZM463.176 133.895L463.694 134.539L461.93 135.799L463.694 137.059L463.176 137.703L461.566 136.289L461.09 138.235L460.306 138.011L460.95 136.121L458.962 136.205V135.393L460.964 135.477L460.306 133.573L461.09 133.349L461.566 135.309L463.176 133.895ZM469 119.826V127.176H468.118L464.562 123.004C464.114 122.481 463.736 122.103 463.428 121.87C463.111 121.636 462.765 121.52 462.392 121.52C461.879 121.52 461.477 121.706 461.188 122.08C460.889 122.444 460.735 122.896 460.726 123.438V123.55C460.726 124.408 461.127 125.225 461.93 126L461.02 126.98C459.872 125.962 459.298 124.777 459.298 123.424V123.298C459.307 122.308 459.583 121.515 460.124 120.918C460.665 120.32 461.323 120.022 462.098 120.022C462.742 120.022 463.339 120.222 463.89 120.624C464.441 121.016 465.075 121.655 465.794 122.542L467.586 124.586V119.826H469Z" fill="#2F80ED"/>
<path d="M176 368L17 368" stroke="#E65420" stroke-width="0.75" stroke-miterlimit="10"/>
<path d="M382 400H6" stroke="#E65420" stroke-width="0.75" stroke-miterlimit="10"/>
<path d="M370.65 368L211.65 368" stroke="#E65420" stroke-width="0.75" stroke-miterlimit="10"/>
<path d="M176 347L161 347" stroke="#E65420" stroke-width="0.75" stroke-miterlimit="10"/>
<path d="M212.711 347L227.711 347" stroke="#E65420" stroke-width="0.75" stroke-miterlimit="10"/>
<path d="M277.5 34.232H278.774C279.913 34.232 280.482 33.7887 280.482 32.902C280.482 32.4727 280.337 32.1367 280.048 31.894C279.768 31.6513 279.334 31.5253 278.746 31.516H278.662C278.195 31.516 277.71 31.6187 277.206 31.824C276.702 32.02 276.277 32.2907 275.932 32.636L274.952 31.726C275.409 31.222 275.96 30.8253 276.604 30.536C277.257 30.2467 277.925 30.102 278.606 30.102H278.704C279.301 30.102 279.819 30.186 280.258 30.354C280.706 30.522 281.042 30.7413 281.266 31.012C281.49 31.2827 281.653 31.558 281.756 31.838C281.859 32.118 281.91 32.4073 281.91 32.706C281.91 33.2473 281.784 33.7187 281.532 34.12C281.28 34.512 280.925 34.7873 280.468 34.946C281.019 35.0673 281.448 35.3427 281.756 35.772C282.073 36.192 282.232 36.696 282.232 37.284C282.232 38.124 281.933 38.8007 281.336 39.314C280.748 39.8273 279.852 40.0887 278.648 40.098H278.564C277.771 40.098 277.038 39.9253 276.366 39.58C275.694 39.2347 275.139 38.768 274.7 38.18L275.68 37.27C276.007 37.6993 276.431 38.04 276.954 38.292C277.486 38.544 278.037 38.67 278.606 38.67H278.69C279.343 38.67 279.857 38.544 280.23 38.292C280.603 38.0307 280.79 37.6433 280.79 37.13C280.79 36.682 280.641 36.3227 280.342 36.052C280.053 35.7813 279.609 35.646 279.012 35.646H277.5V34.232ZM287.408 32.902C288.407 32.902 289.256 33.2567 289.956 33.966C290.656 34.666 291.006 35.5107 291.006 36.5C291.006 37.4893 290.656 38.334 289.956 39.034C289.256 39.734 288.407 40.084 287.408 40.084C286.409 40.084 285.56 39.734 284.86 39.034C284.169 38.334 283.824 37.4893 283.824 36.5C283.824 35.5013 284.174 34.652 284.874 33.952C285.574 33.252 286.419 32.902 287.408 32.902ZM288.948 34.89C288.519 34.4607 288.005 34.246 287.408 34.246C286.811 34.246 286.297 34.4607 285.868 34.89C285.439 35.31 285.224 35.8467 285.224 36.5C285.224 37.1533 285.439 37.69 285.868 38.11C286.297 38.53 286.811 38.74 287.408 38.74C288.005 38.74 288.519 38.53 288.948 38.11C289.387 37.6807 289.606 37.144 289.606 36.5C289.606 35.8467 289.387 35.31 288.948 34.89ZM299.558 40H298.158V37.13H294.476V40H293.076V33H294.476V35.786H298.158V33H299.558V40ZM308.695 40H307.743L307.659 38.712C307.397 39.132 307.038 39.468 306.581 39.72C306.123 39.9627 305.624 40.084 305.083 40.084C304.093 40.084 303.267 39.7387 302.605 39.048C301.951 38.348 301.625 37.4987 301.625 36.5C301.625 35.492 301.951 34.6427 302.605 33.952C303.267 33.252 304.093 32.902 305.083 32.902C305.624 32.902 306.123 33.028 306.581 33.28C307.038 33.532 307.397 33.868 307.659 34.288L307.743 33H308.695V40ZM303.669 38.11C304.098 38.53 304.611 38.74 305.209 38.74C305.806 38.74 306.319 38.53 306.749 38.11C307.187 37.6807 307.407 37.144 307.407 36.5C307.407 35.8467 307.187 35.31 306.749 34.89C306.319 34.4607 305.806 34.246 305.209 34.246C304.611 34.246 304.098 34.4607 303.669 34.89C303.239 35.31 303.025 35.8467 303.025 36.5C303.025 37.1533 303.239 37.69 303.669 38.11ZM322.267 40H320.867V34.344H317.185V40H315.785V33H322.267V40ZM328.436 32.916C329.425 32.916 330.246 33.266 330.9 33.966C331.562 34.6567 331.894 35.5013 331.894 36.5C331.894 37.508 331.562 38.362 330.9 39.062C330.246 39.7527 329.425 40.098 328.436 40.098C327.978 40.098 327.554 39.9953 327.162 39.79C326.77 39.5753 326.457 39.2907 326.224 38.936V42.576H324.824V33H325.776L325.86 34.288C326.121 33.868 326.48 33.5367 326.938 33.294C327.395 33.042 327.894 32.916 328.436 32.916ZM329.864 34.89C329.434 34.47 328.921 34.26 328.324 34.26C327.726 34.26 327.208 34.4747 326.77 34.904C326.34 35.324 326.126 35.856 326.126 36.5C326.126 37.144 326.34 37.6807 326.77 38.11C327.208 38.53 327.726 38.74 328.324 38.74C328.921 38.74 329.434 38.53 329.864 38.11C330.293 37.69 330.508 37.1533 330.508 36.5C330.508 35.8467 330.293 35.31 329.864 34.89ZM340.367 40H338.967V35.296L334.851 40H333.969V33H335.369V37.704L339.485 33H340.367V40ZM347.895 40L346.719 38.18C346.43 37.7413 346.187 37.4473 345.991 37.298C345.795 37.1487 345.501 37.074 345.109 37.074H344.325V40H342.925V33H344.325V35.716H344.997C345.399 35.716 345.693 35.6413 345.879 35.492C346.075 35.3427 346.318 35.044 346.607 34.596L347.657 33H349.211L347.783 35.184C347.326 35.856 346.948 36.2527 346.649 36.374C347.013 36.486 347.424 36.8967 347.881 37.606L349.449 40H347.895ZM353.998 35.086L351.814 40H350.33L353.564 33H354.432L357.666 40H356.196L353.998 35.086ZM362.083 32.902C362.83 32.902 363.469 33.0747 364.001 33.42C364.533 33.7653 364.93 34.2507 365.191 34.876C365.322 35.1653 365.396 35.506 365.415 35.898C365.434 36.2807 365.401 36.6027 365.317 36.864H359.983C359.983 37.4613 360.184 37.9373 360.585 38.292C360.996 38.6373 361.523 38.81 362.167 38.81C362.979 38.81 363.73 38.6047 364.421 38.194L365.177 39.006C364.234 39.7247 363.231 40.084 362.167 40.084C361.094 40.084 360.221 39.748 359.549 39.076C358.877 38.404 358.541 37.5453 358.541 36.5C358.541 35.4827 358.863 34.6287 359.507 33.938C360.16 33.2473 361.019 32.902 362.083 32.902ZM362.097 34.176C361.518 34.176 361.038 34.3533 360.655 34.708C360.272 35.0533 360.067 35.4733 360.039 35.968H364.057C364.057 35.7253 364.001 35.4967 363.889 35.282C363.74 34.946 363.506 34.68 363.189 34.484C362.881 34.2787 362.517 34.176 362.097 34.176ZM372.278 31.726C371.876 32.0993 371.382 32.286 370.794 32.286C370.206 32.286 369.706 32.0993 369.296 31.726C368.894 31.3527 368.694 30.8813 368.694 30.312H369.674C369.674 30.592 369.781 30.83 369.996 31.026C370.21 31.2127 370.476 31.306 370.794 31.306C371.111 31.306 371.377 31.2127 371.592 31.026C371.806 30.83 371.914 30.592 371.914 30.312H372.894C372.894 30.8813 372.688 31.3527 372.278 31.726ZM373.986 40H372.586V35.296L368.47 40H367.588V33H368.988V37.704L373.104 33H373.986V40ZM381.515 40L380.339 38.18C380.049 37.7413 379.807 37.4473 379.611 37.298C379.415 37.1487 379.121 37.074 378.729 37.074H377.945V40H376.545V33H377.945V35.716H378.617C379.018 35.716 379.312 35.6413 379.499 35.492C379.695 35.3427 379.937 35.044 380.227 34.596L381.277 33H382.831L381.403 35.184C380.945 35.856 380.567 36.2527 380.269 36.374C380.633 36.486 381.043 36.8967 381.501 37.606L383.069 40H381.515ZM391.117 40H389.717V35.296L385.601 40H384.719V33H386.119V37.704L390.235 33H391.117V40ZM401.615 30.298H401.699C402.922 30.3073 403.902 30.7507 404.639 31.628L403.659 32.538C403.062 31.9967 402.404 31.726 401.685 31.726H401.615C400.859 31.726 400.28 32.02 399.879 32.608C399.478 33.196 399.244 33.9287 399.179 34.806C399.394 34.4047 399.716 34.0873 400.145 33.854C400.574 33.6113 401.069 33.49 401.629 33.49C402.553 33.49 403.328 33.7887 403.953 34.386C404.578 34.974 404.891 35.7533 404.891 36.724C404.891 37.6387 404.574 38.432 403.939 39.104C403.304 39.7667 402.455 40.098 401.391 40.098C400.308 40.098 399.422 39.7247 398.731 38.978C398.05 38.2313 397.709 37.284 397.709 36.136V35.45C397.709 34.498 397.844 33.644 398.115 32.888C398.395 32.1227 398.834 31.502 399.431 31.026C400.038 30.5407 400.766 30.298 401.615 30.298ZM402.791 35.338C402.399 34.9647 401.904 34.778 401.307 34.778C400.71 34.778 400.215 34.96 399.823 35.324C399.431 35.6787 399.235 36.1127 399.235 36.626C399.235 37.2047 399.422 37.69 399.795 38.082C400.168 38.474 400.672 38.67 401.307 38.67C401.904 38.67 402.399 38.488 402.791 38.124C403.183 37.7507 403.379 37.284 403.379 36.724C403.379 36.164 403.183 35.702 402.791 35.338ZM418.838 40H417.438V35.296L415.17 37.886L412.902 35.296V40H411.502V33H412.384L415.17 36.192L417.956 33H418.838V40ZM428.668 40H427.268V35.296L425 37.886L422.732 35.296V40H421.332V33H422.214L425 36.192L427.786 33H428.668V40Z" fill="#2B2A29"/>
<rect x="251.5" y="6.5" width="201" height="57" stroke="#9B51E0" stroke-dasharray="5 5"/>
<line x1="251.378" y1="63.3278" x2="218.378" y2="101.328" stroke="#9B51E0" stroke-dasharray="5 5"/>
</svg>
