<svg width="12" height="12" viewBox="0 0 12 12" fill="none" xmlns="http://www.w3.org/2000/svg">
<circle cx="6" cy="6" r="6" fill="#E25D23"/>
<path d="M4.79235 8.95101L2.04991 6.22051C2.03409 6.20477 2.02154 6.18605 2.01297 6.16544C2.00441 6.14482 2 6.12272 2 6.10039C2 6.07806 2.00441 6.05596 2.01297 6.03534C2.02154 6.01473 2.03409 5.99601 2.04991 5.98027L2.74225 5.28648C2.8084 5.22026 2.91533 5.22026 2.98149 5.28648L4.78696 7.08294C4.85312 7.14916 4.96081 7.14839 5.02697 7.08217L9.01639 3.05034C9.08255 2.98335 9.19025 2.98335 9.25717 3.04957L9.95029 3.74336C10.0164 3.80958 10.0164 3.91661 9.95105 3.98284L5.60469 8.37272L5.60546 8.37349L5.03236 8.95024C4.9662 9.01646 4.8585 9.01646 4.79235 8.95101Z" fill="white"/>
</svg>
