<?xml version="1.0" encoding="UTF-8"?>
<!DOCTYPE svg PUBLIC "-//W3C//DTD SVG 1.0//EN" "http://www.w3.org/TR/2001/REC-SVG-20010904/DTD/svg10.dtd">
<!-- Creator: CorelDRAW 2019 (64-Bit) -->
<svg xmlns="http://www.w3.org/2000/svg" xml:space="preserve" width="234.866mm" height="67.855mm" version="1.0" style="shape-rendering:geometricPrecision; text-rendering:geometricPrecision; image-rendering:optimizeQuality; fill-rule:evenodd; clip-rule:evenodd"
viewBox="0 0 19298.76 5575.59"
 xmlns:xlink="http://www.w3.org/1999/xlink"
 xmlns:xodm="http://www.corel.com/coreldraw/odm/2003">
 <defs>
  <style type="text/css">
   <![CDATA[
    .fil3 {fill:#2B2A29;fill-rule:nonzero}
    .fil1 {fill:#E25F23;fill-rule:nonzero}
    .fil0 {fill:url(#id0)}
    .fil2 {fill:url(#id1)}
   ]]>
  </style>
  <linearGradient id="id0" gradientUnits="userSpaceOnUse" x1="3990.59" y1="3641.05" x2="3990.59" y2="5900.14">
   <stop offset="0" style="stop-opacity:1; stop-color:#E25D23"/>
   <stop offset="1" style="stop-opacity:1; stop-color:#9D471E"/>
  </linearGradient>
  <linearGradient id="id1" gradientUnits="userSpaceOnUse" xlink:href="#id0" x1="2524.75" y1="1813.31" x2="3420.91" y2="882.5">
  </linearGradient>
 </defs>
 <g id="Слой_x0020_1">
  <metadata id="CorelCorpID_0Corel-Layer"/>
  <path class="fil0" d="M4532.12 3889.35c34.71,263.25 54.82,544.95 54.82,846.93 0,299.28 -10.15,575.26 -27.67,830.23 865.05,-526.7 1442.78,-1478.5 1442.78,-2565.21 0,-1657.54 -1343.55,-3001.14 -3001.02,-3001.14 -380.78,-4.12 -730.68,74.19 -1021.89,177.11l1.73 1.65c7.43,-2.68 14.8,-5.46 22.23,-8.08 141.86,71.08 759.46,521.77 997.92,717.49 127.64,96.59 1198.56,957.82 1503.3,2813.28l-728.27 0c-49.94,-384.01 -377.86,-680.18 -774.87,-680.18 -397.29,0 -725.22,296.17 -775.17,680.18l-713.05 0 -27.85 187.74 738.97 0c42.68,391.25 374.22,695.81 777.09,695.81 402.6,0 734.11,-304.56 776.79,-695.81l754.16 0z"/>
  <path class="fil1" d="M3001.08 2010.1c-168.04,0 -304.21,136.16 -304.21,304.38 0,167.92 136.16,304.08 304.21,304.08 167.92,0 304.08,-136.16 304.08,-304.08 0,-168.22 -136.16,-304.38 -304.08,-304.38z"/>
  <path class="fil2" d="M1512.97 3701.62c304.74,-1855.48 1360.42,-2716.69 1488.05,-2813.29 -238.46,-195.72 -856.05,-646.41 -997.92,-717.49 -1166.68,411.31 -2003.1,1523.05 -2003.1,2830.46 0,1093.25 584.81,2049.68 1458.58,2574.28 -17.95,-257.56 -28.16,-536.42 -28.16,-839.31 0,-301.98 20.12,-583.67 54.69,-846.93l27.86 -187.73z"/>
  <g id="_1881697762864">
   <path class="fil3" d="M7625.65 2478.41c230.24,0 447.6,-108.52 447.6,-367.64 0,-246.06 -217.36,-370.85 -447.6,-370.85l-252.56 0 0 738.49 252.56 0zm-41.56 -1249.98c655.39,0 1003.86,405.98 1003.86,882.34 0,479.51 -348.47,882.34 -1003.86,882.34l-210.99 0 0 473.14 -543.39 0 0 -2237.82 754.39 0z"/>
   <path class="fil3" d="M9572.18 2641.55l326.09 0 -163.08 -434.8 -163.01 434.8zm-303.7 824.7l-604.12 0 914.18 -2237.82 326.15 0 901.44 2237.82 -604.17 0 -115.09 -310 -703.31 0 -115.09 310z"/>
   <path class="fil3" d="M12094.14 2740.74c-70.38,-108.71 -121.51,-143.9 -233.45,-143.9l-121.39 0 0 869.41 -543.45 0 0 -2237.82 543.45 0 0 843.93 118.24 0c111.87,0 163.01,-38.34 233.38,-143.84l447.53 -700.1 610.62 0 -546.61 860.08c-121.59,166.1 -191.83,207.66 -233.45,236.47 44.77,25.6 115.09,64.01 236.61,255.78l565.83 885.49 -613.76 0 -463.56 -725.5z"/>
   <polygon class="fil3" points="15069.88,2088.51 15069.88,2603.21 14168.5,2603.21 14168.5,2951.56 15156.22,2951.56 15156.22,3466.25 13624.99,3466.25 13624.99,1228.43 15156.22,1228.43 15156.22,1739.91 14168.5,1739.91 14168.5,2088.51 "/>
   <polygon class="fil3" points="16610.5,3466.25 16066.99,3466.25 16066.99,1739.91 15494.78,1739.91 15494.78,1228.43 17182.65,1228.43 17182.65,1739.91 16610.5,1739.91 "/>
   <path class="fil3" d="M18064.67 2641.55l326.09 0 -162.95 -434.8 -163.14 434.8zm-303.63 824.7l-604.25 0 914.25 -2237.82 326.34 0 901.38 2237.82 -604.3 0 -115.09 -310 -703.31 0 -115.02 310z"/>
  </g>
  <g id="_1881697774960">
   <polygon class="fil3" points="7145.94,4678.98 7145.94,4327.04 6916.81,4327.04 6916.81,4678.98 6829.7,4678.98 6829.7,4243.28 7233.04,4243.28 7233.04,4678.98 "/>
   <path class="fil3" d="M7477.88 4461.36c0,82.6 64.46,139.34 136.76,139.34 72.24,0 135.93,-56.74 135.93,-139.34 0,-83.05 -63.69,-139.53 -135.93,-139.53 -72.3,0 -136.76,56.48 -136.76,139.53zm358.96 0c0,123.45 -91.48,223.8 -215.24,223.8 -58.35,0 -109.75,-29.72 -137.6,-72.18l0 226.5 -87.17 0 0 -596.2 59.24 0 5.21 80.35c32.29,-51.53 91.48,-85.37 160.31,-85.37 123.76,0 215.24,99.19 215.24,223.09z"/>
   <path class="fil3" d="M8030.67 4461.36c0,82.6 63.62,139.34 135.92,139.34 72.24,0 136.76,-56.74 136.76,-139.34 0,-83.05 -64.52,-140.43 -136.76,-140.43 -72.31,0 -135.92,57.38 -135.92,140.43zm359.85 0c0,123.45 -100.16,222.9 -223.93,222.9 -123.77,0 -223.03,-99.45 -223.03,-222.9 0,-123.89 99.26,-224.18 223.03,-224.18 123.77,0 223.93,100.29 223.93,224.18z"/>
   <polygon class="fil3" points="8836.58,4678.98 8836.58,4386.29 8580.49,4678.98 8525.48,4678.98 8525.48,4243.28 8612.65,4243.28 8612.65,4536.24 8868.87,4243.28 8923.75,4243.28 8923.75,4678.98 "/>
   <path class="fil3" d="M9425.9 4552.58c0,88.06 -73.98,131.68 -176.84,132.58l-11.32 0c-87.94,0 -166.43,-43.62 -192.54,-85.37l47.86 -51.53c29.66,33.13 82.79,57.44 143.01,57.44l10.36 0c53.2,0 92.37,-21.54 92.37,-65.36 0,-33.84 -19.17,-58.35 -74.04,-59.24l-73.21 0 0 -53.78 64.53 0c45.28,-0.9 62.65,-22.71 62.65,-52.43 0,-39.94 -35.7,-58.28 -79.25,-58.28l-7.85 0c-50.57,0 -93.21,19.94 -125.44,51.46l-46.2 -50.56c36.61,-43.62 103.71,-80.34 178.58,-80.34l7.86 0c86.33,0 158.57,42.91 158.57,118.69 0,41.75 -17.44,79.19 -62.66,95.78 56.55,12.23 83.57,49.66 83.57,100.94z"/>
   <path class="fil3" d="M9797.02 4605c54.87,0 74.88,-24.51 74.88,-59.18 0,-34.1 -19.1,-59.51 -73.99,-59.51l-145.51 -0.64 0 119.33 144.61 0zm-144.61 -182.88l136.7 0c45.41,0 62.79,-22.71 62.79,-52.43 0,-29.52 -18.4,-52.17 -63.56,-52.17l-135.92 0 0 104.6zm141.07 -178.84c101.9,0 144.68,46.32 144.68,115.99 0,41.75 -16.59,76.68 -61.04,92.37 54.87,12.23 81.96,50.57 81.96,100.94 0,86.26 -49.66,126.4 -164.62,126.4l-229.15 0 0 -435.7 228.18 0z"/>
   <path class="fil3" d="M10153.2 4461.36c0,82.6 63.62,139.34 135.87,139.34 72.43,0 136.83,-56.74 136.83,-139.34 0,-83.05 -64.4,-140.43 -136.83,-140.43 -72.24,0 -135.87,57.38 -135.87,140.43zm359.93 0c0,123.45 -100.29,222.9 -224.06,222.9 -123.64,0 -223.03,-99.45 -223.03,-222.9 0,-123.89 99.39,-224.18 223.03,-224.18 123.77,0 224.06,100.29 224.06,224.18z"/>
   <path class="fil3" d="M10742.59 4595.49l201.22 0 -100.99 -222.39 -100.22 222.39zm265.8 172.46l0 -88.97 -331.1 0 0 88.97 -87.17 0 0 -172.46 62.65 0 162.05 -352.21 55 0 161.91 352.21 62.92 0 0 172.46 -86.27 0z"/>
   <path class="fil3" d="M11567.23 4318.42l-52.3 56.47c-35.77,-37.44 -74.04,-53.07 -119.46,-53.07 -72.18,0 -135.87,56.48 -135.87,139.53 0,82.6 63.69,139.34 135.87,139.34 45.41,0 83.69,-16.53 119.46,-53.07l52.3 56.48c-40.98,48.82 -102.86,80.15 -171.76,80.15 -123.64,0 -223.03,-99.45 -223.03,-222.9 0,-123.89 99.39,-223.09 223.03,-223.09 68.9,0 130.78,31.32 171.76,80.16z"/>
   <polygon class="fil3" points="11894.66,4678.98 11807.56,4678.98 11807.56,4327.04 11660.37,4327.04 11660.37,4243.28 12042.81,4243.28 12042.81,4327.04 11894.66,4327.04 "/>
   <path class="fil3" d="M12383.44 4605c54.74,0 74.88,-24.51 74.88,-59.18 0,-34.1 -19.17,-59.51 -74.11,-59.51l-145.45 -0.64 0 119.33 144.68 0zm-144.68 -182.88l136.76 0c45.28,0 62.65,-22.71 62.65,-52.43 0,-29.52 -18.27,-52.17 -63.56,-52.17l-135.86 0 0 104.6zm141.07 -178.84c101.96,0 144.62,46.32 144.62,115.99 0,41.75 -16.47,76.68 -60.99,92.37 54.94,12.23 81.89,50.57 81.89,100.94 0,86.26 -49.66,126.4 -164.62,126.4l-229.15 0 0 -435.7 228.24 0z"/>
   <path class="fil3" d="M12739.69 4461.36c0,82.6 63.56,139.34 135.87,139.34 72.23,0 136.76,-56.74 136.76,-139.34 0,-83.05 -64.53,-140.43 -136.76,-140.43 -72.31,0 -135.87,57.38 -135.87,140.43zm359.73 0c0,123.45 -100.1,222.9 -223.86,222.9 -123.71,0 -223.03,-99.45 -223.03,-222.9 0,-123.89 99.33,-224.18 223.03,-224.18 123.76,0 223.86,100.29 223.86,224.18z"/>
   <path class="fil3" d="M13600.02 4461.36c0,82.6 64.53,139.34 136.77,139.34 72.3,0 135.92,-56.74 135.92,-139.34 0,-83.05 -63.62,-139.53 -135.92,-139.53 -72.24,0 -136.77,56.48 -136.77,139.53zm358.9 0c0,123.45 -91.48,223.8 -215.12,223.8 -58.41,0 -109.75,-29.72 -137.67,-72.18l0 226.5 -87.17 0 0 -596.2 59.31 0 5.15 80.35c32.23,-51.53 91.47,-85.37 160.37,-85.37 123.64,0 215.12,99.19 215.12,223.09z"/>
   <path class="fil3" d="M14161.04 4428.04l250.11 0 -10.48 -42.71c-18.27,-39.88 -57.45,-68.71 -111.55,-68.71 -73.98,0 -124.54,52.37 -128.08,111.42zm320.68 -67.87c16.53,36.54 18.33,90.52 7.78,123.71l-331.94 0c0,76.68 58.41,121.13 135.93,121.13 50.49,0 99.38,-14.03 140.24,-38.34l47.15 50.37c-47.92,36.8 -111.54,67.22 -187.39,67.22 -134.12,0 -225.6,-94.17 -225.6,-222.9 0,-123.89 85.37,-224.18 220.39,-224.18 94.11,0 161.27,47.21 193.43,122.99z"/>
   <path class="fil3" d="M14872.27 4565.77c-33.13,-51.27 -48.82,-68.77 -100.16,-68.77l-48.83 0 0 181.98 -87.1 0 0 -435.7 87.1 0 0 169.06 41.82 0c52.23,0 67.1,-17.44 100.16,-69.67l65.36 -99.39 96.69 0 -88.91 135.93c-24.38,35.89 -46.96,64.72 -70.57,74.23 27.99,8.62 51.46,37.44 76.68,76.68l97.72 148.86 -96.75 0 -73.2 -113.21z"/>
   <polygon class="fil3" points="15216.75,4678.98 15124.38,4678.98 15325.59,4243.28 15379.69,4243.28 15580.92,4678.98 15489.44,4678.98 15352.68,4373.1 "/>
   <path class="fil3" d="M16002.98 4461.36c0,-83.05 -64.45,-140.43 -136.76,-140.43 -72.37,0 -135.92,57.38 -135.92,140.43 0,82.6 63.56,139.34 135.92,139.34 72.31,0 136.76,-56.74 136.76,-139.34zm20.91 217.62l-5.21 -80.09c-32.17,51.27 -91.48,85.37 -160.38,85.37 -123.64,0 -215.12,-99.45 -215.12,-222.9 0,-123.89 91.48,-224.18 215.12,-224.18 68.9,0 128.21,34.93 160.38,86.46l5.21 -80.35 59.24 0 0 435.7 -59.24 0z"/>
   <polygon class="fil3" points="16614.37,4678.98 16614.37,4386.29 16473.22,4547.63 16332.02,4386.29 16332.02,4678.98 16244.99,4678.98 16244.99,4243.28 16299.86,4243.28 16473.22,4442.06 16646.66,4243.28 16701.53,4243.28 16701.53,4678.98 "/>
   <path class="fil3" d="M17302.05 4678.98l0 -435.7 87.17 0 0 435.7 -87.17 0zm-216.09 -80.99c62.73,0 81.06,-32.23 81.06,-70.57 0,-37.44 -18.33,-69.67 -81.06,-69.67l-135.09 0 0 140.24 135.09 0zm-9.52 -221.29c143.65,0 177.61,83.56 177.61,150.72 0,68.06 -33.96,151.55 -177.61,151.55l-212.67 0 0 -435.7 87.1 0 0 133.43 125.57 0z"/>
  </g>
 </g>
</svg>
