<svg width="480" height="293" viewBox="0 0 480 293" fill="none" xmlns="http://www.w3.org/2000/svg">
<g clip-path="url(#clip0)">
<path d="M93.4704 275.659C89.0398 275.659 88.2617 274.054 88.1664 269.365L87.3882 117.318L60.5822 138.457L60.0899 137.853C59.8676 137.567 59.5023 137.106 58.9783 136.455C55.2781 131.766 44.019 117.492 17.2923 87.261L16.8477 86.7524L17.2764 86.2279C62.2179 30.7083 102.808 2.24113 137.967 1.60535L137.999 3.1948C103.443 3.81469 63.393 31.9003 18.9439 86.7047C45.3688 116.618 56.5486 130.796 60.2328 135.469C60.471 135.771 60.6616 136.025 60.8363 136.232L86.9912 115.601L87.3882 116.094V114.806L87.4041 114.711C96.0589 78.7257 114.004 41.8503 137.935 10.856L139.19 11.8255C115.417 42.6133 97.5676 79.2502 88.9604 114.981L89.7544 269.333C89.8338 273.561 90.3261 274.101 93.6769 274.054L288.545 272.878C291.848 272.401 292.07 271.606 292.086 271.447C294.024 168.959 290.26 123.548 289.148 117C280.589 83.0172 266.455 48.6055 245.938 11.8573L247.319 11.0785C267.9 47.9538 282.097 82.4927 290.689 116.666C291.816 123.31 295.612 168.864 293.674 271.526C293.515 273.561 290.736 274.181 288.656 274.467L93.6927 275.659C93.6133 275.659 93.5498 275.659 93.4704 275.659Z" fill="black"/>
<path fill-rule="evenodd" clip-rule="evenodd" d="M17.9151 86.7207C46.4522 120.465 60.7286 137.345 60.7286 137.345C60.7286 137.345 78.8164 161.679 115.008 210.348C116.723 214.29 116.659 217.056 114.817 218.63C114.817 218.63 106.162 228.007 88.8686 246.747C85.1526 248.384 81.8654 248.4 78.991 246.795C47.8496 213.241 21.8058 182.835 0.84375 155.576C3.68634 134.833 9.37151 111.882 17.9151 86.7207Z" fill="white"/>
<path d="M83.5466 248.781C81.7839 248.781 80.1323 248.352 78.5919 247.494L78.4014 247.335C47.4029 213.925 21.0891 183.216 0.206445 156.069L0 155.798L0.0476411 155.465C2.89023 134.77 8.63892 111.548 17.1508 86.4664L17.5954 85.1312L61.3141 136.82L115.72 210.015C117.578 214.306 117.451 217.39 115.307 219.218L89.3112 247.399L89.1524 247.462C87.1991 248.336 85.3093 248.781 83.5466 248.781ZM79.4654 246.159C82.0539 247.558 84.9759 247.542 88.3743 246.079L114.212 218.073C115.816 216.706 115.816 214.259 114.291 210.73L60.0754 137.822L18.2148 88.3101C10.0205 112.661 4.46238 135.199 1.66744 155.353C22.4548 182.39 48.6416 212.923 79.4654 246.159Z" fill="black"/>
<path d="M289.197 293L93.9474 292.603L93.5822 274.88L95.1702 274.848L95.5037 291.013L287.624 291.411L287.751 273.688L289.339 273.704L289.197 293ZM101.586 260.353L101.157 260.051C95.9166 256.315 91.5653 252.215 88.2305 247.875L89.485 246.906C92.6452 251.007 96.7265 254.885 101.649 258.445C110.495 252.835 117.959 245.062 126.343 235.176C124.327 231.615 120.229 226.704 114.147 220.569L115.275 219.44C121.738 225.957 126.026 231.154 128.011 234.89L128.265 235.366L127.916 235.78C119.15 246.159 111.384 254.265 102.046 260.082L101.586 260.353ZM452.78 258.398L437.344 245.142C436.233 245.539 435.121 245.396 434.216 245.094L434.041 245.03L433.914 244.903C373.267 183.757 321.989 138.537 289.514 117.54L290.372 116.205C322.911 137.233 374.236 182.485 434.899 243.632C435.995 243.965 437.535 244.013 438.901 241.581L439.06 241.375L458.735 223.445L459.799 224.622L440.203 242.471C439.758 243.25 439.266 243.838 438.774 244.267L452.748 256.268L473.885 237.035L474.949 238.212L452.78 258.398ZM190.548 52.9288C184.529 52.9288 178.447 51.546 172.349 48.7804C149.116 38.2264 136.634 21.7437 137.174 2.38418L137.19 1.84377L137.698 1.65303C140.81 0.52452 144.59 0.158945 148.925 0.572204L149.084 0.603993C174.89 8.742 203.284 8.66253 233.472 0.397364L234.949 0L234.457 1.43051C224.436 30.2791 208.334 43.7259 186.578 41.3576C167.426 39.2754 153.324 25.6697 145.813 2.00271C143.24 1.98682 140.81 2.30471 138.762 2.97228C138.476 21.41 150.624 37.1614 173.016 47.334C192.517 56.1872 211.939 50.195 229.169 30.0089L230.376 31.042C217.973 45.5538 204.459 52.9288 190.548 52.9288ZM147.496 2.0504C154.849 24.7478 168.41 37.7813 186.736 39.7681C207.301 41.9934 222.674 29.4049 232.44 2.3206C202.537 10.2679 174.366 10.2043 148.703 2.14576C148.29 2.11397 147.893 2.08219 147.496 2.0504Z" fill="black"/>
<path d="M478.775 231.949L438.277 182.501L439.5 181.5L479.998 230.948L478.775 231.949ZM422.214 158.422C359.089 69.7303 297.866 16.1012 249.352 6.91411L249.653 5.35645C298.565 14.623 360.137 68.4747 423.5 157.5L422.214 158.422Z" fill="#E25D23"/>
<path d="M437.469 164.612C439.092 166.508 439.76 168.716 439.473 171.236L437.195 170.974C437.334 169.191 436.805 167.601 435.609 166.203C434.517 164.927 433.152 164.231 431.516 164.115C429.902 164.001 428.426 164.516 427.089 165.66C425.74 166.815 424.997 168.198 424.86 169.81C424.734 171.435 425.217 172.885 426.309 174.161C427.526 175.584 429.015 176.352 430.777 176.466L430.684 178.757C428.15 178.651 426.072 177.649 424.449 175.753C422.909 173.954 422.231 171.881 422.413 169.535C422.608 167.178 423.605 165.23 425.404 163.691C427.203 162.151 429.276 161.473 431.622 161.655C433.98 161.827 435.929 162.813 437.469 164.612Z" fill="black"/>
<path d="M251 1L245 6.20107L251 11L251 1Z" fill="#E65420"/>
<path d="M96 113L90 118.201L96 123L96 113Z" fill="#E65420"/>
<path d="M281 113L287 118.201L281 123L281 113Z" fill="#E65420"/>
<path d="M234 284L239.201 290L244 284H234Z" fill="#E65420"/>
<path d="M234 6L239.201 0L244 6H234Z" fill="#E65420"/>
<path d="M239 5L239 211" stroke="#E65420" stroke-width="2" stroke-miterlimit="10"/>
<path d="M239 240L239 285" stroke="#E65420" stroke-width="2" stroke-miterlimit="10"/>
<path d="M180 118H93" stroke="#E65420" stroke-width="2" stroke-miterlimit="10"/>
<path d="M282 118H201" stroke="#E65420" stroke-width="2" stroke-miterlimit="10"/>
<path d="M188.448 122.232L186.912 126H184.056L190.992 109.2H192.504L199.368 126H196.512L195 122.232H188.448ZM191.736 113.928L189.36 119.784H194.112L191.736 113.928Z" fill="black"/>
<path d="M232.616 217.2H238.904C239.816 217.2 240.624 217.296 241.328 217.488C242.032 217.68 242.576 217.928 242.96 218.232C243.36 218.52 243.68 218.872 243.92 219.288C244.176 219.688 244.344 220.072 244.424 220.44C244.504 220.808 244.544 221.192 244.544 221.592C244.544 223.432 243.744 224.64 242.144 225.216C243.136 225.424 243.912 225.888 244.472 226.608C245.032 227.328 245.312 228.216 245.312 229.272C245.312 232.424 243.296 234 239.264 234H232.616V217.2ZM235.208 219.648V224.208H239.168C241.104 224.208 242.072 223.448 242.072 221.928C242.072 220.408 241.104 219.648 239.168 219.648H235.208ZM235.208 226.44V231.552H239.792C241.824 231.552 242.84 230.704 242.84 229.008C242.84 228.24 242.584 227.624 242.072 227.16C241.576 226.68 240.816 226.44 239.792 226.44H235.208Z" fill="black"/>
<path d="M481.57 226L481.556 233.94L474.002 232.536L481.57 226Z" fill="#E65420"/>
</g>
<defs>
<clipPath id="clip0">
<rect width="480" height="293" fill="white"/>
</clipPath>
</defs>
</svg>
