<?xml version="1.0" encoding="utf-8"?>
<!-- Generator: Adobe Illustrator 24.1.2, SVG Export Plug-In . SVG Version: 6.00 Build 0)  -->
<svg version="1.1" id="Слой_1" xmlns="http://www.w3.org/2000/svg" xmlns:xlink="http://www.w3.org/1999/xlink" x="0px" y="0px"
	 viewBox="0 0 516 456" style="enable-background:new 0 0 516 456;" xml:space="preserve">
<style type="text/css">
	.st0{fill:#FFFFFF;stroke:#77569F;stroke-miterlimit:10;stroke-dasharray:2.94,2.94;}
	.st1{fill:#F8F7F7;stroke:#2F80ED;stroke-width:0.75;stroke-miterlimit:10;}
	.st2{fill:#F8F7F7;stroke:#000000;stroke-width:0.75;stroke-miterlimit:10;}
	.st3{fill:#FFFFFF;stroke:#000000;stroke-width:2;stroke-miterlimit:10;}
	.st4{fill:#FFFFFF;}
	.st5{fill:none;stroke:#77569F;stroke-width:0.75;stroke-miterlimit:10;}
	.st6{fill:none;stroke:#77569F;stroke-width:0.75;stroke-miterlimit:10;stroke-dasharray:2.98,2.98;}
	.st7{fill:none;stroke:#77569F;stroke-miterlimit:10;stroke-dasharray:2.99,2.99;}
	.st8{fill:none;stroke:#77569F;stroke-miterlimit:10;stroke-dasharray:2.98,2.98;}
	.st9{fill:none;stroke:#E65420;stroke-width:2;stroke-miterlimit:10;}
	.st10{fill:none;stroke:#E65420;stroke-width:0.75;stroke-miterlimit:10;}
	.st11{fill:#E6551F;}
	.st12{fill:#E65420;}
	.st13{fill:none;stroke:#E65420;stroke-miterlimit:10;}
	.st14{fill:none;stroke:#E65420;stroke-miterlimit:10;stroke-dasharray:2.96,2.96;}
	.st15{fill:none;stroke:#E65420;stroke-miterlimit:10;stroke-dasharray:3.05,3.05;}
	.st16{fill:#77569F;}
	.st17{fill:none;stroke:#77569F;stroke-miterlimit:10;}
	.st18{fill:none;stroke:#E65420;stroke-miterlimit:10;stroke-dasharray:3.01,3.01;}
	.st19{fill:none;stroke:#E65420;stroke-width:0.75;stroke-miterlimit:10;stroke-dasharray:2.96,2.96;}
	.st20{fill:#2F80ED;}
	.st21{fill:#2B2A29;}
	.st22{fill:#FFFFFF;stroke:#E25D23;stroke-width:2;}
	.st23{fill:none;stroke:#000000;stroke-width:2;}
	.st24{fill:none;stroke:#E25D23;}
	.st25{fill:#F8F7F7;}
	.st26{fill:none;stroke:#77569F;stroke-miterlimit:10;stroke-dasharray:2.94,2.94;}
	.st27{fill:#E25D23;}
	.st28{fill:none;stroke:#E25D23;stroke-miterlimit:10;}
	.st29{fill:none;stroke:#E25D23;stroke-miterlimit:10;stroke-dasharray:2.94,2.94;}
</style>
<path d="M296.8,443.9h2.6c1.1,0,1.9,0.3,2.5,0.8s0.8,1.3,0.8,2.2c0,1-0.3,1.7-0.8,2.2c-0.5,0.5-1.4,0.8-2.5,0.8h-4.2v-9.8h6.4v1.4
	h-4.9V443.9z M296.8,448.6h2.7c0.7,0,1.1-0.1,1.4-0.4c0.3-0.3,0.4-0.7,0.4-1.2c0-1.1-0.6-1.6-1.9-1.6h-2.7V448.6z M307.9,442.9
	c0.7,0,1.4,0.2,1.9,0.5c0.5,0.3,0.9,0.8,1.2,1.5c0.1,0.3,0.2,0.6,0.2,1c0,0.4,0,0.7-0.1,1h-5.3c0,0.6,0.2,1.1,0.6,1.4
	c0.4,0.3,0.9,0.5,1.6,0.5c0.8,0,1.6-0.2,2.3-0.6l0.8,0.8c-0.9,0.7-1.9,1.1-3,1.1c-1.1,0-1.9-0.3-2.6-1s-1-1.5-1-2.6
	c0-1,0.3-1.9,1-2.6C306,443.2,306.9,442.9,307.9,442.9z M308,444.2c-0.6,0-1.1,0.2-1.4,0.5c-0.4,0.3-0.6,0.8-0.6,1.3h4
	c0-0.2-0.1-0.5-0.2-0.7c-0.1-0.3-0.4-0.6-0.7-0.8C308.7,444.3,308.4,444.2,308,444.2z M317.7,446.3c0.9,0.2,1.3,0.7,1.3,1.6
	c0,0.7-0.3,1.2-0.8,1.6c-0.5,0.4-1.2,0.6-2.1,0.6H316c-0.7,0-1.3-0.1-1.9-0.4c-0.6-0.3-1-0.6-1.2-1l0.8-0.8c0.2,0.3,0.6,0.5,1,0.7
	c0.4,0.2,0.9,0.3,1.3,0.3h0.2c0.4,0,0.8-0.1,1.1-0.3c0.3-0.2,0.4-0.4,0.4-0.8c0-0.6-0.4-0.9-1.2-1h-1.2V446h1c0.7,0,1-0.3,1-0.8
	c0-0.3-0.1-0.5-0.4-0.7c-0.2-0.2-0.5-0.2-0.9-0.2h-0.1c-0.8,0-1.4,0.3-2,0.8l-0.7-0.8c0.3-0.4,0.7-0.7,1.2-0.9
	c0.5-0.2,1.1-0.4,1.6-0.4h0.1c0.7,0,1.3,0.2,1.8,0.5c0.5,0.3,0.7,0.8,0.7,1.4C318.7,445.6,318.4,446.1,317.7,446.3z M324.4,442.9
	c1,0,1.8,0.4,2.5,1.1c0.7,0.7,1,1.5,1,2.5s-0.4,1.8-1,2.5c-0.7,0.7-1.5,1.1-2.5,1.1c-1,0-1.8-0.4-2.5-1.1c-0.7-0.7-1-1.5-1-2.5
	c0-1,0.4-1.8,1.1-2.5C322.5,443.3,323.4,442.9,324.4,442.9z M325.9,444.9c-0.4-0.4-0.9-0.6-1.5-0.6c-0.6,0-1.1,0.2-1.5,0.6
	c-0.4,0.4-0.6,1-0.6,1.6s0.2,1.2,0.6,1.6c0.4,0.4,0.9,0.6,1.5,0.6c0.6,0,1.1-0.2,1.5-0.6c0.4-0.4,0.7-1,0.7-1.6
	C326.6,445.8,326.3,445.3,325.9,444.9z M336.5,450h-1.4v-5.7h-3.7v5.7H330v-7h6.5V450z M345.6,450h-1l-0.1-1.3
	c-0.3,0.4-0.6,0.8-1.1,1c-0.5,0.2-1,0.4-1.5,0.4c-1,0-1.8-0.3-2.5-1c-0.7-0.7-1-1.5-1-2.5c0-1,0.3-1.9,1-2.5c0.7-0.7,1.5-1,2.5-1
	c0.5,0,1,0.1,1.5,0.4c0.5,0.3,0.8,0.6,1.1,1l0.1-1.3h1V450z M340.6,448.1c0.4,0.4,0.9,0.6,1.5,0.6c0.6,0,1.1-0.2,1.5-0.6
	c0.4-0.4,0.7-1,0.7-1.6c0-0.7-0.2-1.2-0.7-1.6c-0.4-0.4-0.9-0.6-1.5-0.6c-0.6,0-1.1,0.2-1.5,0.6c-0.4,0.4-0.6,1-0.6,1.6
	S340.2,447.7,340.6,448.1z M351.3,442.9c1.1,0,2,0.4,2.8,1.3l-0.8,0.9c-0.5-0.6-1.2-0.9-1.9-0.9c-0.6,0-1.1,0.2-1.5,0.6
	c-0.4,0.4-0.6,1-0.6,1.6s0.2,1.2,0.6,1.6c0.4,0.4,0.9,0.6,1.5,0.6c0.7,0,1.4-0.3,1.9-0.9l0.8,0.9c-0.7,0.9-1.6,1.3-2.8,1.3
	c-1,0-1.8-0.4-2.5-1.1c-0.7-0.7-1-1.5-1-2.5s0.3-1.8,1-2.5C349.5,443.3,350.3,442.9,351.3,442.9z M362.6,450h-1.4v-2.9h-3.7v2.9
	h-1.4v-7h1.4v2.8h3.7V443h1.4V450z M368.2,442.9c1,0,1.8,0.4,2.5,1.1c0.7,0.7,1.1,1.5,1.1,2.5s-0.4,1.8-1.1,2.5
	c-0.7,0.7-1.5,1.1-2.5,1.1c-1,0-1.8-0.4-2.5-1.1c-0.7-0.7-1-1.5-1-2.5c0-1,0.4-1.8,1-2.5C366.4,443.3,367.2,442.9,368.2,442.9z
	 M369.7,444.9c-0.4-0.4-0.9-0.6-1.5-0.6c-0.6,0-1.1,0.2-1.5,0.6c-0.4,0.4-0.6,1-0.6,1.6s0.2,1.2,0.6,1.6c0.4,0.4,0.9,0.6,1.5,0.6
	c0.6,0,1.1-0.2,1.5-0.6c0.4-0.4,0.7-1,0.7-1.6C370.4,445.8,370.2,445.3,369.7,444.9z M377,442.9c0.7,0,1.4,0.2,1.9,0.5
	c0.5,0.3,0.9,0.8,1.2,1.5c0.1,0.3,0.2,0.6,0.2,1c0,0.4,0,0.7-0.1,1h-5.3c0,0.6,0.2,1.1,0.6,1.4c0.4,0.3,0.9,0.5,1.6,0.5
	c0.8,0,1.6-0.2,2.3-0.6l0.8,0.8c-0.9,0.7-1.9,1.1-3,1.1c-1.1,0-1.9-0.3-2.6-1s-1-1.5-1-2.6c0-1,0.3-1.9,1-2.6
	C375.1,443.2,375.9,442.9,377,442.9z M377,444.2c-0.6,0-1.1,0.2-1.4,0.5c-0.4,0.3-0.6,0.8-0.6,1.3h4c0-0.2-0.1-0.5-0.2-0.7
	c-0.1-0.3-0.4-0.6-0.7-0.8C377.8,444.3,377.4,444.2,377,444.2z M393.6,450h-1.4v-5.7h-3.7v5.7h-1.4v-7h6.5V450z M399.2,442.9
	c1,0,1.8,0.4,2.5,1.1c0.7,0.7,1.1,1.5,1.1,2.5s-0.4,1.8-1.1,2.5c-0.7,0.7-1.5,1.1-2.5,1.1c-1,0-1.8-0.4-2.5-1.1
	c-0.7-0.7-1-1.5-1-2.5c0-1,0.4-1.8,1-2.5C397.4,443.3,398.2,442.9,399.2,442.9z M400.8,444.9c-0.4-0.4-0.9-0.6-1.5-0.6
	c-0.6,0-1.1,0.2-1.5,0.6c-0.4,0.4-0.6,1-0.6,1.6s0.2,1.2,0.6,1.6c0.4,0.4,0.9,0.6,1.5,0.6c0.6,0,1.1-0.2,1.5-0.6
	c0.4-0.4,0.7-1,0.7-1.6C401.4,445.8,401.2,445.3,400.8,444.9z M407.4,445.1l-2.2,4.9h-1.5l3.2-7h0.9l3.2,7h-1.5L407.4,445.1z
	 M415.5,442.9c0.7,0,1.4,0.2,1.9,0.5s0.9,0.8,1.2,1.5c0.1,0.3,0.2,0.6,0.2,1c0,0.4,0,0.7-0.1,1h-5.3c0,0.6,0.2,1.1,0.6,1.4
	c0.4,0.3,0.9,0.5,1.6,0.5c0.8,0,1.6-0.2,2.3-0.6l0.8,0.8c-0.9,0.7-1.9,1.1-3,1.1c-1.1,0-1.9-0.3-2.6-1s-1-1.5-1-2.6
	c0-1,0.3-1.9,1-2.6C413.6,443.2,414.4,442.9,415.5,442.9z M415.5,444.2c-0.6,0-1.1,0.2-1.4,0.5c-0.4,0.3-0.6,0.8-0.6,1.3h4
	c0-0.2-0.1-0.5-0.2-0.7c-0.1-0.3-0.4-0.6-0.7-0.8C416.3,444.3,415.9,444.2,415.5,444.2z M428.7,446.4h-3.5v-0.9h3.5V446.4z
	 M441.4,441.8h-4.5v2.5c0.5-0.4,1.3-0.6,2.2-0.6c1,0,1.8,0.3,2.3,0.9c0.6,0.6,0.8,1.3,0.8,2.3c0,0.9-0.3,1.6-0.9,2.3
	c-0.6,0.6-1.5,0.9-2.6,1h-0.1c-1.6,0-2.9-0.6-3.8-1.9l1-0.9c0.4,0.5,0.9,0.9,1.3,1.1c0.4,0.2,1,0.3,1.5,0.3h0.1
	c0.6,0,1.1-0.2,1.5-0.5c0.4-0.3,0.6-0.8,0.6-1.4c0-0.6-0.2-1.1-0.6-1.4c-0.4-0.3-0.9-0.5-1.6-0.5c-0.5,0-0.9,0.1-1.3,0.3
	c-0.4,0.2-0.8,0.4-1,0.6l-0.7-0.6v-4.7h5.9V441.8z M456.3,450h-1.4v-4.7l-2.3,2.6l-2.3-2.6v4.7h-1.4v-7h0.9l2.8,3.2l2.8-3.2h0.9V450
	z M466.1,450h-1.4v-4.7l-2.3,2.6l-2.3-2.6v4.7h-1.4v-7h0.9l2.8,3.2l2.8-3.2h0.9V450z"/>
<path d="M99.8,440.2h3.7c0.5,0,1,0.1,1.4,0.2c0.4,0.1,0.7,0.3,1,0.4c0.2,0.2,0.4,0.4,0.6,0.6c0.1,0.2,0.2,0.5,0.3,0.7
	c0,0.2,0.1,0.4,0.1,0.7c0,1.1-0.5,1.8-1.4,2.1c0.6,0.1,1,0.4,1.4,0.8c0.3,0.4,0.5,0.9,0.5,1.6c0,1.8-1.2,2.8-3.5,2.8h-3.9V440.2z
	 M101.3,441.6v2.7h2.3c1.1,0,1.7-0.4,1.7-1.3s-0.6-1.3-1.7-1.3H101.3z M101.3,445.6v3h2.7c1.2,0,1.8-0.5,1.8-1.5
	c0-0.4-0.2-0.8-0.4-1.1c-0.3-0.3-0.7-0.4-1.3-0.4H101.3z M110.6,445.1h2c0.6,0,1,0.1,1.4,0.2c0.4,0.1,0.7,0.3,0.9,0.6
	c0.2,0.3,0.3,0.5,0.4,0.8s0.1,0.5,0.1,0.8c0,0.3,0,0.6-0.1,0.9c-0.1,0.3-0.2,0.5-0.4,0.8c-0.2,0.3-0.5,0.5-0.9,0.6
	c-0.4,0.1-0.9,0.2-1.4,0.2h-3.4v-7h1.4V445.1z M117.6,450h-1.4v-7h1.4V450z M110.6,448.7h2.2c0.9,0,1.3-0.4,1.3-1.1
	c0-0.7-0.4-1.1-1.3-1.1h-2.2V448.7z M122.9,445.1l-2.2,4.9h-1.5l3.2-7h0.9l3.2,7h-1.5L122.9,445.1z M131,442.9
	c0.7,0,1.4,0.2,1.9,0.5c0.5,0.3,0.9,0.8,1.2,1.5c0.1,0.3,0.2,0.6,0.2,1c0,0.4,0,0.7-0.1,1h-5.3c0,0.6,0.2,1.1,0.6,1.4
	c0.4,0.3,0.9,0.5,1.6,0.5c0.8,0,1.6-0.2,2.3-0.6l0.8,0.8c-0.9,0.7-1.9,1.1-3,1.1c-1.1,0-1.9-0.3-2.6-1s-1-1.5-1-2.6
	c0-1,0.3-1.9,1-2.6C129.1,443.2,129.9,442.9,131,442.9z M131,444.2c-0.6,0-1.1,0.2-1.4,0.5c-0.4,0.3-0.6,0.8-0.6,1.3h4
	c0-0.2-0.1-0.5-0.2-0.7c-0.1-0.3-0.4-0.6-0.7-0.8C131.8,444.3,131.4,444.2,131,444.2z M139.4,444.3v5.7H138v-5.7h-2.4V443h6.1v1.3
	H139.4z M144.9,445.1h2c0.6,0,1,0.1,1.4,0.2c0.4,0.1,0.7,0.3,0.9,0.6c0.2,0.3,0.3,0.5,0.4,0.8c0.1,0.3,0.1,0.5,0.1,0.8
	c0,0.3,0,0.6-0.1,0.9c-0.1,0.3-0.2,0.5-0.4,0.8c-0.2,0.3-0.5,0.5-0.9,0.6c-0.4,0.1-0.9,0.2-1.4,0.2h-3.4v-7h1.4V445.1z M151.9,450
	h-1.4v-7h1.4V450z M144.9,448.7h2.2c0.9,0,1.3-0.4,1.3-1.1c0-0.7-0.4-1.1-1.3-1.1h-2.2V448.7z M162,446.4h-3.5v-0.9h3.5V446.4z
	 M175.4,441.3l-3.2,3c0.2,0,0.5-0.1,0.9-0.1c0.9,0.1,1.5,0.4,2,0.9c0.5,0.5,0.7,1.1,0.7,1.9c0,0.9-0.3,1.7-0.9,2.3
	c-0.6,0.6-1.5,0.9-2.6,0.9h-0.1c-1.7,0-3-0.6-3.9-1.9l1-0.9c0.8,0.9,1.8,1.4,2.9,1.4h0.1c0.6,0,1.1-0.2,1.5-0.6
	c0.4-0.4,0.6-0.8,0.6-1.4c0-1.2-0.7-1.7-2.2-1.7c-0.5,0-1,0.1-1.5,0.4l-0.7-0.6l3.2-3h-4v-1.4h6.3V441.3z M189.7,450h-1.4v-4.7
	l-2.3,2.6l-2.3-2.6v4.7h-1.4v-7h0.9l2.8,3.2l2.8-3.2h0.9V450z M199.5,450h-1.4v-4.7l-2.3,2.6l-2.3-2.6v4.7h-1.4v-7h0.9l2.8,3.2
	l2.8-3.2h0.9V450z"/>
<rect x="262" y="435" class="st0" width="19.6" height="19.6"/>
<rect x="67" y="435" class="st1" width="19.6" height="19.6"/>
<path class="st2" d="M252.8,85.5H58.7v250.6h194.1V85.5z"/>
<path class="st3" d="M244.3,92.6H67v235.2h177.3V92.6z"/>
<path class="st4" d="M218.4,98.9H75.3v220.6h143.1V98.9z"/>
<path class="st5" d="M218.4,316.7v2.8h-2.8"/>
<path class="st6" d="M211.1,319.5H81.8"/>
<path class="st5" d="M78.1,319.5h-2.8v-2.8"/>
<path class="st7" d="M75.3,311.2V104.4"/>
<path class="st5" d="M75.3,101.7v-2.8h2.8"/>
<path class="st8" d="M83.6,98.9h129.3"/>
<path class="st5" d="M215.6,98.9h2.8v2.8"/>
<path class="st7" d="M218.4,107.2V314"/>
<path class="st9" d="M66.1,92.6H30.9"/>
<path class="st9" d="M68.8,327.8H31.8"/>
<path class="st10" d="M67,336H0"/>
<path class="st9" d="M67,363.2V328"/>
<path class="st10" d="M58.7,385v-58.1"/>
<path class="st10" d="M252.8,385v-48.2"/>
<path class="st10" d="M237.8,349.5H73.3"/>
<path class="st11" d="M73.4,346.1l-4.4,3.6l4.4,3.3L73.4,346.1z"/>
<path class="st11" d="M237.8,346.1l4.4,3.6l-4.4,3.3L237.8,346.1z"/>
<path class="st10" d="M247.4,372.9H64.1"/>
<path class="st11" d="M64.2,369.6l-4.4,3.6l4.4,3.3L64.2,369.6z"/>
<path class="st11" d="M247.4,369.6l4.4,3.6l-4.4,3.3L247.4,369.6z"/>
<path class="st10" d="M45.8,98.9V322"/>
<path class="st12" d="M42.5,321.5l3.6,4.4l3.3-4.4L42.5,321.5z"/>
<path class="st12" d="M42.5,98.9l3.6-4.4l3.3,4.4H42.5z"/>
<path class="st12" d="M16,331.3l3.6,4.4l3.3-4.4H16z"/>
<path class="st10" d="M19.5,90.9v240.4"/>
<path class="st12" d="M16.1,90.9l3.6-4.4l3.3,4.4L16.1,90.9z"/>
<path class="st13" d="M228.5,67v2.8"/>
<path class="st14" d="M228.5,75.2V324"/>
<path class="st10" d="M228.5,326.8v2.8"/>
<path class="st13" d="M244.3,67v2.8"/>
<path class="st15" d="M244.3,75.4v279"/>
<path class="st10" d="M244.3,357.3v2.8"/>
<path class="st16" d="M236.1,105.2c2.2,0,4-1.8,4-4s-1.8-4-4-4s-4,1.8-4,4S233.8,105.2,236.1,105.2z"/>
<path class="st16" d="M236.1,127c2.2,0,4-1.8,4-4c0-2.2-1.8-4-4-4s-4,1.8-4,4C232,125.2,233.8,127,236.1,127z"/>
<path class="st16" d="M236.1,148.9c2.2,0,4-1.8,4-4c0-2.2-1.8-4-4-4s-4,1.8-4,4C232,147.1,233.8,148.9,236.1,148.9z"/>
<path class="st16" d="M236.1,170.7c2.2,0,4-1.8,4-4c0-2.2-1.8-4-4-4s-4,1.8-4,4C232,168.9,233.8,170.7,236.1,170.7z"/>
<path class="st16" d="M236.1,192.7c2.2,0,4-1.8,4-4c0-2.2-1.8-4-4-4s-4,1.8-4,4C232,190.9,233.8,192.7,236.1,192.7z"/>
<path class="st16" d="M236.1,214.5c2.2,0,4-1.8,4-4c0-2.2-1.8-4-4-4s-4,1.8-4,4C232,212.7,233.8,214.5,236.1,214.5z"/>
<path class="st16" d="M236.1,236.4c2.2,0,4-1.8,4-4c0-2.2-1.8-4-4-4s-4,1.8-4,4C232,234.6,233.8,236.4,236.1,236.4z"/>
<path class="st16" d="M236.1,258.3c2.2,0,4-1.8,4-4c0-2.2-1.8-4-4-4s-4,1.8-4,4C232,256.5,233.8,258.3,236.1,258.3z"/>
<path class="st16" d="M236.1,280.1c2.2,0,4-1.8,4-4s-1.8-4-4-4s-4,1.8-4,4S233.8,280.1,236.1,280.1z"/>
<path class="st16" d="M236.1,301.9c2.2,0,4-1.8,4-4c0-2.2-1.8-4-4-4s-4,1.8-4,4C232,300.1,233.8,301.9,236.1,301.9z"/>
<path class="st16" d="M236.1,323.9c2.2,0,4-1.8,4-4s-1.8-4-4-4s-4,1.8-4,4S233.8,323.9,236.1,323.9z"/>
<path class="st2" d="M262,335.6h194.1V85H262V335.6z"/>
<path class="st3" d="M270.7,327.8H448V92.6H270.7V327.8z"/>
<path class="st4" d="M439.7,98.9H296.6v220.6h143.1V98.9z"/>
<path class="st17" d="M296.6,316.7v2.8h2.8"/>
<path class="st8" d="M303.9,319.5h129.3"/>
<path class="st17" d="M436.9,319.5h2.8v-2.8"/>
<path class="st7" d="M439.7,311.2V104.4"/>
<path class="st17" d="M439.7,101.7v-2.8h-2.8"/>
<path class="st8" d="M431.4,98.9H302.1"/>
<path class="st17" d="M299.4,98.9h-2.8v2.8"/>
<path class="st7" d="M296.6,107.2V314"/>
<path class="st9" d="M448.9,92.6h35.2"/>
<path class="st9" d="M446.2,327.8h37.1"/>
<path class="st10" d="M448,336h67"/>
<path class="st10" d="M457,85.5h58"/>
<path class="st10" d="M0,85.5h58"/>
<path class="st9" d="M448,363.2V328"/>
<path class="st10" d="M456.3,385v-58.1"/>
<path class="st10" d="M262.2,385v-48.2"/>
<path class="st10" d="M277.2,349.5h164.5"/>
<path class="st11" d="M441.6,346.1l4.4,3.6l-4.4,3.3V346.1z"/>
<path class="st11" d="M277.2,346.1l-4.4,3.6l4.4,3.3V346.1z"/>
<path class="st10" d="M267.6,372.9h183.3"/>
<path class="st11" d="M450.8,369.6l4.4,3.6l-4.4,3.3V369.6z"/>
<path class="st11" d="M267.6,369.6l-4.4,3.6l4.4,3.3V369.6z"/>
<path class="st10" d="M469.1,98.9V322"/>
<path class="st12" d="M472.5,321.5l-3.6,4.4l-3.3-4.4L472.5,321.5z"/>
<path class="st12" d="M472.5,98.9l-3.6-4.4l-3.3,4.4H472.5z"/>
<path class="st12" d="M498.9,331.3l-3.6,4.4l-3.3-4.4H498.9z"/>
<path class="st10" d="M495.5,90.9v240.4"/>
<path class="st12" d="M498.8,90.9l-3.6-4.4l-3.3,4.4L498.8,90.9z"/>
<path class="st13" d="M286.5,86v2.8"/>
<path class="st18" d="M286.5,93.1V324"/>
<path class="st10" d="M286.5,325.8v2.8"/>
<path class="st13" d="M270.7,86v2.8"/>
<path class="st19" d="M270.7,95v259.5"/>
<path class="st10" d="M270.7,357.3v2.8"/>
<path class="st16" d="M278.9,105.2c2.2,0,4-1.8,4-4s-1.8-4-4-4s-4,1.8-4,4S276.7,105.2,278.9,105.2z"/>
<path class="st16" d="M278.9,127c2.2,0,4-1.8,4-4c0-2.2-1.8-4-4-4s-4,1.8-4,4C274.9,125.2,276.7,127,278.9,127z"/>
<path class="st16" d="M278.9,148.9c2.2,0,4-1.8,4-4c0-2.2-1.8-4-4-4s-4,1.8-4,4C274.9,147.1,276.7,148.9,278.9,148.9z"/>
<path class="st16" d="M278.9,170.7c2.2,0,4-1.8,4-4c0-2.2-1.8-4-4-4s-4,1.8-4,4C274.9,168.9,276.7,170.7,278.9,170.7z"/>
<path class="st16" d="M278.9,192.7c2.2,0,4-1.8,4-4c0-2.2-1.8-4-4-4s-4,1.8-4,4C274.9,190.9,276.7,192.7,278.9,192.7z"/>
<path class="st16" d="M278.9,214.5c2.2,0,4-1.8,4-4c0-2.2-1.8-4-4-4s-4,1.8-4,4C274.9,212.7,276.7,214.5,278.9,214.5z"/>
<path class="st16" d="M278.9,236.4c2.2,0,4-1.8,4-4c0-2.2-1.8-4-4-4s-4,1.8-4,4C274.9,234.6,276.7,236.4,278.9,236.4z"/>
<path class="st16" d="M278.9,258.3c2.2,0,4-1.8,4-4c0-2.2-1.8-4-4-4s-4,1.8-4,4C274.9,256.5,276.7,258.3,278.9,258.3z"/>
<path class="st16" d="M278.9,280.1c2.2,0,4-1.8,4-4s-1.8-4-4-4s-4,1.8-4,4S276.7,280.1,278.9,280.1z"/>
<path class="st16" d="M278.9,301.9c2.2,0,4-1.8,4-4c0-2.2-1.8-4-4-4s-4,1.8-4,4C274.9,300.1,276.7,301.9,278.9,301.9z"/>
<path class="st16" d="M278.9,323.9c2.2,0,4-1.8,4-4s-1.8-4-4-4s-4,1.8-4,4S276.7,323.9,278.9,323.9z"/>
<path class="st20" d="M509.8,123.5v3.5c0,2.1-0.8,3.2-2.4,3.2c-1,0-1.7-0.5-2-1.5c-0.1,0.6-0.4,1.1-0.8,1.5
	c-0.4,0.4-0.9,0.5-1.5,0.5c-1.7,0-2.6-1.1-2.6-3.4v-3.9H509.8z M508.9,124.5h-3.1v2.5c0,1.4,0.5,2.1,1.5,2.1c0.5,0,0.8-0.1,1.1-0.4
	c0.3-0.3,0.4-0.8,0.4-1.6V124.5z M504.9,124.5h-3.4v3c0,1.4,0.6,2.2,1.7,2.2c0.5,0,0.9-0.2,1.2-0.5c0.3-0.4,0.5-0.9,0.5-1.6V124.5z
	 M505,133.8v2.4c0,1-0.2,1.7-0.7,2.1c-0.4,0.4-1,0.6-1.6,0.6c-0.3,0-0.6,0-0.8-0.1c-0.2-0.1-0.5-0.2-0.7-0.4
	c-0.2-0.2-0.4-0.5-0.5-0.9c-0.1-0.4-0.2-0.8-0.2-1.3v-3.4h6.6v1H505z M500.5,140.8v-1h6.6v1H500.5z M501.4,133.8v2.5
	c0,1.1,0.5,1.6,1.4,1.6c0.9,0,1.3-0.5,1.3-1.6v-2.5H501.4z M507.3,146.5c0,1.1-0.4,2-1.2,2.7l-0.6-0.6c0.6-0.6,0.9-1.3,0.9-2.1
	c0-0.7-0.2-1.3-0.7-1.8c-0.5-0.5-1.1-0.7-1.8-0.7s-1.3,0.2-1.8,0.7c-0.5,0.5-0.7,1.1-0.7,1.8c0,0.8,0.3,1.5,0.9,2.1l-0.6,0.6
	c-0.8-0.7-1.2-1.6-1.2-2.7c0-1,0.3-1.8,1-2.5c0.7-0.7,1.5-1,2.4-1c0.9,0,1.8,0.3,2.4,1C506.9,144.6,507.3,145.5,507.3,146.5z
	 M507.3,154.4c0,1-0.3,1.8-1,2.5c-0.7,0.7-1.5,1-2.4,1c-0.9,0-1.7-0.3-2.4-1c-0.7-0.7-1-1.5-1-2.5c0-1,0.3-1.8,1-2.5
	c0.7-0.7,1.5-1,2.4-1c0.9,0,1.8,0.3,2.4,1C506.9,152.6,507.3,153.4,507.3,154.4z M506.3,154.4c0-0.7-0.2-1.3-0.7-1.8
	c-0.5-0.5-1.1-0.7-1.8-0.7s-1.3,0.2-1.8,0.7c-0.5,0.5-0.7,1.1-0.7,1.8s0.2,1.3,0.7,1.8s1.1,0.7,1.8,0.7s1.3-0.2,1.8-0.7
	C506.1,155.7,506.3,155.1,506.3,154.4z M506.3,162.7h-5.7v-1h5.7v-2.5h0.9v6.1h-0.9V162.7z M500.5,173.5v-0.7l1.5,0
	c-0.5-0.3-0.9-0.7-1.2-1.1c-0.3-0.5-0.4-1.1-0.4-1.7c0-1,0.3-1.8,1-2.5c0.7-0.7,1.5-1,2.4-1s1.8,0.3,2.4,1c0.7,0.7,1,1.5,1,2.5
	c0,0.6-0.1,1.1-0.4,1.6c-0.3,0.5-0.7,0.9-1.1,1.2l1.5,0v0.7H500.5z M502.1,168.2c-0.5,0.5-0.7,1.1-0.7,1.8c0,0.7,0.2,1.3,0.7,1.8
	c0.5,0.5,1.1,0.7,1.8,0.7s1.3-0.2,1.8-0.7c0.5-0.5,0.7-1.1,0.7-1.8c0-0.7-0.2-1.3-0.7-1.8c-0.5-0.5-1.1-0.7-1.8-0.7
	S502.5,167.7,502.1,168.2z M504.7,183.3v2.5h-0.6v-2.5h-2.4v-0.7h2.4V180h0.6v2.5h2.4v0.7H504.7z M509.8,192.6v3.5
	c0,2.1-0.8,3.2-2.4,3.2c-1,0-1.7-0.5-2-1.5c-0.1,0.6-0.4,1.1-0.8,1.5c-0.4,0.4-0.9,0.5-1.5,0.5c-1.7,0-2.6-1.1-2.6-3.4v-3.9H509.8z
	 M508.9,193.7h-3.1v2.5c0,1.4,0.5,2.1,1.5,2.1c0.5,0,0.8-0.1,1.1-0.4c0.3-0.3,0.4-0.8,0.4-1.6V193.7z M504.9,193.7h-3.4v3
	c0,1.4,0.6,2.2,1.7,2.2c0.5,0,0.9-0.2,1.2-0.5c0.3-0.4,0.5-0.9,0.5-1.6V193.7z M505,202.9v2.4c0,1-0.2,1.7-0.7,2.1
	c-0.4,0.4-1,0.6-1.6,0.6c-0.3,0-0.6,0-0.8-0.1c-0.2-0.1-0.5-0.2-0.7-0.4c-0.2-0.2-0.4-0.5-0.5-0.9c-0.1-0.4-0.2-0.8-0.2-1.3v-3.4
	h6.6v1H505z M500.5,209.9v-1h6.6v1H500.5z M501.4,202.9v2.5c0,1.1,0.5,1.6,1.4,1.6c0.9,0,1.3-0.5,1.3-1.6v-2.5H501.4z M505.7,215.1
	l-5.2-2.4v-1.1l6.6,3.2v0.6l-6.6,3.2v-1.1L505.7,215.1z M507.3,223.1c0,0.7-0.2,1.4-0.5,1.9c-0.3,0.5-0.8,0.9-1.4,1.2
	c-0.3,0.1-0.6,0.2-0.9,0.2c-0.3,0-0.6,0-0.8-0.1v-5.7c-0.7,0-1.3,0.2-1.7,0.7c-0.4,0.5-0.6,1.1-0.6,1.9c0,0.9,0.2,1.7,0.7,2.4
	l-0.6,0.5c-0.7-0.9-1-1.9-1-2.9c0-1.1,0.3-1.9,1-2.6c0.6-0.7,1.4-1,2.4-1c1,0,1.8,0.3,2.4,1C506.9,221.2,507.3,222,507.3,223.1z
	 M506.4,223.1c0-0.7-0.2-1.3-0.6-1.7c-0.4-0.5-0.9-0.7-1.5-0.7v4.8c0.2,0,0.5,0,0.8-0.2c0.4-0.2,0.7-0.5,1-0.8
	C506.2,224,506.4,223.6,506.4,223.1z M506.3,231.1h-5.7v-1h5.7v-2.5h0.9v6.1h-0.9V231.1z M510.4,243h-1c-0.5-0.7-1.1-1.3-2-1.7
	c-0.9-0.5-1.8-0.7-2.8-0.7h-0.1c-1,0-1.9,0.2-2.8,0.7c-0.9,0.5-1.6,1.1-2.1,1.7h-1c0.5-1,1.3-1.9,2.4-2.5c1.1-0.7,2.2-1,3.4-1h0.1
	c1.2,0,2.4,0.3,3.4,1C509.1,241.2,509.9,242,510.4,243z M509.1,251.6L506,248c0.1,0.3,0.1,0.6,0.1,1.1c-0.1,0.9-0.3,1.6-0.8,2.1
	c-0.5,0.5-1.1,0.7-1.8,0.7c-0.9,0-1.6-0.3-2.2-0.9c-0.6-0.6-0.9-1.4-0.9-2.5v-0.1c0-0.9,0.2-1.6,0.5-2.3c0.3-0.6,0.8-1.1,1.4-1.5
	l0.6,0.7c-1.1,0.7-1.6,1.7-1.6,3.1v0.1c0,0.7,0.2,1.3,0.6,1.8c0.4,0.5,0.9,0.7,1.6,0.7c1.3,0,1.9-0.8,1.9-2.5c0-0.5-0.1-1.1-0.4-1.6
	l0.4-0.6l3.1,3.7v-4.5h1v6.1H509.1z M500.5,265.5v-1h5l-2.8-2.5l2.8-2.5h-5v-1h6.6v0.6L504,262l3.2,2.9v0.6H500.5z M500.5,275.2v-1
	h5l-2.8-2.5l2.8-2.5h-5v-1h6.6v0.6l-3.2,2.9l3.2,2.9v0.6H500.5z M509.4,277.4h1c-0.5,1-1.3,1.8-2.3,2.5c-1.1,0.7-2.2,1-3.4,1h-0.1
	c-1.2,0-2.4-0.3-3.4-1c-1.1-0.7-1.8-1.5-2.4-2.5h1c0.5,0.7,1.2,1.3,2.1,1.7c0.9,0.5,1.8,0.7,2.8,0.7h0.1c1,0,1.9-0.2,2.8-0.7
	C508.3,278.6,508.9,278.1,509.4,277.4z M506.2,291l-0.4-0.5l1.6-1.2l-1.6-1.2l0.4-0.5l1.5,1.3l0.5-1.9l0.6,0.2l-0.6,1.9l1.9-0.1v0.6
	l-1.9-0.1l0.6,1.9l-0.6,0.2l-0.5-1.9L506.2,291z M499.7,301.9v-7.2h0.6l3.5,4.3c0.5,0.6,0.9,1,1.3,1.3c0.3,0.2,0.7,0.4,1.1,0.4
	c0.5,0,1-0.2,1.3-0.7s0.5-1,0.5-1.6l0-0.1c0-1.1-0.4-1.9-1.3-2.6l0.6-0.7c1.1,0.9,1.6,2,1.6,3.4v0.2c0,0.9-0.3,1.7-0.8,2.3
	c-0.5,0.6-1.1,0.9-1.8,0.9c-0.6,0-1.1-0.2-1.6-0.6c-0.5-0.4-1.1-1-1.8-1.9l-2.3-2.7v5.3H499.7z"/>
<path class="st20" d="M3.2,302.4v-3.6c0-2.2,0.8-3.2,2.5-3.2c1.1,0,1.8,0.5,2.1,1.5c0.1-0.6,0.4-1.1,0.8-1.5c0.4-0.4,1-0.5,1.6-0.5
	c1.8,0,2.7,1.1,2.7,3.4v3.9H3.2z M4.2,301.3h3.2v-2.6c0-1.4-0.5-2.1-1.6-2.1c-0.5,0-0.9,0.1-1.2,0.4c-0.3,0.3-0.4,0.8-0.4,1.7V301.3
	z M8.4,301.3H12v-3c0-1.5-0.6-2.2-1.8-2.2c-0.6,0-1,0.2-1.3,0.5c-0.3,0.4-0.5,0.9-0.5,1.6V301.3z M8.3,292v-2.4c0-1,0.2-1.7,0.7-2.1
	c0.5-0.4,1-0.6,1.7-0.6c0.3,0,0.6,0,0.9,0.1c0.3,0.1,0.5,0.2,0.8,0.4c0.2,0.2,0.4,0.5,0.6,0.9c0.1,0.4,0.2,0.8,0.2,1.3v3.4H6v-1H8.3
	z M13,284.9v1H6v-1H13z M12,292v-2.5c0-1.1-0.5-1.7-1.4-1.7c-0.9,0-1.4,0.6-1.4,1.7v2.5H12z M5.9,279.2c0-1.1,0.4-2,1.3-2.8l0.7,0.6
	c-0.7,0.6-1,1.3-1,2.1c0,0.7,0.3,1.3,0.8,1.8c0.5,0.5,1.1,0.7,1.9,0.7c0.7,0,1.4-0.2,1.9-0.7c0.5-0.5,0.7-1.1,0.7-1.8
	c0-0.8-0.3-1.6-1-2.1l0.7-0.6c0.9,0.7,1.3,1.6,1.3,2.8c0,1-0.3,1.8-1,2.5c-0.7,0.7-1.5,1-2.5,1c-1,0-1.8-0.4-2.5-1.1
	C6.3,281,5.9,280.2,5.9,279.2z M5.9,271.1c0-1,0.4-1.8,1.1-2.5c0.7-0.7,1.5-1,2.5-1c1,0,1.8,0.4,2.5,1c0.7,0.7,1,1.5,1,2.5
	s-0.3,1.8-1,2.5c-0.7,0.7-1.5,1-2.5,1c-1,0-1.8-0.4-2.5-1.1C6.3,273,5.9,272.1,5.9,271.1z M6.9,271.1c0,0.7,0.3,1.3,0.8,1.8
	c0.5,0.5,1.1,0.8,1.9,0.8c0.7,0,1.4-0.2,1.9-0.7c0.5-0.5,0.7-1.1,0.7-1.8c0-0.7-0.2-1.3-0.7-1.8c-0.5-0.5-1.1-0.8-1.9-0.8
	c-0.7,0-1.4,0.3-1.9,0.8C7.1,269.8,6.9,270.4,6.9,271.1z M7,262.8h6v1H7v2.6H6v-6.1h1V262.8z M13,251.9v0.7l-1.6,0
	c0.5,0.3,0.9,0.7,1.2,1.2c0.3,0.5,0.4,1.1,0.4,1.7c0,1-0.3,1.8-1,2.5c-0.7,0.7-1.5,1-2.5,1c-1,0-1.8-0.3-2.5-1s-1.1-1.5-1.1-2.5
	c0-0.6,0.2-1.2,0.5-1.7c0.3-0.5,0.7-0.9,1.2-1.2l-1.6,0v-0.7H13z M11.4,257.2c0.5-0.5,0.7-1.1,0.7-1.8c0-0.7-0.2-1.3-0.7-1.8
	c-0.5-0.5-1.1-0.8-1.9-0.8c-0.7,0-1.4,0.3-1.9,0.8c-0.5,0.5-0.8,1.1-0.8,1.8c0,0.7,0.3,1.3,0.8,1.8c0.5,0.5,1.1,0.8,1.9,0.8
	C10.2,258,10.9,257.7,11.4,257.2z M8.6,242v-2.5h0.7v2.5h2.6v0.7H9.2v2.5H8.6v-2.5H6V242H8.6z M3.2,232.5v-3.6
	c0-2.2,0.8-3.2,2.5-3.2c1.1,0,1.8,0.5,2.1,1.5c0.1-0.6,0.4-1.1,0.8-1.5c0.4-0.4,1-0.5,1.6-0.5c1.8,0,2.7,1.1,2.7,3.4v3.9H3.2z
	 M4.2,231.4h3.2v-2.6c0-1.4-0.5-2.1-1.6-2.1c-0.5,0-0.9,0.1-1.2,0.4c-0.3,0.3-0.4,0.8-0.4,1.7V231.4z M8.4,231.4H12v-3
	c0-1.5-0.6-2.2-1.8-2.2c-0.6,0-1,0.2-1.3,0.5c-0.3,0.4-0.5,0.9-0.5,1.6V231.4z M8.3,222.1v-2.4c0-1,0.2-1.7,0.7-2.1
	c0.5-0.4,1-0.6,1.7-0.6c0.3,0,0.6,0,0.9,0.1c0.3,0.1,0.5,0.2,0.8,0.4c0.2,0.2,0.4,0.5,0.6,0.9c0.1,0.4,0.2,0.8,0.2,1.3v3.4H6v-1H8.3
	z M13,215v1H6v-1H13z M12,222.1v-2.5c0-1.1-0.5-1.7-1.4-1.7c-0.9,0-1.4,0.6-1.4,1.7v2.5H12z M7.6,209.8l5.4,2.5v1.1l-7-3.2v-0.6
	l7-3.2v1.1L7.6,209.8z M5.9,201.7c0-0.8,0.2-1.4,0.5-1.9c0.4-0.5,0.9-0.9,1.5-1.2c0.3-0.1,0.6-0.2,0.9-0.2c0.4,0,0.6,0,0.9,0.1v5.8
	c0.7,0,1.3-0.2,1.8-0.7c0.4-0.5,0.6-1.1,0.7-1.9c0-0.9-0.3-1.7-0.8-2.4l0.6-0.5c0.7,0.9,1.1,1.9,1.1,3c0,1.1-0.3,2-1,2.6
	c-0.7,0.7-1.5,1-2.6,1c-1,0-1.9-0.3-2.6-1C6.2,203.6,5.9,202.8,5.9,201.7z M6.8,201.7c0,0.7,0.2,1.3,0.6,1.7c0.4,0.5,1,0.7,1.6,0.7
	v-4.8c-0.2,0-0.5,0-0.8,0.2c-0.4,0.2-0.8,0.5-1,0.8C7,200.7,6.8,201.2,6.8,201.7z M7,193.5h6v1H7v2.6H6V191h1V193.5z M2.6,181.6h1
	c0.5,0.7,1.2,1.3,2.1,1.8c0.9,0.5,1.9,0.7,2.9,0.7h0.2c1,0,2-0.2,2.9-0.7c0.9-0.5,1.7-1.1,2.2-1.8h1c-0.6,1-1.4,1.9-2.5,2.5
	c-1.1,0.7-2.3,1-3.6,1H8.7c-1.3,0-2.5-0.3-3.6-1C4,183.4,3.1,182.6,2.6,181.6z M4,172.8l3.2,3.6c-0.1-0.3-0.1-0.6-0.1-1.1
	c0.1-0.9,0.3-1.6,0.8-2.1c0.5-0.5,1.1-0.7,1.9-0.7c0.9,0,1.7,0.3,2.3,0.9c0.6,0.6,0.9,1.5,0.9,2.5v0.1c0,0.9-0.2,1.6-0.6,2.3
	c-0.4,0.7-0.9,1.2-1.5,1.5l-0.7-0.7c1.1-0.7,1.7-1.8,1.7-3.1V176c0-0.7-0.2-1.3-0.7-1.8c-0.4-0.5-1-0.7-1.7-0.7c-1.3,0-2,0.8-2,2.5
	c0,0.5,0.1,1.1,0.4,1.6l-0.4,0.6l-3.3-3.7v4.5h-1v-6.2H4z M13,158.7v1H7.7l2.9,2.6l-2.9,2.6H13v1H6v-0.6l3.4-3l-3.4-3v-0.6H13z
	 M13,149v1H7.7l2.9,2.6l-2.9,2.6H13v1H6v-0.6l3.4-3l-3.4-3V149H13z M3.6,146.8h-1c0.5-1,1.3-1.8,2.5-2.5c1.1-0.7,2.3-1,3.6-1h0.2
	c1.3,0,2.5,0.3,3.6,1c1.1,0.7,1.9,1.5,2.5,2.5h-1c-0.5-0.7-1.3-1.3-2.2-1.8c-0.9-0.5-1.9-0.7-2.9-0.7H8.7c-1,0-2,0.3-2.9,0.7
	C4.9,145.5,4.1,146.1,3.6,146.8z M7,133l0.4,0.5l-1.7,1.2l1.7,1.2L7,136.4l-1.6-1.3L4.9,137l-0.6-0.2l0.6-1.9L3,135v-0.6l2,0.1
	l-0.6-1.9l0.6-0.2l0.5,1.9L7,133z M13,119v7.3h-0.6L8.7,122c-0.5-0.6-1-1-1.3-1.3c-0.3-0.2-0.7-0.4-1.1-0.4c-0.6,0-1,0.2-1.4,0.7
	c-0.3,0.4-0.5,1-0.5,1.6l0,0.1c0,1.1,0.4,2,1.3,2.7L5,126.1c-1.1-0.9-1.7-2.1-1.7-3.5v-0.2c0-0.9,0.3-1.7,0.8-2.3
	c0.5-0.6,1.2-0.9,1.9-0.9c0.6,0,1.2,0.2,1.7,0.6c0.5,0.4,1.1,1,1.9,1.9l2.4,2.7V119H13z"/>
<path class="st21" d="M145.3,367h-10.1v-8.4h0.9v7.5h3.6v-7.5h0.9v7.5h3.6v-7.5h0.9V367z M153.1,367h-0.9v-4.5l-4,4.5h-0.5v-6h0.9
	v4.5l4-4.5h0.5V367z M158.5,360.9c0.8,0,1.6,0.3,2.1,0.9c0.6,0.6,0.9,1.3,0.9,2.2s-0.3,1.6-0.9,2.2c-0.6,0.6-1.3,0.9-2.1,0.9
	c-0.5,0-0.9-0.1-1.3-0.3c-0.4-0.2-0.7-0.6-0.9-0.9v3.4h-0.9V361h0.6l0,1.4c0.2-0.4,0.6-0.8,1-1C157.5,361,158,360.9,158.5,360.9z
	 M158.4,361.8c-0.6,0-1.1,0.2-1.6,0.6c-0.4,0.4-0.6,1-0.6,1.6s0.2,1.2,0.6,1.6c0.4,0.4,1,0.6,1.6,0.6c0.6,0,1.1-0.2,1.5-0.6
	c0.4-0.4,0.6-1,0.6-1.6s-0.2-1.2-0.6-1.6C159.5,362,159,361.8,158.4,361.8z M168.7,367h-0.9v-4.5l-4,4.5h-0.5v-6h0.9v4.5l4-4.5h0.5
	V367z M176.4,367h-0.9v-2.6h-3.7v2.6H171v-6h0.9v2.6h3.7V361h0.9V367z M184.4,367h-0.6l0-1.4c-0.2,0.4-0.6,0.8-1,1
	c-0.4,0.3-0.9,0.4-1.4,0.4c-0.8,0-1.6-0.3-2.1-0.9c-0.6-0.6-0.9-1.3-0.9-2.2s0.3-1.6,0.9-2.2c0.6-0.6,1.3-0.9,2.1-0.9
	c0.5,0,1,0.1,1.4,0.4c0.4,0.3,0.8,0.6,1,1l0-1.3h0.6V367z M179.8,365.6c0.4,0.4,1,0.6,1.6,0.6s1.1-0.2,1.6-0.6
	c0.4-0.4,0.6-1,0.6-1.6s-0.2-1.2-0.6-1.6c-0.4-0.4-1-0.6-1.6-0.6c-0.6,0-1.1,0.2-1.5,0.6c-0.4,0.4-0.6,1-0.6,1.6
	S179.4,365.2,179.8,365.6z"/>
<path class="st21" d="M116.2,217h-1.9v-6.9c-0.4,0.9-1,1.7-1.9,2.2c-0.8,0.5-1.8,0.7-2.9,0.7c-1.8,0-3.3-0.5-4.5-1.6
	c-1.1-1.1-1.7-2.8-1.7-5.2v-5.9h1.9v6c0,3.3,1.5,5,4.6,5c1.2,0,2.3-0.4,3.2-1.2c0.9-0.8,1.3-2.1,1.3-3.8v-6h1.9V217z M126.5,204.8
	c1.3,0,2.4,0.3,3.3,0.9c0.9,0.6,1.6,1.5,2.1,2.6c0.2,0.5,0.3,1,0.3,1.6c0,0.6,0,1.1-0.1,1.5h-9.9c0,1.3,0.4,2.3,1.2,3
	c0.8,0.7,1.9,1.1,3.3,1.1c1.5,0,2.9-0.4,4.2-1.3l0.9,1.1c-1.6,1.2-3.2,1.8-5.1,1.8c-1.9,0-3.4-0.6-4.5-1.7s-1.8-2.6-1.8-4.4
	c0-1.7,0.6-3.2,1.7-4.4C123.2,205.4,124.7,204.8,126.5,204.8z M126.5,206.4c-1.2,0-2.2,0.4-3,1.1c-0.8,0.7-1.2,1.6-1.3,2.7h8.3
	c0-0.4-0.1-0.9-0.3-1.4c-0.3-0.7-0.8-1.3-1.4-1.8C128.2,206.7,127.4,206.4,126.5,206.4z M140.5,206.7V217h-1.8v-10.3h-4.4V205h10.5
	v1.7H140.5z M158.9,217h-1.8v-5.2h-7.4v5.2H148v-12h1.8v5.1h7.4V205h1.8V217z M174.8,217h-1.2l-0.1-2.7c-0.5,0.9-1.1,1.6-2,2.1
	c-0.9,0.5-1.8,0.8-2.9,0.8c-1.7,0-3.1-0.6-4.3-1.8c-1.2-1.2-1.7-2.7-1.7-4.4s0.6-3.2,1.7-4.4c1.2-1.2,2.6-1.8,4.3-1.8
	c1,0,2,0.3,2.9,0.8c0.9,0.5,1.6,1.2,2,2.1l0.1-2.7h1.2V217z M165.6,214.2c0.9,0.8,1.9,1.3,3.1,1.3s2.3-0.4,3.1-1.3
	c0.9-0.8,1.3-1.9,1.3-3.2s-0.4-2.3-1.3-3.2c-0.9-0.9-1.9-1.3-3.1-1.3c-1.2,0-2.2,0.4-3.1,1.3c-0.9,0.8-1.3,1.9-1.3,3.2
	S164.8,213.3,165.6,214.2z M189.1,217h-1.7v-3.9h-2.9c-0.7,0-1.3,0.2-1.7,0.5c-0.4,0.3-0.9,0.9-1.5,1.9l-1.1,1.6h-1.9l1.3-1.9
	c0,0,0.1-0.2,0.2-0.4c0.1-0.2,0.2-0.3,0.2-0.4c0,0,0.1-0.2,0.2-0.3c0.1-0.2,0.2-0.3,0.2-0.3c0,0,0.1-0.1,0.2-0.2
	c0.1-0.1,0.2-0.2,0.2-0.3c0.1-0.1,0.1-0.1,0.2-0.2c0.1-0.1,0.2-0.1,0.3-0.2c-0.9-0.2-1.7-0.6-2.2-1.3c-0.5-0.7-0.8-1.5-0.8-2.4
	c0-1.2,0.4-2.2,1.2-3c0.8-0.8,2.1-1.2,3.7-1.2h5.7V217z M187.3,206.7h-4.1c-1,0-1.7,0.2-2.3,0.7c-0.5,0.4-0.8,1-0.8,1.8
	c0,0.8,0.3,1.4,0.8,1.8c0.5,0.4,1.3,0.6,2.3,0.6h4.1V206.7z"/>
<path class="st21" d="M319.2,217h-1.9v-7.6h-9v7.6h-1.9v-16.8h1.9v7.4h9v-7.4h1.9V217z M329.1,204.8c1.3,0,2.4,0.3,3.3,0.9
	c0.9,0.6,1.6,1.5,2.1,2.6c0.2,0.5,0.3,1,0.3,1.6c0,0.6,0,1.1-0.1,1.5h-9.9c0,1.3,0.4,2.3,1.2,3c0.8,0.7,1.9,1.1,3.3,1.1
	c1.5,0,2.9-0.4,4.2-1.3l0.9,1.1c-1.6,1.2-3.2,1.8-5.1,1.8c-1.9,0-3.4-0.6-4.5-1.7s-1.8-2.6-1.8-4.4c0-1.7,0.6-3.2,1.7-4.4
	C325.8,205.4,327.3,204.8,329.1,204.8z M329.1,206.4c-1.2,0-2.2,0.4-3,1.1c-0.8,0.7-1.2,1.6-1.3,2.7h8.3c0-0.4-0.1-0.9-0.3-1.4
	c-0.3-0.7-0.8-1.3-1.4-1.8C330.7,206.7,330,206.4,329.1,206.4z M357.4,217h-1.7v-4.7c-0.8,1.4-2.2,2.1-4.1,2.1c-3.6,0-5.4-2-5.4-6
	V205h1.8v3.2c0,1.5,0.3,2.6,0.9,3.4c0.6,0.7,1.6,1.1,3,1.1c1.4,0,2.4-0.4,3-1.1c0.6-0.8,0.9-1.7,0.9-2.9V205h1.7V217z M367.2,204.8
	c1.3,0,2.4,0.3,3.3,0.9c0.9,0.6,1.6,1.5,2.1,2.6c0.2,0.5,0.3,1,0.3,1.6c0,0.6,0,1.1-0.1,1.5h-9.9c0,1.3,0.4,2.3,1.2,3
	c0.8,0.7,1.9,1.1,3.3,1.1c1.5,0,2.9-0.4,4.2-1.3l0.9,1.1c-1.6,1.2-3.2,1.8-5.1,1.8c-1.9,0-3.4-0.6-4.5-1.7s-1.8-2.6-1.8-4.4
	c0-1.7,0.6-3.2,1.7-4.4C364,205.4,365.4,204.8,367.2,204.8z M367.2,206.4c-1.2,0-2.2,0.4-3,1.1c-0.8,0.7-1.2,1.6-1.3,2.7h8.3
	c0-0.4-0.1-0.9-0.3-1.4c-0.3-0.7-0.8-1.3-1.4-1.8C368.9,206.7,368.1,206.4,367.2,206.4z M381.3,206.7V217h-1.8v-10.3h-4.4V205h10.5
	v1.7H381.3z M399.7,217h-1.8v-5.2h-7.4v5.2h-1.8v-12h1.8v5.1h7.4V205h1.8V217z M415.6,217h-1.2l-0.1-2.7c-0.5,0.9-1.1,1.6-2,2.1
	c-0.9,0.5-1.8,0.8-2.9,0.8c-1.7,0-3.1-0.6-4.3-1.8c-1.2-1.2-1.7-2.7-1.7-4.4s0.6-3.2,1.7-4.4c1.2-1.2,2.6-1.8,4.3-1.8
	c1,0,2,0.3,2.9,0.8c0.9,0.5,1.6,1.2,2,2.1l0.1-2.7h1.2V217z M406.4,214.2c0.9,0.8,1.9,1.3,3.1,1.3s2.3-0.4,3.1-1.3
	c0.9-0.8,1.3-1.9,1.3-3.2s-0.4-2.3-1.3-3.2c-0.9-0.9-1.9-1.3-3.1-1.3c-1.2,0-2.2,0.4-3.1,1.3c-0.9,0.8-1.3,1.9-1.3,3.2
	S405.5,213.3,406.4,214.2z M429.8,217h-1.7v-3.9h-2.9c-0.7,0-1.3,0.2-1.7,0.5c-0.4,0.3-0.9,0.9-1.5,1.9L421,217h-1.9l1.3-1.9
	c0,0,0.1-0.2,0.2-0.4c0.1-0.2,0.2-0.3,0.2-0.4c0,0,0.1-0.2,0.2-0.3c0.1-0.2,0.2-0.3,0.2-0.3c0,0,0.1-0.1,0.2-0.2
	c0.1-0.1,0.2-0.2,0.2-0.3c0.1-0.1,0.1-0.1,0.2-0.2c0.1-0.1,0.2-0.1,0.3-0.2c-0.9-0.2-1.7-0.6-2.2-1.3c-0.5-0.7-0.8-1.5-0.8-2.4
	c0-1.2,0.4-2.2,1.2-3c0.8-0.8,2.1-1.2,3.7-1.2h5.7V217z M428.1,206.7H424c-1,0-1.7,0.2-2.3,0.7c-0.5,0.4-0.8,1-0.8,1.8
	c0,0.8,0.3,1.4,0.8,1.8c0.5,0.4,1.3,0.6,2.3,0.6h4.1V206.7z"/>
<path class="st21" d="M345.3,367h-10.1v-8.4h0.9v7.5h3.6v-7.5h0.9v7.5h3.6v-7.5h0.9V367z M353.1,367h-0.9v-4.5l-4,4.5h-0.5v-6h0.9
	v4.5l4-4.5h0.5V367z M358.5,360.9c0.8,0,1.6,0.3,2.1,0.9c0.6,0.6,0.9,1.3,0.9,2.2s-0.3,1.6-0.9,2.2c-0.6,0.6-1.3,0.9-2.1,0.9
	c-0.5,0-0.9-0.1-1.3-0.3c-0.4-0.2-0.7-0.6-0.9-0.9v3.4h-0.9V361h0.6l0,1.4c0.2-0.4,0.6-0.8,1-1C357.5,361,358,360.9,358.5,360.9z
	 M358.4,361.8c-0.6,0-1.1,0.2-1.6,0.6c-0.4,0.4-0.6,1-0.6,1.6s0.2,1.2,0.6,1.6c0.4,0.4,1,0.6,1.6,0.6c0.6,0,1.1-0.2,1.5-0.6
	c0.4-0.4,0.6-1,0.6-1.6s-0.2-1.2-0.6-1.6C359.5,362,359,361.8,358.4,361.8z M368.7,367h-0.9v-4.5l-4,4.5h-0.5v-6h0.9v4.5l4-4.5h0.5
	V367z M376.4,367h-0.9v-2.6h-3.7v2.6H371v-6h0.9v2.6h3.7V361h0.9V367z M384.4,367h-0.6l0-1.4c-0.2,0.4-0.6,0.8-1,1
	c-0.4,0.3-0.9,0.4-1.4,0.4c-0.8,0-1.6-0.3-2.1-0.9c-0.6-0.6-0.9-1.3-0.9-2.2s0.3-1.6,0.9-2.2c0.6-0.6,1.3-0.9,2.1-0.9
	c0.5,0,1,0.1,1.4,0.4c0.4,0.3,0.8,0.6,1,1l0-1.3h0.6V367z M379.8,365.6c0.4,0.4,1,0.6,1.6,0.6s1.1-0.2,1.6-0.6
	c0.4-0.4,0.6-1,0.6-1.6s-0.2-1.2-0.6-1.6c-0.4-0.4-1-0.6-1.6-0.6c-0.6,0-1.1,0.2-1.5,0.6c-0.4,0.4-0.6,1-0.6,1.6
	S379.4,365.2,379.8,365.6z"/>
<path class="st21" d="M31.4,229.6v-3.1c0-1.9,0.7-2.9,2.2-2.9c1,0,1.6,0.4,1.9,1.3c0.1-0.6,0.3-1,0.7-1.3c0.4-0.3,0.8-0.5,1.4-0.5
	c1.6,0,2.4,1,2.4,3v3.4H31.4z M32.3,228.6h2.8v-2.3c0-1.2-0.5-1.9-1.4-1.9c-0.4,0-0.8,0.1-1,0.4c-0.3,0.3-0.4,0.7-0.4,1.5V228.6z
	 M36,228.6h3.1V226c0-1.3-0.5-1.9-1.6-1.9c-0.5,0-0.9,0.2-1.1,0.5c-0.3,0.3-0.4,0.8-0.4,1.4V228.6z M35.8,220.4v-2.1
	c0-0.9,0.2-1.5,0.6-1.9c0.4-0.4,0.9-0.6,1.5-0.6c0.3,0,0.5,0,0.8,0.1c0.2,0.1,0.5,0.2,0.7,0.4c0.2,0.2,0.4,0.4,0.5,0.8
	c0.1,0.3,0.2,0.7,0.2,1.2v3h-6.2v-0.9H35.8z M40,214.2v0.9h-6.2v-0.9H40z M39.2,220.4v-2.2c0-1-0.4-1.5-1.3-1.5
	c-0.8,0-1.2,0.5-1.2,1.5v2.2H39.2z M33.8,209.1c0-1,0.4-1.8,1.1-2.4l0.6,0.5c-0.6,0.5-0.9,1.2-0.9,1.9c0,0.6,0.2,1.2,0.7,1.6
	c0.4,0.4,1,0.7,1.6,0.7c0.7,0,1.2-0.2,1.6-0.7c0.4-0.4,0.7-1,0.7-1.6c0-0.7-0.3-1.4-0.8-1.9l0.6-0.5c0.8,0.6,1.1,1.4,1.1,2.4
	c0,0.9-0.3,1.6-0.9,2.2c-0.6,0.6-1.4,0.9-2.2,0.9c-0.9,0-1.6-0.3-2.2-0.9C34.1,210.7,33.8,210,33.8,209.1z M33.8,202.1
	c0-0.9,0.3-1.6,0.9-2.2c0.6-0.6,1.4-0.9,2.2-0.9c0.9,0,1.6,0.3,2.2,0.9c0.6,0.6,0.9,1.4,0.9,2.2c0,0.9-0.3,1.6-0.9,2.2
	c-0.6,0.6-1.4,0.9-2.2,0.9c-0.9,0-1.6-0.3-2.2-0.9C34.1,203.7,33.8,202.9,33.8,202.1z M34.6,202.1c0,0.6,0.2,1.1,0.7,1.6
	c0.4,0.4,1,0.7,1.6,0.7c0.7,0,1.2-0.2,1.6-0.7c0.4-0.4,0.7-1,0.7-1.6s-0.2-1.2-0.7-1.6c-0.4-0.4-1-0.7-1.6-0.7
	c-0.7,0-1.2,0.2-1.6,0.7C34.8,200.9,34.6,201.5,34.6,202.1z M34.7,194.7H40v0.9h-5.3v2.3h-0.8v-5.4h0.8V194.7z M40,185.1v0.6l-1.4,0
	c0.4,0.2,0.8,0.6,1.1,1c0.3,0.4,0.4,0.9,0.4,1.5c0,0.9-0.3,1.6-0.9,2.2c-0.6,0.6-1.4,0.9-2.2,0.9s-1.6-0.3-2.2-0.9
	c-0.6-0.6-0.9-1.3-0.9-2.2c0-0.5,0.1-1,0.4-1.5c0.3-0.5,0.6-0.8,1.1-1l-1.4,0v-0.6H40z M38.6,189.9c0.4-0.4,0.7-1,0.7-1.6
	c0-0.6-0.2-1.2-0.7-1.6c-0.4-0.4-1-0.7-1.6-0.7c-0.7,0-1.2,0.2-1.6,0.7c-0.4,0.4-0.7,1-0.7,1.6c0,0.6,0.2,1.1,0.7,1.6
	c0.4,0.4,1,0.7,1.6,0.7C37.6,190.5,38.1,190.3,38.6,189.9z"/>
<path class="st21" d="M482.6,184.4v3.1c0,1.9-0.7,2.9-2.2,2.9c-1,0-1.6-0.4-1.9-1.3c-0.1,0.6-0.3,1-0.7,1.3
	c-0.4,0.3-0.8,0.5-1.4,0.5c-1.6,0-2.4-1-2.4-3v-3.4H482.6z M481.7,185.3h-2.8v2.3c0,1.2,0.5,1.9,1.4,1.9c0.4,0,0.8-0.1,1-0.4
	c0.3-0.3,0.4-0.7,0.4-1.5V185.3z M478,185.3h-3.1v2.6c0,1.3,0.5,1.9,1.6,1.9c0.5,0,0.9-0.2,1.1-0.5c0.3-0.3,0.4-0.8,0.4-1.4V185.3z
	 M478.2,193.6v2.1c0,0.9-0.2,1.5-0.6,1.9c-0.4,0.4-0.9,0.6-1.5,0.6c-0.3,0-0.5,0-0.8-0.1c-0.2-0.1-0.5-0.2-0.7-0.4
	c-0.2-0.2-0.4-0.4-0.5-0.8c-0.1-0.3-0.2-0.7-0.2-1.2v-3h6.1v0.9H478.2z M474,199.8v-0.9h6.1v0.9H474z M474.8,193.5v2.2
	c0,1,0.4,1.5,1.3,1.5c0.8,0,1.2-0.5,1.2-1.5v-2.2H474.8z M480.2,204.8c0,1-0.4,1.8-1.1,2.4l-0.6-0.5c0.6-0.5,0.9-1.2,0.9-1.9
	c0-0.6-0.2-1.2-0.7-1.6c-0.4-0.4-1-0.7-1.6-0.7c-0.7,0-1.2,0.2-1.6,0.7c-0.4,0.4-0.7,1-0.7,1.6c0,0.7,0.3,1.4,0.8,1.9l-0.6,0.5
	c-0.8-0.6-1.1-1.4-1.1-2.4c0-0.9,0.3-1.6,0.9-2.2c0.6-0.6,1.4-0.9,2.2-0.9c0.9,0,1.6,0.3,2.2,0.9S480.2,204,480.2,204.8z
	 M480.2,211.9c0,0.9-0.3,1.6-0.9,2.2c-0.6,0.6-1.4,0.9-2.2,0.9c-0.9,0-1.6-0.3-2.2-0.9s-0.9-1.4-0.9-2.2s0.3-1.6,0.9-2.2
	c0.6-0.6,1.4-0.9,2.2-0.9c0.9,0,1.6,0.3,2.2,0.9C479.9,210.3,480.2,211,480.2,211.9z M479.4,211.9c0-0.6-0.2-1.1-0.7-1.6
	c-0.4-0.4-1-0.7-1.6-0.7c-0.7,0-1.2,0.2-1.6,0.7c-0.4,0.4-0.7,1-0.7,1.6s0.2,1.2,0.7,1.6c0.4,0.4,1,0.7,1.6,0.7
	c0.7,0,1.2-0.2,1.6-0.7C479.2,213,479.4,212.5,479.4,211.9z M479.3,219.2H474v-0.9h5.3v-2.3h0.8v5.4h-0.8V219.2z M474,228.8v-0.6
	l1.4,0c-0.4-0.2-0.8-0.6-1.1-1c-0.3-0.4-0.4-0.9-0.4-1.5c0-0.9,0.3-1.6,0.9-2.2c0.6-0.6,1.4-0.9,2.2-0.9c0.9,0,1.6,0.3,2.2,0.9
	c0.6,0.6,0.9,1.3,0.9,2.2c0,0.5-0.1,1-0.4,1.5c-0.3,0.5-0.6,0.8-1.1,1l1.4,0v0.6H474z M475.4,224.1c-0.4,0.4-0.7,1-0.7,1.6
	s0.2,1.2,0.7,1.6c0.4,0.4,1,0.7,1.6,0.7c0.7,0,1.2-0.2,1.6-0.7c0.4-0.4,0.7-1,0.7-1.6c0-0.6-0.2-1.1-0.7-1.6c-0.4-0.4-1-0.7-1.6-0.7
	C476.4,223.4,475.9,223.7,475.4,224.1z"/>
<path class="st20" d="M86.3,388H76.2v-8.4h0.9v7.5h3.6v-7.5h0.9v7.5h3.6v-7.5h0.9V388z M94.1,388h-0.9v-4.5l-4,4.5h-0.5v-6h0.9v4.5
	l4-4.5h0.5V388z M99.5,381.9c0.8,0,1.6,0.3,2.1,0.9c0.6,0.6,0.9,1.3,0.9,2.2s-0.3,1.6-0.9,2.2c-0.6,0.6-1.3,0.9-2.1,0.9
	c-0.5,0-0.9-0.1-1.3-0.3c-0.4-0.2-0.7-0.6-0.9-0.9v3.4h-0.9V382H97l0,1.4c0.2-0.4,0.6-0.8,1-1C98.5,382,99,381.9,99.5,381.9z
	 M99.4,382.8c-0.6,0-1.1,0.2-1.6,0.6c-0.4,0.4-0.6,1-0.6,1.6s0.2,1.2,0.6,1.6c0.4,0.4,1,0.6,1.6,0.6c0.6,0,1.1-0.2,1.5-0.6
	c0.4-0.4,0.6-1,0.6-1.6s-0.2-1.2-0.6-1.6C100.5,383,100,382.8,99.4,382.8z M109.7,388h-0.9v-4.5l-4,4.5h-0.5v-6h0.9v4.5l4-4.5h0.5
	V388z M117.4,388h-0.9v-2.6h-3.7v2.6H112v-6h0.9v2.6h3.7V382h0.9V388z M125.4,388h-0.6l0-1.4c-0.2,0.4-0.6,0.8-1,1
	c-0.4,0.3-0.9,0.4-1.4,0.4c-0.8,0-1.6-0.3-2.1-0.9c-0.6-0.6-0.9-1.3-0.9-2.2s0.3-1.6,0.9-2.2c0.6-0.6,1.3-0.9,2.1-0.9
	c0.5,0,1,0.1,1.4,0.4c0.4,0.3,0.8,0.6,1,1l0-1.3h0.6V388z M120.8,386.6c0.4,0.4,1,0.6,1.6,0.6c0.6,0,1.1-0.2,1.6-0.6
	c0.4-0.4,0.6-1,0.6-1.6s-0.2-1.2-0.6-1.6c-0.4-0.4-1-0.6-1.6-0.6c-0.6,0-1.1,0.2-1.5,0.6c-0.4,0.4-0.6,1-0.6,1.6
	S120.4,386.2,120.8,386.6z M133.9,384.2h2.2v0.6h-2.2v2.2h-0.6v-2.2h-2.2v-0.6h2.2V382h0.6V384.2z M142,379.6h3
	c1.9,0,2.8,0.7,2.8,2.2c0,0.9-0.4,1.6-1.3,1.8c0.5,0.1,1,0.3,1.3,0.7c0.3,0.4,0.5,0.8,0.5,1.4c0,1.6-1,2.3-2.9,2.3H142V379.6z
	 M142.9,380.5v2.8h2.2c1.2,0,1.8-0.5,1.8-1.4c0-0.4-0.1-0.8-0.4-1c-0.2-0.3-0.7-0.4-1.4-0.4H142.9z M142.9,384.1v3.1h2.6
	c1.2,0,1.9-0.5,1.9-1.5c0-0.5-0.2-0.8-0.5-1.1c-0.3-0.3-0.8-0.4-1.4-0.4H142.9z M150.9,383.9h2.1c0.9,0,1.5,0.2,1.8,0.6
	c0.4,0.4,0.6,0.9,0.6,1.4c0,0.3,0,0.5-0.1,0.7c-0.1,0.2-0.2,0.4-0.4,0.6c-0.2,0.2-0.4,0.4-0.7,0.5c-0.3,0.1-0.7,0.2-1.2,0.2H150v-6
	h0.9V383.9z M157,388h-0.9v-6h0.9V388z M150.9,387.2h2.1c1,0,1.4-0.4,1.4-1.2c0-0.8-0.5-1.2-1.4-1.2h-2.1V387.2z M161.4,383.3
	l-2.1,4.7h-0.9l2.8-6h0.5l2.8,6h-0.9L161.4,383.3z M168.4,381.9c0.6,0,1.2,0.2,1.7,0.5c0.5,0.3,0.8,0.7,1,1.3
	c0.1,0.2,0.2,0.5,0.2,0.8c0,0.3,0,0.5-0.1,0.7h-5c0,0.6,0.2,1.1,0.6,1.5c0.4,0.4,1,0.6,1.6,0.6c0.8,0,1.5-0.2,2.1-0.6l0.5,0.5
	c-0.8,0.6-1.6,0.9-2.5,0.9c-0.9,0-1.7-0.3-2.3-0.9s-0.9-1.3-0.9-2.2c0-0.9,0.3-1.6,0.8-2.2C166.7,382.2,167.5,381.9,168.4,381.9z
	 M168.4,382.7c-0.6,0-1.1,0.2-1.5,0.6c-0.4,0.4-0.6,0.8-0.6,1.3h4.1c0-0.2,0-0.4-0.1-0.7c-0.2-0.4-0.4-0.7-0.7-0.9
	C169.2,382.8,168.8,382.7,168.4,382.7z M175.4,382.8v5.2h-0.9v-5.2h-2.2V382h5.3v0.8H175.4z M185.6,379.1v0.9
	c-0.6,0.4-1.1,1-1.5,1.8c-0.4,0.8-0.6,1.6-0.6,2.5v0.1c0,0.9,0.2,1.7,0.6,2.5c0.4,0.8,0.9,1.4,1.5,1.9v0.9c-0.9-0.5-1.6-1.2-2.2-2.1
	c-0.6-1-0.9-2-0.9-3.1v-0.1c0-1.1,0.3-2.1,0.9-3.1C184,380.2,184.8,379.5,185.6,379.1z M193.1,380.3l-3.1,2.8
	c0.2-0.1,0.5-0.1,0.9-0.1c0.8,0,1.4,0.3,1.8,0.7c0.4,0.4,0.6,1,0.6,1.6c0,0.8-0.3,1.5-0.8,2c-0.5,0.5-1.3,0.8-2.2,0.8h-0.1
	c-0.7,0-1.4-0.2-2-0.5c-0.6-0.3-1-0.7-1.3-1.3l0.6-0.6c0.6,1,1.5,1.4,2.7,1.4h0.1c0.6,0,1.1-0.2,1.5-0.6c0.4-0.4,0.6-0.8,0.6-1.4
	c0-1.1-0.7-1.7-2.1-1.7c-0.5,0-0.9,0.1-1.4,0.3l-0.5-0.4l3.2-2.8h-3.9v-0.9h5.3V380.3z M205.2,388h-0.9v-4.5l-2.2,2.5l-2.2-2.5v4.5
	H199v-6h0.5l2.6,2.9l2.6-2.9h0.5V388z M213.6,388h-0.9v-4.5l-2.2,2.5l-2.2-2.5v4.5h-0.9v-6h0.5l2.6,2.9l2.6-2.9h0.5V388z M215.4,380
	v-0.9c0.9,0.4,1.6,1.2,2.2,2.1c0.6,1,0.9,2,0.9,3.1v0.1c0,1.1-0.3,2.1-0.9,3.1c-0.6,1-1.3,1.7-2.2,2.1v-0.9c0.6-0.5,1.1-1.1,1.5-1.9
	c0.4-0.8,0.6-1.6,0.6-2.5v-0.1c0-0.9-0.2-1.7-0.6-2.5C216.5,381,216,380.4,215.4,380z M227.3,382.9l-0.4,0.3l-1-1.5l-1,1.5l-0.4-0.3
	l1.1-1.4l-1.6-0.4l0.1-0.5l1.6,0.5l0-1.7h0.5l0,1.7l1.6-0.5l0.1,0.5l-1.6,0.4L227.3,382.9z M239.2,388H233v-0.5l3.7-3.2
	c0.5-0.5,0.9-0.8,1.1-1.1c0.2-0.3,0.3-0.6,0.3-1c0-0.5-0.2-0.9-0.6-1.2c-0.4-0.3-0.8-0.4-1.4-0.4l-0.1,0c-0.9,0-1.7,0.4-2.3,1.1
	l-0.6-0.6c0.8-1,1.8-1.5,3-1.5h0.1c0.8,0,1.5,0.2,2,0.7c0.5,0.4,0.8,1,0.8,1.6c0,0.5-0.2,1-0.5,1.5c-0.3,0.4-0.8,1-1.6,1.6l-2.3,2.1
	h4.6V388z"/>
<path class="st20" d="M291.3,388h-10.1v-8.4h0.9v7.5h3.6v-7.5h0.9v7.5h3.6v-7.5h0.9V388z M299.1,388h-0.9v-4.5l-4,4.5h-0.5v-6h0.9
	v4.5l4-4.5h0.5V388z M304.5,381.9c0.8,0,1.6,0.3,2.1,0.9c0.6,0.6,0.9,1.3,0.9,2.2s-0.3,1.6-0.9,2.2c-0.6,0.6-1.3,0.9-2.1,0.9
	c-0.5,0-0.9-0.1-1.3-0.3c-0.4-0.2-0.7-0.6-0.9-0.9v3.4h-0.9V382h0.6l0,1.4c0.2-0.4,0.6-0.8,1-1C303.5,382,304,381.9,304.5,381.9z
	 M304.4,382.8c-0.6,0-1.1,0.2-1.6,0.6c-0.4,0.4-0.6,1-0.6,1.6s0.2,1.2,0.6,1.6c0.4,0.4,1,0.6,1.6,0.6c0.6,0,1.1-0.2,1.5-0.6
	c0.4-0.4,0.6-1,0.6-1.6s-0.2-1.2-0.6-1.6C305.5,383,305,382.8,304.4,382.8z M314.7,388h-0.9v-4.5l-4,4.5h-0.5v-6h0.9v4.5l4-4.5h0.5
	V388z M322.4,388h-0.9v-2.6h-3.7v2.6H317v-6h0.9v2.6h3.7V382h0.9V388z M330.4,388h-0.6l0-1.4c-0.2,0.4-0.6,0.8-1,1
	c-0.4,0.3-0.9,0.4-1.4,0.4c-0.8,0-1.6-0.3-2.1-0.9c-0.6-0.6-0.9-1.3-0.9-2.2s0.3-1.6,0.9-2.2c0.6-0.6,1.3-0.9,2.1-0.9
	c0.5,0,1,0.1,1.4,0.4c0.4,0.3,0.8,0.6,1,1l0-1.3h0.6V388z M325.8,386.6c0.4,0.4,1,0.6,1.6,0.6s1.1-0.2,1.6-0.6
	c0.4-0.4,0.6-1,0.6-1.6s-0.2-1.2-0.6-1.6c-0.4-0.4-1-0.6-1.6-0.6c-0.6,0-1.1,0.2-1.5,0.6c-0.4,0.4-0.6,1-0.6,1.6
	S325.4,386.2,325.8,386.6z M338.9,384.2h2.2v0.6h-2.2v2.2h-0.6v-2.2h-2.2v-0.6h2.2V382h0.6V384.2z M347,379.6h3
	c1.9,0,2.8,0.7,2.8,2.2c0,0.9-0.4,1.6-1.3,1.8c0.5,0.1,1,0.3,1.3,0.7c0.3,0.4,0.5,0.8,0.5,1.4c0,1.6-1,2.3-2.9,2.3H347V379.6z
	 M347.9,380.5v2.8h2.2c1.2,0,1.8-0.5,1.8-1.4c0-0.4-0.1-0.8-0.4-1c-0.2-0.3-0.7-0.4-1.4-0.4H347.9z M347.9,384.1v3.1h2.6
	c1.2,0,1.9-0.5,1.9-1.5c0-0.5-0.2-0.8-0.5-1.1c-0.3-0.3-0.8-0.4-1.4-0.4H347.9z M355.9,383.9h2.1c0.9,0,1.5,0.2,1.8,0.6
	c0.4,0.4,0.6,0.9,0.6,1.4c0,0.3,0,0.5-0.1,0.7c-0.1,0.2-0.2,0.4-0.4,0.6c-0.2,0.2-0.4,0.4-0.7,0.5c-0.3,0.1-0.7,0.2-1.2,0.2H355v-6
	h0.9V383.9z M362,388h-0.9v-6h0.9V388z M355.9,387.2h2.1c1,0,1.4-0.4,1.4-1.2c0-0.8-0.5-1.2-1.4-1.2h-2.1V387.2z M366.4,383.3
	l-2.1,4.7h-0.9l2.8-6h0.5l2.8,6h-0.9L366.4,383.3z M373.4,381.9c0.6,0,1.2,0.2,1.7,0.5c0.5,0.3,0.8,0.7,1,1.3
	c0.1,0.2,0.2,0.5,0.2,0.8c0,0.3,0,0.5-0.1,0.7h-5c0,0.6,0.2,1.1,0.6,1.5c0.4,0.4,1,0.6,1.6,0.6c0.8,0,1.5-0.2,2.1-0.6l0.5,0.5
	c-0.8,0.6-1.6,0.9-2.5,0.9c-0.9,0-1.7-0.3-2.3-0.9c-0.6-0.6-0.9-1.3-0.9-2.2c0-0.9,0.3-1.6,0.8-2.2
	C371.7,382.2,372.5,381.9,373.4,381.9z M373.4,382.7c-0.6,0-1.1,0.2-1.5,0.6c-0.4,0.4-0.6,0.8-0.6,1.3h4.1c0-0.2,0-0.4-0.1-0.7
	c-0.2-0.4-0.4-0.7-0.7-0.9C374.2,382.8,373.8,382.7,373.4,382.7z M380.4,382.8v5.2h-0.9v-5.2h-2.2V382h5.3v0.8H380.4z M390.6,379.1
	v0.9c-0.6,0.4-1.1,1-1.5,1.8c-0.4,0.8-0.6,1.6-0.6,2.5v0.1c0,0.9,0.2,1.7,0.6,2.5c0.4,0.8,0.9,1.4,1.5,1.9v0.9
	c-0.9-0.5-1.6-1.2-2.2-2.1c-0.6-1-0.9-2-0.9-3.1v-0.1c0-1.1,0.3-2.1,0.9-3.1C389,380.2,389.8,379.5,390.6,379.1z M398.1,380.3
	l-3.1,2.8c0.2-0.1,0.5-0.1,0.9-0.1c0.8,0,1.4,0.3,1.8,0.7c0.4,0.4,0.6,1,0.6,1.6c0,0.8-0.3,1.5-0.8,2c-0.5,0.5-1.3,0.8-2.2,0.8h-0.1
	c-0.7,0-1.4-0.2-2-0.5c-0.6-0.3-1-0.7-1.3-1.3l0.6-0.6c0.6,1,1.5,1.4,2.7,1.4h0.1c0.6,0,1.1-0.2,1.5-0.6c0.4-0.4,0.6-0.8,0.6-1.4
	c0-1.1-0.7-1.7-2.1-1.7c-0.5,0-0.9,0.1-1.4,0.3l-0.5-0.4l3.2-2.8h-3.9v-0.9h5.3V380.3z M410.2,388h-0.9v-4.5l-2.2,2.5l-2.2-2.5v4.5
	H404v-6h0.5l2.6,2.9l2.6-2.9h0.5V388z M418.6,388h-0.9v-4.5l-2.2,2.5l-2.2-2.5v4.5h-0.9v-6h0.5l2.6,2.9l2.6-2.9h0.5V388z M420.4,380
	v-0.9c0.9,0.4,1.6,1.2,2.2,2.1c0.6,1,0.9,2,0.9,3.1v0.1c0,1.1-0.3,2.1-0.9,3.1c-0.6,1-1.3,1.7-2.2,2.1v-0.9c0.6-0.5,1.1-1.1,1.5-1.9
	c0.4-0.8,0.6-1.6,0.6-2.5v-0.1c0-0.9-0.2-1.7-0.6-2.5C421.5,381,421,380.4,420.4,380z M432.3,382.9l-0.4,0.3l-1-1.5l-1,1.5l-0.4-0.3
	l1.1-1.4l-1.6-0.4l0.1-0.5l1.6,0.5l0-1.7h0.5l0,1.7l1.6-0.5l0.1,0.5l-1.6,0.4L432.3,382.9z M444.2,388H438v-0.5l3.7-3.2
	c0.5-0.5,0.9-0.8,1.1-1.1c0.2-0.3,0.3-0.6,0.3-1c0-0.5-0.2-0.9-0.6-1.2s-0.8-0.4-1.4-0.4l-0.1,0c-0.9,0-1.7,0.4-2.3,1.1l-0.6-0.6
	c0.8-1,1.8-1.5,3-1.5h0.1c0.8,0,1.5,0.2,2,0.7c0.5,0.4,0.8,1,0.8,1.6c0,0.5-0.2,1-0.5,1.5c-0.3,0.4-0.8,1-1.6,1.6l-2.3,2.1h4.6V388z
	"/>
<rect x="263" y="1" class="st22" width="84" height="72"/>
<rect x="372" y="1" class="st22" width="83" height="72"/>
<path class="st23" d="M264,15h82"/>
<path class="st23" d="M443,72V14h-70"/>
<line class="st24" x1="284.7" y1="41.9" x2="278.8" y2="41.9"/>
<rect x="444" y="2" class="st25" width="10" height="70"/>
<line class="st24" x1="446.5" y1="41.9" x2="452.4" y2="41.9"/>
<line class="st24" x1="305.4" y1="25.2" x2="305.4" y2="19.2"/>
<path class="st26" d="M289,72V29h57"/>
<path class="st26" d="M430,72V29h-57"/>
<rect x="264" y="2" class="st25" width="82" height="12"/>
<rect x="373" y="2" class="st25" width="81" height="11"/>
<line class="st24" x1="413" y1="9.9" x2="413" y2="3.9"/>
<path class="st27" d="M308.3,44.4h-4.8v3.1c0.6-0.4,1.4-0.7,2.5-0.7c1,0,1.8,0.3,2.3,0.8c0.6,0.6,0.9,1.3,0.9,2.2
	c0,0.9-0.3,1.6-0.9,2.3c-0.6,0.6-1.5,0.9-2.5,0.9h-0.1c-0.9,0-1.6-0.2-2.3-0.5c-0.6-0.4-1.1-0.9-1.5-1.5l0.7-0.7
	c0.7,1.1,1.8,1.7,3.1,1.7h0.1c0.7,0,1.3-0.2,1.8-0.6c0.5-0.4,0.7-0.9,0.7-1.6c0-0.7-0.2-1.3-0.7-1.6c-0.4-0.4-1.1-0.6-1.9-0.6
	c-0.5,0-1,0.1-1.4,0.3c-0.5,0.2-0.8,0.4-1.1,0.6l-0.6-0.4v-4.7h5.8V44.4z M322.9,53h-1v-5.3l-2.6,2.9l-2.6-2.9V53h-1v-7h0.6l3,3.4
	l3-3.4h0.6V53z M332.7,53h-1v-5.3l-2.6,2.9l-2.6-2.9V53h-1v-7h0.6l3,3.4l3-3.4h0.6V53z"/>
<path class="st27" d="M391.9,44l-3.6,3.2c0.3-0.1,0.6-0.1,1.1-0.1c0.9,0.1,1.6,0.3,2.1,0.8c0.5,0.5,0.7,1.1,0.7,1.9
	c0,0.9-0.3,1.7-0.9,2.3c-0.6,0.6-1.5,0.9-2.5,0.9h-0.1c-0.9,0-1.6-0.2-2.3-0.6c-0.7-0.4-1.2-0.9-1.5-1.5l0.7-0.7
	c0.7,1.1,1.8,1.7,3.1,1.7h0.1c0.7,0,1.3-0.2,1.8-0.7c0.5-0.4,0.7-1,0.7-1.7c0-1.3-0.8-2-2.5-2c-0.5,0-1.1,0.1-1.6,0.4l-0.6-0.4
	l3.7-3.3h-4.5v-1h6.2V44z M405.9,53h-1v-5.3l-2.6,2.9l-2.6-2.9V53h-1v-7h0.6l3,3.4l3-3.4h0.6V53z M415.7,53h-1v-5.3l-2.6,2.9
	l-2.6-2.9V53h-1v-7h0.6l3,3.4l3-3.4h0.6V53z"/>
<path class="st28" d="M46,67h183"/>
<path d="M50.9,55.6c0.5,0.1,0.9,0.4,1.2,0.8c0.3,0.4,0.5,0.8,0.5,1.3c0,0.7-0.3,1.3-0.8,1.7s-1.2,0.7-2.1,0.7h-0.1
	c-0.9,0-1.6-0.2-2.1-0.6c-0.5-0.4-0.8-1-0.8-1.7c0-0.5,0.2-1,0.5-1.3c0.3-0.4,0.7-0.6,1.2-0.8c-0.9-0.3-1.4-0.9-1.4-1.8
	c0-0.6,0.2-1.1,0.7-1.5c0.5-0.4,1.1-0.6,1.9-0.6h0.1c0.8,0,1.4,0.2,1.8,0.6s0.7,0.9,0.7,1.5C52.3,54.7,51.8,55.3,50.9,55.6z
	 M48.4,52.9c-0.3,0.2-0.5,0.6-0.5,1s0.2,0.8,0.5,1c0.3,0.2,0.8,0.3,1.2,0.3c0.5,0,0.9-0.1,1.2-0.3c0.3-0.2,0.5-0.6,0.5-1
	s-0.2-0.8-0.5-1c-0.3-0.2-0.7-0.4-1.2-0.4C49.1,52.5,48.7,52.6,48.4,52.9z M49.6,59.2c0.6,0,1.1-0.1,1.5-0.4
	c0.4-0.3,0.6-0.7,0.6-1.2c0-0.5-0.2-0.9-0.6-1.2c-0.4-0.3-0.9-0.4-1.5-0.5c-0.2,0-0.4,0-0.6,0.1c-0.2,0-0.4,0.1-0.7,0.3
	c-0.2,0.1-0.4,0.3-0.6,0.5c-0.1,0.2-0.2,0.5-0.2,0.8c0,0.5,0.2,0.9,0.6,1.2C48.5,59.1,49,59.2,49.6,59.2z M57,56.8h-3v-0.6h3V56.8z
	 M60.9,60H60v-6.5l-1.1,1.3l-0.6-0.5l2.1-2.5h0.5V60z M64.3,52.9c0.8-0.8,1.8-1.2,3-1.2c1.2,0,2.2,0.4,3,1.2c0.8,0.8,1.2,1.8,1.2,3
	s-0.4,2.2-1.2,3c-0.8,0.8-1.8,1.2-3,1.2c-1.2,0-2.1-0.4-3-1.2c-0.8-0.8-1.2-1.8-1.2-3S63.5,53.7,64.3,52.9z M69.6,53.5
	c-0.6-0.6-1.4-0.9-2.3-0.9c-0.9,0-1.7,0.3-2.3,0.9c-0.6,0.6-0.9,1.4-0.9,2.4s0.3,1.7,0.9,2.4c0.6,0.6,1.4,0.9,2.3,0.9
	c0.9,0,1.7-0.3,2.3-0.9c0.6-0.6,0.9-1.4,0.9-2.4S70.2,54.2,69.6,53.5z M83.4,60h-0.9v-4.5L80.4,58l-2.2-2.5V60h-0.9v-6h0.5l2.6,2.9
	l2.6-2.9h0.5V60z M91.8,60H91v-4.5L88.7,58l-2.2-2.5V60h-0.9v-6h0.5l2.6,2.9l2.6-2.9h0.5V60z M100.6,51.1V52c-0.6,0.4-1.1,1-1.5,1.8
	c-0.4,0.8-0.6,1.6-0.6,2.5v0.1c0,0.9,0.2,1.7,0.6,2.5c0.4,0.8,0.9,1.4,1.5,1.9v0.9c-0.9-0.5-1.6-1.2-2.2-2.1c-0.6-1-0.9-2-0.9-3.1
	v-0.1c0-1.1,0.3-2.1,0.9-3.1C99,52.2,99.7,51.5,100.6,51.1z M107.9,60H107v-5.2h-3.7V60h-0.9v-6h5.4V60z M112.8,53.9
	c0.9,0,1.6,0.3,2.2,0.9c0.6,0.6,0.9,1.3,0.9,2.2s-0.3,1.6-0.9,2.2c-0.6,0.6-1.3,0.9-2.2,0.9s-1.6-0.3-2.2-0.9
	c-0.6-0.6-0.9-1.3-0.9-2.2c0-0.9,0.3-1.6,0.9-2.2C111.2,54.2,112,53.9,112.8,53.9z M112.8,54.8c-0.6,0-1.1,0.2-1.5,0.6
	c-0.4,0.4-0.6,1-0.6,1.6s0.2,1.2,0.6,1.6c0.4,0.4,1,0.6,1.6,0.6s1.1-0.2,1.6-0.6c0.4-0.4,0.6-1,0.6-1.6s-0.2-1.2-0.6-1.6
	C113.9,55,113.4,54.8,112.8,54.8z M119.8,55.3l-2.1,4.7h-0.9l2.8-6h0.5l2.8,6h-0.9L119.8,55.3z M126.7,53.9c0.6,0,1.2,0.2,1.7,0.5
	c0.5,0.3,0.8,0.7,1,1.3c0.1,0.2,0.2,0.5,0.2,0.8c0,0.3,0,0.5-0.1,0.7h-5c0,0.6,0.2,1.1,0.6,1.5c0.4,0.4,1,0.6,1.6,0.6
	c0.8,0,1.5-0.2,2.1-0.6l0.5,0.5c-0.8,0.6-1.6,0.9-2.5,0.9c-0.9,0-1.7-0.3-2.3-0.9s-0.9-1.3-0.9-2.2c0-0.9,0.3-1.6,0.8-2.2
	C125.1,54.2,125.8,53.9,126.7,53.9z M126.7,54.7c-0.6,0-1.1,0.2-1.5,0.6c-0.4,0.4-0.6,0.8-0.6,1.3h4.1c0-0.2,0-0.4-0.1-0.7
	c-0.2-0.4-0.4-0.7-0.7-0.9C127.5,54.8,127.2,54.7,126.7,54.7z M140.7,60h-0.9v-5.2h-3.7V60h-0.9v-6h5.4V60z M145.7,53.9
	c0.9,0,1.6,0.3,2.2,0.9c0.6,0.6,0.9,1.3,0.9,2.2s-0.3,1.6-0.9,2.2c-0.6,0.6-1.3,0.9-2.2,0.9c-0.9,0-1.6-0.3-2.2-0.9
	c-0.6-0.6-0.9-1.3-0.9-2.2c0-0.9,0.3-1.6,0.9-2.2C144.1,54.2,144.8,53.9,145.7,53.9z M145.7,54.8c-0.6,0-1.1,0.2-1.5,0.6
	c-0.4,0.4-0.6,1-0.6,1.6s0.2,1.2,0.6,1.6c0.4,0.4,1,0.6,1.6,0.6s1.1-0.2,1.6-0.6c0.4-0.4,0.6-1,0.6-1.6s-0.2-1.2-0.6-1.6
	C146.8,55,146.3,54.8,145.7,54.8z M156.7,61.3h-0.9V60h-5.2v1.3h-0.9v-2.2h0.8L153,54h0.5l2.4,5.2h0.8V61.3z M153.2,55.3l-1.7,3.8
	h3.5L153.2,55.3z M167.5,60h-0.9v-5.2H163V60h-0.9v-6h5.4V60z M172.9,53.9c0.8,0,1.6,0.3,2.1,0.9c0.6,0.6,0.9,1.3,0.9,2.2
	s-0.3,1.6-0.9,2.2c-0.6,0.6-1.3,0.9-2.1,0.9c-0.5,0-0.9-0.1-1.3-0.3c-0.4-0.2-0.7-0.6-0.9-0.9v3.4h-0.9V54h0.6l0,1.4
	c0.2-0.4,0.6-0.8,1-1S172.4,53.9,172.9,53.9z M172.8,54.8c-0.6,0-1.1,0.2-1.6,0.6c-0.4,0.4-0.6,1-0.6,1.6s0.2,1.2,0.6,1.6
	c0.4,0.4,1,0.6,1.6,0.6c0.6,0,1.1-0.2,1.5-0.6c0.4-0.4,0.6-1,0.6-1.6s-0.2-1.2-0.6-1.6C173.9,55,173.4,54.8,172.8,54.8z M183.4,54
	v5.2c0,0.9-0.3,1.7-0.8,2.2c-0.5,0.6-1.2,0.8-2.1,0.8c-1,0-1.8-0.3-2.6-0.9l0.5-0.6c0.7,0.4,1.3,0.7,2.1,0.7c0.7,0,1.2-0.2,1.5-0.5
	c0.4-0.4,0.5-0.9,0.5-1.5v-0.7c-0.2,0.4-0.5,0.8-0.9,1c-0.4,0.2-0.8,0.3-1.3,0.3c-0.8,0-1.5-0.3-1.9-0.8c-0.5-0.5-0.7-1.2-0.7-2.1
	V54h0.9v3.1c0,0.7,0.2,1.2,0.5,1.5c0.3,0.3,0.8,0.5,1.4,0.5c0.6,0,1.1-0.2,1.5-0.6c0.4-0.4,0.6-1,0.6-1.8V54H183.4z M193.5,60
	l-1-1.5c-0.3-0.5-0.6-0.8-0.7-0.9c-0.2-0.2-0.5-0.2-0.9-0.2h-0.8V60h-0.9v-2.7h-0.8c-0.4,0-0.7,0.1-0.9,0.2
	c-0.2,0.2-0.4,0.5-0.7,0.9l-1,1.5h-1l1.2-1.9c0.2-0.4,0.5-0.7,0.6-0.9c0.2-0.2,0.4-0.3,0.6-0.4c-0.2-0.1-0.3-0.2-0.5-0.4
	c-0.2-0.2-0.3-0.4-0.6-0.8l-1.1-1.7h1l0.9,1.3c0.3,0.5,0.5,0.8,0.7,0.9c0.2,0.2,0.5,0.2,0.9,0.2h0.6V54h0.9v2.5h0.6
	c0.4,0,0.7-0.1,0.9-0.2c0.2-0.2,0.4-0.5,0.7-0.9l0.9-1.3h1l-1.1,1.7c-0.2,0.4-0.4,0.6-0.6,0.8c-0.2,0.2-0.3,0.3-0.5,0.4
	c0.2,0.1,0.4,0.2,0.6,0.4c0.2,0.2,0.4,0.5,0.6,0.9l1.2,1.9H193.5z M201.4,60h-0.9v-4.5l-4,4.5h-0.5v-6h0.9v4.5l4-4.5h0.5V60z
	 M209.1,60h-0.9v-2.6h-3.7V60h-0.9v-6h0.9v2.6h3.7V54h0.9V60z M215.8,60l-1-1.5c-0.3-0.5-0.6-0.8-0.7-0.9c-0.2-0.2-0.5-0.2-0.9-0.2
	h-0.9V60h-0.9v-6h0.9v2.5h0.8c0.4,0,0.7-0.1,0.9-0.2c0.2-0.2,0.4-0.5,0.7-0.9l0.9-1.3h1l-1.1,1.7c-0.2,0.4-0.4,0.6-0.6,0.8
	c-0.2,0.2-0.3,0.3-0.5,0.4c0.2,0.1,0.4,0.2,0.6,0.4c0.2,0.2,0.4,0.5,0.6,0.9l1.2,1.9H215.8z M223.9,54v5.2c0,0.9-0.3,1.7-0.8,2.2
	c-0.5,0.6-1.2,0.8-2.1,0.8c-1,0-1.8-0.3-2.6-0.9l0.5-0.6c0.7,0.4,1.3,0.7,2.1,0.7c0.7,0,1.2-0.2,1.5-0.5c0.4-0.4,0.5-0.9,0.5-1.5
	v-0.7c-0.2,0.4-0.5,0.8-0.9,1c-0.4,0.2-0.8,0.3-1.3,0.3c-0.8,0-1.5-0.3-1.9-0.8c-0.5-0.5-0.7-1.2-0.7-2.1V54h0.9v3.1
	c0,0.7,0.2,1.2,0.5,1.5c0.3,0.3,0.8,0.5,1.4,0.5c0.6,0,1.1-0.2,1.5-0.6c0.4-0.4,0.6-1,0.6-1.8V54H223.9z M225.7,52v-0.9
	c0.9,0.4,1.6,1.2,2.2,2.1c0.6,1,0.9,2,0.9,3.1v0.1c0,1.1-0.3,2.1-0.9,3.1c-0.6,1-1.3,1.7-2.2,2.1v-0.9c0.6-0.5,1.1-1.1,1.5-1.9
	c0.4-0.8,0.6-1.6,0.6-2.5v-0.1c0-0.9-0.2-1.7-0.6-2.5C226.7,53,226.2,52.4,225.7,52z"/>
<line class="st24" x1="241" y1="76.5" x2="232" y2="76.5"/>
<path class="st16" d="M264,36c4.1,0,7.5-3.4,7.5-7.5S268.1,21,264,21l0,6.5C264,31.6,264,32.5,264,36z"/>
<path class="st16" d="M264,67c4.1,0,7.5-3.4,7.5-7.5S268.1,52,264,52l0,6.5C264,62.6,264,63.5,264,67z"/>
<path class="st29" d="M275,71.5V1"/>
<path class="st11" d="M302,25l3.1,4l2.9-4H302z"/>
<path class="st11" d="M410,9l3.1,4l2.9-4H410z"/>
<path class="st11" d="M302,20l3.1-4l2.9,4H302z"/>
<path class="st11" d="M410,6l3.1-4l2.9,4H410z"/>
<path class="st11" d="M450,39l4,3.1l-4,2.9V39z"/>
<path class="st11" d="M448,39l-4,3.1l4,2.9V39z"/>
<path class="st11" d="M284,39l4,3.1l-4,2.9V39z"/>
<path class="st11" d="M279,39l-4,3.1l4,2.9V39z"/>
</svg>
