<svg width="254" height="270" viewBox="0 0 254 270" fill="none" xmlns="http://www.w3.org/2000/svg">
<path d="M246 63L239 53" stroke="#E65420" stroke-width="2" stroke-miterlimit="10"/>
<path d="M227 35L220 25" stroke="#E65420" stroke-width="2" stroke-miterlimit="10"/>
<path d="M73 258L78.2011 264L83 258H73Z" fill="#E65420"/>
<path d="M73 12L78.2011 6L83 12H73Z" fill="#E65420"/>
<path d="M78 11L78 205" stroke="#E65420" stroke-width="2" stroke-miterlimit="10"/>
<path d="M78 235L78 259" stroke="#E65420" stroke-width="2" stroke-miterlimit="10"/>
<path d="M117 104H59" stroke="#E65420" stroke-width="2" stroke-miterlimit="10"/>
<path d="M183 104H139" stroke="#E65420" stroke-width="2" stroke-miterlimit="10"/>
<path d="M124.448 108.232L122.912 112H120.056L126.992 95.2H128.504L135.368 112H132.512L131 108.232H124.448ZM127.736 99.928L125.36 105.784H130.112L127.736 99.928Z" fill="black"/>
<path d="M249.547 59L249.557 66.9405L241.999 65.5597L249.547 59Z" fill="#E65420"/>
<path d="M71.616 212.2H77.904C78.816 212.2 79.624 212.296 80.328 212.488C81.032 212.68 81.576 212.928 81.96 213.232C82.36 213.52 82.68 213.872 82.92 214.288C83.176 214.688 83.344 215.072 83.424 215.44C83.504 215.808 83.544 216.192 83.544 216.592C83.544 218.432 82.744 219.64 81.144 220.216C82.136 220.424 82.912 220.888 83.472 221.608C84.032 222.328 84.312 223.216 84.312 224.272C84.312 227.424 82.296 229 78.264 229H71.616V212.2ZM74.208 214.648V219.208H78.168C80.104 219.208 81.072 218.448 81.072 216.928C81.072 215.408 80.104 214.648 78.168 214.648H74.208ZM74.208 221.44V226.552H78.792C80.824 226.552 81.84 225.704 81.84 224.008C81.84 223.24 81.584 222.624 81.072 222.16C80.576 221.68 79.816 221.44 78.792 221.44H74.208Z" fill="black"/>
<path d="M87.1849 0.524138L86.8877 0.708303C86.9018 0.72247 89.9018 5.92159 95.3215 11.1207C100.741 16.3198 108.609 21.5473 118.345 21.5473C128.038 21.5473 139.514 16.3482 152.122 0.949135L151.853 0.72247V1.07663C151.853 1.07663 151.981 1.07663 152.25 1.0908C156.254 1.23247 189.551 3.55578 217.512 40.9838L217.796 40.7713L217.498 40.9696L240.026 74.6151L201.947 107.751L188.843 95.3408L188.489 95.2699C188.362 95.3124 188.277 95.4258 188.249 95.5533C188.249 95.5674 184.57 120.968 184.57 144.201C184.57 153.494 185.15 162.433 186.82 169.276C192.126 191.149 195.904 239.145 195.904 254.969C195.904 256.315 195.876 257.434 195.82 258.27L196.173 258.298L196.074 257.958C196.074 257.958 195.508 258.128 194.433 258.412C186.876 260.452 154.301 268.64 117.609 269.136C116.986 269.15 116.364 269.15 115.741 269.15C92.1234 269.15 65.973 263.214 46.3743 257.958L46.2894 258.298H46.6432C46.6432 258.298 46.6432 257.193 46.6574 255.21C46.7281 248.283 47.0111 230.716 48.313 212.881C48.9639 203.956 49.8554 194.974 51.1148 187.225C52.3601 179.476 53.9732 172.945 55.9826 168.993L56.0109 168.908C56.0109 168.893 58.4732 156.455 58.4732 140.235C58.4732 127.329 56.9166 112.043 51.2988 98.7124L51.0299 98.4999L50.7044 98.6274L39.8933 111.618L40.1622 111.845L40.3745 111.561C40.3745 111.561 39.4547 110.839 37.9688 109.649C33.5255 106.107 24.0587 98.3866 19.4598 93.6691C13.2476 87.2942 0.738437 77.6468 0.724287 77.6326L0.512027 77.9159L0.79504 78.1284L34.4453 33.0788L34.4736 33.0363L34.5727 32.8663C35.5915 31.1664 45.4687 16.4048 87.3122 0.864135L87.1849 0.524138L87.0575 0.198308C42.3272 16.8015 33.8935 32.6113 33.851 32.6963L34.1623 32.8663L33.8793 32.6538L0.229013 77.7034C0.115808 77.8593 0.144109 78.0859 0.299767 78.1993C0.299767 78.1993 1.07805 78.8084 2.35161 79.8001C6.15814 82.8034 14.3514 89.4333 18.9645 94.1508C25.1766 100.526 39.9358 112.1 39.9358 112.1C40.0914 112.213 40.3037 112.199 40.4311 112.043L51.2422 99.0524L50.9733 98.8257L50.6478 98.9674C56.209 112.171 57.7656 127.371 57.7656 140.22C57.7656 148.295 57.1571 155.435 56.5345 160.549C56.2232 163.113 55.926 165.168 55.6855 166.57C55.4591 167.987 55.3034 168.752 55.3034 168.752L55.6572 168.823L55.3459 168.667C52.9685 173.342 51.2139 181.247 49.8979 190.512C45.9357 218.306 45.9498 258.27 45.9357 258.284C45.9357 258.44 46.0489 258.582 46.2045 258.624C65.8315 263.894 92.0244 269.844 115.755 269.844C116.392 269.844 117.014 269.844 117.637 269.83C159.693 269.263 196.286 258.624 196.301 258.624C196.442 258.582 196.541 258.454 196.555 258.313C196.612 257.448 196.64 256.329 196.64 254.969C196.64 239.046 192.862 191.107 187.541 169.106C185.9 162.348 185.32 153.452 185.32 144.187C185.32 132.613 186.24 120.472 187.159 111.221C187.612 106.603 188.079 102.707 188.419 99.959C188.758 97.2107 188.985 95.6383 188.999 95.6383L188.645 95.5816L188.405 95.8366L201.734 108.459C201.862 108.586 202.074 108.586 202.216 108.473L240.776 74.9268C240.904 74.8135 240.932 74.6151 240.833 74.4593L229.484 57.502L218.135 40.5446L218.121 40.5304C188.122 0.368305 151.952 0.339973 151.896 0.339973L151.627 0.467472C139.089 15.7673 127.826 20.8106 118.401 20.8106C108.934 20.8106 101.222 15.7107 95.8592 10.5824C93.1847 8.01824 91.1046 5.45409 89.6895 3.52744C88.982 2.56412 88.4443 1.77079 88.0905 1.20413C87.7226 0.651637 87.5528 0.325807 87.5528 0.325807C87.4679 0.169975 87.2839 0.113309 87.1283 0.169975L87.1849 0.524138Z" fill="#12110C"/>
<path d="M87.1849 0.524138L86.8877 0.708303C86.9018 0.72247 89.9018 5.92159 95.3215 11.1207C100.741 16.3198 108.609 21.5473 118.345 21.5473C128.038 21.5473 139.514 16.3482 152.122 0.949135L151.853 0.72247V1.07663C151.853 1.07663 151.981 1.07663 152.25 1.0908C156.254 1.23247 189.551 3.55578 217.512 40.9838L217.796 40.7713L217.498 40.9696L240.026 74.6151L201.947 107.751L188.843 95.3408L188.489 95.2699C188.362 95.3124 188.277 95.4258 188.249 95.5533C188.249 95.5674 184.57 120.968 184.57 144.201C184.57 153.494 185.15 162.433 186.82 169.276C192.126 191.149 195.904 239.145 195.904 254.969C195.904 256.315 195.876 257.434 195.82 258.27L196.173 258.298L196.074 257.958C196.074 257.958 195.508 258.128 194.433 258.412C186.876 260.452 154.301 268.64 117.609 269.136C116.986 269.15 116.364 269.15 115.741 269.15C92.1234 269.15 65.973 263.214 46.3743 257.958L46.2894 258.298H46.6432C46.6432 258.298 46.6432 257.193 46.6574 255.21C46.7281 248.283 47.0111 230.716 48.313 212.881C48.9639 203.956 49.8554 194.974 51.1148 187.225C52.3601 179.476 53.9732 172.945 55.9826 168.993L56.0109 168.908C56.0109 168.893 58.4732 156.455 58.4732 140.235C58.4732 127.329 56.9166 112.043 51.2988 98.7124L51.0299 98.4999L50.7044 98.6274L39.8933 111.618L40.1622 111.845L40.3745 111.561C40.3745 111.561 39.4547 110.839 37.9688 109.649C33.5255 106.107 24.0587 98.3866 19.4598 93.6691C13.2476 87.2942 0.738437 77.6468 0.724287 77.6326L0.512027 77.9159L0.79504 78.1284L34.4453 33.0788L34.4736 33.0363L34.5727 32.8663C35.5915 31.1664 45.4687 16.4048 87.3122 0.864135L87.1849 0.524138ZM87.1849 0.524138L87.0575 0.198308C42.3272 16.8015 33.8934 32.6113 33.851 32.6963L34.1623 32.8663L33.8793 32.6538L0.229013 77.7034C0.115808 77.8593 0.144109 78.0859 0.299767 78.1993C0.299767 78.1993 1.07805 78.8084 2.35161 79.8001C6.15814 82.8034 14.3514 89.4333 18.9645 94.1508C25.1766 100.526 39.9358 112.1 39.9358 112.1C40.0914 112.213 40.3037 112.199 40.4311 112.043L51.2422 99.0524L50.9733 98.8257L50.6478 98.9674C56.2091 112.171 57.7656 127.371 57.7656 140.22C57.7656 148.295 57.1571 155.435 56.5345 160.549C56.2232 163.113 55.926 165.168 55.6855 166.57C55.4591 167.987 55.3034 168.752 55.3034 168.752L55.6572 168.823L55.3459 168.667C52.9685 173.342 51.2139 181.247 49.8979 190.512C45.9357 218.306 45.9498 258.27 45.9357 258.284C45.9357 258.44 46.0489 258.582 46.2045 258.624C65.8315 263.894 92.0244 269.844 115.755 269.844C116.392 269.844 117.014 269.844 117.637 269.83C159.693 269.263 196.286 258.624 196.301 258.624C196.442 258.582 196.541 258.454 196.555 258.313C196.612 257.448 196.64 256.329 196.64 254.969C196.64 239.046 192.862 191.107 187.541 169.106C185.9 162.348 185.32 153.452 185.32 144.187C185.32 132.613 186.24 120.472 187.159 111.221C187.612 106.603 188.079 102.707 188.419 99.959C188.758 97.2107 188.985 95.6383 188.999 95.6383L188.645 95.5816L188.405 95.8366L201.734 108.459C201.862 108.586 202.074 108.586 202.216 108.473L240.776 74.9268C240.904 74.8135 240.932 74.6151 240.833 74.4593L229.484 57.502L218.135 40.5446L218.121 40.5304C188.122 0.368305 151.952 0.339973 151.896 0.339973L151.627 0.467472C139.089 15.7673 127.826 20.8106 118.401 20.8106C108.934 20.8106 101.222 15.7107 95.8592 10.5824C93.1847 8.01824 91.1046 5.45409 89.6895 3.52744C88.982 2.56412 88.4443 1.77079 88.0905 1.20413C87.7226 0.651637 87.5528 0.325807 87.5528 0.325807C87.4679 0.169975 87.2839 0.113309 87.1283 0.169975L87.1849 0.524138Z" stroke="black" stroke-width="0.216" stroke-miterlimit="10"/>
<path d="M86.9979 0.821657C87.0403 0.84999 98.6014 8.28742 117.988 8.28742C127.568 8.28742 139.058 6.4741 151.992 1.03416C152.176 0.963323 152.261 0.750824 152.176 0.56666C152.105 0.382495 151.893 0.297495 151.709 0.382495C138.86 5.77994 127.469 7.57909 117.988 7.57909C108.38 7.57909 100.724 5.73744 95.4741 3.8958C92.8421 2.97497 90.8185 2.05415 89.4459 1.35999C88.7667 1.01999 88.2431 0.722491 87.8894 0.52416C87.5356 0.325828 87.3799 0.212496 87.3799 0.212496C87.2101 0.0991638 86.9979 0.15583 86.8847 0.325828C86.7856 0.495827 86.8281 0.722491 86.9979 0.821657Z" fill="#12110C" stroke="black" stroke-width="0.216" stroke-miterlimit="10"/>
<path d="M83.1229 2.05414C83.1371 2.0683 86.5474 7.87658 92.6605 13.6849C98.7736 19.4931 107.589 25.3439 118.386 25.3439C129.367 25.3439 142.301 19.2948 156.381 1.27498C156.508 1.11914 156.48 0.89248 156.324 0.779147C156.169 0.651648 155.942 0.679981 155.829 0.835813C141.806 18.7565 129.084 24.6214 118.386 24.6214C107.844 24.6214 99.1839 18.9123 93.1416 13.1607C90.1275 10.2849 87.7644 7.40909 86.1653 5.25577C85.3729 4.17912 84.7503 3.28662 84.3399 2.64913C83.9295 2.0258 83.7173 1.67164 83.7173 1.67164C83.6182 1.50164 83.406 1.44497 83.2361 1.54414C83.0663 1.67164 83.0239 1.88414 83.1229 2.05414Z" fill="#12110C" stroke="black" stroke-width="0.216" stroke-miterlimit="10"/>
<path d="M91.313 7.02658C91.3554 7.05492 100.384 12.7074 116.742 12.7074C124.921 12.7074 134.925 11.2907 146.529 7.05492C146.713 6.98408 146.812 6.78575 146.741 6.60159C146.67 6.41742 146.472 6.31826 146.288 6.38909C134.756 10.5966 124.836 11.999 116.742 11.999C108.648 11.999 102.379 10.5966 98.1336 9.20823C95.9969 8.4999 94.3837 7.80574 93.3082 7.28158C92.7705 7.02658 92.3601 6.79992 92.0913 6.65825C91.8224 6.50242 91.6951 6.43159 91.6951 6.43159C91.5253 6.33242 91.313 6.37492 91.2139 6.54492C91.0866 6.70075 91.1432 6.92742 91.313 7.02658Z" fill="#12110C" stroke="black" stroke-width="0.216" stroke-miterlimit="10"/>
<path d="M33.8181 32.9939C33.8181 32.9939 34.087 33.7022 34.5398 34.9913C36.153 39.4963 40.1576 51.0279 43.7802 63.6077C47.3886 76.1876 50.6008 89.83 50.6008 98.4857V98.8399C50.6008 99.0382 50.7565 99.1941 50.9546 99.1941C51.1527 99.1941 51.3083 99.0382 51.3083 98.8399V98.4857C51.3083 88.4133 47.0914 72.0085 42.8887 58.0828C38.6859 44.1571 34.4832 32.753 34.4832 32.7389C34.4124 32.5547 34.2143 32.4555 34.0304 32.5264C33.8464 32.5972 33.7615 32.8097 33.8181 32.9939Z" fill="#12110C" stroke="black" stroke-width="0.216" stroke-miterlimit="10"/>
<path d="M207.89 29.8914C207.89 29.8914 202.881 41.3096 197.886 55.2353C192.877 69.161 187.867 85.5659 187.867 95.6525V96.0066C187.867 96.2049 188.023 96.3608 188.221 96.3608C188.419 96.3608 188.575 96.1908 188.575 96.0066V95.6525C188.575 85.7784 193.556 69.3594 198.551 55.4762C201.056 48.5346 203.546 42.2021 205.414 37.6122C206.348 35.3172 207.126 33.4614 207.678 32.1722C208.23 30.8831 208.527 30.1747 208.541 30.1747C208.612 29.9906 208.541 29.7922 208.357 29.7072C208.173 29.6364 207.961 29.7072 207.89 29.8914Z" fill="#12110C" stroke="black" stroke-width="0.216" stroke-miterlimit="10"/>
<path d="M180 99L186 104.201L180 109L180 99Z" fill="#E65420"/>
<path d="M60 99L54 104.201L60 109L60 99Z" fill="#E65420"/>
<path d="M224.484 22.5287L216.623 21.4118L216.937 29.0884L224.484 22.5287Z" fill="#E65420"/>
<path d="M240.916 38.9533C242.362 40.9878 242.829 43.247 242.317 45.7306L240.073 45.2649C240.371 43.5024 239.987 41.8712 238.921 40.3714C237.948 39.002 236.651 38.1861 235.032 37.9236C233.435 37.665 231.919 38.0454 230.484 39.065C229.037 40.0938 228.172 41.4049 227.892 42.9982C227.62 44.6045 227.971 46.0924 228.944 47.4618C230.028 48.9878 231.442 49.8867 233.186 50.1587L232.888 52.4318C230.374 52.0985 228.394 50.9145 226.948 48.8799C225.577 46.9497 225.087 44.8245 225.479 42.5042C225.885 40.1746 227.053 38.3239 228.983 36.9522C230.913 35.5804 233.038 35.0908 235.359 35.4832C237.692 35.8664 239.545 37.0231 240.916 38.9533Z" fill="black"/>
</svg>
