<svg width="417" height="155" viewBox="0 0 417 155" fill="none" xmlns="http://www.w3.org/2000/svg">
<path d="M60.7698 45.706C61.2581 46.9317 61.6489 48.4025 61.893 50.1674C62.1861 51.9324 62.3814 53.4522 62.528 54.7269C62.6745 56.0016 63.114 57.3253 63.8954 58.7471C64.6769 60.1689 65.8002 61.3455 67.3142 62.3261C67.8514 63.9439 67.4118 65.7089 65.9467 67.6209C64.4815 69.533 62.6256 70.3664 60.2814 70.0233C58.7185 69.533 57.3999 68.6505 56.3742 67.3758C55.2998 66.1502 54.5184 64.6793 54.03 62.9634C53.5416 61.2475 53.1509 59.6296 52.9067 58.0607C52.6625 56.4919 52.4183 54.874 52.2718 53.1091C52.0764 51.3441 51.9299 50.1184 51.7834 49.4811C51.4904 48.2064 51.1485 47.2258 50.6601 46.5885C50.2205 45.9512 49.4391 45.5099 48.3647 45.1667C47.6321 47.8142 46.8507 50.0694 46.0204 51.8834C45.1901 53.6974 44.1645 55.4623 42.8947 57.1292C41.6249 58.7961 40.0621 60.0218 38.2062 60.8553C36.3503 61.6887 34.1526 62.0809 31.6618 62.0809C27.0709 62.0809 23.9452 60.5121 22.187 57.4234C20.8195 55.0701 20.6242 52.6188 21.6498 50.1184C22.5777 47.7161 24.2871 46.3434 26.6802 45.9512C26.9732 45.9021 27.3151 45.9021 27.6081 45.9021C28.7803 46.0492 29.8547 46.5395 30.8804 47.2749C31.8571 48.0593 32.3944 48.9908 32.4432 50.1184C31.2711 51.148 30.7338 52.3246 30.7827 53.6483C30.8315 54.923 31.4176 55.6584 32.5409 55.7075C33.8595 55.8055 35.1293 54.3347 36.3503 51.3931C37.5713 48.4515 38.8411 44.2352 40.1109 38.8423C41.4296 33.4493 42.3087 30.0665 42.797 28.6447C42.211 29.3801 41.1854 29.9684 39.769 30.4097C38.3527 30.9 36.9852 31.3902 35.7642 31.9785C34.4944 32.5669 33.713 33.3023 33.3711 34.2828C33.0781 34.9692 32.9804 35.7536 33.1758 36.538C33.3711 37.3224 33.8107 37.8617 34.4456 38.1069C34.5921 38.8423 34.4456 39.6757 34.0549 40.5582C33.6153 41.4897 33.0781 42.1761 32.4432 42.6664C29.6594 43.3527 27.1198 42.9115 24.8732 41.3426C22.5777 39.7248 21.7475 37.5186 22.2847 34.675C22.6266 32.91 23.4568 31.4883 24.7755 30.4097C26.0941 29.3311 27.657 28.5467 29.464 28.0074C31.2711 27.5171 33.1269 27.0268 35.0317 26.6346C36.9364 26.2424 38.8411 25.6541 40.7458 24.8206C42.6505 24.0362 44.1645 22.9576 45.239 21.6829C46.3134 20.9966 48.0716 20.8495 50.4647 21.1436C52.8579 21.4378 54.1277 21.9771 54.323 22.7125C54.1277 23.3989 52.7602 28.5957 50.1717 38.254C51.2462 37.8127 52.2718 37.2734 53.1997 36.6851C54.1277 36.0478 54.9091 35.3124 55.5928 34.4789C56.2766 33.6454 56.8138 32.861 57.3022 32.1746C57.7906 31.4883 58.2301 30.5568 58.6697 29.4782C59.0604 28.3996 59.4023 27.5661 59.5976 27.0268C59.793 26.4385 60.0372 25.6051 60.3302 24.4775C60.5744 23.3498 60.7698 22.6144 60.8674 22.3693C62.0884 21.4378 63.9931 21.0456 66.6793 21.1927C69.3166 21.3397 70.9771 21.83 71.5631 22.6635C69.3654 32.861 64.7745 39.2835 57.7417 41.98C59.1092 42.9115 60.1348 44.1372 60.7698 45.706Z" stroke="#E25D23"/>
<path d="M84.7501 36.2931C87.6804 35.9499 90.7084 36.097 93.7853 36.6853C96.8621 37.2736 99.2552 38.5483 101.013 40.3133C101.258 41.2448 100.818 42.3724 99.7436 43.5981C98.6203 44.9218 97.7412 45.5101 97.0575 45.412C94.8109 43.549 91.8805 42.6665 88.2176 42.7646C86.4106 42.7646 84.7989 43.451 83.2849 44.7747C81.8197 46.0984 80.7453 47.8144 80.1104 49.8735C78.9382 53.8446 79.1824 55.7567 80.7941 55.5606C81.8686 55.4625 82.9919 54.3349 84.164 52.2268C85.3361 50.1186 86.3618 47.9124 87.192 45.7062C88.2665 45.1669 89.927 45.1179 92.0759 45.6572C94.2248 46.1474 95.5923 46.7848 96.1295 47.5202C95.8365 48.4027 95.4458 49.5303 94.9574 51.0011C94.1271 54.0407 94.5178 55.6096 96.0807 55.6096C97.3505 55.5606 98.6691 55.0213 99.9878 54.0407C101.306 53.0112 102.381 51.7365 103.309 50.1676C103.553 49.9225 103.895 49.9225 104.334 50.0696C104.774 50.2167 105.214 50.5108 105.604 50.903C105.995 51.2952 106.141 51.5894 106.093 51.7365C101.941 58.7963 96.7156 62.2282 90.3177 62.0811C86.5083 61.9831 85.0919 59.6298 86.0199 55.1193C85.3361 56.394 84.7012 57.5216 84.0175 58.4041C83.3337 59.2866 82.3081 60.12 80.8918 60.9045C79.5243 61.6889 77.9126 62.0321 76.1544 62.0321C70.1472 62.0321 67.4123 58.8944 67.9495 52.619C68.2425 49.4322 69.317 46.5887 71.2705 44.1373C73.2241 41.637 75.3242 39.774 77.6684 38.5973C80.0127 37.4207 82.4058 36.6363 84.7501 36.2931Z" stroke="#E25D23"/>
<path d="M120.398 62.0807C117.175 62.2278 115.123 61.1492 114.147 58.7469C113.17 56.3936 113.072 52.7166 113.902 47.8139H113.805C112.193 51.8832 110.728 56.1485 109.409 60.5609C109.165 61.2963 107.749 61.7865 105.063 62.0317C101.986 62.3258 100.081 62.0317 99.2996 61.1492C99.0554 60.855 99.0065 60.5609 99.1042 60.2177C101.742 51.638 105.746 44.0389 111.216 37.3712C111.705 36.7829 113.023 36.3907 115.075 36.1946C117.126 35.9985 119.128 36.0966 120.984 36.4397C122.84 36.832 123.719 37.3712 123.67 38.1066C122.498 42.8132 121.912 46.8824 121.961 50.3633C122.01 53.7952 122.84 55.5602 124.403 55.6092C126.454 55.6582 128.701 53.7952 131.143 50.0201C131.387 49.6769 131.924 49.775 132.705 50.3633C133.536 50.9516 133.878 51.3929 133.829 51.687C129.824 58.4037 125.331 61.8846 120.398 62.0807Z" stroke="#E25D23"/>
<path d="M150.145 36.8321C150.78 36.1458 152.538 35.9006 155.419 36.0477C158.301 36.1948 160.157 36.8321 160.938 38.0088C160.694 39.1364 160.352 40.6072 159.864 42.3721C159.375 44.1371 158.984 45.706 158.594 47.1277C158.203 48.5495 157.861 49.9223 157.568 51.295C157.275 52.6678 157.129 53.6973 157.177 54.4327C157.177 55.2171 157.422 55.5603 157.861 55.5603C158.789 55.6094 159.864 55.1191 161.036 54.1386C162.208 53.158 163.331 51.7853 164.357 50.0693C164.65 49.7752 165.187 49.8732 166.017 50.4616C166.848 51.0499 167.189 51.4421 167.092 51.7362C165.529 54.5798 163.478 56.9821 160.938 59.0412C158.398 61.1003 155.566 62.0809 152.44 62.0809C150.78 62.0809 149.559 61.4926 148.777 60.3649C147.996 59.2373 147.849 57.3743 148.338 54.874C145.358 59.6295 141.5 62.0318 136.86 62.0809C135.444 62.0809 134.272 61.8848 133.295 61.4435C132.318 61.0513 131.635 60.512 131.195 59.8747C130.756 59.2373 130.463 58.4529 130.267 57.5214C130.072 56.5899 130.072 55.7074 130.17 54.874C130.267 54.0405 130.365 53.158 130.56 52.1775C131.439 48.3534 132.758 43.2546 134.565 36.8321C135.395 36.0967 137.251 35.8516 140.181 36.1458C143.112 36.4399 144.821 37.1263 145.407 38.2049C142.868 47.3238 141.5 52.4716 141.354 53.7463C141.256 55.021 141.5 55.6094 142.037 55.6094C142.916 55.5603 143.844 54.6778 144.919 52.9129C145.993 51.1479 146.775 49.383 147.263 47.618C148.191 44.6764 149.168 41.0975 150.145 36.8321Z" stroke="#E25D23"/>
<path d="M197.473 50.0693C197.766 49.7752 198.303 49.8732 199.133 50.4615C199.964 51.0499 200.305 51.4421 200.208 51.7362C196.203 58.4039 191.466 61.8357 185.947 62.0809C182.577 62.228 180.33 61.5416 179.256 59.9727C178.181 58.4039 177.888 56.2467 178.523 53.5502C178.572 53.4522 178.621 53.2561 178.621 53.0109C178.67 52.7658 178.719 52.6187 178.719 52.4716H174.714C174.372 54.0895 173.688 56.835 172.663 60.7571C172.565 61.2964 171.491 61.7377 169.537 61.9828C167.583 62.228 165.679 62.277 163.872 61.9828C162.065 61.6887 161.234 61.1984 161.43 60.463C162.211 57.7175 163.286 53.6483 164.604 48.3044C165.923 42.9605 166.9 39.1854 167.535 36.9792C168.853 36.2438 170.856 35.9987 173.542 36.3419C176.228 36.636 177.791 37.2734 178.279 38.2049C178.084 38.8912 177.4 41.5877 176.277 46.2453H180.184C181.112 42.6173 181.942 39.5776 182.723 37.0282C183.603 36.2928 185.41 36.0477 188.193 36.3419C190.977 36.636 192.735 37.3224 193.419 38.401C193.077 39.8228 192.589 41.6367 192.003 43.7939C191.417 46.0001 190.928 47.8141 190.587 49.1869C190.245 50.5596 190 51.6872 189.903 52.4716C189.707 53.5502 189.659 54.3347 189.805 54.8249C189.952 55.3152 190.293 55.5113 190.88 55.5113C192.931 55.6094 195.129 53.7463 197.473 50.0693Z" stroke="#E25D23"/>
<path d="M216.517 36.8321C217.152 36.1458 218.91 35.9006 221.792 36.0477C224.673 36.1948 226.529 36.8321 227.31 38.0088C227.066 39.1364 226.724 40.6072 226.236 42.3721C225.748 44.1371 225.357 45.706 224.966 47.1277C224.575 48.5495 224.234 49.9223 223.94 51.295C223.647 52.6678 223.501 53.6973 223.55 54.4817C223.55 55.2662 223.794 55.6094 224.234 55.6094C225.161 55.6584 226.236 55.1681 227.408 54.1876C228.58 53.207 229.703 51.8343 230.729 50.1184C231.022 49.8242 231.559 49.9223 232.39 50.5106C233.22 51.0989 233.562 51.4911 233.464 51.7853C231.901 54.6288 229.85 57.0311 227.31 59.0902C224.771 61.1494 221.938 62.1299 218.812 62.1299C217.152 62.1299 215.931 61.5416 215.149 60.414C214.368 59.2864 214.27 57.4233 214.759 54.972C211.682 59.6295 207.872 62.0318 203.184 62.0809C201.768 62.0809 200.596 61.8848 199.619 61.4435C198.642 61.0513 197.958 60.512 197.519 59.8747C197.079 59.2373 196.786 58.4529 196.591 57.5214C196.395 56.5899 196.395 55.7074 196.493 54.874C196.591 54.0405 196.688 53.158 196.884 52.1775C197.763 48.3534 199.081 43.2546 200.889 36.8321C201.719 36.0967 203.575 35.8516 206.505 36.1458C209.435 36.4399 211.145 37.1263 211.731 38.2049C209.191 47.3238 207.824 52.4716 207.677 53.7463C207.579 55.021 207.824 55.6094 208.361 55.6094C209.24 55.5603 210.168 54.6778 211.242 52.9129C212.317 51.1479 213.098 49.383 213.587 47.618C214.515 44.6764 215.491 41.0975 216.517 36.8321Z" stroke="#E25D23"/>
<path d="M263.796 50.0693C264.089 49.7752 264.627 49.8732 265.457 50.4615C266.287 51.0499 266.629 51.4421 266.531 51.7362C262.526 58.4039 257.789 61.8357 252.27 62.0809C248.9 62.228 246.654 61.5416 245.579 59.9727C244.505 58.4039 244.212 56.2467 244.847 53.5502C244.896 53.4522 244.944 53.2561 244.944 53.0109C244.993 52.7658 244.993 52.6187 245.042 52.4716H241.037C240.696 54.0895 240.012 56.835 238.986 60.7571C238.888 61.2964 237.814 61.7377 235.86 61.9828C233.907 62.228 232.002 62.277 230.195 61.9828C228.388 61.6887 227.558 61.1984 227.753 60.463C228.535 57.7175 229.609 53.6483 230.928 48.3044C232.246 42.9605 233.223 39.1854 233.858 36.9792C235.177 36.2438 237.179 35.9987 239.865 36.3419C242.551 36.636 244.114 37.2734 244.603 38.2049C244.407 38.8912 243.724 41.5877 242.6 46.2453H246.507C247.435 42.6173 248.266 39.5776 249.047 37.0282C249.926 36.2928 251.733 36.0477 254.517 36.3419C257.301 36.636 259.059 37.3224 259.743 38.401C259.401 39.8228 258.912 41.6367 258.326 43.7939C257.74 46.0001 257.252 47.8141 256.91 49.1869C256.568 50.5596 256.324 51.6872 256.226 52.4716C256.031 53.5502 255.982 54.3347 256.129 54.8249C256.275 55.3152 256.617 55.5113 257.203 55.5113C259.254 55.6094 261.452 53.7463 263.796 50.0693Z" stroke="#E25D23"/>
<path d="M278.1 62.032C275.365 62.1301 273.167 61.6398 271.555 60.6102C269.944 59.5807 269.113 58.0609 269.065 56.0017C269.016 54.58 269.309 53.2562 269.992 51.9815C270.627 50.7068 271.311 49.7753 271.995 49.138C272.679 48.5006 273.558 47.7652 274.583 46.9808C275.609 46.1964 276.244 45.6571 276.439 45.412C277.269 44.5295 277.611 43.647 277.514 42.6665C277.416 41.6859 276.781 41.2937 275.707 41.4408C274.437 41.6369 273.02 42.7155 271.506 44.6275C268.625 48.6968 266.671 51.4913 265.695 52.9621C265.402 53.4523 264.767 53.4033 263.888 52.9131C263.009 52.4228 262.715 51.8835 262.96 51.3932C264.669 48.3045 266.769 45.2159 269.211 42.1762C272.337 38.3521 276.097 36.342 280.444 36.244C282.886 36.1949 284.84 36.6852 286.256 37.6657C287.672 38.6463 288.454 40.019 288.502 41.784C288.6 43.598 288.112 45.0688 287.135 46.1964C286.158 47.324 284.595 48.5497 282.544 49.8244C281.225 50.6578 280.346 51.5403 279.907 52.5208C279.467 53.5014 279.467 54.3348 279.858 54.9722C280.249 55.6095 280.932 56.0017 281.86 56.0508C283.325 56.1488 284.937 55.7566 286.793 54.8741C288.649 53.9916 290.309 52.3738 291.726 50.1185C291.97 49.7753 292.507 49.8734 293.337 50.4617C294.168 51.05 294.558 51.4913 294.412 51.7854C290.651 58.4531 285.181 61.8849 278.1 62.032Z" stroke="#E25D23"/>
<path d="M314.827 36.0478C316.586 36.1949 318.002 36.9303 319.028 38.205C320.102 39.4797 320.737 41.0485 320.932 42.9116C321.128 44.7746 320.932 46.7847 320.297 49.0399C319.662 51.2951 318.637 53.3542 317.269 55.3153C318.93 55.4134 320.493 54.8741 321.86 53.7955C323.228 52.7169 324.302 51.4912 325.035 50.0695C325.23 49.8243 325.572 49.8243 326.011 49.9714C326.451 50.1675 326.891 50.4126 327.33 50.8049C327.77 51.1971 327.916 51.4912 327.867 51.6383C325.181 56.8842 320.786 59.2865 314.73 58.7472C312.923 60.267 310.725 61.2475 308.088 61.6398C305.45 62.032 302.764 61.6888 300.078 60.5121C300.029 60.6592 298.613 66.2973 295.78 77.3773C295.634 78.0637 294.559 78.5049 292.655 78.7501C290.75 78.9952 288.845 78.9952 287.038 78.701C285.231 78.4069 284.401 77.9166 284.596 77.1812C288.161 63.3557 291.629 49.8734 295.096 36.7832C295.487 36.391 296.415 36.1459 297.88 35.9988C299.345 35.8517 300.859 35.9498 302.471 36.2439C304.034 36.5381 305.108 37.1264 305.597 37.9108L304.815 40.1661C305.939 39.2346 306.867 38.4992 307.648 37.9599C308.381 37.4206 309.406 36.9303 310.774 36.4891C312.141 36.0969 313.46 35.9498 314.827 36.0478ZM308.576 43.8921C307.502 43.1567 306.085 43.4509 304.278 44.8236C303.741 46.8827 302.813 50.2656 301.592 55.0702C303.253 56.2468 304.913 56.2468 306.476 55.0702C305.792 54.2858 305.694 53.4033 306.134 52.3737C306.574 51.3442 307.257 50.9029 308.088 50.9519C309.455 46.9808 309.602 44.6275 308.576 43.8921Z" stroke="#E25D23"/>
<path d="M341.449 36.2931C344.38 35.9499 347.408 36.097 350.485 36.6853C353.562 37.2736 355.955 38.5483 357.713 40.3133C357.957 41.2448 357.517 42.3724 356.443 43.5981C355.32 44.9218 354.441 45.5101 353.757 45.412C351.51 43.549 348.58 42.6665 344.917 42.7646C343.11 42.7646 341.498 43.451 339.984 44.7747C338.519 46.0984 337.445 47.8144 336.81 49.8735C335.638 53.8446 335.882 55.7567 337.494 55.5606C338.568 55.4625 339.691 54.3349 340.863 52.2268C342.036 50.1186 343.061 47.9124 343.891 45.7062C344.966 45.1669 346.626 45.1179 348.775 45.6572C350.924 46.1474 352.292 46.7848 352.829 47.5202C352.536 48.4027 352.145 49.5303 351.657 51.0011C350.827 54.0407 351.217 55.6096 352.78 55.6096C354.05 55.5606 355.369 55.0213 356.687 54.0407C358.006 53.0112 359.08 51.7365 360.008 50.1676C360.252 49.9225 360.594 49.9225 361.034 50.0696C361.473 50.2167 361.913 50.5108 362.304 50.903C362.694 51.2952 362.841 51.5894 362.792 51.7365C358.641 58.7963 353.415 62.2282 347.017 62.0811C343.208 61.934 341.791 59.6298 342.719 55.1193C342.036 56.394 341.401 57.5216 340.717 58.4041C340.033 59.2866 339.008 60.12 337.591 60.9045C336.224 61.6889 334.612 62.0321 332.854 62.0321C326.847 62.0321 324.112 58.8944 324.649 52.619C324.942 49.4322 326.016 46.5887 327.97 44.1373C329.924 41.637 332.024 39.774 334.368 38.5973C336.761 37.3717 339.105 36.6363 341.449 36.2931Z" stroke="#E25D23"/>
<path d="M394.289 50.0696C394.484 49.8735 394.777 49.8735 395.217 50.0206C395.656 50.2167 396.047 50.4619 396.487 50.8541C396.877 51.2463 397.073 51.5404 396.975 51.6875C394.631 55.7567 392.384 58.9925 390.186 61.3458C388.038 63.6991 385.644 65.415 383.105 66.4446C382.616 68.3076 382.079 69.8274 381.542 71.0531C381.005 72.2787 380.175 73.5534 379.149 74.9262C378.074 76.2989 376.707 77.3285 374.949 78.0149C373.191 78.7012 371.139 79.0444 368.746 78.9954C365.914 78.9464 363.716 78.358 362.153 77.1814C360.59 76.0048 359.955 74.1908 360.199 71.7885C360.737 66.6897 365.718 63.601 375.144 62.5715C375.291 62.0322 375.584 61.0026 376.072 59.4828C376.512 57.9629 376.853 56.8844 377.098 56.149C376.023 57.9139 374.802 59.3357 373.337 60.4143C371.872 61.4929 369.918 62.0322 367.476 62.0812C364.253 62.1302 361.958 61.0516 360.639 58.8944C359.32 56.7373 358.93 54.2369 359.564 51.3443C360.151 48.4518 361.469 45.8043 363.423 43.451C364.986 41.539 366.939 39.9211 369.235 38.6954C371.579 37.4208 373.825 36.6854 376.023 36.3912C378.856 35.999 381.786 36.097 384.814 36.6363C387.842 37.1756 390.431 38.4013 392.482 40.3624C392.775 41.0978 392.433 42.1273 391.359 43.5001C390.284 44.8728 389.356 45.4611 388.624 45.4611C386.084 43.451 383.056 42.5686 379.491 42.7647C377.733 42.8137 376.121 43.451 374.705 44.6767C373.288 45.9024 372.165 47.5203 371.481 49.5303C370.895 51.3934 370.651 52.8642 370.749 53.8937C370.846 54.9233 371.139 55.5116 371.677 55.6587C372.165 55.8058 372.849 55.6097 373.679 54.9723C374.509 54.335 375.339 53.2564 376.267 51.5895C377.586 49.0401 378.465 47.128 378.905 45.8043C379.784 45.1179 381.542 45.1179 384.082 45.8043C386.621 46.4907 388.086 47.2261 388.428 48.0595C387.94 49.9226 387.305 52.0797 386.621 54.6291C385.938 57.1785 385.303 59.4337 384.717 61.4438C387.696 59.5808 390.919 55.8058 394.289 50.0696ZM372.556 71.004C373.044 69.7293 373.435 68.5037 373.679 67.278C370.993 67.7683 369.381 68.9449 368.795 70.8079C368.502 71.8865 368.795 72.5729 369.674 72.8671C370.602 73.1612 371.432 72.818 372.116 71.7885C372.311 71.5924 372.458 71.3472 372.556 71.004Z" stroke="#E25D23"/>
<rect x="1" y="1" width="415" height="98" stroke="#E25D23" stroke-width="2"/>
<path d="M157 142.562C156.982 149.363 151.312 155.048 144.514 154.999C137.509 154.948 132.004 149.474 132 142.504C131.996 135.484 137.547 129.969 144.545 130C151.546 130.031 156.936 135.593 157 142.562ZM144.507 132.364C138.91 132.46 134.404 136.77 134.387 142.475C134.37 148.075 138.762 152.581 144.47 152.598C150.071 152.615 154.572 148.229 154.59 142.513C154.607 136.914 150.217 132.493 144.507 132.364Z" fill="#E25D23"/>
<path d="M150.173 137.948C150.162 138.412 149.957 138.71 149.686 138.98C148.635 140.025 147.598 141.087 146.533 142.118C146.226 142.415 146.246 142.59 146.541 142.877C147.618 143.921 148.676 144.987 149.727 146.056C150.377 146.716 150.289 147.63 149.563 148.03C149.057 148.309 148.526 148.21 148.032 147.719C146.978 146.675 145.923 145.635 144.892 144.568C144.592 144.257 144.41 144.228 144.095 144.554C143.066 145.621 142.003 146.655 140.959 147.708C140.582 148.088 140.155 148.283 139.621 148.121C138.758 147.857 138.525 146.804 139.2 146.107C140.244 145.03 141.302 143.965 142.386 142.926C142.744 142.583 142.727 142.384 142.38 142.05C141.323 141.036 140.298 139.989 139.267 138.947C138.782 138.457 138.68 137.965 138.928 137.465C139.299 136.714 140.231 136.579 140.884 137.213C141.908 138.21 142.908 139.234 143.923 140.241C144.561 140.876 144.42 140.87 145.043 140.251C146.07 139.231 147.088 138.202 148.116 137.185C148.505 136.801 148.97 136.692 149.478 136.917C149.946 137.124 150.159 137.511 150.173 137.948Z" fill="#E25D23"/>
<path d="M177.112 148H175.864V142.912H169.896V148H168.648V136.8H169.896V141.744H175.864V136.8H177.112V148ZM183.713 139.888C184.577 139.888 185.318 140.096 185.937 140.512C186.555 140.928 187.014 141.499 187.313 142.224C187.441 142.533 187.515 142.891 187.537 143.296C187.569 143.701 187.542 144.027 187.457 144.272H180.833C180.833 145.115 181.11 145.787 181.665 146.288C182.23 146.779 182.955 147.029 183.841 147.04C184.854 147.04 185.777 146.752 186.609 146.176L187.233 146.88C186.198 147.691 185.067 148.096 183.841 148.096C182.603 148.085 181.595 147.701 180.817 146.944C180.038 146.187 179.649 145.205 179.649 144C179.649 142.837 180.022 141.861 180.769 141.072C181.526 140.283 182.507 139.888 183.713 139.888ZM183.713 140.96C182.923 140.96 182.262 141.205 181.729 141.696C181.206 142.187 180.923 142.784 180.881 143.488H186.401C186.422 143.211 186.363 142.907 186.225 142.576C186.022 142.085 185.702 141.696 185.265 141.408C184.827 141.109 184.31 140.96 183.713 140.96ZM202.424 148H201.272V141.104H196.344V148H195.176V140H202.424V148ZM209.602 139.888C210.733 139.888 211.682 140.288 212.45 141.088C213.218 141.888 213.602 142.859 213.602 144C213.602 145.141 213.218 146.112 212.45 146.912C211.682 147.701 210.733 148.096 209.602 148.096C208.962 148.096 208.376 147.941 207.842 147.632C207.32 147.312 206.92 146.891 206.642 146.368V150.944H205.474V140H206.306L206.354 141.808C206.664 141.232 207.106 140.768 207.682 140.416C208.258 140.064 208.898 139.888 209.602 139.888ZM209.506 141.008C208.696 141.008 208.002 141.296 207.426 141.872C206.85 142.437 206.562 143.147 206.562 144C206.562 144.853 206.85 145.568 207.426 146.144C208.002 146.709 208.696 146.992 209.506 146.992C210.306 146.992 210.994 146.709 211.57 146.144C212.146 145.568 212.434 144.853 212.434 144C212.434 143.147 212.146 142.437 211.57 141.872C210.994 141.296 210.306 141.008 209.506 141.008ZM223.745 148H222.913L222.865 146.192C222.556 146.768 222.113 147.232 221.537 147.584C220.961 147.925 220.321 148.096 219.617 148.096C218.487 148.096 217.537 147.701 216.769 146.912C216.001 146.112 215.617 145.141 215.617 144C215.617 142.859 216.001 141.888 216.769 141.088C217.537 140.288 218.487 139.888 219.617 139.888C220.311 139.888 220.945 140.064 221.521 140.416C222.108 140.757 222.556 141.216 222.865 141.792L222.913 140H223.745V148ZM217.617 146.128C218.193 146.693 218.887 146.976 219.697 146.976C220.508 146.976 221.201 146.693 221.777 146.128C222.353 145.563 222.641 144.853 222.641 144C222.641 143.147 222.353 142.437 221.777 141.872C221.201 141.296 220.508 141.008 219.697 141.008C218.897 141.008 218.209 141.296 217.633 141.872C217.057 142.437 216.769 143.147 216.769 144C216.769 144.853 217.052 145.563 217.617 146.128ZM226.722 140H230.914C231.789 140 232.434 140.187 232.85 140.56C233.277 140.933 233.49 141.435 233.49 142.064C233.49 142.96 233.096 143.541 232.306 143.808C233.341 144.064 233.858 144.704 233.858 145.728C233.858 146.485 233.624 147.056 233.154 147.44C232.685 147.813 231.949 148 230.946 148H226.722V140ZM227.874 140.992V143.408H230.85C231.821 143.408 232.306 143.008 232.306 142.208C232.306 141.397 231.816 140.992 230.834 140.992H227.874ZM227.874 147.008H230.962C232.104 147.008 232.674 146.555 232.674 145.648C232.674 144.752 232.104 144.304 230.962 144.304L227.874 144.288V147.008ZM243.563 148H242.411V141.952L237.083 148H236.379V140H237.547V146.048L242.875 140H243.563V148ZM249.655 141.792L246.855 148H245.623L249.303 140H250.007L253.703 148H252.471L249.655 141.792ZM256.937 142.592H259.689C260.831 142.592 261.641 142.853 262.121 143.376C262.612 143.899 262.857 144.533 262.857 145.28C262.857 145.632 262.804 145.957 262.697 146.256C262.601 146.555 262.441 146.843 262.217 147.12C261.993 147.387 261.663 147.6 261.225 147.76C260.799 147.92 260.287 148 259.689 148H255.769V140H256.937V142.592ZM256.921 146.912H259.785C261.055 146.912 261.689 146.368 261.689 145.28C261.689 144.213 261.055 143.68 259.785 143.68H256.921V146.912ZM272.486 148H271.318V144.528H266.406V148H265.238V140H266.406V143.408H271.318V140H272.486V148ZM279.073 139.888C280.214 139.888 281.185 140.293 281.985 141.104C282.785 141.904 283.185 142.869 283.185 144C283.185 145.131 282.785 146.096 281.985 146.896C281.185 147.696 280.214 148.096 279.073 148.096C277.931 148.096 276.961 147.696 276.161 146.896C275.371 146.096 274.977 145.131 274.977 144C274.977 142.859 275.377 141.888 276.177 141.088C276.977 140.288 277.942 139.888 279.073 139.888ZM279.057 141.008C278.257 141.008 277.569 141.296 276.993 141.872C276.417 142.437 276.129 143.147 276.129 144C276.129 144.853 276.411 145.563 276.977 146.128C277.553 146.693 278.246 146.976 279.057 146.976C279.867 146.976 280.561 146.693 281.137 146.128C281.713 145.563 282.001 144.853 282.001 144C282.001 143.147 281.713 142.437 281.137 141.872C280.561 141.296 279.867 141.008 279.057 141.008Z" fill="black"/>
</svg>
