<svg width="417" height="155" viewBox="0 0 417 155" fill="none" xmlns="http://www.w3.org/2000/svg">
<circle cx="157.5" cy="142.5" r="11.5" fill="#E25D23"/>
<path d="M155.236 147.91L150.094 142.904C150.064 142.875 150.04 142.841 150.024 142.803C150.008 142.766 150 142.725 150 142.684C150 142.643 150.008 142.603 150.024 142.565C150.04 142.527 150.064 142.493 150.094 142.464L151.392 141.192C151.516 141.07 151.716 141.07 151.84 141.192L155.226 144.485C155.35 144.607 155.552 144.605 155.676 144.484L163.156 137.092C163.28 136.969 163.482 136.969 163.607 137.091L164.907 138.363C165.031 138.484 165.031 138.68 164.908 138.802L156.759 146.85L156.76 146.851L155.686 147.909C155.562 148.03 155.36 148.03 155.236 147.91Z" fill="white"/>
<path d="M190.048 148H188.8V137.968H182.896V148H181.648V136.8H190.048V148ZM197.399 139.888C198.53 139.888 199.479 140.288 200.247 141.088C201.015 141.888 201.399 142.859 201.399 144C201.399 145.141 201.015 146.112 200.247 146.912C199.479 147.701 198.53 148.096 197.399 148.096C196.759 148.096 196.172 147.941 195.639 147.632C195.116 147.312 194.716 146.891 194.439 146.368V150.944H193.271V140H194.103L194.151 141.808C194.46 141.232 194.903 140.768 195.479 140.416C196.055 140.064 196.695 139.888 197.399 139.888ZM197.303 141.008C196.492 141.008 195.799 141.296 195.223 141.872C194.647 142.437 194.359 143.147 194.359 144C194.359 144.853 194.647 145.568 195.223 146.144C195.799 146.709 196.492 146.992 197.303 146.992C198.103 146.992 198.791 146.709 199.367 146.144C199.943 145.568 200.231 144.853 200.231 144C200.231 143.147 199.943 142.437 199.367 141.872C198.791 141.296 198.103 141.008 197.303 141.008ZM211.542 148H210.71L210.662 146.192C210.353 146.768 209.91 147.232 209.334 147.584C208.758 147.925 208.118 148.096 207.414 148.096C206.284 148.096 205.334 147.701 204.566 146.912C203.798 146.112 203.414 145.141 203.414 144C203.414 142.859 203.798 141.888 204.566 141.088C205.334 140.288 206.284 139.888 207.414 139.888C208.108 139.888 208.742 140.064 209.318 140.416C209.905 140.757 210.353 141.216 210.662 141.792L210.71 140H211.542V148ZM205.414 146.128C205.99 146.693 206.684 146.976 207.494 146.976C208.305 146.976 208.998 146.693 209.574 146.128C210.15 145.563 210.438 144.853 210.438 144C210.438 143.147 210.15 142.437 209.574 141.872C208.998 141.296 208.305 141.008 207.494 141.008C206.694 141.008 206.006 141.296 205.43 141.872C204.854 142.437 204.566 143.147 204.566 144C204.566 144.853 204.849 145.563 205.414 146.128ZM214.519 140H218.711C219.586 140 220.231 140.187 220.647 140.56C221.074 140.933 221.287 141.435 221.287 142.064C221.287 142.96 220.893 143.541 220.103 143.808C221.138 144.064 221.655 144.704 221.655 145.728C221.655 146.485 221.421 147.056 220.951 147.44C220.482 147.813 219.746 148 218.743 148H214.519V140ZM215.671 140.992V143.408H218.647C219.618 143.408 220.103 143.008 220.103 142.208C220.103 141.397 219.613 140.992 218.631 140.992H215.671ZM215.671 147.008H218.759C219.901 147.008 220.471 146.555 220.471 145.648C220.471 144.752 219.901 144.304 218.759 144.304L215.671 144.288V147.008ZM231.36 148H230.208V141.952L224.88 148H224.176V140H225.344V146.048L230.672 140H231.36V148ZM237.452 141.792L234.652 148H233.42L237.1 140H237.804L241.5 148H240.268L237.452 141.792ZM244.734 142.592H247.486C248.627 142.592 249.438 142.853 249.918 143.376C250.409 143.899 250.654 144.533 250.654 145.28C250.654 145.632 250.601 145.957 250.494 146.256C250.398 146.555 250.238 146.843 250.014 147.12C249.79 147.387 249.459 147.6 249.022 147.76C248.595 147.92 248.083 148 247.486 148H243.566V140H244.734V142.592ZM244.718 146.912H247.582C248.851 146.912 249.486 146.368 249.486 145.28C249.486 144.213 248.851 143.68 247.582 143.68H244.718V146.912ZM260.283 148H259.115V144.528H254.203V148H253.035V140H254.203V143.408H259.115V140H260.283V148ZM266.87 139.888C268.011 139.888 268.982 140.293 269.782 141.104C270.582 141.904 270.982 142.869 270.982 144C270.982 145.131 270.582 146.096 269.782 146.896C268.982 147.696 268.011 148.096 266.87 148.096C265.728 148.096 264.758 147.696 263.958 146.896C263.168 146.096 262.774 145.131 262.774 144C262.774 142.859 263.174 141.888 263.974 141.088C264.774 140.288 265.739 139.888 266.87 139.888ZM266.854 141.008C266.054 141.008 265.366 141.296 264.79 141.872C264.214 142.437 263.926 143.147 263.926 144C263.926 144.853 264.208 145.563 264.774 146.128C265.35 146.693 266.043 146.976 266.854 146.976C267.664 146.976 268.358 146.693 268.934 146.128C269.51 145.563 269.798 144.853 269.798 144C269.798 143.147 269.51 142.437 268.934 141.872C268.358 141.296 267.664 141.008 266.854 141.008Z" fill="black"/>
<path d="M63.4827 58.6107C62.7019 57.1954 62.2626 55.829 62.1162 54.5602C61.9698 53.2914 61.7746 51.7786 61.5306 50.0218C61.2866 48.2649 60.8962 46.8009 60.3593 45.5809C59.7249 44.0193 58.7 42.7993 57.2848 41.8232C64.3123 39.188 68.8998 32.7463 71.0959 22.5958C70.5103 21.7662 68.8998 21.2782 66.2156 21.1318C63.5803 21.0342 61.6282 21.4246 60.4569 22.3518C60.3593 22.5958 60.1641 23.3278 59.8713 24.4014C59.5785 25.5238 59.3345 26.3534 59.1393 26.939C58.9441 27.5246 58.6512 28.3055 58.212 29.3791C57.8216 30.4527 57.3336 31.3311 56.8456 32.0631C56.3575 32.7463 55.7719 33.5271 55.1375 34.3567C54.4542 35.1864 53.6734 35.9184 52.7461 36.5528C51.8677 37.1872 50.8916 37.724 49.7692 38.1632C52.3557 28.5495 53.7222 23.4254 53.9174 22.6934C53.7222 21.9614 52.4533 21.4246 50.062 21.1318C47.6707 20.839 45.9626 21.0342 44.8401 21.7174C43.7665 22.9862 42.2536 24.011 40.3503 24.8406C38.447 25.6214 36.5437 26.207 34.6404 26.5974C32.7371 26.9878 30.8826 27.4758 29.0769 27.9639C27.2712 28.4519 25.7095 29.2815 24.3918 30.3551C23.0742 31.4287 22.2445 32.8439 21.9029 34.6007C21.3661 37.4312 22.1957 39.6272 24.4894 41.2376C26.7344 42.7993 29.2721 43.2385 32.0538 42.5553C32.6883 42.0672 33.2251 41.384 33.6643 40.5056C34.1035 39.6272 34.25 38.7976 34.0547 38.0656C33.4203 37.7728 32.9811 37.236 32.7859 36.4552C32.5907 35.6744 32.6395 34.9423 32.9811 34.2103C33.3227 33.2343 34.1523 32.4535 35.3724 31.9167C36.6413 31.3311 37.9589 30.8431 39.3742 30.3551C40.7895 29.8671 41.8144 29.2815 42.4 28.5983C41.912 30.0135 41.0335 33.3807 39.7158 38.7488C38.3982 44.1169 37.1293 48.2649 35.958 51.2418C34.7868 54.2186 33.4691 55.6338 32.1514 55.5362C31.029 55.4874 30.4433 54.7554 30.3945 53.4866C30.3457 52.169 30.8826 50.9978 32.0538 50.0218C32.005 48.8505 31.4682 47.9233 30.4922 47.1425C29.4673 46.3617 28.3936 45.9225 27.2224 45.7761C26.9296 45.7761 26.5879 45.7761 26.2951 45.8249C23.855 46.2153 22.1957 47.5817 21.2685 49.9729C20.2436 52.4618 20.4388 54.9018 21.8053 57.2443C23.5622 60.3187 26.6855 61.8803 31.273 61.8803C33.7619 61.8803 35.958 61.4899 37.8125 60.6603C39.667 59.8307 41.2287 58.6107 42.4976 56.9514C43.7665 55.2922 44.7913 53.5842 45.621 51.7298C46.4506 49.8753 47.2314 47.6793 47.9635 45.0441C49.0371 45.3857 49.818 45.8249 50.2572 46.4593C50.7452 47.0937 51.0868 48.0697 51.3797 49.3385C51.5261 50.0218 51.7213 51.193 51.8677 52.9498C52.0629 54.7066 52.2581 56.3658 52.5021 57.8787C52.7461 59.4403 53.1366 61.0507 53.6246 62.7587C54.1126 64.4667 54.8934 65.9308 55.9183 67.1996C56.992 68.4684 58.2608 69.3468 59.8225 69.8348C62.165 70.1276 64.0683 69.3468 65.4836 67.4436C66.9477 65.5404 67.3869 63.7835 66.8501 62.1731C65.386 61.1971 64.2635 59.9771 63.4827 58.6107Z" stroke="#E25D23"/>
<path d="M395.828 50.7536C395.437 50.3632 394.998 50.0704 394.559 49.924C394.12 49.7288 393.827 49.7776 393.632 49.9728C390.216 55.6825 386.995 59.4401 383.969 61.2946C384.554 59.2937 385.189 57.0489 385.872 54.5113C386.555 51.9736 387.141 49.7776 387.678 47.972C387.336 47.1424 385.872 46.4104 383.334 45.7272C380.797 45.0439 379.089 45.0439 378.161 45.7272C377.722 46.996 376.844 48.948 375.526 51.4856C374.647 53.1449 373.769 54.2673 372.939 54.8529C372.11 55.4385 371.475 55.6825 370.939 55.5361C370.45 55.3897 370.109 54.8041 370.011 53.7793C369.914 52.7544 370.158 51.3392 370.743 49.436C371.427 47.4352 372.5 45.8248 373.964 44.6047C375.428 43.3847 376.99 42.7503 378.747 42.7015C382.31 42.5063 385.335 43.3847 387.873 45.3855C388.605 45.4344 389.532 44.7999 390.606 43.4335C391.68 42.0671 392.07 41.0911 391.728 40.3103C389.679 38.4071 387.092 37.187 384.066 36.6014C381.138 36.0158 378.21 35.9182 375.38 36.2598C373.183 36.5526 370.939 37.2846 368.596 38.5535C366.253 39.8223 364.35 41.3839 362.788 43.2871C361.08 45.3367 360.007 47.6304 359.323 50.0216C358.445 51.5344 357.371 52.8033 356.054 53.8281C354.736 54.8529 353.467 55.3897 352.15 55.3897C350.588 55.3897 350.197 53.8769 351.027 50.8024C351.515 49.3384 351.905 48.216 352.198 47.3376C351.661 46.6056 350.295 45.9712 348.148 45.4832C346 44.9951 344.341 44.9951 343.267 45.532C342.438 47.7768 341.462 49.924 340.242 52.0224C339.07 54.1209 337.948 55.2433 336.874 55.3409C335.215 55.4873 335.02 53.5841 336.191 49.68C336.826 47.6304 337.85 45.9224 339.363 44.6047C340.827 43.2871 342.487 42.6039 344.292 42.6039C347.952 42.5063 350.929 43.3847 353.126 45.2391C353.809 45.3856 354.687 44.7999 355.761 43.5311C356.835 42.2623 357.274 41.1887 357.03 40.2615C355.322 38.4559 352.93 37.2358 349.807 36.6502C346.684 36.0646 343.707 35.8694 340.779 36.2598C338.436 36.5526 336.093 37.3334 333.751 38.5535C331.408 39.7735 329.261 41.6279 327.358 44.0679C325.991 45.8248 325.015 47.8256 324.527 49.9728C323.795 51.388 322.722 52.608 321.355 53.6817C319.989 54.7553 318.427 55.2433 316.768 55.1945C318.183 53.2425 319.208 51.144 319.793 48.948C320.428 46.7032 320.623 44.7023 320.428 42.8479C320.233 40.9935 319.598 39.4319 318.525 38.1631C317.451 36.8942 316.084 36.1622 314.328 36.0158C312.961 35.9182 311.595 36.0646 310.277 36.5038C308.959 36.943 307.934 37.431 307.154 37.9678C306.421 38.5047 305.494 39.2367 304.323 40.1639L305.104 37.919C304.616 37.1382 303.542 36.6014 301.98 36.2598C300.419 35.967 298.857 35.8694 297.393 36.0158C295.929 36.1622 295.002 36.4062 294.611 36.7966C293.44 41.1887 292.269 45.7272 291.097 50.2168C289.682 52.3152 288.121 53.8281 286.364 54.6577C284.509 55.5361 282.85 55.9265 281.435 55.8289C280.507 55.7313 279.824 55.3897 279.434 54.7553C279.043 54.1209 279.043 53.2913 279.482 52.3152C279.922 51.3392 280.8 50.4608 282.118 49.6312C284.167 48.3624 285.729 47.1424 286.705 46.02C287.681 44.8975 288.169 43.4335 288.072 41.6279C287.974 39.8711 287.242 38.5047 285.827 37.5286C284.412 36.5526 282.459 36.0646 280.019 36.1134C275.627 36.211 271.918 38.2119 268.795 42.0183C266.599 44.7023 264.793 47.4352 263.182 50.168C260.889 53.6817 258.79 55.4385 256.789 55.4385C256.204 55.4385 255.862 55.1945 255.716 54.7553C255.569 54.2673 255.618 53.4865 255.813 52.4128C255.911 51.632 256.155 50.5584 256.496 49.1432C256.838 47.728 257.326 45.9224 257.912 43.7751C258.497 41.5791 258.985 39.7735 259.327 38.4071C258.644 37.3334 256.887 36.6502 254.105 36.3574C251.323 36.0646 249.469 36.3086 248.639 37.0406C247.907 39.5783 247.078 42.6527 246.101 46.2152H242.197C243.32 41.5791 244.003 38.8951 244.198 38.2119C243.71 37.2846 242.148 36.6502 239.464 36.3574C236.78 36.0646 234.779 36.2598 233.462 36.9918C232.827 39.1879 231.851 42.9455 230.533 48.2648C230.338 48.9968 230.192 49.6312 229.997 50.3144C229.021 51.876 227.996 53.1449 226.922 54.0721C225.751 55.0481 224.677 55.5361 223.75 55.4873C223.311 55.4873 223.115 55.0969 223.067 54.3649C223.067 53.5841 223.164 52.5592 223.457 51.1928C223.75 49.8264 224.092 48.46 224.482 47.0448C224.872 45.6296 225.312 44.0679 225.751 42.3111C226.239 40.5543 226.58 39.0903 226.824 37.9678C226.044 36.8454 224.189 36.211 221.31 36.0158C218.43 35.8694 216.673 36.1134 216.039 36.7966C215.014 41.0423 214.087 44.6047 213.16 47.5328C212.672 49.2896 211.891 51.0464 210.817 52.8032C209.744 54.5601 208.816 55.4385 207.938 55.4873C207.401 55.4873 207.157 54.8529 207.255 53.6329C207.401 52.364 208.767 47.24 211.305 38.1631C210.72 37.0894 208.963 36.4062 206.083 36.1134C203.155 35.8206 201.301 36.0646 200.471 36.7966C198.958 42.1159 197.836 46.508 196.957 50.0216C194.615 53.6329 192.467 55.4873 190.418 55.4873C189.832 55.4873 189.49 55.2433 189.344 54.8041C189.198 54.3161 189.246 53.5353 189.442 52.4616C189.539 51.6808 189.783 50.6072 190.125 49.192C190.467 47.7768 190.955 45.9712 191.54 43.8239C192.126 41.6279 192.614 39.8223 192.955 38.4559C192.272 37.3822 190.515 36.699 187.734 36.4062C184.952 36.0158 183.097 36.2598 182.268 36.9918C181.536 39.5295 180.706 42.6039 179.73 46.1664H175.826C176.948 41.5303 177.631 38.8463 177.827 38.1631C177.339 37.2358 175.777 36.6014 173.093 36.3086C170.409 36.0158 168.408 36.211 167.09 36.943C166.456 39.1391 165.48 42.8967 164.162 48.216C163.967 48.948 163.82 49.5824 163.625 50.2656C162.649 51.8272 161.624 53.0961 160.551 54.0233C159.379 54.9993 158.306 55.4873 157.378 55.4385C156.939 55.4385 156.744 55.0481 156.695 54.3161C156.695 53.5353 156.793 52.5104 157.086 51.144C157.378 49.7776 157.72 48.4112 158.11 46.996C158.501 45.5808 158.94 44.0191 159.379 42.2623C159.867 40.5055 160.209 39.0415 160.453 37.919C159.672 36.7966 157.818 36.1622 154.938 35.967C152.059 35.8206 150.302 36.0646 149.668 36.7478C148.643 40.9935 147.715 44.5559 146.788 47.484C146.3 49.2408 145.519 50.9976 144.446 52.7544C143.372 54.5113 142.445 55.3897 141.566 55.4385C141.029 55.4385 140.785 54.8041 140.883 53.5841C141.029 52.3152 142.396 47.1912 144.934 38.1143C144.348 37.0406 142.591 36.3574 139.712 36.0646C136.784 35.7718 134.929 36.0158 134.1 36.7478C132.587 42.1647 131.415 46.5568 130.586 50.1192C128.194 53.7305 125.949 55.5361 123.997 55.4873C122.387 55.4385 121.557 53.7305 121.557 50.2656C121.508 46.8496 122.094 42.7503 123.265 38.0655C123.363 37.3334 122.436 36.7478 120.581 36.4062C118.727 36.0158 116.775 35.967 114.676 36.1622C112.578 36.3574 111.309 36.7478 110.821 37.3334C107.453 41.4327 104.672 45.9224 102.378 50.7536C101.597 51.9736 100.67 53.0473 99.5961 53.8769C98.2784 54.9017 97.0096 55.4385 95.6919 55.4385C94.1302 55.4385 93.7398 53.9257 94.5694 50.8512C95.0574 49.3872 95.4479 48.2648 95.7407 47.3864C95.2039 46.6544 93.8374 46.02 91.6901 45.532C89.5428 45.0439 87.8835 45.0439 86.8098 45.5808C85.9802 47.8256 85.0041 49.9728 83.7841 52.0712C82.6128 54.1697 81.4903 55.2921 80.4167 55.3897C78.7574 55.5361 78.5622 53.6329 79.7334 49.7288C80.3679 47.6792 81.3927 45.9712 82.9056 44.6535C84.3697 43.3359 86.029 42.6527 87.8347 42.6527C91.4949 42.5551 94.4718 43.4335 96.6679 45.2879C97.3512 45.3855 98.2296 44.7999 99.3033 43.5311C100.377 42.2623 100.816 41.1887 100.572 40.2615C98.8641 38.4559 96.4727 37.2358 93.3494 36.6502C90.226 36.0646 87.249 35.8694 84.3209 36.2598C81.9784 36.5526 79.6358 37.3334 77.2933 38.5535C74.9508 39.7735 72.8035 41.6279 70.9002 44.0679C68.9481 46.5568 67.8744 49.3872 67.5816 52.5104C67.0448 58.7569 69.7777 61.8802 75.7804 61.8802C77.5373 61.8802 79.099 61.4898 80.5143 60.7578C81.8808 59.9769 82.9544 59.1473 83.6376 58.2689C84.3209 57.3905 85.0041 56.2681 85.6385 54.9993C84.6625 59.4401 86.1266 61.7338 89.8844 61.8802C93.2518 61.9778 96.2775 61.0018 99.0105 59.0985C98.9129 59.4401 98.7665 59.7329 98.6688 60.0745C98.5712 60.4162 98.62 60.7578 98.8641 61.0018C99.5961 61.8802 101.499 62.173 104.623 61.8802C107.258 61.6362 108.722 61.1482 108.966 60.4161C110.284 56.0241 111.748 51.7784 113.358 47.728H113.456C112.626 52.608 112.724 56.2193 113.7 58.6105C114.676 60.953 116.775 62.0754 119.947 61.929C123.461 61.7826 126.779 59.9769 129.805 56.5609C129.854 56.8537 129.805 57.0977 129.854 57.3905C130 58.3177 130.293 59.0985 130.781 59.7329C131.22 60.3674 131.952 60.9042 132.879 61.2946C133.856 61.685 135.027 61.929 136.442 61.929C141.029 61.8314 144.885 59.4401 147.862 54.7065C147.374 57.1465 147.471 58.9521 148.252 60.1233C149.033 61.2946 150.253 61.8314 151.912 61.8314C155.036 61.8314 157.866 60.8066 160.404 58.8057C160.892 58.4153 161.283 57.9273 161.771 57.4881C161.478 58.5129 161.234 59.4401 160.99 60.2697C160.795 61.0018 161.624 61.5386 163.43 61.7826C165.236 62.0754 167.139 62.0754 169.091 61.7826C171.043 61.4898 172.068 61.0994 172.214 60.5625C173.239 56.6585 173.922 53.9257 174.264 52.3152H178.266C178.217 52.4128 178.168 52.608 178.168 52.8521C178.119 53.0961 178.071 53.2425 178.071 53.3889C177.436 56.0729 177.68 58.2201 178.803 59.7817C179.925 61.3434 182.17 62.0266 185.489 61.8802C189.442 61.7338 193.004 59.8793 196.176 56.4145C196.225 56.7561 196.176 57.0489 196.225 57.3417C196.372 58.2689 196.664 59.0497 197.152 59.6841C197.592 60.3186 198.324 60.8554 199.251 61.2458C200.227 61.6362 201.398 61.8802 202.814 61.8802C207.45 61.8314 211.305 59.4401 214.282 54.7553C213.794 57.1953 213.892 59.0009 214.673 60.1721C215.453 61.3434 216.674 61.8802 218.333 61.8802C221.456 61.8802 224.287 60.8554 226.824 58.8545C227.312 58.4641 227.703 57.9761 228.191 57.5369C227.898 58.5617 227.654 59.4889 227.41 60.3186C227.215 61.0506 228.045 61.5874 229.85 61.8314C231.656 62.1242 233.559 62.1242 235.511 61.8314C237.463 61.5386 238.488 61.1482 238.635 60.6114C239.66 56.7073 240.343 53.9745 240.684 52.364H244.491C244.442 52.4616 244.393 52.6568 244.393 52.9009C244.345 53.1449 244.296 53.2913 244.296 53.4377C243.661 56.1217 243.905 58.2689 245.028 59.8305C246.15 61.3922 248.395 62.0754 251.714 61.929C257.131 61.685 261.816 58.3665 265.72 51.9248C266.794 50.3144 268.502 47.9232 270.893 44.5071C272.406 42.6039 273.821 41.5303 275.09 41.3351C276.164 41.1887 276.798 41.5791 276.896 42.5551C276.994 43.5311 276.652 44.4583 275.822 45.2879C275.578 45.532 274.944 46.02 273.968 46.8496C272.992 47.6792 272.113 48.3624 271.381 48.9968C270.747 49.68 270.064 50.6072 269.429 51.876C268.795 53.1449 268.502 54.4625 268.502 55.8777C268.551 57.9273 269.38 59.4401 270.991 60.465C272.601 61.4898 274.797 61.929 277.53 61.8802C282.069 61.7826 285.924 60.3673 289.145 57.5857C287.486 64.0274 285.778 70.5179 284.07 77.106C283.923 77.7892 284.753 78.326 286.51 78.6188C288.316 78.9116 290.17 78.9116 292.122 78.6676C294.074 78.4236 295.099 77.9356 295.246 77.3012C298.076 66.2722 299.492 60.6602 299.54 60.5138C302.224 61.685 304.909 62.0754 307.544 61.6362C310.179 61.197 312.375 60.2697 314.181 58.7569C318.281 59.0985 321.599 58.0249 324.137 55.6825C324.674 59.8305 327.358 61.9778 332.287 61.9778C334.044 61.9778 335.605 61.5874 337.021 60.8554C338.387 60.0745 339.461 59.2449 340.144 58.3665C340.827 57.4881 341.462 56.2681 342.096 54.9505C341.169 59.4401 342.584 61.7338 346.391 61.8802C351.222 61.9778 355.419 60.0257 358.982 56.0241C359.226 57.0001 359.519 57.8785 360.056 58.7569C361.373 60.9042 363.667 61.9778 366.888 61.929C369.328 61.8802 371.28 61.3434 372.744 60.2697C374.208 59.1961 375.428 57.7809 376.502 56.0241C376.258 56.6585 375.916 57.7809 375.477 59.2449C375.038 60.7578 374.745 61.7826 374.55 62.3194C365.131 63.393 360.153 66.4186 359.616 71.4939C359.372 73.9339 360.056 75.6908 361.568 76.862C363.13 78.0332 365.326 78.6188 368.157 78.6676C370.548 78.7164 372.598 78.3748 374.355 77.6916C376.112 77.0084 377.478 75.9836 378.552 74.6171C379.625 73.2507 380.406 71.9819 380.943 70.7619C381.48 69.5419 382.017 68.0291 382.505 66.1746C385.042 65.1498 387.385 63.4906 389.581 61.0994C391.728 58.7569 394.022 55.5361 396.365 51.4856C396.413 51.388 396.267 51.144 395.828 50.7536ZM307.495 50.8024C306.617 50.7048 305.982 51.1928 305.543 52.2176C305.104 53.2425 305.201 54.1209 305.885 54.9017C304.323 56.0729 302.712 56.0729 301.004 54.9017C302.273 50.1192 303.152 46.752 303.689 44.7023C305.494 43.3359 306.909 43.0431 307.983 43.7751C309.057 44.5071 308.862 46.8496 307.495 50.8024ZM371.915 70.7619C371.817 71.0547 371.671 71.3475 371.524 71.5915C370.841 72.6163 370.011 72.9579 369.084 72.6651C368.206 72.3723 367.913 71.6891 368.206 70.6155C368.742 68.7611 370.353 67.5898 373.086 67.1018C372.793 68.2731 372.451 69.5419 371.915 70.7619Z" stroke="#E25D23"/>
<rect x="1" y="1" width="415" height="98" stroke="#E25D23" stroke-width="2"/>
<path d="M170 142.562C169.982 149.363 164.312 155.048 157.514 154.999C150.509 154.948 145.004 149.474 145 142.504C144.996 135.484 150.547 129.969 157.545 130C164.546 130.031 169.936 135.593 170 142.562ZM157.507 132.364C151.91 132.46 147.404 136.77 147.387 142.475C147.37 148.075 151.762 152.581 157.47 152.598C163.071 152.615 167.572 148.229 167.59 142.513C167.607 136.914 163.217 132.493 157.507 132.364Z" fill="#E25D23"/>
</svg>
