<svg width="79" height="79" viewBox="0 0 79 79" fill="none" xmlns="http://www.w3.org/2000/svg">
<circle cx="39.5" cy="39.5001" r="38" stroke="#E25D23" stroke-width="3"/>
<circle cx="39.5" cy="39.5001" r="32.5" fill="#E25D23"/>
<path d="M33.4702 21.45L38.2176 13.5993L46.3169 18.497L41.5695 26.3477L33.4702 21.45ZM38.8789 16.4821L36.3304 20.6966L40.9082 23.4649L43.4567 19.2504L38.8789 16.4821Z" fill="white"/>
<path d="M16.4749 49.5549L21.2223 41.7042L29.3217 46.6019L24.5742 54.4526L16.4749 49.5549ZM21.8836 44.587L19.3351 48.8015L23.913 51.5698L26.4615 47.3553L21.8836 44.587Z" fill="white"/>
<path d="M46.1624 38.2131L54.2617 43.1108L49.5143 50.9616L41.415 46.0639L46.1624 38.2131ZM46.8236 41.096L44.2751 45.3104L48.853 48.0787L51.4015 43.8643L46.8236 41.096Z" fill="white"/>
<path d="M52.8711 27.8187C54.1575 25.6915 56.8826 24.9706 58.9461 26.2185C61.0097 27.4663 61.637 30.2145 60.3507 32.3417C59.0643 34.4689 56.3357 35.1877 54.2757 33.942C52.2156 32.6962 51.5826 29.9496 52.8711 27.8187ZM58.59 31.277C59.2716 30.1497 58.9383 28.6967 57.8467 28.0366C56.755 27.3765 55.3135 27.7562 54.6319 28.8835C53.9502 30.0107 54.2835 31.4637 55.3751 32.1238C56.4668 32.7839 57.9083 32.4042 58.59 31.277Z" fill="white"/>
<path d="M35.3284 56.8289C36.6148 54.7017 39.3399 53.9808 41.4034 55.2287C43.467 56.4765 44.0965 59.221 42.808 61.3519C41.5194 63.4827 38.7965 64.2 36.733 62.9522C34.6694 61.7043 34.0421 58.9562 35.3284 56.8289ZM41.0473 60.2872C41.7289 59.1599 41.3956 57.7069 40.304 57.0468C39.2123 56.3867 37.7708 56.7664 37.0892 57.8937C36.4075 59.0209 36.7408 60.4739 37.8324 61.134C38.9263 61.7905 40.3678 61.4108 41.0473 60.2872Z" fill="white"/>
<path d="M42.7456 23.7268L43.9225 21.9556C44.0365 22.0295 54.9903 29.5075 50.4018 40.7219C50.3991 40.7501 50.3943 40.782 50.3882 40.808L50.364 40.8083L49.3623 40.6595L48.3382 40.5318C48.3456 40.432 48.3658 40.2555 48.4454 40.0603C52.4778 30.4016 43.1466 23.9942 42.7456 23.7268Z" fill="white"/>
<path d="M27.14 49.6133C27.5595 49.8421 37.568 55.1296 44.2521 47.0744L45.8245 48.4027C38.0228 57.8131 26.2351 51.5392 26.118 51.4783L27.14 49.6133Z" fill="white"/>
<path d="M51.2414 41.7908L56.0394 33.8564L54.2787 32.7917L49.4807 40.7261L51.2414 41.7908Z" fill="white"/>
<path d="M42.3031 56.572L46.7273 49.2558L44.9665 48.1911L40.5424 55.5073L42.3031 56.572Z" fill="white"/>
</svg>
