<svg width="79" height="79" viewBox="0 0 79 79" fill="none" xmlns="http://www.w3.org/2000/svg">
<circle cx="39.5" cy="39.5001" r="38" stroke="#E25D23" stroke-width="3"/>
<circle cx="39.5" cy="39.5001" r="32.5" fill="#E25D23"/>
<path d="M44.7922 30.5667C44.7906 35.3837 44.0391 40.1072 43.0322 44.7946C42.4359 47.5763 41.7329 50.3333 40.9587 53.069C40.8973 53.2855 40.8036 53.4921 40.7438 53.7086C40.6226 54.1531 40.3996 54.386 39.8889 54.3794C39.3766 54.3712 39.1794 54.1252 39.055 53.6824C38.1629 50.5334 37.3306 47.368 36.6453 44.1632C35.9989 41.1388 35.4963 38.0915 35.2086 35.0114C34.8692 31.3703 34.8175 27.7325 35.674 24.1456C36.1136 22.3038 36.6841 20.5078 38.0675 19.1269C39.1293 18.0641 40.3769 18.0001 41.5405 18.9514C42.465 19.7075 43.008 20.7391 43.4459 21.8281C44.5077 24.472 44.8019 27.2487 44.7938 30.0746C44.7922 30.2386 44.7922 30.4026 44.7922 30.5667Z" fill="white"/>
<path d="M41.4414 53.9202C41.4737 53.5118 41.6725 53.2986 41.8002 53.0559C44.4716 47.9584 46.794 42.7183 48.0691 37.0615C48.806 33.7895 49.1971 30.4847 48.6444 27.1323C48.0061 23.2567 46.1184 20.229 42.7149 18.2478C42.647 18.2084 42.5888 18.151 42.529 18.0985C42.5193 18.0903 42.5274 18.0592 42.5274 18.0001C43.5407 18.0329 44.4312 18.4594 45.3298 18.8612C50.2121 21.0442 52.8932 26.532 52.2177 31.964C51.6359 36.6433 49.842 40.8748 47.7136 44.9898C46.3334 47.6616 44.7399 50.1988 42.8264 52.5196C42.4288 53.0018 41.9973 53.4462 41.4414 53.9202Z" fill="white"/>
<path d="M38.5191 53.7809C37.5349 53.1297 36.8593 52.2096 36.1854 51.2994C32.6332 46.4971 30.0215 41.2045 28.3796 35.4444C27.4422 32.1592 27.2677 28.8216 28.5072 25.543C29.9181 21.8101 32.5669 19.4123 36.2905 18.197C36.6169 18.0904 36.9466 18.0051 37.3005 18.0313C37.3555 18.2183 37.1874 18.2216 37.105 18.2724C33.5269 20.5112 31.67 23.834 31.211 28.0065C30.6696 32.9334 31.7993 37.6126 33.354 42.2197C34.6792 46.1478 36.4812 49.8593 38.4027 53.5135C38.448 53.5988 38.4803 53.6923 38.5191 53.7809Z" fill="white"/>
<path d="M37.0472 53.5119C36.0275 52.6377 35.2744 51.7028 34.5342 50.7663C31.226 46.5955 28.3703 42.141 26.4633 37.1189C25.5195 34.6342 24.9053 32.069 25.012 29.3842C25.1688 25.4135 27.1711 22.5334 30.3129 20.357C30.4616 20.2537 30.6329 20.1831 30.7961 20.1028C30.8672 20.0683 30.9432 20.0454 31.1032 19.9847C31.0143 20.2537 30.8333 20.339 30.6943 20.4505C27.2358 23.2682 25.9025 26.9617 26.3146 31.3802C26.7671 36.2382 28.7986 40.5009 31.1662 44.6339C32.7823 47.4549 34.6279 50.1185 36.6076 52.6885C36.7628 52.8919 36.9794 53.0674 37.0472 53.5119Z" fill="white"/>
<path d="M42.9215 53.32C43.1703 52.9854 43.416 52.6492 43.6697 52.3179C47.1234 47.819 50.0954 43.0299 52.1608 37.7028C53.1596 35.1278 53.7446 32.4676 53.7462 29.6794C53.7478 25.9186 52.2772 22.9057 49.415 20.5571C49.2696 20.439 49.0514 20.375 49.032 20.0847C49.7156 20.2783 50.215 20.7227 50.7241 21.141C52.9899 23.0091 54.488 25.3528 54.892 28.323C55.1571 30.2764 54.8936 32.2052 54.4314 34.1077C53.4343 38.2211 51.5354 41.913 49.2906 45.4442C47.6017 48.1028 45.7076 50.5974 43.5808 52.9116C43.4144 53.0953 43.256 53.3101 42.9215 53.32Z" fill="white"/>
<path d="M39.9274 56.0753C40.7548 56.0753 41.5839 56.0819 42.4114 56.0737C42.8784 56.0687 43.0206 56.277 42.9107 56.7297C42.6877 57.6449 42.4728 58.5617 42.2772 59.4818C42.1996 59.8492 42.0073 60.0001 41.6485 59.9984C40.4769 59.9919 39.3068 59.9902 38.1351 60.0001C37.765 60.0034 37.584 59.8312 37.5129 59.4769C37.3206 58.5338 37.1186 57.594 36.9149 56.6526C36.8277 56.2492 36.9925 56.0737 37.3836 56.0737C38.2305 56.0769 39.0789 56.0753 39.9274 56.0753Z" fill="white"/>
</svg>
