<svg width="34" height="15" viewBox="0 0 34 15" fill="none" xmlns="http://www.w3.org/2000/svg">
<rect width="34" height="15" rx="7.5" fill="#2B2A29"/>
<path d="M7.31758 4H9.61758C10.5776 4 11.3376 4.25333 11.8976 4.76C12.4576 5.26 12.7376 5.90333 12.7376 6.69C12.7376 7.48333 12.4576 8.13333 11.8976 8.64C11.3376 9.14 10.5776 9.39 9.61758 9.39H8.69758V11H7.31758V4ZM8.69758 8.09H9.72758C10.2142 8.09 10.6176 7.97333 10.9376 7.74C11.2642 7.50667 11.4276 7.15667 11.4276 6.69C11.4276 6.24333 11.2642 5.9 10.9376 5.66C10.6109 5.42 10.2076 5.3 9.72758 5.3H8.69758V8.09ZM16.5984 3.93H16.6784C17.1584 3.93 17.635 4.03667 18.1084 4.25C18.5817 4.45667 19.005 4.73667 19.3784 5.09L18.4784 5.92C18.225 5.71333 17.925 5.54667 17.5784 5.42C17.2384 5.29333 16.9384 5.23 16.6784 5.23H16.5984C16.305 5.23 16.0284 5.29333 15.7684 5.42C15.515 5.54 15.3884 5.73667 15.3884 6.01C15.3884 6.22333 15.4884 6.38 15.6884 6.48C15.895 6.58 16.185 6.65333 16.5584 6.7L17.1184 6.76C17.8984 6.85333 18.505 7.06667 18.9384 7.4C19.3784 7.72667 19.5984 8.23 19.5984 8.91C19.5984 9.56333 19.3417 10.0867 18.8284 10.48C18.3217 10.8667 17.6717 11.0633 16.8784 11.07H16.8184C16.1584 11.07 15.5717 10.94 15.0584 10.68C14.5517 10.4133 14.1484 10.0733 13.8484 9.66L14.7484 8.83C14.9284 9.08333 15.1984 9.30333 15.5584 9.49C15.9184 9.67667 16.3384 9.77 16.8184 9.77H16.8784C17.285 9.76333 17.6084 9.68333 17.8484 9.53C18.095 9.37667 18.2184 9.17 18.2184 8.91C18.2184 8.63 18.1084 8.43 17.8884 8.31C17.6684 8.18333 17.3484 8.09333 16.9284 8.04L16.3784 7.98C14.7984 7.79333 14.0084 7.15333 14.0084 6.06C14.0084 5.42 14.2517 4.91 14.7384 4.53C15.2317 4.14333 15.8517 3.94333 16.5984 3.93ZM21.1652 4H23.5952C24.5886 4 25.4286 4.33333 26.1152 5C26.8086 5.66 27.1552 6.49333 27.1552 7.5C27.1552 8.50667 26.8119 9.34333 26.1252 10.01C25.4386 10.67 24.5952 11 23.5952 11H21.1652V4ZM22.5452 9.7H23.5952C24.2286 9.7 24.7486 9.50667 25.1552 9.12C25.5686 8.72667 25.7752 8.18667 25.7752 7.5C25.7752 6.81333 25.5686 6.27667 25.1552 5.89C24.7486 5.49667 24.2286 5.3 23.5952 5.3H22.5452V9.7Z" fill="white"/>
</svg>
