<svg width="79" height="79" viewBox="0 0 79 79" fill="none" xmlns="http://www.w3.org/2000/svg">
<circle cx="39.5" cy="39.5001" r="38" stroke="#E25D23" stroke-width="3"/>
<circle cx="39.5" cy="39.5001" r="32.5" fill="#E25D23"/>
<path d="M42.1416 22.8842C42.0421 26.027 41.3103 29.0572 40.3329 32.0263C40.0377 32.9221 40.0936 33.5803 40.6095 34.3892C42.3125 37.0644 44.1958 39.5857 46.4908 41.8038C46.7627 42.0658 47.0067 42.1618 47.4045 42.0978C50.147 41.6575 52.9067 41.4321 55.6896 41.624C57.0477 41.7185 58.3887 41.9074 59.6535 42.4406C60.101 42.6295 60.5268 42.8519 60.909 43.152C61.8149 43.8635 62.1645 44.7912 61.9283 45.8896C61.7061 46.9225 60.9696 47.5091 59.9658 47.7894C58.6839 48.1474 57.3895 48.0651 56.0983 47.8579C52.7855 47.3278 49.9792 45.7693 47.4589 43.6776C46.8979 43.213 46.4193 43.0347 45.6595 43.1794C42.2348 43.8315 38.894 44.7669 35.5563 45.7419C34.6784 45.9978 34.1843 46.467 33.757 47.2028C32.0415 50.1522 30.1225 52.9615 27.613 55.338C26.5595 56.3359 25.4081 57.2027 24.0097 57.6948C22.7899 58.1244 21.5794 58.1335 20.4125 57.5104C19.1088 56.8127 18.6566 55.4767 19.2704 54.1558C19.8096 52.9934 20.7341 52.151 21.7302 51.3847C24.2381 49.453 27.0754 48.0895 30.0106 46.9271C30.8016 46.6133 31.3019 46.1669 31.6966 45.4341C34.0724 41.0238 35.9013 36.394 37.5732 31.6958C37.6882 31.3713 37.682 31.0986 37.536 30.7756C36.4218 28.3335 35.6232 25.797 35.3326 23.131C35.1834 21.766 35.1663 20.3979 35.6216 19.0664C35.9945 17.9696 36.6891 17.1926 37.8902 17.0327C39.0929 16.8727 40.1045 17.3069 40.8628 18.2423C41.7733 19.3635 42.0095 20.7118 42.1385 22.0859C42.1633 22.3495 42.1416 22.6176 42.1416 22.8842ZM39.6507 34.2643C38.9795 36.1808 38.3113 37.9982 37.5453 39.7776C36.8321 41.4321 36.167 43.1094 35.171 44.6328C35.0995 44.7425 34.9907 44.872 35.0855 44.9908C35.2176 45.1538 35.3683 44.9939 35.5035 44.9527C38.7604 43.9503 42.0406 43.0378 45.4047 42.4421C45.529 42.4208 45.7139 42.4771 45.7636 42.3233C45.8195 42.1496 45.6315 42.0673 45.529 41.9653C43.6271 40.0716 41.994 37.9739 40.5722 35.7146C40.2816 35.2515 39.9864 34.7929 39.6507 34.2643ZM30.236 47.6675C29.6051 47.9432 28.968 48.2053 28.3434 48.4947C25.9737 49.5931 23.6585 50.7799 21.6571 52.4724C20.947 53.0727 20.3146 53.7369 19.9401 54.5991C19.6542 55.2588 19.7552 55.8758 20.2385 56.4014C20.6766 56.8782 21.2407 56.9955 21.8824 56.863C22.8303 56.6665 23.587 56.1363 24.2816 55.5284C26.8035 53.324 28.5951 50.5697 30.236 47.6675ZM47.6407 42.8245C50.1455 44.84 52.6689 46.4701 55.7766 46.9835C56.6701 47.1313 57.562 47.0505 58.3467 46.5143C59.6069 45.652 59.5851 43.8787 58.3048 43.05C57.8588 42.7605 57.3678 42.6005 56.8441 42.5244C53.8157 42.0856 50.8136 42.337 47.6407 42.8245ZM38.1388 30.1038C38.3657 29.3573 38.5553 28.7799 38.7169 28.1949C39.4006 25.7376 40.0439 23.2727 40.0625 20.6996C40.0672 20.1054 40.0143 19.5174 39.789 18.9629C39.5093 18.2773 39.0323 17.8005 38.2336 17.7898C37.4738 17.7791 36.961 18.1889 36.6332 18.8334C36.3985 19.295 36.2696 19.7901 36.1919 20.3004C35.9168 22.1027 36.2105 23.8607 36.6068 25.6096C36.9486 27.1102 37.4567 28.5575 38.1388 30.1038Z" fill="white"/>
</svg>
