<svg width="34" height="15" viewBox="0 0 34 15" fill="none" xmlns="http://www.w3.org/2000/svg">
<rect y="0.00012207" width="34" height="15" rx="7.5" fill="#2B2A29"/>
<path d="M8.88605 6.83012H11.9161V8.13012H8.88605V9.70012H12.1661V11.0001H7.50605V4.00012H12.1661V5.30012H8.88605V6.83012ZM13.7463 4.00012H16.0463C17.0063 4.00012 17.7663 4.25346 18.3263 4.76012C18.8863 5.26012 19.1663 5.90346 19.1663 6.69012C19.1663 7.48346 18.8863 8.13346 18.3263 8.64012C17.7663 9.14012 17.0063 9.39012 16.0463 9.39012H15.1263V11.0001H13.7463V4.00012ZM15.1263 8.09012H16.1563C16.643 8.09012 17.0463 7.97346 17.3663 7.74012C17.693 7.50679 17.8563 7.15679 17.8563 6.69012C17.8563 6.24346 17.693 5.90012 17.3663 5.66012C17.0396 5.42012 16.6363 5.30012 16.1563 5.30012H15.1263V8.09012ZM23.0271 3.93012H23.1071C23.5871 3.93012 24.0637 4.03679 24.5371 4.25012C25.0104 4.45679 25.4337 4.73679 25.8071 5.09012L24.9071 5.92012C24.6537 5.71346 24.3537 5.54679 24.0071 5.42012C23.6671 5.29346 23.3671 5.23012 23.1071 5.23012H23.0271C22.7337 5.23012 22.4571 5.29346 22.1971 5.42012C21.9437 5.54012 21.8171 5.73679 21.8171 6.01012C21.8171 6.22346 21.9171 6.38012 22.1171 6.48012C22.3237 6.58012 22.6137 6.65346 22.9871 6.70012L23.5471 6.76012C24.3271 6.85346 24.9337 7.06679 25.3671 7.40012C25.8071 7.72679 26.0271 8.23012 26.0271 8.91012C26.0271 9.56346 25.7704 10.0868 25.2571 10.4801C24.7504 10.8668 24.1004 11.0635 23.3071 11.0701H23.2471C22.5871 11.0701 22.0004 10.9401 21.4871 10.6801C20.9804 10.4135 20.5771 10.0735 20.2771 9.66012L21.1771 8.83012C21.3571 9.08346 21.6271 9.30346 21.9871 9.49012C22.3471 9.67679 22.7671 9.77012 23.2471 9.77012H23.3071C23.7137 9.76346 24.0371 9.68346 24.2771 9.53012C24.5237 9.37679 24.6471 9.17012 24.6471 8.91012C24.6471 8.63012 24.5371 8.43012 24.3171 8.31012C24.0971 8.18346 23.7771 8.09346 23.3571 8.04012L22.8071 7.98012C21.2271 7.79346 20.4371 7.15346 20.4371 6.06012C20.4371 5.42012 20.6804 4.91012 21.1671 4.53012C21.6604 4.14346 22.2804 3.94346 23.0271 3.93012Z" fill="white"/>
</svg>
