<svg width="34" height="15" viewBox="0 0 34 15" fill="none" xmlns="http://www.w3.org/2000/svg">
<rect y="0.00012207" width="34" height="15" rx="7.5" fill="#2B2A29"/>
<path d="M10.14 3.93012C11.18 3.93012 12.06 4.31679 12.78 5.09012L11.88 5.92012C11.4067 5.46012 10.8267 5.23012 10.14 5.23012C9.52 5.23012 9 5.44346 8.58 5.87012C8.16667 6.29679 7.96 6.84012 7.96 7.50012C7.96 8.16679 8.16667 8.71346 8.58 9.14012C9 9.56012 9.52 9.77012 10.14 9.77012C10.84 9.77012 11.42 9.54012 11.88 9.08012L12.78 9.91012C12.06 10.6835 11.18 11.0701 10.14 11.0701C9.15333 11.0701 8.31333 10.7235 7.62 10.0301C6.92667 9.33012 6.58 8.48679 6.58 7.50012C6.58 6.51346 6.92667 5.67346 7.62 4.98012C8.31333 4.28012 9.15333 3.93012 10.14 3.93012ZM14.3645 4.00012H16.7945C17.7878 4.00012 18.6278 4.33346 19.3145 5.00012C20.0078 5.66012 20.3545 6.49346 20.3545 7.50012C20.3545 8.50679 20.0111 9.34346 19.3245 10.0101C18.6378 10.6701 17.7945 11.0001 16.7945 11.0001H14.3645V4.00012ZM15.7445 9.70012H16.7945C17.4278 9.70012 17.9478 9.50679 18.3545 9.12012C18.7678 8.72679 18.9745 8.18679 18.9745 7.50012C18.9745 6.81346 18.7678 6.27679 18.3545 5.89012C17.9478 5.49679 17.4278 5.30012 16.7945 5.30012H15.7445V9.70012ZM21.9816 4.00012H24.3616C25.315 4.00012 26.0583 4.25012 26.5916 4.75012C27.1316 5.24346 27.4016 5.87346 27.4016 6.64012C27.4016 7.16012 27.2683 7.61012 27.0016 7.99012C26.7416 8.37012 26.3716 8.65346 25.8916 8.84012C26.185 9.02679 26.5316 9.43679 26.9316 10.0701L27.5316 11.0001H25.9816L25.5316 10.3001C25.2516 9.87346 25.0316 9.60012 24.8716 9.48012C24.7183 9.36012 24.4716 9.29679 24.1316 9.29012H23.3616V11.0001H21.9816V4.00012ZM23.3616 5.30012V7.99012H24.4916C24.9716 7.99012 25.3583 7.87679 25.6516 7.65012C25.945 7.42346 26.0916 7.08679 26.0916 6.64012C26.0916 6.21346 25.9416 5.88346 25.6416 5.65012C25.3483 5.41679 24.965 5.30012 24.4916 5.30012H23.3616Z" fill="white"/>
</svg>
