<svg width="25" height="25" viewBox="0 0 25 25" fill="none" xmlns="http://www.w3.org/2000/svg">
<path d="M12.4968 2.26781e-07C19.3989 -0.00130206 25.0039 5.60635 25 12.5085C24.9961 19.4093 19.3833 25.0091 12.4785 25C5.59724 24.9896 0.00651711 19.3976 5.67151e-06 12.515C-0.00650577 5.61155 5.59463 0.00130251 12.4968 2.26781e-07ZM13.5777 11.003C13.5842 11.003 13.592 11.003 13.5985 11.003C13.5985 10.6123 13.5998 10.2216 13.5985 9.83227C13.5933 8.97797 13.3953 8.74095 12.5593 8.70058C11.8938 8.66932 11.2257 8.68495 10.559 8.70318C10.2503 8.711 9.94297 8.78523 9.68772 8.97797C9.47154 9.14075 9.31527 9.29572 9.73981 9.40512C10.0836 9.49367 10.292 9.74371 10.3532 10.094C10.5069 10.9835 10.5212 11.8769 10.3415 12.7611C10.2308 13.3055 9.91562 13.3966 9.52233 13.0164C9.32438 12.8262 9.14988 12.6061 8.9936 12.3808C8.39715 11.5239 7.90359 10.6097 7.5129 9.64083C7.37877 9.31005 7.16128 9.08736 6.79013 9.08475C6.02569 9.07954 5.25994 9.07043 4.4968 9.09908C4.01366 9.11731 3.88473 9.34 4.08268 9.77887C5.00079 11.813 6.02439 13.7886 7.42565 15.5428C8.83733 17.31 10.6579 18.1565 12.9343 17.9755C13.3641 17.9416 13.5829 17.7502 13.5946 17.3035C13.6011 17.03 13.6441 16.7513 13.717 16.487C13.9176 15.7616 14.3382 15.6379 14.8721 16.1562C15.2797 16.5521 15.6522 16.9857 16.0494 17.3933C16.3502 17.7033 16.7031 17.9768 17.1407 17.9859C18.0497 18.0054 18.9613 18.0054 19.8677 17.9403C20.3847 17.9038 20.5306 17.5249 20.287 17.0534C20.1138 16.7201 19.8911 16.4166 19.6294 16.1484C19.1189 15.6235 18.5902 15.1182 18.0797 14.5934C17.6564 14.1585 17.6226 13.8785 17.9612 13.3849C18.2724 12.9291 18.6188 12.4967 18.9483 12.0527C19.4523 11.3742 19.9836 10.71 20.3027 9.91691C20.5397 9.32828 20.3743 9.09126 19.7427 9.08605C18.9613 9.08085 18.1786 9.12903 17.3999 9.08345C16.8256 9.04959 16.5508 9.284 16.3515 9.7958C15.9127 10.9223 15.324 11.9706 14.5192 12.8835C14.3616 13.0619 14.1858 13.2898 13.9058 13.1778C13.6493 13.075 13.5946 12.8041 13.5868 12.5619C13.5646 12.0449 13.5777 11.5239 13.5777 11.003Z" fill="#4E77A3"/>
<path d="M13.5776 11.0032C13.5776 11.5242 13.5646 12.0451 13.5828 12.5647C13.5919 12.8069 13.6453 13.0765 13.9019 13.1807C14.1832 13.294 14.359 13.0648 14.5153 12.8863C15.3201 11.9734 15.9087 10.9251 16.3476 9.79862C16.5468 9.28552 16.8216 9.05241 17.3959 9.08627C18.1747 9.13185 18.9574 9.08367 19.7387 9.08888C20.3703 9.09409 20.5344 9.3311 20.2987 9.91974C19.9797 10.7128 19.4483 11.377 18.9443 12.0555C18.6149 12.4996 18.2685 12.9319 17.9572 13.3877C17.6199 13.8813 17.6525 14.1613 18.0757 14.5963C18.5862 15.1198 19.1162 15.6264 19.6254 16.1512C19.8872 16.4195 20.1099 16.7229 20.2831 17.0563C20.5266 17.5277 20.3808 17.9054 19.8638 17.9431C18.9574 18.0082 18.0458 18.0095 17.1368 17.9887C16.6992 17.9796 16.3463 17.7048 16.0455 17.3962C15.6483 16.9872 15.2771 16.5549 14.8682 16.159C14.3342 15.642 13.9136 15.7644 13.7131 16.4898C13.6401 16.7541 13.5985 17.0328 13.5906 17.3063C13.5789 17.753 13.3601 17.9444 12.9304 17.9783C10.654 18.158 8.83209 17.3115 7.42171 15.5456C6.02306 13.7914 4.99946 11.8159 4.08135 9.78169C3.8834 9.34152 4.01233 9.12013 4.49547 9.1019C5.25861 9.07195 6.02436 9.08106 6.7888 9.08758C7.15995 9.09018 7.37743 9.31157 7.51157 9.64365C7.90226 10.6126 8.39582 11.5268 8.99227 12.3837C9.14985 12.609 9.32305 12.829 9.521 13.0192C9.91559 13.3994 10.2294 13.3083 10.3401 12.7639C10.5199 11.8797 10.5055 10.9863 10.3519 10.0968C10.2906 9.74523 10.0823 9.49649 9.73848 9.40794C9.31524 9.29855 9.47151 9.14357 9.68639 8.98079C9.94164 8.78805 10.249 8.71382 10.5576 8.70601C11.2244 8.68777 11.8925 8.67215 12.5579 8.7034C13.394 8.74247 13.5919 8.98079 13.5972 9.83509C13.5998 10.2258 13.5972 10.6165 13.5972 11.0058C13.5906 11.0032 13.5841 11.0032 13.5776 11.0032Z" fill="#FEFEFE"/>
</svg>
