<svg width="20" height="20" viewBox="0 0 20 20" fill="none" xmlns="http://www.w3.org/2000/svg">
<path d="M10.0064 9.03787e-07C15.5592 0.00231746 20.0104 4.46401 20 10.0168C19.9907 15.5707 15.5279 20.0116 9.97163 20C4.43853 19.9873 0.00231746 15.5406 9.03553e-07 10.0041C-0.00231566 4.44895 4.45011 -0.00231565 10.0064 9.03787e-07ZM15.0264 6.37285C15.024 5.9385 14.8306 5.76591 14.4681 5.82267C14.3268 5.84468 14.1901 5.89911 14.0557 5.95124C11.8839 6.78636 9.71333 7.62263 7.54387 8.46239C6.78983 8.75427 6.03927 9.05658 5.29102 9.36468C5.14739 9.42376 4.97829 9.51758 4.98987 9.69943C5.00145 9.88244 5.1833 9.94267 5.33272 9.99131C5.96514 10.1975 6.5964 10.4037 7.23461 10.589C7.46975 10.6573 7.59484 10.7755 7.66665 11.0118C7.89831 11.7716 8.15081 12.5256 8.39984 13.2797C8.55737 13.758 8.80872 13.8264 9.18284 13.4882C9.47241 13.2264 9.76661 12.9658 10.0261 12.675C10.2427 12.4318 10.406 12.4121 10.6689 12.6206C11.2573 13.0886 11.8689 13.5275 12.4793 13.9688C13.0364 14.3708 13.3434 14.2561 13.487 13.5901C13.838 11.9673 14.1808 10.3423 14.5271 8.71721C14.6986 7.9122 14.87 7.1072 15.0264 6.37285Z" fill="#179CD1"/>
<path d="M15.0263 6.37291C14.8699 7.10726 14.6985 7.91226 14.5271 8.71727C14.1808 10.3412 13.8379 11.9662 13.487 13.5901C13.3422 14.2562 13.0364 14.3708 12.4793 13.9689C11.8688 13.5288 11.2573 13.0886 10.6689 12.6207C10.4071 12.4122 10.2426 12.4319 10.026 12.6751C9.76656 12.9658 9.47236 13.2264 9.18279 13.4882C8.80867 13.8264 8.55732 13.7581 8.39979 13.2797C8.15076 12.5245 7.89826 11.7716 7.6666 11.0118C7.59479 10.7755 7.4697 10.6574 7.23457 10.589C6.59635 10.4037 5.96509 10.1975 5.33267 9.99137C5.18325 9.94273 5.0014 9.8825 4.98982 9.69949C4.97824 9.51764 5.14735 9.42382 5.29097 9.36475C6.03922 9.05664 6.78979 8.75433 7.54383 8.46245C9.71328 7.62154 11.8851 6.78642 14.0557 5.9513C14.19 5.89918 14.3267 5.84589 14.468 5.82273C14.8294 5.76597 15.024 5.93856 15.0263 6.37291ZM8.65693 12.8477C8.694 12.8454 8.72991 12.8431 8.76697 12.8396C8.7994 12.5593 8.86658 12.279 8.85732 11.9998C8.84342 11.5585 9.00789 11.2458 9.34032 10.9539C10.5762 9.86744 11.7889 8.75549 13.0063 7.64818C13.0897 7.57289 13.2785 7.49992 13.1684 7.35166C13.0885 7.24278 12.9507 7.3505 12.858 7.40841C11.2816 8.39758 9.70633 9.38907 8.13223 10.3829C8.00946 10.4605 7.88552 10.5358 7.94922 10.7246C8.18899 11.4311 8.4218 12.14 8.65693 12.8477Z" fill="#FDFEFF"/>
<path d="M8.65703 12.8475C8.4219 12.1398 8.18908 11.431 7.94932 10.7244C7.88561 10.5356 8.01071 10.4603 8.13233 10.3827C9.70643 9.39007 11.2805 8.39742 12.8581 7.40941C12.9508 7.3515 13.0886 7.24378 13.1685 7.35266C13.2774 7.49976 13.0898 7.57273 13.0064 7.64918C11.789 8.75649 10.5751 9.86844 9.34041 10.9549C9.00799 11.2468 8.84351 11.5595 8.85741 12.0008C8.86552 12.28 8.7995 12.5603 8.76706 12.8406C8.73 12.8417 8.69409 12.8452 8.65703 12.8475Z" fill="#179CD1"/>
</svg>
