<svg width="32" height="31" viewBox="0 0 32 31" fill="none" xmlns="http://www.w3.org/2000/svg">
<path d="M0.00660446 15.5466C0.00660446 7.66835 5.93509 1.16133 13.9932 0.131281C22.6782 -0.979242 30.7629 5.08196 31.8701 13.5332C32.984 22.044 26.8111 29.7629 18.0049 30.8783C14.7331 31.2919 11.6824 30.6401 8.82618 29.0934C8.34406 28.8327 8.06309 28.8777 7.71896 29.2576C7.30832 29.7098 6.85279 30.1251 6.40059 30.5403C5.78713 31.1052 4.92928 31.1245 4.38896 30.6063C3.84865 30.088 3.86029 29.2463 4.44549 28.6605C5.2252 27.8799 6.02487 27.117 6.82287 26.3541C7.57764 25.6331 8.07141 25.5623 8.98412 26.1095C10.6233 27.0945 12.3391 27.8944 14.2642 28.1631C17.9566 28.6782 21.3066 27.8042 24.1927 25.5526C29.0655 21.7495 30.6316 15.7382 28.0264 10.237C25.7837 5.49881 21.817 2.97036 16.4022 2.72089C9.95835 2.42636 4.23767 6.90869 3.02239 12.9635C2.39396 16.0955 2.85613 19.0858 4.4937 21.8798C4.61673 22.0891 4.75471 22.2902 4.87608 22.5011C5.28006 23.1996 5.10883 23.956 4.46378 24.3503C3.79711 24.7575 3.06561 24.5982 2.56353 23.9174C2.05315 23.2269 1.65082 22.4769 1.31167 21.6964C0.44883 19.7119 -0.0648832 17.6534 0.00660446 15.5466Z" fill="#E25D23"/>
<path d="M17.3847 17.4624C17.3847 18.4474 17.3913 19.4324 17.383 20.419C17.3747 21.3702 16.7829 22.0188 15.9633 21.9962C15.142 21.9737 14.6083 21.3734 14.6033 20.427C14.595 18.4361 14.595 16.4452 14.6033 14.4543C14.6067 13.4806 15.1769 12.8594 16.0165 12.8787C16.8228 12.8964 17.3731 13.5192 17.383 14.4463C17.393 15.4522 17.3847 16.4581 17.3847 17.4624Z" fill="#E25D23"/>
<path d="M16.0148 11.6687C15.2551 11.6783 14.6067 11.0716 14.61 10.3586C14.6133 9.6488 15.28 9.00824 16.0065 9.0179C16.7463 9.02755 17.3847 9.66168 17.3781 10.3795C17.3698 11.0683 16.7463 11.659 16.0148 11.6687Z" fill="#E25D23"/>
</svg>
