<svg width="21" height="20" viewBox="0 0 21 20" fill="none" xmlns="http://www.w3.org/2000/svg">
<circle cx="10.5" cy="10.5" r="8.5" fill="white"/>
<path fill-rule="evenodd" clip-rule="evenodd" d="M10.2273 8.9595C10.7628 8.9595 11.3237 9.36042 11.3237 10.0754C11.3237 10.7903 10.7612 11.1791 10.2273 11.1791C9.67903 11.1791 9.12921 10.7903 9.12921 10.0754C9.12921 9.36042 9.67744 8.9595 10.2273 8.9595ZM10.3049 4.92126C7.36565 4.92126 5.01425 7.20335 5.01425 10.0129C5.01425 12.8331 7.36565 15.0908 10.3049 15.0908C11.506 15.0908 12.6167 14.7021 13.5183 14.0511L12.5644 13.1349C11.8847 13.6121 11.0623 13.8377 10.3049 13.8377C8.44945 13.8377 6.45139 12.5343 6.45139 10.0266C6.45139 7.5189 8.44945 6.17587 10.3049 6.17587C12.1081 6.17587 14.1727 7.46707 14.1727 9.88788V10.1638C14.1727 11.2675 13.8447 11.4428 13.4803 11.4428C13.1016 11.4428 12.8401 11.1669 12.8401 10.6653V7.49299H11.7563L11.6517 8.00672C11.2604 7.64391 10.7105 7.41829 10.0577 7.41829C8.52868 7.41829 7.47181 8.60888 7.47181 10.0769C7.47181 11.5449 8.52868 12.7233 10.0577 12.7233C10.8278 12.7233 11.4553 12.4093 11.8862 11.92L11.9512 12.0587C12.2649 12.4352 12.7482 12.6608 13.4533 12.6608C14.8255 12.6608 15.6098 11.6334 15.6098 10.1531V9.8391C15.6098 7.10578 13.2061 4.92279 10.3049 4.92279V4.92126ZM17.7806 2.93035C13.71 -0.976783 7.1153 -0.976783 3.04947 2.93035C-0.864253 6.68809 -1.01161 12.6989 2.61215 16.6274L2.71989 16.7097C2.32535 17.5253 1.65036 18.5299 0.576063 19.0375C0.221134 19.2037 0.303527 19.7113 0.693314 19.7693C1.86743 19.9431 3.55175 19.7479 5.12358 18.6092L5.14418 18.626C9.13713 20.8775 14.3596 20.3638 17.7885 17.071C21.8496 13.1685 21.8496 6.83291 17.7806 2.93035Z" fill="#E25D23"/>
</svg>
