<svg width="19" height="20" viewBox="0 0 19 20" fill="none" xmlns="http://www.w3.org/2000/svg">
<path d="M18.4237 8.17042C18.4161 9.29083 18.4313 10.4737 18.135 11.626C17.4316 14.3708 15.5096 15.7804 12.8796 16.3954C11.3314 16.7577 9.75432 16.7471 8.17877 16.6938C7.77614 16.6801 7.50874 16.7988 7.25501 17.1048C6.52572 17.9801 5.77213 18.8357 5.02005 19.6927C4.89091 19.8404 4.76784 20.0824 4.52019 19.9713C4.30444 19.8754 4.39256 19.6349 4.39256 19.4552C4.39104 18.4657 4.39408 17.4778 4.40776 16.4883C4.41231 16.2219 4.38193 16.0392 4.08566 15.9128C1.64863 14.8807 0.379977 12.99 0.139921 10.3854C0.00621851 8.94527 -0.0773454 7.49147 0.106495 6.05746C0.474176 3.16052 2.15761 1.29874 4.93345 0.569562C7.8202 -0.188544 10.7708 -0.203767 13.6545 0.60762C16.8664 1.51187 18.5832 4.06629 18.4541 7.48538C18.4465 7.69546 18.4359 7.90401 18.4237 8.17042ZM3.60858 5.38156C3.62074 5.70276 3.72709 6.06355 3.87447 6.41672C5.29657 9.82211 7.73664 12.2228 11.061 13.7573C12.2871 14.3236 13.4949 13.8806 14.0799 12.649C14.3731 12.0325 14.3063 11.6093 13.7867 11.18C13.3187 10.7949 12.831 10.428 12.3251 10.0961C11.497 9.55571 11.0382 9.62421 10.4031 10.3717C10.1235 10.7005 9.84397 10.7659 9.45653 10.5878C8.47656 10.1372 7.70321 9.47046 7.19119 8.51293C6.78097 7.74569 6.81288 7.57824 7.44796 6.99977C7.97214 6.52328 8.03443 6.22948 7.72296 5.5962C7.38567 4.90812 6.92379 4.30681 6.39354 3.75878C6.1474 3.50456 5.86329 3.34167 5.48953 3.35994C4.53386 3.40866 3.61618 4.35705 3.60858 5.38156ZM14.595 7.51887C14.4552 5.91741 13.6712 4.53211 12.3782 3.65679C11.5426 3.09049 10.631 2.76168 9.60543 2.79517C9.30764 2.8043 9.13139 2.93979 9.09797 3.22141C9.06302 3.50913 9.27269 3.61873 9.51275 3.66897C9.64189 3.69637 9.7756 3.70398 9.90626 3.72377C11.9984 4.03584 13.1364 5.08928 13.5755 7.12916C13.6271 7.36968 13.6393 7.61782 13.6773 7.86139C13.7244 8.1628 13.7487 8.52054 14.1711 8.4901C14.5798 8.46118 14.5843 8.11409 14.595 7.80202C14.5965 7.70916 14.595 7.61325 14.595 7.51887ZM13.1121 7.61934C13.1394 5.86565 11.5775 4.2581 9.83029 4.21852C9.55985 4.21243 9.33651 4.28702 9.28485 4.59605C9.23471 4.89594 9.37601 5.06187 9.66772 5.12124C9.85308 5.1593 10.0369 5.20497 10.2177 5.25673C10.909 5.45006 11.5411 5.7256 11.8753 6.43042C12.0637 6.82927 12.1534 7.25703 12.2187 7.68632C12.2673 8.00296 12.3494 8.25262 12.7368 8.20086C13.1014 8.15215 13.0847 7.85682 13.1121 7.61934ZM11.6869 7.42449C11.6869 6.6679 10.947 5.84282 10.1752 5.7393C9.85308 5.69668 9.53402 5.72864 9.44438 6.09856C9.35018 6.48523 9.6738 6.57048 9.95336 6.63746C10.4304 6.75011 10.7115 7.03021 10.7814 7.52344C10.8255 7.82942 10.947 8.09887 11.3177 8.03798C11.6429 7.98469 11.6991 7.7122 11.6869 7.42449Z" fill="#634A99"/>
<path d="M3.6084 5.38185C3.616 4.35734 4.53368 3.40895 5.48935 3.36176C5.86462 3.34349 6.14874 3.50485 6.39336 3.7606C6.92361 4.31015 7.38549 4.90994 7.72278 5.59802C8.03425 6.23129 7.97195 6.5251 7.44778 7.00158C6.81269 7.58005 6.78079 7.74751 7.19101 8.51475C7.70303 9.47227 8.47637 10.139 9.45635 10.5896C9.84378 10.7678 10.1249 10.7023 10.4029 10.3735C11.038 9.62603 11.4968 9.55752 12.3249 10.0979C12.8323 10.4298 13.3185 10.7967 13.7865 11.1818C14.3061 11.6096 14.3729 12.0328 14.0797 12.6508C13.4963 13.8824 12.2869 14.3254 11.0608 13.7591C7.73646 12.2246 5.29639 9.8224 3.8758 6.41702C3.72691 6.06384 3.62207 5.70306 3.6084 5.38185Z" fill="#FDFDFE"/>
<path d="M14.5948 7.51919C14.5948 7.61357 14.5978 7.70796 14.5948 7.80386C14.5856 8.11593 14.5796 8.4615 14.1709 8.49194C13.7485 8.52239 13.7242 8.16465 13.6771 7.86323C13.6391 7.61966 13.6269 7.37153 13.5753 7.131C13.1377 5.09112 11.9997 4.03769 9.90607 3.72562C9.77541 3.70583 9.6417 3.69821 9.51256 3.67081C9.2725 3.61905 9.06435 3.51097 9.09778 3.22326C9.13121 2.94163 9.30745 2.80615 9.60524 2.79701C10.6308 2.76352 11.5424 3.09234 12.378 3.65863C13.671 4.53396 14.4535 5.91773 14.5948 7.51919Z" fill="#FDFDFE"/>
<path d="M13.1119 7.61966C13.0846 7.85714 13.1013 8.15247 12.7366 8.20118C12.3492 8.25294 12.2656 8.00329 12.2185 7.68665C12.1532 7.25736 12.0651 6.82959 11.8752 6.43075C11.5409 5.72592 10.9089 5.45038 10.2176 5.25705C10.0352 5.20529 9.85141 5.15963 9.66757 5.12157C9.37737 5.0622 9.23607 4.89627 9.28469 4.59637C9.33635 4.28735 9.55969 4.21275 9.83014 4.21884C11.5774 4.25842 13.1393 5.86445 13.1119 7.61966Z" fill="#FDFDFE"/>
<path d="M11.6868 7.42468C11.699 7.71239 11.6428 7.98336 11.3176 8.03816C10.9469 8.09906 10.8254 7.82961 10.7813 7.52363C10.7114 7.0304 10.4303 6.7503 9.95325 6.63765C9.67369 6.57219 9.35007 6.48694 9.44427 6.09875C9.53391 5.73035 9.85449 5.69686 10.1751 5.73949C10.9469 5.843 11.6853 6.66961 11.6868 7.42468Z" fill="#F8F9FB"/>
</svg>
