<svg width="25" height="23" viewBox="0 0 25 23" fill="none" xmlns="http://www.w3.org/2000/svg">
<path d="M12.4974 22.9995C10.5909 22.9995 8.68379 23.0002 6.77736 22.998C6.59896 22.998 6.41914 22.9853 6.2429 22.9585C5.34663 22.8213 4.8874 22.2761 4.88453 21.3238C4.87809 19.3766 4.88167 17.4287 4.88167 15.4815C4.88167 13.767 4.88238 12.0525 4.88167 10.338C4.88167 10.0374 4.88167 10.0412 4.62304 10.1642C4.27413 10.3305 3.93669 10.5274 3.55555 10.6124C3.20593 10.6907 2.92079 10.5871 2.69296 10.3029C2.53749 10.1083 2.4157 9.89052 2.30537 9.66679C1.62189 8.2834 0.937693 6.90002 0.261379 5.5129C-0.187826 4.5904 -0.0825101 4.19514 0.768615 3.67013C2.21581 2.77745 3.64295 1.84749 5.13815 1.04132C6.20707 0.465595 7.34477 0.126274 8.55053 0.0427492C8.88941 0.0188849 9.2247 -0.0198947 9.56644 0.0323086C10.0321 0.103156 10.3316 0.368647 10.4942 0.814611C10.6282 1.18153 10.7686 1.54098 11.0394 1.83034C12.0295 2.88708 13.7612 2.57759 14.3465 1.23522C14.3723 1.17556 14.3945 1.11441 14.4167 1.054C14.7255 0.224715 15.0679 -0.0236235 15.9169 0.00173238C17.4085 0.046478 18.8264 0.418612 20.1303 1.17332C21.4206 1.91983 22.6829 2.71854 23.9575 3.49413C24.0886 3.57393 24.2225 3.64999 24.3515 3.73352C25.0307 4.17352 25.1589 4.60904 24.8136 5.35629C24.5535 5.9186 24.2806 6.47493 24.0069 7.03053C23.5613 7.93364 23.1106 8.83377 22.6629 9.73614C22.5762 9.90991 22.4873 10.0814 22.3691 10.2358C22.1084 10.5751 21.7781 10.6974 21.369 10.602C21.0767 10.5341 20.8188 10.3827 20.5472 10.2619C20.174 10.0949 20.1575 10.1038 20.1568 10.5192C20.1539 12.1688 20.1546 13.8177 20.1546 15.4673C20.1546 17.2661 20.1575 19.0641 20.151 20.8629C20.1496 21.1597 20.1317 21.461 20.0765 21.7511C19.9461 22.4364 19.5192 22.8362 18.8586 22.9488C18.529 23.0047 18.1988 23.0002 17.8678 23.0002C16.0774 23.001 14.287 23.001 12.4967 23.001L12.4974 22.9995ZM18.1694 13.6514C18.1694 12.7565 18.1694 11.8623 18.1694 10.9674C18.1694 10.0725 18.1694 9.17832 18.1694 8.2834C18.1694 7.89262 18.1608 7.5011 18.2109 7.11181C18.3091 6.34219 19.0714 5.95588 19.7026 6.3668C20.03 6.58009 20.1525 6.90002 20.1238 7.299C20.0937 7.72408 20.1697 7.83222 20.5501 7.99554C20.6826 8.05222 20.8173 8.1074 20.9391 8.18347C21.1003 8.28415 21.1913 8.24984 21.2759 8.07459C21.7179 7.1588 22.1635 6.24524 22.6192 5.33616C22.7188 5.13704 22.6743 5.03785 22.4959 4.9409C22.2029 4.78131 21.9178 4.60531 21.6319 4.43006C20.9062 3.98633 20.1897 3.52694 19.4568 3.09813C18.5434 2.56342 17.569 2.20247 16.5216 2.08166C16.3124 2.05779 16.1498 2.09508 16.033 2.32179C15.0357 4.25853 12.6435 5.04307 10.7486 4.06911C9.98627 3.67759 9.40381 3.09291 8.98111 2.33C8.90087 2.18606 8.83281 2.01901 8.62504 2.04959C7.62562 2.19651 6.66846 2.46945 5.77363 2.97881C4.6653 3.60898 3.60068 4.31521 2.49666 4.95134C2.30537 5.06172 2.2982 5.16762 2.38991 5.35033C2.79111 6.15202 3.1787 6.96117 3.57991 7.76212C3.88367 8.36842 3.72534 8.32516 4.37515 8.04401C4.73767 7.8874 4.92465 7.64354 4.89528 7.20652C4.85803 6.65988 5.15606 6.30788 5.67261 6.21541C6.16552 6.12666 6.60469 6.41005 6.74727 6.91717C6.80745 7.13195 6.83252 7.35568 6.83252 7.5794C6.83252 11.6803 6.83109 15.7813 6.82822 19.8815C6.82822 20.0955 6.79885 20.3088 6.79598 20.5228C6.79025 20.9382 6.88625 21.0314 7.28961 21.0135C7.44149 21.0068 7.59266 20.9807 7.74454 20.9807C10.4125 20.9785 13.0806 20.9762 15.7493 20.98C16.4199 20.9807 17.0912 21.0098 17.7617 21.0135C18.1379 21.0158 18.2052 20.9412 18.2031 20.5564C18.2009 20.2029 18.1715 19.8494 18.1708 19.4959C18.1672 17.5472 18.1694 15.5993 18.1694 13.6514Z" fill="#E25D23"/>
</svg>
