<svg width="25" height="25" viewBox="0 0 25 25" fill="none" xmlns="http://www.w3.org/2000/svg">
<path d="M25 12.5613C24.9816 19.3624 19.3115 25.0472 12.5141 24.9977C5.5091 24.9469 0.00424019 19.4726 2.42458e-06 12.5034C-0.00423534 5.48327 5.54724 -0.0319333 12.5452 -0.000845787C19.546 0.0302417 24.9364 5.59208 25 12.5613ZM12.5071 2.36322C6.91039 2.45931 2.40423 6.76916 2.38728 12.4737C2.37033 18.0737 6.76207 22.58 12.4703 22.5969C18.0713 22.6139 22.5718 18.2277 22.5901 12.5119C22.6071 6.9133 18.2168 2.49181 12.5071 2.36322Z" fill="#E25D23"/>
<path d="M18.1732 7.94711C18.1619 8.41059 17.9571 8.70875 17.6859 8.97865C16.6349 10.0243 15.5981 11.0855 14.533 12.1171C14.2264 12.4138 14.2462 12.589 14.5415 12.8759C15.6178 13.9201 16.6759 14.9856 17.7268 16.0553C18.3766 16.7152 18.2891 17.6295 17.563 18.0294C17.0573 18.3077 16.5261 18.2088 16.0317 17.7185C14.9779 16.6742 13.9227 15.6342 12.8916 14.5673C12.5921 14.2565 12.4099 14.2268 12.0949 14.5532C11.0665 15.6201 10.0028 16.6544 8.95891 17.7072C8.58175 18.0873 8.15514 18.2823 7.62119 18.1198C6.75809 17.8555 6.52502 16.8028 7.20023 16.1062C8.24414 15.0294 9.30217 13.964 10.3856 12.9253C10.7444 12.582 10.7275 12.3827 10.38 12.0492C9.32336 11.0347 8.29782 9.98758 7.26663 8.94615C6.78211 8.45581 6.6804 7.96407 6.9276 7.46384C7.29912 6.7135 8.23142 6.57785 8.88404 7.21231C9.90817 8.20853 10.9083 9.233 11.9225 10.2405C12.561 10.875 12.4197 10.8693 13.0427 10.2504C14.0697 9.23018 15.0881 8.20146 16.1165 7.18405C16.505 6.7997 16.9697 6.69089 17.4782 6.91557C17.9458 7.12329 18.1591 7.51047 18.1732 7.94711Z" fill="#E25D23"/>
</svg>
