<svg width="21" height="20" viewBox="0 0 21 20" fill="none" xmlns="http://www.w3.org/2000/svg">
<path fill-rule="evenodd" clip-rule="evenodd" d="M17.7806 2.93035C13.71 -0.976783 7.1153 -0.976783 3.04947 2.93035C-0.864253 6.68809 -1.01161 12.6989 2.61215 16.6274L2.71989 16.7097C2.32535 17.5253 1.65036 18.5299 0.576063 19.0375C0.221134 19.2037 0.303527 19.7113 0.693314 19.7693C1.86743 19.9431 3.55175 19.7479 5.12358 18.6092L5.14418 18.6259C9.13713 20.8775 14.3596 20.3638 17.7885 17.071C21.8496 13.1685 21.8496 6.83291 17.7806 2.93035Z" fill="#E25D23"/>
<path d="M14.9994 9.99951C15.0399 12.7301 12.7308 15.0088 9.9855 15C7.28433 14.9912 4.98039 12.756 5.00013 9.98602C5.01986 7.21703 7.23033 5.01512 10.0094 5.00007C12.7614 4.98503 15.041 7.2824 14.9994 9.99951ZM10.0042 13.7615C12.0402 13.7714 13.7408 12.0966 13.773 10.0841C13.8067 7.97348 12.1347 6.29144 10.119 6.23385C7.97287 6.17211 6.26555 7.89358 6.23959 9.89366C6.21103 12.0655 7.86486 13.7506 10.0042 13.7615Z" fill="white"/>
<path d="M10.5201 8.16673C10.5201 8.43912 10.5191 8.71098 10.5211 8.98337C10.5217 9.03162 10.4941 9.09855 10.5518 9.12449C10.6053 9.14888 10.6447 9.09129 10.6857 9.06379C10.8529 8.95224 11.016 8.83447 11.1853 8.72603C11.4698 8.54288 11.7684 8.59062 11.9392 8.84121C12.1111 9.09232 12.0462 9.38754 11.7668 9.5821C11.2933 9.91155 10.815 10.2348 10.3399 10.5616C10.1597 10.6856 9.9676 10.7199 9.77133 10.6198C9.56778 10.5155 9.48418 10.3344 9.48469 10.1066C9.48677 9.19972 9.48366 8.29229 9.48625 7.38486C9.48729 7.04607 9.69292 6.83179 10.0045 6.83231C10.3139 6.83283 10.517 7.05074 10.5201 7.38953C10.5222 7.64843 10.5201 7.90784 10.5201 8.16673Z" fill="white"/>
<path d="M14.9994 9.99951C15.0399 12.7301 12.7308 15.0088 9.9855 15C7.28433 14.9912 4.98039 12.756 5.00013 9.98602C5.01986 7.21703 7.23033 5.01512 10.0094 5.00007C12.7614 4.98503 15.041 7.2824 14.9994 9.99951ZM10.0042 13.7615C12.0402 13.7714 13.7408 12.0966 13.773 10.0841C13.8067 7.97348 12.1347 6.29144 10.119 6.23385C7.97287 6.17211 6.26555 7.89358 6.23959 9.89366C6.21103 12.0655 7.86486 13.7506 10.0042 13.7615Z" stroke="white" stroke-width="0.3"/>
<path d="M10.5201 8.16673C10.5201 8.43912 10.5191 8.71098 10.5211 8.98337C10.5217 9.03162 10.4941 9.09855 10.5518 9.12449C10.6053 9.14888 10.6447 9.09129 10.6857 9.06379C10.8529 8.95224 11.016 8.83447 11.1853 8.72603C11.4698 8.54288 11.7684 8.59062 11.9392 8.84121C12.1111 9.09232 12.0462 9.38754 11.7668 9.5821C11.2933 9.91155 10.815 10.2348 10.3399 10.5616C10.1597 10.6856 9.9676 10.7199 9.77133 10.6198C9.56778 10.5155 9.48418 10.3344 9.48469 10.1066C9.48677 9.19972 9.48366 8.29229 9.48625 7.38486C9.48729 7.04607 9.69292 6.83179 10.0045 6.83231C10.3139 6.83283 10.517 7.05074 10.5201 7.38953C10.5222 7.64843 10.5201 7.90784 10.5201 8.16673Z" stroke="white" stroke-width="0.3"/>
</svg>
