<svg width="79" height="79" viewBox="0 0 79 79" fill="none" xmlns="http://www.w3.org/2000/svg">
<circle cx="39.5" cy="39.5" r="38" stroke="#E25D23" stroke-width="3"/>
<circle cx="39.5" cy="39.5" r="32.5" fill="#E25D23"/>
<path d="M35.6425 29.8379C36.5294 29.8379 37.4164 29.8487 38.3033 29.8332C38.6518 29.827 38.8352 29.889 38.9574 30.2583C41.055 36.656 43.1741 43.0474 45.2998 49.4358C45.4385 49.8547 45.4237 50.0098 44.8836 49.9959C43.5226 49.9617 42.16 49.9726 40.799 49.9928C40.4043 49.999 40.2209 49.895 40.1086 49.5211C39.6841 48.1048 39.2051 46.7024 38.7774 45.2876C38.6684 44.9261 38.4966 44.7973 38.0936 44.802C36.3825 44.8237 34.6697 44.8237 32.9569 44.802C32.5374 44.7973 32.3953 44.9478 32.2962 45.3062C31.9114 46.69 31.4787 48.0613 31.0889 49.4436C30.9815 49.8237 30.8461 50.016 30.3605 49.999C29.1234 49.9571 27.8846 49.985 26.6475 49.985C25.9125 49.985 25.9109 49.9834 26.119 49.3443C27.8747 43.9441 29.6304 38.5424 31.3878 33.1406C31.695 32.199 32.027 31.2635 32.3012 30.3126C32.4085 29.9449 32.577 29.8161 32.98 29.8285C33.867 29.8565 34.7556 29.8379 35.6425 29.8379ZM35.4972 33.243C35.403 33.4385 35.3452 33.5223 35.3221 33.6138C34.7275 36.1052 34.0288 38.5718 33.2393 41.0152C33.1369 41.3348 33.2393 41.4185 33.5796 41.4154C34.8563 41.4015 36.1347 41.3906 37.4114 41.4201C37.864 41.431 37.8723 41.2758 37.7698 40.95C36.9721 38.4338 36.1743 35.9175 35.4972 33.243Z" fill="white"/>
<path d="M48.0118 42.6379C48.0118 40.3915 48.025 38.1452 48.0019 35.8989C47.9969 35.4537 48.1423 35.3451 48.5965 35.3544C49.8336 35.3823 51.0707 35.3761 52.3078 35.3575C52.6959 35.3513 52.8528 35.4335 52.8512 35.8322C52.838 40.4024 52.8396 44.9742 52.8512 49.5444C52.8528 49.9167 52.7058 49.9974 52.3441 49.9927C51.0657 49.9772 49.7873 49.9679 48.5089 49.9974C48.0729 50.0067 48.0019 49.8531 48.0035 49.4947C48.0184 47.2096 48.0118 44.9245 48.0118 42.6379Z" fill="white"/>
<path d="M50.4167 33.5377C48.9236 33.5408 47.9161 32.6442 47.9045 31.3038C47.8929 29.9386 48.9054 29.0109 50.42 29.0001C51.8916 28.9892 52.9867 29.9573 52.9999 31.279C53.0131 32.5806 51.9197 33.5362 50.4167 33.5377Z" fill="white"/>
</svg>
