<svg width="60" height="61" viewBox="0 0 60 61" fill="none" xmlns="http://www.w3.org/2000/svg">
<path d="M50 9.21997V15.22" stroke="#BCC0C4" stroke-width="2" stroke-miterlimit="10"/>
<path d="M53 12.22H47" stroke="#BCC0C4" stroke-width="2" stroke-miterlimit="10"/>
<path d="M4 16.22V22.22" stroke="#BCC0C4" stroke-width="2" stroke-miterlimit="10"/>
<path d="M7 19.22H1" stroke="#BCC0C4" stroke-width="2" stroke-miterlimit="10"/>
<path d="M56 44.22V36.22" stroke="#2B2A29" stroke-width="2" stroke-miterlimit="10"/>
<path d="M58 46.22L30.41 59.09C29.73 59.4 28.95 59.4 28.27 59.09L4.5 48.5" stroke="#2B2A29" stroke-width="2" stroke-miterlimit="10"/>
<path d="M4.6 48.59C2.5 47.64 1 46.02 1 43.72V39.72C1 37.65 2.36 35.66 4.25 34.8L29.75 23.28C32.27 22.14 35.15 22.14 37.67 23.28L57.45 32.21C58.96 32.89 58.96 35.03 57.45 35.71L29.95 48.13C29.19 48.47 28.32 48.47 27.57 48.13L7.51 39.07C6.25 38.5 5 39.33 5 40.72V45.22" stroke="#2B2A29" stroke-width="2" stroke-miterlimit="10"/>
<path d="M28.12 12.19C28.47 12.27 28.8 12.34 29.11 12.4C29.58 12.49 30.24 12.35 31.03 12.17C31.91 11.97 33 11.73 34.3 11.73C35.32 11.73 36.32 11.88 37.36 12.18C39.57 12.82 41.31 14.2 42.38 16.18C43.93 19.04 44.08 23.16 42.78 27.48C41.28 32.45 37.45 36.28 33.25 37.01C32.93 37.07 32.59 37.09 32.24 37.09C31.3 37.09 30.39 36.88 29.63 36.63C28.97 36.41 28.26 36.41 27.59 36.63C26.83 36.89 25.92 37.09 24.98 37.09C24.63 37.09 24.29 37.06 23.97 37.01C19.77 36.28 15.94 32.45 14.44 27.48C11.69 18.35 15.68 14.33 19.52 12.56C20.9 11.92 22.34 11.61 23.93 11.61" fill="#F3723A"/>
<path d="M28.12 12.19C28.47 12.27 28.8 12.34 29.11 12.4C29.58 12.49 30.24 12.35 31.03 12.17C31.91 11.97 33 11.73 34.3 11.73C35.32 11.73 36.32 11.88 37.36 12.18C39.57 12.82 41.31 14.2 42.38 16.18C43.93 19.04 44.08 23.16 42.78 27.48C41.28 32.45 37.45 36.28 33.25 37.01C32.93 37.07 32.59 37.09 32.24 37.09C31.3 37.09 30.39 36.88 29.63 36.63C28.97 36.41 28.26 36.41 27.59 36.63C26.83 36.89 25.92 37.09 24.98 37.09C24.63 37.09 24.29 37.06 23.97 37.01C19.77 36.28 15.94 32.45 14.44 27.48C11.69 18.35 15.68 14.33 19.52 12.56C20.9 11.92 22.34 11.61 23.93 11.61" stroke="#2B2A29" stroke-width="2" stroke-miterlimit="10"/>
<path d="M19.82 16.53C18.46 17.79 17.61 21.59 17.63 24.36C17.75 25.08 17.93 25.86 18.18 26.69" stroke="#2B2A29" stroke-width="2" stroke-miterlimit="10"/>
<path d="M24.9299 14.6899C27.3499 17.1099 31.2799 17.1099 33.6999 14.6899" stroke="#2B2A29" stroke-width="2" stroke-miterlimit="10"/>
<path d="M35.15 8.81997C33.12 12.12 28.84 13.19 28.84 13.19C28.84 13.19 27.86 8.88997 29.89 5.58997C31.92 2.27997 36.2 1.21997 36.2 1.21997C36.2 1.21997 37.18 5.50997 35.15 8.81997Z" fill="white" stroke="#2B2A29" stroke-width="2" stroke-miterlimit="10"/>
<path d="M29.0399 15.98C29.0399 13.25 27.9799 9.84998 24.6599 7.16998" stroke="#2B2A29" stroke-width="2" stroke-miterlimit="10"/>
<path d="M10 8.21997C11.6569 8.21997 13 6.87682 13 5.21997C13 3.56312 11.6569 2.21997 10 2.21997C8.34315 2.21997 7 3.56312 7 5.21997C7 6.87682 8.34315 8.21997 10 8.21997Z" stroke="#BCC0C4" stroke-width="2" stroke-miterlimit="10"/>
</svg>
