<?xml version="1.0" encoding="utf-8"?><svg width="79" height="79" fill="none" xmlns="http://www.w3.org/2000/svg" viewBox="0 0 79 79"><circle cx="39.5" cy="39.5" r="38" stroke="#E25D23" stroke-width="3"/><circle cx="39.5" cy="39.5" r="32.5" fill="#E25D23"/><path d="M33.47 21.45l4.748-7.85 8.099 4.897-4.748 7.85-8.099-4.897zm5.409-4.968l-2.549 4.215 4.578 2.768 2.549-4.215-4.578-2.768zM16.475 49.555l4.747-7.85 8.1 4.897-4.748 7.85-8.1-4.897zm5.409-4.968l-2.549 4.214 4.578 2.769 2.549-4.215-4.578-2.768zM46.162 38.213l8.1 4.898-4.748 7.85-8.099-4.897 4.747-7.85zm.662 2.883l-2.549 4.214 4.578 2.769 2.548-4.215-4.577-2.768zM52.871 27.819c1.286-2.127 4.012-2.848 6.075-1.6 2.064 1.247 2.691 3.995 1.405 6.123-1.287 2.127-4.015 2.846-6.075 1.6-2.06-1.246-2.693-3.992-1.405-6.123zm5.719 3.458c.682-1.127.348-2.58-.743-3.24-1.092-.66-2.534-.28-3.215.847-.682 1.127-.349 2.58.743 3.24 1.092.66 2.533.28 3.215-.847zM35.328 56.829c1.287-2.127 4.012-2.848 6.075-1.6 2.064 1.248 2.694 3.992 1.405 6.123-1.289 2.13-4.011 2.848-6.075 1.6-2.064-1.248-2.69-3.996-1.405-6.123zm5.72 3.458c.68-1.127.348-2.58-.744-3.24-1.092-.66-2.533-.28-3.215.847-.681 1.127-.348 2.58.743 3.24 1.094.657 2.536.277 3.215-.847z" fill="#fff"/><path d="M42.746 23.727l1.176-1.771c.114.073 11.068 7.552 6.48 18.766a.685.685 0 01-.014.086h-.024l-1.002-.148-1.024-.128c.008-.1.028-.276.107-.472 4.033-9.658-5.298-16.066-5.7-16.333zM27.14 49.613c.42.23 10.428 5.517 17.112-2.539l1.572 1.329c-7.801 9.41-19.589 3.136-19.706 3.075l1.022-1.865z" fill="#fff"/><path d="M51.241 41.79l4.798-7.934-1.76-1.064-4.798 7.934 1.76 1.065zM42.303 56.572l4.424-7.316-1.76-1.065-4.425 7.316 1.761 1.065z" fill="#fff"/></svg>