<?xml version="1.0" encoding="utf-8"?><svg width="34" height="15" fill="none" xmlns="http://www.w3.org/2000/svg" viewBox="0 0 34 15"><rect width="34" height="15" rx="7.5" fill="#2B2A29"/><path d="M7.05 4h2.3c.96 0 1.72.253 2.28.76.56.5.84 1.143.84 1.93 0 .793-.28 1.443-.84 1.95-.56.5-1.32.75-2.28.75h-.92V11H7.05V4zm1.38 4.09h1.03c.487 0 .89-.117 1.21-.35.327-.233.49-.583.49-1.05 0-.447-.163-.79-.49-1.03-.327-.24-.73-.36-1.21-.36H8.43v2.79zM14.1 4h2.43c.994 0 1.834.333 2.52 1 .694.66 1.04 1.493 1.04 2.5s-.343 1.843-1.03 2.51c-.686.66-1.53.99-2.53.99H14.1V4zm1.38 5.7h1.05c.634 0 1.154-.193 1.56-.58.414-.393.62-.933.62-1.62s-.206-1.223-.62-1.61c-.406-.393-.926-.59-1.56-.59h-1.05v4.4zm7.618-2.87h3.03v1.3h-3.03V11h-1.38V4h4.66v1.3h-3.28v1.53z" fill="#fff"/></svg>