<?xml version="1.0" encoding="utf-8"?><svg width="79" height="79" fill="none" xmlns="http://www.w3.org/2000/svg" viewBox="0 0 79 79"><circle cx="39.5" cy="39.5" r="38" stroke="#E25D23" stroke-width="3"/><circle cx="39.5" cy="39.5" r="32.5" fill="#E25D23"/><path d="M44.792 30.567c-.001 4.817-.753 9.54-1.76 14.228-.596 2.781-1.3 5.538-2.073 8.274-.062.216-.155.423-.215.64-.121.444-.344.677-.855.67-.512-.008-.71-.254-.834-.697-.892-3.149-1.724-6.314-2.41-9.519-.646-3.024-1.149-6.071-1.436-9.152-.34-3.64-.392-7.279.465-10.865.44-1.842 1.01-3.638 2.394-5.02 1.061-1.062 2.309-1.126 3.473-.175.924.756 1.467 1.788 1.905 2.877 1.062 2.644 1.356 5.42 1.348 8.247-.002.164-.002.328-.002.492z" fill="#fff"/><path d="M41.441 53.92c.033-.408.231-.621.36-.864 2.67-5.098 4.993-10.338 6.268-15.994.737-3.273 1.128-6.577.575-9.93-.638-3.875-2.526-6.903-5.93-8.884-.067-.04-.125-.097-.185-.15-.01-.008-.002-.039-.002-.098 1.014.033 1.904.46 2.803.861 4.882 2.183 7.563 7.671 6.888 13.103-.582 4.68-2.376 8.91-4.504 13.026-1.38 2.672-2.974 5.209-4.888 7.53-.397.482-.829.926-1.385 1.4zM38.52 53.78c-.985-.65-1.66-1.57-2.335-2.48a49.118 49.118 0 01-7.805-15.856c-.938-3.285-1.112-6.622.127-9.901 1.411-3.733 4.06-6.13 7.784-7.346.326-.107.656-.192 1.01-.166.054.187-.114.19-.196.241-3.578 2.24-5.435 5.562-5.894 9.735-.541 4.926.588 9.606 2.143 14.213 1.325 3.928 3.127 7.64 5.049 11.294.045.085.077.178.116.267z" fill="#fff"/><path d="M37.047 53.512c-1.02-.874-1.773-1.81-2.513-2.746-3.308-4.17-6.164-8.625-8.07-13.647-.944-2.485-1.559-5.05-1.452-7.735.157-3.97 2.16-6.85 5.3-9.027.15-.103.32-.174.484-.254.071-.035.147-.058.307-.118-.089.269-.27.354-.409.466-3.458 2.817-4.791 6.51-4.38 10.93.453 4.857 2.485 9.12 4.852 13.253 1.616 2.82 3.462 5.484 5.442 8.054.155.204.371.38.44.824zM42.922 53.32c.248-.335.494-.67.748-1.002 3.453-4.499 6.425-9.288 8.49-14.615 1-2.575 1.585-5.235 1.586-8.024.002-3.76-1.469-6.773-4.331-9.122-.145-.118-.364-.182-.383-.472.684.193 1.183.638 1.692 1.056 2.266 1.868 3.764 4.212 4.168 7.182.265 1.953.002 3.882-.46 5.785-.998 4.113-2.897 7.805-5.141 11.336a52.98 52.98 0 01-5.71 7.468c-.167.183-.325.398-.66.408zM39.927 56.075c.828 0 1.657.007 2.484-.001.467-.005.61.203.5.656a95.63 95.63 0 00-.634 2.752c-.077.367-.27.518-.629.516a250.898 250.898 0 00-3.513.002c-.37.003-.551-.169-.622-.523-.192-.943-.394-1.883-.598-2.824-.087-.404.078-.58.469-.58.846.004 1.695.002 2.543.002z" fill="#fff"/></svg>