<?xml version="1.0" encoding="utf-8"?><svg width="79" height="79" fill="none" xmlns="http://www.w3.org/2000/svg" viewBox="0 0 79 79"><circle cx="39.5" cy="39.5" r="38" stroke="#E25D23" stroke-width="3"/><circle cx="39.5" cy="39.5" r="32.5" fill="#E25D23"/><path d="M22.886 39.64c0-4.839-.002-9.679 0-14.518 0-1.644.8-2.445 2.443-2.445 9.775-.002 19.549-.002 29.325 0 1.655 0 2.46.794 2.46 2.428.002 9.723.002 19.444 0 29.167 0 1.643-.803 2.45-2.443 2.45H25.346c-1.65 0-2.46-.802-2.46-2.432-.002-4.883 0-9.766 0-14.65zm2.23 7.134c.629-.504 1.146-.913 1.658-1.327 2.208-1.782 4.41-3.574 6.625-5.346.86-.688 1.69-.604 2.388.193.802.916 1.604 1.834 2.398 2.757.594.69.584.686 1.298.105 2.991-2.436 5.985-4.87 8.983-7.297.864-.7 1.721-.651 2.473.145 1.126 1.192 2.235 2.4 3.357 3.593.155.165.276.39.546.451.02-.11.04-.173.04-.237 0-4.53.006-9.061-.003-13.59-.001-.966-.43-1.325-1.498-1.325-8.866-.002-17.731-.002-26.596 0-1.357 0-1.67.32-1.67 1.696-.002 3.491 0 6.984 0 10.475v9.707zm29.769 1.96h-.002c0-1.48-.005-2.96.003-4.438.002-.345-.064-.635-.314-.904-1.531-1.628-3.064-3.255-4.557-4.916-.415-.46-.688-.435-1.138-.063-2.63 2.171-5.281 4.316-7.925 6.47-.684.557-.688.56-.119 1.212 2.308 2.654 4.623 5.303 6.924 7.963.268.311.554.455.972.45 1.575-.018 3.153-.002 4.728-.01 1.053-.005 1.422-.389 1.428-1.46.005-1.434 0-2.869 0-4.305zm-10.076 5.77c-.105-.172-.14-.251-.194-.313-3.279-3.78-6.561-7.555-9.833-11.34-.293-.337-.517-.3-.83-.044a2441.93 2441.93 0 01-8.469 6.869.914.914 0 00-.371.796c.016.817.005 1.634.005 2.453 0 1.222.352 1.579 1.582 1.579 2.577.003 5.153.002 7.73.002 3.417-.002 6.836-.002 10.38-.002z" fill="#fff"/><path d="M31.46 35.507c-2.389.003-4.307-1.87-4.309-4.204-.002-2.553 1.831-4.384 4.388-4.384 2.372 0 4.244 1.88 4.246 4.26.002 2.448-1.874 4.324-4.326 4.328zm.042-2.237c1.03.003 2.01-.959 2.034-1.993.025-1.107-.928-2.101-2.038-2.13-1.084-.026-2.105.973-2.105 2.063 0 1.101.98 2.056 2.109 2.06z" fill="#fff"/></svg>