<?xml version="1.0" encoding="utf-8"?><svg width="79" height="79" fill="none" xmlns="http://www.w3.org/2000/svg" viewBox="0 0 79 79"><circle cx="39.5" cy="39.5" r="38" stroke="#E25D23" stroke-width="3"/><circle cx="39.5" cy="39.5" r="32.5" fill="#E25D23"/><path d="M42.142 22.884c-.1 3.143-.832 6.173-1.81 9.142-.294.896-.238 1.554.277 2.363 1.703 2.675 3.587 5.197 5.882 7.415.272.262.516.358.913.294 2.743-.44 5.503-.666 8.286-.474 1.358.094 2.699.283 3.964.817.447.188.873.41 1.255.711.906.712 1.255 1.64 1.02 2.738-.223 1.032-.96 1.62-1.963 1.9-1.282.357-2.577.275-3.868.068-3.313-.53-6.119-2.089-8.64-4.18-.56-.465-1.039-.643-1.798-.499-3.425.652-6.766 1.588-10.104 2.563-.878.256-1.372.725-1.799 1.46-1.715 2.95-3.634 5.76-6.144 8.136-1.053.998-2.205 1.865-3.603 2.357-1.22.43-2.43.438-3.598-.185-1.303-.697-1.755-2.033-1.142-3.354.54-1.163 1.464-2.005 2.46-2.771 2.508-1.932 5.345-3.295 8.28-4.458.792-.314 1.292-.76 1.687-1.493 2.375-4.41 4.204-9.04 5.876-13.738a1.133 1.133 0 00-.037-.92c-1.114-2.442-1.913-4.979-2.203-7.645-.15-1.365-.167-2.733.289-4.065.373-1.096 1.067-1.873 2.268-2.033 1.203-.16 2.215.274 2.973 1.21.91 1.12 1.147 2.469 1.276 3.843.024.264.003.532.003.798zm-2.491 11.38c-.672 1.917-1.34 3.734-2.106 5.514-.713 1.654-1.378 3.331-2.374 4.855-.072.11-.18.239-.085.358.132.163.282.003.418-.038 3.256-1.003 6.537-1.915 9.9-2.51.125-.022.31.034.36-.12.055-.173-.133-.256-.235-.358-1.902-1.893-3.535-3.991-4.957-6.25-.29-.464-.586-.922-.921-1.45zm-9.415 13.403c-.63.276-1.268.538-1.893.828-2.37 1.098-4.684 2.285-6.686 3.977-.71.6-1.342 1.265-1.717 2.127-.286.66-.185 1.277.298 1.802.439.477 1.003.594 1.644.462.948-.197 1.705-.727 2.4-1.335 2.521-2.204 4.313-4.958 5.954-7.86zm17.405-4.843c2.505 2.016 5.028 3.646 8.136 4.16.893.147 1.785.066 2.57-.47 1.26-.862 1.238-2.635-.042-3.464a3.58 3.58 0 00-1.46-.526c-3.03-.438-6.031-.187-9.204.3zm-9.502-12.72c.227-.747.416-1.324.578-1.91.684-2.456 1.327-4.921 1.346-7.494.004-.595-.049-1.183-.274-1.737-.28-.686-.757-1.163-1.555-1.173-.76-.01-1.273.399-1.6 1.043-.236.462-.364.957-.442 1.467-.275 1.803.019 3.56.415 5.31.342 1.5.85 2.948 1.532 4.494z" fill="#fff"/></svg>