<?xml version="1.0" encoding="utf-8"?><svg width="34" height="15" fill="none" xmlns="http://www.w3.org/2000/svg" viewBox="0 0 34 15"><rect width="34" height="15" rx="7.5" fill="#2B2A29"/><path d="M7.318 4h2.3c.96 0 1.72.253 2.28.76.56.5.84 1.143.84 1.93 0 .793-.28 1.443-.84 1.95-.56.5-1.32.75-2.28.75h-.92V11h-1.38V4zm1.38 4.09h1.03c.486 0 .89-.117 1.21-.35.326-.233.49-.583.49-1.05 0-.447-.164-.79-.49-1.03-.327-.24-.73-.36-1.21-.36h-1.03v2.79zm7.9-4.16h.08c.48 0 .957.107 1.43.32.474.207.897.487 1.27.84l-.9.83a3.086 3.086 0 00-.9-.5c-.34-.127-.64-.19-.9-.19h-.08c-.293 0-.57.063-.83.19-.253.12-.38.317-.38.59 0 .213.1.37.3.47.207.1.497.173.87.22l.56.06c.78.093 1.387.307 1.82.64.44.327.66.83.66 1.51 0 .653-.256 1.177-.77 1.57-.506.387-1.156.583-1.95.59h-.06c-.66 0-1.246-.13-1.76-.39a3.446 3.446 0 01-1.21-1.02l.9-.83c.18.253.45.473.81.66.36.187.78.28 1.26.28h.06c.407-.007.73-.087.97-.24.247-.153.37-.36.37-.62 0-.28-.11-.48-.33-.6-.22-.127-.54-.217-.96-.27l-.55-.06c-1.58-.187-2.37-.827-2.37-1.92 0-.64.244-1.15.73-1.53.494-.387 1.114-.587 1.86-.6zm4.567.07h2.43c.994 0 1.834.333 2.52 1 .694.66 1.04 1.493 1.04 2.5s-.343 1.843-1.03 2.51c-.686.66-1.53.99-2.53.99h-2.43V4zm1.38 5.7h1.05c.634 0 1.154-.193 1.56-.58.414-.393.62-.933.62-1.62s-.206-1.223-.62-1.61c-.406-.393-.926-.59-1.56-.59h-1.05v4.4z" fill="#fff"/></svg>