<?xml version="1.0" encoding="utf-8"?><svg width="34" height="15" fill="none" xmlns="http://www.w3.org/2000/svg" viewBox="0 0 34 15"><rect width="34" height="15" rx="7.5" fill="#2B2A29"/><path d="M10.14 3.93c1.04 0 1.92.387 2.64 1.16l-.9.83c-.473-.46-1.053-.69-1.74-.69-.62 0-1.14.213-1.56.64-.413.427-.62.97-.62 1.63 0 .667.207 1.213.62 1.64.42.42.94.63 1.56.63.7 0 1.28-.23 1.74-.69l.9.83c-.72.774-1.6 1.16-2.64 1.16-.987 0-1.827-.347-2.52-1.04A3.465 3.465 0 016.58 7.5c0-.987.347-1.827 1.04-2.52a3.416 3.416 0 012.52-1.05zm4.224.07h2.43c.994 0 1.834.333 2.52 1 .694.66 1.04 1.493 1.04 2.5s-.343 1.843-1.03 2.51c-.686.66-1.53.99-2.53.99h-2.43V4zm1.38 5.7h1.05c.634 0 1.154-.193 1.56-.58.414-.393.62-.933.62-1.62s-.206-1.223-.62-1.61c-.406-.393-.926-.59-1.56-.59h-1.05v4.4zM21.983 4h2.38c.953 0 1.696.25 2.23.75.54.493.81 1.123.81 1.89 0 .52-.134.97-.4 1.35-.26.38-.63.663-1.11.85.293.187.64.597 1.04 1.23l.6.93h-1.55l-.45-.7c-.28-.427-.5-.7-.66-.82-.154-.12-.4-.183-.74-.19h-.77V11h-1.38V4zm1.38 1.3v2.69h1.13c.48 0 .866-.113 1.16-.34.293-.227.44-.563.44-1.01 0-.427-.15-.757-.45-.99-.294-.233-.677-.35-1.15-.35h-1.13z" fill="#fff"/></svg>