<?xml version="1.0" encoding="utf-8"?><svg width="59" height="59" fill="none" xmlns="http://www.w3.org/2000/svg" viewBox="0 0 59 59"><path d="M32.5 51.5C43.822 51.5 53 42.322 53 31s-9.178-20.5-20.5-20.5S12 19.678 12 31s9.178 20.5 20.5 20.5z" fill="#fff"/><path d="M12.02 30c.08-1.73.38-3.41.87-5M13.23 38c-.58-1.58-.96-3.26-1.13-5M14.08 22c3.33-6.81 10.33-11.5 18.42-11.5C43.82 10.5 53 19.68 53 31s-9.18 20.5-20.5 20.5c-7.69 0-14.39-4.23-17.9-10.5" stroke="#2B2A29" stroke-width="2" stroke-miterlimit="10"/><path d="M21.94 20c2.74-2.63 6.46-4.25 10.56-4.25 8.42 0 15.25 6.83 15.25 15.25S40.92 46.25 32.5 46.25c-4.07 0-7.77-1.59-10.5-4.19" stroke="#2B2A29" stroke-width="2" stroke-miterlimit="10"/><path d="M32 42c6.075 0 11-4.925 11-11s-4.925-11-11-11-11 4.925-11 11 4.925 11 11 11z" fill="#F2F2F2"/><path d="M22 4h-6M58 21.74c-2-5.6-5.82-10.34-10.74-13.5-1.64-1.06-3.4-1.94-5.26-2.62M54.94 47.25C50.06 53.78 42.27 58 33.5 58H20" stroke="#BCC0C4" stroke-width="2" stroke-miterlimit="10"/><path d="M30 8V5h5v3" stroke="#2B2A29" stroke-width="2" stroke-miterlimit="10"/><path d="M38 1H27v4h11V1z" fill="#F3723A" stroke="#2B2A29" stroke-width="2" stroke-miterlimit="10"/><path d="M5 22h14M0 30h16M4 38h14M34.79 28.59L41 22" stroke="#2B2A29" stroke-width="2" stroke-miterlimit="10"/><path d="M18 58h-4M12 58h-2M14 4h-4M8 4H6" stroke="#BCC0C4" stroke-width="2" stroke-miterlimit="10"/><path d="M32.5 33.75a2.75 2.75 0 100-5.5 2.75 2.75 0 000 5.5z" fill="#F3723A" stroke="#2B2A29" stroke-width="2" stroke-miterlimit="10"/><path d="M18.24 11.13l-3.68 3.68M16.4 12.97l2.6 2.6" stroke="#2B2A29" stroke-width="2" stroke-miterlimit="10"/></svg>