<?xml version="1.0" encoding="utf-8"?><svg width="20" height="21" fill="none" xmlns="http://www.w3.org/2000/svg" viewBox="0 0 20 21"><path d="M.684 19.48c.363-1.083.712-2.155 1.088-3.217.101-.287.072-.492-.098-.748C-2.38 9.432 1.322 1.152 8.56.103 14-.686 19.134 3.148 19.899 8.571a10.011 10.011 0 01-8.445 11.315c-2.359.352-4.58-.105-6.623-1.346-.25-.152-.45-.169-.718-.08-1.034.346-2.077.668-3.116.998-.085.026-.163.083-.313.023zm3.52-12.13c-.022.554.136 1.1.363 1.63.378.88.957 1.634 1.54 2.383 1.649 2.113 3.752 3.527 6.383 4.126.408.093.82.151 1.235.054 1.574-.364 2.276-1.162 2.294-2.517.003-.219-.06-.372-.265-.47-.751-.354-1.5-.718-2.249-1.078-.337-.162-.6-.072-.812.225-.197.275-.394.55-.603.815-.302.384-.495.435-.948.253-1.682-.676-2.925-1.852-3.856-3.385-.134-.22-.116-.414.05-.605.215-.243.434-.484.639-.737.168-.207.28-.43.158-.716-.331-.776-.648-1.558-.975-2.335-.066-.156-.157-.302-.331-.365-.52-.19-1.342.021-1.732.431a3.138 3.138 0 00-.891 2.291z" fill="#6EB861"/><path d="M4.203 7.35a3.134 3.134 0 01.892-2.29c.39-.41 1.212-.622 1.732-.431.174.063.266.209.331.365.328.777.645 1.559.975 2.335.122.287.01.51-.158.716-.204.252-.424.493-.639.737-.167.19-.184.384-.05.605.931 1.533 2.174 2.71 3.857 3.385.453.18.645.13.947-.253.209-.266.406-.54.603-.815.213-.297.475-.387.813-.225.748.36 1.496.722 2.248 1.078.206.098.269.251.266.47-.02 1.355-.721 2.153-2.295 2.518-.415.095-.828.038-1.235-.055-2.63-.6-4.734-2.014-6.382-4.126-.584-.749-1.163-1.502-1.54-2.384-.229-.53-.387-1.076-.365-1.63z" fill="#F8F9FA"/></svg>