<?xml version="1.0" encoding="utf-8"?><svg width="25" height="25" fill="none" xmlns="http://www.w3.org/2000/svg" viewBox="0 0 25 25"><path d="M25 12.561c-.018 6.801-5.689 12.486-12.486 12.437C5.51 24.947.004 19.473 0 12.503-.004 5.483 5.547-.032 12.545 0 19.546.03 24.936 5.592 25 12.561zM12.507 2.363C6.91 2.46 2.404 6.77 2.387 12.473c-.017 5.6 4.375 10.107 10.083 10.124 5.601.017 10.102-4.37 10.12-10.085.017-5.599-4.373-10.02-10.083-10.149z" fill="#E25D23"/><path d="M18.173 7.947c-.011.464-.216.762-.487 1.032-1.051 1.045-2.088 2.107-3.153 3.138-.307.297-.287.472.008.759a187.593 187.593 0 013.186 3.18c.65.66.562 1.573-.164 1.973-.506.279-1.037.18-1.531-.31-1.054-1.045-2.11-2.085-3.14-3.152-.3-.31-.482-.34-.797-.014-1.029 1.067-2.092 2.101-3.136 3.154-.377.38-.804.575-1.338.413-.863-.265-1.096-1.317-.42-2.014a123.084 123.084 0 013.185-3.18c.358-.344.341-.543-.006-.877-1.057-1.014-2.082-2.061-3.113-3.103-.485-.49-.587-.982-.34-1.482.372-.75 1.304-.886 1.957-.252 1.024.997 2.024 2.021 3.038 3.029.639.634.498.628 1.12.01 1.028-1.02 2.046-2.05 3.074-3.067.389-.384.854-.493 1.362-.268.468.207.681.594.695 1.031z" fill="#E25D23"/></svg>