<?xml version="1.0" encoding="utf-8"?><svg width="32" height="31" fill="none" xmlns="http://www.w3.org/2000/svg" viewBox="0 0 32 31"><path d="M.007 15.547C.007 7.668 5.935 1.16 13.993.13c8.685-1.11 16.77 4.951 17.877 13.402 1.114 8.511-5.059 16.23-13.865 17.345-3.272.414-6.323-.238-9.179-1.785-.482-.26-.763-.215-1.107.165-.41.452-.866.867-1.318 1.282-.614.565-1.472.585-2.012.066-.54-.518-.529-1.36.056-1.946.78-.78 1.58-1.543 2.378-2.306.755-.72 1.248-.792 2.161-.244 1.64.985 3.355 1.784 5.28 2.053 3.693.515 7.043-.359 9.929-2.61 4.872-3.803 6.439-9.815 3.833-15.316-2.242-4.738-6.209-7.267-11.624-7.516-6.444-.295-12.164 4.188-13.38 10.242-.628 3.133-.166 6.123 1.472 8.917.123.21.26.41.382.621.404.699.233 1.455-.412 1.85-.667.407-1.398.247-1.9-.434-.51-.69-.913-1.44-1.252-2.22-.863-1.985-1.377-4.044-1.305-6.15z" fill="#E25D23"/><path d="M17.385 17.462c0 .985.006 1.97-.002 2.957-.008.951-.6 1.6-1.42 1.577-.821-.022-1.355-.623-1.36-1.569-.008-1.99-.008-3.982 0-5.973.004-.973.574-1.595 1.414-1.575.806.017 1.356.64 1.366 1.567.01 1.006.002 2.012.002 3.016zM16.015 11.669c-.76.01-1.408-.597-1.405-1.31.003-.71.67-1.35 1.396-1.341.74.01 1.379.644 1.372 1.361-.008.69-.632 1.28-1.363 1.29z" fill="#E25D23"/></svg>