<?xml version="1.0" encoding="utf-8"?><svg width="40" height="39" fill="none" xmlns="http://www.w3.org/2000/svg" viewBox="0 0 40 39"><path d="M3.2 28.271c.007-.536.121-1.301.249-2.06.174-1.08-.06-2.026-.839-2.824-.476-.49-.96-.98-1.395-1.497-1.624-1.932-1.618-3.53.006-5.462.302-.362.61-.738.966-1.046 1.202-1.027 1.524-2.295 1.195-3.812a8.794 8.794 0 01-.168-2.301c.08-1.503.852-2.49 2.214-3.04.705-.288 1.456-.41 2.201-.543.222-.04.436-.074.658-.108 1.2-.188 1.993-.899 2.516-1.966.423-.852.866-1.69 1.503-2.415.92-1.04 2.047-1.416 3.409-1.074.771.195 1.47.55 2.187.88.108.046.215.106.316.16 1.187.658 2.368.651 3.563.014a16.277 16.277 0 011.778-.812c1.96-.765 3.409-.309 4.596 1.429.362.53.698 1.073.953 1.657.604 1.403 1.684 2.08 3.16 2.241a9.337 9.337 0 012.04.457c1.758.597 2.61 1.892 2.496 3.75-.047.759-.14 1.51-.255 2.255-.167 1.067.06 2 .826 2.785.557.57 1.127 1.14 1.623 1.771 1.33 1.711 1.336 3.194.02 4.905-.422.557-.898 1.067-1.409 1.55-.925.88-1.274 1.92-1.046 3.18.16.887.268 1.786.221 2.698-.074 1.523-.852 2.516-2.24 3.073-.846.343-1.745.483-2.638.61-1.308.182-2.18.887-2.744 2.068-.39.818-.826 1.617-1.423 2.308-.866 1-1.926 1.45-3.254 1.147-.651-.147-1.295-.335-1.892-.65-.262-.141-.537-.262-.792-.403-1.201-.678-2.396-.651-3.603-.007-.618.322-1.255.617-1.906.859-1.819.678-3.234.228-4.362-1.355-.396-.557-.758-1.141-1.033-1.765-.61-1.423-1.704-2.1-3.194-2.268a9.339 9.339 0 01-2.04-.456c-1.718-.618-2.57-1.88-2.462-3.933zM34.584 9.86c.007-1.033-.241-1.382-1.06-1.637-.55-.174-1.12-.275-1.698-.362-1.536-.242-2.938-.738-3.885-2.08a10.325 10.325 0 01-.818-1.322c-.255-.504-.517-1.007-.839-1.47-.557-.792-.96-.919-1.865-.584-.584.215-1.134.517-1.698.786-.946.45-1.932.805-2.993.724-.952-.074-1.852-.396-2.704-.845-.537-.289-1.08-.557-1.67-.732-.705-.214-1.074-.094-1.517.49-.47.618-.812 1.315-1.16 2-.866 1.677-2.222 2.664-4.08 2.966-.745.12-1.497.221-2.221.463-.705.234-.967.577-.96 1.321.007.49.027.987.134 1.463.524 2.362-.027 4.368-1.865 5.999-.342.302-.631.671-.926 1.027-.678.838-.685 1.389.013 2.22.416.504.88.967 1.329 1.443 1.194 1.242 1.812 2.684 1.59 4.442-.107.852-.282 1.698-.282 2.564 0 .771.249 1.113.973 1.355.577.188 1.174.309 1.778.39 2.04.254 3.597 1.214 4.536 3.092.309.624.631 1.248 1.034 1.819.53.738.94.872 1.798.563.59-.214 1.147-.496 1.698-.785 1.845-.966 3.69-.96 5.542.007.51.268 1.04.517 1.57.731.973.396 1.423.256 1.986-.637.37-.59.698-1.208 1.027-1.825.872-1.637 2.221-2.59 4.04-2.885.744-.121 1.496-.229 2.22-.463.705-.235.96-.577.96-1.322 0-.651-.087-1.302-.201-1.946-.376-2.04.147-3.785 1.65-5.227.43-.41.826-.852 1.201-1.309.685-.832.691-1.382-.006-2.214-.416-.503-.873-.966-1.329-1.443-1.194-1.241-1.825-2.684-1.59-4.442.12-.852.208-1.677.288-2.335z" fill="#E25D23"/><path d="M34.093 19.152c.007 7.743-6.347 14.105-14.097 14.105-7.757 0-14.105-6.341-14.098-14.091 0-7.764 6.334-14.091 14.09-14.098 7.758-.014 14.105 6.327 14.105 14.084zm-2.254.047c.074-6.556-5.375-11.917-11.837-11.883-6.569.033-11.843 5.267-11.843 11.83 0 6.595 5.254 11.85 11.857 11.856 6.535 0 11.823-5.28 11.823-11.803z" fill="#E25D23"/><path d="M18.492 25.332a1.126 1.126 0 01-.912-.47c-1.208-1.583-2.422-3.16-3.623-4.744-.423-.563-.336-1.241.174-1.617.523-.396 1.16-.295 1.604.275.812 1.047 1.61 2.1 2.409 3.147.355.47.355.47.704.02l5.274-6.844c.228-.295.456-.59.852-.67.47-.095.913.08 1.168.462.275.41.275.846-.047 1.289-.517.704-1.06 1.395-1.597 2.086-1.67 2.168-3.335 4.328-4.999 6.496-.262.328-.564.557-1.006.57z" fill="#E25D23"/></svg>