<?xml version="1.0" encoding="utf-8"?><svg width="79" height="79" fill="none" xmlns="http://www.w3.org/2000/svg" viewBox="0 0 79 79"><circle cx="39.5" cy="39.5" r="38" stroke="#E25D23" stroke-width="3"/><circle cx="39.5" cy="39.5" r="32.5" fill="#E25D23"/><path d="M27.016 39.423l.001-9.778c0-.193-.073-.407.268-.437 2.408-.207 4.815-.378 7.211.095 3.967.783 5.604 3.703 5.256 7.17-.367 3.67-3.281 5.384-6.071 5.773-.987.138-1.985.152-2.977.203-.356.019-.44.151-.438.481.016 2.075 0 4.151.016 6.226.002.35-.07.49-.465.473a25.55 25.55 0 00-2.262.002c-.427.02-.563-.077-.555-.517.03-1.622.012-3.244.012-4.867v-4.824h.004zm3.35-3.674h-.004c0 1.023.007 2.045-.005 3.066-.004.273.064.4.373.389.662-.022 1.326.005 1.988-.03 1.842-.096 2.852-.896 3.334-2.61.534-1.896-.51-3.771-2.405-4.285-1.012-.275-2.03-.154-3.045.017-.272.045-.235.215-.235.386-.002 1.023-.002 2.044-.002 3.067zM42.52 47.85c0-.394-.005-.79 0-1.184.008-.506.012-.507.53-.358.606.174 1.21.355 1.818.527.72.204 1.455.234 2.197.147.635-.075 1.072-.429 1.239-1.001.163-.56-.151-.925-.562-1.236-.893-.679-1.885-1.21-2.862-1.761-.814-.46-1.585-.979-2.089-1.774-1.703-2.697.037-6.248 3.358-6.865 1.731-.322 3.423-.042 5.11.324.203.044.225.133.194.305-.153.835-.307 1.67-.436 2.506-.049.31-.2.336-.464.262-.666-.187-1.33-.38-2.004-.536a3.518 3.518 0 00-1.746.042c-.586.163-.97.536-1.089 1.119-.108.534.207.896.611 1.184.757.538 1.6.935 2.403 1.4.647.374 1.307.731 1.865 1.235 2.397 2.162 1.61 6.175-1.44 7.327-1.327.5-2.707.563-4.1.42-.734-.075-1.46-.222-2.19-.331-.262-.04-.376-.158-.361-.434.024-.438.006-.877.006-1.316l.012-.002z" fill="#fff"/></svg>