<?xml version="1.0" encoding="utf-8"?><svg width="25" height="17" fill="none" xmlns="http://www.w3.org/2000/svg" viewBox="0 0 25 17"><path d="M12.543.003c3.514 0 7.026-.003 10.54.002 1.188.002 1.91.707 1.911 1.874.007 4.2.007 8.401.003 12.601-.001 1.103-.758 1.819-1.92 1.82-4.17.004-8.342.001-12.513.001-2.613 0-5.226.002-7.84-.001-.431 0-.865.028-1.293-.061-.853-.178-1.42-.786-1.423-1.635C-.002 10.302-.004 6 .012 1.699.017.69.77.029 1.9.014 3.577-.01 5.257.004 6.936.003h5.607zm-.006 1.783c-3.376 0-6.751.008-10.128-.01-.46-.003-.588.138-.587.58.015 3.846.017 7.692-.003 11.537-.003.486.136.635.64.634 6.7-.015 13.4-.014 20.1 0 .483.002.619-.148.616-.61-.016-3.828-.02-7.657 0-11.486.003-.51-.137-.663-.669-.659-3.321.025-6.645.014-9.969.014z" fill="#fff"/><path d="M7.255 12.662c-1.125.002-2.25.007-3.374-.001-.791-.005-1.08-.305-1.082-1.089-.002-.355.022-.713-.004-1.065-.093-1.272.544-2.137 1.614-2.73.364-.202.48-.362.332-.782-.374-1.08.034-2.194.976-2.87a2.702 2.702 0 013.064-.033c.93.626 1.378 1.787 1.015 2.868-.149.439-.05.612.334.823 1.76.96 1.813 2.508 1.525 4.302-.068.425-.478.581-.926.579-1.156-.007-2.315-.002-3.474-.002zM7.25 10.88c.64 0 1.282.011 1.922-.005.24-.007.583.13.683-.193.104-.337.104-.713-.17-1.008a2.128 2.128 0 00-.912-.566c-1.017-.333-2.038-.348-3.05.015-.326.117-.634.277-.868.541-.28.315-.306.703-.173 1.052.112.293.458.152.7.159.621.016 1.245.005 1.868.005zm.016-5.443c-.462-.003-.837.34-.847.773-.01.439.348.797.806.81.484.014.872-.343.87-.8-.004-.443-.361-.78-.83-.783zM16.956 4.13l3.942-.001c.085 0 .173-.02.259-.017.636.017 1.036.362 1.041.897.006.538-.376.901-1.023.91-1.246.017-2.493.009-3.739.009-1.176 0-2.353 0-3.53-.007a2.178 2.178 0 01-.564-.06c-.449-.123-.733-.542-.652-.968.086-.45.357-.721.848-.743 1.277-.055 2.556.05 3.418-.02zM16.553 9.073c-.83 0-1.66.007-2.49-.004-.256-.002-.525-.017-.768-.09-.377-.114-.607-.387-.618-.79-.012-.42.2-.72.599-.855a2.29 2.29 0 01.713-.096c1.73-.006 3.459-.003 5.188.001.882.003 1.352.332 1.34.927-.01.58-.467.895-1.318.9-.881.006-1.764.002-2.645.002l-.001.005zM16.724 10.384c.985 0 1.972-.021 2.956.007.712.02 1.14.506.996 1.07-.108.422-.381.685-.842.69-1.017.012-2.036.015-3.053.015-1.018 0-2.036-.004-3.056-.01-.65-.006-1.01-.288-1.046-.81-.036-.518.349-.93.985-.95 1.018-.03 2.04-.007 3.059-.007l.001-.005z" fill="#fff"/></svg>