<?xml version="1.0" encoding="utf-8"?><svg width="25" height="26" fill="none" xmlns="http://www.w3.org/2000/svg" viewBox="0 0 25 26"><path d="M9.35 3.631c-.854-.679-1.788-1.213-2.76-1.689-.215-.106-.442-.204-.632-.348-.297-.224-.431-.524-.288-.903.148-.39.414-.603.846-.575.425.029.793.233 1.154.422 1.725.902 3.338 1.961 4.569 3.51.186.236.294.179.45-.019 1.365-1.737 3.186-2.855 5.132-3.807.165-.08.34-.148.517-.193.406-.102.75.06.93.415.19.375.14.723-.204.993-.507.397-1.12.613-1.672.935-.683.397-1.347.819-1.93 1.363a18.482 18.482 0 012.319-.94c1.523-.5 3.089-.762 4.69-.786.6-.009.925.302.931.823.006.459-.235.757-.788.85-.657.11-1.329.137-1.986.246-1.695.28-3.308.802-4.782 1.725.7-.18 1.399-.378 2.105-.536 1.755-.394 3.527-.607 5.33-.55 1.46.047 1.751.31 1.717 1.78-.116 5.046-.066 10.093-.087 15.14a3.49 3.49 0 01-.036.512c-.1.642-.32.858-.958.84-3.76-.104-7.314.886-10.835 2.049-.379.125-.725.162-1.116.032-2.705-.894-5.448-1.634-8.287-1.954-.745-.083-1.49-.174-2.251-.066-.836.12-1.155-.14-1.233-.996C.087 20.71.151 19.51.14 18.314c-.014-1.412.028-2.825-.022-4.235-.094-2.694-.02-5.388-.114-8.08-.033-.944.218-1.246 1.14-1.352 1.872-.216 3.713.011 5.545.396.818.172 1.625.39 2.44.594-.863-.577-1.813-.964-2.8-1.257a15.552 15.552 0 00-3.688-.637 1.763 1.763 0 01-.337-.048c-.469-.118-.748-.487-.71-.931.036-.434.34-.715.839-.75.585-.041 1.164.047 1.741.12 1.749.22 3.42.71 5.007 1.487.046.02.093.07.17.01zm4.049 12.118h.002v6.203c-.001 1.021-.004 1.019.962.741 2.736-.787 5.483-1.519 8.359-1.527.348 0 .381-.207.387-.475.018-.998.059-1.994.063-2.991.015-3.608.015-7.215.032-10.821.003-.38-.069-.575-.51-.567-.74.013-1.477.059-2.211.139-2.281.249-4.447.914-6.548 1.82-.38.164-.544.385-.542.805.014 2.225.006 4.45.006 6.673zm-1.81-.034c0-2.01-.05-4.023.024-6.031.032-.881-.195-1.326-1.059-1.653-2.687-1.015-5.438-1.634-8.311-1.708-.33-.008-.47.109-.453.445.033.64.066 1.28.068 1.922.011 3.493.014 6.987.02 10.48 0 .543.004 1.085 0 1.626 0 .247.08.34.356.334.481-.011.965.023 1.445.073 2.526.27 4.981.874 7.411 1.592.496.146.5.144.5-.365v-6.715zm.925-8.797c.473-.007.629-.22.47-.64-.025-.066-.037-.136-.05-.206-.065-.329-.346-.475-.644-.333-.057.027-.477.83-.45.882a.279.279 0 00.113.114c.178.09.355.182.561.183z" fill="#fff"/></svg>