<?xml version="1.0" encoding="utf-8"?><svg width="19" height="20" fill="none" xmlns="http://www.w3.org/2000/svg" viewBox="0 0 19 20"><path d="M18.424 8.17c-.008 1.12.007 2.304-.289 3.456-.703 2.745-2.625 4.154-5.255 4.77-1.549.362-3.126.351-4.701.298-.403-.014-.67.105-.924.41-.73.876-1.483 1.732-2.235 2.589-.13.147-.252.39-.5.278-.216-.096-.127-.336-.127-.516-.002-.99.001-1.977.015-2.967.004-.266-.026-.449-.322-.575C1.649 14.88.38 12.99.14 10.385.006 8.945-.077 7.491.106 6.057.474 3.161 2.158 1.3 4.933.57c2.887-.759 5.838-.774 8.722.038 3.211.904 4.928 3.458 4.8 6.877-.008.21-.02.419-.031.685zM3.609 5.382c.012.32.118.682.265 1.035 1.423 3.405 3.863 5.806 7.187 7.34 1.226.567 2.434.124 3.019-1.108.293-.616.226-1.04-.293-1.469a16.912 16.912 0 00-1.462-1.084c-.828-.54-1.287-.472-1.922.276-.28.329-.559.394-.946.216-.98-.45-1.754-1.118-2.266-2.075-.41-.767-.378-.935.257-1.513.524-.477.586-.77.275-1.404-.337-.688-.8-1.29-1.33-1.837-.246-.254-.53-.417-.903-.4-.956.05-1.874.998-1.881 2.023zm10.986 2.137c-.14-1.602-.924-2.987-2.217-3.862-.835-.567-1.747-.895-2.773-.862-.297.01-.474.145-.507.426-.035.288.175.398.415.448.129.027.263.035.393.055 2.092.312 3.23 1.365 3.67 3.405.051.24.063.489.101.732.047.302.072.66.494.63.409-.03.413-.377.424-.689.002-.093 0-.189 0-.283zm-1.483.1c.027-1.753-1.534-3.36-3.282-3.4-.27-.007-.493.068-.545.377-.05.3.091.466.383.525.185.038.369.084.55.136.691.193 1.323.469 1.657 1.173.189.4.278.827.344 1.256.048.317.13.567.518.515.364-.049.348-.344.375-.582zm-1.425-.195c0-.756-.74-1.581-1.512-1.685-.322-.042-.641-.01-.73.36-.095.386.229.471.508.538.477.113.758.393.828.886.044.306.166.576.537.515.325-.053.381-.326.369-.614z" fill="#634A99"/><path d="M3.608 5.382c.008-1.025.926-1.973 1.881-2.02.376-.019.66.143.904.399.53.55.992 1.149 1.33 1.837.311.633.249.927-.275 1.404-.635.578-.667.746-.257 1.513.512.957 1.285 1.624 2.265 2.075.388.178.669.112.947-.216.635-.748 1.094-.816 1.922-.276.507.332.994.699 1.462 1.084.52.428.586.85.293 1.469-.584 1.231-1.793 1.674-3.02 1.108-3.324-1.534-5.764-3.937-7.184-7.342-.15-.353-.254-.714-.268-1.035zM14.595 7.52c0 .094.003.188 0 .284-.01.312-.015.657-.424.688-.422.03-.447-.327-.494-.629-.038-.243-.05-.491-.102-.732-.437-2.04-1.575-3.093-3.669-3.405-.13-.02-.264-.028-.393-.055-.24-.052-.449-.16-.415-.448.033-.281.21-.417.507-.426 1.026-.033 1.937.295 2.773.862 1.293.875 2.075 2.259 2.217 3.86z" fill="#FDFDFE"/><path d="M13.112 7.62c-.027.237-.01.532-.375.581-.388.052-.471-.198-.518-.514-.066-.43-.154-.857-.344-1.256-.334-.705-.966-.98-1.657-1.174a7.84 7.84 0 00-.55-.135c-.29-.06-.432-.226-.383-.526.051-.309.275-.383.545-.377 1.747.04 3.31 1.645 3.282 3.4z" fill="#FDFDFE"/><path d="M11.687 7.425c.012.287-.044.558-.37.613-.37.061-.492-.208-.536-.514-.07-.494-.35-.774-.828-.886-.28-.066-.603-.151-.509-.54.09-.368.41-.401.731-.359.772.104 1.51.93 1.512 1.686z" fill="#F8F9FB"/></svg>