<?xml version="1.0" encoding="utf-8"?><svg width="25" height="24" fill="none" xmlns="http://www.w3.org/2000/svg" viewBox="0 0 25 24"><path d="M.005 12.036C.005 5.936 4.637.9 10.932.102c6.785-.86 13.101 3.832 13.966 10.375.87 6.59-3.952 12.565-10.832 13.429-2.556.32-4.94-.185-7.17-1.382-.377-.202-.597-.167-.866.127-.32.35-.676.672-1.03.993-.479.438-1.149.452-1.571.051-.422-.401-.413-1.053.044-1.506.61-.605 1.234-1.195 1.857-1.786.59-.558.976-.613 1.689-.19 1.28.763 2.62 1.383 4.125 1.59 2.885.4 5.502-.277 7.757-2.02 3.806-2.945 5.03-7.599 2.995-11.858-1.753-3.668-4.852-5.625-9.082-5.818-5.034-.229-9.503 3.242-10.453 7.93-.49 2.424-.13 4.74 1.15 6.902.096.162.204.318.298.481.316.541.182 1.127-.322 1.432-.52.315-1.092.192-1.484-.335a8.678 8.678 0 01-.978-1.72c-.674-1.536-1.076-3.13-1.02-4.76z" fill="#E25D23"/><path d="M13.582 13.52c0 .762.005 1.524-.002 2.288-.006.737-.468 1.239-1.109 1.221-.641-.017-1.058-.482-1.062-1.214a548.243 548.243 0 010-4.624c.002-.754.448-1.235 1.104-1.22.63.013 1.06.495 1.068 1.213.007.779 0 1.558 0 2.335zM12.512 9.034c-.594.007-1.1-.462-1.098-1.014.003-.55.524-1.046 1.091-1.038.578.007 1.077.498 1.072 1.054-.007.533-.494.99-1.065.998z" fill="#E25D23"/></svg>