<?xml version="1.0" encoding="utf-8"?><svg width="17" height="25" fill="none" xmlns="http://www.w3.org/2000/svg" viewBox="0 0 17 25"><path d="M.001 10.325l.001-8.652c0-.162-.004-.324.017-.483C.125.36.485.007 1.337.006c4.762-.009 9.525-.008 14.288.001.72.002.97.298.97 1.093.004 4.03-.015 8.057.012 12.085.01 1.545.07 3.091.058 4.638a28.5 28.5 0 01-.02.821c-.03.82-.445 1.331-1.223 1.624-1.186.445-1.178.467-1.18 1.732-.002.628.01 1.258-.004 1.886-.017.747-.37 1.105-1.122 1.108-3.05.008-6.1.009-9.15-.001-.78-.003-1.119-.36-1.128-1.147-.01-.918.003-1.837-.001-2.755-.003-.58-.07-.643-.645-.643-.294 0-.588.01-.882-.003-.94-.041-1.295-.388-1.302-1.32-.014-1.434-.006-2.868-.006-4.302-.002-1.501-.001-3-.001-4.498zm4.54 4.5c0 2.576 0 5.153.002 7.731 0 .674.07.75.762.742.7-.008 1.4-.054 2.1-.058 1.45-.01 2.9-.013 4.35.057.672.032.771-.087.771-.745.003-5.17.001-10.34-.001-15.512 0-.589-.116-.702-.722-.702-2.186-.004-4.37-.003-6.555 0-.61.002-.706.101-.706.708-.002 2.592 0 5.186 0 7.778zm6.627-13.063l-.011-.069h-.272c-2.804-.001-5.608-.002-8.413-.001-.684 0-.76.073-.76.75-.005 1.627 0 3.255 0 4.88.002 3.576.002 7.153 0 10.728 0 .313.025.587.434.623.411.036.612-.176.663-.544.033-.238.025-.483.025-.724 0-3.721-.003-7.442-.003-11.162 0-1.031.263-1.413 1.235-1.785 1.126-.43 2.255-.847 3.38-1.275 1.242-.47 2.48-.948 3.722-1.421zm-2.23 2.717l.014.07c1.184 0 2.367-.003 3.55 0 1.498.004 1.738.242 1.737 1.707-.001 4.027-.001 8.053.004 12.08 0 .145-.093.373.123.414.228.043.41-.119.477-.334.051-.165.045-.35.045-.526l.004-10.39c0-1.578.004-3.156-.005-4.734-.002-.209.09-.576-.352-.41-1.868.7-3.73 1.415-5.596 2.123z" fill="#fff"/><path d="M8.535 14.46c-.878 0-1.758.008-2.637-.002-.626-.006-.962-.316-.957-.849.006-.512.325-.829.934-.834a319.04 319.04 0 015.322-.003c.614.005.956.36.931.888-.023.514-.347.794-.957.8-.878.008-1.758.003-2.637.003l.001-.002zM8.537 11.363c-.881 0-1.761.007-2.643-.003-.625-.008-.93-.276-.95-.805-.02-.508.342-.87.948-.875a343.74 343.74 0 015.283-.004c.609.004.941.344.936.884-.004.537-.295.795-.934.801-.882.008-1.762.003-2.643.003l.003-.001z" fill="#fff"/></svg>