<?xml version="1.0" encoding="utf-8"?><svg width="21" height="20" fill="none" xmlns="http://www.w3.org/2000/svg" viewBox="0 0 21 20"><path fill-rule="evenodd" clip-rule="evenodd" d="M17.78 2.93C13.71-.977 7.116-.977 3.05 2.93-.865 6.688-1.013 12.7 2.611 16.627l.108.083c-.395.815-1.07 1.82-2.144 2.328-.355.166-.272.673.117.731 1.174.174 2.859-.021 4.43-1.16l.021.017c3.993 2.252 9.216 1.738 12.644-1.555 4.062-3.903 4.062-10.238-.007-14.14z" fill="#E25D23"/><path d="M15 10c.04 2.73-2.27 5.009-5.014 5C7.284 14.991 4.98 12.756 5 9.986A5.002 5.002 0 0110.01 5c2.751-.015 5.031 2.282 4.99 5zm-4.996 3.761c2.036.01 3.737-1.664 3.769-3.677a3.782 3.782 0 00-3.654-3.85c-2.146-.062-3.853 1.66-3.88 3.66-.028 2.171 1.626 3.857 3.765 3.867z" fill="#fff"/><path d="M10.52 8.167l.001.816c0 .049-.027.116.03.141.054.025.094-.033.135-.06.167-.112.33-.23.5-.338.284-.183.582-.135.753.115.172.251.107.547-.172.741-.474.33-.952.653-1.427.98-.18.124-.372.158-.569.058-.203-.104-.287-.286-.286-.513.002-.907-.001-1.815.001-2.722.001-.339.207-.553.518-.553.31 0 .513.219.516.558.002.258 0 .518 0 .777z" fill="#fff"/><path d="M15 10c.04 2.73-2.27 5.009-5.014 5C7.284 14.991 4.98 12.756 5 9.986A5.002 5.002 0 0110.01 5c2.751-.015 5.031 2.282 4.99 5zm-4.996 3.761c2.036.01 3.737-1.664 3.769-3.677a3.782 3.782 0 00-3.654-3.85c-2.146-.062-3.853 1.66-3.88 3.66-.028 2.171 1.626 3.857 3.765 3.867z" stroke="#fff" stroke-width=".3"/><path d="M10.52 8.167l.001.816c0 .049-.027.116.03.141.054.025.094-.033.135-.06.167-.112.33-.23.5-.338.284-.183.582-.135.753.115.172.251.107.547-.172.741-.474.33-.952.653-1.427.98-.18.124-.372.158-.569.058-.203-.104-.287-.286-.286-.513.002-.907-.001-1.815.001-2.722.001-.339.207-.553.518-.553.31 0 .513.219.516.558.002.258 0 .518 0 .777z" stroke="#fff" stroke-width=".3"/></svg>