<?xml version="1.0" encoding="utf-8"?><svg width="20" height="20" fill="none" xmlns="http://www.w3.org/2000/svg" viewBox="0 0 20 20"><circle cx="9.5" cy="11.5" r="8.5" fill="#fff"/><path fill-rule="evenodd" clip-rule="evenodd" d="M17.067 2.931c-3.908-3.908-10.236-3.908-14.14 0C-.829 6.688-.97 12.7 2.507 16.628l.105.083c-.378.814-1.027 1.82-2.057 2.327-.34.167-.262.673.113.731 1.127.175 2.743-.02 4.252-1.16l.02.016c3.833 2.253 8.845 1.738 12.137-1.554 3.899-3.904 3.899-10.238-.009-14.141l-.001.001zm-3.774 11.348c-.22.225-.454.433-.66.665-.303.341-.686.448-1.119.424-.631-.034-1.218-.246-1.778-.52a9.662 9.662 0 01-3.213-2.514c-.66-.786-1.204-1.642-1.567-2.61-.173-.47-.3-.948-.262-1.455.025-.312.142-.578.37-.799.249-.236.482-.481.727-.722.32-.316.72-.313 1.04 0 .2.196.39.39.586.586.191.192.382.377.57.57.332.336.332.726 0 1.063-.237.241-.474.482-.72.716-.061.062-.07.112-.037.191.158.382.391.723.65 1.04.518.64 1.108 1.21 1.815 1.65.15.096.316.163.474.25.08.045.137.03.2-.037.236-.246.482-.487.722-.728.32-.315.719-.315 1.036 0 .39.386.778.774 1.163 1.164.333.342.333.74.004 1.069l-.001-.003zM9.607 7.82l.124-.89c.86.12 1.643.511 2.257 1.127a3.918 3.918 0 011.105 2.133l-.885.153a3.041 3.041 0 00-.856-1.65 3.039 3.039 0 00-1.745-.873zm4.933 2.37a5.67 5.67 0 00-1.583-3.06c-.88-.88-2-1.438-3.234-1.612l.124-.89a6.515 6.515 0 013.741 1.865 6.57 6.57 0 011.838 3.543l-.885.154h-.001z" fill="#E25D23"/></svg>