<?xml version="1.0" encoding="utf-8"?><svg width="40" height="32" fill="none" xmlns="http://www.w3.org/2000/svg" viewBox="0 0 40 32"><path d="M20.043.962c5.262 0 10.525-.003 15.787 0 2.794.003 4.168 1.358 4.168 4.127.003 7.512.003 15.02 0 22.532-.003 2.694-1.405 4.103-4.11 4.105-10.594.006-21.188.006-31.782 0-2.657-.002-4.098-1.463-4.1-4.15-.006-7.514-.01-15.022 0-22.534C.007 2.426 1.462.965 4.047.962c5.332-.006 10.663 0 15.995 0zM2.765 19.383c3.145-2.927 6.255-5.788 9.314-8.705.662-.632 1.045-.607 1.69.014 3.678 3.534 7.41 7.01 11.093 10.537.588.562.992.654 1.643.083 1.408-1.236 2.918-2.349 4.32-3.59.671-.593 1.14-.543 1.774.016 1.25 1.097 2.555 2.135 3.844 3.187.232.192.47.551.773.434.34-.13.183-.55.183-.843.008-5.146.008-10.295.002-15.44-.002-1.378-.324-1.701-1.737-1.701-10.458-.006-20.916-.006-31.375 0-1.524 0-1.765.245-1.768 1.745 0 4.414 0 8.83.009 13.247 0 .301-.094.627.235 1.016zm26.805 9.54c-.93-.87-1.832-1.708-2.724-2.551-4.231-4.002-8.452-8.016-12.694-12.007-1.233-1.16-1.267-1.135-2.48-.014-2.75 2.541-5.479 5.105-8.244 7.626-.64.582-.976 1.194-.92 2.08.063 1.004.01 2.014.013 3.022.006 1.817.222 2.04 2.034 2.04 7.959.002 15.918.002 23.876-.006.336.006.69.106 1.14-.19zm7.837-2.53c.366-1.199-.363-2.08-1.474-2.871-1.211-.863-2.35-1.831-3.484-2.797-.507-.434-.89-.51-1.424-.03a47.183 47.183 0 01-2.887 2.376c-.588.448-.508.768-.014 1.222 1.302 1.194 2.621 2.377 3.84 3.651.829.869 1.705 1.247 2.919 1.202 2.482-.086 2.524-.06 2.524-2.752z" fill="#E25D23"/><path d="M25.865 15.055c-2.585.003-4.633-2.018-4.661-4.598-.028-2.568 2.103-4.711 4.68-4.703 2.52.005 4.656 2.104 4.695 4.609.041 2.51-2.148 4.69-4.714 4.692zm2.336-4.65c.07-1.183-1.036-2.366-2.253-2.41-1.166-.042-2.283.993-2.358 2.181-.078 1.239.936 2.377 2.183 2.452 1.206.072 2.353-.98 2.428-2.224z" fill="#E25D23"/></svg>