<?xml version="1.0" encoding="utf-8"?><svg width="23" height="25" fill="none" xmlns="http://www.w3.org/2000/svg" viewBox="0 0 23 25"><path d="M22.115 25h-3.612v-2.436h1.1V21.5h2.512v3.5zM13.54 22.564H8.575V25h4.963v-2.436zM3.613 25H0v-3.501h2.513v1.066h1.1V25zM2.513 17.898H0v-3.599h2.513v3.599zm0-7.197H0V7.099h2.513v3.602zM2.513 3.501H0V0h3.613v2.435h-1.1v1.066zM13.54 0H8.575v2.435h4.963V0zM22.115 3.501h-2.513V2.435h-1.1V0h3.613v3.501zM22.115 17.898h-2.513v-3.599h2.513v3.599zm0-7.197h-2.513V7.099h2.513v3.602z" fill="#E25D23"/></svg>