<?xml version="1.0" encoding="utf-8"?><svg width="64" height="53" fill="none" xmlns="http://www.w3.org/2000/svg" viewBox="0 0 64 53"><path d="M36 44c12.15 0 22-9.85 22-22S48.15 0 36 0 14 9.85 14 22s9.85 22 22 22z" fill="#fff"/><path d="M61.68 45.27L16.22 26.58s-1.75 1.31-4.09 3.23c-2.33 1.92-1.53 4.88.7 7.42 3.04 3.46 5.61 5.36 11.86 6.49 4.2.76 5.79.84 8.64 3.03l1.75 1.59C36.57 50.13 41.06 52 43.9 52h8.89c3.38 0 5.72-1.46 7.25-3.13.33-.36 1.78-2.19 2.3-3.68l-.66.08z" fill="#fff"/><path d="M15.62 40c2.18 1.79 4.75 2.94 9.07 3.73 4.2.76 5.79.84 8.64 3.03l1.75 1.59c1.49 1.79 5.98 3.66 8.82 3.66h8.89c3.38 0 5.72-1.46 7.25-3.13.33-.36 1.78-2.19 2.3-3.68l-.65.07M16.22 26.58s-1.75 1.31-4.09 3.23c-2.33 1.92-1.53 4.88.7 7.42" stroke="#2B2A29" stroke-width="2" stroke-miterlimit="10"/><path d="M11 8h21.15c7.17 0 13.44 3.85 16.86 9.6M9 8H7M5 8H3" stroke="#BCC0C4" stroke-width="2" stroke-miterlimit="10"/><path d="M15.99 27.38c-.54 4.2 5.9 8.75 8.66 9.75 3.89 1.41 7.72.68 11.39 5.14 3.67 4.46 9.02 6.05 14.56 6.05 5.53 0 8.45.25 10.67-1.53 1.41-1.39 2.56-5.06.97-5.7-1.98-.79-6.77-1.83-9.55-2.52-1.99-2.58-7.59-13.4-8.75-16.16-.9-2.15-1.97-2.38-3.93-1.65-1.75.65-5.72 2.18-9.04-.55-3.31-2.73-.62-4.72-2.75-4.98-2.13-.26-2.77-.42-4.48 1.18-1.71 1.61-7.21 6.77-7.75 10.97z" fill="#F3723A" stroke="#2B2A29" stroke-width="2" stroke-miterlimit="10"/><path d="M41 25v2M43 29v2M45 33v2M18 37H3M9 28H0M26 22H11M9 22H7" stroke="#2B2A29" stroke-width="2" stroke-miterlimit="10"/><path d="M24 49H10" stroke="#BCC0C4" stroke-width="2" stroke-miterlimit="10"/></svg>