<?xml version="1.0" encoding="utf-8"?><svg width="25" height="25" fill="none" xmlns="http://www.w3.org/2000/svg" viewBox="0 0 25 25"><path d="M12.497 0C19.399-.001 25.004 5.606 25 12.508 24.996 19.41 19.383 25.01 12.479 25 5.597 24.99.007 19.398 0 12.515-.007 5.612 5.595.001 12.497 0zm1.08 11.003h.021c0-.39.002-.781 0-1.17-.005-.855-.203-1.092-1.039-1.132a26.96 26.96 0 00-2 .002c-.309.008-.616.082-.871.275-.216.163-.373.318.052.427.344.089.552.339.613.689.154.89.168 1.783-.011 2.667-.111.545-.426.636-.82.255a4.192 4.192 0 01-.528-.635 13.847 13.847 0 01-1.481-2.74c-.134-.33-.352-.554-.723-.556-.764-.005-1.53-.015-2.293.014-.483.018-.612.241-.414.68.918 2.034 1.941 4.01 3.343 5.764 1.411 1.767 3.232 2.614 5.508 2.433.43-.034.649-.226.66-.672.007-.274.05-.553.123-.817.2-.725.621-.85 1.155-.33.408.395.78.829 1.177 1.236.301.31.654.584 1.092.593.909.02 1.82.02 2.727-.046.517-.036.663-.415.419-.887a3.818 3.818 0 00-.658-.905c-.51-.524-1.039-1.03-1.55-1.555-.423-.434-.456-.714-.118-1.208.311-.456.658-.888.987-1.332.504-.679 1.036-1.343 1.355-2.136.237-.589.071-.826-.56-.83-.782-.006-1.564.042-2.343-.004-.574-.033-.85.201-1.048.713-.44 1.126-1.028 2.175-1.833 3.088-.157.178-.333.406-.613.294-.257-.103-.311-.374-.32-.616-.021-.517-.008-1.038-.008-1.559z" fill="#4E77A3"/><path d="M13.578 11.003c0 .521-.013 1.042.005 1.562.009.242.062.511.319.616.281.113.457-.116.613-.295.805-.913 1.394-1.96 1.833-3.087.199-.513.474-.747 1.048-.713.779.046 1.561-.002 2.343.003.631.005.795.242.56.83-.32.794-.85 1.458-1.355 2.136-.33.445-.675.877-.987 1.333-.337.493-.305.773.119 1.208.51.524 1.04 1.03 1.55 1.555.261.268.484.572.657.905.244.472.098.85-.42.887a28.87 28.87 0 01-2.726.046c-.438-.01-.79-.284-1.091-.593-.398-.409-.769-.841-1.178-1.237-.534-.517-.954-.395-1.155.33a3.469 3.469 0 00-.122.817c-.012.447-.23.638-.66.672-2.277.18-4.099-.667-5.51-2.432C6.024 13.79 5 11.816 4.082 9.782c-.198-.44-.069-.662.414-.68.764-.03 1.53-.02 2.294-.014.371.002.588.224.723.556.39.969.884 1.883 1.48 2.74.158.225.331.445.529.635.395.38.708.29.82-.255.179-.884.165-1.778.01-2.667-.06-.352-.269-.6-.613-.69-.423-.108-.266-.263-.052-.426.256-.193.563-.267.872-.275a26.96 26.96 0 012-.003c.836.04 1.034.278 1.04 1.132.002.39 0 .781 0 1.17-.007-.002-.014-.002-.02-.002z" fill="#FEFEFE"/></svg>