<?xml version="1.0" encoding="utf-8"?><svg width="60" height="61" fill="none" xmlns="http://www.w3.org/2000/svg" viewBox="0 0 60 61"><path d="M50 9.22v6M53 12.22h-6M4 16.22v6M7 19.22H1" stroke="#BCC0C4" stroke-width="2" stroke-miterlimit="10"/><path d="M56 44.22v-8M58 46.22L30.41 59.09c-.68.31-1.46.31-2.14 0L4.5 48.5" stroke="#2B2A29" stroke-width="2" stroke-miterlimit="10"/><path d="M4.6 48.59C2.5 47.64 1 46.02 1 43.72v-4c0-2.07 1.36-4.06 3.25-4.92l25.5-11.52a9.598 9.598 0 017.92 0l19.78 8.93c1.51.68 1.51 2.82 0 3.5l-27.5 12.42c-.76.34-1.63.34-2.38 0L7.51 39.07C6.25 38.5 5 39.33 5 40.72v4.5" stroke="#2B2A29" stroke-width="2" stroke-miterlimit="10"/><path d="M28.12 12.19c.35.08.68.15.99.21.47.09 1.13-.05 1.92-.23.88-.2 1.97-.44 3.27-.44 1.02 0 2.02.15 3.06.45 2.21.64 3.95 2.02 5.02 4 1.55 2.86 1.7 6.98.4 11.3-1.5 4.97-5.33 8.8-9.53 9.53-.32.06-.66.08-1.01.08-.94 0-1.85-.21-2.61-.46-.66-.22-1.37-.22-2.04 0-.76.26-1.67.46-2.61.46-.35 0-.69-.03-1.01-.08-4.2-.73-8.03-4.56-9.53-9.53-2.75-9.13 1.24-13.15 5.08-14.92 1.38-.64 2.82-.95 4.41-.95" fill="#F3723A"/><path d="M28.12 12.19c.35.08.68.15.99.21.47.09 1.13-.05 1.92-.23.88-.2 1.97-.44 3.27-.44 1.02 0 2.02.15 3.06.45 2.21.64 3.95 2.02 5.02 4 1.55 2.86 1.7 6.98.4 11.3-1.5 4.97-5.33 8.8-9.53 9.53-.32.06-.66.08-1.01.08-.94 0-1.85-.21-2.61-.46-.66-.22-1.37-.22-2.04 0-.76.26-1.67.46-2.61.46-.35 0-.69-.03-1.01-.08-4.2-.73-8.03-4.56-9.53-9.53-2.75-9.13 1.24-13.15 5.08-14.92 1.38-.64 2.82-.95 4.41-.95" stroke="#2B2A29" stroke-width="2" stroke-miterlimit="10"/><path d="M19.82 16.53c-1.36 1.26-2.21 5.06-2.19 7.83.12.72.3 1.5.55 2.33M24.93 14.69a6.205 6.205 0 008.77 0" stroke="#2B2A29" stroke-width="2" stroke-miterlimit="10"/><path d="M35.15 8.82c-2.03 3.3-6.31 4.37-6.31 4.37s-.98-4.3 1.05-7.6c2.03-3.31 6.31-4.37 6.31-4.37s.98 4.29-1.05 7.6z" fill="#fff" stroke="#2B2A29" stroke-width="2" stroke-miterlimit="10"/><path d="M29.04 15.98c0-2.73-1.06-6.13-4.38-8.81" stroke="#2B2A29" stroke-width="2" stroke-miterlimit="10"/><path d="M10 8.22a3 3 0 100-6 3 3 0 000 6z" stroke="#BCC0C4" stroke-width="2" stroke-miterlimit="10"/></svg>