<?xml version="1.0" encoding="utf-8"?><svg width="21" height="25" fill="none" xmlns="http://www.w3.org/2000/svg" viewBox="0 0 21 25"><path d="M0 11.945C0 8.454.003 4.963 0 1.472c0-.287.014-.57.101-.846C.231.213.495.02.927.002c.485-.021.926.17 1.38.285 1.922.48 3.872.742 5.85.853 3.425.193 6.79-.166 10.113-.981.309-.076.617-.162.94-.152.444.013.694.202.815.624.067.233.096.472.096.716-.001 7.047 0 14.095-.002 21.143 0 .87-.21 1.156-1.063 1.371a34.99 34.99 0 01-4.629.822c-1.931.222-3.867.355-5.811.307a30.239 30.239 0 01-7.752-1.18c-.623-.182-.856-.508-.859-1.23-.007-1.91-.004-3.82-.005-5.73v-4.905zm1.94.159h-.004v9.384c0 .576.084.701.626.832 1.506.363 3.032.61 4.575.732 1.675.131 3.353.133 5.03.024 1.777-.116 3.531-.38 5.27-.754.675-.145.747-.245.747-.933V2.72c0-.11 0-.219-.005-.329-.008-.18-.093-.26-.28-.213-.212.053-.424.115-.64.15-3.11.518-6.232.852-9.395.684a34.282 34.282 0 01-5.437-.733c-.477-.103-.485-.104-.485.378l-.001 9.448z" fill="#fff"/><path d="M12.749 12.232c-.35.008-.593-.232-.79-.517a441.385 441.385 0 01-2.536-3.727c-.28-.416-.299-.419-.6-.026a482.039 482.039 0 01-3.067 3.992c-.466.597-1.057.692-1.54.286-.406-.342-.44-.801-.074-1.284.695-.918 1.398-1.831 2.101-2.743.69-.894 1.382-1.788 2.08-2.677.542-.69 1.13-.718 1.686-.038.562.688 1.045 1.437 1.512 2.193.164.266.255.24.436.013.285-.362.595-.705.92-1.03.475-.476 1.025-.429 1.43.123a437.172 437.172 0 012.761 3.81c.363.507.308.987-.117 1.297a.987.987 0 01-1.38-.21c-.421-.547-.817-1.114-1.218-1.677-.242-.339-.545-.634-.717-1.021-.045-.1-.11-.114-.212-.072-.38.156-.569.62-.369.982.17.306.373.595.568.886.206.308.256.631.085.964-.154.297-.546.489-.96.476zM9.907 17.078c-2.076-.077-4.094-.342-6.062-.927-.613-.182-.87-.46-.883-.922-.02-.665.449-1.088 1.102-.96.86.168 1.708.398 2.572.561 2.87.544 5.698.302 8.502-.432a9.65 9.65 0 01.544-.132c.54-.109.947.127 1.103.632.15.488-.038.918-.54 1.122-.776.316-1.593.49-2.413.643a26.723 26.723 0 01-3.925.415zM9.837 20.39c-2.163.004-4.12-.366-6.047-.918-.4-.115-.776-.292-.824-.783-.077-.777.467-1.247 1.252-1.054.863.213 1.72.446 2.6.584 2.512.394 5.006.32 7.483-.27.437-.104.87-.229 1.31-.323.585-.127.958.066 1.137.564.186.515.039.912-.463 1.144-.641.298-1.336.43-2.021.58-1.507.327-3.035.46-4.427.475z" fill="#fff"/></svg>