<?xml version="1.0" encoding="utf-8"?><svg width="20" height="20" fill="none" xmlns="http://www.w3.org/2000/svg" viewBox="0 0 20 20"><circle cx="10" cy="10" r="10" fill="#E25D23"/><path d="M13.998 9.123c-.015 1.403-.486 2.663-1.202 3.84a12.167 12.167 0 01-2.401 2.829c-.299.261-.463.278-.733.041-1.341-1.177-2.444-2.54-3.127-4.212-.459-1.12-.682-2.284-.429-3.497.368-1.758 2.007-3.073 3.786-3.122 1.913-.054 3.63 1.31 4.029 3.191.064.307.086.616.077.93zm-5.783-.085c-.003.967.824 1.805 1.786 1.808.956.003 1.79-.838 1.792-1.804.002-.966-.829-1.806-1.788-1.808-.957-.003-1.788.835-1.79 1.804z" fill="#fff"/></svg>