<?xml version="1.0" encoding="utf-8"?><svg width="21" height="25" fill="none" xmlns="http://www.w3.org/2000/svg" viewBox="0 0 21 25"><path d="M10.468 24.998H6.876c-2.036-.003-3.599-1.515-3.71-3.543-.058-1.054-.186-2.103-.278-3.154-.075-.87-.142-1.74-.215-2.61l-.286-3.38c-.088-1.026-.184-2.053-.265-3.08-.038-.474-.078-.522-.554-.516-.268.004-.535.008-.8-.045-.51-.102-.773-.405-.768-.924.004-.503.145-.987.238-1.476C.352 5.665.48 5.063.6 4.459c.15-.745.556-1.086 1.323-1.102.218-.004.435-.008.653-.002.216.006.31-.096.352-.303.14-.702.282-1.403.443-2.1.156-.67.35-.847 1.039-.907.918-.08 1.84-.028 2.76-.03C10.102.008 13.033.01 15.963.014c.242 0 .485.023.727.037.465.029.762.271.89.714.166.576.263 1.168.385 1.754.036.171.073.342.099.515.034.233.174.325.4.323.325-.002.652-.018.976.043.455.086.783.335.881.784.24 1.097.474 2.196.657 3.304.128.777-.263 1.186-1.064 1.223-.21.01-.42 0-.627.017-.3.026-.385.11-.41.402-.089 1.06-.17 2.122-.26 3.181-.108 1.276-.226 2.55-.335 3.825-.09 1.068-.168 2.138-.266 3.206-.085.926-.105 1.861-.288 2.776-.333 1.655-1.816 2.863-3.516 2.877-1.248.011-2.496.003-3.743.003zm.052-1.922v.002c.904 0 1.808.003 2.712-.001.409-.002.818.017 1.227-.046.709-.11 1.304-.696 1.372-1.37.174-1.728.302-3.46.428-5.191.012-.153-.04-.227-.177-.24a4.379 4.379 0 00-1.15.013c-.145.023-.215.11-.246.246-.043.195-.099.387-.192.566-.867 1.664-2.227 2.568-4.127 2.544-1.447-.017-2.598-.669-3.453-1.83-.218-.296-.36-.635-.488-.98-.176-.473-.374-.598-.868-.587-.184.004-.368.005-.552.007-.265.002-.313.064-.285.335.157 1.529.272 3.061.388 4.594.037.475.113.943.44 1.328.395.467.93.602 1.507.607 1.154.01 2.31.003 3.464.003zM10.485 8.71v.005H7.546c-.988 0-1.976-.002-2.964-.004-.465 0-.507.042-.478.498l.008.099c.08.936.155 1.871.24 2.807.054.595.09 1.194.197 1.784.04.22.153.349.376.363.242.016.485.024.727.026.464.002.547-.055.7-.481.408-1.145 1.143-1.992 2.257-2.52 1.847-.873 4.005-.399 5.285 1.177.347.427.584.91.775 1.42.075.2.182.39.43.398.377.01.754.007 1.13 0 .148-.003.25-.07.261-.242.027-.381.067-.761.099-1.142.062-.738.124-1.474.183-2.212.043-.53.089-1.06.118-1.59.018-.311-.05-.37-.352-.383-.058-.003-.117-.001-.176-.001-1.96-.002-3.918-.002-5.877-.002zm-.199-3.34h-5.75c-.56 0-1.121-.001-1.682.001-.394.002-.43.035-.509.426-.036.18-.072.36-.113.537-.09.399-.046.458.362.458.895.001 1.79-.02 2.686-.028 1.254-.011 2.51-.015 3.764.02 1.271.035 2.544.008 3.816.008 1.072 0 2.144.016 3.214-.006.853-.019 1.705-.054 2.558.002.156.01.209-.074.212-.212.018-.863-.258-1.125-1.024-1.202-.083-.009-.168-.004-.252-.004h-7.282zm.208 12.226c1.343.047 2.415-1.025 2.423-2.39.007-1.284-1.131-2.4-2.427-2.4-1.279 0-2.425 1.116-2.41 2.39.019 1.524 1.22 2.46 2.414 2.4zm0-14.247h.704l4.597.003c.288 0 .31-.028.257-.3-.044-.23-.085-.459-.134-.686-.084-.38-.114-.4-.5-.4l-9.546.002c-.158 0-.318.002-.477 0-.162-.004-.247.078-.276.23-.051.26-.11.52-.155.783-.063.364-.058.367.307.367 1.741.002 3.482.001 5.224.001z" fill="#E25D23"/></svg>