<?xml version="1.0" encoding="utf-8"?><svg width="23" height="25" fill="none" xmlns="http://www.w3.org/2000/svg" viewBox="0 0 23 25"><path d="M.001 14.199v9.259c0 .182.007.363.041.544.111.58.429.876 1.016.954.454.062.909.041 1.363.041 4.748.002 9.496 0 14.244.003.241 0 .48-.017.717-.047.55-.07.882-.39.96-.945.096-.694.032-1.391.045-2.087.006-.35 0-.35.338-.35.918 0 1.837.002 2.755 0 1.1 0 1.518-.414 1.519-1.52C23 13.878 23 7.706 22.997 1.533c0-.205-.021-.415-.064-.617-.092-.445-.36-.737-.812-.838A3.055 3.055 0 0021.457 0H6.195c-.19 0-.38.004-.568.033-.67.105-.994.454-1.006 1.137a49.912 49.912 0 000 1.966c.004.236-.08.295-.302.293-.91-.01-1.82-.003-2.73-.003h-.272C.461 3.444.013 3.88.007 4.742-.003 6.226 0 7.711 0 9.196v5.003zm16.131.01v8.16c0 .374-.002.374-.362.373H2.646c-.333 0-.338-.002-.333-.326.008-.614.034-1.227.033-1.84-.009-4.851.034-9.702-.037-14.553-.004-.226.026-.35.302-.349 4.399.008 8.798.006 13.197.006.32 0 .325.007.325.342v8.187zM13.718 2.296l.005-.035h.165l6.376-.004c.395 0 .396 0 .396.395l-.003 7.59v8.734c0 .33-.005.335-.33.337-.496.001-.992.003-1.488 0-.484-.003-.448.045-.448-.464-.001-4.703-.001-9.406-.004-14.11 0-.761-.268-1.132-.967-1.343-.594-.18-1.19-.35-1.785-.527-.64-.19-1.278-.382-1.917-.573zM9.383 3.39l-.005.036c-.722 0-1.445.002-2.167-.003-.112 0-.286.067-.319-.099-.038-.199-.046-.411.014-.613.017-.055.084-.035.132-.02l2.345.699z" fill="#E25D23"/></svg>