<?xml version="1.0" encoding="utf-8"?><svg width="25" height="23" fill="none" xmlns="http://www.w3.org/2000/svg" viewBox="0 0 25 23"><path d="M12.497 23c-1.906 0-3.813 0-5.72-.002-.178 0-.358-.013-.534-.04-.896-.137-1.356-.682-1.358-1.634-.007-1.947-.003-3.895-.003-5.843v-5.143c0-.3 0-.297-.259-.174-.349.167-.686.363-1.067.448-.35.079-.635-.025-.863-.31a3.454 3.454 0 01-.388-.635C1.622 8.283.938 6.9.261 5.513-.188 4.59-.083 4.195.77 3.67c1.447-.893 2.874-1.823 4.37-2.629A8.345 8.345 0 018.55.043c.338-.024.674-.063 1.015-.01.466.07.766.336.928.782.134.367.275.726.545 1.015.99 1.057 2.722.748 3.308-.595.025-.06.048-.12.07-.181.309-.83.65-1.078 1.5-1.052 1.492.044 2.91.417 4.213 1.171 1.29.747 2.553 1.546 3.828 2.321.13.08.265.156.394.24.679.44.807.875.462 1.622-.26.563-.533 1.119-.807 1.675-.446.903-.896 1.803-1.344 2.705a3.036 3.036 0 01-.294.5c-.26.34-.59.461-1 .366-.292-.068-.55-.22-.822-.34-.373-.167-.39-.158-.39.257-.003 1.65-.002 3.299-.002 4.948 0 1.8.002 3.597-.004 5.396-.001.297-.02.598-.075.888-.13.685-.557 1.085-1.217 1.198-.33.056-.66.051-.991.051l-5.371.001v-.002zm5.672-9.349v-2.684-2.684c0-.39-.008-.782.042-1.171.098-.77.86-1.156 1.492-.745.327.213.45.533.42.932-.03.425.047.533.427.697.133.056.267.111.39.187.16.101.251.067.336-.108.442-.916.887-1.83 1.343-2.739.1-.199.055-.298-.123-.395-.293-.16-.578-.336-.864-.51-.726-.445-1.442-.904-2.175-1.333-.914-.535-1.888-.896-2.935-1.016-.21-.024-.372.013-.489.24-.997 1.937-3.39 2.721-5.284 1.747-.763-.391-1.345-.976-1.768-1.739-.08-.144-.148-.311-.356-.28-1 .147-1.957.42-2.851.929-1.109.63-2.173 1.336-3.277 1.972-.192.11-.199.217-.107.4.401.801.789 1.61 1.19 2.411.304.606.145.563.795.282.363-.157.55-.4.52-.837-.037-.547.261-.9.778-.992.493-.088.932.195 1.074.702.06.215.086.439.086.662 0 4.101-.002 8.202-.005 12.302 0 .215-.03.428-.032.642-.006.415.09.508.494.49.151-.006.303-.032.455-.032 2.667-.003 5.336-.005 8.004-.001.67 0 1.342.03 2.013.034.376.002.443-.073.441-.458-.002-.353-.031-.707-.032-1.06-.004-1.949-.002-3.897-.002-5.845z" fill="#E25D23"/></svg>