<?xml version="1.0" encoding="utf-8"?><svg width="25" height="26" fill="none" xmlns="http://www.w3.org/2000/svg" viewBox="0 0 25 26"><path d="M.01 5.6c0 1.245.007 2.49-.006 3.736-.002.297.101.384.395.396 1.112.042 2.225.013 3.336.015 1.002.002 2.007.043 3.01-.023.41-.027.82.085 1.23.005.072-.014.172.022.207-.056.045-.1-.063-.15-.12-.207-.925-.928-1.853-1.854-2.78-2.78-.301-.302-.297-.31-.01-.625 1.458-1.611 3.253-2.638 5.383-3.06 4.104-.812 8.322 1.166 10.329 4.822a9.486 9.486 0 011.196 4.405c.006.28.12.351.376.341.67-.025 1.339-.037 2.008-.049.407-.006.433-.019.423-.417a12.073 12.073 0 00-1.73-5.95C21.794 3.693 19.735 1.906 17.068.88c-3.267-1.257-6.526-1.17-9.734.265A12.217 12.217 0 003.18 4.204c-.186.208-.277.106-.41-.027-.818-.82-1.637-1.64-2.46-2.457-.071-.071-.132-.213-.25-.16-.094.043-.05.177-.05.27C.009 3.088.01 4.344.01 5.6zM24.989 19.391c0-1.256-.006-2.512.004-3.768.002-.277-.063-.359-.37-.352-.744.016-1.49.004-2.235.003-.549-.001-1.1-.009-1.65.003-.702.016-1.405.018-2.107 0-.529-.013-1.058.065-1.586-.023-.08-.014-.198 0-.233.081-.049.111.074.167.138.23.933.937 1.862 1.877 2.807 2.8.219.214.195.355.006.563-1.576 1.729-3.506 2.827-5.825 3.15-3.077.43-5.791-.4-8.08-2.53-1.818-1.692-2.78-3.804-3.03-6.256a3.262 3.262 0 01-.011-.487c.014-.268-.11-.387-.37-.356-.69.085-1.382.019-2.073.042-.287.01-.377.107-.369.385.08 2.672.928 5.078 2.548 7.196 2.035 2.66 4.727 4.266 8.033 4.772 3.43.525 6.557-.272 9.363-2.32a11.672 11.672 0 001.843-1.683c.175-.196.27-.171.432-.006.814.825 1.636 1.642 2.46 2.46.07.07.133.217.25.163.106-.05.054-.196.054-.299.002-1.256 0-2.512 0-3.768z" fill="#fff"/></svg>