<?xml version="1.0" encoding="utf-8"?><svg width="79" height="79" fill="none" xmlns="http://www.w3.org/2000/svg" viewBox="0 0 79 79"><circle cx="39.5" cy="39.5" r="38" stroke="#E25D23" stroke-width="3"/><circle cx="39.5" cy="39.5" r="32.5" fill="#E25D23"/><path d="M35.642 29.838c.887 0 1.774.01 2.661-.005.349-.006.532.056.654.425 2.098 6.398 4.217 12.79 6.343 19.178.139.419.124.574-.416.56a102.24 102.24 0 00-4.085-.003c-.395.006-.578-.098-.69-.472-.425-1.416-.904-2.819-1.332-4.233-.109-.362-.28-.49-.683-.486-1.712.022-3.424.022-5.137 0-.42-.005-.562.146-.66.504-.386 1.384-.818 2.755-1.208 4.138-.107.38-.243.572-.729.555-1.237-.042-2.475-.014-3.712-.014-.735 0-.737-.002-.529-.64 1.756-5.4 3.511-10.803 5.269-16.204.307-.942.639-1.877.913-2.828.107-.368.276-.497.679-.485.887.029 1.776.01 2.663.01zm-.145 3.405c-.094.195-.152.28-.175.37a98.267 98.267 0 01-2.083 7.402c-.102.32 0 .404.34.4 1.277-.014 2.556-.024 3.832.005.453.011.461-.144.359-.47-.798-2.516-1.596-5.033-2.273-7.707zM48.012 42.638c0-2.246.013-4.493-.01-6.74-.005-.444.14-.553.594-.544 1.238.028 2.475.022 3.712.004.388-.007.545.076.543.474-.013 4.57-.011 9.142 0 13.712.002.373-.145.453-.507.449a108.962 108.962 0 00-3.835.004c-.436.01-.507-.144-.505-.502.014-2.285.008-4.57.008-6.857zM50.417 33.538c-1.493.003-2.5-.894-2.513-2.234-.011-1.365 1.001-2.293 2.516-2.304 1.472-.01 2.567.957 2.58 2.279.013 1.302-1.08 2.257-2.583 2.259z" fill="#fff"/></svg>