<?xml version="1.0" encoding="utf-8"?><svg width="25" height="24" fill="none" xmlns="http://www.w3.org/2000/svg" viewBox="0 0 25 24"><path d="M12.445.001c-1.676 0-3.352-.003-5.028.001-.906.003-1.216.309-1.223 1.19-.012 1.357-.012 1.357-1.454 1.357-1.196 0-2.393-.005-3.592.002-.8.006-1.14.332-1.144 1.103C0 5.829 0 8.004.004 10.18c.002.733.325 1.076.98 1.08.655.004 1.016-.38 1.02-1.114.005-1.68.015-3.36-.007-5.04-.006-.484.16-.658.668-.642.976.03 1.952.02 2.927.004.406-.007.602.1.61.535.017.954.267 1.166 1.273 1.166H17.53c.963 0 1.236-.246 1.271-1.192.013-.356.139-.512.522-.508 1.05.011 2.099.011 3.15 0 .377-.004.526.14.524.503a1205.89 1205.89 0 000 7.267c.002.365-.154.504-.527.5-1.05-.012-2.1-.012-3.15 0-.386.004-.53-.159-.515-.513.014-.3.005-.601.002-.901-.01-.808-.336-1.13-1.169-1.134-2.173-.005-4.347-.003-6.52-.003-1.252 0-2.504-.004-3.757.003-.833.004-1.155.326-1.167 1.135-.02 1.41-.02 1.41-1.51 1.41-1.179 0-2.357-.004-3.536.003-.751.004-1.154.363-1.14.998.014.62.374.918 1.146.92 1.418.007 2.836.002 4.254.004.783.001.786.003.786.777l.001 7.267c0 1.075.233 1.294 1.371 1.294h9.89c1.07 0 1.352-.266 1.352-1.278.002-2.459.015-4.917-.01-7.374-.006-.535.165-.71.725-.698 1.418.033 2.836.015 4.254.009.905-.003 1.22-.309 1.22-1.19.004-3.254.004-6.508 0-9.762 0-.84-.326-1.153-1.2-1.156-1.436-.006-2.873-.021-4.31.009-.54.01-.736-.179-.683-.678.027-.245.007-.496.003-.742-.01-.808-.335-1.13-1.169-1.134-1.73-.008-3.462-.004-5.193-.004zm4.359 17.042c0 1.484-.012 2.969.007 4.454.006.437-.156.588-.612.586a647.465 647.465 0 00-7.4 0c-.456.003-.612-.152-.61-.588.012-2.934.012-5.869 0-8.803-.002-.436.155-.589.61-.586 2.467.014 4.933.014 7.4 0 .456-.003.615.152.61.588-.017 1.449-.005 2.9-.005 4.349zM12.498 1.924c1.252 0 2.503.009 3.753-.004.4-.004.587.136.554.527-.012.14-.001.283-.001.423 0 1.376 0 1.376-1.431 1.376-2.19 0-4.38-.009-6.569.005-.45.003-.642-.141-.613-.581a9.033 9.033 0 000-1.165c-.028-.438.153-.595.609-.586 1.232.018 2.466.005 3.698.005z" fill="#E25D23"/></svg>