<?xml version="1.0" encoding="utf-8"?><svg width="20" height="20" fill="none" xmlns="http://www.w3.org/2000/svg" viewBox="0 0 20 20"><path d="M10.006 0A9.966 9.966 0 0120 10.017 9.967 9.967 0 019.972 20 9.967 9.967 0 010 10.004 9.964 9.964 0 0110.006 0zm5.02 6.373c-.002-.434-.195-.607-.558-.55-.141.022-.278.076-.412.128a3139.82 3139.82 0 00-6.512 2.511c-.754.292-1.505.595-2.253.903-.144.059-.313.153-.301.334.011.183.193.244.343.292.632.207 1.263.413 1.902.598.235.068.36.186.432.423.231.76.484 1.514.733 2.268.157.478.409.546.783.208.29-.262.584-.522.843-.813.217-.243.38-.263.643-.054.588.468 1.2.906 1.81 1.348.557.402.864.287 1.008-.379.351-1.623.694-3.248 1.04-4.873l.5-2.344z" fill="#179CD1"/><path d="M15.026 6.373l-.499 2.344c-.346 1.624-.69 3.25-1.04 4.873-.145.666-.45.78-1.008.379-.61-.44-1.222-.88-1.81-1.348-.262-.209-.426-.19-.643.054-.26.29-.554.551-.843.813-.374.338-.626.27-.783-.208-.25-.755-.502-1.508-.733-2.268-.072-.237-.197-.355-.432-.423-.639-.185-1.27-.392-1.902-.598-.15-.048-.332-.108-.343-.292-.012-.181.157-.275.301-.334.748-.308 1.499-.61 2.253-.903 2.17-.84 4.341-1.676 6.512-2.51.134-.053.27-.106.412-.13.361-.056.556.117.558.55zm-6.37 6.475a3.39 3.39 0 00.111-.008c.032-.28.1-.561.09-.84-.014-.441.15-.754.483-1.046 1.236-1.087 2.449-2.199 3.666-3.306.084-.075.272-.148.162-.296-.08-.11-.217-.002-.31.056-1.576.99-3.152 1.981-4.726 2.975-.123.078-.246.153-.183.342.24.706.473 1.415.708 2.123z" fill="#FDFEFF"/><path d="M8.657 12.848c-.235-.708-.468-1.417-.708-2.124-.063-.188.062-.264.183-.341 1.574-.993 3.149-1.986 4.726-2.974.093-.058.23-.165.31-.056.11.147-.078.22-.162.296-1.217 1.107-2.43 2.22-3.666 3.306-.332.292-.496.604-.483 1.046.009.279-.057.56-.09.84-.037 0-.073.004-.11.007z" fill="#179CD1"/></svg>