<?xml version="1.0" encoding="utf-8"?><svg width="21" height="20" fill="none" xmlns="http://www.w3.org/2000/svg" viewBox="0 0 21 20"><circle cx="10.5" cy="10.5" r="8.5" fill="#fff"/><path fill-rule="evenodd" clip-rule="evenodd" d="M10.227 8.96c.536 0 1.097.4 1.097 1.115s-.563 1.104-1.097 1.104c-.548 0-1.098-.389-1.098-1.104 0-.715.548-1.115 1.098-1.115zm.078-4.039c-2.94 0-5.29 2.282-5.29 5.092 0 2.82 2.35 5.078 5.29 5.078a5.475 5.475 0 003.213-1.04l-.954-.916a3.987 3.987 0 01-2.26.703c-1.855 0-3.853-1.304-3.853-3.811 0-2.508 1.998-3.851 3.854-3.851 1.803 0 3.868 1.291 3.868 3.712v.276c0 1.104-.328 1.279-.693 1.279-.378 0-.64-.276-.64-.778V7.493h-1.084l-.104.514c-.392-.363-.941-.589-1.594-.589-1.53 0-2.586 1.19-2.586 2.659 0 1.468 1.057 2.646 2.586 2.646.77 0 1.397-.314 1.828-.803l.065.139c.314.376.797.602 1.502.602 1.373 0 2.157-1.028 2.157-2.508V9.84c0-2.733-2.404-4.916-5.305-4.916V4.92zm7.476-1.99C13.71-.978 7.115-.978 3.049 2.93c-3.913 3.757-4.06 9.768-.437 13.696l.108.083c-.395.815-1.07 1.82-2.144 2.328-.355.166-.272.673.117.731 1.174.174 2.859-.021 4.43-1.16l.021.017c3.993 2.252 9.216 1.738 12.644-1.555 4.062-3.903 4.062-10.238-.007-14.14z" fill="#E25D23"/></svg>