<?xml version="1.0" encoding="utf-8"?><svg width="43" height="47" fill="none" xmlns="http://www.w3.org/2000/svg" viewBox="0 0 43 47"><path d="M16.5 7.303L20.916 0l7.534 4.556-4.416 7.303L16.5 7.303zm5.03-4.621l-2.37 3.92 4.259 2.575 2.37-3.92-4.258-2.575zM.69 33.447l4.416-7.303L12.64 30.7l-4.416 7.303L.69 33.447zm5.031-4.621l-2.37 3.92 4.258 2.575 2.37-3.92-4.258-2.575zM28.306 22.897l7.534 4.556-4.416 7.303L23.89 30.2l4.416-7.303zm.615 2.681l-2.37 3.92 4.258 2.576 2.37-3.92-4.258-2.576zM34.547 13.227c1.197-1.978 3.732-2.649 5.651-1.488 1.92 1.16 2.503 3.717 1.307 5.696-1.197 1.979-3.735 2.647-5.652 1.488-1.916-1.158-2.505-3.713-1.306-5.696zm5.32 3.217c.634-1.048.324-2.4-.692-3.014-1.015-.614-2.356-.26-2.99.788-.634 1.048-.324 2.4.691 3.014 1.016.614 2.357.26 2.99-.788zM18.228 40.214c1.197-1.98 3.732-2.65 5.651-1.489 1.92 1.16 2.505 3.714 1.307 5.696-1.199 1.982-3.732 2.65-5.651 1.489-1.92-1.161-2.503-3.718-1.307-5.696zm5.32 3.217c.634-1.049.324-2.4-.691-3.015-1.016-.614-2.357-.26-2.991.788-.634 1.049-.324 2.4.691 3.014 1.018.611 2.359.258 2.991-.787z" fill="#E25D23"/><path d="M25.128 9.421l1.095-1.648c.106.069 10.295 7.025 6.027 17.457a.616.616 0 01-.013.08h-.022l-.932-.138-.953-.119c.007-.092.026-.256.1-.438C34.18 15.63 25.5 9.67 25.128 9.42zM10.611 33.501c.39.213 9.7 5.132 15.918-2.361l1.463 1.235C20.734 41.13 9.769 35.293 9.66 35.236l.951-1.735z" fill="#E25D23"/><path d="M33.03 26.225l4.464-7.381-1.638-.99-4.463 7.38 1.638.99zM24.716 39.975l4.116-6.806-1.638-.99-4.116 6.805 1.638.99z" fill="#E25D23"/></svg>