<?xml version="1.0" encoding="utf-8"?><svg width="36" height="41" fill="none" xmlns="http://www.w3.org/2000/svg" viewBox="0 0 36 41"><path d="M35.227 20.978v18.85c0 1.123 0 1.125-1.304 1.125-3.817.002-7.637-.005-11.455.006a5.726 5.726 0 01-1.75-.25c-6.532-2.022-13.062-4.05-19.608-6.042-.82-.25-1.113-.587-1.11-1.315.027-10.462.027-20.927.005-31.39 0-.748.26-1.003 1.182-1 10.958.022 21.914.02 32.869-.003.927-.002 1.185.255 1.182 1.004-.026 6.338-.016 12.677-.016 19.015h.005zm-2.63-.064c0-1.74-.007-3.48.003-5.22.021-3.867.037-7.734.093-11.6.01-.687-.27-.922-1.089-.913-2.787.026-5.576.006-8.365.006-6.538 0-13.078.012-19.616-.006-.831-.002-1.017.201-1.02.912-.008 2.321.027 4.64.016 6.961a842.24 842.24 0 00-.005 9.694c.008 1.269-.003 2.54-.005 3.811a1017.85 1017.85 0 01-.048 7.54c-.005.515.292.67.863.657a6.071 6.071 0 002.643-.642c1.48-.75 2.824-1.652 4.142-2.582 1.05-.742 1.054-.738 1.992.044 3.424 2.857 6.854 5.714 10.273 8.577.412.346.82.603 1.456.598 2.555-.02 5.11-.022 7.666.003.82.006 1.118-.26 1.097-.937a187.43 187.43 0 01-.09-5.468c-.016-3.812-.008-7.623-.006-11.435zM18.06 37.668l.106-.168c-2.173-1.814-4.346-3.63-6.524-5.441-.194-.16-.423-.313-.702-.158-1.299.722-2.587 1.455-4.05 2.28 3.88 1.21 7.525 2.349 11.17 3.487z" fill="#E25D23"/></svg>