<?xml version="1.0" encoding="utf-8"?><svg viewBox="0 0 384 384" xmlns="http://www.w3.org/2000/svg" xmlns:xlink="http://www.w3.org/1999/xlink"><style>:root>svg{display:none}:root>svg:target{display:block}</style><svg fill="none" viewBox="0 0 12 12" id="icon-breadcrumbs-arrow" xmlns="http://www.w3.org/2000/svg"><path d="M8.435 2.845l-.53.53 2.25 2.25H.374v.75h9.78l-2.25 2.25.53.53L11.59 6 8.435 2.845z" fill="#000"/></svg><svg fill="none" viewBox="0 0 20 20" id="icon-contacts-adress" xmlns="http://www.w3.org/2000/svg"><circle cx="10" cy="10" r="10" fill="#E25D23"/><path d="M13.998 9.123c-.015 1.403-.486 2.663-1.202 3.84a12.167 12.167 0 01-2.401 2.829c-.299.261-.463.278-.733.041-1.341-1.177-2.444-2.54-3.127-4.212-.459-1.12-.682-2.284-.429-3.497.368-1.758 2.007-3.073 3.786-3.122 1.913-.054 3.63 1.31 4.029 3.191.064.307.086.616.077.93zm-5.783-.085c-.003.967.824 1.805 1.786 1.808.956.003 1.79-.838 1.792-1.804.002-.966-.829-1.806-1.788-1.808-.957-.003-1.788.835-1.79 1.804z" fill="#fff"/></svg><svg fill="none" viewBox="0 0 20 20" id="icon-contacts-call" xmlns="http://www.w3.org/2000/svg"><circle cx="9.5" cy="11.5" r="8.5" fill="#fff"/><path fill-rule="evenodd" clip-rule="evenodd" d="M17.067 2.931c-3.908-3.908-10.236-3.908-14.14 0C-.829 6.688-.97 12.7 2.507 16.628l.105.083c-.378.814-1.027 1.82-2.057 2.327-.34.167-.262.673.113.731 1.127.175 2.743-.02 4.252-1.16l.02.016c3.833 2.253 8.845 1.738 12.137-1.554 3.899-3.904 3.899-10.238-.009-14.141l-.001.001zm-3.774 11.348c-.22.225-.454.433-.66.665-.303.341-.686.448-1.119.424-.631-.034-1.218-.246-1.778-.52a9.662 9.662 0 01-3.213-2.514c-.66-.786-1.204-1.642-1.567-2.61-.173-.47-.3-.948-.262-1.455.025-.312.142-.578.37-.799.249-.236.482-.481.727-.722.32-.316.72-.313 1.04 0 .2.196.39.39.586.586.191.192.382.377.57.57.332.336.332.726 0 1.063-.237.241-.474.482-.72.716-.061.062-.07.112-.037.191.158.382.391.723.65 1.04.518.64 1.108 1.21 1.815 1.65.15.096.316.163.474.25.08.045.137.03.2-.037.236-.246.482-.487.722-.728.32-.315.719-.315 1.036 0 .39.386.778.774 1.163 1.164.333.342.333.74.004 1.069l-.001-.003zM9.607 7.82l.124-.89c.86.12 1.643.511 2.257 1.127a3.918 3.918 0 011.105 2.133l-.885.153a3.041 3.041 0 00-.856-1.65 3.039 3.039 0 00-1.745-.873zm4.933 2.37a5.67 5.67 0 00-1.583-3.06c-.88-.88-2-1.438-3.234-1.612l.124-.89a6.515 6.515 0 013.741 1.865 6.57 6.57 0 011.838 3.543l-.885.154h-.001z" fill="#E25D23"/></svg><svg fill="none" viewBox="0 0 21 20" id="icon-contacts-clock" xmlns="http://www.w3.org/2000/svg"><path fill-rule="evenodd" clip-rule="evenodd" d="M17.78 2.93C13.71-.977 7.116-.977 3.05 2.93-.865 6.688-1.013 12.7 2.611 16.627l.108.083c-.395.815-1.07 1.82-2.144 2.328-.355.166-.272.673.117.731 1.174.174 2.859-.021 4.43-1.16l.021.017c3.993 2.252 9.216 1.738 12.644-1.555 4.062-3.903 4.062-10.238-.007-14.14z" fill="#E25D23"/><path d="M15 10c.04 2.73-2.27 5.009-5.014 5C7.284 14.991 4.98 12.756 5 9.986A5.002 5.002 0 0110.01 5c2.751-.015 5.031 2.282 4.99 5zm-4.996 3.761c2.036.01 3.737-1.664 3.769-3.677a3.782 3.782 0 00-3.654-3.85c-2.146-.062-3.853 1.66-3.88 3.66-.028 2.171 1.626 3.857 3.765 3.867z" fill="#fff"/><path d="M10.52 8.167l.001.816c0 .049-.027.116.03.141.054.025.094-.033.135-.06.167-.112.33-.23.5-.338.284-.183.582-.135.753.115.172.251.107.547-.172.741-.474.33-.952.653-1.427.98-.18.124-.372.158-.569.058-.203-.104-.287-.286-.286-.513.002-.907-.001-1.815.001-2.722.001-.339.207-.553.518-.553.31 0 .513.219.516.558.002.258 0 .518 0 .777z" fill="#fff"/><path d="M15 10c.04 2.73-2.27 5.009-5.014 5C7.284 14.991 4.98 12.756 5 9.986A5.002 5.002 0 0110.01 5c2.751-.015 5.031 2.282 4.99 5zm-4.996 3.761c2.036.01 3.737-1.664 3.769-3.677a3.782 3.782 0 00-3.654-3.85c-2.146-.062-3.853 1.66-3.88 3.66-.028 2.171 1.626 3.857 3.765 3.867z" stroke="#fff" stroke-width=".3"/><path d="M10.52 8.167l.001.816c0 .049-.027.116.03.141.054.025.094-.033.135-.06.167-.112.33-.23.5-.338.284-.183.582-.135.753.115.172.251.107.547-.172.741-.474.33-.952.653-1.427.98-.18.124-.372.158-.569.058-.203-.104-.287-.286-.286-.513.002-.907-.001-1.815.001-2.722.001-.339.207-.553.518-.553.31 0 .513.219.516.558.002.258 0 .518 0 .777z" stroke="#fff" stroke-width=".3"/></svg><svg fill="none" viewBox="0 0 21 20" id="icon-contacts-mail" xmlns="http://www.w3.org/2000/svg"><circle cx="10.5" cy="10.5" r="8.5" fill="#fff"/><path fill-rule="evenodd" clip-rule="evenodd" d="M10.227 8.96c.536 0 1.097.4 1.097 1.115s-.563 1.104-1.097 1.104c-.548 0-1.098-.389-1.098-1.104 0-.715.548-1.115 1.098-1.115zm.078-4.039c-2.94 0-5.29 2.282-5.29 5.092 0 2.82 2.35 5.078 5.29 5.078a5.475 5.475 0 003.213-1.04l-.954-.916a3.987 3.987 0 01-2.26.703c-1.855 0-3.853-1.304-3.853-3.811 0-2.508 1.998-3.851 3.854-3.851 1.803 0 3.868 1.291 3.868 3.712v.276c0 1.104-.328 1.279-.693 1.279-.378 0-.64-.276-.64-.778V7.493h-1.084l-.104.514c-.392-.363-.941-.589-1.594-.589-1.53 0-2.586 1.19-2.586 2.659 0 1.468 1.057 2.646 2.586 2.646.77 0 1.397-.314 1.828-.803l.065.139c.314.376.797.602 1.502.602 1.373 0 2.157-1.028 2.157-2.508V9.84c0-2.733-2.404-4.916-5.305-4.916V4.92zm7.476-1.99C13.71-.978 7.115-.978 3.049 2.93c-3.913 3.757-4.06 9.768-.437 13.696l.108.083c-.395.815-1.07 1.82-2.144 2.328-.355.166-.272.673.117.731 1.174.174 2.859-.021 4.43-1.16l.021.017c3.993 2.252 9.216 1.738 12.644-1.555 4.062-3.903 4.062-10.238-.007-14.14z" fill="#E25D23"/></svg><svg fill="none" viewBox="0 0 12 12" id="icon-content-check" xmlns="http://www.w3.org/2000/svg"><circle cx="6" cy="6" r="6" fill="#E25D23"/><path d="M4.792 8.951L2.05 6.221a.17.17 0 010-.24l.692-.695a.169.169 0 01.24 0l1.805 1.797a.17.17 0 00.24 0l3.99-4.033a.17.17 0 01.24 0l.693.693a.17.17 0 01.001.24l-4.346 4.39-.573.577a.17.17 0 01-.24.001z" fill="#fff"/></svg><svg fill="none" viewBox="0 0 48 48" id="icon-download" xmlns="http://www.w3.org/2000/svg"><circle cx="24" cy="24" r="23" stroke="#E25D23" stroke-width="2"/><path d="M31.92 24.08L24 32l-7.92-7.92 1.42-1.41 5.5 5.5V14h2v14.17l5.5-5.51 1.42 1.42zM24 32H14v2h20v-2H24z" fill="#E25D23"/></svg><svg fill="none" viewBox="0 0 25 25" id="icon-instagram" xmlns="http://www.w3.org/2000/svg"><path d="M14.23.109c.304.178.68-.03.976.188 1.05 1.04 2.06 2.116 2.969 3.285 1.764 2.272 3.163 4.742 4.14 7.455.657 1.827 1.19 3.683 1.485 5.607.032.209-.002.474.235.618-.08.31-.206.598-.397.855-.325-.007-.323-.27-.353-.483-.544-3.82-1.77-7.403-3.718-10.727-1.318-2.246-2.89-4.294-4.87-6.007-.229-.2-.598-.36-.467-.791z" fill="#894795"/><path d="M24.972 11.852l.007.426c-.42-.036-.449-.409-.543-.684a45.146 45.146 0 00-1.171-3.11 27.876 27.876 0 00-2.49-4.583c-.126-.189-.265-.375-.333-.596-.037-.118-.13-.272.084-.336 1.931 1.554 3.193 3.56 3.934 5.909.236.753.439 1.518.437 2.32.1.208-.01.443.075.654z" fill="#6D519D"/><path d="M14.23.109c.05.332.33.496.545.685 2.895 2.527 4.932 5.654 6.479 9.147 1.044 2.358 1.687 4.824 2.142 7.35.052.285-.05.611.242.825-.035.196-.142.356-.256.511-.337-.129-.289-.444-.328-.706-.484-3.23-1.362-6.335-2.867-9.245-.112-.218-.204-.452-.408-.608-.356-.692-.69-1.396-1.204-1.993-.044-.285-.176-.526-.345-.76-1.274-1.762-2.688-3.395-4.373-4.78-.136-.114-.398-.21-.208-.481.131.003.266-.033.39.04l.191.015z" fill="#8D4694"/><path d="M20.526 2.97c-.085.297.127.49.265.694 1.603 2.37 2.809 4.931 3.69 7.652.11.344.178.721.5.961.026.57.051 1.138-.095 1.697-.311-.024-.301-.294-.369-.496-.316-.95-.551-1.925-.9-2.869-1.059-2.859-2.453-5.527-4.318-7.94-.128-.167-.274-.326-.345-.528-.038-.108-.088-.257.13-.24a5.609 5.609 0 011.442 1.068z" fill="#724F9B"/><path d="M24.766 14.825a2.326 2.326 0 01-.2.844c-.281.03-.302-.19-.34-.373a31.567 31.567 0 00-2.342-6.998 26.768 26.768 0 00-3.42-5.5c-.375-.465-.742-.936-1.146-1.377-.127-.137-.289-.284-.126-.503.202.209.507.186.735.338 1.38 1.36 2.426 2.967 3.393 4.63 1.472 2.531 2.5 5.244 3.238 8.075.075.288.076.592.208.864z" fill="#7B4C99"/><path d="M24.766 14.826c-.122.052-.167.028-.2-.122-.85-3.852-2.355-7.424-4.577-10.682-.573-.84-1.168-1.666-1.872-2.403-.098-.103-.197-.203-.19-.362.425.144.805.369 1.158.643-.181.158-.001.24.075.34 1.234 1.605 2.333 3.294 3.223 5.118a33.622 33.622 0 012.285 6.153c.046.172.072.343.218.465.028.292-.035.573-.12.85z" fill="#774D9A"/><path d="M24.035 17.26c-.216.107-.282-.008-.306-.2-.15-1.2-.436-2.369-.744-3.534-.331-1.257-.77-2.48-1.27-3.675a26.14 26.14 0 00-3.367-5.818c-.918-1.2-1.884-2.357-3.006-3.37-.111-.101-.294-.166-.137-.365.178 0 .352.011.501.123 1.206 1.117 2.317 2.32 3.248 3.684.393.662.84 1.29 1.27 1.929.857 1.552 1.697 3.11 2.264 4.801.412 1.376.923 2.723 1.205 4.136.146.735.382 1.455.365 2.216.009.027 0 .052-.023.074z" fill="#854996"/><path d="M19.804 7.942c.263.092.34.337.453.553 1.457 2.808 2.37 5.79 2.859 8.913.063.405.008.85.264 1.217l-.318.531c-.295-.017-.295-.257-.33-.457-.139-.83-.236-1.669-.407-2.495-.498-2.402-1.22-4.728-2.33-6.921-.08-.158-.11-.333-.172-.497-.037-.28-.217-.558-.019-.844z" fill="#914493"/><path d="M7.688.987l.848-.326c1.11.383 2.048 1.068 2.982 1.747.808.59 1.576 1.234 2.252 1.978.132.145.417.274.186.556-.268.104-.54.085-.812.026-.49-.257-.81-.716-1.233-1.058a20.033 20.033 0 00-3.794-2.45c-.182-.091-.524-.101-.43-.473z" fill="#B1368A"/><path d="M.581 16.107a1.252 1.252 0 01-.157-.543c.281-.226.6-.148.906-.094 1.392.247 2.57.883 3.493 1.973.978 1.174 1.566 2.52 1.795 4.031.075.492.051.982.037 1.472-.004.18-.065.346-.234.446a.538.538 0 01-.32-.192c-.102-.115-.098-.251-.096-.395.02-2.632-.902-4.755-3.274-6.09a3.663 3.663 0 00-1.65-.475c-.179-.007-.35-.026-.5-.133z" fill="#F28A47"/><path d="M.384 15.36c-.107-.127-.093-.281-.091-.431.624-.322 1.244-.085 1.837.07a5.77 5.77 0 012.738 1.61c.157.163.316.328.509.455.397.695.86 1.35 1.237 2.06.05.312.15.61.253.908.383 1.096.375 2.232.327 3.37-.006.123-.04.242-.144.327a58.518 58.518 0 00-.314-.144c-.166-.177-.115-.394-.105-.6.089-1.885-.366-3.608-1.513-5.124C4.02 16.39 2.6 15.514.73 15.46c-.125-.006-.245-.017-.346-.1z" fill="#F18443"/><path d="M22.77 19.587a2.207 2.207 0 01-.504.678c-.262-.343-.23-.758-.272-1.151-.296-2.774-.929-5.46-2.056-8.019-.076-.336-.115-.67.037-.997.42-.147.456.232.55.45.48 1.118.898 2.26 1.224 3.433.511 1.839.859 3.705 1.02 5.606z" fill="#9A4091"/><path d="M.089 13.446l-.01-.283c-.119-.363-.026-.609.39-.599 1.712.037 3.29.482 4.636 1.596a.498.498 0 01.067.198c.014.242.092.526-.145.681-.23.15-.431-.058-.614-.177-1.183-.774-2.471-1.217-3.887-1.267-.162-.007-.314-.034-.437-.15z" fill="#EE7138"/><path d="M16.345.61l.522.249c1.699 1.88 3.195 3.903 4.395 6.146 1.125 2.1 1.972 4.304 2.598 6.599.217.792.343 1.607.612 2.386a.65.65 0 01-.12.42c-.377-.01-.378-.333-.424-.566-.406-2.038-1.02-4.013-1.78-5.942-.284-.72-.585-1.431-.983-2.096-.312-.738-.68-1.445-1.152-2.095a.869.869 0 01-.085-.127c-.564-1.075-1.334-2.003-2.088-2.944a13.75 13.75 0 00-1.355-1.45c-.165-.153-.347-.325-.14-.58z" fill="#7F4A98"/><path d="M22.77 19.587c-.413-.351-.226-.863-.282-1.282-.342-2.535-.971-4.986-1.953-7.345-.133-.318-.178-.69-.498-.904-.211-.411-.395-.824-.088-1.271.545 1.154 1.067 2.316 1.48 3.525a31.81 31.81 0 011.45 6.385c.021.176 0 .356.185.462a1.094 1.094 0 01-.295.43z" fill="#954392"/><path d="M13.597.102c.753.758 1.62 1.394 2.342 2.188.909 1 1.759 2.046 2.54 3.151.13.182.208.363.184.586-.418-.022-.666-.318-.931-.585a20.52 20.52 0 00-3.102-3.579A30.889 30.889 0 0013.033.484c-.141-.111-.323-.25-.175-.484l.532.011c.058.054.158.012.207.09z" fill="#914493"/><path d="M5.04 14.189c-.938-.595-1.922-1.084-3.016-1.307a8.606 8.606 0 00-1.502-.186c-.364-.01-.467.147-.443.467a2.539 2.539 0 01-.007-1.224c1.836-.13 3.522.292 5.025 1.384.101.167.094.352.09.537-.011.127-.035.248-.148.329z" fill="#ED6D3B"/><path d="M5.056 13.868l-.017-.53c-.147-.176-.143-.39-.145-.603.014-.146-.004-.293.002-.44.012-.144-.004-.29.001-.434.01-.144-.007-.287 0-.43.01-.173-.01-.344.003-.516 0-.17-.008-.34 0-.51 0-.084-.001-.167-.003-.249.033-.343-.226-.449-.468-.542-.946-.365-1.913-.649-2.936-.685-.294-.012-.592-.019-.868-.144.022-.23.107-.438.218-.637.14-.273.4-.267.64-.252 1.18.076 2.308.379 3.4.82a.628.628 0 01.372.354c.15 1.07.049 2.147.063 3.22.007.506.093 1.023-.093 1.52-.038.068-.096.088-.169.058z" fill="#DE5951"/><path d="M14.02 4.86c-1.203-1.38-2.638-2.471-4.187-3.428-.428-.264-.922-.418-1.295-.77.245-.076.491-.15.736-.225 1.214.54 2.239 1.375 3.307 2.144.722.518 1.242 1.236 1.866 1.852.128.125.37.272.13.515-.202.065-.395.085-.558-.089z" fill="#AB398D"/><path d="M11.586.017c.144-.004.287-.008.43-.014.352.083.617.32.896.53a21.681 21.681 0 014.099 4.07c.132.173.404.325.248.626-.279.1-.518-.001-.75-.142-1.198-1.448-2.494-2.794-3.994-3.936-.321-.244-.674-.443-.978-.709-.164-.141-.33-.325.049-.425z" fill="#9A4091"/><path d="M24.472 15.991c-.364-.257-.304-.7-.385-1.045-.392-1.637-.838-3.25-1.47-4.814-.795-1.958-1.756-3.82-2.95-5.562-.73-1.07-1.471-2.13-2.387-3.054-.183-.185-.348-.394-.413-.658.117-.027.233-.047.324.062.094.484.518.737.798 1.075a30.487 30.487 0 013.355 4.95c1.299 2.395 2.173 4.939 2.865 7.56.103.391-.004.853.358 1.164.01.12-.002.233-.095.322z" fill="#7F4B98"/><path d="M20.8 21.828c-.178.214-.375.408-.63.532-.404-.087-.3-.428-.292-.674.04-1.34-.157-2.655-.365-3.97.002-.667.297-1.287.308-1.954.002-.106.062-.25.24-.189.233.452.164.96.259 1.44.31 1.587.529 3.189.48 4.815z" fill="#B1368A"/><path d="M5.461 22.792a.987.987 0 01-.425-.313c-.175-.263-.014-.553-.07-.828-.38-1.872-1.276-3.34-3.117-4.095-.266-.109-.559-.047-.808-.19a1.527 1.527 0 01-.25-.626c.184-.19.395-.09.594-.046 1.778.406 2.983 1.509 3.719 3.146.311.69.515 1.424.583 2.187.026.284.049.569-.226.765z" fill="#F49851"/><path d="M5.056 13.868l.055-.001c.265.18.206.46.207.71.001.397.055.8-.063 1.191-.15.268-.331.109-.486.018-.257-.15-.487-.344-.736-.511-.99-.661-2.084-.996-3.267-1.045-.321-.014-.662.01-.662-.462l-.015-.32c1.572-.064 2.997.397 4.32 1.221.184.114.37.397.567.274.179-.111.048-.425.069-.648.003-.036-.003-.07-.006-.106l.017-.32z" fill="#EE763A"/><path d="M.581 16.107c2.066-.05 3.521.967 4.536 2.685A8.077 8.077 0 016.2 21.946c.054.432-.088.836-.1 1.256a.52.52 0 01-.322-.2.442.442 0 01-.083-.297c.033-1.438-.281-2.794-1.144-3.953-.868-1.166-1.967-2.038-3.486-2.203-.178-.02-.351-.044-.432-.239-.017-.068-.033-.136-.052-.203z" fill="#F2904A"/><path d="M5.038 12.701l.001.637c-.533-.176-.982-.524-1.511-.723-.895-.336-1.801-.56-2.761-.552-.232.001-.497.101-.695-.125l.025-.505c.311-.245.676-.164 1.015-.139a8.51 8.51 0 013.505 1.026c.172.096.335.193.421.381z" fill="#ED693C"/><path d="M6.732 1.47a.703.703 0 01.413-.213c.216-.05.413.016.605.105a19.135 19.135 0 014.69 3.086c.131.116.331.24.17.476-.21.11-.427.095-.645.037-.828-.643-1.66-1.283-2.548-1.843a14.922 14.922 0 00-2.129-1.132c-.235-.1-.565-.135-.556-.517z" fill="#B93384"/><path d="M.635 16.31c.798.108 1.576.284 2.267.724 1.19.757 2.107 1.746 2.527 3.128.17.56.321 1.125.448 1.695.084.382-.026.765-.099 1.143a.533.533 0 01-.316-.207c.263-1.171-.157-2.228-.653-3.221-.82-1.641-2.169-2.616-4.018-2.83-.05-.145-.104-.289-.156-.433z" fill="#F3944E"/><path d="M14.651 4.866a17.093 17.093 0 00-3.691-3.303C10.395 1.192 9.745.945 9.27.436l.614-.164c1.398.72 2.62 1.691 3.78 2.74.493.448.952.936 1.411 1.42.125.133.369.271.134.514-.199.068-.392.085-.559-.08z" fill="#A83A8E"/><path d="M1.041 17.365c.816-.205 1.415.297 1.993.704 1.19.839 1.752 2.086 2.057 3.48.074.33-.062.619-.055.93a.927.927 0 01-.416-.337c-.182-1.069-.484-2.08-1.206-2.932-.446-.526-.99-.884-1.613-1.141-.194-.08-.402-.129-.563-.276a.723.723 0 01-.197-.428z" fill="#F49C53"/><path d="M20.8 21.827c-.29-.51-.168-1.092-.209-1.626-.09-1.186-.277-2.353-.494-3.517-.072-.387-.022-.768-.076-1.148-.134-.178-.132-.352.017-.52.291.009.378.232.43.454.428 1.826.77 3.666.777 5.553 0 .16-.02.316-.073.465l-.371.34z" fill="#AB398D"/><path d="M22.04 20.544l-.218.21c-.4.105-.33-.22-.343-.414a28.509 28.509 0 00-.756-4.876c-.204-.833-.395-1.674-.782-2.45-.076-.31-.118-.62.046-.916.379-.097.425.22.507.442.587 1.582.988 3.214 1.28 4.875.133.76.185 1.53.296 2.292.04.277.028.56-.03.837z" fill="#A13D8F"/><path d="M22.04 20.544c-.23-.452-.144-.958-.19-1.43-.216-2.278-.772-4.47-1.515-6.622-.056-.163-.117-.334-.29-.423-.243-.318-.243-.636-.001-.954.482.682.668 1.49.92 2.264.56 1.715.892 3.485 1.155 5.266.08.536.099 1.08.145 1.62a.446.446 0 01-.223.279z" fill="#9E3F90"/><path d="M12.646 24.997h-.423c-.206-.237-.178-.53-.145-.802.136-1.118.143-2.232.002-3.35-.031-.24-.046-.49.096-.714.166-.163.357-.16.558-.086.19.106.25.285.262.486.062 1.15.256 2.294.013 3.45-.08.363.07.786-.363 1.016z" fill="#DF5950"/><path d="M9.476 24.654c-.304-.055-.602-.125-.876-.277.107-1.31.166-2.617-.07-3.921-.027-.157-.023-.315.073-.456.282-.178.555-.205.809.055.302 1.53.336 3.062.064 4.599z" fill="#ED6D3B"/><path d="M4.812 2.736c.144-.186.333-.318.547-.414.269-.128.514.003.751.093 1.342.51 2.612 1.157 3.779 2 .165.118.436.201.304.51-.335.217-.692.243-1.067.125-.27-.62-.924-.745-1.418-1.061-.708-.455-1.5-.753-2.328-.935-.211-.047-.467-.057-.568-.318z" fill="#C1387A"/><path d="M1.238 17.794c1.296.226 2.204.973 2.812 2.12a5.99 5.99 0 01.633 1.778.662.662 0 01-.063.45l-.41-.347c-.161-.193-.229-.43-.302-.662a4.115 4.115 0 00-1.927-2.397 2.27 2.27 0 01-.423-.307 1.485 1.485 0 01-.32-.635z" fill="#F5A257"/><path d="M17.288 5.191c-1.45-2.043-3.273-3.705-5.273-5.188.28-.002.562-.003.842-.003.112.486.575.64.899.903 1.538 1.254 2.826 2.734 4.01 4.315.037.05.03.133.043.2-.238.078-.442.07-.52-.227z" fill="#954392"/><path d="M8.636 20.014c.266 1.17.21 2.357.212 3.543 0 .299-.009.594-.247.822a.628.628 0 01-.388-.136c-.12-.064-.2-.161-.17-.297.153-.697-.038-1.4.043-2.103.05-.432-.108-.866-.17-1.3-.038-.26-.113-.528.167-.713.226-.063.431-.065.553.184z" fill="#EE7138"/><path d="M10.221.216c.172-.056.34-.127.53-.099.856.353 1.537.97 2.258 1.524.907.697 1.694 1.529 2.475 2.362.221.236.562.458.455.884-.214.142-.384.084-.55-.099-1.47-1.608-3.057-3.076-4.933-4.206-.13-.08-.28-.164-.235-.366z" fill="#A13D8F"/><path d="M1.36 6.985c.054-.242.192-.44.333-.634.288-.23.6-.11.908-.061.833.13 1.649.326 2.43.654.263.11.518.233.557.568.003.164-.034.308-.191.391-.53.088-.967-.237-1.454-.346-.748-.167-1.487-.366-2.254-.43a.467.467 0 01-.328-.142z" fill="#D64F5C"/><path d="M21.172 21.487c-.183-.714-.084-1.45-.17-2.178-.156-1.32-.422-2.613-.692-3.908a.486.486 0 00-.275-.367c-.274-.434-.198-.882-.059-1.334.33-.148.32.131.38.31.374 1.114.63 2.258.818 3.412.174 1.083.35 2.171.35 3.277 0 .16-.011.314-.035.469a.776.776 0 01-.317.32z" fill="#A83B8E"/><path d="M15.918 4.862c-.107-.345-.352-.596-.59-.849-1.32-1.408-2.758-2.68-4.394-3.715-.07-.045-.123-.12-.184-.18.277-.042.549-.14.836-.101-.207.129-.14.25.022.346 1.042.622 1.933 1.44 2.823 2.247A15.365 15.365 0 0116.545 5c-.115.099-.246.089-.381.058-.106-.036-.196-.09-.247-.195z" fill="#9E3F90"/><path d="M.104 13.766c.114.112.114.328.362.318 1.814-.072 3.307.708 4.68 1.797.103.08.123.193.119.315-.048.251-.189.326-.417.211-.142-.07-.263-.176-.383-.28-1.082-.938-2.368-1.35-3.767-1.474-.175-.015-.355-.01-.491-.148-.068-.242-.138-.483-.103-.739z" fill="#EF7C3E"/><path d="M21.195 7.726c.544.577.75 1.335 1.037 2.039.805 1.976 1.447 4.006 1.834 6.11.035.19.056.43.285.536l-.11.322c-.133.183-.192.144-.261-.058-.146-.431-.203-.88-.29-1.321-.308-1.56-.797-3.064-1.334-4.555-.552-1.427-1.182-2.815-1.952-4.14-.113-.195-.177-.417-.265-.628l.072-.02c.463.492.704 1.115.984 1.715z" fill="#824997"/><path d="M9.476 24.654c-.243-.36.008-.72.003-1.078-.014-1.07.078-2.149-.181-3.205-.028-.117.004-.208.11-.268.16-.112.313-.1.46.026.215.225.197.527.222.798.106 1.139.148 2.28-.042 3.416-.035.208-.06.45-.383.342-.062-.012-.125-.021-.189-.031z" fill="#ED6A3B"/><path d="M3.96 3.48a1.38 1.38 0 01.445-.418c.247-.15.475-.004.702.06 1.145.326 2.216.829 3.245 1.425.17.099.397.168.41.43-.203.23-.46.309-.759.27C6.928 4.54 5.732 4.114 4.514 3.74c-.197-.06-.418-.072-.554-.26z" fill="#C63D73"/><path d="M12.647 4.858c-.958-.96-2.045-1.748-3.201-2.444a15.388 15.388 0 00-2.301-1.157c.155-.143.352-.202.543-.27.08.262.34.287.532.38 1.704.832 3.256 1.88 4.613 3.212.086.085.158.185.236.28-.14.131-.281.131-.422-.001z" fill="#B53486"/><path d="M.206 14.505c1.739-.014 3.273.528 4.58 1.694.127.113.286.37.383-.03.369.267.252.631.196.985-.489-.145-.697-.622-1.071-.904-1.185-.899-2.501-1.39-4.001-1.321a.583.583 0 01-.087-.424z" fill="#F08040"/><path d="M8.74 4.973c-1.326-.907-2.793-1.497-4.335-1.91a.995.995 0 01.405-.327c1.026.316 2.076.568 3.012 1.133.363.22.695.493 1.107.64.128.045.448.19.128.44-.097.115-.204.11-.316.024z" fill="#C43A77"/><path d="M5.04 10.375c0 .176 0 .353-.002.53-.153.12-.304.047-.445-.019-1.31-.607-2.69-.89-4.13-.89-.054 0-.101-.025-.148-.048-.021-.154.034-.29.1-.424.297-.422.743-.26 1.115-.233 1.124.08 2.194.408 3.228.853.117.051.2.14.283.23z" fill="#E36049"/><path d="M6.732 1.47c.137.26.408.32.645.417 1.569.644 2.93 1.622 4.255 2.657.109.085.185.21.275.315-.133.153-.3.139-.472.1-.997-.733-1.984-1.478-3.079-2.07-.525-.284-1.07-.507-1.611-.753-.204-.093-.438-.137-.564-.352.162-.147.336-.265.551-.315z" fill="#BC3282"/><path d="M.315 9.948c.859-.265 1.683.03 2.515.167.78.129 1.475.52 2.21.79v.525c-.27.09-.472-.088-.689-.186-1.05-.488-2.166-.7-3.304-.824-.284-.03-.553.08-.835.058-.03-.19.05-.357.103-.53z" fill="#E56146"/><path d="M5.038 11.854v.424c-.166.072-.311-.006-.452-.072-1.356-.632-2.757-1.054-4.276-.937a.362.362 0 01-.202-.05.87.87 0 01.085-.525c.31-.241.672-.167 1.01-.14a9.105 9.105 0 013.37.9c.19.092.37.194.465.4z" fill="#EA6641"/><path d="M8.126 19.9c-.341.452.091.885.047 1.343-.02.22.086.47.067.742-.054.748-.024 1.504-.027 2.257a1.138 1.138 0 01-.524-.212c-.122-.308-.059-.63-.05-.944.025-.974-.031-1.939-.256-2.891-.043-.18-.131-.377.042-.547.291-.082.561-.099.7.252z" fill="#EF773A"/><path d="M5.038 11.854c-1.513-.818-3.121-1.233-4.845-1.161l.018-.216c.28-.366.684-.23 1.018-.192 1.335.148 2.631.456 3.81 1.145v.424z" fill="#E76344"/><path d="M11.59 24.995c-.291.004-.585.035-.861-.1a.346.346 0 01.128-.128c.25-.092.24-.312.269-.522.145-1.125.143-2.25.014-3.375-.03-.257-.103-.524.028-.78a.387.387 0 01.457.01c.16.204.19.442.22.691.14 1.14.136 2.277.001 3.417-.033.282-.069.558-.256.787z" fill="#E35F49"/><path d="M.626 8.784c.5-.111 1-.017 1.49.041.797.095 1.571.335 2.323.622.319.121.699.227.605.716-.204.075-.376-.038-.548-.107-1.055-.427-2.137-.722-3.284-.748-.238-.005-.493-.018-.686-.203l.1-.32z" fill="#E05C4E"/><path d="M5.153 8.998A10.818 10.818 0 001.4 8.044c-.193-.01-.384-.01-.555.104.026-.194.107-.365.213-.526.177-.14.385-.165.6-.145 1.088.106 2.147.343 3.163.758.232.095.456.21.449.517-.009.098-.038.184-.116.246z" fill="#DC5655"/><path d="M10.535 24.874a.585.585 0 01-.422-.09c-.216-.518.016-1.037.025-1.554.014-.846.004-1.682-.111-2.52-.029-.203-.076-.42.063-.613a.39.39 0 01.474.006c.16.21.147.467.17.708a15.881 15.881 0 01-.018 3.525c-.022.19-.028.391-.181.538z" fill="#EA6641"/><path d="M.108 11.218c.932-.251 1.84-.083 2.738.173.76.216 1.503.49 2.192.887v.423c-1.534-.868-3.163-1.358-4.94-1.267l.01-.216z" fill="#EB673F"/><path d="M19.583 17.673c.282.536.245 1.137.335 1.708.133.843.138 1.7.119 2.554-.005.154-.029.32.135.424a1.454 1.454 0 01-.556.415c-.269-.382-.194-.825-.114-1.213.157-.766-.076-1.492-.13-2.232-.024-.338-.008-.7-.143-1.031.001-.273.048-.524.354-.625z" fill="#B63486"/><path d="M21.489 21.17c-.064-.694-.117-1.39-.19-2.081a28.12 28.12 0 00-1.104-5.289c-.018-.058-.097-.096-.149-.142-.191-.212-.191-.424 0-.636.447.572.528 1.285.704 1.95.47 1.775.78 3.581.867 5.422.007.158-.016.329.207.36-.045.194-.193.302-.335.415z" fill="#A43D8F"/><path d="M15.918 4.862c.07.031.14.06.21.092-.302.213-.593.306-.848-.07a20.988 20.988 0 00-2.743-2.67A18.803 18.803 0 0010.263.619C10.118.53 9.94.466 9.886.27c.098-.097.22-.056.335-.055.692.499 1.387.99 2.074 1.495 1.149.843 2.105 1.894 3.093 2.908.162.165.297.284.53.243z" fill="#A43C8F"/><path d="M17.396 24.028a.454.454 0 01-.316.124c-.12-.1-.142-.239-.144-.38-.02-1.277.012-2.555-.033-3.832.13-.216.3-.28.526-.147.177.276.227.584.228.904.003.896.001 1.793.001 2.688-.001.249-.005.496-.262.643z" fill="#C63C74"/><path d="M12.646 24.997c.24-.34.069-.771.169-1.076.23-.702.18-1.397.118-2.072-.052-.568.01-1.159-.18-1.712.147-.152.302-.137.463-.022.145.193.184.437.188.65.03 1.318.128 2.64-.087 3.952a.624.624 0 01-.142.28h-.53z" fill="#DC5655"/><path d="M7.516 19.675c-.09.556.193 1.06.224 1.603.053.92.14 1.838-.052 2.753l-.214-.097c-.274-.164-.272-.434-.243-.697.114-1.091-.023-2.157-.317-3.209-.063-.227-.169-.49.166-.62.205-.008.37.048.436.267z" fill="#EF7C3E"/><path d="M10.535 24.875c.146-1.581.147-3.162 0-4.742.114-.11.233-.105.356-.016.32.466.187 1.017.274 1.526.16.926-.022 1.845-.091 2.765a.686.686 0 01-.223.462l-.122.023c-.065-.006-.13-.011-.194-.018z" fill="#E76344"/><path d="M7.153 19.485c-.242.037-.205.184-.14.348.343.854.327 1.773.454 2.664.067.473-.262.956.008 1.435a.69.69 0 01-.423-.203c-.013-1.088.094-2.186-.211-3.253-.112-.387-.23-.772-.352-1.156-.035-.111-.056-.203.065-.27.296.012.553.078.6.435z" fill="#F08141"/><path d="M12.223 20.137c.154 1.62.13 3.24 0 4.859h-.422c-.114-.483-.001-.965.048-1.441a9.388 9.388 0 000-2.095c-.053-.446-.107-.895-.074-1.349.156-.111.306-.123.448.026z" fill="#E05C4D"/><path d="M2.706 4.86a.95.95 0 01.338-.416c.428-.158.823.05 1.213.15.74.192 1.465.447 2.16.775.191.09.394.165.393.43-.048.207-.196.278-.389.289-1.148-.42-2.285-.877-3.5-1.09a.325.325 0 01-.215-.138z" fill="#CD446A"/><path d="M6.18 1.783c1.83.618 3.45 1.613 4.961 2.798.095.073.16.185.238.278-.107.126-.243.123-.386.09-.834-.603-1.669-1.203-2.573-1.704a17.474 17.474 0 00-2.041-.95c-.19-.076-.417-.093-.528-.306a.534.534 0 01.33-.206z" fill="#BD3380"/><path d="M1.556 18.428c1.375.479 2.128 1.515 2.54 2.854.05.167.075.34.113.512a3.115 3.115 0 01-.746-.72c-.21-.799-.75-1.34-1.401-1.792a2.861 2.861 0 01-.506-.854z" fill="#F6A85B"/><path d="M16.345.61c-.057.369.231.54.445.726.984.857 1.713 1.928 2.481 2.965.3.405.657.784.761 1.307-.164.05-.202-.08-.27-.181-.291-.438-.59-.87-.89-1.303-.914-1.138-1.822-2.282-2.895-3.278-.126-.116-.273-.226-.272-.428.232.004.445.07.64.192z" fill="#824A97"/><path d="M19.298 18.223c.33.377.183.871.288 1.303.26 1.067.002 2.164.028 3.25-.056.039-.114.078-.17.12-.18.042-.207-.085-.22-.211-.102-1.045-.053-2.1-.178-3.144-.037-.31-.154-.618-.089-.938.056-.177.073-.393.34-.38z" fill="#B93384"/><path d="M15.919 24.56c-.104.03-.21.063-.314.094-.053-.096-.062-.202-.053-.308.104-1.241.123-2.483.004-3.725-.017-.175.008-.351.127-.498.12-.096.243-.1.37-.016.163.34.212.705.22 1.074.015.81.013 1.62 0 2.43-.006.352-.026.711-.354.948z" fill="#CE446A"/><path d="M5.169 8.817c.014-.231-.118-.323-.32-.404-1.218-.487-2.472-.796-3.794-.792l.199-.424c.74-.172 1.45.052 2.143.23.66.17 1.376.238 1.922.73.088.252.151.5-.15.66z" fill="#DA5457"/><path d="M10.218 4.872c-.758-.71-1.67-1.193-2.582-1.65-.728-.365-1.474-.716-2.279-.9a.541.541 0 01.311-.216c.908.09 1.67.566 2.46.955.8.392 1.545.88 2.259 1.415.14.106.373.177.222.438-.138.07-.27.072-.39-.042z" fill="#C0357C"/><path d="M13.173 24.997c.131-1.62.189-3.24 0-4.86.118-.115.24-.11.362-.006.093.116.113.259.125.395.131 1.433.173 2.864-.063 4.29-.011.068-.063.125-.108.178-.105.002-.21.003-.316.003z" fill="#DA5457"/><path d="M5.153 17.79c.783.74 1.067 1.738 1.365 2.723.303 1.002.21 2.042.22 3.072l-.317-.19c.287-1.267.023-2.471-.406-3.655a6.158 6.158 0 00-1.19-2.028c-.054-.06-.064-.159-.094-.24.254-.044.294.194.422.317z" fill="#F18845"/><path d="M5.474 7.526c-.004-.209-.142-.308-.312-.374-1.118-.437-2.26-.767-3.47-.801a.934.934 0 01.271-.434c.965-.015 1.884.232 2.79.524.357.115.76.168.997.524.014.239.034.482-.276.561z" fill="#D54D60"/><path d="M15.397 24.692c-.091.092-.207.09-.324.08-.122-.484-.091-.987-.022-1.458.14-.972-.083-1.927-.045-2.89.004-.104-.017-.21.04-.307.14-.122.289-.124.447-.037.108.67.22 1.338.181 2.023-.04.716.064 1.44-.117 2.15-.042.155-.063.31-.16.44z" fill="#D14866"/><path d="M3.555 3.883l.188-.195c.345-.133.655.03.967.124.89.267 1.755.595 2.582 1.023.185.096.392.174.428.422-.08.225-.246.301-.471.277-1.004-.56-2.073-.95-3.18-1.253-.214-.06-.52-.037-.514-.398z" fill="#C93F6F"/><path d="M2.306 5.397c.047-.07.093-.141.138-.212.36-.408.771-.094 1.128-.035.847.141 1.645.472 2.42.845a.53.53 0 01.265.247c.04.21-.051.329-.257.367-1.107-.428-2.226-.82-3.404-1.008a.389.389 0 01-.29-.204z" fill="#D14866"/><path d="M17.397 24.028c.094-.155.11-.326.104-.504-.042-1.252.102-2.509-.118-3.756.07-.177.194-.15.328-.09.192.228.22.518.23.788.041.993.068 1.986.018 2.98a.623.623 0 01-.142.384.746.746 0 01-.42.198z" fill="#C43B77"/><path d="M16.867 24.243l-.216.089c-.187-.083-.235-.247-.24-.43-.04-1.242.047-2.485-.064-3.726-.005-.053.034-.097.056-.145a.28.28 0 01.179-.088c.444.147.369.548.381.868.031.767.024 1.535.004 2.303-.01.378.105.769-.1 1.129z" fill="#C93F6F"/><path d="M14.651 24.866c-.245.04-.483.138-.739.107a.147.147 0 01.031-.17c.176-.12.217-.299.235-.5.103-1.135.172-2.268.014-3.405-.035-.256-.053-.527.099-.767.076-.073.162-.08.257-.045.296.33.317.752.296 1.146-.041.81-.062 1.618.008 2.428.031.354-.108.695-.122 1.046a.312.312 0 01-.079.16z" fill="#D54D60"/><path d="M19.081 18.524c.21 1.222.138 2.468.322 3.69.035.231-.21.471.04.68l-.348.235c-.201-.173-.165-.411-.167-.635-.013-1.083-.107-2.16-.217-3.237a.626.626 0 00-.06-.2c-.063-.345.09-.516.43-.533z" fill="#BD3382"/><path d="M2.307 5.397c1.073.205 2.143.424 3.153.858.19.082.396.14.538.306.04.194.015.344-.237.322-.97-.522-2.032-.751-3.101-.946-.211-.038-.415-.054-.569-.223a.565.565 0 01.216-.317z" fill="#D24A64"/><path d="M10.64 4.865c-.616-.639-1.384-1.063-2.143-1.49a16.511 16.511 0 00-2.829-1.269l.182-.119c1.787.517 3.34 1.483 4.831 2.56.11.079.185.207.275.313-.103.096-.209.096-.316.005z" fill="#BF347E"/><path d="M17.819 23.83c0-.995.006-1.992-.004-2.988-.005-.394-.047-.788-.223-1.151.02-.171.138-.173.266-.154.262.231.392.504.355.873-.05.483-.06.957.12 1.442.132.35.129.775-.045 1.131-.114.235-.057.486-.161.71l-.308.138z" fill="#C2397A"/><path d="M5.153 17.789l-.422-.318c-.65-.611-1.327-1.18-2.171-1.513-.688-.27-1.392-.439-2.137-.394l-.038-.205c1.96-.13 3.434.784 4.678 2.191.05.061.06.158.09.239z" fill="#F18745"/><path d="M7.685 5.27c-.539-.469-1.212-.672-1.853-.932a14.966 14.966 0 00-2.089-.651l.217-.21c1.327.252 2.546.794 3.74 1.402.119.06.202.186.302.28-.073.132-.168.2-.317.111z" fill="#C83D71"/><path d="M.525 9.104c1.562.11 3.1.331 4.519 1.058-.002.07-.002.14-.003.213-1.05-.35-2.073-.797-3.19-.91-.48-.05-.965-.126-1.436.06l.11-.421z" fill="#E15E4B"/><path d="M10.113 20.128c.066.68.14 1.358.195 2.038.06.74-.115 1.467-.149 2.201-.007.14-.031.278-.046.418-.158.006-.316.012-.448-.1.434-.131.297-.562.305-.8.041-1.257.16-2.524-.174-3.764.108-.092.214-.092.317.007z" fill="#EB673E"/><path d="M5.269 8.15c-.929-.325-1.862-.628-2.837-.796-.393-.068-.804.024-1.178-.157l.105-.212c1.22-.008 2.363.36 3.51.712.165.05.314.154.498.137.065.136.005.233-.098.316z" fill="#D85259"/><path d="M18.68 18.959c.379.327.232.802.276 1.195.108.984.101 1.983.14 2.976l-.32.192c-.211-.195-.158-.455-.154-.692a30.136 30.136 0 00-.136-3.512c.027-.1.055-.199.194-.16z" fill="#BE3380"/><path d="M6.248 6.259c-.97-.393-1.888-.914-2.973-1.014-.273-.026-.545-.13-.83-.06l.261-.325c1.31.19 2.581.506 3.727 1.208-.003.119-.068.18-.185.19z" fill="#D04668"/><path d="M3.555 3.883c.117.178.3.209.49.251 1.006.223 1.942.64 2.882 1.043.136.059.308.097.336.29-.021.138-.113.184-.238.183-1.096-.502-2.21-.954-3.396-1.204-.157-.034-.31-.066-.394-.223l.32-.34z" fill="#CA416D"/><path d="M18.66 23.39l-.213.117c-.221-.021-.234-.193-.217-.347.133-1.156-.038-2.296-.14-3.441a.755.755 0 01.044-.31c.044-.1.108-.173.225-.176.303.133.21.43.228.647.104 1.168.2 2.338.073 3.51z" fill="#C0357C"/><path d="M14.651 24.866v-.087c.21-.954.235-1.92.217-2.897-.011-.583-.237-1.16-.05-1.747.082-.075.167-.076.254-.01.105.97.248 1.937.118 2.919-.074.572.076 1.162-.118 1.727-.132.064-.269.117-.42.095z" fill="#D24A64"/><path d="M16.445 20.02c.2 1.23.07 2.469.106 3.703.005.208-.027.421.1.609l-.417.128c-.183-.196-.008-.396-.011-.594-.018-1.202.118-2.41-.121-3.605-.011-.052-.048-.092-.079-.134-.103-.002-.205-.002-.31-.003-.002-.031-.007-.06-.01-.092.244-.217.492-.213.742-.012z" fill="#CA416D"/><path d="M13.49 24.996c.13-1.619.189-3.24 0-4.858.091-.079.18-.076.266.01a.49.49 0 01.101.242c.138 1.49.22 2.98-.071 4.463-.01.052-.054.09-.085.133-.07.001-.14.006-.211.01z" fill="#D95259"/><path d="M13.701 24.983c.145-1.04.1-2.086.106-3.132.004-.575.02-1.15-.106-1.716.092-.079.182-.075.268.01.16.225.195.486.202.75.03 1.07.024 2.14 0 3.21-.007.286-.05.561-.259.78v.087l-.21.011z" fill="#D7515B"/><path d="M3.235 4.225c1.323.31 2.629.67 3.818 1.362-.038.172-.11.296-.318.22-.259-.432-.75-.453-1.145-.621-.815-.348-1.68-.551-2.543-.742a6.76 6.76 0 01.188-.219z" fill="#CC426C"/><path d="M18.221 19.333c.16 1.222.118 2.45.125 3.678.002.17-.056.356.1.497-.107.06-.212.123-.32.184-.123-.249-.138-.475.016-.736.206-.35.196-.802.045-1.109-.205-.417-.187-.822-.138-1.215.051-.404-.02-.729-.24-1.045.03-.261.2-.292.412-.254z" fill="#C1387B"/><path d="M2.091 5.714c1.188.176 2.359.417 3.458.928.115.054.232.08.236.234.041.09-.011.126-.086.147-.647-.44-1.394-.618-2.14-.764-.535-.104-1.072-.19-1.596-.343l.128-.202z" fill="#D34B62"/><path d="M11.801 20.137c.303 1.62.25 3.24 0 4.86l-.21-.003c.07-.784.206-1.56.213-2.35.008-.844-.094-1.677-.214-2.507.072-.071.142-.071.211 0z" fill="#E15D4B"/><path d="M15.397 24.692c-.021-.3-.011-.593.142-.87a.59.59 0 00.056-.357c-.115-.715-.053-1.426.002-2.139.03-.407-.37-.782-.103-1.213.063-.053.13-.06.2-.013l.02.024c.02.523-.01 1.041.059 1.568.128.989-.013 1.979-.168 2.96-.069.015-.14.027-.208.04z" fill="#CF4668"/><path d="M16.867 24.243c0-1.09.014-2.18-.008-3.269-.007-.339.052-.734-.32-.966.092-.263.254-.216.432-.099.22 1.41.053 2.83.107 4.243-.05.075-.125.098-.21.09z" fill="#C83F72"/><path d="M16.023 20.127c.391.274.297.715.301 1.075.014 1.086.097 2.176-.09 3.258a.42.42 0 01-.315.1c.145-.36.218-.732.212-1.125-.012-1.103.038-2.21-.108-3.308z" fill="#CC426C"/><path d="M22.356 10.799c.429.713.59 1.528.834 2.308a26.1 26.1 0 01.781 3.314c.017.099-.052.418.27.313a.807.807 0 01-.183.452c-.305-.825-.367-1.707-.584-2.554a43.064 43.064 0 00-.97-3.223c-.065-.2-.099-.407-.148-.61z" fill="#844996"/><path d="M2.062 19.284c.743.183 1.528 1.186 1.401 1.792-.539-.54-1.023-1.124-1.401-1.792z" fill="#F7AC5E"/><path d="M18.66 23.39c.02-1.29-.05-2.574-.208-3.854-.013-.107-.024-.207-.125-.27.005-.152.049-.256.232-.196.143.544.19 1.102.204 1.659.021.863.01 1.727.013 2.59l-.116.07z" fill="#BF357F"/><path d="M24.972 11.852c-.155-.203-.06-.435-.076-.655.105.209.091.432.076.655z" fill="#724F9B"/><path d="M13.597.102c-.069-.03-.138-.061-.208-.09.22-.013.443-.033.648.081l-.44.009z" fill="#8D4895"/><path d="M18.558 19.07l-.232.195-.106.068c-.138.085-.274.17-.412.253l-.217.103c-.07.027-.14.052-.208.079l-.411.14c-.154-.005-.304.003-.434.099L16.49 20l-.045.02c-.253 0-.51-.022-.751.081l-.2.013-.422.013-.211.004c-.104.076-.21.079-.317.003l-.21.001c-.142.103-.282.105-.423.002h-2.742c-.106.087-.212.07-.319-.002l-.317-.001-.422-.006c-.105-.003-.21-.006-.316-.007l-.39-.017c-.25-.103-.511-.086-.771-.089a.987.987 0 00-.511-.114l-.61-.225-.363-.19c-.2-.145-.4-.29-.598-.436-.544-.538-.921-1.182-1.189-1.895l-.195-.983-.023-.289-.035-2.016.042-4.868.017-.18c.106-.213.104-.439.1-.668l.098-.316c.09-.085.11-.192.107-.308.075-.167.15-.335.226-.501l.085-.147.213-.315.25-.302.185-.193.3-.26.319-.221c.07-.04.14-.078.211-.117l.422-.2.317-.11.739-.186c.105-.009.21-.016.316-.024.39.017.777-.007 1.161-.08l.422-.006c.106-.002.211-.003.317-.003l.422-.002.528-.001h1.161l.95.001.633.006.63.018c.275.1.562.07.848.07l.415.045.744.192c.175.076.35.151.522.227l.853.608c.535.546.887 1.202 1.142 1.915l.143.843c.03.424.06.848.087 1.271l.009 1.06.001.953v1.589l-.01 1.378-.015.501c-.104.722-.173 1.45-.438 2.139-.096.182-.19.365-.285.548l-.216.302c-.133.144-.267.29-.402.434l-.121.111z" fill="#fff"/><path d="M18.873 4.125c.387.26.526.71.803 1.053.117.144.16.352.358.428.056.136.25.238.105.424a8.644 8.644 0 01-1.266-1.905z" fill="#824997"/><path d="M20.14 6.032l-.106-.424a4.997 4.997 0 011.16 2.119c-.265-.462-.531-.923-.794-1.387-.07-.12-.119-.253-.26-.308z" fill="#824A97"/><path d="M10.851 20.135l.32.002c.159.43.177.888.194 1.329.04 1.008.045 2.02-.086 3.027-.037.284-.14.42-.428.378.255-1.579.255-3.158 0-4.736z" fill="#E56146"/><path d="M13.912 20.135l.422-.001c-.014.912.176 1.815.107 2.73a73.591 73.591 0 00-.107 1.675c-.015.28-.178.356-.422.348a22.53 22.53 0 000-4.752z" fill="#D64F5D"/><path d="M14.545 20.133l.317-.003c-.004.645.103 1.278.191 1.914.09.645-.052 1.285-.166 1.912-.049.27.178.653-.235.824-.045-.633.07-1.262.009-1.897-.089-.913.148-1.842-.116-2.75z" fill="#D34B62"/><path d="M18.463 16.63c-.04.285-.12.553-.318.774-.298-.136-.354-.419-.404-.695-.238-1.334-.857-2.55-1.13-3.915-.133.116-.125.284-.284.242-.169-.192-.135-.43-.128-.654.03-.992-.332-1.814-1.029-2.502-.136-.135-.278-.268-.349-.454-.218-.797-.833-1.33-1.309-1.952-.19-.25-.406-.484-.609-.727-.127-.152-.276-.272-.494-.255-.103-.003-.204-.003-.307-.011-.125-.032-.278-.022-.295-.208l1.158-.002c.076.023.145.06.214.097.822.73 1.445 1.625 2.055 2.528 1.428 2.12 2.435 4.434 3.097 6.903.077.271.124.548.132.83z" fill="#BE3580"/><path d="M18.65 14.608c.015.42.039.84-.044 1.257-.288-.032-.274-.284-.337-.474-.4-1.204-.805-2.403-1.337-3.561a21.717 21.717 0 00-3.177-4.97c-.131-.153-.34-.274-.273-.532.522-.136.896.052 1.204.49.42.595.971 1.103 1.115 1.862.127.255.385.388.56.6 1.023 1.664 1.898 3.392 2.288 5.328z" fill="#BA3384"/><path d="M13.492 6.35a21.357 21.357 0 013.145 4.53c.77 1.486 1.35 3.054 1.807 4.666.035.123.056.237.162.318-.022.26-.003.527-.141.764-.218-.7-.428-1.4-.655-2.095-.876-2.683-2.155-5.147-4.005-7.294-.25-.29-.49-.593-.736-.89a.405.405 0 01.422.002z" fill="#BD3381"/><path d="M9.676 18.655l-.046.011-.044-.02a1.077 1.077 0 01-.27-.446c-.539-1.599-1.445-2.969-2.585-4.195-.108-.117-.212-.236-.253-.395-.002-.188-.014-.376.008-.563.265-.204.417.026.574.167.565.507 1.025 1.109 1.46 1.726.67.955 1.155 2.009 1.553 3.102.072.2.224.421.014.636-.138.011-.275.03-.41-.023z" fill="#EA6641"/><path d="M16.374 13.023l.122-.332c.376.195.481.6.524.923.088.685.38 1.277.622 1.9.104.27.116.575.17.864.066.356.152.706.332 1.026-.208.176-.25.501-.535.611-.205-.224-.183-.523-.248-.79-.302-1.231-.568-2.471-1.177-3.6-.038-.232-.033-.452.19-.602z" fill="#C1377A"/><path d="M18.649 14.608c-.516-1.377-.986-2.773-1.698-4.066-.229-.414-.478-.817-.715-1.225.17-.164.368-.151.574-.095.464.315.623.85.846 1.31.387.802.841 1.587.999 2.487l-.006 1.59z" fill="#B53487"/><path d="M6.541 13.66c1.46 1.388 2.497 3.038 3.044 4.988-.297.009-.597.04-.877-.101.179-.218.15-.437.047-.684-.508-1.226-1.184-2.343-2.117-3.294-.074-.076-.152-.144-.165-.259.029-.217-.063-.446.068-.65z" fill="#EC693D"/><path d="M6.542 14.4c.482.117.65.576.912.903.671.842 1.16 1.799 1.55 2.804.116.301.012.434-.296.438l-.179-.03c-.308-.474-.425-1.035-.712-1.522-.385-.654-.87-1.232-1.297-1.853l-.011-.293c-.037-.152-.084-.306.033-.448z" fill="#ED6B3B"/><path d="M11.808 6.271c.086.097.202.074.311.08.83.611 1.413 1.446 2.014 2.262.075.102.087.232-.043.325-.38.014-.738-.045-1.042-.298-.253-.173.345.068.092-.213-.5-.555-1.093-1.013-1.58-1.574-.226-.26-.46-.413-.804-.368a.864.864 0 01-.377-.068c-.047-.031-.067-.073-.055-.13l1.484-.016z" fill="#C1387A"/><path d="M17.183 18.302c-.157.116-.328.189-.523.207-.21-1.29-.59-2.535-1.004-3.773.036-.27.13-.497.426-.574.125.05.183.162.224.28.4 1.13.761 2.27.944 3.46.023.147.03.278-.067.4z" fill="#C63D74"/><path d="M6.542 14.4c-.01.149-.02.297-.032.447a37.516 37.516 0 01.004-4.79c.072-.066.165-.089.24-.04.78.516 1.578 1.016 2.088 1.844a.562.562 0 01-.04.385c-.223.216-.385.03-.527-.104-.34-.32-.724-.59-1.053-.924-.145-.147-.287-.346-.546-.3-.007.043-.014.084-.017.126 0 .147.009.291.009.437.004.165.01.33.007.496-.006.176.01.351-.003.528.003.185-.007.367-.134.518v.635c.003.247.004.494.004.741z" fill="#DF5B51"/><path d="M6.521 15.14c.86.676 1.344 1.618 1.787 2.581.114.246.275.495.223.794-.231-.015-.434-.11-.625-.233-.315-.878-.929-1.586-1.362-2.397a131.18 131.18 0 01-.023-.744z" fill="#ED6E3B"/><path d="M18.653 13.02c-.316-.445-.41-.99-.662-1.466-.392-.736-.75-1.492-1.122-2.237.015-.287.195-.352.44-.332.532.916 1.082 1.825 1.346 2.87-.002.388-.002.777-.002 1.165z" fill="#B1368A"/><path d="M6.644 8.468c-.021-.158.064-.287.12-.422.143-.13.298-.09.436-.006.807.489 1.566 1.045 2.22 1.733.099.103.158.23.148.38-.031.164-.086.311-.267.362-.428-.164-.65-.576-.997-.84-.546-.413-1.113-.796-1.66-1.207z" fill="#D64F5D"/><path d="M7.8 6.777a.734.734 0 01.497-.226c.114-.056.209.007.29.064.822.576 1.603 1.2 2.276 1.953.083.094.153.194.152.328-.045.187-.179.247-.354.253-.398-.178-.619-.564-.95-.822-.538-.423-1.052-.879-1.635-1.246-.116-.075-.24-.15-.275-.304z" fill="#CE446A"/><path d="M6.644 8.468c.784.215 1.316.82 1.936 1.283.262.195.459.477.686.719.083.19-.009.294-.174.363-.392-.139-.65-.46-.96-.712-.505-.408-1.01-.815-1.584-1.126-.028-.188.04-.356.096-.527z" fill="#D8525A"/><path d="M18.653 11.855c-.439-.962-1.009-1.863-1.365-2.864-.042-.118.017-.201.096-.276.267-.158.397.035.487.225.262.548.639 1.04.78 1.645 0 .423 0 .846.002 1.27z" fill="#AC398D"/><path d="M17.183 18.302a19.417 19.417 0 00-1.142-4.113c-.063-.143.014-.215.133-.266.145-.014.232.062.28.19.485 1.293.93 2.598 1.044 3.991a.476.476 0 01-.315.198z" fill="#C43A77"/><path d="M9.476 10.15c-.171-.526-.65-.767-1.04-1.07-.516-.403-.986-.901-1.673-1.034.062-.197.113-.4.276-.544.024.008.046.018.07.027.73.486 1.454.977 2.123 1.546.247.211.553.396.543.791-.055.14-.062.334-.299.284z" fill="#D44D60"/><path d="M15.812 18.635c-.453.09-.91.11-1.37.072-.02-.048-.012-.088.03-.122a.489.489 0 01.133-.053c.091-.018.184-.02.277-.024.108-.012.225.005.312-.087.017-.592-.228-1.126-.356-1.685-.073-.322-.228-.63-.169-.976.058-.147.15-.245.32-.243.157.04.218.17.26.3.276.842.516 1.694.633 2.577a.304.304 0 01-.07.241z" fill="#CE456A"/><path d="M7.285 7.201a.402.402 0 01.252-.236c.47-.083.711.305 1.039.511.563.355 1.04.815 1.522 1.269.164.152.341.312.296.579-.04.114-.124.164-.242.158-.414-.18-.666-.562-.996-.843-.603-.513-1.316-.87-1.87-1.438z" fill="#D14866"/><path d="M16.55 18.527a.607.607 0 01-.417.091c-.246-1.14-.5-2.278-.89-3.38.023-.17.123-.257.286-.278.23 0 .277.185.332.346.327.938.555 1.903.76 2.874a.416.416 0 01-.07.347z" fill="#C9406F"/><path d="M6.544 15.885c.62.704 1.238 1.409 1.362 2.397-.954-.512-1.3-1.374-1.362-2.397z" fill="#EE723A"/><path d="M6.55 8.993c.078-.039.16-.072.244-.016.824.54 1.609 1.127 2.28 1.854.086.139.066.252-.083.33-.269.029-.405-.183-.57-.33-.602-.54-1.293-.965-1.886-1.515.006-.108.01-.215.014-.323z" fill="#DA5458"/><path d="M8.702 6.435c.247-.13.511-.104.774-.096.385.098.656.375.938.622.418.368.799.777 1.186 1.18.155.16.34.33.143.585-.098.095-.208.152-.347.096a8.879 8.879 0 00-2.542-2.25c-.06-.035-.12-.069-.152-.137z" fill="#C9406F"/><path d="M7.285 7.201c1.069.596 2.065 1.284 2.84 2.253-.011.16-.095.228-.253.205-.867-.804-1.783-1.544-2.81-2.137L7.04 7.5a.575.575 0 01.244-.3z" fill="#D24A63"/><path d="M18.65 10.584c-.335-.483-.593-1.009-.86-1.53-.077-.147-.097-.42-.39-.268-.223-.294-.153-.671-.286-.99a.345.345 0 01.03-.15c.343-.112.447.172.582.373.253.375.454.784.682 1.176.002.003.038-.005.041-.014.011-.032.017-.068.03-.102a.208.208 0 01.093-.094c.146.525.083 1.064.078 1.599z" fill="#A83C8F"/><path d="M10.322 9.303c-.329-.713-1.011-1.08-1.574-1.545-.363-.3-.73-.652-1.21-.793a.399.399 0 01.264-.188c1.065.625 2.026 1.379 2.84 2.315-.047.163-.117.289-.32.21z" fill="#D04668"/><path d="M13.492 6.35h-.423l-.101-.081c.888-.013 1.776-.082 2.66.066a.3.3 0 01-.197.127c-.252.013-.512.08-.677-.042.366.456.84.94 1.12 1.57-.02.272.042.564-.173.793-.172-.878-.839-1.448-1.324-2.131-.227-.317-.548-.328-.886-.301z" fill="#B63687"/><path d="M17.086 6.643c1.009.452 1.432 1.278 1.486 2.34l-.026.023c-.173.103-.263-.013-.332-.14-.328-.601-.713-1.166-1.088-1.74-.094-.144-.19-.31-.04-.483z" fill="#A23F90"/><path d="M17.5 18.104c-.317-1.24-.582-2.496-1.038-3.696-.067-.177-.076-.393-.322-.431-.116-.158-.048-.253.108-.318.062-.023.15-.075.18.009.515 1.416 1.035 2.832 1.182 4.349a5.669 5.669 0 00-.11.087z" fill="#C23979"/><path d="M11.696 8.667c.14-.227-.07-.314-.179-.43a20.304 20.304 0 00-2.04-1.898c.023-.021.049-.021.074 0 .125-.06.26-.038.391-.038.895.513 1.548 1.297 2.242 2.034.07.075.106.184.03.29-.164.128-.33.217-.518.042z" fill="#C83F72"/><path d="M8.703 6.435c.232.014.439.09.623.238.654.52 1.304 1.048 1.87 1.668.104.114.328.192.183.422-.037.157-.138.206-.288.168-.483-.775-1.208-1.3-1.896-1.866-.21-.174-.561-.24-.561-.614.02-.024.042-.028.069-.016z" fill="#CA426D"/><path d="M6.537 9.315c.812.356 1.42.995 2.098 1.536.108.086.214.178.32.267.102.133.092.251-.046.351-.534-.016-.758-.52-1.146-.766-.435-.277-.84-.623-1.239-.964l.013-.424z" fill="#DC5655"/><path d="M16.55 18.526a22.456 22.456 0 00-.765-3.093c-.048-.147-.03-.373-.276-.396-.076-.217.055-.285.231-.319.511 1.096.739 2.277 1.013 3.444.03.129-.033.239-.093.346-.036.007-.073.013-.11.018z" fill="#C83E71"/><path d="M17.085 6.643c.39.848.843 1.657 1.461 2.363v.656c-.338-.575-.619-1.039-.884-1.51-.12-.218-.26-.407-.48-.53-.294-.34-.704-.619-.633-1.161.18.06.358.12.537.182z" fill="#A53D8F"/><path d="M6.524 9.74c.508-.004.739.46 1.109.686.446.272.816.668 1.22 1.01.124.183.144.346-.097.452a6.969 6.969 0 00-2.242-1.83l.01-.319z" fill="#DD5853"/><path d="M8.635 6.45c.69.611 1.45 1.138 2.1 1.795.18.182.422.313.329.631-.023.038-.055.052-.099.04-.733-.967-1.71-1.656-2.666-2.368.091-.099.212-.103.336-.097z" fill="#CC426C"/><path d="M15.317 15.248c.332.33.312.8.443 1.204.187.574.281 1.18.432 1.768.04.154.01.271-.06.396l-.11.006c-.323-.427-.265-.966-.413-1.446-.174-.566-.28-1.154-.546-1.692-.035-.205.106-.225.254-.236z" fill="#CA426D"/><path d="M15.396 6.362l.232-.026.505.03c.326.332.71.636.63 1.185-.12.085-.252.092-.39.07-.531-.258-.826-.703-.978-1.26z" fill="#AC3A8D"/><path d="M15.096 15.464c.373.462.43 1.047.585 1.588.148.514.23 1.048.34 1.572l-.21.011c-.238-1.034-.385-2.093-.835-3.068-.022-.107.009-.152.12-.103z" fill="#CC426C"/><path d="M16.762 7.519l-.63-1.151a.588.588 0 01.419.093c.101.448.535.712.633 1.161l-.009.129c-.198.03-.336-.046-.413-.232z" fill="#A93E8F"/><path d="M9.676 18.655l.438-.03a.612.612 0 01.397-.132c.111-.009.224-.006.335-.002.136-.001.274-.002.412.002.082-.002.163-.002.245-.002.135-.008.27.006.407-.002.187-.002.373.004.56.007.105-.002.21.007.313.025a.48.48 0 01.146.058c.044.035.054.08.036.134-1.098.011-2.195.086-3.289-.058z" fill="#D8525B"/><path d="M12.965 18.713v-.072a.344.344 0 01.213-.124c.136-.024.273-.024.41-.023.136-.001.27-.001.404.003.11.001.218.008.323.044.052.02.094.053.126.1v.066l-1.476.006z" fill="#D34C65"/><path d="M10.011 6.36c-.153-.008-.307-.015-.46-.02.252-.105.514-.076.774-.053v.054c-.098.106-.204.079-.314.018z" fill="#C43B77"/><path d="M15.096 15.464c-.04.034-.08.07-.12.103l-.232.178c-.066.158-.218.222-.346.314a1.048 1.048 0 01-.175.106c-.104.045-.212.077-.318.117a29.71 29.71 0 01-.326.109c-.138.04-.279.065-.415.111a1.013 1.013 0 01-.148.033 3.508 3.508 0 01-.386.02c-.13.004-.263 0-.394-.012-.181-.018-.353-.093-.536-.103a2.975 2.975 0 01-.515-.147 12.686 12.686 0 01-.664-.332c-.124-.085-.25-.167-.375-.25-.719-.606-1.206-1.357-1.422-2.28-.036-.219-.124-.428-.124-.652-.003-.177.005-.352.13-.496l.027-.393c.097-.137.095-.295.097-.452.092-.087.106-.2.103-.319.092-.073.111-.176.118-.285l.193-.363c.07-.106.141-.212.211-.32.075-.094.15-.187.224-.282.05-.093.069-.213.21-.219l.215-.195.197-.151.318-.21c.108-.058.217-.116.325-.176.033-.012.065-.026.099-.04l.316-.114.317-.096.528-.093c.14-.148.322-.14.504-.137.122.013.239.04.316.148.36.104.72.205 1.08.308a.478.478 0 01.264.053c.169.107.402.135.46.378 1.141.97 1.654 2.204 1.526 3.701-.043.212-.083.424-.125.636l-.109.317-.097.212c-.101.177-.203.353-.303.53l-.23.32-.192.21c-.079.069-.152.14-.226.213z" fill="#fff"/><path d="M14.336 8.998a14.18 14.18 0 00-.213-.105c-.218-.55-.661-.935-1.014-1.384-.314-.398-.659-.773-.99-1.157h.317c.854.644 1.447 1.52 2.065 2.369.129.18.097.203-.165.277z" fill="#C0367D"/><path d="M14.336 8.998c.31-.14.055-.279-.018-.385-.562-.809-1.233-1.527-1.882-2.263.217-.03.37.08.498.235.653.797 1.362 1.55 1.907 2.432.065.106.169.198.009.304l-.514-.323z" fill="#BF357F"/><path d="M16.762 7.519l.413.232c.247.308.28.662.224 1.035l-.112.205-.42.326c-.21 0-.422 0-.633.002a1.812 1.812 0 01-.535-.532c-.024-.29-.046-.579.088-.851.005-.383.302-.372.558-.416.14-.002.277-.002.417-.001z" fill="#FFFEFF"/><path d="M10.535 18.632c-.14-.001-.28-.002-.42-.005-.612-2.014-1.605-3.801-3.112-5.283-.134-.131-.24-.312-.462-.32v-.53c.203-.14.33.02.455.13 1.728 1.536 2.838 3.464 3.539 5.65.036.117.069.238 0 .358z" fill="#E76344"/><path d="M12.75 8.565c-.176.003-.35.006-.527.007-.554-.627-1.12-1.243-1.784-1.758-.162-.126-.286-.302-.428-.456l.314-.02c.14.004.282.008.424.014.75.492 1.301 1.194 1.913 1.83.093.098.16.234.088.383z" fill="#C63D74"/><path d="M12.75 8.565c-.332-.64-.94-1.03-1.4-1.556-.196-.223-.401-.438-.603-.657.365-.038.632.041.884.379.442.591 1.124.957 1.56 1.583.215.31.03.251-.147.27a20.527 20.527 0 01-.294-.019z" fill="#C43B77"/><path d="M8.833 13.444a4.52 4.52 0 001.4 2.177c.544.777.797 1.678 1.084 2.565.05.154.082.31-.043.448h-.423c-.163-.151-.21-.36-.274-.56-.72-2.214-1.898-4.133-3.656-5.675-.144-.126-.303-.241-.381-.428v-.534c.118-.109.232-.046.327.027.746.568 1.437 1.194 1.966 1.98z" fill="#E35F49"/><path d="M6.541 11.97c.853.575 1.548 1.32 2.156 2.134 1.015 1.362 1.766 2.862 2.157 4.529-.105 0-.212 0-.318-.002-.49-1.45-1.076-2.859-1.995-4.098-.572-.768-1.168-1.524-1.999-2.04l-.001-.523z" fill="#E56246"/><path d="M8.833 13.444c-.715-.582-1.258-1.349-2.02-1.876-.083-.056-.182-.089-.273-.133v-.522c.157-.072.261.053.384.106a.79.79 0 01.114.08c.15.143.304.284.482.392.413.43.925.77 1.21 1.319.036.21.07.422.103.634z" fill="#E15D4B"/><path d="M8.73 12.81a9.539 9.539 0 01-1.255-1.27c-.192-.12-.33-.308-.527-.424-.142-.097-.27-.214-.407-.316.091-.307.252-.074.325-.014.476.381.936.782 1.4 1.178.144.121.242.31.463.318l.002.528z" fill="#E05B4E"/><path d="M6.541 10.799c.207.014.317.152.407.316-.178.014-.27-.141-.408-.203l.001-.113z" fill="#E05B4E"/><path d="M9.91 9.65l-.21.22c-.176-.593-.741-.809-1.15-1.168-.351-.308-.772-.534-1.15-.813-.132-.096-.336-.143-.338-.366.502-.003.827.364 1.179.627.6.445 1.234.863 1.669 1.5z" fill="#D34B62"/><path d="M14.213 16.05l.131-.059c.21-.13.308.034.355.175.261.801.544 1.598.58 2.453-.138.002-.276.006-.414.01-.376-.55-.35-1.227-.569-1.826-.087-.236-.226-.483-.083-.753z" fill="#D14766"/><path d="M13.583 16.3c.089-.09.201-.105.32-.105.184-.047.264.079.3.214.16.626.358 1.24.482 1.876.032.165.007.27-.138.348l-.106.008-.107-.01c-.39-.73-.426-1.578-.751-2.33z" fill="#D34C62"/><path d="M14.547 18.632c.107-.591-.189-1.113-.327-1.652-.064-.256.033-.629-.318-.784l.311-.144c.241.853.527 1.695.65 2.578l-.316.002z" fill="#D34C65"/><path d="M15.277 18.62c-.14-.574-.261-1.152-.426-1.718-.097-.335-.11-.736-.507-.91l.401-.247.587 2.345c.045.183.142.371-.055.53z" fill="#D04769"/><path d="M16.345 7.517c-.2.12-.415.22-.558.415-.392-.501-.783-1.002-1.226-1.572h.835c.348.36.493.886.95 1.157z" fill="#B2378A"/><path d="M11.178 16.166c.174.052.349.104.522.158.11.045.25.051.298.181.26.69.608 1.356.54 2.129h-.631c-.09-.057-.186-.113-.213-.224-.156-.614-.4-1.199-.587-1.803-.047-.153-.07-.314.07-.441z" fill="#DE5951"/><path d="M11.178 16.166c.122.859.558 1.623.729 2.468h-.421c-.38-.846-.593-1.756-.98-2.6-.032-.067-.008-.136.038-.194l.634.326z" fill="#E05C4E"/><path d="M12.539 18.632c-.179-.595-.355-1.19-.538-1.784-.06-.196-.111-.402-.301-.525l.525.096c.49.658.767 1.376.632 2.213h-.318z" fill="#DC5655"/><path d="M12.857 18.632c-.093-.77-.369-1.49-.632-2.213l.42.007c.39.562.523 1.215.644 1.87.024.126-.03.242-.116.338l-.21.005c-.034-.001-.07-.004-.106-.007z" fill="#DA5457"/><path d="M10.544 15.841c.32.93.781 1.81.942 2.793h-.211c-.172-.847-.491-1.64-.84-2.424-.085-.19-.228-.36-.202-.588.105.072.207.146.311.219z" fill="#E25E4B"/><path d="M13.068 16.407c.02-.024.043-.026.069-.006.18-.067.374-.078.456.12.259.633.464 1.282.5 1.975.002.05-.043.094-.074.137l-.42.001c-.28-.719-.64-1.417-.531-2.227z" fill="#D64F5D"/><path d="M13.068 16.406c.122.756.492 1.45.529 2.226-.14 0-.282 0-.422.002.014-.588-.224-1.113-.396-1.656-.056-.18-.088-.368-.132-.552l.42-.02z" fill="#D8525B"/><path d="M14.018 18.632c-.083-.64-.283-1.253-.46-1.87-.062-.217-.152-.393-.421-.361.133-.102.291-.098.447-.1.377.056.255.429.328.628.201.544.381 1.11.422 1.702l-.316.001z" fill="#D54D60"/><path d="M12.65 15.016c-.221.02-.443.048-.643-.083-.397-.93-.91-1.79-1.516-2.596-.115-.154-.248-.3-.307-.492.047-.226.116-.44.266-.622.18-.13.306-.004.401.113.8.98 1.471 2.04 1.966 3.207.085.196.163.414-.167.473z" fill="#D7505C"/><path d="M11.694 10.16c.113-.118.26-.117.408-.117l.075.023c.982 1.125 1.652 2.44 2.273 3.785.035.078.043.171.003.257a.675.675 0 01-.318.326c-.199-.114-.256-.327-.347-.512-.546-1.139-1.135-2.25-1.926-3.243-.114-.147-.26-.298-.168-.519z" fill="#CD446A"/><path d="M10.184 11.845c.795.713 1.253 1.657 1.728 2.585.075.146.3.294.093.503-.21.028-.377-.056-.529-.19-.542-.658-.977-1.384-1.358-2.142-.008-.256-.065-.514.066-.756z" fill="#DA5458"/><path d="M13.91 14.603c-.053.072-.114.124-.212.098-.191-.053-.264-.219-.335-.377-.538-1.202-1.225-2.313-2.005-3.37-.107-.145-.288-.274-.204-.503.038-.025.078-.05.115-.076.207-.12.327.021.438.158.92 1.134 1.642 2.389 2.222 3.728.05.111.078.231-.02.342z" fill="#D14866"/><path d="M13.91 14.602c-.545-1.528-1.433-2.856-2.409-4.131-.044-.058-.153-.066-.232-.098a.615.615 0 01.425-.213c.845 1.185 1.644 2.397 2.23 3.738.077.175.14.357.21.535-.052.086-.12.151-.225.17z" fill="#D04668"/><path d="M11.154 10.45a20.666 20.666 0 012.544 4.251c-.102.046-.207.09-.31.134-.385-.358-.472-.884-.721-1.32-.495-.869-1.04-1.7-1.637-2.5-.073-.098-.16-.187-.169-.32.06-.127.165-.2.293-.245z" fill="#D24A64"/><path d="M12.65 15.016c.122-.094.153-.188.083-.353-.515-1.217-1.23-2.31-2.052-3.335-.048-.059-.152-.07-.23-.104l.213-.312c.163-.043.277.053.36.163.825 1.094 1.623 2.204 2.12 3.496.043.115.094.23.028.355a.756.756 0 01-.522.09z" fill="#D54D60"/><path d="M13.173 14.926c-.5-1.32-1.292-2.468-2.108-3.602a1.566 1.566 0 00-.4-.412.339.339 0 01.198-.215c.682.579 1.094 1.367 1.548 2.107.39.637.8 1.284.978 2.033-.041.104-.128.097-.216.089z" fill="#D34B62"/><path d="M14.872 13.365l-.076.206c-.317.037-.35-.244-.436-.425-.435-.9-.933-1.761-1.5-2.584-.133-.192-.266-.37-.52-.394a1.296 1.296 0 01-.207-.103l-.03-.024c.324-.128.647-.131.969.005.622.469.905 1.185 1.302 1.816.176.281.322.583.443.893.073.192.152.397.055.61z" fill="#C93F6F"/><path d="M13.491 10.168c1.133.448 1.775 1.645 1.494 2.782-.544-.835-.956-1.746-1.503-2.58-.04-.059-.024-.135.01-.201z" fill="#C74075"/><path d="M12.33 10.061c.296-.069.44.12.583.33.571.855 1.114 1.727 1.546 2.664.085.185.137.402.337.517-.047.16-.108.309-.248.412-.485-.904-.938-1.825-1.468-2.708-.245-.407-.668-.705-.75-1.215z" fill="#CA416D"/><path d="M12.33 10.062c.857 1.062 1.51 2.25 2.103 3.473.069.144.125.288.115.45l-.097.123c-.647-1.42-1.456-2.746-2.319-4.04.066-.002.132-.005.199-.006z" fill="#CC426B"/><path d="M13.492 10.169c.533.907 1.15 1.77 1.491 2.781-.001.148.003.298-.112.415-.178-.815-.653-1.486-1.063-2.186-.226-.389-.491-.756-.739-1.133.156-.009.3.02.422.123z" fill="#C83F72"/><path d="M10.12 8c.557.647.993 1.372 1.358 2.141-.888-.435-1.34-1.15-1.358-2.141z" fill="#DC5857"/><path d="M6.948 11.117c.267.026.397.226.527.423-.267-.026-.396-.227-.527-.423z" fill="#E05B4E"/></svg><svg fill="none" viewBox="0 0 32 31" id="icon-layout-rules" xmlns="http://www.w3.org/2000/svg"><path d="M.007 15.547C.007 7.668 5.935 1.16 13.993.13c8.685-1.11 16.77 4.951 17.877 13.402 1.114 8.511-5.059 16.23-13.865 17.345-3.272.414-6.323-.238-9.179-1.785-.482-.26-.763-.215-1.107.165-.41.452-.866.867-1.318 1.282-.614.565-1.472.585-2.012.066-.54-.518-.529-1.36.056-1.946.78-.78 1.58-1.543 2.378-2.306.755-.72 1.248-.792 2.161-.244 1.64.985 3.355 1.784 5.28 2.053 3.693.515 7.043-.359 9.929-2.61 4.872-3.803 6.439-9.815 3.833-15.316-2.242-4.738-6.209-7.267-11.624-7.516-6.444-.295-12.164 4.188-13.38 10.242-.628 3.133-.166 6.123 1.472 8.917.123.21.26.41.382.621.404.699.233 1.455-.412 1.85-.667.407-1.398.247-1.9-.434-.51-.69-.913-1.44-1.252-2.22-.863-1.985-1.377-4.044-1.305-6.15z" fill="#E25D23"/><path d="M17.385 17.462c0 .985.006 1.97-.002 2.957-.008.951-.6 1.6-1.42 1.577-.821-.022-1.355-.623-1.36-1.569-.008-1.99-.008-3.982 0-5.973.004-.973.574-1.595 1.414-1.575.806.017 1.356.64 1.366 1.567.01 1.006.002 2.012.002 3.016zM16.015 11.669c-.76.01-1.408-.597-1.405-1.31.003-.71.67-1.35 1.396-1.341.74.01 1.379.644 1.372 1.361-.008.69-.632 1.28-1.363 1.29z" fill="#E25D23"/></svg><svg viewBox="0 0 384 384" id="icon-menu" xmlns="http://www.w3.org/2000/svg"><path d="M0 277.333h384V320H0zM0 170.667h384v42.667H0zM0 64h384v42.667H0z"/></svg><svg viewBox="0 0 8 5" id="icon-menu-arrow" xmlns="http://www.w3.org/2000/svg"><path d="M1.143 0L4 2.732 6.857 0 8 .546 4 4.371 0 .546 1.143 0z"/></svg><svg fill="none" viewBox="0 0 20 20" id="icon-telegram" xmlns="http://www.w3.org/2000/svg"><path d="M10.006 0A9.966 9.966 0 0120 10.017 9.967 9.967 0 019.972 20 9.967 9.967 0 010 10.004 9.964 9.964 0 0110.006 0zm5.02 6.373c-.002-.434-.195-.607-.558-.55-.141.022-.278.076-.412.128a3139.82 3139.82 0 00-6.512 2.511c-.754.292-1.505.595-2.253.903-.144.059-.313.153-.301.334.011.183.193.244.343.292.632.207 1.263.413 1.902.598.235.068.36.186.432.423.231.76.484 1.514.733 2.268.157.478.409.546.783.208.29-.262.584-.522.843-.813.217-.243.38-.263.643-.054.588.468 1.2.906 1.81 1.348.557.402.864.287 1.008-.379.351-1.623.694-3.248 1.04-4.873l.5-2.344z" fill="#179CD1"/><path d="M15.026 6.373l-.499 2.344c-.346 1.624-.69 3.25-1.04 4.873-.145.666-.45.78-1.008.379-.61-.44-1.222-.88-1.81-1.348-.262-.209-.426-.19-.643.054-.26.29-.554.551-.843.813-.374.338-.626.27-.783-.208-.25-.755-.502-1.508-.733-2.268-.072-.237-.197-.355-.432-.423-.639-.185-1.27-.392-1.902-.598-.15-.048-.332-.108-.343-.292-.012-.181.157-.275.301-.334.748-.308 1.499-.61 2.253-.903 2.17-.84 4.341-1.676 6.512-2.51.134-.053.27-.106.412-.13.361-.056.556.117.558.55zm-6.37 6.475a3.39 3.39 0 00.111-.008c.032-.28.1-.561.09-.84-.014-.441.15-.754.483-1.046 1.236-1.087 2.449-2.199 3.666-3.306.084-.075.272-.148.162-.296-.08-.11-.217-.002-.31.056-1.576.99-3.152 1.981-4.726 2.975-.123.078-.246.153-.183.342.24.706.473 1.415.708 2.123z" fill="#FDFEFF"/><path d="M8.657 12.848c-.235-.708-.468-1.417-.708-2.124-.063-.188.062-.264.183-.341 1.574-.993 3.149-1.986 4.726-2.974.093-.058.23-.165.31-.056.11.147-.078.22-.162.296-1.217 1.107-2.43 2.22-3.666 3.306-.332.292-.496.604-.483 1.046.009.279-.057.56-.09.84-.037 0-.073.004-.11.007z" fill="#179CD1"/></svg><svg fill="none" viewBox="0 0 20 20" id="icon-topline-call" xmlns="http://www.w3.org/2000/svg"><circle cx="9.5" cy="9.5" r="8.5" fill="#fff"/><path fill-rule="evenodd" clip-rule="evenodd" d="M17.067 2.931c-3.908-3.908-10.236-3.908-14.14 0C-.829 6.688-.97 12.7 2.507 16.628l.105.083c-.378.814-1.027 1.82-2.057 2.327-.34.167-.262.673.113.731 1.127.175 2.743-.02 4.252-1.16l.02.016c3.833 2.253 8.845 1.738 12.137-1.554 3.899-3.904 3.899-10.238-.009-14.141l-.001.001zm-3.774 11.348c-.22.225-.454.433-.66.665-.303.341-.686.448-1.119.424-.631-.034-1.218-.246-1.778-.52a9.662 9.662 0 01-3.213-2.514c-.66-.786-1.204-1.642-1.567-2.61-.173-.47-.3-.948-.262-1.455.025-.312.142-.578.37-.799.249-.236.482-.481.727-.722.32-.316.72-.313 1.04 0 .2.196.39.39.586.586.191.192.382.377.57.57.332.336.332.726 0 1.063-.237.241-.474.482-.72.716-.061.062-.07.112-.037.191.158.382.391.723.65 1.04.518.64 1.108 1.21 1.815 1.65.15.096.316.163.474.25.08.045.137.03.2-.037.236-.246.482-.487.722-.728.32-.315.719-.315 1.036 0 .39.386.778.774 1.163 1.164.333.342.333.74.004 1.069l-.001-.003zM9.607 7.82l.124-.89c.86.12 1.643.511 2.257 1.127a3.918 3.918 0 011.105 2.133l-.885.153a3.041 3.041 0 00-.856-1.65 3.039 3.039 0 00-1.745-.873zm4.933 2.37a5.67 5.67 0 00-1.583-3.06c-.88-.88-2-1.438-3.234-1.612l.124-.89a6.515 6.515 0 013.741 1.865 6.57 6.57 0 011.838 3.543l-.885.154h-.001z" fill="#E25D23"/></svg><svg fill="none" viewBox="0 0 21 20" id="icon-topline-clock" xmlns="http://www.w3.org/2000/svg"><path fill-rule="evenodd" clip-rule="evenodd" d="M17.78 2.93C13.71-.977 7.116-.977 3.05 2.93-.865 6.688-1.013 12.7 2.611 16.627l.108.083c-.395.815-1.07 1.82-2.144 2.328-.355.166-.272.673.117.731 1.174.174 2.859-.021 4.43-1.16l.021.017c3.993 2.252 9.216 1.738 12.644-1.555 4.062-3.903 4.062-10.238-.007-14.14z" fill="#E25D23"/><path d="M15 10c.04 2.73-2.27 5.009-5.014 5C7.284 14.991 4.98 12.756 5 9.986A5.002 5.002 0 0110.01 5c2.751-.015 5.031 2.282 4.99 5zm-4.996 3.761c2.036.01 3.737-1.664 3.769-3.677a3.782 3.782 0 00-3.654-3.85c-2.146-.062-3.853 1.66-3.88 3.66-.028 2.171 1.626 3.857 3.765 3.867z" fill="#fff"/><path d="M10.52 8.167l.001.816c0 .049-.027.116.03.141.054.025.094-.033.135-.06.167-.112.33-.23.5-.338.284-.183.582-.135.753.115.172.251.107.547-.172.741-.474.33-.952.653-1.427.98-.18.124-.372.158-.569.058-.203-.104-.287-.286-.286-.513.002-.907-.001-1.815.001-2.722.001-.339.207-.553.518-.553.31 0 .513.219.516.558.002.258 0 .518 0 .777z" fill="#fff"/><path d="M15 10c.04 2.73-2.27 5.009-5.014 5C7.284 14.991 4.98 12.756 5 9.986A5.002 5.002 0 0110.01 5c2.751-.015 5.031 2.282 4.99 5zm-4.996 3.761c2.036.01 3.737-1.664 3.769-3.677a3.782 3.782 0 00-3.654-3.85c-2.146-.062-3.853 1.66-3.88 3.66-.028 2.171 1.626 3.857 3.765 3.867z" stroke="#fff" stroke-width=".3"/><path d="M10.52 8.167l.001.816c0 .049-.027.116.03.141.054.025.094-.033.135-.06.167-.112.33-.23.5-.338.284-.183.582-.135.753.115.172.251.107.547-.172.741-.474.33-.952.653-1.427.98-.18.124-.372.158-.569.058-.203-.104-.287-.286-.286-.513.002-.907-.001-1.815.001-2.722.001-.339.207-.553.518-.553.31 0 .513.219.516.558.002.258 0 .518 0 .777z" stroke="#fff" stroke-width=".3"/></svg><svg fill="none" viewBox="0 0 21 20" id="icon-topline-mail" xmlns="http://www.w3.org/2000/svg"><circle cx="10.5" cy="10.5" r="8.5" fill="#fff"/><path fill-rule="evenodd" clip-rule="evenodd" d="M10.227 8.96c.536 0 1.097.4 1.097 1.115s-.563 1.104-1.097 1.104c-.548 0-1.098-.389-1.098-1.104 0-.715.548-1.115 1.098-1.115zm.078-4.039c-2.94 0-5.29 2.282-5.29 5.092 0 2.82 2.35 5.078 5.29 5.078a5.475 5.475 0 003.213-1.04l-.954-.916a3.987 3.987 0 01-2.26.703c-1.855 0-3.853-1.304-3.853-3.811 0-2.508 1.998-3.851 3.854-3.851 1.803 0 3.868 1.291 3.868 3.712v.276c0 1.104-.328 1.279-.693 1.279-.378 0-.64-.276-.64-.778V7.493h-1.084l-.104.514c-.392-.363-.941-.589-1.594-.589-1.53 0-2.586 1.19-2.586 2.659 0 1.468 1.057 2.646 2.586 2.646.77 0 1.397-.314 1.828-.803l.065.139c.314.376.797.602 1.502.602 1.373 0 2.157-1.028 2.157-2.508V9.84c0-2.733-2.404-4.916-5.305-4.916V4.92zm7.476-1.99C13.71-.978 7.115-.978 3.049 2.93c-3.913 3.757-4.06 9.768-.437 13.696l.108.083c-.395.815-1.07 1.82-2.144 2.328-.355.166-.272.673.117.731 1.174.174 2.859-.021 4.43-1.16l.021.017c3.993 2.252 9.216 1.738 12.644-1.555 4.062-3.903 4.062-10.238-.007-14.14z" fill="#E25D23"/></svg><svg fill="none" viewBox="0 0 19 20" id="icon-viber" xmlns="http://www.w3.org/2000/svg"><path d="M18.424 8.17c-.008 1.12.007 2.304-.289 3.456-.703 2.745-2.625 4.154-5.255 4.77-1.549.362-3.126.351-4.701.298-.403-.014-.67.105-.924.41-.73.876-1.483 1.732-2.235 2.589-.13.147-.252.39-.5.278-.216-.096-.127-.336-.127-.516-.002-.99.001-1.977.015-2.967.004-.266-.026-.449-.322-.575C1.649 14.88.38 12.99.14 10.385.006 8.945-.077 7.491.106 6.057.474 3.161 2.158 1.3 4.933.57c2.887-.759 5.838-.774 8.722.038 3.211.904 4.928 3.458 4.8 6.877-.008.21-.02.419-.031.685zM3.609 5.382c.012.32.118.682.265 1.035 1.423 3.405 3.863 5.806 7.187 7.34 1.226.567 2.434.124 3.019-1.108.293-.616.226-1.04-.293-1.469a16.912 16.912 0 00-1.462-1.084c-.828-.54-1.287-.472-1.922.276-.28.329-.559.394-.946.216-.98-.45-1.754-1.118-2.266-2.075-.41-.767-.378-.935.257-1.513.524-.477.586-.77.275-1.404-.337-.688-.8-1.29-1.33-1.837-.246-.254-.53-.417-.903-.4-.956.05-1.874.998-1.881 2.023zm10.986 2.137c-.14-1.602-.924-2.987-2.217-3.862-.835-.567-1.747-.895-2.773-.862-.297.01-.474.145-.507.426-.035.288.175.398.415.448.129.027.263.035.393.055 2.092.312 3.23 1.365 3.67 3.405.051.24.063.489.101.732.047.302.072.66.494.63.409-.03.413-.377.424-.689.002-.093 0-.189 0-.283zm-1.483.1c.027-1.753-1.534-3.36-3.282-3.4-.27-.007-.493.068-.545.377-.05.3.091.466.383.525.185.038.369.084.55.136.691.193 1.323.469 1.657 1.173.189.4.278.827.344 1.256.048.317.13.567.518.515.364-.049.348-.344.375-.582zm-1.425-.195c0-.756-.74-1.581-1.512-1.685-.322-.042-.641-.01-.73.36-.095.386.229.471.508.538.477.113.758.393.828.886.044.306.166.576.537.515.325-.053.381-.326.369-.614z" fill="#634A99"/><path d="M3.608 5.382c.008-1.025.926-1.973 1.881-2.02.376-.019.66.143.904.399.53.55.992 1.149 1.33 1.837.311.633.249.927-.275 1.404-.635.578-.667.746-.257 1.513.512.957 1.285 1.624 2.265 2.075.388.178.669.112.947-.216.635-.748 1.094-.816 1.922-.276.507.332.994.699 1.462 1.084.52.428.586.85.293 1.469-.584 1.231-1.793 1.674-3.02 1.108-3.324-1.534-5.764-3.937-7.184-7.342-.15-.353-.254-.714-.268-1.035zM14.595 7.52c0 .094.003.188 0 .284-.01.312-.015.657-.424.688-.422.03-.447-.327-.494-.629-.038-.243-.05-.491-.102-.732-.437-2.04-1.575-3.093-3.669-3.405-.13-.02-.264-.028-.393-.055-.24-.052-.449-.16-.415-.448.033-.281.21-.417.507-.426 1.026-.033 1.937.295 2.773.862 1.293.875 2.075 2.259 2.217 3.86z" fill="#FDFDFE"/><path d="M13.112 7.62c-.027.237-.01.532-.375.581-.388.052-.471-.198-.518-.514-.066-.43-.154-.857-.344-1.256-.334-.705-.966-.98-1.657-1.174a7.84 7.84 0 00-.55-.135c-.29-.06-.432-.226-.383-.526.051-.309.275-.383.545-.377 1.747.04 3.31 1.645 3.282 3.4z" fill="#FDFDFE"/><path d="M11.687 7.425c.012.287-.044.558-.37.613-.37.061-.492-.208-.536-.514-.07-.494-.35-.774-.828-.886-.28-.066-.603-.151-.509-.54.09-.368.41-.401.731-.359.772.104 1.51.93 1.512 1.686z" fill="#F8F9FB"/></svg><svg fill="none" viewBox="0 0 25 25" id="icon-vk" xmlns="http://www.w3.org/2000/svg"><path d="M12.497 0C19.399-.001 25.004 5.606 25 12.508 24.996 19.41 19.383 25.01 12.479 25 5.597 24.99.007 19.398 0 12.515-.007 5.612 5.595.001 12.497 0zm1.08 11.003h.021c0-.39.002-.781 0-1.17-.005-.855-.203-1.092-1.039-1.132a26.96 26.96 0 00-2 .002c-.309.008-.616.082-.871.275-.216.163-.373.318.052.427.344.089.552.339.613.689.154.89.168 1.783-.011 2.667-.111.545-.426.636-.82.255a4.192 4.192 0 01-.528-.635 13.847 13.847 0 01-1.481-2.74c-.134-.33-.352-.554-.723-.556-.764-.005-1.53-.015-2.293.014-.483.018-.612.241-.414.68.918 2.034 1.941 4.01 3.343 5.764 1.411 1.767 3.232 2.614 5.508 2.433.43-.034.649-.226.66-.672.007-.274.05-.553.123-.817.2-.725.621-.85 1.155-.33.408.395.78.829 1.177 1.236.301.31.654.584 1.092.593.909.02 1.82.02 2.727-.046.517-.036.663-.415.419-.887a3.818 3.818 0 00-.658-.905c-.51-.524-1.039-1.03-1.55-1.555-.423-.434-.456-.714-.118-1.208.311-.456.658-.888.987-1.332.504-.679 1.036-1.343 1.355-2.136.237-.589.071-.826-.56-.83-.782-.006-1.564.042-2.343-.004-.574-.033-.85.201-1.048.713-.44 1.126-1.028 2.175-1.833 3.088-.157.178-.333.406-.613.294-.257-.103-.311-.374-.32-.616-.021-.517-.008-1.038-.008-1.559z" fill="#4E77A3"/><path d="M13.578 11.003c0 .521-.013 1.042.005 1.562.009.242.062.511.319.616.281.113.457-.116.613-.295.805-.913 1.394-1.96 1.833-3.087.199-.513.474-.747 1.048-.713.779.046 1.561-.002 2.343.003.631.005.795.242.56.83-.32.794-.85 1.458-1.355 2.136-.33.445-.675.877-.987 1.333-.337.493-.305.773.119 1.208.51.524 1.04 1.03 1.55 1.555.261.268.484.572.657.905.244.472.098.85-.42.887a28.87 28.87 0 01-2.726.046c-.438-.01-.79-.284-1.091-.593-.398-.409-.769-.841-1.178-1.237-.534-.517-.954-.395-1.155.33a3.469 3.469 0 00-.122.817c-.012.447-.23.638-.66.672-2.277.18-4.099-.667-5.51-2.432C6.024 13.79 5 11.816 4.082 9.782c-.198-.44-.069-.662.414-.68.764-.03 1.53-.02 2.294-.014.371.002.588.224.723.556.39.969.884 1.883 1.48 2.74.158.225.331.445.529.635.395.38.708.29.82-.255.179-.884.165-1.778.01-2.667-.06-.352-.269-.6-.613-.69-.423-.108-.266-.263-.052-.426.256-.193.563-.267.872-.275a26.96 26.96 0 012-.003c.836.04 1.034.278 1.04 1.132.002.39 0 .781 0 1.17-.007-.002-.014-.002-.02-.002z" fill="#FEFEFE"/></svg><svg fill="none" viewBox="0 0 20 21" id="icon-whatsapp" xmlns="http://www.w3.org/2000/svg"><path d="M.684 19.48c.363-1.083.712-2.155 1.088-3.217.101-.287.072-.492-.098-.748C-2.38 9.432 1.322 1.152 8.56.103 14-.686 19.134 3.148 19.899 8.571a10.011 10.011 0 01-8.445 11.315c-2.359.352-4.58-.105-6.623-1.346-.25-.152-.45-.169-.718-.08-1.034.346-2.077.668-3.116.998-.085.026-.163.083-.313.023zm3.52-12.13c-.022.554.136 1.1.363 1.63.378.88.957 1.634 1.54 2.383 1.649 2.113 3.752 3.527 6.383 4.126.408.093.82.151 1.235.054 1.574-.364 2.276-1.162 2.294-2.517.003-.219-.06-.372-.265-.47-.751-.354-1.5-.718-2.249-1.078-.337-.162-.6-.072-.812.225-.197.275-.394.55-.603.815-.302.384-.495.435-.948.253-1.682-.676-2.925-1.852-3.856-3.385-.134-.22-.116-.414.05-.605.215-.243.434-.484.639-.737.168-.207.28-.43.158-.716-.331-.776-.648-1.558-.975-2.335-.066-.156-.157-.302-.331-.365-.52-.19-1.342.021-1.732.431a3.138 3.138 0 00-.891 2.291z" fill="#6EB861"/><path d="M4.203 7.35a3.134 3.134 0 01.892-2.29c.39-.41 1.212-.622 1.732-.431.174.063.266.209.331.365.328.777.645 1.559.975 2.335.122.287.01.51-.158.716-.204.252-.424.493-.639.737-.167.19-.184.384-.05.605.931 1.533 2.174 2.71 3.857 3.385.453.18.645.13.947-.253.209-.266.406-.54.603-.815.213-.297.475-.387.813-.225.748.36 1.496.722 2.248 1.078.206.098.269.251.266.47-.02 1.355-.721 2.153-2.295 2.518-.415.095-.828.038-1.235-.055-2.63-.6-4.734-2.014-6.382-4.126-.584-.749-1.163-1.502-1.54-2.384-.229-.53-.387-1.076-.365-1.63z" fill="#F8F9FA"/></svg><svg fill="none" viewBox="0 0 60 61" id="icon-why-quality" xmlns="http://www.w3.org/2000/svg"><path d="M50 9.22v6M53 12.22h-6M4 16.22v6M7 19.22H1" stroke="#BCC0C4" stroke-width="2" stroke-miterlimit="10"/><path d="M56 44.22v-8M58 46.22L30.41 59.09c-.68.31-1.46.31-2.14 0L4.5 48.5" stroke="#2B2A29" stroke-width="2" stroke-miterlimit="10"/><path d="M4.6 48.59C2.5 47.64 1 46.02 1 43.72v-4c0-2.07 1.36-4.06 3.25-4.92l25.5-11.52a9.598 9.598 0 017.92 0l19.78 8.93c1.51.68 1.51 2.82 0 3.5l-27.5 12.42c-.76.34-1.63.34-2.38 0L7.51 39.07C6.25 38.5 5 39.33 5 40.72v4.5" stroke="#2B2A29" stroke-width="2" stroke-miterlimit="10"/><path d="M28.12 12.19c.35.08.68.15.99.21.47.09 1.13-.05 1.92-.23.88-.2 1.97-.44 3.27-.44 1.02 0 2.02.15 3.06.45 2.21.64 3.95 2.02 5.02 4 1.55 2.86 1.7 6.98.4 11.3-1.5 4.97-5.33 8.8-9.53 9.53-.32.06-.66.08-1.01.08-.94 0-1.85-.21-2.61-.46-.66-.22-1.37-.22-2.04 0-.76.26-1.67.46-2.61.46-.35 0-.69-.03-1.01-.08-4.2-.73-8.03-4.56-9.53-9.53-2.75-9.13 1.24-13.15 5.08-14.92 1.38-.64 2.82-.95 4.41-.95" fill="#F3723A"/><path d="M28.12 12.19c.35.08.68.15.99.21.47.09 1.13-.05 1.92-.23.88-.2 1.97-.44 3.27-.44 1.02 0 2.02.15 3.06.45 2.21.64 3.95 2.02 5.02 4 1.55 2.86 1.7 6.98.4 11.3-1.5 4.97-5.33 8.8-9.53 9.53-.32.06-.66.08-1.01.08-.94 0-1.85-.21-2.61-.46-.66-.22-1.37-.22-2.04 0-.76.26-1.67.46-2.61.46-.35 0-.69-.03-1.01-.08-4.2-.73-8.03-4.56-9.53-9.53-2.75-9.13 1.24-13.15 5.08-14.92 1.38-.64 2.82-.95 4.41-.95" stroke="#2B2A29" stroke-width="2" stroke-miterlimit="10"/><path d="M19.82 16.53c-1.36 1.26-2.21 5.06-2.19 7.83.12.72.3 1.5.55 2.33M24.93 14.69a6.205 6.205 0 008.77 0" stroke="#2B2A29" stroke-width="2" stroke-miterlimit="10"/><path d="M35.15 8.82c-2.03 3.3-6.31 4.37-6.31 4.37s-.98-4.3 1.05-7.6c2.03-3.31 6.31-4.37 6.31-4.37s.98 4.29-1.05 7.6z" fill="#fff" stroke="#2B2A29" stroke-width="2" stroke-miterlimit="10"/><path d="M29.04 15.98c0-2.73-1.06-6.13-4.38-8.81" stroke="#2B2A29" stroke-width="2" stroke-miterlimit="10"/><path d="M10 8.22a3 3 0 100-6 3 3 0 000 6z" stroke="#BCC0C4" stroke-width="2" stroke-miterlimit="10"/></svg><svg fill="none" viewBox="0 0 64 53" id="icon-why-speed" xmlns="http://www.w3.org/2000/svg"><path d="M36 44c12.15 0 22-9.85 22-22S48.15 0 36 0 14 9.85 14 22s9.85 22 22 22z" fill="#fff"/><path d="M61.68 45.27L16.22 26.58s-1.75 1.31-4.09 3.23c-2.33 1.92-1.53 4.88.7 7.42 3.04 3.46 5.61 5.36 11.86 6.49 4.2.76 5.79.84 8.64 3.03l1.75 1.59C36.57 50.13 41.06 52 43.9 52h8.89c3.38 0 5.72-1.46 7.25-3.13.33-.36 1.78-2.19 2.3-3.68l-.66.08z" fill="#fff"/><path d="M15.62 40c2.18 1.79 4.75 2.94 9.07 3.73 4.2.76 5.79.84 8.64 3.03l1.75 1.59c1.49 1.79 5.98 3.66 8.82 3.66h8.89c3.38 0 5.72-1.46 7.25-3.13.33-.36 1.78-2.19 2.3-3.68l-.65.07M16.22 26.58s-1.75 1.31-4.09 3.23c-2.33 1.92-1.53 4.88.7 7.42" stroke="#2B2A29" stroke-width="2" stroke-miterlimit="10"/><path d="M11 8h21.15c7.17 0 13.44 3.85 16.86 9.6M9 8H7M5 8H3" stroke="#BCC0C4" stroke-width="2" stroke-miterlimit="10"/><path d="M15.99 27.38c-.54 4.2 5.9 8.75 8.66 9.75 3.89 1.41 7.72.68 11.39 5.14 3.67 4.46 9.02 6.05 14.56 6.05 5.53 0 8.45.25 10.67-1.53 1.41-1.39 2.56-5.06.97-5.7-1.98-.79-6.77-1.83-9.55-2.52-1.99-2.58-7.59-13.4-8.75-16.16-.9-2.15-1.97-2.38-3.93-1.65-1.75.65-5.72 2.18-9.04-.55-3.31-2.73-.62-4.72-2.75-4.98-2.13-.26-2.77-.42-4.48 1.18-1.71 1.61-7.21 6.77-7.75 10.97z" fill="#F3723A" stroke="#2B2A29" stroke-width="2" stroke-miterlimit="10"/><path d="M41 25v2M43 29v2M45 33v2M18 37H3M9 28H0M26 22H11M9 22H7" stroke="#2B2A29" stroke-width="2" stroke-miterlimit="10"/><path d="M24 49H10" stroke="#BCC0C4" stroke-width="2" stroke-miterlimit="10"/></svg><svg fill="none" viewBox="0 0 59 59" id="icon-why-time" xmlns="http://www.w3.org/2000/svg"><path d="M32.5 51.5C43.822 51.5 53 42.322 53 31s-9.178-20.5-20.5-20.5S12 19.678 12 31s9.178 20.5 20.5 20.5z" fill="#fff"/><path d="M12.02 30c.08-1.73.38-3.41.87-5M13.23 38c-.58-1.58-.96-3.26-1.13-5M14.08 22c3.33-6.81 10.33-11.5 18.42-11.5C43.82 10.5 53 19.68 53 31s-9.18 20.5-20.5 20.5c-7.69 0-14.39-4.23-17.9-10.5" stroke="#2B2A29" stroke-width="2" stroke-miterlimit="10"/><path d="M21.94 20c2.74-2.63 6.46-4.25 10.56-4.25 8.42 0 15.25 6.83 15.25 15.25S40.92 46.25 32.5 46.25c-4.07 0-7.77-1.59-10.5-4.19" stroke="#2B2A29" stroke-width="2" stroke-miterlimit="10"/><path d="M32 42c6.075 0 11-4.925 11-11s-4.925-11-11-11-11 4.925-11 11 4.925 11 11 11z" fill="#F2F2F2"/><path d="M22 4h-6M58 21.74c-2-5.6-5.82-10.34-10.74-13.5-1.64-1.06-3.4-1.94-5.26-2.62M54.94 47.25C50.06 53.78 42.27 58 33.5 58H20" stroke="#BCC0C4" stroke-width="2" stroke-miterlimit="10"/><path d="M30 8V5h5v3" stroke="#2B2A29" stroke-width="2" stroke-miterlimit="10"/><path d="M38 1H27v4h11V1z" fill="#F3723A" stroke="#2B2A29" stroke-width="2" stroke-miterlimit="10"/><path d="M5 22h14M0 30h16M4 38h14M34.79 28.59L41 22" stroke="#2B2A29" stroke-width="2" stroke-miterlimit="10"/><path d="M18 58h-4M12 58h-2M14 4h-4M8 4H6" stroke="#BCC0C4" stroke-width="2" stroke-miterlimit="10"/><path d="M32.5 33.75a2.75 2.75 0 100-5.5 2.75 2.75 0 000 5.5z" fill="#F3723A" stroke="#2B2A29" stroke-width="2" stroke-miterlimit="10"/><path d="M18.24 11.13l-3.68 3.68M16.4 12.97l2.6 2.6" stroke="#2B2A29" stroke-width="2" stroke-miterlimit="10"/></svg></svg>